<?xml version="1.0" encoding="UTF-8" standalone="no"?>
<!-- Created with Inkscape (http://www.inkscape.org/) -->

<svg
   version="1.1"
   id="svg1"
   width="1200"
   height="2133.3333"
   viewBox="0 0 1200 2133.3333"
   xmlns="http://www.w3.org/2000/svg"
   xmlns:svg="http://www.w3.org/2000/svg">
  <defs
     id="defs1" />
  <g
     id="layer-MC0">
    <path
       id="path1"
       d="M 0,0 H 900 V 1600 H 0 Z"
       style="fill:#12253c;fill-opacity:1;fill-rule:nonzero;stroke:none"
       transform="matrix(1.3333333,0,0,-1.3333333,0,2133.3333)" />
  </g>
  <g
     id="layer-MC1">
    <path
       id="path2"
       d="M 0,0 -2.051,2.05 -3.25,13.15 -1.2,11.101 Z M 19.5,22.5 21.55,20.45 9.5,21.75 7.449,23.8 Z M 2.85,21.101 7.55,16.351 8.3,9 6.449,7.2 5.3,8.3 6.899,9.9 -0.7,17.55 Z m -29.701,5.799 11,-1.15 2.151,-2.1 -11.101,1.201 z M -16.601,14.75 5.1,36.5 13.449,35.65 15.8,33.351 14.6,32.15 12.25,34.45 -9.45,12.7 -17.351,13.65 -19.65,16 -18.7,16.9 Z M -4.301,45.9 -3,34.3 -5.15,36.4 -6.351,47.95 Z m -7.3,-6.7 -1.849,-1.849 7.3,-7.301 -3.55,-3.55 -4.101,4.101 -0.849,7.949 1.849,1.85 z m -56.25,-88.8 4.701,-4.75 0.7,-7.35 -1.8,-1.85 -1.15,1.1 1.599,1.65 -7.599,7.651 z m -4.049,-10 1.2,-11.1 -2.05,2.051 -1.2,11.099 z m 22.75,9.35 -12.1,1.3 -2.051,2.051 12.101,-1.301 z m -35.25,3.2 -11.1,1.2 -2.051,2.05 11,-1.15 z m 0.25,13.7 7.299,-7.299 -3.549,-3.551 -4.1,4.1 -0.851,7.951 1.851,1.799 1.199,-1.2 z m 7.099,10.55 2.051,-2.05 1.25,-11.549 -2.15,2.099 z m 19.801,-12.3 2.35,-2.299 -1.201,-1.201 -2.349,2.3 -21.75,-21.7 -7.851,0.95 -2.3,2.35 0.951,0.9 2.099,-2.15 21.7,21.7 z m -87.4,48.3 2.049,-2.05 1.201,-11.1 -2.05,2.051 z m 22.75,9.3 2.049,-2.05 -12.099,1.35 -2.05,2.051 z m -16.701,-1.399 4.75,-4.75 0.701,-7.351 -1.8,-1.85 -1.151,1.1 1.601,1.65 -7.65,7.65 z m -7.099,24.799 1.2,-11.6 -2.101,2.1 -1.149,11.55 z m -7.3,-6.75 -1.851,-1.799 7.3,-7.25 -3.55,-3.551 -4.099,4.1 -0.851,7.9 1.851,1.801 z m -8.101,-23.15 0.951,0.9 2.15,-2.1 21.699,21.7 8.351,-0.85 2.3,-2.35 -1.201,-1.199 -2.299,2.349 -21.75,-21.7 -7.85,0.9 z m 3.851,9.75 2.1,-2.1 -11.1,1.201 -2.051,2.049 z m 72.8,68.601 -11.101,1.199 -2.05,2.051 11.05,-1.151 z m 7.599,6.449 -3.549,-3.55 -4.1,4.101 -0.851,7.899 1.851,1.851 1.199,-1.201 -1.849,-1.85 z m 6.151,-30.05 -2.05,2.05 -1.2,11.1 2.05,-2.049 z m 2.8,21.05 4.75,-4.75 0.75,-7.35 -1.85,-1.8 -1.15,1.1 1.599,1.601 -7.649,7.649 z m 12.95,12.25 -1.2,-1.199 -2.3,2.349 -21.7,-21.75 -7.901,0.901 -2.349,2.349 0.95,0.901 2.149,-2.101 21.7,21.75 8.351,-0.85 z m 5.8,-12.9 -12.05,1.35 -2.05,2.05 12.05,-1.35 z m -25.85,25.5 1.25,-11.65 -2.101,2.101 -1.2,11.599 z m -69.65,37.951 2.049,-2.051 1.201,-11.1 -2.05,2.05 z m 9.7,-6 -1.151,1.149 1.601,1.601 -7.65,7.599 3.549,3.55 4.75,-4.75 0.75,-7.35 z m -22.3,18.599 2.1,-2.15 -11.1,1.2 -2.051,2.05 z m 35.35,-3.25 2.049,-2.099 -12.049,1.349 -2.05,2.05 z m -4.951,9.6 -2.299,2.35 -21.701,-21.75 -7.899,0.951 -2.351,2.299 0.951,0.9 2.15,-2.1 21.699,21.75 8.351,-0.849 2.3,-2.351 z m -27.349,8.301 1.2,-1.201 -1.851,-1.85 7.3,-7.3 -3.55,-3.55 -4.099,4.1 -0.851,7.95 z m 8.5,5.5 1.25,-11.651 -2.101,2.151 -1.199,11.549 z m -22.601,122.349 11.051,-1.099 2.1,-2.151 -11.1,1.2 z m 25.651,-15.75 1.2,-11.099 -2.05,2.049 -1.2,11.1 z m 7.65,-3.95 -1.101,1.15 1.651,1.6 -7.651,7.601 3.5,3.549 4.75,-4.7 0.701,-7.349 z m 15.149,13.3 -12.099,1.35 -2.05,2.05 12.1,-1.349 z m 47.101,-89.1 -1.2,11.1 2.05,-2.05 1.2,-11.1 z m 4.85,19 4.75,-4.75 0.75,-7.3 -1.85,-1.85 -1.15,1.15 1.65,1.6 -7.65,7.6 z m 4.65,2.8 12.05,-1.35 2.05,-2.1 -12.05,1.4 z m -24.051,-9.05 21.7,21.7 8.351,-0.85 2.3,-2.35 -1.2,-1.2 -2.3,2.351 -21.7,-21.701 -7.85,0.9 -2.351,2.301 0.901,0.949 z m -10.3,12.05 11.05,-1.1 2.101,-2.15 -11.101,1.2 z m 20.55,21.101 2.051,-2.051 1.25,-11.6 -2.101,2.151 z m -5.25,-8.75 -1.849,-1.851 7.299,-7.3 -3.5,-3.55 -4.099,4.1 -0.901,7.95 1.851,1.85 z M 8.3,150.45 6.449,148.601 5.3,149.7 l 1.649,1.6 -7.649,7.65 3.5,3.55 4.75,-4.75 z M -2.051,143.5 -3.25,154.601 -1.2,152.55 0,141.45 Z m -9.55,37.101 -1.849,-1.851 7.3,-7.25 -3.5,-3.55 -4.1,4.1 -0.9,7.9 1.849,1.85 z M -26.9,168.3 l 11.049,-1.15 2.101,-2.1 -11.101,1.2 z m 22.599,19.051 1.25,-11.601 -2.099,2.101 -1.201,11.549 z m 18.851,-13.801 -2.3,2.35 -21.7,-21.7 -7.851,0.85 -2.349,2.35 0.9,0.951 2.149,-2.101 21.701,21.7 8.349,-0.849 2.301,-2.351 z m 4.95,-9.65 2.05,-2.049 -12.05,1.399 -2.051,2.05 z m -46.4,145.8 11.049,-1.099 2.101,-2.151 -11.101,1.2 z M -1.2,293.95 0,282.851 -2.051,284.9 -3.25,296 Z m 10.7,10.7 -2.051,2.05 12.101,-1.349 2.05,-2.101 z M 8.3,291.851 6.449,290 5.3,291.15 l 1.649,1.65 -7.649,7.6 3.5,3.5 4.75,-4.75 z m 7.45,24.299 -1.2,-1.2 -2.3,2.35 -21.7,-21.699 -7.851,0.899 -2.349,2.3 0.9,0.95 2.149,-2.1 21.701,21.701 8.349,-0.851 z m -21.9,-3.25 -3.5,-3.5 -4.1,4.1 -0.9,7.9 1.849,1.85 1.2,-1.2 -1.849,-1.85 z m 1.849,15.85 1.25,-11.6 -2.099,2.15 -1.201,11.5 z m 23.851,118 2.05,-2.05 -12.151,1.35 -2.05,2.051 z m -39.2,-6.5 0.9,0.9 2.1,-2.1 21.7,21.7 8.349,-0.85 2.351,-2.35 -1.2,-1.199 L 12.199,458.7 -9.5,437 l -7.801,0.95 z m -7.201,10.851 11.05,-1.101 2.101,-2.149 -11.101,1.199 z M -1.2,435.351 0,424.25 -2.051,426.3 -3.25,437.4 Z M 2.85,445.3 7.6,440.601 8.25,433.25 6.399,431.4 5.3,432.55 6.949,434.2 -0.7,441.8 Z m -16.25,16.301 7.25,-7.301 -3.55,-3.5 -4.101,4.1 -0.8,7.9 1.8,1.85 1.2,-1.2 z m 9.049,8.549 1.3,-11.6 -2.099,2.15 -1.25,11.5 z m -93.25,-89.75 11.05,-1.1 2.101,-2.15 -11.101,1.201 z m 14.101,13.55 1.199,-1.2 -1.849,-1.85 7.25,-7.299 -3.5,-3.5 -4.1,4.099 -0.851,7.901 z m 21.05,-31.4 -1.851,-1.85 -1.099,1.151 1.65,1.649 -7.65,7.601 3.5,3.5 4.75,-4.701 z m -9.5,2.1 1.2,-11.1 -2.051,2.051 L -74,366.7 Z m 8.649,12.75 12.151,-1.35 2.049,-2.05 -12.149,1.351 z m -10.449,10.451 -2.101,2.149 -1.25,11.5 2.05,-2.05 z m 15.25,0.149 -21.7,-21.7 -7.8,0.9 -2.351,2.3 0.901,0.95 2.099,-2.099 21.701,21.699 8.349,-0.85 2.351,-2.349 -1.2,-1.201 z m -67.15,-71.85 -1.201,-1.2 -2.349,2.35 -21.7,-21.699 -7.8,0.899 -2.351,2.3 0.901,0.95 2.099,-2.1 21.7,21.701 8.351,-0.851 z m -20.1,12.6 1.3,-11.6 -2.101,2.15 -1.25,11.5 z m -10.301,-7.35 1.851,1.85 1.2,-1.2 -1.851,-1.85 7.25,-7.3 -3.5,-3.549 -4.099,4.099 z m 17.45,123.951 4.701,-4.75 0.75,-7.351 -1.85,-1.85 -1.15,1.15 1.65,1.65 -7.601,7.651 z m -4.049,-10 1.2,-11.101 -2.05,2.05 -1.2,11.1 z m 10.7,10.699 -2.05,2.051 12.1,-1.351 2.049,-2.05 z m -25.351,3.95 2.151,-2.1 -11.1,1.201 -2.051,2.049 z m 29.301,9.9 2.35,-2.299 -1.201,-1.201 -2.349,2.3 -21.7,-21.7 -7.85,0.9 -2.301,2.35 0.901,0.95 2.099,-2.15 21.7,21.7 z m -26.25,4.75 1.199,-1.2 -1.849,-1.849 7.299,-7.301 -3.5,-3.5 -4.099,4.1 -0.901,7.9 z m 8.5,5.5 1.3,-11.549 -2.151,2.099 -1.2,11.5 z m 75.05,24.8 -2.05,2.05 -1.2,11.101 2.05,-2.051 z m 7.399,23.85 12.101,-1.35 2.05,-2.05 -12.1,1.35 z m -4.55,-2.75 4.701,-4.75 0.7,-7.35 -1.851,-1.849 -1.149,1.149 1.649,1.65 -7.599,7.65 z m -9.25,26.85 2.05,-2.049 1.301,-11.551 -2.15,2.1 z m -13.25,-31.9 0.901,0.9 2.099,-2.15 21.701,21.7 8.349,-0.849 2.351,-2.301 -1.2,-1.199 -2.35,2.299 -21.7,-21.7 -7.851,0.95 z m -7.2,10.851 11,-1.151 2.151,-2.099 -11.1,1.199 z m 15.2,12.299 -1.799,-1.85 7.299,-7.3 -3.549,-3.5 -4.1,4.101 -0.851,7.899 1.8,1.851 z m -85.899,58.4 11,-1.15 2.149,-2.1 -11.099,1.2 z m 26.85,-26.9 -2.05,2.05 -1.2,11.1 2.049,-2.05 z m 2.849,21.1 4.7,-4.75 0.701,-7.35 -1.85,-1.85 -1.15,1.15 1.65,1.651 -7.601,7.649 z m -17.5,17.45 1.801,1.85 1.199,-1.199 -1.8,-1.851 7.3,-7.3 -3.55,-3.5 -4.099,4.1 z m 22.051,-14.7 12.1,-1.35 2.049,-2.049 -12.099,1.349 z m 4.8,10.601 -21.7,-21.701 -7.85,0.951 -2.301,2.349 0.901,0.901 2.099,-2.151 21.7,21.7 8.351,-0.85 2.35,-2.3 -1.201,-1.2 z m -16.55,11.449 1.3,-11.55 -2.151,2.101 -1.2,11.5 z m 73.85,35.95 1.2,-11.1 -2.05,2.05 -1.2,11.1 z m 9.45,-2.149 -1.8,-1.851 -1.15,1.15 1.599,1.65 -7.599,7.65 3.549,3.55 4.701,-4.75 z m -21.7,28.399 7.299,-7.3 -3.549,-3.55 -4.1,4.1 -0.851,7.95 1.851,1.8 1.199,-1.2 z m -13.401,-10.45 11,-1.15 2.151,-2.1 -11.1,1.2 z m 23.801,7.4 -2.15,2.1 -1.151,11.5 2.051,-2.05 z m 10.449,-10.5 12.101,-1.3 2.05,-2.049 -12.1,1.299 z m 6.051,11.8 2.35,-2.3 -1.201,-1.2 -2.349,2.3 -21.75,-21.699 -7.851,0.949 -2.3,2.35 0.901,0.9 2.099,-2.15 21.75,21.701 z M -1.2,576.8 0,565.7 l -2.051,2.05 -1.199,11.101 z m -14.651,14.65 2.151,-2.099 -11.101,1.199 -2.05,2.051 z m 2.401,11.6 7.3,-7.3 -3.55,-3.55 -4.101,4.1 -0.849,7.95 1.849,1.8 1.2,-1.199 z m 21.7,-28.4 -1.801,-1.85 -1.149,1.15 1.599,1.651 -7.599,7.649 3.55,3.55 4.7,-4.75 z m -0.851,14.85 12.101,-1.3 2.05,-2.05 -12.101,1.3 z m 8.401,9.5 -1.2,-1.2 -2.35,2.301 -21.75,-21.701 -7.851,0.951 -2.299,2.349 0.9,0.901 2.1,-2.151 21.75,21.7 8.349,-0.85 z m -20.101,12.55 1.25,-11.55 -2.149,2.101 -1.151,11.5 z m -355.599,-492.9 2.049,-2.049 1.25,-11.601 -2.099,2.15 z m 134.049,-165.75 -11.099,1.201 -2.05,2.049 11.05,-1.15 z m 21.151,0.25 12.099,-1.4 2.05,-2.05 -12.099,1.401 z m -4.601,-2.799 4.75,-4.75 0.7,-7.301 -1.799,-1.85 -1.151,1.1 1.601,1.65 -7.651,7.651 z m -4,-9.951 1.2,-11.1 -2.049,2.051 -1.201,11.099 z m 14.601,24.55 2.3,-2.349 -1.201,-1.201 -2.299,2.35 -21.701,-21.7 -7.849,0.9 -2.351,2.35 0.901,0.9 2.15,-2.099 21.75,21.699 z m -19.75,12.3 2.05,-2.05 1.2,-11.599 -2.101,2.099 z m -5.25,-8.8 -1.851,-1.849 7.301,-7.25 -3.551,-3.5 -4.099,4.099 -0.85,7.85 1.85,1.85 z m -127.75,-41.2 -2.05,2.05 -1.2,11.1 2.05,-2.049 z m 7.55,16.3 0.7,-7.3 -1.851,-1.85 -1.149,1.1 1.649,1.601 -7.649,7.649 3.55,3.55 z m 14,4.1 -12.1,1.4 -2.051,2.051 12.101,-1.401 z m -25.901,25.5 1.25,-11.6 -2.099,2.15 -1.201,11.5 z m 73,26.85 -2.05,2.05 -1.2,11.1 2.051,-2.049 z m 2.801,21.05 4.75,-4.75 0.699,-7.3 -1.8,-1.85 -1.149,1.15 1.6,1.65 -7.651,7.6 z m -29.7,5.801 11.05,-1.101 2.099,-2.149 -11.099,1.199 z m 14.099,13.549 1.201,-1.2 -1.85,-1.849 7.3,-7.301 -3.55,-3.5 -4.101,4.1 -0.849,7.9 z m 8.5,5.5 1.201,-11.6 -2.1,2.15 -1.15,11.5 z m -67.649,35.9 1.199,-11.1 -2.05,2.05 -1.2,11.101 z m 4.05,9.95 4.75,-4.7 0.649,-7.35 -1.8,-1.849 -1.099,1.149 1.599,1.65 -7.649,7.6 z m 18.75,-0.6 -12.151,1.35 -2.049,2.05 12.15,-1.35 z m 64.849,-57.85 -1.2,-1.199 -2.3,2.349 -21.7,-21.7 -7.849,0.95 -2.35,2.3 0.899,0.9 2.151,-2.1 21.75,21.7 8.3,-0.85 z m 3.8,-10.8 2.051,-2.1 -12.101,1.4 -2.049,2.051 z m 51.2,48.25 -2.049,2.05 -1.201,11.1 2.05,-2.049 z m -24.849,24.8 -2.05,2.051 11.05,-1.101 2.099,-2.149 z m 18.7,5.25 -3.551,-3.55 -4.099,4.101 -0.85,7.949 1.85,1.801 1.2,-1.201 -1.851,-1.799 z m 19.6,5.551 2.299,-2.351 -1.2,-1.2 -2.3,2.35 -21.75,-21.7 -7.849,0.95 -2.351,2.3 0.95,0.901 2.151,-2.101 21.7,21.7 z m -10.651,-14.551 4.75,-4.75 0.7,-7.35 -1.799,-1.849 -1.151,1.149 1.601,1.65 -7.651,7.6 z m 4.601,2.75 12.099,-1.3 2.05,-2.1 -12.099,1.35 z m -165.55,-150.4 2.149,-2.1 21.701,21.7 8.349,-0.85 2.301,-2.35 -1.2,-1.199 -2.3,2.349 -21.7,-21.7 -7.851,0.9 -2.349,2.3 z m -8.101,9.951 11.05,-1.101 2.101,-2.149 -11.101,1.199 z M -422.2,-2.05 -424.25,0 l -1.2,11.101 2.05,-2.051 z m 57.899,-30.3 1.2,-1.25 -1.799,-1.85 7.299,-7.25 -3.549,-3.55 -4.1,4.101 -0.851,7.949 z M -495,-70.7 l -1.2,11.1 2.05,-2.049 1.2,-11.101 z m -16.65,14.85 2.1,-2.1 21.699,21.7 8.351,-0.85 2.35,-2.35 -1.201,-1.199 -2.349,2.349 -21.7,-21.75 -7.8,0.95 -2.35,2.3 z m -8.15,9.951 11.05,-1.101 2.1,-2.149 -11.1,1.199 z m 29.699,-5.801 4.75,-4.699 0.701,-7.401 -1.85,-1.8 -1.101,1.15 1.651,1.6 -7.651,7.6 z m 4.601,2.801 12.1,-1.351 2.049,-2.05 -12.099,1.35 z m -11.75,22.049 1.3,-11.6 -2.1,2.15 -1.25,11.5 z m -7.25,-6.7 -1.851,-1.849 7.25,-7.301 -3.5,-3.55 -4.099,4.101 -0.85,7.949 1.85,1.85 z m 10.399,113.3 1.201,-11.1 -2.05,2.05 -1.2,11.1 z m 7.601,-3.95 -1.15,1.15 1.65,1.6 -7.601,7.65 3.551,3.55 4.75,-4.75 0.65,-7.35 z m -33.25,19.75 11,-1.15 2.149,-2.1 -11.099,1.2 z m 15.2,12.301 -1.801,-1.851 7.301,-7.3 -3.551,-3.55 -4.099,4.1 -0.85,7.95 1.8,1.85 z m 26.199,-7.051 -2.349,2.301 -21.7,-21.701 -7.85,0.9 -2.3,2.35 0.9,0.951 2.1,-2.151 21.699,21.7 8.351,-0.85 2.35,-2.3 z m 7.051,-11.699 -12.15,1.349 -2.05,2.05 12.1,-1.35 z m 56.5,-67.301 12.15,-1.35 2.049,-2.05 -12.149,1.35 z m 0.199,-7.5 0.651,-7.35 -1.85,-1.849 -1.1,1.149 1.65,1.601 -7.65,7.599 3.549,3.55 z m 6.951,15.75 -2.35,2.35 -21.7,-21.7 -7.8,0.901 -2.351,2.299 0.901,0.951 2.099,-2.101 21.701,21.7 8.35,-0.849 2.35,-2.351 z m -28.25,-8.5 -11.1,1.2 -2.05,2.05 11.05,-1.1 z m 0.299,13.75 7.25,-7.3 -3.549,-3.55 -4.1,4.1 -0.8,7.95 1.8,1.851 1.2,-1.201 z m 9.051,8.551 1.3,-11.601 -2.101,2.15 -1.25,11.5 z m 56.35,41.649 21.75,21.7 8.3,-0.849 2.349,-2.351 -1.199,-1.2 -2.351,2.35 -21.7,-21.7 -7.8,0.95 -2.349,2.3 0.899,0.901 z m -8.151,10 -2.049,2.05 11.049,-1.1 2.101,-2.15 z m 18.651,5.25 -3.55,-3.5 -4.101,4.101 -0.799,7.899 1.849,1.851 1.2,-1.201 -1.849,-1.85 z m -66.6,42.7 -1.2,11.1 2.05,-2.05 1.2,-11.1 z m 8.5,5.1 -1.15,1.15 1.599,1.651 -7.599,7.649 3.55,3.5 4.7,-4.75 0.7,-7.35 z m 13.05,15.35 2.05,-2.049 -12.1,1.349 -2.051,2.05 z m -32.3,17.9 1.199,-1.199 -1.849,-1.851 7.3,-7.3 -3.55,-3.5 -4.1,4.1 -0.85,7.9 z m 8.5,5.5 1.25,-11.55 -2.15,2.101 -1.151,11.5 z m -14.45,-28.949 2.1,-2.151 21.75,21.7 8.299,-0.85 2.351,-2.3 -1.2,-1.2 -2.35,2.301 -21.7,-21.701 -7.851,0.951 -2.299,2.349 z m -54.25,-43.801 1.3,-11.55 -2.151,2.101 -1.199,11.5 z m 57.149,52.6 2.151,-2.1 -11.1,1.2 -2.051,2.05 z m -79.649,69.8 -2.05,2.05 11,-1.149 2.15,-2.101 z m 24.8,-24.849 -2.05,2.049 -1.2,11.1 2.05,-2.05 z m 2.849,21.099 4.701,-4.75 0.7,-7.349 -1.8,-1.851 -1.15,1.15 1.6,1.65 -7.6,7.65 z m 4.551,2.75 12.1,-1.349 2.05,-2.051 -12.1,1.35 z m -13.551,6.2 -3.549,-3.5 -4.1,4.1 -0.851,7.9 1.851,1.85 1.2,-1.2 -1.85,-1.85 z m 3.101,4.3 -2.15,2.1 -1.15,11.5 2.05,-2.05 z m 16.45,1.3 2.35,-2.3 -1.2,-1.2 -2.35,2.3 -21.7,-21.699 -7.85,0.949 -2.301,2.35 0.901,0.9 2.099,-2.15 21.75,21.701 z m 41.449,60.851 2.151,-2.101 -11.1,1.2 -2.051,2.05 z m 59.701,-69.551 11,-1.15 2.15,-2.1 -11.101,1.2 z m 14.049,13.45 1.201,-1.2 -1.85,-1.8 7.3,-7.3 -3.55,-3.55 -4.101,4.1 -0.849,7.95 z m -59.099,41.45 1.2,-11.099 -2.05,2.049 -1.2,11.1 z m 7.65,-4 -1.15,1.151 1.599,1.649 -7.599,7.65 3.55,3.55 4.7,-4.75 0.7,-7.4 z m 15.1,13.35 -12.1,1.301 -2.051,2.049 12.101,-1.299 z m 186.3,-186.699 1.2,-11.601 -2.101,2.15 -1.149,11.5 z m -46.901,47.349 2.051,-2.05 -12.15,1.3 -2.05,2.05 z M -280,162.5 l 4.75,-4.7 0.649,-7.4 -1.799,-1.85 -1.1,1.15 1.6,1.651 -7.651,7.599 z m -19.45,-6.3 21.7,21.7 8.35,-0.85 2.349,-2.35 -1.199,-1.2 -2.351,2.351 -21.75,-21.701 -7.799,0.951 -2.35,2.299 0.949,0.9 z m 16.599,-14.75 -2.049,2.05 -1.201,11.101 2.05,-2.051 z m -11.549,39.151 -1.85,-1.801 7.25,-7.3 -3.551,-3.55 -4.099,4.1 -0.8,7.95 1.849,1.8 z m -15.3,-12.301 11.05,-1.1 2.099,-2.15 -11.099,1.2 z m 22.55,19 1.25,-11.6 -2.1,2.151 -1.2,11.5 z m -68.451,26.9 -1.2,11.1 2.051,-2.05 1.199,-11.1 z m 4.901,19.05 4.7,-4.75 0.699,-7.399 -1.8,-1.851 -1.149,1.15 1.6,1.65 -7.6,7.65 z m 4.55,2.7 12.099,-1.3 2.051,-2.049 -12.101,1.299 z m 6.049,11.8 2.351,-2.3 -1.2,-1.2 -2.351,2.3 -21.75,-21.699 -7.849,0.949 -2.3,2.35 0.95,0.9 2.1,-2.15 21.7,21.701 z m -16.5,-1.3 -2.149,2.1 -1.15,11.5 2.049,-2.05 z m 57.901,62.151 2.149,-2.101 -11.099,1.2 -2.05,2.05 z m 14.649,-14.651 1.2,-11.099 -2.049,2.049 -1.201,11.1 z m 47.101,-57 -2.05,2.05 11.05,-1.1 2.099,-2.15 z m 24.8,-24.8 -2.05,2.05 -1.2,11.1 2.049,-2.05 z m 2.849,21.05 4.75,-4.7 0.7,-7.399 -1.849,-1.801 -1.101,1.15 1.601,1.6 -7.651,7.6 z m 4.601,2.75 12.099,-1.3 2.05,-2.049 -12.099,1.299 z m -20.851,13.55 7.25,-7.3 -3.55,-3.55 -4.099,4.1 -0.8,7.95 1.85,1.85 1.2,-1.199 z m 25.651,-2.899 -21.701,-21.75 -7.849,0.949 -2.351,2.301 0.95,0.899 2.101,-2.1 21.699,21.75 8.351,-0.85 2.349,-2.35 -1.2,-1.2 z m -15.25,-0.201 -2.1,2.15 -1.25,11.551 2.05,-2.051 z m -58.201,58.201 -2.049,2.049 12.049,-1.299 2.05,-2.051 z m -4.2,-13.451 1.601,1.6 -7.601,7.65 3.551,3.55 4.699,-4.75 0.75,-7.4 -1.849,-1.8 z M -563.65,-2.05 -565.7,0 l -1.2,11.101 2.049,-2.051 z m -70.701,-70.7 -2.049,2.05 -1.201,11.1 2.051,-2.049 z m 2.851,21.101 4.75,-4.75 0.7,-7.401 -1.85,-1.8 -1.15,1.15 1.6,1.6 -7.6,7.65 z m 18.75,-0.651 -12.101,1.3 -2.049,2.05 12.049,-1.3 z m -40.3,-3.55 2.1,-2.15 21.7,21.75 8.35,-0.899 2.35,-2.301 -1.2,-1.199 -2.351,2.299 -21.699,-21.7 -7.9,0.95 -2.3,2.35 z m -8.15,10 11,-1.15 2.15,-2.1 -11.1,1.201 z m 13.4,10.451 7.3,-7.301 -3.55,-3.55 -4.1,4.101 -0.85,7.949 1.85,1.85 1.2,-1.2 z m 9.15,8.549 1.299,-11.6 -2.149,2.1 -1.2,11.55 z m -22.55,122.4 11,-1.15 2.15,-2.1 -11.1,1.2 z m 13.4,10.45 7.3,-7.3 -3.5,-3.55 -4.101,4.1 -0.899,7.95 1.85,1.85 1.2,-1.199 z m 12.25,-26.25 1.199,-11.1 -2.049,2.05 -1.201,11.1 z m 6.5,-2.8 1.65,1.6 -7.6,7.65 3.5,3.55 4.7,-4.75 0.75,-7.399 -1.85,-1.801 z m 16.25,12.151 -12.051,1.349 -2.049,2.05 12.049,-1.35 z m -5.75,12.899 -1.2,-1.2 -2.351,2.301 -21.699,-21.75 -7.85,0.949 -2.3,2.35 0.9,0.951 2.1,-2.151 21.7,21.7 8.35,-0.85 z m 62.35,-80.2 12.05,-1.35 2.1,-2.05 -12.1,1.35 z m 0.15,-7.5 0.699,-7.4 -1.849,-1.799 -1.151,1.149 1.651,1.601 -7.6,7.649 3.5,3.55 z m -22.25,22.2 1.85,1.851 1.2,-1.201 -1.851,-1.85 7.301,-7.3 -3.5,-3.55 -4.1,4.1 z m -12.2,-11.649 11,-1.151 2.149,-2.099 -11.099,1.199 z m 8.149,-9.951 2.101,-2.15 21.7,21.7 8.35,-0.849 2.349,-2.301 -1.199,-1.199 -2.35,2.299 -21.701,-21.75 -7.849,0.951 -2.3,2.349 z m 14.401,28.951 1.3,-11.551 -2.15,2.1 -1.2,11.5 z M -705.05,-2.05 -707.101,0 -708.3,11.101 -706.25,9.05 Z m -72.75,-68.65 -1.2,11.1 2.05,-2.049 1.2,-11.101 z m -16.65,14.85 2.099,-2.15 21.701,21.7 8.35,-0.849 2.35,-2.301 -1.2,-1.199 -2.35,2.299 -21.7,-21.7 -7.901,0.95 -2.299,2.35 z m -8.151,10 11,-1.15 2.151,-2.1 -11.1,1.201 z m 34.301,-3.1 12.05,-1.3 2.05,-2.05 -12.05,1.3 z m 0.1,-7.449 0.75,-7.401 -1.85,-1.849 -1.15,1.149 1.599,1.65 -7.599,7.65 3.55,3.551 z m -11.85,29.5 1.3,-11.551 -2.15,2.1 -1.201,11.5 z m -9.15,-8.5 7.3,-7.301 -3.55,-3.55 -4.1,4.101 -0.85,7.949 1.85,1.801 1.199,-1.201 z m 12.25,115.199 1.2,-11.1 -2.05,2.05 -1.2,11.101 z m 8.099,-1.25 -7.649,7.65 3.55,3.55 4.75,-4.75 0.75,-7.35 -1.85,-1.799 -1.15,1.099 z m -33.799,17 11.049,-1.15 2.101,-2.1 -11.101,1.2 z m 15.299,12.301 -1.849,-1.851 7.3,-7.25 -3.55,-3.55 -4.1,4.1 -0.85,7.9 1.85,1.85 z m 89.75,-86.101 12.051,-1.3 2.05,-2.05 -12.05,1.3 z m 0.101,-7.45 0.75,-7.4 -1.851,-1.799 -1.149,1.149 1.6,1.601 -7.6,7.649 3.55,3.55 z m -22.2,22.2 1.849,1.851 1.201,-1.201 -1.85,-1.85 7.3,-7.3 -3.55,-3.55 -4.101,4.1 z m 10.349,7.351 1.301,-11.601 -2.15,2.101 -1.2,11.549 z m -14.399,-29 2.1,-2.151 21.7,21.75 8.349,-0.9 2.351,-2.3 -1.2,-1.2 -2.35,2.301 -21.7,-21.701 -7.9,0.951 -2.3,2.349 z m -8.15,10 11,-1.151 2.15,-2.099 -11.101,1.199 z m -22.3,64.25 -12.05,1.349 -2.05,2.05 12.05,-1.35 z m -9.3,14 -21.7,-21.701 -7.901,0.9 -2.349,2.35 0.95,0.9 2.149,-2.15 21.701,21.75 8.35,-0.85 2.3,-2.35 -1.2,-1.2 z m 58.45,36.299 -2.051,2.05 -1.199,11.1 2.05,-2.05 z m 7.55,16.3 0.75,-7.349 -1.851,-1.801 -1.149,1.1 1.649,1.6 -7.649,7.65 3.5,3.55 z m 14,4.1 -12.05,1.4 -2.051,2.05 12.051,-1.399 z m -8.101,15.25 2.301,-2.35 -1.2,-1.2 -2.3,2.351 -21.7,-21.75 -7.851,0.899 -2.349,2.351 0.9,0.949 2.15,-2.15 21.7,21.701 z m -16.5,-1.35 -2.099,2.1 -1.2,11.551 2.049,-2.051 z M -718.8,163 l -11.1,1.2 -2.05,2.05 11.05,-1.149 z m 2.15,15.55 -1.85,-1.85 7.3,-7.25 -3.5,-3.55 -4.1,4.1 -0.9,7.9 1.849,1.85 z m -63.4,-63.949 1.25,-11.651 -2.1,2.1 -1.201,11.6 z m 3.1,106.599 1.2,-11.099 -2.05,2.049 -1.25,11.1 z m 8.75,5.2 0.7,-7.35 -1.851,-1.8 -1.099,1.101 1.65,1.599 -7.65,7.651 3.5,3.549 z m -32.401,8.5 -2.049,2.05 11.049,-1.15 2.101,-2.1 z m 13.25,14.35 -1.849,-1.85 7.3,-7.25 -3.5,-3.549 -4.15,4.099 -0.85,7.901 1.85,1.849 z m 8.551,-4.85 -2.1,2.1 -1.25,11.55 2.049,-2.05 z m 24.6,-13.9 -12.05,1.4 -2.101,2.05 12.101,-1.4 z m -7,11.7 -2.3,2.35 -21.7,-21.75 -7.85,0.9 -2.35,2.35 0.9,0.95 2.149,-2.1 21.701,21.701 8.35,-0.851 2.3,-2.35 z m 55,49.7 1.2,-11.1 -2.05,2.051 -1.25,11.099 z m -12.55,12.5 -11.101,1.201 -2.049,2.049 11.049,-1.15 z m 21.95,-14.6 -1.85,-1.85 -1.1,1.1 1.649,1.6 -7.649,7.65 3.55,3.551 4.75,-4.75 z m 13.35,11.4 -12.1,1.401 -2.1,2.049 12.15,-1.4 z m 129.3,-140.05 -2.05,2.05 12.099,-1.349 2.051,-2.051 z m -1.201,-12.799 -1.849,-1.851 -1.151,1.15 1.651,1.6 -7.6,7.65 3.55,3.55 4.7,-4.75 z m -8.25,-9 -2.049,2.049 -1.201,11.1 2.051,-2.05 z m -5.199,36.449 -1.2,11.5 2.05,-2.05 1.3,-11.55 z m -8.25,0.9 7.3,-7.3 -3.55,-3.549 -4.1,4.099 -0.85,7.95 1.8,1.85 1.2,-1.2 z m -13.4,-10.45 11,-1.149 2.15,-2.101 -11.1,1.2 z m 40.25,8.75 2.349,-2.3 -1.199,-1.2 -2.35,2.3 -21.701,-21.699 -7.849,0.899 -2.3,2.351 0.899,0.949 2.101,-2.15 21.7,21.701 z m -88.45,-60.45 1.299,-11.55 -2.149,2.101 -1.2,11.5 z m 3.15,106.65 1.2,-11.099 -2.051,2.049 -1.199,11.1 z m 8.6,12.75 12.1,-1.4 2.05,-2.05 -12.101,1.4 z m 0.15,-7.55 0.7,-7.299 -1.85,-1.851 -1.15,1.101 1.65,1.599 -7.65,7.651 3.55,3.549 z m -10.65,18 -2.1,2.1 -1.2,11.55 2.05,-2.05 z m -21.75,-9.5 -2.05,2.05 11.05,-1.15 2.1,-2.1 z m 6.049,-7.9 2.151,-2.149 21.7,21.699 8.35,-0.8 2.299,-2.35 -1.199,-1.2 -2.301,2.35 -21.699,-21.699 -7.85,0.849 -2.35,2.35 z m 7.151,22.25 -1.8,-1.85 7.3,-7.25 -3.55,-3.549 -4.101,4.099 -0.849,7.901 1.8,1.849 z m 53.4,60.45 11.05,-1.15 2.1,-2.1 -11.1,1.2 z m 25.699,-15.75 1.201,-11.099 -2.05,2.049 -1.2,11.1 z m 10.651,10.7 -2.05,2.05 12.1,-1.4 2.049,-2.05 z m -4.151,-13.549 1.601,1.649 -7.65,7.65 3.549,3.5 4.75,-4.75 0.701,-7.299 -1.8,-1.851 z m 8.101,27.399 2.3,-2.35 -1.2,-1.2 -2.3,2.35 -21.7,-21.699 -7.85,0.899 -2.351,2.351 0.901,0.899 2.15,-2.1 21.75,21.701 z m -18.601,0.75 -1.149,11.55 2.05,-2.05 1.2,-11.6 z m -8.25,0.9 7.301,-7.25 -3.551,-3.5 -4.099,4.1 -0.85,7.851 1.85,1.849 1.2,-1.2 z m -71,57 -11.099,1.201 -2.05,2.049 11.05,-1.1 z m 2.151,15.55 -1.85,-1.849 7.25,-7.25 -3.551,-3.5 -4.099,4.099 -0.8,7.85 1.85,1.85 z m 19.8,-30.15 -1.8,-1.85 -1.1,1.1 1.6,1.65 -7.651,7.651 3.551,3.5 4.75,-4.75 z m -9.451,2.1 1.25,-11.1 -2.049,2.051 -1.25,11.099 z m 8.601,12.75 12.149,-1.4 2.051,-2.05 -12.15,1.401 z m -10.45,10.451 -2.1,2.149 -1.2,11.5 2.05,-2.05 z m 17.599,-2.201 -2.349,2.35 -21.7,-21.7 -7.8,0.9 -2.35,2.35 0.9,0.9 2.15,-2.099 21.75,21.699 8.25,-0.85 2.35,-2.349 z M -636.4,495 l -2.05,2.05 -1.2,11.1 2.049,-2.049 z m 90.25,-48.25 2.049,-2.05 -12.149,1.35 -2.05,2.051 z m -46.4,4.4 11.05,-1.1 2.1,-2.15 -11.1,1.201 z m 25.65,-15.75 1.25,-11.1 -2.05,2.051 -1.25,11.099 z m 4.049,9.951 4.75,-4.75 0.651,-7.351 -1.8,-1.85 -1.101,1.1 1.601,1.65 -7.65,7.65 z m -14.399,18.049 -1.851,-1.799 7.25,-7.25 -3.549,-3.551 -4.1,4.1 -0.8,7.9 1.85,1.801 z m 5.2,8.8 2.05,-2.05 1.25,-11.6 -2.101,2.15 z m 19.8,-12.3 2.35,-2.35 -1.201,-1.199 -2.349,2.349 -21.75,-21.7 -7.8,0.9 -2.351,2.35 0.951,0.9 2.15,-2.1 21.7,21.7 z m -139.351,-143.45 2.301,-2.349 -1.2,-1.201 -2.3,2.35 -21.7,-21.7 -7.851,0.85 -2.349,2.35 0.9,0.95 2.15,-2.099 21.7,21.699 z m -26.25,4.7 1.201,-1.2 -1.8,-1.849 7.3,-7.25 -3.55,-3.551 -4.151,4.1 -0.799,7.9 z m 8.451,5.55 1.299,-11.599 -2.099,2.099 -1.25,11.55 z m -58.951,48.651 12.151,-1.351 2.05,-2.05 -12.15,1.35 z m -8.599,-12.75 1.2,-11.101 -2.05,2.05 -1.2,11.1 z m 0.5,6.399 3.55,3.55 4.75,-4.699 0.65,-7.351 -1.851,-1.85 -1.099,1.15 1.65,1.6 z m -18.05,-0.6 2.1,-2.1 21.7,21.7 8.349,-0.85 2.351,-2.35 -1.2,-1.199 -2.35,2.349 -21.7,-21.7 -7.8,0.9 -2.35,2.3 z m 5.05,6.701 -11.1,1.199 -2.051,2.051 11.051,-1.101 z m 2.099,15.599 -1.799,-1.849 7.25,-7.301 -3.55,-3.55 -4.1,4.101 -0.801,7.949 1.801,1.85 z m 8.551,-4.9 -2.1,2.15 -1.25,11.5 2.049,-2.05 z m 1,109.15 -2.051,2.05 -1.199,11.101 2.05,-2.051 z m 69.5,-59.599 1.199,-11.101 -2.049,2.05 -1.201,11.1 z m 4.05,9.949 4.75,-4.699 0.649,-7.351 -1.799,-1.85 -1.1,1.15 1.6,1.65 -7.65,7.6 z m 16.7,1.45 2.05,-2.05 -12.15,1.35 -2.05,2.051 z m -46.4,4.351 11.05,-1.101 2.1,-2.149 -11.1,1.199 z m 40.25,8.799 2.349,-2.35 -1.199,-1.199 -2.35,2.349 -21.701,-21.7 -7.799,0.95 -2.35,2.3 0.899,0.9 2.101,-2.1 21.75,21.7 z m -24.95,3.55 -1.85,-1.849 7.25,-7.301 -3.55,-3.5 -4.1,4.1 -0.8,7.9 1.849,1.85 z m 5.2,8.75 2.05,-2.05 1.25,-11.6 -2.1,2.15 z m 3.099,106.651 2.051,-2.051 1.199,-11.1 -2.049,2.05 z m 6.101,7.949 4.7,-4.75 0.699,-7.4 -1.799,-1.85 -1.15,1.15 1.6,1.651 -7.6,7.649 z m -16.55,2.5 -11.1,1.2 -2.05,2.05 11,-1.1 z m 0.25,13.75 7.3,-7.3 -3.55,-3.55 -4.1,4.1 -0.85,7.95 1.85,1.8 1.2,-1.199 z m 20.85,-13.55 12.099,-1.3 2.051,-2.05 -12.1,1.3 z m 7.2,8.25 -2.351,2.351 -21.75,-21.701 -7.849,0.951 -2.3,2.299 0.95,0.9 2.1,-2.1 21.7,21.7 8.35,-0.85 2.35,-2.35 z m -90.5,-66.35 -1.15,11.5 2.049,-2.049 1.25,-11.601 z m 12.75,-20.1 0.7,-7.35 -1.801,-1.849 -1.149,1.149 1.6,1.65 -7.6,7.65 3.55,3.5 z m -0.15,7.5 12.1,-1.35 2.05,-2.05 -12.101,1.35 z m -21.1,-0.25 -11.101,1.2 -2.049,2.05 11,-1.1 z m -2.95,-8.8 21.75,21.7 8.3,-0.849 2.35,-2.351 -1.2,-1.2 -2.351,2.35 -21.699,-21.7 -7.85,0.95 -2.3,2.3 0.9,0.901 z m 3.849,25.601 1.201,-1.201 -1.85,-1.85 7.3,-7.3 -3.55,-3.5 -4.101,4.101 -0.849,7.899 z M -779,647.5 l 1.2,-11.1 -2.051,2.05 -1.199,11.1 z m 9.45,-2.149 -1.801,-1.851 -1.149,1.15 1.6,1.65 -7.65,7.65 3.55,3.55 4.75,-4.75 z M -783,672.8 l -1.15,11.5 2.049,-2.05 1.25,-11.55 z m -8.5,-12.75 -11.15,1.2 -2.05,2.05 11.05,-1.15 z m 2.1,15.5 -1.85,-1.8 7.3,-7.3 -3.55,-3.55 -4.101,4.1 -0.849,7.95 1.849,1.8 z m 33.15,-18.699 -12.101,1.299 -2.049,2.05 12.1,-1.3 z m 44.85,-45.301 1.25,-11.6 -2.15,2.151 -1.15,11.5 z m -51.8,56.95 -2.35,2.3 -21.75,-21.699 -7.85,0.949 -2.3,2.35 0.95,0.9 2.1,-2.15 21.7,21.701 8.349,-0.851 2.351,-2.3 z m 196.3,-91.7 1.2,-11.1 -2.05,2.05 -1.2,11.101 z m -14.6,14.65 2.1,-2.15 -11.1,1.2 -2.05,2.05 z m 9.649,4.3 -3.549,-3.55 -4.1,4.1 -0.8,7.95 1.85,1.851 1.2,-1.201 -1.851,-1.85 z m 13.101,-20.149 -7.65,7.599 3.549,3.55 4.75,-4.7 0.701,-7.4 -1.85,-1.799 -1.101,1.149 z m 0.5,13.899 12.1,-1.3 2.049,-2.05 -12.099,1.3 z m 4.8,10.65 -21.7,-21.75 -7.85,0.951 -2.351,2.299 0.951,0.9 2.1,-2.1 21.699,21.75 8.351,-0.849 2.35,-2.351 -1.201,-1.2 z M -629,518.8 l 12.149,-1.3 2.051,-2.05 -12.15,1.3 z m -4.55,-2.75 4.75,-4.699 0.65,-7.401 -1.8,-1.849 -1.1,1.149 1.6,1.65 -7.651,7.6 z m -8,15.35 -1.2,11.5 2.05,-2.049 1.25,-11.601 z m -8.551,-12.799 -11.099,1.199 -2.05,2.051 11.05,-1.101 z m -2.899,-8.851 21.7,21.7 8.35,-0.849 2.349,-2.351 -1.199,-1.2 -2.35,2.35 -21.75,-21.7 -7.8,0.95 -2.35,2.3 0.949,0.901 z m 3.85,25.601 1.2,-1.201 -1.85,-1.799 7.25,-7.301 -3.551,-3.55 -4.099,4.101 -0.8,7.949 z m 11.549,112.149 1.201,-11.1 -2.05,2.05 -1.2,11.1 z m 9.5,-2.149 -1.849,-1.801 -1.151,1.15 1.601,1.6 -7.601,7.65 3.551,3.55 4.699,-4.75 z m -22,14.649 -11.099,1.2 -2.05,2.05 11,-1.1 z m 2.101,15.601 -1.851,-1.851 7.301,-7.3 -3.551,-3.55 -4.099,4.1 -0.85,7.95 1.85,1.85 z m 25.05,-3.551 2.349,-2.35 -1.199,-1.2 -2.35,2.351 -21.701,-21.75 -7.899,0.949 -2.3,2.301 0.949,0.899 2.101,-2.1 21.7,21.75 z m -6,-11.85 12.05,-1.3 2.049,-2.049 -12.049,1.299 z m -12.6,12.6 -1.2,11.551 2.05,-2.051 1.3,-11.65 z m 71.55,-61.199 1.3,-11.651 -2.1,2.151 -1.25,11.549 z m 302.949,-295.401 -1.199,-1.2 -2.351,2.3 -21.7,-21.75 -7.899,0.95 -2.3,2.351 0.949,0.899 2.101,-2.149 21.7,21.75 8.35,-0.851 z m 63.2,46.35 -1.849,-1.85 -1.151,1.151 1.651,1.599 -7.601,7.651 3.5,3.549 4.7,-4.75 z m -9.5,2.1 1.201,-11.1 -2.05,2.051 -1.2,11.099 z m 8.651,12.75 12.05,-1.35 2.049,-2.05 -12.049,1.351 z m -21.151,-0.2 -11.099,1.2 -2.05,2.05 11,-1.15 z m 0.901,16.75 1.2,-1.2 -1.851,-1.85 7.3,-7.299 -3.5,-3.551 -4.099,4.1 -0.901,7.951 z m 26.25,-4.75 2.349,-2.3 -1.2,-1.2 -2.349,2.3 -21.701,-21.7 -7.849,0.9 -2.3,2.35 0.899,0.95 2.101,-2.149 21.699,21.699 z m -16.45,-1.3 -2.151,2.1 -1.199,11.5 2.05,-2.05 z m -72.85,-68.65 -1.2,11.55 2.05,-2.05 1.299,-11.6 z m -1,-6.35 -3.551,-3.549 -4.099,4.099 -0.85,7.95 1.85,1.85 1.2,-1.2 -1.851,-1.85 z m -57.65,50.55 -7.6,7.651 3.55,3.549 4.7,-4.75 0.75,-7.4 -1.851,-1.8 -1.149,1.151 z m -8.1,1.2 1.199,-11.1 -2.05,2.051 -1.2,11.099 z m 8.649,12.701 12.05,-1.301 2.051,-2.05 -12.051,1.3 z M -298.7,450 l 2.149,-2.1 -11.099,1.201 -2.05,2.049 z m 14.649,-14.649 1.2,-11.101 -2.049,2.05 -1.201,11.1 z m -69.5,59.649 -2.05,2.05 -1.2,11.1 2.051,-2.049 z m 57.901,-30.35 1.2,-1.2 -1.851,-1.849 7.301,-7.301 -3.5,-3.55 -4.101,4.101 -0.899,7.949 z m 8.5,5.5 1.299,-11.549 -2.149,2.099 -1.2,11.5 z m 10.75,-38.75 -1.151,1.15 1.651,1.6 -7.6,7.65 3.5,3.551 4.699,-4.75 0.75,-7.351 z m 13.049,15.35 2.05,-2.05 -12.05,1.35 -2.049,2.051 z m -7.25,11.95 -21.7,-21.7 -7.849,0.9 -2.3,2.35 0.899,0.95 2.101,-2.15 21.7,21.7 8.35,-0.85 2.349,-2.299 -1.199,-1.201 z m 57.25,47.35 1.201,-11.1 -2.05,2.05 -1.2,11.101 z M -412,317.25 l -21.75,-21.7 -7.851,0.95 -2.299,2.351 0.95,0.899 2.099,-2.149 21.701,21.699 8.35,-0.85 2.35,-2.3 -1.2,-1.2 z m -17.45,2 -1.151,11.5 2.051,-2.05 1.25,-11.55 z m -8.25,0.95 7.3,-7.3 -3.55,-3.549 -4.1,4.099 -0.85,7.95 1.85,1.8 1.199,-1.2 z m 65.45,50.25 2.1,-2.15 21.7,21.75 8.349,-0.85 2.351,-2.3 -1.2,-1.2 -2.351,2.3 -21.699,-21.75 -7.9,0.95 -2.3,2.35 z m 5,6.75 -11.101,1.2 -2.049,2.05 11,-1.15 z m 7.35,24.3 2.049,-2.05 1.3,-11.599 -2.149,2.099 z m -6.451,-7.55 1.201,-1.2 -1.85,-1.85 7.3,-7.299 -3.55,-3.551 -4.101,4.1 -0.849,7.951 z m -120.349,-31.4 -1.8,-1.85 -1.15,1.1 1.6,1.65 -7.65,7.651 3.55,3.549 4.75,-4.75 z m -9.45,2.15 1.2,-11.099 -2.05,2.049 -1.2,11.1 z m -12.55,12.5 -11.1,1.2 -2.051,2.05 11.051,-1.15 z m 0.3,13.7 7.299,-7.25 -3.549,-3.549 -4.1,4.099 -0.851,7.901 1.851,1.799 1.2,-1.2 z m 10.35,-3.049 -2.1,2.099 -1.15,11.55 2.05,-2.05 z m 16.55,1.349 2.3,-2.349 -1.2,-1.201 -2.3,2.35 -21.75,-21.7 -7.85,0.9 -2.35,2.35 0.95,0.9 2.15,-2.099 21.699,21.699 z m 8.1,-15.2 -12.1,1.351 -2.05,2.049 12.1,-1.35 z m 33.299,76 2.101,-2.1 -11.101,1.201 -2.049,2.049 z m -54.849,45 -2.05,2.05 -1.25,11.1 2.05,-2.049 z m 73.5,-49.649 4.75,-4.75 0.75,-7.351 -1.85,-1.8 -1.15,1.1 1.599,1.6 -7.649,7.65 z m -4,-9.951 1.2,-11.1 -2.05,2.051 -1.2,11.099 z m 10.7,10.65 -2.05,2.051 12.05,-1.351 2.05,-2.05 z m 3.95,13.9 2.3,-2.349 -1.2,-1.201 -2.3,2.35 -21.7,-21.75 -7.901,0.9 -2.349,2.35 0.95,0.9 2.149,-2.1 21.701,21.75 z m -25.051,3.5 -1.849,-1.849 7.3,-7.25 -3.55,-3.551 -4.1,4.1 -0.85,7.9 1.85,1.85 z m 7.301,6.75 1.25,-11.65 -2.1,2.1 -1.201,11.6 z m 50.15,49.6 -2.05,2.051 11.05,-1.151 2.099,-2.099 z m 12.049,15.551 1.201,-1.201 -1.85,-1.85 7.3,-7.25 -3.5,-3.55 -4.101,4.101 -0.899,7.899 z m -57.899,30.349 -2.05,2.05 -1.25,11.101 2.05,-2.051 z m 2.8,21.05 4.75,-4.75 0.7,-7.3 -1.851,-1.849 -1.099,1.099 1.65,1.6 -7.65,7.65 z m -17.45,17.45 1.85,1.85 1.199,-1.199 -1.849,-1.851 7.25,-7.25 -3.5,-3.55 -4.1,4.1 z m 22.049,-14.65 12.101,-1.4 2.05,-2.049 -12.1,1.399 z m -83.25,-58.15 -1.25,11.55 2.051,-2.05 1.3,-11.65 z m 12.701,-20.1 0.7,-7.35 -1.85,-1.8 -1.1,1.1 1.6,1.601 -7.65,7.649 3.55,3.55 z m -0.15,7.5 12.1,-1.35 2.05,-2.05 -12.1,1.35 z m -21.15,-0.199 -11.1,1.199 -2.051,2.051 11.051,-1.101 z m -5.95,-7.651 0.95,0.901 2.15,-2.101 21.699,21.75 8.301,-0.85 2.35,-2.35 -1.2,-1.199 -2.35,2.349 -21.7,-21.75 -7.85,0.901 z m 6.9,24.401 1.2,-1.201 -1.85,-1.85 7.25,-7.25 -3.55,-3.55 -4.1,4.101 -0.801,7.899 z m 64.75,47.25 2.149,-2.101 21.701,21.7 8.299,-0.849 2.351,-2.351 -1.2,-1.2 -2.35,2.35 -21.7,-21.7 -7.8,0.85 -2.35,2.35 z m -8.15,9.949 11.049,-1.1 2.101,-2.15 -11.101,1.2 z m -45.05,54.95 1.2,-11.1 -2.05,2.05 -1.2,11.1 z m 8.2,-1.2 -7.65,7.6 3.5,3.55 4.75,-4.7 0.7,-7.35 -1.85,-1.85 -1.1,1.15 z m -12.101,26.551 -1.25,11.5 2.051,-2.051 1.3,-11.6 z m 12.551,-12.601 12.1,-1.35 2.05,-2.049 -12.1,1.349 z m 6,11.8 2.35,-2.35 -1.2,-1.2 -2.35,2.351 -21.7,-21.701 -7.8,0.9 -2.351,2.301 0.901,0.949 2.099,-2.1 21.701,21.7 z m -38.25,-10.85 -2.051,2.05 11.051,-1.1 2.1,-2.15 z m 13.25,14.401 -1.85,-1.851 7.25,-7.3 -3.5,-3.55 -4.1,4.1 -0.851,7.95 1.851,1.85 z m 77.949,-64 1.301,-11.601 -2.1,2.15 -1.25,11.5 z m 61.3,48.399 -11.099,1.2 -2.05,2.05 11.05,-1.1 z m 2.151,15.55 -1.85,-1.85 7.25,-7.25 -3.5,-3.5 -4.101,4.1 -0.849,7.85 1.849,1.85 z m 150,-146.25 -2.151,2.1 -1.199,11.5 2.05,-2.049 z m 10.549,-18 0.75,-7.35 -1.849,-1.849 -1.151,1.149 1.651,1.65 -7.601,7.65 3.5,3.5 z m -0.099,7.5 12.099,-1.35 2.05,-2.05 -12.099,1.35 z m -32.25,1 -2.05,2.051 11,-1.151 2.149,-2.099 z m 5.2,-8.85 0.899,0.95 2.101,-2.15 21.699,21.7 8.351,-0.849 2.349,-2.301 -1.2,-1.199 -2.349,2.299 -21.701,-21.7 -7.849,0.901 z m 8,23.2 -1.851,-1.85 7.3,-7.3 -3.5,-3.5 -4.099,4.101 -0.901,7.899 1.851,1.851 z m -51.65,55.4 12.099,-1.4 2.051,-2.049 -12.101,1.399 z m -81.201,-60.25 -2.099,2.1 -1.2,11.55 2.049,-2.05 z m 10.5,-10.449 12.05,-1.401 2.051,-2.05 -12.051,1.4 z m -4.649,-2.801 4.75,-4.75 0.75,-7.3 -1.851,-1.85 -1.149,1.1 1.649,1.601 -7.649,7.649 z m 10.649,14.6 2.3,-2.35 -1.199,-1.199 -2.301,2.349 -21.699,-21.7 -7.851,0.851 -2.349,2.349 0.899,0.95 2.151,-2.1 21.7,21.7 z m 56.05,46.15 1.2,-11.1 -2.049,2.05 -1.201,11.101 z m -15.399,3.7 21.7,21.7 8.35,-0.849 2.299,-2.351 -1.2,-1.2 -2.3,2.35 -21.7,-21.7 -7.849,0.85 -2.35,2.35 0.899,0.951 z m 0.75,10.9 2.099,-2.1 -11.099,1.2 -2.05,2.05 z m 18.649,-4.65 4.75,-4.75 0.75,-7.3 -1.849,-1.849 -1.151,1.099 1.651,1.651 -7.651,7.649 z m -8.949,9 -3.5,-3.5 -4.101,4.101 -0.899,7.849 1.85,1.85 1.2,-1.199 -1.851,-1.851 z m 1.85,15.851 1.25,-11.601 -2.1,2.101 -1.2,11.549 z m -67.651,35.899 1.25,-11.1 -2.05,2.05 -1.25,11.1 z m 9.5,-2.1 -1.849,-1.85 -1.1,1.1 1.649,1.65 -7.649,7.65 3.5,3.5 4.75,-4.75 z m -11.3,25.3 -2.099,2.151 -1.25,11.5 2.05,-2.051 z m 10.451,-10.45 12.15,-1.399 2.05,-2.051 -12.151,1.4 z m 6,11.8 2.349,-2.35 -1.199,-1.2 -2.351,2.351 -21.7,-21.701 -7.8,0.85 -2.349,2.351 0.899,0.949 2.151,-2.1 21.7,21.7 z m 126.849,-24.55 1.2,-11.1 -2.049,2.05 -1.201,11.1 z m 9.45,-2.1 -1.849,-1.85 -1.151,1.1 1.651,1.65 -7.651,7.65 3.55,3.5 4.75,-4.75 z m -14.649,38.951 2.05,-2.051 1.25,-11.6 -2.101,2.1 z m 13.8,-24.101 12.099,-1.399 2.05,-2.051 -12.099,1.4 z m 4.8,10.601 -21.701,-21.701 -7.849,0.9 -2.351,2.35 0.901,0.9 2.15,-2.1 21.699,21.7 8.351,-0.85 2.3,-2.35 -1.201,-1.2 z m -37.05,-9.651 -2.05,2.05 11.05,-1.149 2.099,-2.101 z m 13.2,14.35 -1.801,-1.85 7.301,-7.25 -3.551,-3.5 -4.099,4.1 -0.85,7.85 1.8,1.85 z m -37.5,51.95 -12.15,1.4 -2.05,2.05 12.149,-1.4 z m 35.399,73.95 -11.099,1.2 -2.05,2.05 11.05,-1.1 z m 12.5,-12.5 1.25,-11.1 -2.049,2.05 -1.25,11.1 z m 4.05,9.95 4.75,-4.75 0.651,-7.35 -1.8,-1.85 -1.101,1.1 1.601,1.65 -7.651,7.65 z M -280,728.15 l 4.75,-4.75 0.649,-7.3 -1.849,-1.85 -1.101,1.1 1.651,1.65 -7.651,7.65 z m -6.101,-7.9 2.05,-2.05 1.25,-11.1 -2.05,2.05 z m -16.399,2.85 0.899,0.9 2.151,-2.1 21.7,21.7 8.3,-0.85 2.349,-2.35 -1.2,-1.2 -2.349,2.35 -21.701,-21.7 -7.799,0.9 z m -7.2,10.85 11.05,-1.1 2.099,-2.15 -11.099,1.2 z m 22.5,19.05 1.3,-11.6 -2.1,2.15 -1.25,11.5 z m -7.25,-6.75 -1.8,-1.85 7.25,-7.25 -3.551,-3.5 -4.099,4.1 -0.8,7.85 1.8,1.85 z m -60.3,42.65 1.199,-11.1 -2.05,2.05 -1.2,11.1 z m 4.05,9.95 4.75,-4.7 0.649,-7.35 -1.849,-1.85 -1.1,1.15 1.649,1.65 -7.649,7.6 z m 18.75,-0.6 -12.151,1.35 -2.049,2.05 12.15,-1.35 z m 47.899,61.4 1.2,-11.1 -2.049,2.05 -1.201,11.1 z m -14.599,14.65 2.099,-2.15 -11.099,1.2 -2.05,2.05 z m 12.75,8.5 -2.1,2.15 -1.2,11.5 2.05,-2.05 z m -8.5,4.9 -1.85,-1.8 7.25,-7.3 -3.551,-3.55 -4.099,4.1 -0.8,7.95 1.849,1.8 z m 94.5,-75.45 -21.75,-21.7 -7.8,0.9 -2.351,2.35 0.901,0.9 2.15,-2.1 21.75,21.7 8.3,-0.85 2.349,-2.35 -1.2,-1.2 z m -18.6,13.5 2.05,-2.05 1.25,-11.6 -2.101,2.15 z m -8.25,-9.4 1.85,1.8 1.2,-1.2 -1.851,-1.8 7.25,-7.25 -3.55,-3.55 -4.099,4.1 z m -46.65,53.95 -2.05,2.05 12.149,-1.3 2.051,-2.05 z m -4.1,-13.5 1.6,1.65 -7.651,7.6 3.551,3.55 4.75,-4.7 0.649,-7.4 -1.799,-1.85 z m 6.899,26.15 -21.75,-21.7 -7.799,0.95 -2.35,2.3 0.899,0.9 2.101,-2.1 21.75,21.7 8.35,-0.85 2.349,-2.35 -1.199,-1.2 z M -414.8,728.9 l -2.051,2.05 12.151,-1.35 2.05,-2.05 z m -6.65,-0.75 4.75,-4.7 0.7,-7.35 -1.851,-1.85 -1.099,1.15 1.65,1.65 -7.65,7.6 z m -6.1,-7.9 2.05,-2.05 1.2,-11.1 -2.051,2.05 z m -1.85,23.3 -1.25,11.5 2.049,-2.05 1.301,-11.6 z m -7.65,3.95 1.199,-1.2 -1.849,-1.85 7.25,-7.3 -3.5,-3.5 -4.1,4.1 -0.85,7.9 z m 58.699,55.1 -2.049,2.05 11.049,-1.1 2.101,-2.15 z m 8.151,-10 21.7,21.7 8.35,-0.85 2.349,-2.35 -1.199,-1.2 -2.351,2.35 -21.7,-21.7 -7.8,0.95 -2.349,2.3 0.899,0.9 z m -70.7,-70.7 21.7,21.7 8.349,-0.85 2.351,-2.35 -1.2,-1.2 -2.35,2.35 -21.7,-21.7 -7.8,0.9 -2.35,2.3 0.9,0.95 z m 0.799,10.95 2.101,-2.15 -11.101,1.2 -2.049,2.05 z m -68.599,68.55 -11.1,1.2 -2.051,2.05 11,-1.1 z m 12.5,-12.5 1.2,-11.1 -2.05,2.05 -1.2,11.1 z m 4.05,10 4.7,-4.75 0.75,-7.35 -1.85,-1.85 -1.15,1.15 1.65,1.65 -7.6,7.65 z m 18.75,-0.65 -12.1,1.35 -2.05,2.05 12.1,-1.35 z m -9.35,14 -21.7,-21.7 -7.85,0.9 -2.301,2.3 0.901,0.95 2.099,-2.1 21.701,21.7 8.35,-0.85 2.35,-2.35 -1.2,-1.2 z m -15.25,-0.15 -2.15,2.15 -1.201,11.5 2.051,-2.05 z m -11.65,4.25 1.85,1.85 1.199,-1.2 -1.849,-1.85 7.3,-7.3 -3.5,-3.5 -4.1,4.1 z m 58.549,59 11,-1.1 2.151,-2.15 -11.1,1.2 z m 84.75,-57.15 1.201,-1.2 -1.8,-1.85 7.25,-7.3 -3.55,-3.5 -4.101,4.1 -0.799,7.9 z m 6.401,7.55 2.05,-2.05 1.299,-11.6 -2.099,2.15 z m -54.85,44.55 -2.051,2.05 12.101,-1.35 2.05,-2.05 z m -10.65,-10.7 1.2,-11.1 -2.05,2.05 -1.2,11.1 z m 4.05,10 4.7,-4.75 0.7,-7.35 -1.851,-1.85 -1.149,1.15 1.649,1.65 -7.599,7.65 z m -14.5,18.1 -1.8,-1.85 7.3,-7.3 -3.55,-3.5 -4.1,4.1 -0.85,7.9 1.799,1.85 z m 6.45,-2.75 -1.2,11.5 2.049,-2.05 1.301,-11.6 z m 17.4,-2 -21.7,-21.7 -7.851,0.95 -2.299,2.3 0.9,0.9 2.1,-2.1 21.7,21.7 8.349,-0.85 2.351,-2.35 -1.2,-1.2 z m 44.8,59.9 -11.101,1.2 -2.049,2.05 11,-1.1 z m -60.25,60.25 2.05,-2.05 1.2,-11.1 -2.05,2.05 z m 62.35,-44.7 -1.85,-1.8 7.3,-7.3 -3.55,-3.55 -4.101,4.1 -0.849,7.95 1.849,1.8 z m -143.5,-15.55 -11.15,1.2 -2.051,2.05 11.051,-1.15 z m 21.1,0.2 12.1,-1.35 2.05,-2.05 -12.1,1.35 z m -4.6,-2.75 4.75,-4.75 0.7,-7.35 -1.85,-1.85 -1.15,1.15 1.65,1.65 -7.65,7.65 z m -4,-10 1.2,-11.1 -2.05,2.05 -1.2,11.1 z m -5.201,36.85 2.051,-2.05 1.3,-11.55 -2.15,2.1 z m 19.801,-12.3 2.35,-2.3 -1.2,-1.2 -2.35,2.3 -21.7,-21.7 -7.85,0.95 -2.301,2.35 0.901,0.9 2.099,-2.15 21.701,21.7 z m -25.051,3.55 -1.799,-1.85 7.299,-7.3 -3.549,-3.5 -4.1,4.1 -0.851,7.9 1.801,1.85 z m 55.451,58.45 11.049,-1.15 2.151,-2.1 -11.151,1.2 z m -43.8,43.8 -2.05,2.05 -1.2,11.15 2.05,-2.05 z m -24.85,24.85 -2.051,2.05 11.051,-1.15 2.1,-2.1 z m 11.4,12.5 7.299,-7.25 -3.549,-3.55 -4.1,4.1 -0.851,7.9 1.851,1.8 1.2,-1.2 z m 16.25,-16.25 4.75,-4.75 0.7,-7.35 -1.8,-1.85 -1.15,1.1 1.6,1.65 -7.65,7.65 z m 10.65,14.55 2.3,-2.35 -1.2,-1.2 -2.3,2.35 -21.75,-21.7 -7.85,0.9 -2.35,2.35 0.9,0.9 2.149,-2.15 21.75,21.7 z m 8.1,-15.2 -12.1,1.35 -2.05,2.05 12.1,-1.35 z m 64.95,-57.85 -1.2,-1.2 -2.35,2.3 -21.75,-21.7 -7.851,0.95 -2.299,2.35 0.9,0.9 2.1,-2.15 21.75,21.7 8.35,-0.85 z m 3.7,-10.8 2.05,-2.05 -12.1,1.3 -2.051,2.05 z m -16.7,-1.4 4.75,-4.75 0.7,-7.4 -1.8,-1.85 -1.15,1.15 1.599,1.65 -7.649,7.65 z m -14.401,18.05 -1.849,-1.8 7.3,-7.3 -3.55,-3.55 -4.1,4.1 -0.85,7.95 1.85,1.8 z m 7.301,6.7 1.25,-11.55 -2.15,2.1 -1.151,11.5 z m 50.15,49.7 -2.05,2.05 11.05,-1.15 2.15,-2.1 z m 18.7,5.2 -3.55,-3.55 -4.101,4.1 -0.849,7.95 1.849,1.85 1.201,-1.2 -1.85,-1.85 z m 133.849,-147.85 -11.099,1.2 -2.05,2.05 11.05,-1.1 z m 16.55,-2.55 4.75,-4.7 0.7,-7.4 -1.849,-1.8 -1.101,1.15 1.601,1.6 -7.651,7.6 z m -4.05,-9.95 1.201,-11.1 -2.05,2.05 -1.2,11.1 z m 14.651,24.55 2.349,-2.35 -1.2,-1.2 -2.349,2.35 -21.701,-21.75 -7.849,0.95 -2.351,2.3 0.95,0.95 2.101,-2.1 21.699,21.7 z m -19.8,12.3 2.05,-2.05 1.3,-11.65 -2.1,2.15 z m -7.051,-10.6 7.25,-7.3 -3.55,-3.55 -4.099,4.1 -0.8,7.95 1.85,1.85 1.2,-1.2 z m -131.05,-3.1 -2.149,2.15 -1.15,11.5 2.049,-2.05 z m 1.851,-23.15 1.199,-11.1 -2.05,2.05 -1.2,11.1 z m 4.05,10 4.7,-4.75 0.699,-7.4 -1.8,-1.85 -1.149,1.15 1.6,1.65 -7.6,7.65 z m 18.7,-0.65 -12.101,1.3 -2.049,2.05 12.099,-1.3 z m -8.101,15.15 2.351,-2.35 -1.2,-1.2 -2.351,2.35 -21.75,-21.7 -7.849,0.95 -2.3,2.3 0.899,0.9 2.101,-2.1 21.75,21.7 z m 54,48.25 2.05,-2.05 1.2,-11.1 -2.049,2.05 z m 6.101,7.95 4.699,-4.75 0.75,-7.4 -1.849,-1.8 -1.151,1.15 1.601,1.6 -7.601,7.65 z m -29.7,5.75 11,-1.1 2.149,-2.15 -11.099,1.2 z m 22.55,19.05 1.299,-11.65 -2.149,2.15 -1.2,11.55 z m -7.3,-6.7 -1.851,-1.85 7.301,-7.3 -3.551,-3.55 -4.099,4.1 -0.85,7.95 1.85,1.85 z m -60.3,42.6 1.199,-11.1 -2.05,2.05 -1.2,11.1 z m 14.649,24.55 2.351,-2.3 -1.2,-1.2 -2.351,2.3 -21.699,-21.75 -7.9,0.95 -2.3,2.35 0.95,0.95 2.1,-2.15 21.7,21.7 z m -10.649,-14.55 4.75,-4.75 0.75,-7.4 -1.851,-1.8 -1.149,1.15 1.6,1.6 -7.651,7.65 z m 18.75,-0.65 -12.051,1.3 -2.05,2.05 12.05,-1.3 z m 64.949,-57.85 -1.199,-1.2 -2.351,2.35 -21.7,-21.75 -7.899,0.95 -2.3,2.3 0.949,0.95 2.101,-2.1 21.7,21.7 8.35,-0.85 z m 3.7,-10.8 2.05,-2.05 -12.05,1.3 -2.049,2.05 z m 51.201,48.2 -2.05,2.05 -1.2,11.1 2.049,-2.05 z m -24.8,24.8 -2.05,2.05 11,-1.1 2.149,-2.15 z m 18.649,5.25 -3.5,-3.55 -4.099,4.1 -0.901,7.95 1.851,1.85 1.2,-1.2 -1.851,-1.85 z m 9,-8.95 4.7,-4.75 0.75,-7.35 -1.849,-1.85 -1.151,1.15 1.651,1.6 -7.601,7.65 z m 10.601,14.55 2.349,-2.35 -1.2,-1.2 -2.349,2.35 -21.701,-21.7 -7.899,0.9 -2.301,2.3 0.95,0.95 2.101,-2.1 21.699,21.7 z m -345.45,-368.75 -12.05,1.35 -2.05,2.05 12.05,-1.35 z m -18.701,0.65 4.701,-4.75 0.75,-7.35 -1.85,-1.85 -1.15,1.15 1.65,1.6 -7.601,7.65 z m -6.099,-7.95 2.05,-2.05 1.2,-11.1 -2.05,2.05 z m -15.45,3.75 2.1,-2.1 21.699,21.7 8.351,-0.85 2.35,-2.35 -1.201,-1.2 -2.349,2.35 -21.7,-21.7 -7.85,0.9 -2.3,2.3 z m 2.85,8.85 2.15,-2.15 -11.1,1.2 -2.05,2.05 z m 10.699,10.7 -1.199,11.5 2.05,-2.05 1.3,-11.6 z m -7.649,3.95 1.2,-1.2 -1.85,-1.85 7.299,-7.3 -3.5,-3.55 -4.099,4.1 -0.901,7.95 z m -82.75,55.15 -2.05,2.05 11.05,-1.15 2.149,-2.1 z m 23.649,-13.75 1.201,-11.1 -2.05,2.05 -1.2,11.1 z m 4,10 4.75,-4.75 0.75,-7.35 -1.849,-1.85 -1.151,1.15 1.651,1.6 -7.651,7.65 z m 18.75,-0.65 -12.049,1.35 -2.05,2.05 12.05,-1.35 z m -8.099,15.2 2.349,-2.3 -1.199,-1.2 -2.35,2.3 -21.701,-21.7 -7.849,0.9 -2.3,2.35 0.899,0.95 2.101,-2.15 21.7,21.7 z m -18.6,0.8 -1.2,11.5 2.05,-2.05 1.3,-11.55 z m -7.65,3.95 1.2,-1.2 -1.851,-1.85 7.301,-7.3 -3.5,-3.55 -4.1,4.1 -0.9,7.95 z m 82.3,41.4 1.2,-11.1 -2.05,2.05 -1.2,11.1 z m -14.65,14.65 2.15,-2.1 -11.15,1.2 -2.051,2.05 z m 10.699,10.7 -1.199,11.5 2.05,-2.05 1.3,-11.55 z m -6.449,2.75 -1.85,-1.85 7.299,-7.3 -3.5,-3.5 -4.099,4.1 -0.901,7.9 1.851,1.85 z m 21.1,-17.4 -2.05,2.05 12.1,-1.35 2.049,-2.05 z m -2.55,-11.85 -7.65,7.65 3.5,3.5 4.75,-4.75 0.75,-7.35 -1.85,-1.85 -1.15,1.15 z m 5.3,24.5 -21.7,-21.7 -7.85,0.9 -2.3,2.35 0.9,0.95 2.1,-2.15 21.699,21.7 8.351,-0.85 2.35,-2.3 -1.201,-1.2 z m -144.151,-154.1 -2.049,2.05 12.049,-1.3 2.051,-2.05 z m -6.699,-0.65 4.75,-4.75 0.75,-7.4 -1.85,-1.8 -1.15,1.15 1.6,1.6 -7.651,7.65 z m -6.051,-7.95 2.051,-2.05 1.199,-11.1 -2.049,2.05 z m -1.899,23.25 -1.2,11.55 2.05,-2.05 1.299,-11.6 z m -8.3,0.95 7.3,-7.3 -3.55,-3.55 -4.1,4.1 -0.85,7.95 1.85,1.85 1.2,-1.2 z m -5.25,-20.45 2.1,-2.15 21.7,21.75 8.35,-0.85 2.35,-2.3 -1.2,-1.2 -2.351,2.3 -21.699,-21.75 -7.9,0.95 -2.3,2.35 z m -8.2,10 11.05,-1.15 2.15,-2.1 -11.15,1.2 z m -68.65,68.65 -2.05,2.05 11.05,-1.15 2.1,-2.1 z m 23.65,-13.7 1.2,-11.15 -2.051,2.05 -1.199,11.15 z m 4,9.95 4.75,-4.75 0.75,-7.35 -1.851,-1.8 -1.149,1.1 1.6,1.6 -7.65,7.65 z m 4.649,2.75 12.051,-1.35 2.05,-2.05 -12.05,1.35 z m -10.5,10.45 -2.099,2.1 -1.2,11.6 2.049,-2.05 z m -3.099,-4.2 -3.55,-3.55 -4.101,4.1 -0.849,7.9 1.849,1.85 1.201,-1.2 -1.85,-1.85 z m 20.7,2.05 -2.3,2.35 -21.7,-21.75 -7.9,0.9 -2.35,2.35 0.95,0.9 2.15,-2.15 21.7,21.75 8.349,-0.8 2.301,-2.35 z m 65.649,60.4 -2.049,2.05 12.049,-1.4 2.051,-2.05 z m -23.25,1.8 -11.099,1.2 -2.05,2.05 11.05,-1.15 z m 12.551,-12.5 1.199,-11.15 -2.049,2.05 -1.201,11.15 z m 4,9.95 4.75,-4.75 0.75,-7.3 -1.85,-1.85 -1.15,1.1 1.65,1.6 -7.65,7.65 z m -15.6,19.3 1.2,-1.2 -1.85,-1.85 7.3,-7.25 -3.5,-3.55 -4.101,4.1 -0.899,7.9 z m 7.65,-3.95 -1.2,11.55 2.05,-2.05 1.25,-11.6 z m 18.6,-0.75 2.299,-2.35 -1.199,-1.2 -2.301,2.35 -21.699,-21.7 -7.85,0.85 -2.35,2.35 0.899,0.95 2.151,-2.15 21.7,21.7 z m -16.75,118.9 2.049,-2.05 1.201,-11.1 -2.05,2.05 z m -81.15,-60.25 -11.1,1.2 -2.05,2.05 11.05,-1.15 z m 21.15,0.25 12.1,-1.4 2.05,-2.05 -12.101,1.4 z m 0.15,-7.55 0.7,-7.3 -1.85,-1.85 -1.1,1.1 1.649,1.6 -7.649,7.65 3.5,3.55 z m -8.8,-5.2 1.199,-11.1 -2.049,2.05 -1.201,11.1 z m -3.1,34.8 1.299,-11.6 -2.099,2.1 -1.25,11.55 z m 17.75,-10.25 2.35,-2.35 -1.2,-1.2 -2.351,2.35 -21.699,-21.7 -7.801,0.85 -2.349,2.35 0.9,0.95 2.1,-2.1 21.7,21.7 z m -26.85,1.65 7.25,-7.25 -3.5,-3.55 -4.101,4.1 -0.849,7.9 1.849,1.85 1.201,-1.2 z m 13.399,104.1 -2.049,2.05 -1.201,11.1 2.051,-2.05 z m -13.699,23.6 -11.1,1.2 -2.05,2.05 11,-1.1 z m 0.3,13.75 7.25,-7.3 -3.5,-3.5 -4.101,4.1 -0.899,7.9 1.85,1.85 1.25,-1.2 z m 16.25,-16.3 4.75,-4.7 0.7,-7.35 -1.85,-1.85 -1.1,1.15 1.649,1.65 -7.649,7.6 z m 87.45,-69.3 2.05,-2.05 -12.15,1.4 -2.05,2.05 z m -16.75,-1.4 4.75,-4.75 0.699,-7.3 -1.849,-1.85 -1.1,1.1 1.65,1.65 -7.65,7.65 z m -7.15,24.85 1.3,-11.6 -2.1,2.1 -1.25,11.55 z m -8.45,-5.55 1.2,-1.2 -1.85,-1.85 7.25,-7.25 -3.5,-3.5 -4.1,4.1 -0.85,7.85 z m -5.951,-23.45 2.101,-2.1 21.7,21.7 8.35,-0.85 2.349,-2.35 -1.199,-1.2 -2.35,2.35 -21.701,-21.7 -7.799,0.85 -2.35,2.35 z m -8.149,9.95 11.05,-1.15 2.099,-2.1 -11.099,1.2 z m -22.2,64.3 -12.151,1.35 -2.049,2.05 12.15,-1.35 z m -7.05,11.65 -2.351,2.35 -21.699,-21.7 -7.801,0.9 -2.349,2.3 0.9,0.95 2.1,-2.1 21.7,21.7 8.35,-0.85 2.35,-2.35 z m 194.35,-89.65 2.049,-2.05 1.201,-11.15 -2.05,2.05 z m -73.85,-35.9 2.05,-2.05 1.25,-11.6 -2.1,2.1 z m 5.149,-36.85 1.201,-11.15 -2.05,2.05 -1.2,11.15 z m 8.75,5.2 0.75,-7.3 -1.849,-1.85 -1.151,1.1 1.651,1.65 -7.651,7.65 3.5,3.5 z m 14.051,4.1 -12.1,1.4 -2.05,2.05 12.099,-1.4 z m -35.35,3.2 -11.1,1.2 -2.05,2.05 11.05,-1.15 z m 0.299,13.7 7.301,-7.25 -3.5,-3.5 -4.1,4.1 -0.9,7.85 1.85,1.85 1.2,-1.2 z m 26.901,-1.65 2.3,-2.35 -1.201,-1.2 -2.299,2.35 -21.701,-21.7 -7.849,0.85 -2.35,2.35 0.9,0.95 2.15,-2.15 21.7,21.7 z m -27.151,129.35 -11.099,1.2 -2.05,2.05 11.05,-1.15 z m 7.551,6.45 -3.551,-3.5 -4.099,4.1 -0.8,7.85 1.8,1.85 1.2,-1.2 -1.8,-1.85 z m 6.15,-30.05 -2.05,2.05 -1.2,11.1 2.049,-2.05 z m 2.85,21.05 4.75,-4.75 0.65,-7.3 -1.85,-1.85 -1.101,1.1 1.651,1.65 -7.651,7.65 z m 18.75,-0.65 -12.15,1.4 -2.05,2.05 12.149,-1.4 z m -7.051,11.7 -2.349,2.35 -21.7,-21.7 -7.8,0.9 -2.35,2.35 0.9,0.9 2.1,-2.1 21.699,21.7 8.351,-0.85 2.35,-2.35 z m 75.701,-80.35 2.049,-2.05 -12.099,1.4 -2.05,2.05 z m -16.701,-1.4 4.75,-4.75 0.701,-7.3 -1.85,-1.85 -1.15,1.1 1.65,1.65 -7.65,7.65 z m -29.699,5.8 11.05,-1.15 2.1,-2.1 -11.1,1.2 z m 7.199,-10.85 0.901,0.9 2.15,-2.15 21.699,21.7 8.351,-0.8 2.3,-2.35 -1.2,-1.2 -2.3,2.35 -21.7,-21.7 -7.85,0.9 z m 15.351,29.9 1.25,-11.6 -2.101,2.1 -1.199,11.55 z m -8.5,-5.55 1.2,-1.2 -1.801,-1.85 7.301,-7.25 -3.551,-3.5 -4.099,4.1 -0.85,7.85 z m 21.05,110.05 -1.8,-1.85 -1.101,1.1 1.601,1.65 -7.65,7.65 3.549,3.55 4.75,-4.75 z m -8.25,-8.95 -2.05,2.05 -1.2,11.1 2.05,-2.05 z m -11.55,39.1 -1.851,-1.8 7.25,-7.25 -3.549,-3.55 -4.1,4.1 -0.8,7.9 1.85,1.8 z m -15.3,-12.25 11.05,-1.15 2.1,-2.1 -11.1,1.2 z m 22.55,19 1.25,-11.6 -2.101,2.1 -1.199,11.55 z m 20.1,-12.6 -1.201,-1.2 -2.349,2.35 -21.75,-21.7 -7.8,0.9 -2.351,2.35 0.901,0.9 2.099,-2.1 21.75,21.7 8.351,-0.85 z m 3.75,-10.8 2.049,-2.05 -12.149,1.35 -2.05,2.05 z m -94.6,-47.3 1.3,-11.6 -2.1,2.1 -1.25,11.55 z m 2.3,97.6 -1.2,11.1 2.049,-2.05 1.201,-11.1 z m 4.9,19 4.75,-4.7 0.65,-7.4 -1.8,-1.85 -1.1,1.15 1.6,1.65 -7.651,7.6 z m 4.55,2.75 12.149,-1.3 2.051,-2.05 -12.15,1.3 z m -10.45,10.45 -2.151,2.15 -1.149,11.5 2.05,-2.05 z m -10.651,-10.65 -11.099,1.2 -2.05,2.05 11,-1.1 z m -5.049,-6.75 2.1,-2.1 21.75,21.7 8.35,-0.85 2.349,-2.35 -1.199,-1.2 -2.35,2.35 -21.75,-21.7 -7.8,0.95 -2.35,2.3 z m 5.95,23.5 1.25,-1.2 -1.85,-1.8 7.25,-7.3 -3.551,-3.55 -4.099,4.1 -0.85,7.95 z m 56.65,57.2 11,-1.1 2.15,-2.15 -11.1,1.2 z m 25.65,-15.75 1.2,-11.1 -2.05,2.05 -1.2,11.1 z m 10.7,10.65 -2.05,2.05 12.1,-1.3 2.049,-2.05 z m -4.151,-13.45 1.601,1.6 -7.65,7.6 3.549,3.55 4.75,-4.7 0.701,-7.4 -1.85,-1.8 z m -148.799,-147.7 -1.201,11.1 2.051,-2.05 1.199,-11.1 z m 10.299,6.95 -1.849,-1.85 -1.1,1.15 1.65,1.65 -7.65,7.6 3.55,3.5 4.75,-4.7 z m 7.5,24.3 -1.199,-1.2 -2.35,2.35 -21.701,-21.7 -7.799,0.95 -2.35,2.3 0.899,0.9 2.101,-2.1 21.7,21.7 8.35,-0.85 z m 3.801,-10.8 2.05,-2.05 -12.15,1.35 -2.05,2.05 z m -33.25,1.1 -11.1,1.2 -2.05,2.05 11,-1.1 z m 0.3,13.75 7.25,-7.3 -3.55,-3.5 -4.1,4.1 -0.85,7.9 1.8,1.85 1.25,-1.2 z m 9.05,8.55 1.3,-11.6 -2.15,2.15 -1.2,11.5 z m -70.7,-70.7 1.299,-11.6 -2.149,2.15 -1.2,11.5 z m -20.451,120.3 -2.049,2.05 11,-1.1 2.15,-2.15 z m 22.75,-22.75 -1.199,11.1 2.05,-2.05 1.2,-11.1 z m 4.901,19 4.7,-4.7 0.7,-7.35 -1.85,-1.85 -1.15,1.15 1.65,1.65 -7.6,7.6 z m -16.3,16.3 7.3,-7.3 -3.55,-3.5 -4.101,4.1 -0.849,7.9 1.8,1.85 1.2,-1.2 z m 10.399,-3.05 -2.149,2.15 -1.2,11.5 2.05,-2.05 z m 24.601,-13.85 -12.101,1.35 -2.049,2.05 12.1,-1.35 z m -7,11.65 -2.351,2.35 -21.699,-21.7 -7.85,0.95 -2.3,2.3 0.9,0.9 2.1,-2.1 21.7,21.7 8.35,-0.85 2.35,-2.35 z m 54.95,49.75 1.199,-11.1 -2.049,2.05 -1.201,11.1 z m -12.5,12.5 -11.1,1.2 -2.05,2.05 11,-1.1 z m 20.15,-16.5 -1.15,1.15 1.6,1.65 -7.6,7.6 3.55,3.55 4.7,-4.7 0.699,-7.4 z m 15.1,13.35 -12.1,1.3 -2.05,2.05 12.099,-1.3 z m -5.75,12.8 -1.2,-1.2 -2.351,2.35 -21.75,-21.7 -7.849,0.95 -2.3,2.3 0.899,0.9 2.101,-2.1 21.75,21.7 8.35,-0.85 z m -21,3.15 -1.15,11.5 2.05,-2.05 1.25,-11.6 z m -0.95,-6.35 -3.55,-3.55 -4.1,4.1 -0.85,7.95 1.85,1.8 1.2,-1.2 -1.85,-1.8 z m -56.3,49.6 -1.801,-1.85 -1.149,1.15 1.6,1.65 -7.65,7.65 3.55,3.55 4.75,-4.75 z m -9.45,2.15 1.2,-11.1 -2.051,2.05 -1.199,11.1 z m 8.6,12.7 12.1,-1.3 2.05,-2.05 -12.101,1.3 z m -21.15,-0.15 -11.1,1.2 -2.05,2.05 11.05,-1.15 z m 0.949,16.7 1.201,-1.2 -1.85,-1.8 7.3,-7.3 -3.55,-3.55 -4.101,4.1 -0.849,7.95 z m 9.701,-6.05 -2.1,2.1 -1.15,11.5 2.049,-2.05 z m 16.549,1.3 2.301,-2.3 -1.2,-1.2 -2.3,2.3 -21.75,-21.7 -7.85,0.95 -2.35,2.35 0.899,0.9 2.151,-2.15 21.75,21.7 z m 56.051,46.2 1.199,-11.1 -2.049,2.05 -1.201,11.1 z m 4,10 4.75,-4.75 0.75,-7.4 -1.85,-1.8 -1.15,1.15 1.6,1.6 -7.651,7.65 z m 6.699,0.65 -2.049,2.05 12.049,-1.3 2.051,-2.05 z m -36.399,5.15 11.05,-1.15 2.099,-2.1 -11.099,1.2 z m 40.35,8.75 2.299,-2.3 -1.199,-1.2 -2.301,2.3 -21.699,-21.75 -7.9,0.95 -2.35,2.35 0.949,0.95 2.151,-2.15 21.7,21.7 z m -25.05,3.55 -1.85,-1.85 7.3,-7.3 -3.55,-3.55 -4.1,4.1 -0.85,7.95 1.85,1.85 z m 7.3,6.7 1.25,-11.6 -2.1,2.1 -1.2,11.55 z m 157.95,-152.85 -21.7,-21.75 -7.85,0.95 -2.351,2.3 0.951,0.95 2.1,-2.1 21.699,21.7 8.351,-0.85 2.35,-2.35 -1.201,-1.2 z m -17.401,1.95 -1.199,11.55 2.05,-2.05 1.3,-11.65 z m -1,-6.35 -3.549,-3.55 -4.1,4.1 -0.851,7.95 1.851,1.85 1.25,-1.2 -1.851,-1.85 z m -78.25,64.25 -11.099,1.2 -2.05,2.05 11,-1.1 z m 0.901,16.8 1.2,-1.2 -1.851,-1.85 7.301,-7.3 -3.551,-3.55 -4.099,4.1 -0.85,7.95 z m 21.099,-31.45 -1.849,-1.8 -1.151,1.15 1.601,1.6 -7.601,7.6 3.551,3.55 4.699,-4.7 z m -9.5,2.15 1.201,-11.1 -2.05,2.05 -1.2,11.1 z m 8.651,12.7 12.05,-1.3 2.049,-2.05 -12.049,1.3 z m -10.45,10.45 -2.15,2.15 -1.2,11.55 2.05,-2.05 z m 17.6,-2.15 -2.35,2.35 -21.701,-21.75 -7.899,0.95 -2.3,2.3 0.949,0.95 2.101,-2.1 21.7,21.7 8.35,-0.85 2.349,-2.35 z m 75.6,61.1 2.05,-2.05 -12.05,1.35 -2.05,2.05 z m -35.35,3.25 2.15,-2.15 -11.1,1.2 -2.05,2.05 z m 14.65,-14.65 1.2,-11.1 -2.05,2.05 -1.2,11.1 z m 4.049,9.95 4.701,-4.7 0.75,-7.35 -1.85,-1.85 -1.15,1.15 1.65,1.6 -7.601,7.6 z m -15.649,19.35 1.2,-1.2 -1.85,-1.85 7.299,-7.3 -3.5,-3.55 -4.099,4.1 -0.901,7.95 z m 6.45,7.55 2.05,-2.05 1.3,-11.6 -2.151,2.15 z m 19.8,-12.3 2.35,-2.35 -1.201,-1.2 -2.349,2.35 -21.7,-21.7 -7.9,0.9 -2.301,2.3 0.951,0.95 2.1,-2.1 21.699,21.7 z m 194.399,-343.3 1.3,-11.6 -2.149,2.1 -1.2,11.55 z m 141.401,0 1.3,-11.6 -2.151,2.15 -1.199,11.5 z m -46.901,47.3 2.05,-2.05 -12.05,1.35 -2.049,2.05 z m -16.7,-1.4 4.75,-4.75 0.75,-7.35 -1.849,-1.85 -1.151,1.15 1.651,1.6 -7.651,7.65 z m -19.399,-6.3 21.7,21.7 8.35,-0.85 2.349,-2.3 -1.199,-1.2 -2.351,2.3 -21.7,-21.7 -7.899,0.9 -2.3,2.35 0.949,0.95 z m 16.599,-14.8 -2.049,2.05 -1.201,11.1 2.05,-2.05 z m -11.599,39.2 -1.851,-1.85 7.301,-7.3 -3.5,-3.55 -4.101,4.1 -0.899,7.95 1.85,1.85 z m -4.25,-13.45 2.149,-2.1 -11.149,1.2 -2.05,2.05 z m 11.55,20.15 1.299,-11.55 -2.149,2.1 -1.2,11.5 z m -68.451,26.85 -1.2,11.15 2.051,-2.05 1.199,-11.15 z m 4.851,19.05 4.75,-4.75 0.75,-7.3 -1.851,-1.85 -1.149,1.1 1.649,1.6 -7.649,7.65 z m 4.649,2.8 12.05,-1.4 2.051,-2.05 -12.051,1.4 z m 47.401,72.55 2.099,-2.1 -11.099,1.2 -2.05,2.05 z m 14.649,-14.6 1.2,-11.15 -2.049,2.05 -1.201,11.15 z m 47.051,-57 -2.051,2.05 11.051,-1.15 2.149,-2.1 z m 22.8,-22.8 -1.2,11.1 2.049,-2.05 1.201,-11.1 z m 4.849,19.05 4.75,-4.75 0.75,-7.35 -1.849,-1.85 -1.151,1.15 1.651,1.65 -7.651,7.65 z m -14.399,18.1 -1.851,-1.85 7.3,-7.3 -3.5,-3.5 -4.099,4.1 -0.901,7.9 1.851,1.85 z m 8.6,-4.85 -2.151,2.1 -1.199,11.5 2.05,-2.05 z m 15.25,0.1 -21.701,-21.7 -7.849,0.95 -2.3,2.35 0.899,0.9 2.101,-2.15 21.699,21.7 8.351,-0.85 2.349,-2.3 -1.2,-1.2 z m -73.451,58.1 -2.049,2.05 12.049,-1.4 2.05,-2.05 z m -4.2,-13.55 1.651,1.65 -7.651,7.65 3.5,3.5 4.75,-4.75 0.75,-7.3 -1.849,-1.85 z m -147.899,-138.55 1.2,-11.15 -2.05,2.05 -1.2,11.15 z m 7.65,-3.95 -1.15,1.1 1.599,1.6 -7.649,7.65 3.55,3.55 4.75,-4.75 0.75,-7.35 z m 13.05,15.3 2.05,-2.05 -12.05,1.35 -2.05,2.05 z m -32.3,17.9 1.199,-1.2 -1.849,-1.85 7.3,-7.25 -3.55,-3.55 -4.1,4.1 -0.85,7.9 z m 8.5,5.55 1.25,-11.65 -2.1,2.1 -1.201,11.6 z m -14.45,-29 2.149,-2.15 21.701,21.7 8.35,-0.8 2.3,-2.35 -1.2,-1.2 -2.3,2.35 -21.7,-21.75 -7.901,0.9 -2.349,2.35 z m -56.25,-41.75 1.2,-11.6 -2.1,2.1 -1.15,11.55 z m 59.149,50.55 2.101,-2.1 -11.101,1.2 -2.049,2.05 z m -79.699,69.8 -2.051,2.05 11.051,-1.15 2.1,-2.1 z m 24.8,-24.8 -2.05,2.05 -1.2,11.1 2.05,-2.05 z m 2.85,21.05 4.75,-4.75 0.7,-7.35 -1.85,-1.8 -1.1,1.1 1.6,1.6 -7.65,7.65 z m 4.6,2.75 12.1,-1.35 2.05,-2.05 -12.1,1.35 z m -19,15.35 -1.85,-1.85 7.25,-7.25 -3.55,-3.55 -4.1,4.1 -0.801,7.9 1.851,1.85 z m 8.55,-4.9 -2.101,2.1 -1.25,11.6 2.051,-2.05 z m 15.25,0.2 -21.7,-21.75 -7.85,0.9 -2.35,2.35 0.95,0.95 2.099,-2.1 21.701,21.7 8.35,-0.85 2.35,-2.35 -1.2,-1.2 z m 31.6,63.1 11.049,-1.15 2.101,-2.1 -11.101,1.2 z m 83.849,-73.95 -11.099,1.2 -2.05,2.05 11.05,-1.15 z m -5.949,-7.65 0.949,0.95 2.151,-2.15 21.7,21.7 8.349,-0.8 2.3,-2.35 -1.199,-1.2 -2.301,2.35 -21.699,-21.7 -7.9,0.85 z m 13.35,32 2.049,-2.05 1.25,-11.6 -2.099,2.1 z m -7.1,-10.65 7.3,-7.25 -3.5,-3.55 -4.101,4.1 -0.899,7.9 1.849,1.85 1.201,-1.2 z m -58.5,44.5 1.2,-11.1 -2.051,2.05 -1.199,11.1 z m 7.649,-3.95 -1.099,1.1 1.65,1.6 -7.65,7.65 3.5,3.55 4.75,-4.75 0.7,-7.3 z m 15.151,13.25 -12.1,1.4 -2.051,2.05 12.101,-1.4 z m -5.8,12.9 -1.2,-1.2 -2.35,2.35 -21.7,-21.7 -7.851,0.85 -2.349,2.35 0.95,0.95 2.1,-2.1 21.7,21.7 8.349,-0.85 z m -20.9,3.1 -1.25,11.55 2.049,-2.05 1.301,-11.6 z m -8.3,0.9 7.25,-7.25 -3.5,-3.55 -4.1,4.1 -0.85,7.9 1.85,1.85 1.199,-1.2 z m 59.3,58.2 -2.05,2.05 11.05,-1.15 2.099,-2.1 z m 11.4,12.5 7.25,-7.25 -3.5,-3.5 -4.101,4.1 -0.849,7.85 1.849,1.85 1.201,-1.2 z m -122.65,-29 1.65,1.6 -7.65,7.6 3.5,3.55 4.75,-4.7 0.7,-7.35 -1.85,-1.85 z m -6.55,2.8 1.2,-11.1 -2.05,2.05 -1.2,11.1 z m -12.5,12.5 -11.1,1.2 -2.051,2.05 11,-1.1 z m 0.3,13.75 7.25,-7.3 -3.5,-3.55 -4.1,4.1 -0.9,7.95 1.85,1.85 1.25,-1.2 z m 26.85,-1.7 2.35,-2.35 -1.2,-1.2 -2.35,2.35 -21.7,-21.7 -7.85,0.9 -2.35,2.3 0.95,0.95 2.099,-2.1 21.701,21.7 z m -16.45,-1.35 -2.15,2.15 -1.201,11.5 2.051,-2.05 z m 24.6,-13.85 -12.1,1.35 -2.05,2.05 12.1,-1.35 z m 33.25,76 2.15,-2.15 -11.101,1.2 -2.049,2.05 z m 18.7,-4.7 4.75,-4.7 0.7,-7.35 -1.851,-1.85 -1.099,1.15 1.65,1.65 -7.65,7.6 z m -4.05,-9.95 1.2,-11.1 -2.051,2.05 -1.199,11.1 z m 10.7,10.7 -2.051,2.05 12.101,-1.35 2.05,-2.05 z m 3.949,13.85 2.351,-2.35 -1.2,-1.2 -2.35,2.35 -21.7,-21.7 -7.8,0.95 -2.35,2.3 0.9,0.9 2.1,-2.1 21.7,21.7 z m -25,3.55 -1.849,-1.85 7.25,-7.3 -3.5,-3.5 -4.1,4.1 -0.9,7.9 1.849,1.85 z m 7.25,6.7 1.301,-11.6 -2.15,2.15 -1.2,11.5 z m 160.3,-155.2 -2.3,2.35 -21.7,-21.7 -7.849,0.9 -2.35,2.35 0.899,0.9 2.151,-2.15 21.7,21.7 8.35,-0.8 2.299,-2.35 z m 64.45,47.6 -1.849,-1.85 -1.151,1.1 1.651,1.65 -7.651,7.65 3.55,3.55 4.75,-4.75 z m -9.45,2.15 1.2,-11.15 -2.049,2.05 -1.201,11.15 z m -12.55,12.5 -11.099,1.2 -2.05,2.05 11.05,-1.15 z m 0.901,16.7 1.2,-1.2 -1.801,-1.8 7.301,-7.25 -3.551,-3.55 -4.099,4.1 -0.85,7.9 z m 9.75,-6.05 -2.101,2.1 -1.199,11.55 2.05,-2.05 z m 16.5,1.35 2.3,-2.35 -1.201,-1.2 -2.299,2.35 -21.701,-21.7 -7.849,0.9 -2.351,2.35 0.901,0.9 2.15,-2.15 21.699,21.7 z m -89.3,-69.95 -1.2,11.55 2.05,-2.05 1.25,-11.6 z m -8.301,0.9 7.301,-7.25 -3.5,-3.5 -4.101,4.1 -0.899,7.85 1.85,1.85 1.2,-1.2 z m -49,42.4 -1.849,-1.85 -1.1,1.1 1.649,1.65 -7.649,7.65 3.5,3.5 4.75,-4.75 z m -9.5,2.1 1.2,-11.1 -2.049,2.05 -1.201,11.1 z m 8.651,12.75 12.099,-1.4 2.051,-2.05 -12.101,1.4 z m 6,11.8 2.349,-2.35 -1.199,-1.2 -2.351,2.35 -21.7,-21.7 -7.8,0.9 -2.349,2.35 0.899,0.9 2.101,-2.1 21.7,21.7 z m -16.451,-1.35 -2.099,2.1 -1.25,11.55 2.05,-2.05 z m 46.901,63.3 11.05,-1.15 2.099,-2.1 -11.099,1.2 z m 25.649,-15.75 1.2,-11.1 -2.049,2.05 -1.201,11.1 z m -11.599,29.2 1.2,-1.2 -1.8,-1.8 7.25,-7.25 -3.551,-3.55 -4.099,4.1 -0.8,7.9 z m 6.4,7.6 2.05,-2.05 1.3,-11.6 -2.1,2.1 z m 11.699,-39.7 1.651,1.65 -7.651,7.65 3.551,3.55 4.75,-4.75 0.649,-7.35 -1.849,-1.85 z m 4.151,13.55 -2.05,2.05 12.149,-1.35 2.051,-2.05 z m 2.75,12.65 -21.701,-21.7 -7.799,0.9 -2.35,2.35 0.899,0.9 2.101,-2.1 21.699,21.7 8.351,-0.85 2.349,-2.35 -1.2,-1.2 z M 21.55,727.55 9.5,728.85 7.449,730.9 19.5,729.6 Z m -18.7,0.65 4.7,-4.75 0.75,-7.4 -1.851,-1.8 -1.149,1.15 1.599,1.6 -7.599,7.65 z m -6.1,-7.95 2.05,-2.05 1.2,-11.1 -2.051,2.05 z m -15.45,3.8 2.099,-2.15 21.701,21.7 8.349,-0.85 2.351,-2.3 -1.2,-1.2 -2.35,2.3 -21.7,-21.75 -7.901,0.95 -2.299,2.35 z m -8.151,9.95 11,-1.15 2.151,-2.1 -11.101,1.2 z m 22.55,19 1.301,-11.6 -2.15,2.1 -1.201,11.55 z m -7.3,-6.7 -1.849,-1.85 7.3,-7.3 -3.55,-3.55 -4.101,4.1 -0.849,7.95 1.849,1.85 z M -1.2,859.65 0,848.55 -2.051,850.6 -3.25,861.7 Z m -25.7,15.75 11.049,-1.15 2.101,-2.1 -11.101,1.2 z m 15.299,12.3 -1.849,-1.85 7.3,-7.25 -3.5,-3.55 -4.1,4.1 -0.9,7.9 1.849,1.85 z m 7.3,6.75 1.25,-11.6 -2.099,2.1 -1.201,11.55 z m 10.75,-38.75 -1.149,1.1 1.649,1.6 -7.649,7.65 3.5,3.55 4.75,-4.75 0.75,-7.3 z M 21.55,868.95 9.5,870.35 7.449,872.4 19.5,871 Z m -5.8,12.9 -1.2,-1.2 -2.3,2.35 -21.7,-21.7 -7.901,0.85 -2.349,2.35 0.95,0.95 2.149,-2.1 21.701,21.7 8.349,-0.85 z m -100.2,-80.4 -11.101,1.2 -2.05,2.05 11.05,-1.15 z m 12.55,-12.5 1.2,-11.1 -2.05,2.05 -1.2,11.1 z m 4,9.95 4.75,-4.75 0.75,-7.35 -1.85,-1.8 -1.15,1.1 1.599,1.6 -7.649,7.65 z m 18.75,-0.65 -12.05,1.35 -2.05,2.05 12.05,-1.35 z m -82.8,-69.35 -2.05,2.05 12.1,-1.35 2.049,-2.05 z m -6.651,-0.7 4.75,-4.75 0.701,-7.35 -1.8,-1.85 -1.151,1.1 1.601,1.65 -7.65,7.65 z m -6.049,-7.9 2.049,-2.05 1.201,-11.1 -2.05,2.05 z m -3.1,34.75 2.05,-2.05 1.2,-11.6 -2.101,2.1 z m -7.101,-10.6 7.3,-7.25 -3.55,-3.55 -4.099,4.1 -0.851,7.9 1.851,1.8 1.2,-1.2 z M -160.2,724 l 2.149,-2.1 21.75,21.7 8.351,-0.85 2.3,-2.35 -1.201,-1.2 -2.299,2.35 -21.75,-21.7 -7.85,0.9 -2.351,2.35 z m -8.101,10 11.051,-1.15 2.1,-2.1 -11.1,1.2 z m -22.25,64.25 -12.149,1.35 -2.05,2.05 12.149,-1.35 z m 22.25,77.15 11.051,-1.1 2.1,-2.15 -11.1,1.2 z m 36.351,-5.1 -2.05,2.05 12.1,-1.35 2.049,-2.05 z m -10.7,-10.65 1.25,-11.1 -2.05,2.05 -1.25,11.1 z m 4.049,9.95 4.75,-4.75 0.701,-7.35 -1.85,-1.8 -1.101,1.1 1.601,1.6 -7.65,7.65 z m -15.599,19.3 1.2,-1.2 -1.851,-1.85 7.25,-7.25 -3.549,-3.55 -4.1,4.1 -0.801,7.9 z m 8.45,5.55 1.3,-11.65 -2.101,2.15 -1.25,11.55 z m 20.1,-12.6 -1.201,-1.2 -2.349,2.35 -21.7,-21.75 -7.85,0.9 -2.351,2.35 0.951,0.95 2.15,-2.1 21.699,21.7 8.301,-0.85 z m 67.2,-69.55 -21.7,-21.75 -7.901,0.9 -2.349,2.35 0.95,0.95 2.149,-2.1 21.7,21.7 8.351,-0.85 2.3,-2.35 -1.2,-1.2 z m -18.401,-4.4 -3.549,-3.55 -4.1,4.1 -0.851,7.9 1.851,1.85 1.199,-1.2 -1.849,-1.85 z m -0.2,17.9 2.051,-2.05 1.25,-11.65 -2.101,2.1 z m 9.151,114.5 4.75,-4.75 0.7,-7.3 -1.851,-1.85 -1.099,1.1 1.65,1.6 -7.65,7.65 z m -4.05,-9.95 1.25,-11.1 -2.05,2.05 -1.25,11.1 z m 22.8,9.3 -12.1,1.4 -2.051,2.05 12.101,-1.4 z m -35.3,3.2 -11.101,1.2 -2.05,2.05 11.05,-1.1 z m 2.149,15.55 -1.849,-1.85 7.25,-7.25 -3.5,-3.55 -4.1,4.1 -0.851,7.9 1.851,1.85 z m 5.2,8.8 2.05,-2.05 1.301,-11.6 -2.101,2.15 z m 19.8,-12.3 2.351,-2.35 -1.2,-1.2 -2.35,2.35 -21.7,-21.7 -7.851,0.85 -2.349,2.35 0.95,0.95 2.149,-2.1 21.7,21.7 z m -133.25,-15.2 -12.099,1.3 -2.05,2.05 12.099,-1.3 z m 49.101,50.25 -2.05,2.05 -1.2,11.1 2.05,-2.05 z m 19.55,22.5 2.049,-2.05 -12.099,1.35 -2.05,2.05 z m -16.701,-1.45 4.75,-4.7 0.701,-7.35 -1.85,-1.85 -1.101,1.15 1.651,1.6 -7.651,7.6 z m -7.149,24.85 1.3,-11.6 -2.101,2.15 -1.25,11.5 z m -7.25,-6.7 -1.851,-1.85 7.25,-7.3 -3.5,-3.55 -4.099,4.1 -0.851,7.95 1.851,1.85 z m -5.051,-24.4 21.7,21.7 8.351,-0.85 2.35,-2.35 -1.201,-1.2 -2.349,2.35 -21.7,-21.7 -7.85,0.9 -2.351,2.3 0.951,0.95 z m 0.801,10.95 2.1,-2.15 -11.1,1.2 -2.051,2.05 z m -33.351,65.4 -12.049,1.35 -2.05,2.05 12.05,-1.35 z m 106.151,3.15 -11.101,1.2 -2.05,2.05 11.05,-1.1 z m 2.149,15.6 -1.849,-1.85 7.25,-7.3 -3.5,-3.5 -4.1,4.1 -0.851,7.9 1.851,1.85 z m 11.551,-39.2 -2.051,2.05 -1.199,11.1 2.05,-2.05 z m 2.85,21.05 4.75,-4.7 0.7,-7.35 -1.851,-1.85 -1.099,1.15 1.65,1.65 -7.65,7.6 z m 9.4,13.4 -21.7,-21.7 -7.8,0.95 -2.351,2.3 0.901,0.9 2.099,-2.1 21.701,21.7 8.349,-0.85 2.351,-2.35 -1.2,-1.2 z m 9.35,-14 -12.1,1.35 -2.051,2.05 12.101,-1.35 z m 45.849,-78 2.051,-2.05 L 0,989.95 -2.051,992 Z m 22.801,9.3 2.05,-2.05 -12.101,1.4 -2.05,2.05 z m -16.7,-1.4 4.75,-4.75 0.7,-7.3 -1.851,-1.85 -1.099,1.1 1.649,1.65 -7.649,7.65 z m -29.7,5.8 11.049,-1.1 2.101,-2.15 -11.101,1.2 z m 8.15,-9.95 2.149,-2.1 21.701,21.7 8.299,-0.85 2.351,-2.35 -1.2,-1.2 -2.351,2.35 -21.699,-21.7 -7.801,0.9 -2.349,2.35 z m 14.399,29 1.3,-11.6 -2.099,2.15 -1.25,11.5 z m -7.25,-6.75 -1.849,-1.85 7.25,-7.25 -3.5,-3.5 -4.101,4.1 -0.849,7.85 1.849,1.85 z m 18,109.4 -1.099,1.15 1.649,1.65 -7.649,7.6 3.55,3.55 4.75,-4.7 0.65,-7.4 z M 0,1131.4 l -2.051,2.05 -1.199,11.1 2.05,-2.05 z m -11.601,39.15 -1.799,-1.8 7.25,-7.3 -3.55,-3.55 -4.101,4.1 -0.8,7.95 1.8,1.8 z m -4.2,-13.4 2.101,-2.15 -11.101,1.2 -2.05,2.05 z m 11.45,20.1 1.3,-11.6 -2.099,2.15 -1.25,11.5 z m 18.901,-13.8 -2.351,2.35 -21.699,-21.7 -7.801,0.95 -2.349,2.3 0.9,0.9 2.1,-2.1 21.7,21.7 8.349,-0.85 2.351,-2.35 z m 5,-9.55 2.05,-2.05 -12.151,1.3 -2.05,2.05 z m -46.401,145.75 11,-1.1 2.151,-2.15 -11.101,1.2 z M -1.2,1283.9 0,1272.8 l -2.051,2.05 -1.199,11.1 z m 10.649,10.65 -2.05,2.05 12.101,-1.3 2.05,-2.05 z m -1.199,-12.8 -1.801,-1.8 -1.149,1.15 1.599,1.6 -7.599,7.65 3.55,3.55 4.7,-4.75 z m -83.301,-175.2 1.301,-11.6 -2.101,2.15 -1.25,11.5 z m -69.649,37.95 2.05,-2.05 1.2,-11.1 -2.05,2.05 z m 11.55,-4.15 -1.85,-1.85 -1.15,1.15 1.65,1.65 -7.601,7.65 3.5,3.5 4.701,-4.75 z m -24.151,16.75 2.151,-2.15 -11.1,1.2 -2.051,2.05 z m 35.351,-3.25 2.05,-2.05 -12.05,1.35 -2.05,2.05 z m -7.25,11.95 -21.7,-21.7 -7.85,0.95 -2.301,2.3 0.901,0.9 2.099,-2.1 21.7,21.7 8.351,-0.85 2.35,-2.35 -1.201,-1.2 z m -25.05,5.95 1.199,-1.2 -1.849,-1.85 7.299,-7.3 -3.5,-3.5 -4.099,4.1 -0.901,7.9 z m 8.5,5.5 1.3,-11.6 -2.151,2.15 -1.2,11.5 z m -44.851,45.25 -12.049,1.35 -2.05,2.05 12.05,-1.35 z m 22.3,77.2 11.051,-1.15 2.149,-2.1 -11.149,1.2 z m 25.7,-15.8 1.201,-11.1 -2.05,2.05 -1.2,11.1 z m 7.601,-4 -1.15,1.15 1.65,1.65 -7.65,7.65 3.549,3.55 4.75,-4.75 0.701,-7.4 z m 15.149,13.35 -12.099,1.3 -2.05,2.05 12.1,-1.3 z m 47.101,-89.1 -1.2,11.1 2.05,-2.05 1.2,-11.1 z m 4.899,19.05 4.701,-4.75 0.7,-7.4 -1.851,-1.85 -1.149,1.15 1.649,1.65 -7.599,7.65 z m 4.55,2.7 12.101,-1.3 2.05,-2.05 -12.1,1.3 z m -24.05,-9.05 21.701,21.7 8.349,-0.85 2.351,-2.35 -1.2,-1.2 -2.35,2.35 -21.7,-21.7 -7.851,0.95 -2.3,2.3 0.901,0.9 z m -10.2,12.1 11,-1.1 2.151,-2.15 -11.1,1.2 z m 20.45,21.05 2.05,-2.05 1.301,-11.6 -2.15,2.15 z m -5.25,-8.75 -1.799,-1.8 7.299,-7.3 -3.549,-3.55 -4.1,4.1 -0.851,7.95 1.8,1.8 z m -15.25,129.15 11.05,-1.15 2.151,-2.1 -11.151,1.2 z m 15.3,12.3 -1.849,-1.85 7.299,-7.3 -3.549,-3.55 -4.1,4.1 -0.851,7.95 1.851,1.85 z m 19.851,-30.25 -1.8,-1.8 -1.15,1.15 1.599,1.6 -7.649,7.65 3.55,3.55 4.75,-4.75 z m -9.45,2.15 1.2,-11.1 -2.05,2.05 -1.2,11.1 z m 8.599,12.7 12.101,-1.3 2.05,-2.05 -12.1,1.3 z m -10.449,10.5 -2.15,2.1 -1.151,11.55 2.051,-2.05 z m 16.5,1.3 2.35,-2.3 -1.25,-1.2 -2.35,2.3 -21.7,-21.7 -7.851,0.95 -2.3,2.35 0.901,0.9 2.099,-2.15 21.75,21.75 z m -69.601,-74.2 -2.349,2.3 -21.7,-21.7 -7.85,0.95 -2.301,2.35 0.901,0.9 2.099,-2.15 21.7,21.7 8.351,-0.85 2.35,-2.3 z m -17.599,2.2 -2.151,2.1 -1.2,11.5 2.051,-2.05 z m -11.601,4.25 1.801,1.8 1.199,-1.2 -1.8,-1.8 7.3,-7.3 -3.55,-3.55 -4.099,4.1 z m -34.5,52.6 -12.099,1.35 -2.05,2.05 12.099,-1.35 z m 51.95,71.35 4.75,-4.75 0.701,-7.35 -1.8,-1.8 -1.151,1.1 1.601,1.6 -7.65,7.65 z m -4,-9.95 1.201,-11.15 -2.05,2.05 -1.2,11.15 z m 10.651,10.65 -2.05,2.05 12.1,-1.35 2.049,-2.05 z m -36.351,5.1 11.051,-1.15 2.1,-2.1 -11.1,1.2 z m 40.351,8.75 2.3,-2.35 -1.25,-1.2 -2.3,2.35 -21.7,-21.7 -7.85,0.9 -2.351,2.35 0.901,0.9 2.149,-2.15 21.75,21.75 z m -26.25,4.75 1.2,-1.2 -1.851,-1.85 7.3,-7.25 -3.55,-3.55 -4.099,4.1 -0.851,7.9 z m 8.5,5.55 1.2,-11.65 -2.101,2.1 -1.149,11.6 z M 12.199,1307.2 -9.5,1285.5 l -7.851,0.95 -2.299,2.3 0.9,0.9 2.1,-2.1 21.75,21.75 8.349,-0.9 2.351,-2.35 -1.25,-1.2 z m -18.349,-4.35 -3.55,-3.55 -4.101,4.1 -0.849,7.95 1.849,1.85 1.2,-1.2 -1.849,-1.85 z m 1.849,15.85 1.25,-11.65 -2.149,2.15 -1.151,11.55 z"
       style="fill:#8c1d1b;fill-opacity:1;fill-rule:evenodd;stroke:none"
       transform="matrix(1.3333333,0,0,-1.3333333,1126.2005,1997.9336)" />
  </g>
  <g
     id="layer-MC2">
    <path
       id="path3"
       d="M 0,0 -35.351,-35.35 M 0.05,35.4 -35.3,70.75 M 0,141.4 -35.351,106.05 M -282.8,-565.65 -318.15,-601 m -106.1,35.35 -35.35,-35.35 m 106.05,-0.05 -35.35,35.35 m -176.75,0 -35.35,-35.35 m 106.05,0 -35.35,35.35 m 671.75,0 -35.35,-35.35 M 70.75,-601 35.399,-565.65 M 0,-565.7 -35.351,-601.05 m -176.75,0 -35.349,35.35 m 176.75,-35.3 -35.35,35.35 m -70.7,-35.4 35.35,35.35 m 141.45,-707.1 -35.401,-35.35 m 17.601,-52.85 -17.55,17.55 m 35.35,106.05 -35.401,35.35 M 0,-1096 l -35.351,35.35 M 0.05,-1131.351 -35.3,-1166.7 m 35.35,176.8 -35.35,-35.35 M 0.05,-813.2 -35.3,-777.8 M 0,-954.601 -35.351,-919.25 m 0,35.399 L 0,-848.5 m 0,141.399 -35.351,-35.349 m 35.401,70.75 -35.35,35.349 m 223.55,59.201 -11.45,11.5 M 0,-530.3 l -35.351,35.35 m 0.051,35.3 35.35,35.35 m 0,141.5 -35.35,-35.35 M 0,-388.9 -35.351,-353.55 M 0,-247.5 -35.351,-212.15 M 0.05,-106.1 -35.3,-70.75 M 0,-141.4 -35.351,-176.75 M 141.45,-989.9 106.1,-1025.25 m 35.35,-247.55 -35.35,-35.35 m 35.35,212.15 -35.4,35.35 m 35.4,-70.701 -35.35,-35.349 m 35.35,-70.7 -35.35,35.35 m -35.35,35.35 -35.4,35.349 m 152.9,-94.599 -11.45,-11.45 m -106.05,-70.701 -35.351,35.351 m 35.351,70.649 -35.351,-35.349 M 70.75,-1343.5 53.25,-1361 m 17.5,300.399 -35.351,-35.349 m 35.301,70.65 -35.35,35.35 m 152.9,-152.85 -11.45,11.449 m 11.45,46.801 -11.45,-11.45 m 11.45,94.6 -11.45,11.45 m -35.35,35.349 -35.35,35.351 m -0.05,176.8 35.349,35.349 M 141.45,-848.5 106.1,-883.851 m 35.35,70.701 -35.35,35.35 m 35.35,106.05 -35.35,35.399 m 82.15,-306.75 -11.45,-11.449 m 11.45,94.6 -11.45,11.45 m 11.45,46.8 -11.45,-11.45 m -141.45,0 35.35,35.35 m 0.05,-141.4 -35.351,-35.35 m 35.351,70.65 -35.351,35.35 m 35.351,106.1 -35.351,35.4 M 70.7,-636.4 35.35,-671.75 m 141.45,0 11.45,11.45 m 0,-58.25 -11.45,11.449 M -353.5,-1343.45 -371,-1361 m 17.45,300.35 -35.35,-35.35 m 35.4,-70.75 -35.35,35.399 m -0.05,-106.049 35.35,35.35 m 0.05,-106.1 -35.35,35.35 m 0,459.6 35.35,35.349 m -0.05,35.401 -35.35,35.349 m 35.4,-212.149 -35.4,-35.351 m 35.35,70.75 -35.35,35.351 m 35.4,212.149 -35.35,-35.349 m 35.35,-353.55 -35.35,35.35 m 70.65,-176.8 35.35,35.349 m 70.749,-35.349 -35.349,35.349 m 176.75,-35.349 -35.35,35.349 m -35.301,0 -35.399,-35.349 m 106.1,-141.401 -35.4,35.351 m 35.35,-70.75 -17.5,-17.5 m -53.2,88.25 -35.35,-35.351 m 17.55,-52.899 -17.55,17.5 m 35.35,106.1 -35.35,35.35 m 106.1,0 -35.4,-35.35 m -106.051,-70.75 -35.349,35.35 m 35.349,-70.65 -17.549,-17.55 m -71,0 -17.5,17.5 m 35.35,70.75 -35.35,-35.351 m 35.35,70.651 -35.35,35.349 m 106.049,0.051 -35.349,-35.35 m -0.05,141.4 35.399,35.35 m -70.699,-35.35 -35.35,35.399 m 35.35,70.651 -35.4,-35.35 m 106.099,0 -35.349,35.4 m 176.8,-70.75 L -106,-1096 m -35.4,0 -35.35,35.35 m 0,35.35 35.35,35.35 m 70.7,-35.35 -35.35,35.35 m -388.9,-318.2 -35.35,35.4 m 35.35,70.7 -35.35,-35.4 m -35.35,106.099 -35.35,-35.399 m -35.4,0.05 -20.8,20.8 m 232.95,14.549 -35.35,-35.349 m -35.35,106.05 -35.35,-35.35 m 35.4,-70.7 -35.35,35.349 m 35.3,106.051 -35.35,35.35 m 70.7,-318.2 35.35,35.4 m 0.05,35.3 -35.35,35.4 m 17.45,-158.95 -17.5,17.5 m -52.85,-17.5 17.5,17.5 m -88.5,-17.5 -17.55,17.55 m 35.35,70.65 -35.35,-35.35 m -35.35,0.049 -20.85,20.851 m 20.85,85.149 -20.85,-20.849 m 91.55,-14.45 -35.35,35.35 m 35.35,106.05 -35.35,35.35 m -56.2,-20.9 20.85,20.9 m 0,35.35 -20.85,20.85 m 56.2,-20.85 35.35,35.35 m 141.4,0 -35.35,-35.35 m 35.4,-70.7 -35.35,35.35 m -35.35,282.85 -35.4,-35.35 m 0,-141.451 35.35,35.351 m 0,35.399 -35.35,35.351 m 35.35,106.05 -35.35,35.349 m 35.35,70.701 -35.35,-35.35 m 106.05,-141.4 -35.35,35.35 m 0,-106.1 35.4,35.35 m -0.05,-106 -35.35,35.35 m -176.75,35.3 -20.85,20.85 m 91.55,14.55 -35.35,-35.351 m 35.35,-70.75 -35.35,35.351 m -35.35,0.05 -20.85,-20.85 m 20.8,162.25 -20.8,-20.801 m 91.55,-14.549 -35.35,35.35 m 35.35,106.05 -35.35,35.35 m 35.35,-70.701 -35.4,-35.349 m -35.3,0 -20.85,20.849 m 20.85,120.601 -20.85,20.85 m 20.85,-56.25 -20.85,-20.85 m 233,-49.851 -35.35,-35.349 m 35.3,70.7 -35.35,35.35 m 318.2,-212.1 -35.35,-35.351 m 106.05,-0.049 -35.35,35.4 m 0,-106.05 35.35,35.35 m -70.7,-35.401 -35.35,35.401 m 35.35,106.05 -35.35,35.35 m 106.05,0 -35.35,-35.35 m -176.75,-35.4 -35.35,-35.35 m 106.049,0.049 -35.349,35.351 m 35.349,-70.75 -35.349,-35.351 m -35.35,0.051 -35.35,35.35 m 35.3,106.05 -35.35,35.35 m 106.099,0 -35.349,-35.35 m -35.4,141.4 -35.35,35.35 m 70.75,-35.35 35.349,35.35 m -0.049,-106.05 -35.35,35.349 m -70.65,-35.349 35.35,35.349 m 141.4,35.351 -35.35,35.35 m 106.05,0 -35.35,-35.35 m 35.4,-70.7 -35.35,35.349 m -35.4,0 -35.35,-35.349 m -176.8,247.5 -35.35,-35.35 m 35.4,601.05 -35.35,-35.35 m 35.3,-70.75 L -388.9,0 m 35.35,-212.15 -35.35,-35.35 m 35.4,-70.65 -35.35,35.35 m 35.3,-70.75 -35.35,-35.35 m 35.4,-70.75 -35.35,35.35 m 0,318.2 35.35,35.35 m -0.05,-106 -35.35,35.35 m 35.35,247.45 -35.35,35.35 m -70.7,-318.2 35.35,35.35 m -70.7,-35.3 -35.35,35.35 m -35.35,0 -35.35,-35.35 m -35.35,-0.05 -20.85,20.85 m 586.5,-20.85 -35.35,35.35 m -35.35,0.05 -35.35,-35.35 m -106.05,35.3 -35.35,-35.35 m 106.049,0.05 -35.349,35.35 m -35.35,-247.5 -35.35,35.35 m 106,0 -35.35,-35.35 m 176.85,35.35 -35.35,-35.35 m -35.4,0 -35.35,35.35 m 70.7,-176.8 35.35,35.35 m -70.7,-35.3 -35.35,35.35 m 35.35,70.7 -35.35,-35.35 m 106.05,0 -35.35,35.35 m -106.051,-70.7 -35.349,-35.35 m -35.35,-0.05 -35.35,35.35 m 35.3,70.75 -35.35,-35.35 m 106.099,0 -35.349,35.35 m 35.349,106.05 -35.349,35.35 m -35.4,0 -35.35,-35.35 m 35.4,70.75 -35.35,35.35 m 106.049,-0.05 -35.349,-35.35 m 176.75,-70.7 -35.35,35.35 m -35.35,0 -35.35,-35.35 m 35.35,70.7 -35.35,35.35 m 106.05,0.05 -35.35,-35.35 m -388.9,-247.5 -35.35,-35.35 m 35.35,70.7 -35.35,35.35 m -35.4,35.35 -35.35,35.35 m 176.85,-35.35 -35.35,35.35 m -35.4,35.35 -35.35,35.35 m 35.35,-70.7 -35.35,-35.35 m 0,141.4 35.35,35.35 m 70.7,-212.1 -35.35,-35.35 m 35.35,-70.75 -35.35,35.35 m -106.05,-35.3 -35.35,35.35 m -35.35,-0.05 -20.85,-20.85 m 20.8,56.25 -20.8,20.8 m 91.55,14.55 -35.35,-35.35 m 0,141.4 35.35,35.35 m -70.75,-35.35 -20.8,20.8 m 0,-77 20.85,20.85 m 0,141.45 -20.85,-20.85 m 91.55,-14.55 -35.35,35.35 m 176.75,-35.3 -35.35,35.35 m 35.35,-70.75 -35.35,-35.35 M -494.95,70.7 -530.3,35.35 m 35.35,70.7 -35.35,35.35 m 0,35.4 19.7,19.7 m 15.65,-267.2 -35.35,-35.35 m 35.35,70.7 L -530.3,0 m 106.05,-106.05 -35.35,35.35 m 35.4,70.7 -35.35,-35.35 m -106.1,-70.7 -35.35,35.35 m -35.4,0 -20.8,-20.8 m 20.85,56.15 -20.85,20.85 m 91.5,14.5 -35.35,-35.35 m 0.05,141.4 35.35,35.35 m 0,-106.05 L -601,70.7 m -56.2,-20.8 20.8,20.8 m 212.15,70.75 -35.35,-35.35 m 35.35,-70.75 -35.35,35.35 m 35.35,106.05 -19.75,19.75 m 74.8,0 -19.7,-19.7 m 247.5,-282.85 -35.35,35.35 m 106.05,0 -35.35,-35.35 M -141.4,0 -176.75,-35.35 m 106.1,0 L -106,0 m -106.101,-70.7 -35.349,-35.35 m -35.4,0 -35.35,35.35 m 0.05,35.35 L -282.8,0 M -212.15,-35.35 -247.5,0 m -35.3,141.45 -35.35,-35.35 m 106.049,-0.05 -35.349,35.35 m 0,-106.05 35.349,35.35 M -282.85,35.35 -318.2,70.7 m 35.4,106.05 -19.75,19.75 m 74.8,0 -19.7,-19.7 m 70.7,-70.75 35.35,35.35 m 70.7,-35.3 -35.35,35.35 M -70.7,70.7 -106.05,35.35 m -35.35,0 -35.35,35.35 m 35.35,106.1 -19.701,19.7 m 55.051,-19.75 19.75,19.75 m 227.75,-337.9 -35.35,-35.35 m -35.35,-0.05 -35.351,35.35 M 141.45,-424.25 106.1,-459.6 m 35.35,-70.7 -35.35,35.35 m 35.35,247.45 -35.35,35.35 m 0,-106.05 35.35,35.35 m -0.051,-106.05 -35.349,35.35 m -70.651,-35.35 35.351,35.35 m 117.5,-165.3 -11.45,-11.45 m 11.45,94.6 -11.45,11.45 m 11.45,46.8 -11.45,-11.45 M 70.75,-495 35.399,-530.35 m 35.301,70.75 -35.35,35.35 m 35.35,106.05 -35.35,35.35 m 35.4,70.75 -35.351,-35.35 m 152.851,-46.85 -11.45,11.45 m 0,35.35 11.45,11.45 M 106.1,70.7 141.45,35.35 M 141.399,0 106.05,-35.35 m 35.4,-70.7 -35.35,35.35 m 82.15,-82.15 -11.45,11.45 m 11.45,46.8 -11.45,-11.45 M 176.8,0 188.25,-11.45 M 70.7,-70.7 35.35,-106.05 m 35.4,70.7 L 35.399,0 M 70.7,70.7 35.35,35.35 M 35.399,141.45 70.75,106.1 M -19.7,196.5 0,176.8"
       style="fill:none;stroke:#8c1d1b;stroke-width:2;stroke-linecap:butt;stroke-linejoin:miter;stroke-miterlimit:3;stroke-dasharray:none;stroke-opacity:1"
       transform="matrix(1.3333333,0,0,-1.3333333,910.26693,292.39973)" />
  </g>
  <g
     id="layer-MC3">
    <path
       id="path4"
       d="M 86.25,740.6 H 806.9 V 446.75 H 86.25 Z M 806.9,853.45 H 86.25 V 1147.3 H 806.9 Z"
       style="fill:#12253c;fill-opacity:1;fill-rule:evenodd;stroke:#e6c97d;stroke-width:21.5;stroke-linecap:butt;stroke-linejoin:miter;stroke-miterlimit:3;stroke-dasharray:none;stroke-opacity:1"
       transform="matrix(1.3333333,0,0,-1.3333333,0,2133.3333)" />
  </g>
  <g
     id="layer-MC4">
    <path
       id="path5"
       d="m 0,0 h 13.801 l 4.8,-3.899 V -86.05 L 6.75,-95.5 H 2 v 2.051 H 6.301 L 8.7,-91.5 v 35.101 L 4.351,-59.85 H -4.85 l -9.45,7.451 v 40.95 z m -4.85,-7.75 v -47.649 l 3.05,-2.451 h 3.151 l 7.95,6.401 V -4.35 L 6.75,-2.449 H 2 Z m -354.6,1.9 h -2.9 l -8.15,-6.45 v -43.099 l 3,-2.451 h 2.7 l 8.5,6.85 v 42.551 z m -41.75,5.401 h 4.85 v -51.95 h 4.35 l -9.2,-7.451 h -5.05 v 52.1 h -4.399 z M -479.8,-22.8 V -7.75 L -469.649,0 h 8.5 l 4.949,-3.899 V -9.3 l -4.4,-3.45 v 8.4 l -2.35,1.901 h -4.35 l -2.349,-1.901 V -21.3 l 9.049,-7.349 v -57 l -9.75,-7.8 h -8.75 l -4.85,3.849 v 3.55 h 3 v -3.55 l 2.551,-1.9 h 4.899 l 3.851,3 v 57.851 z m 40.25,72.901 h 4.35 V 47.5 h -4.35 l -2.349,-1.899 V -18.75 h 3.699 l 5.35,4.551 V 0 l 11.3,9 h 4.85 V 7 h -4.25 l -2.6,-2.05 V -10.8 l -9.849,-7.95 h -4.351 l 13.8,-10.899 v -26.75 l 3.4,-3 h 3.3 V -61.3 h -5.05 l -11.099,8.901 v 25.2 l -8.5,6.949 v -32.149 h 4.149 l -9.3,-7.451 h -5 V 40.2 Z m 92.55,-100.05 -12.45,-9.901 h -8.5 l -2.55,2 v -28.2 l -11.7,-9.45 h -4.35 v 2.051 h 4.35 l 2.4,1.949 v 84.15 h -5 l 9.45,7.35 h 4.4 v -7.75 l 4.801,3.851 h 9.449 l 9.7,-8 z m 217.2,-65.901 v -28.349 l -8.399,-4.5 h -5.651 l -7.299,3.849 v 28.151 l 9.299,4.849 h 4.35 z m -8.399,2.951 h -3.301 l -3.5,-1.951 v -31.7 l 1.95,-1.099 h 4.3 l 2.5,1.299 v 32.401 z m -26.901,0 h -3.299 l -3.5,-1.951 v -31.7 l 1.95,-1.099 h 4.3 l 2.5,1.299 v 32.401 z m 0.701,1.049 7.7,-4 v -28.349 l -8.401,-4.5 h -5.65 l -7.3,3.849 v 28.151 l 9.3,4.849 z m -120.101,-10.45 -4.05,-2.599 V -145.5 l 0.95,-0.6 h 2.4 l 4,2.55 v 20.151 l -1.6,1.099 z m 8.7,-2.349 V -146.1 h 2.401 v -1.099 h -2.401 l -3.65,2.349 -3.8,-2.349 h -5.3 l -5.15,3.25 v 17.55 l 8.1,5.149 h 4.4 z m -32.349,3.399 h 4.399 l 5.4,-3.399 v -4.75 l -12.75,-8.101 v -7.75 l 1.65,-1.1 h 1.7 l 4,2.6 v 5.301 l 5.101,3.3 v -7.3 l -7.5,-4.75 h -4.951 l -5.15,3.25 v 17.55 z m -2.551,-14.1 6.95,4.451 v 7.5 l -1.6,1.099 h -1.7 l -3.65,-2.349 z m -33.75,10.701 5.1,3.2 h 3.05 v -23.801 l 1.651,-1.1 h 2.049 l 4.05,2.6 v 19.101 h -3.4 l 5.051,3.2 h 3.349 v -37.5 l -5.7,-3.7 h -3.149 v 0.899 H -330 l 1.45,0.851 v 15.2 l -2.4,-1.5 h -5.35 l -5.15,3.25 v 19.3 z m 153.1,12.799 7.75,-4 v -28.349 l -8.4,-4.5 h -5.649 l -7.3,3.849 v 28.151 l 9.3,4.849 z m -3.95,-1.049 -3.5,-1.951 v -31.7 l 1.901,-1.099 h 4.349 l 2.5,1.299 v 32.401 l -1.95,1.05 z m -34.95,-9.401 h -1.6 v 5.8 l 9.25,4.9 h 5.651 l 6.449,-3.4 v -8.6 l -12.399,-6.599 v -17.651 h 8.399 l 2,1.1 v 1.051 h 2 v -1.7 l -2.85,-1.5 h -15.7 V -132 l 12.101,6.45 v 12 l -1.45,0.851 h -4.201 l -7.65,-4 z m -20.3,-2.349 h 2.7 l -4.65,-3.05 h -1.75 l -1.35,0.899 v 2.151 h -1.7 l -6.3,-4.101 v -15.199 h 2.9 l -4.9,-3.25 h -3.15 v 22.75 h -2 l 4.75,3 h 2.4 v -4.95 l 7.75,4.95 h 3.35 l 1.95,-1.301 z m 54.8,122.2 -7.399,-6 v -47.5 l 1.7,-1.351 h 4.5 l 7.349,5.851 v 46.55 l -3,2.45 z m 6.15,2.449 9.901,-7.75 V -57.3 h 4.349 v -2.55 h -4.349 l -6.75,5.401 -6.95,-5.401 h -9.75 l -9.451,7.451 v 40.5 L -197.699,0 Z m -43.85,-7.75 -11.5,-9.449 v -35.2 h 5.35 l -9.049,-7.451 h -5.75 v 52.5 h -3.701 l 8.75,6.901 h 4.4 v -11.45 l 14.25,11.45 h 6.15 l 3.55,-3 V -7.75 h 5 l -8.55,-7.149 h -3.15 l -2.6,2.149 v 5 z M -276.649,45.2 V 1.551 h 3.799 l 2.35,1.899 V 9 h 3.15 V 3 l -4.15,-3.899 h -5.149 v -54.5 l 3.25,-2.451 h 2.349 l 5.7,4.451 v 3 h 3 v -4.05 l -6.75,-5.401 h -10.45 l -6.849,5.401 V -5.85 h -4.451 l -2.4,-1.9 v -5 h -2.6 v 5.4 l 4.4,3.451 h 5.051 V 40.2 l 11.599,9.3 h 4.3 v -2.399 h -3.55 z M -43.949,0 h 8.699 l 8.051,-6.449 v -45.95 h 5.599 l -9.15,-7.451 h -6.149 v 57.401 h -4.5 l -9.3,-7.45 V -73.6 L -63,-83.6 h -4.3 v 2 h 4.3 l 3,2.401 V -7.75 h -5.399 l 9.149,7.301 h 5.101 V -5.85 Z M -83.3,-0.449 h 4.851 v -51.95 h 4.349 l -9.2,-7.451 h -5.05 v 52.1 h -4.4 z m -22.349,-6 v -45.95 h 5.599 l -9.149,-7.451 h -6.151 v 57.401 h -4.5 l -9.299,-7.45 V -73.6 l -12.3,-10 h -4.301 v 2 h 4.301 l 3,2.401 V -7.75 h -5.401 l 9.151,7.301 h 5.099 V -5.85 l 7.201,5.85 h 8.7 z m -56.101,6 h 4.851 v -51.95 h 4.349 l -9.2,-7.451 h -5.05 v 52.1 h -4.399 z m 12.601,293.599 h 16.049 l 3.201,1.701 v 1.349 h 1.5 v -1.55 l -4.25,-2.299 h -10.101 v -18.75 l 4.2,2.399 h 4.3 l 5.5,-3 v -24.2 l -7.35,-4.15 h -4.049 l -5.901,3.3 v 1.45 h 2.05 v -1.299 l 4.25,-2.301 h 3.2 l 1.901,1 v 28.1 h -3.601 l -10.899,-6 z m -13.201,-1.1 h -3.95 l -7.399,-4 v -5.6 h -1.651 v 5.8 l 9.05,4.9 h 5.401 l 6.349,-3.4 v -8.6 l -12,-6.6 V 256.9 h 8.101 l 1.899,1.1 v 1.05 h 2 v -1.699 l -2.8,-1.5 h -15.2 v 16.899 l 11.651,6.45 v 12 z m -138.65,-9.6 -3.6,-2.349 V 269.4 l 6.9,4.451 v 7.5 l -1.6,1.099 z m 22.4,0 -4,-2.599 V 259.25 l 0.951,-0.6 h 2.349 l 4,2.55 v 20.151 l -1.65,1.099 z m 3.3,1.05 5.35,-3.399 V 258.65 h 2.35 v -1.1 h -2.35 l -3.6,2.35 -3.8,-2.35 h -5.25 l -5.1,3.25 v 17.551 l 8,5.149 z m -34.8,-5.149 8.05,5.149 h 4.35 l 5.35,-3.399 v -4.75 L -305,267.25 v -7.75 l 1.65,-1.1 h 1.701 l 3.949,2.6 v 5.3 l 5.051,3.301 V 262.3 l -7.401,-4.75 H -305 l -5.1,3.25 z m -7.2,4.949 v -37.5 l -5.7,-3.699 h -3.1 V 243 h 2.35 l 1.45,0.851 v 15.199 l -2.349,-1.5 h -5.301 l -5.1,3.25 v 19.301 h -3 l 5.05,3.199 h 3.05 v -23.8 l 1.6,-1.1 h 2.05 l 4,2.6 v 19.101 h -3.349 l 4.949,3.199 z m 129.05,9.6 7.5,-4 v -28.35 l -8.149,-4.5 h -5.55 l -7.051,3.85 v 28.15 l 9,4.85 z m -3.85,-1.049 -3.45,-1.951 v -31.7 l 1.851,-1.099 h 4.3 L -187,258.4 v 32.4 l -1.899,1.051 z m -54.75,-8.551 1.951,-1.3 v -1.899 h 2.649 l -4.6,-3.051 h -1.75 l -1.35,0.9 v 2.151 h -1.699 L -257.85,276 v -15.2 h 2.85 l -4.85,-3.25 H -263 v 22.75 h -1.95 l 4.7,3 h 2.4 v -4.949 l 7.65,4.949 z m 19.15,-0.85 v 5.8 l 9.051,4.9 h 5.399 l 6.4,-3.4 v -8.6 l -12.099,-6.6 V 256.9 h 8.149 l 1.901,1.1 v 1.05 h 2.049 v -1.699 l -2.849,-1.5 h -15.251 v 16.899 l 11.7,6.45 v 12 l -1.449,0.85 h -3.95 l -7.401,-4 v -5.6 z m -26.6,121.85 v -51.949 h 4.35 l -9.199,-7.451 H -264.2 V 397 h -4.4 l 9.451,7.3 z m 13.05,-7.3 9.15,7.3 h 5.1 v -5.4 l 7.2,5.85 h 8.7 l 8.05,-6.45 v -45.949 h 5.601 L -206.6,344.9 h -6.15 v 57.4 h -4.5 l -9.3,-7.449 V 331.15 l -12.3,-10 h -4.299 v 2 h 4.299 l 3,2.4 V 397 Z m -59.3,-0.7 v -47.5 l 1.7,-1.35 h 4.5 l 7.35,5.85 v 46.551 l -3,2.449 h -3.149 z m 23.45,0.7 v -49.55 h 4.35 v -2.55 h -4.35 l -6.75,5.4 -6.95,-5.4 h -9.75 l -9.45,7.451 v 40.5 l 14.9,11.899 h 8.1 z m 193.5,7.75 4.8,-3.899 V 318.7 l -11.849,-9.45 h -4.75 v 2.05 h 4.299 l 2.401,1.95 v 35.101 L -93.05,344.9 h -9.2 l -9.449,7.451 V 393.3 l 14.3,11.45 z M -102.25,397 v -47.649 l 3.051,-2.451 h 3.149 l 7.95,6.4 v 47.1 l -2.549,1.9 h -4.75 z m -73.6,7.3 v -51.949 h 4.35 l -9.199,-7.451 h -5.051 V 397 h -4.399 l 9.45,7.3 z m 13.05,-7.3 9.151,7.3 h 5.099 v -5.4 l 7.2,5.85 h 8.701 l 8.049,-6.45 v -45.949 h 5.6 l -9.149,-7.451 h -6.151 v 57.4 h -4.5 l -9.3,-7.449 V 331.15 l -12.299,-10 h -4.3 v 2 h 4.3 l 3,2.4 V 397 Z m -192.7,0.4 8.75,6.9 h 4.4 v -11.449 l 14.25,11.449 h 6.15 l 3.551,-3 V 397 h 5 l -8.551,-7.149 h -3.15 l -2.6,2.149 v 5 h -3.15 l -11.5,-9.45 v -35.199 h 5.35 l -9.05,-7.451 h -5.75 v 52.5 z m -16.7,56.85 h 4.301 v -2.399 h -3.551 l -2.6,-1.901 V 406.3 h 3.8 l 2.351,1.9 v 5.55 h 3.149 v -6 l -4.149,-3.899 h -5.151 v -54.5 l 3.25,-2.451 h 2.35 l 5.7,4.451 v 3 h 3 V 350.3 l -6.75,-5.4 h -10.45 l -6.85,5.4 v 48.6 h -4.45 l -2.399,-1.9 v -5 h -2.601 v 5.4 l 4.4,3.451 h 5.05 v 44.099 z"
       style="fill:#e6c97d;fill-opacity:1;fill-rule:evenodd;stroke:none"
       transform="matrix(1.3333333,0,0,-1.3333333,894.79947,1267.5339)" />
    <path
       id="path6"
       d="m 427.5,508.6 h 6.2 v -4.949 h -6.2 z m 5.55,404.75 h 5.55 v -4.95 h -5.55 z"
       style="fill:#12253c;fill-opacity:1;fill-rule:evenodd;stroke:none"
       transform="matrix(1.3333333,0,0,-1.3333333,0,2133.3333)" />
  </g>
</svg>
