<svg xmlns="http://www.w3.org/2000/svg" width="1200" height="2133.3" viewBox="0 0 1200 2133.3"><path d="M0 2133h1200V0H0Z" style="fill:#12253c;fill-opacity:1;fill-rule:nonzero;stroke:none;stroke-width:1.33333"/><path d="M115 1145h961v392H115Zm961-149H115V604h961Z" style="fill:#12253c;fill-opacity:1;fill-rule:evenodd;stroke:#e6c97d;stroke-width:28.6667;stroke-linecap:butt;stroke-linejoin:miter;stroke-miterlimit:3;stroke-dasharray:none;stroke-opacity:1"/><path d="M895 1268h19l6 6v109l-16 12h-6v-3h5l4-2v-47l-7 5h-12l-12-10v-55zm-7 11v63l4 4h4l11-10v-62l-3-3h-6zm-472-3h-4l-12 8v58l6 4h2l12-10v-57zm-56-8h7v70h5l-12 10h-6v-69h-7zm-105 31v-20l13-11h12l7 6v6l-7 6v-12l-2-3h-6l-4 3v22l12 11v76l-12 9h-12l-6-4v-5h4v5l4 2h5l5-4v-76zm53-97h7v2h-7l-2 3v87h5l7-7v-19l14-12h7v3h-5l-4 3v21l-12 11h-7l19 14v35l4 4h5v3h-7l-14-12v-34l-12-9v43h5l-12 10h-7v-133zm124 133-16 13h-12l-2-2v37l-16 12h-7v-3h7l2-2v-112h-6l13-10h5v11l7-5h12l13 10zm290 88v37l-11 7h-8l-9-5v-38l12-6h5Zm-11-4h-5l-4 3v42l2 2h6l4-3v-43zm-36 0h-4l-5 3v42l2 2h6l4-3v-43zm1-1 10 5v37l-11 7h-8l-9-5v-38l12-6zm-161 13-5 4v27l1 1h4l5-3v-28l-2-1zm12 4v28h4v1h-4l-4-2-5 2h-8l-7-4v-24l11-6h6zm-43-5h6l8 5v5l-18 12v10l3 1h1l6-3v-8l6-4v10l-9 6h-7l-6-4v-24zm-4 18 10-5v-11l-2-1h-2l-6 4zm-44-13 7-5h4v32l1 1h3l5-3v-25h-4l7-5h4v50l-7 6h-4v-2h3l1-1v-20l-2 1h-7l-7-4v-25zm204-17 10 5v37l-11 7h-8l-9-5v-38l12-6zm-5 1-5 3v42l2 2h6l4-3v-43l-3-1zm-47 12h-2v-8l12-5h8l9 4v12l-17 8v24h12l2-2v-1h3v1l-4 3h-21v-23l16-8v-16l-2-1h-6l-10 5zm-28 4h4l-6 4h-2l-2-1v-3h-2l-9 5v20h4l-7 4h-4v-30h-2l6-4h3v6l11-6h4l2 2zm74-164-10 8v64l3 1h5l10-8v-61l-4-4zm8-3 13 11v65h7v4h-7l-8-8-9 8h-14l-13-10v-54l20-16zm-58 11-16 12v47h7l-12 10h-7v-70h-5l12-10h5v16l19-16h8l5 4v7h7l-12 9h-4l-3-2v-7zm-58-71v58h5l3-2v-8h5v8l-7 6h-6v72l5 4h3l8-7v-4h4v5l-10 8h-14l-8-8v-64h-7l-3 3v7h-4v-8l7-4h7v-59l14-13h6v4h-4zm310 60h12l11 8v62h7l-12 10h-8v-77h-6l-13 11v85l-16 13h-5v-2h5l4-4v-95h-7l12-11h7v8zm-52 0h7v70h5l-12 10h-6v-69h-7Zm-30 8v62h8l-12 10h-8v-77h-7l-12 11v85l-16 13h-7v-2h7l4-4v-95h-8l12-11h7v8l10-8h11Zm-75-8h7v70h5l-12 10h-7v-69h-5zm17-390h22l4-3v-1h2v1l-6 4h-14v24l6-3h6l7 4v32l-9 6h-6l-8-4v-2h3v2l5 2h4l3-1v-37h-4l-15 8zm-17 1h-5l-11 5v8h-1v-8l12-6h6l8 4v12l-16 8v24h12l2-2v-1h2v3l-2 1h-22v-23l16-8v-16zm-185 13-6 3v15l10-7v-9l-2-2zm29 0-5 3v28h5l5-3v-26l-2-2zm5-1 7 4v28h3v1h-3l-5-2-4 2h-8l-7-4v-22l11-7zm-46 7 10-7h6l8 4v7l-18 10v10l3 2h1l6-4v-6l6-6v11l-9 5h-7l-6-4zm-10-7v49l-8 6h-4v-2h3l3-1v-20l-4 1h-7l-7-4v-25h-4l7-4h4v31l3 2h2l6-4v-25h-6l7-4zm172-13 10 5v37l-11 7h-7l-10-5v-38l13-6zm-5 1-5 3v42l2 2h7l3-2v-44l-3-1zm-73 12 2 1v3h4l-6 4h-3l-1-1v-3h-3l-8 5v20h4l-7 4h-4v-29h-2l6-4h3v7l11-7zm25 1v-8l12-6h8l8 4v12l-16 8v24h11l2-2v-1h3v3l-4 1h-20v-23l16-8v-16l-3-1h-5l-9 5v8zm-35-162v69h6l-12 9h-7v-69h-7l14-9zm18 9 12-9h6v6l10-8h12l10 10v61h8l-13 9h-8v-76h-5l-14 10v85l-16 13h-5v-2h5l4-4v-95zm-80 1v63l2 3h7l9-8v-63l-4-3h-4zm32-1v67h5v2h-5l-10-6-9 6h-13l-12-9v-55l20-16h10zm257-11 7 6v109l-16 13h-6v-2h6l2-3v-47l-5 4h-12l-13-9v-55l20-16zm-24 11v64l4 3h4l11-8v-63l-4-3h-6zm-99-9v69h7l-13 9h-7v-69h-5l12-9zm18 9 12-9h6v6l11-8h11l10 10v61h8l-12 9h-8v-76h-6l-12 10v85l-16 13h-7v-2h7l4-4v-95zm-256 0 10-9h7v14l19-14h8l5 4v5h7l-12 9h-4l-4-2v-7h-4l-15 12v48h7l-12 9h-8v-69zm-23-76h5v3h-4l-4 2v59h6l2-3v-8h4v8l-5 6h-7v73l4 3h4l7-6v-4h4v6l-8 6h-15l-9-6v-66h-5l-4 3v7h-3v-7l5-5h7v-59z" style="fill:#e6c97d;fill-opacity:1;fill-rule:evenodd;stroke:none;stroke-width:1.33333"/><path d="M571 1455h8v6h-10zm6-539h8v7h-8z" style="fill:#12253c;fill-opacity:1;fill-rule:evenodd;stroke:none;stroke-width:1.33333"/></svg>