<?xml version="1.0" encoding="UTF-8" standalone="no"?>
<!-- Created with Inkscape (http://www.inkscape.org/) -->

<svg
   version="1.1"
   id="svg1"
   width="1200"
   height="2133.3333"
   viewBox="0 0 1200 2133.3333"
   xmlns="http://www.w3.org/2000/svg"
   xmlns:svg="http://www.w3.org/2000/svg">
  <defs
     id="defs1">
    <clipPath
       clipPathUnits="userSpaceOnUse"
       id="clipPath4">
      <path
         d="M 0,1600 H 900 V 0 H 0 Z"
         transform="translate(-677.65042,-155.04978)"
         id="path4" />
    </clipPath>
    <clipPath
       clipPathUnits="userSpaceOnUse"
       id="clipPath6">
      <path
         d="M 0,1600 H 900 V 0 H 0 Z"
         transform="translate(0,-2.5000001e-5)"
         id="path6" />
    </clipPath>
  </defs>
  <g
     id="layer-MC0">
    <path
       id="path1"
       d="M 0,0 H 900 V 1600 H 0 Z"
       style="fill:#8c1d1b;fill-opacity:1;fill-rule:nonzero;stroke:none"
       transform="matrix(1.3333333,0,0,-1.3333333,0,2133.3333)" />
  </g>
  <g
     id="layer-MC1">
    <path
       id="path2"
       d="M 0,0 -1.45,13.2 1,10.75 2.399,-2.4 Z m 11.399,16.95 0.801,-8.7 -2.15,-2.2 -1.35,1.4 1.9,1.95 -9.05,9 4.2,4.15 z m 2.25,6.5 L 11.2,25.9 25.55,24.3 28,21.8 Z m -31.799,-9.6 -2.8,2.7 1.05,1.1 2.549,-2.5 25.801,25.75 9.85,-1 2.75,-2.8 -1.401,-1.4 -2.75,2.75 -25.75,-25.75 z m 4.25,11.75 -13.15,1.4 -2.45,2.45 13.1,-1.3 z m 0.35,16.3 8.65,-8.65 -4.201,-4.15 -4.849,4.85 -1,9.4 2.2,2.2 1.399,-1.45 z M -2.7,52.05 -1.25,38.3 -3.75,40.85 -5.101,54.5 Z m -69.8,48.85 0.75,-8.75 -2.15,-2.2 -1.3,1.4 1.9,1.95 -9.051,9 4.201,4.15 z m -10.45,-6.25 1.4,-13.15 -2.45,2.4 -1.4,13.2 z m 10.2,15.15 14.399,-1.6 2.451,-2.45 -14.451,1.6 z m -16.351,28.6 2.451,-2.45 1.5,-13.75 -2.5,2.55 z m -12.949,-40.65 -2.801,2.7 1.051,1.1 2.5,-2.5 25.8,25.75 9.85,-1 2.799,-2.8 -1.449,-1.4 -2.75,2.75 L -92.8,96.6 Z m -11.35,15.6 13.1,-1.3 2.5,-2.55 -13.15,1.4 z m 14.549,13.9 2.201,2.2 1.4,-1.45 -2.2,-2.2 8.599,-8.65 -4.199,-4.15 -4.85,4.85 z m 99.801,51.35 1.4,-13.15 -2.4,2.45 -1.45,13.15 z m 9.65,-1.4 -9.05,9 4.2,4.25 5.649,-5.6 0.75,-8.8 -2.149,-2.2 -1.3,1.4 z M -164.45,8.3 -163,-4.85 l -2.45,2.45 -1.4,13.15 z m 11.25,-2.45 -2.2,-2.2 -1.3,1.35 1.95,1.9 -9.101,9 4.201,4.25 5.65,-5.6 z m -15.9,32.55 -1.5,13.65 2.4,-2.45 1.55,-13.75 z m 31.7,-19 -14.4,1.6 -2.45,2.45 14.45,-1.6 z m -47.85,-4.2 2.5,-2.5 25.75,25.75 9.899,-1 2.801,-2.8 -1.45,-1.4 -2.8,2.8 -25.75,-25.75 -9.25,1.05 -2.8,2.75 z m 6,7.95 -13.2,1.45 -2.45,2.4 13.15,-1.3 z m 2.45,18.5 -2.1,-2.15 8.6,-8.7 -4.2,-4.2 -4.9,4.85 -0.95,9.45 2.15,2.2 z m -66.75,62.45 5.65,-5.65 0.8,-8.7 -2.2,-2.2 -1.4,1.35 1.95,1.9 -9,9.1 z m -4.8,-11.85 1.45,-13.2 -2.45,2.45 -1.4,13.15 z m 10.2,15.1 14.4,-1.6 2.45,-2.45 -14.4,1.6 z m -28.5,-10.75 25.75,25.75 9.9,-1 2.8,-2.7 -1.45,-1.45 -2.8,2.75 -25.75,-25.75 -9.3,1.05 -2.75,2.8 1.1,1.1 z m -12.15,14.4 13.05,-1.4 2.6,-2.5 -13.2,1.45 z m 26.7,22.5 1.55,-13.7 -2.55,2.5 -1.4,13.65 z m -10.05,-6.5 1.4,-1.45 -2.15,-2.15 8.7,-8.7 -4.25,-4.2 -4.85,4.85 -1,9.45 z m 103,48.25 1.9,1.95 -9.05,9.1 4.25,4.15 5.55,-5.65 0.85,-8.75 -2.15,-2.2 z m -7.7,3.3 1.4,-13.15 -2.45,2.4 -1.4,13.2 z m 18.65,25 -2.75,2.7 -25.75,-25.75 -9.35,1.15 -2.7,2.8 1.05,1.05 2.5,-2.55 25.8,25.75 9.85,-1 2.8,-2.75 z m -8.45,-9.85 14.35,-1.6 2.449,-2.45 -14.399,1.6 z m -25.15,8.05 -1.05,9.4 2.2,2.2 1.45,-1.45 -2.2,-2.2 8.65,-8.65 -4.2,-4.15 z m -15.5,-4.45 13.05,-1.35 2.55,-2.5 -13.2,1.45 z m 26.75,22.55 1.5,-13.7 -2.55,2.5 -1.4,13.65 z m -95.05,57.5 -13.2,1.45 -2.4,2.4 13.05,-1.35 z m 16.25,-28.05 -2.45,2.4 -1.4,13.2 2.45,-2.45 z m 3.4,25.05 5.55,-5.65 0.85,-8.75 -2.15,-2.15 -1.35,1.35 1.9,1.95 -9.05,9.1 z m 22.2,-0.8 -14.4,1.6 -2.4,2.45 14.35,-1.6 z m -9.7,18.05 2.8,-2.75 -1.45,-1.4 -2.75,2.7 -25.75,-25.75 -9.35,1.15 -2.7,2.8 1.05,1.05 2.5,-2.55 25.8,25.75 z m -23.45,14.6 2.45,-2.45 1.5,-13.7 -2.55,2.5 z m -7.65,-8.95 1.45,-1.45 -2.2,-2.2 8.65,-8.65 -4.2,-4.15 -4.9,4.85 -1,9.4 z m 95.5,76.7 -2.55,2.5 -1.4,13.65 2.45,-2.45 z m -12.65,-12.65 -13.2,1.45 -2.4,2.45 13.05,-1.4 z m 1.05,19.85 1.45,-1.45 -2.2,-2.1 8.65,-8.7 -4.2,-4.2 -4.85,4.85 -1.05,9.45 z m 13.8,-34.7 1.4,-13.2 -2.45,2.45 -1.4,13.15 z m 4.8,11.85 5.55,-5.65 0.85,-8.8 -2.15,-2.15 -1.35,1.35 1.9,1.95 -9.05,9.1 z m 5.4,3.2 14.35,-1.55 2.449,-2.45 -14.399,1.55 z m 8.549,9.85 -2.799,2.75 -25.8,-25.8 -9.35,1.15 -2.7,2.8 1.1,1.05 2.5,-2.55 25.75,25.75 9.9,-1 2.8,-2.75 z M 11.149,193.7 25.55,192.15 28,189.7 13.55,191.25 Z m 9.951,11.2 -1.4,-1.4 -2.801,2.75 -25.799,-25.75 -9.25,1.15 -2.8,2.75 1.099,1.05 2.5,-2.5 25.75,25.75 9.901,-1 z m -23.85,14.95 1.5,-13.75 -2.5,2.55 -1.45,13.65 z m -11.15,-26.4 -13.15,1.45 -2.45,2.4 13.1,-1.3 z m 1.15,19.9 1.399,-1.45 -2.199,-2.15 8.6,-8.65 -4.2,-4.2 -4.85,4.85 -0.95,9.45 z m -85.05,64.05 -13.15,1.45 -2.45,2.4 13.049,-1.35 z m 13.8,-25.6 -1.4,13.15 2.45,-2.45 1.4,-13.15 z m 5.85,22.6 5.549,-5.65 0.851,-8.8 -2.15,-2.15 -1.35,1.35 1.899,1.95 -9,9.1 z m 22.2,-0.8 -14.401,1.55 -2.399,2.45 14.35,-1.55 z m -9.651,18 2.801,-2.75 -1.4,-1.4 -2.8,2.7 -25.8,-25.75 -9.35,1.15 -2.701,2.8 1.101,1.05 2.5,-2.55 25.75,25.75 z m -22.099,0.95 -1.401,13.65 2.451,-2.45 1.5,-13.7 z m -9.05,4.7 1.45,-1.45 -2.2,-2.15 8.649,-8.65 -4.199,-4.2 -4.85,4.85 -1.05,9.45 z m 69.7,65.5 -2.45,2.45 13.05,-1.4 2.55,-2.5 z m 12,16.25 2.199,2.2 1.451,-1.45 -2.201,-2.15 8.651,-8.7 -4.2,-4.2 -4.85,4.85 z m 28.699,-19.95 -2.449,2.45 14.3,-1.55 2.45,-2.45 z m -5,-15.95 1.901,1.9 -9,9.1 4.2,4.2 5.55,-5.65 0.9,-8.8 -2.2,-2.1 z m -7.699,3.35 1.4,-13.2 -2.4,2.45 -1.45,13.15 z m -2.15,27.5 -2.55,2.5 -1.45,13.7 2.45,-2.45 z m 18.099,0.2 -25.75,-25.85 -9.399,1.15 -2.7,2.8 1.099,1.05 2.5,-2.55 25.75,25.8 9.901,-1 2.8,-2.7 -1.4,-1.45 z M -322.65,6.9 l -9,9.1 4.15,4.2 5.65,-5.65 0.8,-8.8 -2.15,-2.1 -1.4,1.35 z m 17.4,12.5 -14.35,1.6 -2.45,2.45 14.3,-1.6 z m -27.05,-11.1 1.4,-13.15 -2.4,2.45 -1.45,13.15 z m -20.75,6.95 2.45,-2.55 25.8,25.75 9.9,-1 2.75,-2.7 -1.4,-1.45 -2.8,2.75 -25.75,-25.85 -9.3,1.15 -2.75,2.8 z m 5.9,7.95 -13.15,1.45 -2.45,2.4 13.05,-1.35 z m 2.5,18.45 -2.2,-2.15 8.65,-8.7 -4.15,-4.2 -4.85,4.85 -1.05,9.45 2.2,2.2 z m 8.65,7.95 1.55,-13.7 -2.55,2.5 -1.4,13.65 z m -69.8,48.85 0.85,-8.8 -2.15,-2.1 -1.4,1.35 1.95,1.9 -9,9.1 4.15,4.2 z m -0.15,8.9 14.3,-1.6 2.45,-2.45 -14.3,1.6 z m -10.25,-15.1 1.4,-13.2 -2.4,2.45 -1.45,13.15 z m -18.3,4.35 25.75,25.75 9.95,-1 2.75,-2.7 -1.4,-1.45 -2.8,2.75 -25.75,-25.85 -9.3,1.15 -2.75,2.8 1.1,1.1 z m -12.15,14.4 13.05,-1.4 2.55,-2.5 -13.15,1.45 z m 26.75,22.5 1.55,-13.7 -2.55,2.5 -1.4,13.65 z m -8.65,-7.95 -2.2,-2.15 8.65,-8.7 -4.15,-4.2 -4.85,4.85 -1.05,9.45 2.2,2.2 z m 93.9,53 2.4,-2.4 1.45,-13.2 -2.45,2.45 z m 3,5.25 4.2,4.2 5.6,-5.65 0.8,-8.7 -2.15,-2.2 -1.4,1.35 1.95,1.9 z m 26.4,3.4 -14.35,1.65 -2.45,2.4 14.35,-1.6 z m -184.6,-163.8 14.3,-1.55 2.45,-2.45 -14.3,1.55 z m -5.45,-3.2 5.6,-5.65 0.85,-8.8 -2.2,-2.1 -1.35,1.35 1.9,1.9 -9,9.1 z m -7.25,-9.45 2.45,-2.45 1.4,-13.15 -2.4,2.45 z m -19.45,3.4 1.15,1.05 2.45,-2.55 25.75,25.8 9.95,-1.05 2.75,-2.75 -1.4,-1.4 -2.8,2.7 -25.75,-25.75 -9.35,1.15 z m -8.55,12.9 13.05,-1.35 2.55,-2.5 -13.15,1.45 z m 18.1,14.6 -2.2,-2.15 8.65,-8.7 -4.2,-4.2 -4.85,4.85 -1,9.45 2.2,2.2 z m 8.65,7.95 1.55,-13.75 -2.55,2.5 -1.4,13.7 z m -67.5,55.3 -2.45,2.45 14.3,-1.6 2.45,-2.45 z m -12.7,-12.6 1.4,-13.2 -2.4,2.45 -1.45,13.15 z m 4.75,11.8 5.65,-5.65 0.85,-8.7 -2.2,-2.15 -1.35,1.3 1.9,1.9 -9.05,9.1 z m -23.05,-7.55 25.75,25.8 9.95,-1 2.7,-2.8 -1.4,-1.4 -2.75,2.8 -25.75,-25.75 -9.35,1.05 -2.8,2.8 1.1,1.05 z m 3.4,10.55 -12.55,1.375 v 2.2 l 10.05,-1.075 z m 1.15,19.9 1.4,-1.45 -2.2,-2.15 8.65,-8.65 -4.2,-4.2 -4.85,4.9 -1,9.35 z m 10.05,6.6 1.5,-13.85 -2.5,2.5 -1.4,13.75 z m 85.15,45 2.45,-2.4 1.4,-13.2 -2.4,2.45 z m 15.15,10.3 -2.45,2.4 14.3,-1.65 2.45,-2.45 z m -1.45,-15.25 -2.2,-2.15 -1.35,1.3 1.95,1.9 -9.05,9.1 4.15,4.2 5.65,-5.65 z m 8.85,28.9 -1.4,-1.45 -2.75,2.8 -25.75,-25.8 -9.3,1.05 -2.8,2.8 1.05,1.1 2.55,-2.55 25.75,25.75 9.95,-0.95 z m -35,-11.55 -13.15,1.45 -2.45,2.45 13.1,-1.4 z m -1.05,17.7 2.2,2.2 1.4,-1.4 -2.2,-2.2 8.65,-8.6 -4.15,-4.25 -4.85,4.9 z m 12.25,8.8 1.5,-13.8 -2.5,2.5 -1.4,13.7 z m -82.7,45 2.5,-2.4 1.4,-13.2 -2.4,2.45 z m -12.4,12.4 -12.55,1.375 v 2.2 l 10.05,-1.075 z m 23.9,-19.5 -1.3,1.3 1.95,1.9 -9.05,9.1 4.15,4.2 5.65,-5.65 0.8,-8.7 z m 3.7,17.4 -2.5,2.4 14.35,-1.65 2.45,-2.4 z m 4.7,16.4 2.7,-2.75 -1.4,-1.45 -2.75,2.8 -25.75,-25.8 -9.3,1.05 -2.8,2.8 1.05,1.1 2.55,-2.45 25.75,25.75 z m -23.6,14.6 2.45,-2.4 1.55,-13.8 -2.5,2.5 z m -7.55,-9 1.4,-1.4 -2.2,-2.2 8.65,-8.6 -4.15,-4.25 -4.9,4.9 -1,9.35 z m 97.7,49.2 1.45,-13.2 -2.45,2.45 -1.5,13.2 z m -30.5,18.7 13.1,-1.4 2.5,-2.45 -13.15,1.4 z m 26.7,22.6 1.55,-13.8 -2.5,2.5 -1.5,13.7 z m -8.6,-8 -2.15,-2.2 8.7,-8.6 -4.25,-4.25 -4.9,4.9 -0.95,9.35 2.15,2.2 z m 36.95,-19.85 2.45,-2.4 -14.35,1.65 -2.5,2.4 z m -16.9,-16.85 1.95,1.9 -9.05,9.1 4.2,4.2 5.65,-5.65 0.75,-8.65 -2.2,-2.2 z m 9.7,32.55 2.7,-2.8 -1.4,-1.45 -2.75,2.8 -25.75,-25.75 -9.3,1 -2.8,2.8 1.05,1.15 2.55,-2.5 25.75,25.75 z m 170.55,-170.6 -1.4,-1.45 -2.8,2.75 -25.75,-25.75 -9.3,1.05 -2.75,2.8 1.1,1.1 2.45,-2.55 25.8,25.75 9.9,-1 z m -33.9,8.35 1.4,-1.4 -2.15,-2.2 8.7,-8.7 -4.25,-4.2 -4.85,4.85 -1,9.45 z m -16.65,-16 13.05,-1.4 2.55,-2.5 -13.15,1.45 z m 26.7,22.55 1.55,-13.75 -2.55,2.5 -1.4,13.65 z m -82.6,45.05 2.45,-2.4 1.45,-13.2 -2.45,2.45 z m -28.05,16.3 13.1,-1.4 2.5,-2.5 -13.15,1.45 z m 40.9,-12.55 0.8,-8.65 -2.15,-2.2 -1.4,1.3 1.95,1.9 -9.05,9.1 4.2,4.2 z m 16.6,4.9 -14.35,1.65 -2.45,2.4 14.35,-1.65 z m -9.65,18.05 2.7,-2.75 -1.4,-1.45 -2.75,2.8 -25.75,-25.75 -9.3,1 -2.8,2.8 1.05,1.1 2.55,-2.55 25.75,25.75 z m -23.5,14.6 2.4,-2.4 1.5,-13.8 -2.5,2.5 z m -6.25,-10.4 -2.15,-2.2 8.7,-8.6 -4.25,-4.25 -4.85,4.9 -1,9.35 2.15,2.2 z m 79,67.85 -13.2,1.45 -2.4,2.4 13.1,-1.35 z m 14.9,-14.8 1.4,-13.2 -2.45,2.45 -1.4,13.15 z m -2.3,27.5 -2.45,2.5 -1.4,13.7 2.45,-2.45 z m -10.05,5.75 -2.2,-2.2 8.65,-8.6 -4.2,-4.15 -4.9,4.9 -1,9.3 2.2,2.2 z m 22.7,-27.1 0.85,-8.65 -2.15,-2.2 -1.35,1.3 1.9,1.95 -9.1,9.1 4.2,4.15 z m -0.15,8.95 14.35,-1.65 2.4,-2.45 -14.35,1.65 z m 7.1,14 2.75,-2.8 -1.45,-1.4 -2.7,2.8 -25.75,-25.75 -9.35,1.05 -2.8,2.8 1.1,1.05 2.55,-2.5 25.8,25.75 z m -99.8,41.6 -2.45,2.45 -1.45,13.15 2.4,-2.4 z m 3.3,25 5.65,-5.65 0.8,-8.65 -2.15,-2.2 -1.3,1.3 1.9,1.95 -9.1,9.1 z m -22.1,5.55 2.5,-2.55 -13.2,1.45 -2.45,2.4 z m 5.05,15.9 -2.2,-2.2 8.6,-8.6 -4.2,-4.15 -4.9,4.9 -0.95,9.3 2.2,2.2 z m 8.6,8.05 1.45,-13.8 -2.45,2.55 -1.45,13.65 z m 28.3,-27.85 2.4,-2.45 -14.4,1.7 -2.45,2.4 z m -7.3,15.65 2.8,-2.8 -1.45,-1.4 -2.8,2.8 -25.75,-25.75 -9.25,1.05 -2.8,2.8 1.1,1.05 2.55,-2.5 25.8,25.75 z m 77,61 0.8,-8.7 -2.15,-2.2 -1.3,1.3 1.9,1.95 -9.1,9.1 4.2,4.2 z m 16.6,4.9 -14.4,1.6 -2.45,2.4 14.45,-1.6 z m -27.05,-11.05 1.5,-13.2 -2.45,2.45 -1.45,13.15 z m -14.8,14.8 -13.2,1.45 -2.4,2.45 13.1,-1.35 z m 0.35,16.3 8.6,-8.6 -4.2,-4.25 -4.9,4.9 -0.95,9.35 2.2,2.15 1.45,-1.45 z m 10.8,10.15 1.45,-13.8 -2.45,2.55 -1.45,13.65 z m 23.85,-14.95 -1.45,-1.45 -2.75,2.8 -25.85,-25.75 -9.25,1.05 -2.8,2.8 1.15,1.05 2.55,-2.5 25.75,25.75 9.85,-1 z M -575,423.2 l -1.3,1.35 1.95,1.9 -9.05,9.05 4.2,4.2 5.65,-5.55 0.75,-8.75 z m -7.6,-8.5 -2.4,2.45 -1.45,13.2 2.45,-2.45 z m -28.85,29.4 v 2.2 l 10.1,-1 2.5,-2.55 z m 11.55,16.35 2.15,2.2 1.4,-1.4 -2.15,-2.2 8.6,-8.65 -4.2,-4.25 -4.85,4.9 z m 12.15,8.75 1.55,-13.75 -2.5,2.55 -1.5,13.65 z m 28.35,-27.8 2.45,-2.4 -14.4,1.6 -2.45,2.45 z m -5.9,11.4 -2.8,2.8 -25.75,-25.75 -9.25,1.05 -2.8,2.75 1.05,1.15 2.5,-2.5 25.75,25.75 9.9,-1 2.8,-2.8 z m 87.4,74.95 2.4,-2.4 -14.4,1.6 -2.45,2.4 z m -55.1,5.15 13.15,-1.3 2.5,-2.55 -13.2,1.45 z m 30.45,-18.65 1.45,-13.2 -2.45,2.45 -1.4,13.15 z m 4.8,11.8 5.65,-5.6 0.8,-8.7 -2.15,-2.2 -1.3,1.35 1.9,1.95 -9.1,9.05 z m -7,15.7 -2.5,2.55 -1.4,13.65 2.45,-2.4 z m -13.7,5.05 2.2,2.2 1.45,-1.4 -2.2,-2.2 8.6,-8.7 -4.25,-4.15 -4.85,4.9 z m 36.05,-6.2 -1.45,-1.45 -2.8,2.8 -25.75,-25.75 -9.25,1.1 -2.8,2.75 1.1,1.05 2.5,-2.5 25.8,25.75 9.85,-1 z m -21.15,130.75 -1.4,13.2 2.4,-2.45 1.45,-13.2 z m -70.25,-60.5 -2.45,2.4 14.35,-1.6 2.45,-2.4 z m -15.05,-10.3 2.4,-2.4 1.45,-13.2 -2.45,2.45 z m 12.8,3.8 0.8,-8.7 -2.1,-2.2 -1.4,1.35 1.9,1.95 -9,9.1 4.2,4.15 z m -29.55,-3.15 -2.75,2.75 1.1,1.05 2.45,-2.5 25.85,25.8 9.85,-1.05 2.75,-2.75 -1.4,-1.45 -2.8,2.8 -25.75,-25.75 z m -5.85,12.875 v 2.175 l 7.6,-0.75 2.6,-2.55 z m 12.65,17.425 -2.2,-2.2 8.7,-8.7 -4.25,-4.15 -4.85,4.9 -1,9.35 2.2,2.2 z m 8.7,7.95 1.45,-13.8 -2.55,2.55 -1.35,13.65 z m -21.35,142.525 v 2.2 l 7.6,-0.775 2.6,-2.5 z m 34.6,-17.425 -9.05,9.1 4.2,4.2 5.65,-5.6 0.8,-8.8 -2.1,-2.2 -1.4,1.35 z m -9.6,1.45 1.45,-13.2 -2.45,2.45 -1.4,13.2 z m 12.65,12.65 -2.45,2.4 14.35,-1.55 2.45,-2.4 z m 95.85,-83.05 2.4,-2.4 -14.35,1.55 -2.45,2.4 z m -19.8,-1.65 5.6,-5.65 0.85,-8.75 -2.15,-2.2 -1.35,1.35 1.85,1.95 -9,9.1 z m -35.25,6.85 13.1,-1.3 2.55,-2.55 -13.2,1.4 z m 12.2,-14.35 25.75,25.75 9.9,-1.05 2.8,-2.75 -1.45,-1.45 -2.8,2.8 -25.8,-25.75 -9.3,1.1 -2.75,2.75 1.15,1.05 z m 3.7,26.8 8.7,-8.65 -4.25,-4.25 -4.85,4.9 -1,9.4 2.2,2.15 1.4,-1.4 z m 10.9,10.1 1.45,-13.8 -2.55,2.55 -1.35,13.65 z m 172.9,-54.45 -2.45,2.45 -1.4,13.2 2.4,-2.45 z m -75.15,-55.65 14.45,-1.55 2.4,-2.4 -14.4,1.55 z m -12.6,-12.65 2.4,-2.4 1.45,-13.2 -2.45,2.45 z m 7.2,9.4 5.65,-5.6 0.8,-8.75 -2.15,-2.2 -1.3,1.35 1.9,1.95 -9.1,9.05 z m -23.05,-7.5 25.75,25.8 9.9,-1.05 2.8,-2.75 -1.45,-1.45 -2.75,2.8 -25.85,-25.75 -9.25,1.1 -2.8,2.75 1.15,1.05 z m 0.95,13.1 2.5,-2.55 -13.2,1.4 -2.45,2.45 z m 5.05,15.9 -2.2,-2.15 8.6,-8.65 -4.2,-4.25 -4.9,4.9 -0.95,9.4 2.2,2.15 z m 8.6,7.95 1.45,-13.8 -2.45,2.55 -1.45,13.65 z m -11.15,141.4 -13.2,1.4 -2.45,2.45 13.1,-1.3 z m 14.8,-14.85 1.45,-13.2 -2.45,2.45 -1.4,13.2 z m 24.6,13.5 2.4,-2.4 -14.3,1.55 -2.4,2.4 z m -16.85,-16.85 1.9,1.9 -9.05,9.1 4.2,4.2 5.6,-5.6 0.9,-8.8 -2.2,-2.15 z m 86.6,-74.35 0.85,-8.75 -2.2,-2.15 -1.3,1.35 1.9,1.9 -9.1,9.05 4.2,4.2 z m -0.15,8.85 14.35,-1.55 2.4,-2.4 -14.35,1.55 z m -32.2,-9.3 1.15,1.05 2.5,-2.45 25.75,25.8 9.9,-1 2.8,-2.8 -1.45,-1.45 -2.75,2.8 -25.75,-25.8 -9.35,1.1 z m -8.5,12.95 13.1,-1.3 2.5,-2.55 -13.2,1.4 z m 26.75,22.6 1.55,-13.85 -2.5,2.55 -1.5,13.75 z m -10.05,-6.55 1.45,-1.4 -2.2,-2.2 8.6,-8.65 -4.2,-4.25 -4.9,4.9 -0.95,9.4 z m 266.9,-299.7 -2.45,2.45 -1.4,13.15 2.45,-2.4 z m -31.85,31.95 13.049,-1.4 2.551,-2.5 -13.15,1.45 z m 18.1,14.55 -2.2,-2.15 8.649,-8.7 -4.199,-4.2 -4.85,4.85 -1.05,9.45 2.2,2.2 z m 28.3,-5.6 -25.75,-25.8 -9.4,1.1 -2.701,2.8 1.101,1.05 2.5,-2.55 25.75,25.8 9.899,-1 2.801,-2.7 -1.4,-1.45 z m -11.15,-15.85 5.549,-5.65 0.901,-8.75 -2.2,-2.15 -1.35,1.35 1.899,1.9 -9,9.1 z m 5.45,3.2 14.3,-1.55 2.45,-2.45 -14.3,1.55 z m -13.95,26.25 1.549,-13.8 -2.549,2.5 -1.451,13.7 z m 88.25,50.25 4.15,4.2 5.55,-5.65 0.9,-8.7 -2.2,-2.2 -1.351,1.35 1.951,1.9 z m -0.65,-7.65 1.4,-13.2 -2.4,2.45 -1.45,13.15 z m 12.699,12.7 -2.449,2.4 14.3,-1.6 2.45,-2.4 z m -40.699,3.6 -2.45,2.45 13.05,-1.4 2.55,-2.5 z m 12,16.25 2.199,2.2 1.451,-1.4 -2.201,-2.2 8.651,-8.7 -4.151,-4.2 -4.849,4.85 z m 31.949,-4.85 -25.75,-25.75 -9.299,1.05 -2.75,2.8 1.049,1.1 2.5,-2.55 25.75,25.75 9.901,-1 2.8,-2.7 -1.4,-1.45 z M -1.2,541.8 l -2.55,2.5 -1.45,13.65 2.45,-2.4 z m -252,-109 2.45,-2.4 1.4,-13.2 -2.45,2.45 z m -28.05,16.3 13.1,-1.4 2.5,-2.5 -13.2,1.45 z m 16.7,15.95 1.45,-1.45 -2.2,-2.1 8.65,-8.6 -4.2,-4.25 -4.9,4.9 -1,9.35 z m 10.1,6.6 1.4,-13.8 -2.45,2.5 -1.4,13.7 z m 8.4,-29.45 5.65,-5.65 0.85,-8.7 -2.15,-2.2 -1.35,1.3 1.9,1.95 -9.1,9.1 z m 5.5,3.25 14.35,-1.6 2.45,-2.45 -14.4,1.65 z m 7.15,14 2.75,-2.8 -1.45,-1.4 -2.7,2.8 -25.8,-25.75 -9.35,1.05 -2.8,2.8 1.15,1.05 2.55,-2.5 25.75,25.75 z m 66.55,54.85 1.4,-13.2 -2.45,2.45 -1.4,13.15 z m 4.749,11.8 5.601,-5.65 0.899,-8.7 -2.199,-2.15 -1.35,1.3 1.9,1.9 -9.1,9.1 z m 22.25,-0.75 -14.299,1.6 -2.451,2.4 14.301,-1.6 z m -41.899,3.75 -13.2,1.45 -2.4,2.45 13.1,-1.4 z m 9,7.7 -4.2,-4.25 -4.85,4.9 -1.05,9.35 2.2,2.2 1.45,-1.4 -2.2,-2.2 z m 2.2,18.8 1.5,-13.85 -2.5,2.5 L -173,558 Z m 23.8,-14.95 -1.45,-1.45 -2.7,2.8 -25.75,-25.8 -9.4,1.05 -2.75,2.8 1.1,1.05 2.55,-2.5 25.75,25.85 9.9,-1.05 z m -21.15,130.7 -1.45,13.2 2.4,-2.45 1.5,-13.2 z m -73.25,-74.65 -9.1,9.1 4.2,4.2 5.65,-5.65 0.85,-8.7 -2.2,-2.15 -1.3,1.3 z m 0.6,16.55 14.35,-1.6 2.45,-2.4 -14.4,1.6 z m -12.7,-12.65 2.4,-2.4 1.5,-13.2 -2.45,2.45 z m -18.35,4.4 2.55,-2.5 25.75,25.85 9.85,-1 2.8,-2.8 -1.45,-1.45 -2.75,2.8 -25.75,-25.8 -9.35,1.05 -2.8,2.8 z m 5.95,8.05 -13.2,1.4 -2.4,2.45 13.1,-1.3 z m 1.1,19.85 1.45,-1.4 -2.2,-2.2 8.6,-8.6 -4.2,-4.25 -4.9,4.9 -0.95,9.35 z m 10.05,6.6 1.55,-13.85 -2.5,2.55 -1.5,13.7 z m -11.15,141.35 -13.2,1.4 -2.4,2.45 13.1,-1.3 z m 16.25,-28.05 -2.45,2.45 -1.4,13.2 2.4,-2.45 z m 8.3,11.75 -9.1,9.05 4.15,4.2 5.65,-5.55 0.85,-8.75 -2.2,-2.2 -1.3,1.35 z m 17.35,12.55 -14.4,1.6 -2.4,2.45 14.35,-1.65 z m 67.1,-79.9 14.35,-1.65 2.449,-2.4 -14.399,1.65 z m 0.15,-8.95 0.85,-8.65 -2.201,-2.2 -1.299,1.3 1.95,1.9 -9.1,9.1 4.199,4.2 z m -32.25,-0.4 1.05,1.15 2.55,-2.5 25.75,25.75 9.85,-1 2.8,-2.8 -1.45,-1.45 -2.75,2.8 -25.75,-25.75 -9.3,1 z m -8.6,12.95 13.1,-1.3 2.5,-2.55 -13.2,1.4 z m 26.75,22.6 1.55,-13.75 -2.5,2.55 -1.5,13.65 z m -10.05,-6.6 1.45,-1.4 -2.2,-2.2 8.6,-8.6 -4.15,-4.25 -4.85,4.9 -1.05,9.35 z m 183,-47.9 -2.4,2.45 -1.45,13.2 2.45,-2.45 z m -87.75,-68.3 2.45,-2.4 1.4,-13.2 -2.45,2.45 z m 12.799,3.75 0.901,-8.65 -2.2,-2.2 -1.35,1.3 1.95,1.9 -9.051,9.1 4.151,4.2 z m -0.099,8.95 14.3,-1.65 2.45,-2.4 -14.3,1.65 z m -29.35,-12.15 -2.801,2.8 1.051,1.1 2.55,-2.45 25.75,25.75 9.899,-1 2.75,-2.8 -1.449,-1.45 -2.7,2.8 -25.75,-25.75 z m 6.75,30.35 -2.2,-2.2 8.649,-8.6 -4.149,-4.25 -4.851,4.9 -1.099,9.35 2.2,2.2 z m -2.551,-18.45 -13.199,1.4 -2.4,2.45 13.099,-1.4 z m 11.201,26.45 1.5,-13.8 -2.5,2.5 -1.451,13.7 z m -11.201,141.35 -13.199,1.4 -2.4,2.45 13.099,-1.3 z M -83.05,766 l 1.5,-13.2 -2.45,2.45 -1.45,13.2 z m 10.449,6.15 0.851,-8.65 -2.2,-2.2 -1.3,1.3 1.95,1.95 -9.051,9.1 4.151,4.15 z m 16.701,4.9 -14.451,1.65 -2.399,2.45 14.399,-1.7 z m 69.549,-82.25 -2.449,2.4 14.35,-1.65 2.45,-2.4 z m -7.949,-0.9 5.6,-5.65 0.9,-8.65 -2.2,-2.2 -1.351,1.3 1.951,1.95 -9.05,9.1 z m -8.45,29.5 1.5,-13.75 -2.5,2.45 -1.45,13.75 z m -11.2,-26.45 -13.2,1.4 -2.4,2.45 13.1,-1.4 z m -3.401,-10.45 25.75,25.75 9.901,-1 2.75,-2.8 -1.401,-1.45 -2.75,2.8 -25.75,-25.75 -9.299,1 -2.8,2.8 1.05,1.15 z m 3.75,26.7 8.651,-8.6 -4.151,-4.15 -4.849,4.85 -1.1,9.3 2.199,2.2 1.451,-1.4 z M 263.1,100.9 l 0.9,-8.75 -2.2,-2.1 -1.401,1.3 1.901,1.9 -9.05,9.05 4.2,4.25 z M 252.7,94.7 254.149,81.55 251.7,84 250.25,97.15 Z m -15.95,32.55 2.2,2.2 1.4,-1.45 -2.201,-2.2 8.701,-8.6 -4.25,-4.2 -4.85,4.85 z M 249,136 l 1.5,-13.8 -2.5,2.5 -1.4,13.75 z m -18.25,-35.55 1.1,1.1 2.6,-2.5 25.75,25.8 9.9,-1 2.7,-2.8 -1.401,-1.4 -2.75,2.8 -25.75,-25.85 -9.349,1.1 z m -8.55,12.95 13.1,-1.35 2.5,-2.5 -13.151,1.45 z m 57.5,-7.65 -14.301,1.6 -2.449,2.45 14.3,-1.6 z M 168.8,10.8 l 1.4,-13.15 -2.4,2.45 -1.45,13.15 z m 4.75,11.8 5.65,-5.6 0.8,-8.75 -2.101,-2.2 -1.399,1.3 1.899,2 -9.049,9.05 z m 19.8,1.7 2.45,-2.45 -14.35,1.6 -2.45,2.45 z m -46.5,-7.75 1.1,1.1 2.55,-2.5 25.8,25.75 9.9,-1 2.699,-2.8 -1.399,-1.4 -2.75,2.75 -25.8,-25.75 -9.301,1.1 z m -8.55,12.95 13.099,-1.35 2.5,-2.5 -13.149,1.4 z m 15.95,12.4 8.649,-8.6 -4.199,-4.2 -4.85,4.85 -1,9.4 2.2,2.1 1.4,-1.4 z m 10.85,10.15 1.45,-13.75 -2.5,2.5 -1.35,13.7 z m -55.65,56.2 2.449,-2.5 -14.349,1.6 -2.45,2.45 z m -19.801,-1.7 5.651,-5.65 0.8,-8.75 -2.15,-2.2 -1.35,1.4 1.9,1.95 -9.05,9 z M 84.899,94.7 86.3,81.55 83.899,84 82.45,97.15 Z m -3.699,41.25 1.449,-13.75 -2.5,2.55 L 78.8,138.4 Z M 56.85,111 54.399,113.4 67.5,112.1 70,109.55 Z m 6.1,-10.55 1.1,1.1 2.55,-2.5 25.75,25.75 9.95,-1 2.7,-2.8 -1.4,-1.4 -2.75,2.75 -25.8,-25.75 -9.3,1.15 z m 7.4,25.4 8.65,-8.65 -4.2,-4.2 -4.85,4.85 -1,9.45 2.199,2.15 1.401,-1.45 z m 97.45,42.05 -1.45,13.15 2.45,-2.45 1.4,-13.15 z m 12.25,8.15 -2.151,-2.1 -1.399,1.35 1.899,1.9 -9.049,9 4.2,4.25 5.65,-5.65 z m 13.3,16.1 2.45,-2.5 -14.3,1.6 -2.45,2.45 z m -4.451,12.8 -1.399,-1.4 -2.75,2.8 -25.75,-25.85 -9.351,1.15 -2.799,2.75 1.1,1.05 2.55,-2.5 25.8,25.8 9.9,-1 z m -26,-3.85 -4.199,-4.2 -4.85,4.85 -1,9.45 2.2,2.2 1.4,-1.45 -2.2,-2.2 z m 2.201,18.8 1.5,-13.8 -2.5,2.55 -1.4,13.7 z m -26.8,-22.6 13.099,-1.3 2.5,-2.55 -13.149,1.45 z M 54.399,281.2 67.5,279.9 70,277.35 56.85,278.8 Z m 29.451,-29.4 -1.451,13.15 2.451,-2.45 1.4,-13.15 z m 5.799,22.55 5.651,-5.6 0.8,-8.8 -2.201,-2.1 -1.299,1.35 1.9,1.9 -9.05,9 z m 5.451,3.25 14.35,-1.55 2.449,-2.45 -14.349,1.55 z m 7.1,14.05 2.8,-2.8 -1.4,-1.4 -2.8,2.8 -25.75,-25.85 -9.3,1.15 -2.8,2.75 1.1,1.05 2.5,-2.5 25.75,25.8 z m -22,0.9 -1.45,13.7 2.399,-2.45 L 82.7,290 Z m -9.85,1.1 8.6,-8.65 -4.2,-4.2 -4.851,4.85 -0.949,9.45 2.199,2.2 1.401,-1.45 z m 81.049,70.15 2.5,-2.55 -13.149,1.45 -2.45,2.4 z m 41.951,-3.85 2.45,-2.45 -14.35,1.6 -2.45,2.45 z m -24.6,-13.5 1.399,-13.2 -2.399,2.45 -1.45,13.15 z m 4.8,11.8 5.65,-5.6 0.8,-8.7 -2.2,-2.2 -1.3,1.35 1.95,1.9 -9.051,9 z m -19.7,11.3 -1,9.45 2.2,2.2 1.4,-1.45 -2.2,-2.15 8.6,-8.7 -4.15,-4.2 z m 12.75,4.4 -2.5,2.55 -1.451,13.65 2.401,-2.45 z m 18.1,0.2 -25.75,-25.75 -9.25,1.05 -2.801,2.75 1.051,1.1 2.5,-2.5 25.75,25.75 9.949,-1 2.75,-2.8 -1.399,-1.4 z m 67,-122.35 -1.45,13.15 2.45,-2.45 1.449,-13.15 z m -13.9,25.55 -13.151,1.45 -2.449,2.4 13.1,-1.3 z m 25.15,0.3 14.3,-1.6 2.45,-2.5 -14.301,1.65 z m 0.15,-8.95 0.9,-8.65 -2.2,-2.2 -1.401,1.35 1.951,1.9 -9.05,9 4.15,4.25 z m 7,22.95 2.7,-2.8 -1.401,-1.4 -2.75,2.8 -25.75,-25.75 -9.299,1.05 -2.8,2.75 1.05,1.1 2.6,-2.5 25.75,25.75 z m -21.1,12.15 1.5,-13.75 -2.5,2.55 -1.4,13.65 z m -10.05,-6.5 1.4,-1.45 -2.201,-2.2 8.701,-8.65 -4.201,-4.2 -4.849,4.85 -1.05,9.45 z m 15.1,119.85 -2.401,2.45 -1.449,13.15 2.449,-2.4 z m 3.4,25 5.65,-5.6 0.799,-8.7 -2.199,-2.2 -1.301,1.35 1.951,1.95 -9.05,9.05 z m 5.449,3.3 14.451,-1.6 2.4,-2.45 -14.4,1.65 z m 5.701,12.6 -25.75,-25.75 -9.25,1.05 -2.8,2.75 1.05,1.1 2.5,-2.5 25.75,25.75 9.95,-1 2.75,-2.8 -1.401,-1.4 z m -30.8,-12.9 -13.151,1.45 -2.449,2.4 13.1,-1.3 z m 2.55,18.5 -2.201,-2.15 8.601,-8.7 -4.15,-4.15 -4.85,4.9 -1,9.35 2.2,2.2 z m 8.6,8 1.55,-13.8 -2.5,2.55 -1.45,13.65 z m -162.7,-54.5 -2.4,2.45 -1.451,13.15 2.451,-2.4 z M 54.399,449.1 67.45,447.7 70,445.2 56.85,446.65 Z m 40.701,-3.65 14.299,-1.6 2.451,-2.45 -14.3,1.65 z m 5.7,12.6 -25.75,-25.75 -9.3,1.05 -2.75,2.8 1.05,1.1 2.5,-2.55 25.75,25.75 9.9,-1 2.8,-2.7 -1.4,-1.45 z m -26,-9.45 -4.85,4.85 -1.051,9.45 2.151,2.2 1.45,-1.45 -2.2,-2.15 8.65,-8.7 z m 14.849,-6.4 5.551,-5.65 0.9,-8.7 -2.201,-2.2 -1.349,1.35 1.95,1.9 -9,9.1 z m -8.5,29.45 1.551,-13.75 -2.551,2.5 -1.399,13.65 z m 87.601,42.6 1.399,-13.2 -2.399,2.45 -1.45,13.15 z m 4.8,11.85 5.55,-5.65 0.9,-8.7 -2.2,-2.2 -1.35,1.35 1.949,1.95 -9,9.1 z m 19.8,1.65 2.45,-2.4 -14.35,1.6 -2.45,2.4 z m -55.05,5.25 13.05,-1.4 2.549,-2.5 -13.149,1.45 z m 47.849,10.35 2.75,-2.7 -1.399,-1.45 -2.8,2.75 -25.75,-25.75 -9.301,1.05 -2.75,2.8 1.051,1.1 2.5,-2.55 25.75,25.75 z m -23.5,14.6 2.401,-2.4 1.55,-13.75 -2.55,2.5 z m 0.201,-21.25 -4.15,-4.15 -4.85,4.9 -1.05,9.35 2.15,2.2 1.449,-1.4 -2.199,-2.2 z m 4.95,134.6 -1.45,13.15 2.45,-2.4 1.4,-13.2 z m -85.401,-70.75 2.451,-2.4 1.4,-13.2 -2.4,2.45 z m 7.25,9.45 5.551,-5.65 0.9,-8.7 -2.201,-2.2 -1.349,1.35 1.95,1.95 -9,9.1 z m 5.451,3.25 14.35,-1.6 2.449,-2.4 -14.349,1.6 z m -28.55,-10.75 25.75,25.8 9.9,-1.05 2.8,-2.7 -1.4,-1.45 -2.8,2.75 -25.75,-25.75 -9.3,1.05 -2.75,2.8 1.05,1.1 z m 4.5,30.4 1.45,-1.4 -2.2,-2.2 8.65,-8.7 -4.15,-4.15 -4.85,4.9 -1.051,9.35 z m -16.651,-16 13.051,-1.4 2.55,-2.45 -13.15,1.4 z m 26.75,22.55 1.551,-13.75 -2.551,2.5 -1.399,13.65 z M 56.85,782.25 54.399,784.7 67.5,783.3 70,780.85 Z M 84.899,766 86.3,752.8 l -2.401,2.45 -1.449,13.2 z m 10.201,15.15 14.35,-1.7 2.449,-2.4 -14.349,1.65 z m 1,-17.65 -2.201,-2.2 -1.349,1.3 1.95,1.95 -9.05,9.1 4.199,4.15 5.651,-5.65 z m 97.25,-67.95 2.45,-2.4 -14.35,1.6 -2.45,2.4 z m -19.75,-1.65 5.6,-5.65 0.8,-8.7 -2.2,-2.2 -1.35,1.35 1.949,1.95 -9,9.1 z m -17.201,21.5 -2.149,-2.2 8.649,-8.7 -4.199,-4.15 -4.85,4.9 -1,9.35 2.1,2.2 z m 8.651,7.95 1.55,-13.7 -2.55,2.45 -1.401,13.65 z m -18.151,-35.45 1.051,1.1 2.5,-2.55 25.75,25.75 9.949,-1.05 2.75,-2.7 -1.399,-1.45 -2.8,2.75 -25.75,-25.75 -9.301,1.1 z m 4.5,11.5 2.551,-2.45 -13.15,1.4 -2.45,2.45 z M 262.3,596.75 l -9,9.1 4.2,4.15 5.6,-5.65 0.799,-8.7 -2.199,-2.2 -1.35,1.35 z m -9.6,1.4 1.449,-13.2 -2.449,2.45 -1.45,13.15 z m -14.551,31.15 8.701,-8.7 -4.25,-4.15 -4.85,4.9 -1,9.35 2.149,2.2 1.401,-1.4 z m 24.75,-16.05 14.351,-1.6 2.45,-2.4 -14.35,1.6 z M 230.8,604 l 1.05,1.05 2.5,-2.55 25.75,25.8 9.95,-1.05 2.75,-2.7 -1.401,-1.45 -2.799,2.75 -25.75,-25.75 -9.3,1.1 z m -8.55,12.9 13.05,-1.4 2.55,-2.45 -13.15,1.4 z m 26.7,22.55 1.55,-13.75 -2.55,2.5 -1.4,13.65 z m -11.1,141.45 -13.15,1.4 -2.45,2.45 13.05,-1.35 z m 14.85,-14.9 1.449,-13.2 -2.449,2.45 -1.45,13.2 z m 11.199,-2.55 -2.099,-2.2 -1.401,1.35 1.901,1.95 -9,9.1 4.2,4.2 5.6,-5.6 z m 15.801,13.65 -14.35,1.55 -2.451,2.4 14.351,-1.55 z m -6.801,15.25 -1.449,-1.45 -2.801,2.75 -25.799,-25.75 -9.3,1.1 -2.75,2.8 1.05,1.1 2.5,-2.55 25.85,25.75 9.9,-1.05 z m -24.949,3.65 -1.35,13.65 2.4,-2.4 1.5,-13.7 z m -9,4.7 1.4,-1.4 -2.201,-2.15 8.701,-8.65 -4.25,-4.25 -4.85,4.9 -1,9.4 z m 24.15,139.35 0.9,-8.75 -2.2,-2.15 -1.401,1.35 1.901,1.9 -9.05,9.05 4.2,4.2 z m -25.3,8.65 -13.151,1.4 -2.449,2.45 13.1,-1.35 z m 14.9,-14.85 1.449,-13.15 -2.449,2.4 -1.45,13.2 z m -3.7,41.3 1.5,-13.8 -2.5,2.5 -1.4,13.75 z m -10.851,-10.2 8.701,-8.6 -4.25,-4.2 -4.85,4.85 -1,9.4 2.2,2.15 1.4,-1.4 z m 30.5,-3.4 -25.75,-25.8 -9.349,1.1 -2.8,2.75 1.1,1.15 2.6,-2.5 25.75,25.75 9.9,-1 2.7,-2.8 -1.401,-1.4 z m 11.051,-16.65 -14.301,1.6 -2.449,2.45 14.3,-1.6 z m -128.301,-77.6 2.5,-2.5 -13.149,1.4 -2.45,2.45 z m 25.101,-20.8 1.899,1.95 -9.049,9.1 4.2,4.2 5.65,-5.6 0.8,-8.75 -2.101,-2.2 z m -8.7,-7.3 -1.45,13.2 2.45,-2.45 1.4,-13.15 z m 16.95,38.4 -25.8,-25.75 -9.301,1.05 -2.799,2.8 1.049,1.1 2.551,-2.5 25.85,25.75 9.9,-1 2.699,-2.8 -1.399,-1.45 z m 8.6,-14.15 2.45,-2.45 -14.35,1.6 -2.45,2.45 z M 100.8,793.7 75.05,767.95 l -9.3,1.05 -2.8,2.8 1.05,1.1 2.55,-2.5 25.75,25.75 9.9,-1 2.75,-2.8 -1.4,-1.45 z m -20.651,2.3 -1.399,13.75 2.399,-2.45 1.5,-13.75 z m -11.199,2.5 2.1,2.2 1.45,-1.4 -2.15,-2.2 8.65,-8.6 -4.2,-4.15 -4.85,4.85 z m -12.1,151.6 -2.451,2.45 13.101,-1.3 2.5,-2.55 z m 40.65,-3.6 -2.45,2.45 14.4,-1.6 2.449,-2.45 z m -22.75,5.65 -4.851,4.85 -0.949,9.4 2.199,2.1 1.401,-1.4 -2.2,-2.15 8.6,-8.6 z m 14.899,-6.5 5.651,-5.6 0.75,-8.75 -2.151,-2.2 -1.299,1.3 1.9,2 -9.05,9.05 z m -4.799,-11.8 1.45,-13.15 -2.401,2.4 -1.5,13.2 z m -6.1,43.7 2.399,-2.45 1.5,-13.75 -2.5,2.55 z M 100.8,961.5 75,935.75 l -9.25,1.1 -2.8,2.75 1.05,1.1 2.55,-2.5 25.8,25.75 9.85,-1 2.8,-2.8 -1.4,-1.45 z m 64.3,-70.3 1.45,-13.75 -2.5,2.45 -1.35,13.75 z m -8.65,-8 -2.2,-2.15 8.649,-8.6 -4.199,-4.2 -4.85,4.85 -1,9.35 2.2,2.15 z m 22.55,149.65 14.35,-1.6 2.45,-2.45 -14.35,1.6 z m -10.25,-15.1 1.45,-13.15 -2.4,2.4 -1.5,13.2 z m 9.05,-4.7 -1.3,1.35 1.899,1.9 -9.049,9.05 4.2,4.2 5.65,-5.6 0.8,-8.75 z m -39.5,23.4 13.099,-1.3 2.5,-2.55 -13.149,1.4 z m 47.849,10.45 2.75,-2.8 -1.399,-1.4 -2.8,2.75 -25.75,-25.8 -9.301,1.1 -2.799,2.75 1.1,1.15 2.55,-2.5 25.8,25.75 z m -31.899,1.95 8.6,-8.6 -4.201,-4.2 -4.849,4.85 -0.95,9.4 2.2,2.15 1.4,-1.4 z m 10.8,10.2 1.55,-13.8 -2.5,2.55 -1.451,13.7 z m -78.8,29.45 -2.4,2.4 -1.451,13.2 2.451,-2.45 z m 3.399,24.95 5.651,-5.55 0.8,-8.8 -2.201,-2.1 -1.299,1.35 1.9,1.9 -9.05,9 z m 22.25,-0.7 -14.349,1.55 -2.45,2.45 14.35,-1.55 z m -57.5,7.6 13.101,-1.3 2.5,-2.55 -13.15,1.4 z m 15.951,12.45 8.6,-8.65 -4.2,-4.2 -4.851,4.85 -0.949,9.45 2.199,2.2 1.401,-1.45 z m 31.85,-2 2.8,-2.8 -1.4,-1.4 -2.8,2.75 -25.75,-25.8 -9.3,1.15 -2.8,2.7 1.1,1.15 2.5,-2.5 25.75,25.75 z m -21.051,12.15 1.551,-13.8 -2.5,2.55 -1.45,13.7 z m 170.551,-52.05 -1.5,13.2 2.449,-2.45 1.5,-13.15 z m 11.4,16.95 0.799,-8.7 -2.199,-2.15 -1.301,1.3 1.951,1.9 -9.05,9.05 4.15,4.2 z m -40.9,12.5 13.1,-1.3 2.5,-2.55 -13.151,1.4 z m 47.85,10.45 2.75,-2.8 -1.401,-1.4 -2.799,2.75 -25.75,-25.75 -9.3,1.05 -2.8,2.75 1.1,1.15 2.6,-2.5 25.75,25.75 z m -21.1,12.15 1.55,-13.75 -2.5,2.55 -1.45,13.65 z m -8.6,-8 -2.201,-2.2 8.601,-8.6 -4.15,-4.2 -4.85,4.85 -1,9.4 2.2,2.2 z m 39.35,-22.25 -14.35,1.65 -2.451,2.45 14.351,-1.65 z m -28.051,146.05 -1.449,13.15 2.449,-2.45 1.401,-13.15 z m 10.051,6.05 -1.301,1.35 1.951,1.95 -9.05,9 4.15,4.2 5.65,-5.6 0.799,-8.7 z m 9.699,29.6 -2.799,2.8 -25.75,-25.75 -9.25,1.1 -2.8,2.75 1.05,1.05 2.5,-2.5 25.75,25.75 9.95,-1 2.75,-2.8 z m -34.649,7.65 2.2,2.2 1.4,-1.45 -2.201,-2.2 8.601,-8.65 -4.15,-4.15 -4.85,4.85 z m 12.2,8.7 1.55,-13.75 -2.5,2.55 -1.45,13.65 z m -26.75,-22.6 13.1,-1.3 2.5,-2.55 -13.151,1.45 z m 57.5,-7.6 -14.35,1.6 -2.451,2.45 14.351,-1.6 z M 179,1200.7 l 14.35,-1.6 2.45,-2.45 -14.35,1.6 z m -10.25,-15.15 1.399,-13.15 -2.399,2.45 -1.45,13.15 z m 4.8,11.85 5.65,-5.6 0.8,-8.75 -2.2,-2.15 -1.3,1.35 1.95,1.9 -9.051,9 z m -6.95,15.7 -2.5,2.55 -1.451,13.65 2.401,-2.45 z m -10.15,5.8 -2.2,-2.2 8.6,-8.65 -4.15,-4.2 -4.85,4.85 -1,9.45 2.2,2.2 z m -9.6,-27.6 1.1,1.15 2.5,-2.5 25.75,25.75 9.949,-1 2.75,-2.8 -1.399,-1.4 -2.8,2.8 -25.75,-25.75 -9.301,1.05 z m -8.55,12.95 13.099,-1.3 2.5,-2.55 -13.149,1.45 z m -55.901,67.65 2.451,-2.45 1.4,-13.15 -2.4,2.45 z m 11.5,-7.1 -1.349,1.35 1.95,1.9 -9,9.05 4.149,4.25 5.551,-5.65 0.9,-8.7 z m 1.201,19.8 14.299,-1.6 2.451,-2.45 -14.3,1.6 z m 5.7,12.6 -25.75,-25.75 -9.401,1.05 -2.699,2.7 1.1,1.15 2.5,-2.5 25.75,25.75 9.9,-1 2.8,-2.8 -1.4,-1.4 z m -19.651,13.55 1.551,-13.75 -2.551,2.55 -1.399,13.65 z m -26.75,-22.6 13.051,-1.3 2.55,-2.55 -13.15,1.45 z m 15.901,12.45 8.65,-8.65 -4.15,-4.2 -4.85,4.85 -1.051,9.45 2.151,2.2 1.45,-1.45 z m 68,71.45 13.05,-1.3 2.549,-2.55 -13.149,1.45 z m 35.25,-6.8 5.55,-5.65 0.9,-8.7 -2.2,-2.2 -1.35,1.35 1.949,1.95 -9,9.1 z m -4.8,-11.9 1.399,-13.15 -2.399,2.45 -1.45,13.15 z m 24.55,13.55 2.45,-2.45 -14.3,1.6 -2.45,2.45 z m -8.6,14.2 -25.75,-25.75 -9.301,1.1 -2.75,2.75 1.051,1.05 2.5,-2.5 25.75,25.75 9.949,-1 2.75,-2.8 -1.399,-1.4 z m -19.65,13.55 1.55,-13.75 -2.55,2.55 -1.401,13.65 z m -8.651,-7.95 -2.199,-2.2 8.65,-8.65 -4.15,-4.15 -4.85,4.85 -1.05,9.4 2.15,2.2 z M 54.35,1456 l 13.1,-1.35 2.55,-2.5 -13.25,1.45 z m 43.2,-6.05 -2.45,2.45 14.299,-1.6 2.451,-2.45 z m -7.95,-0.8 5.6,-5.65 0.9,-8.7 -2.201,-2.2 -1.349,1.35 1.95,1.95 -9.05,9.1 z m -4.75,-11.9 1.4,-13.15 -2.4,2.45 -1.451,13.15 z m -10.05,18.35 -4.85,4.85 -1.051,9.4 2.151,2.2 1.45,-1.45 -2.2,-2.15 8.65,-8.7 z m 26,9.4 -25.75,-25.75 -9.3,1.1 -2.75,2.8 1.05,1.05 2.5,-2.55 25.75,25.75 9.9,-1 2.8,-2.7 -1.4,-1.45 z m -19.651,13.55 1.551,-13.7 -2.551,2.5 -1.399,13.65 z m 89.051,29.5 -2.4,2.45 -1.45,13.15 2.45,-2.4 z m -31.9,31.95 13.099,-1.4 2.551,-2.45 -13.2,1.4 z m 46.4,8.9 -25.75,-25.75 -9.301,1.1 -2.75,2.8 1.051,1.05 2.5,-2.55 25.75,25.75 9.949,-1 2.75,-2.7 -1.399,-1.45 z m -5.7,-12.6 14.35,-1.55 2.45,-2.4 -14.35,1.5 z m -5.45,-3.2 5.65,-5.65 0.8,-8.75 -2.2,-2.2 -1.35,1.35 1.949,1.95 -9.049,9.1 z m -19.3,19.3 8.649,-8.7 -4.199,-4.2 -4.85,4.9 -1,9.4 2.1,2.15 1.449,-1.45 z m 10.8,10.05 1.55,-13.7 -2.55,2.5 -1.401,13.65 z m 97.849,-110.05 14.351,-1.55 2.45,-2.4 -14.35,1.5 z m -25.049,-0.25 -13.15,1.45 -2.45,2.4 13.05,-1.3 z m 23.85,-19.55 -1.35,1.35 1.95,1.95 -9,9.1 4.2,4.2 5.6,-5.65 0.799,-8.75 z m -9,4.75 1.449,-13.2 -2.449,2.45 -1.45,13.15 z m -12.4,33.25 -2.151,-2.1 8.701,-8.7 -4.25,-4.2 -4.85,4.85 -1,9.45 2.149,2.15 z m 28.3,-5.6 -25.75,-25.75 -9.3,1.1 -2.75,2.75 1.05,1.05 2.5,-2.5 25.75,25.75 9.95,-1 2.75,-2.8 -1.401,-1.4 z m -19.65,13.55 1.55,-13.75 -2.55,2.55 -1.4,13.65 z m -262.85,-613.8 -13.15,1.4 -2.45,2.45 13.1,-1.3 z m 15.45,-7.2 4.2,4.15 5.649,-5.65 0.75,-8.65 -2.199,-2.2 -1.301,1.3 1.951,1.95 z m -0.6,-7.65 1.449,-13.15 -2.399,2.4 -1.5,13.2 z m 15.9,27.7 -25.75,-25.75 -9.25,1.05 -2.8,2.8 1.05,1.1 2.549,-2.5 25.75,25.75 9.851,-1 2.8,-2.8 -1.401,-1.45 z M 28,860.95 l -14.45,1.65 -2.401,2.45 14.401,-1.7 z m -95.05,-67.25 -25.75,-25.75 -9.25,1 -2.801,2.8 1.051,1.15 2.55,-2.5 25.75,25.75 9.85,-1 2.799,-2.8 -1.449,-1.45 z m -20.6,2.4 -1.5,13.65 2.45,-2.45 1.55,-13.75 z m -11.3,2.4 2.2,2.2 1.45,-1.4 -2.2,-2.2 8.6,-8.6 -4.15,-4.15 -4.85,4.85 z m -14.45,154 13.1,-1.3 2.5,-2.55 -13.15,1.4 z m 15.95,12.45 8.599,-8.65 -4.199,-4.15 -4.85,4.85 -0.951,9.4 2.101,2.15 1.45,-1.4 z m 24.95,-24.9 0.75,-8.75 -2.2,-2.2 -1.3,1.4 1.95,1.95 -9.051,9 4.201,4.15 z m -10.45,-6.25 1.4,-13.15 -2.45,2.4 -1.4,13.2 z m 10.2,15.15 14.399,-1.6 2.451,-2.45 -14.451,1.6 z m -16.4,28.6 2.45,-2.45 1.55,-13.75 -2.5,2.55 z m 22.1,-16.05 -25.75,-25.75 -9.25,1.15 -2.801,2.7 1.051,1.1 2.5,-2.5 25.75,25.75 9.9,-1 2.799,-2.8 -1.449,-1.45 z m 64.25,-70.3 1.55,-13.75 -2.5,2.55 -1.5,13.65 z m -8.6,-8 -2.15,-2.2 8.6,-8.6 -4.2,-4.15 -4.85,4.85 -0.95,9.3 2.099,2.2 z m -170.35,-18.45 -13.2,1.4 -2.4,2.45 13.1,-1.3 z m 14.8,-14.85 1.45,-13.15 -2.45,2.4 -1.4,13.2 z m 11.3,-2.5 -2.201,-2.2 -1.299,1.4 1.95,1.95 -9.1,9 4.199,4.15 5.601,-5.55 z m 7.45,27.4 -2.75,2.8 -25.75,-25.75 -9.3,1.05 -2.75,2.75 1.05,1.15 2.5,-2.5 25.75,25.75 9.9,-1 2.8,-2.8 z m 8.4,-13.8 -14.45,1.6 -2.4,2.45 14.4,-1.6 z m -93.65,-65.85 2.8,-2.8 -1.45,-1.45 -2.75,2.8 -25.75,-25.75 -9.3,1.05 -2.75,2.75 1.05,1.15 2.5,-2.5 25.75,25.75 z m -22,0.95 -1.5,13.65 2.45,-2.45 1.55,-13.75 z m -9.85,1.05 8.6,-8.65 -4.15,-4.25 -4.9,4.9 -1,9.4 2.2,2.2 1.45,-1.4 z m 15.9,123.5 -2.45,2.4 -1.4,13.2 2.4,-2.45 z m -31.85,31.85 13.05,-1.3 2.55,-2.55 -13.2,1.4 z m 16.65,16.05 1.45,-1.4 -2.2,-2.2 8.65,-8.65 -4.15,-4.15 -4.9,4.85 -1.05,9.4 z m 9.1,-4.65 -1.45,13.65 2.45,-2.45 1.55,-13.75 z m 15.05,-23.85 0.9,-8.75 -2.2,-2.2 -1.35,1.4 1.95,1.95 -9.05,9.05 4.15,4.15 z m -0.1,8.9 14.35,-1.6 2.45,-2.45 -14.4,1.6 z m 7.1,14 2.8,-2.8 -1.45,-1.45 -2.75,2.8 -25.75,-25.75 -9.35,1.1 -2.7,2.7 1.05,1.15 2.5,-2.5 25.75,25.75 z m 62.85,-71.75 1.55,-13.75 -2.5,2.55 -1.5,13.65 z m -8.6,-7.95 -2.2,-2.2 8.6,-8.65 -4.15,-4.15 -4.85,4.85 -1.05,9.35 2.2,2.2 z m 12.35,134.45 1.4,-13.15 -2.45,2.4 -1.4,13.2 z m 4.8,11.85 5.55,-5.6 0.85,-8.75 -2.201,-2.2 -1.349,1.4 1.95,1.95 -9.05,9.05 z m 22.199,-0.75 -14.399,1.6 -2.4,2.45 14.35,-1.6 z m -41.949,12.1 -1.05,9.4 2.15,2.15 1.45,-1.4 -2.15,-2.2 8.65,-8.65 -4.2,-4.15 z m -15.5,-4.5 13.05,-1.3 2.55,-2.55 -13.2,1.4 z m 26.7,22.6 1.55,-13.75 -2.55,2.55 -1.45,13.65 z m 22.4,-16.4 -2.75,2.8 -25.75,-25.75 -9.35,1.15 -2.7,2.7 1.05,1.1 2.5,-2.5 25.75,25.75 9.9,-1 2.8,-2.8 z m -97.85,70.85 5.65,-5.6 0.85,-8.75 -2.2,-2.2 -1.35,1.4 1.95,1.95 -9.1,9.05 z m 22.3,-0.75 -14.4,1.6 -2.4,2.45 14.35,-1.6 z m -29.45,-8.65 2.45,-2.45 1.4,-13.15 -2.45,2.4 z m -12.4,12.45 -13.25,1.4 -2.4,2.45 13.1,-1.35 z m 8.65,28.85 2.45,-2.45 1.55,-13.7 -2.55,2.5 z m -8.35,-12.6 8.65,-8.65 -4.2,-4.15 -4.9,4.85 -1,9.4 2.15,2.2 1.45,-1.45 z m 31.85,-2 2.8,-2.75 -1.45,-1.4 -2.75,2.7 -25.75,-25.75 -9.35,1.15 -2.7,2.8 1.05,1.05 2.5,-2.55 25.75,25.75 z M 11.399,1024 l 0.75,-8.8 -2.149,-2.2 -1.3,1.4 1.9,1.95 -9.05,9 4.2,4.2 z m -10.449,-6.25 1.4,-13.15 -2.4,2.4 -1.45,13.2 z m 12.6,12.65 -2.401,2.45 14.401,-1.55 2.45,-2.45 z m -28.5,19.95 2.2,2.1 1.399,-1.4 -2.199,-2.15 8.6,-8.65 -4.2,-4.2 -4.85,4.85 z m 1.05,-17.75 -13.15,1.4 -2.45,2.45 13.1,-1.3 z m 30.799,12.8 -25.799,-25.75 -9.25,1.15 -2.8,2.7 1.05,1.1 2.5,-2.5 25.799,25.75 9.901,-1 2.8,-2.8 -1.4,-1.45 z m -19.649,13.6 1.5,-13.75 -2.5,2.55 -1.45,13.65 z m -78.8,29.5 -2.45,2.4 -1.4,13.2 2.45,-2.45 z m 3.4,25.05 5.549,-5.65 0.851,-8.8 -2.15,-2.2 -1.35,1.4 1.899,1.95 -9,9.05 z m 22.2,-0.8 -14.401,1.55 -2.399,2.45 14.35,-1.55 z m -41.85,3.75 -13.15,1.4 -2.45,2.45 13.049,-1.3 z m 2.5,18.45 -2.2,-2.15 8.649,-8.65 -4.199,-4.2 -4.85,4.85 -1.05,9.45 2.2,2.15 z m 29.699,-4.2 2.801,-2.8 -1.4,-1.4 -2.8,2.75 -25.8,-25.75 -9.35,1.15 -2.701,2.7 1.051,1.1 2.5,-2.5 25.8,25.75 z m -21.049,12.15 1.5,-13.75 -2.55,2.55 -1.401,13.65 z m -246.65,-306.15 -2.45,2.4 -1.4,13.2 2.4,-2.45 z m -16.25,28 -13.2,1.4 -2.4,2.45 13.05,-1.3 z m 24.5,-16.3 -9.05,9.1 4.15,4.2 5.6,-5.6 0.9,-8.75 -2.2,-2.2 -1.35,1.4 z m 6.3,29.15 -25.75,-25.75 -9.35,1.05 -2.7,2.75 1.05,1.15 2.5,-2.5 25.75,25.75 9.9,-1 2.8,-2.8 -1.45,-1.45 z m 11,-16.6 -14.3,1.6 -2.4,2.45 14.3,-1.6 z m -90.7,-68.65 -1.45,-1.45 -2.75,2.8 -25.8,-25.8 -9.35,1.1 -2.75,2.75 1.15,1.05 2.5,-2.45 25.75,25.8 9.9,-1 z m -24.85,3.65 -1.45,13.75 2.45,-2.45 1.55,-13.85 z m -11.3,2.55 2.2,2.2 1.4,-1.4 -2.15,-2.2 8.65,-8.65 -4.2,-4.25 -4.9,4.9 z m 15.95,135.25 1.45,-13.15 -2.45,2.4 -1.4,13.2 z m 4.75,11.85 5.65,-5.6 0.9,-8.75 -2.2,-2.2 -1.35,1.4 1.95,1.9 -9.1,9.05 z m -35.25,6.9 13.15,-1.35 2.55,-2.5 -13.25,1.4 z m 16,12.4 8.65,-8.65 -4.15,-4.2 -4.9,4.85 -1.05,9.45 2.2,2.15 1.4,-1.4 z m 12.4,-3.55 -2.55,2.5 -1.45,13.65 2.45,-2.45 z m 26.7,-14.05 2.4,-2.45 -14.3,1.6 -2.4,2.45 z m -4.4,12.85 -1.45,-1.4 -2.75,2.7 -25.8,-25.75 -9.3,1.1 -2.7,2.75 1.05,1.15 2.5,-2.55 25.75,25.75 9.9,-1 z m 60.05,-69 1.55,-13.75 -2.55,2.55 -1.45,13.65 z m -8.7,-7.95 -2.15,-2.2 8.65,-8.65 -4.15,-4.25 -4.9,4.9 -1.05,9.4 2.2,2.2 z m -155.45,-33.35 1.45,-13.15 -2.45,2.4 -1.4,13.2 z m -30.5,18.75 13.15,-1.35 2.55,-2.5 -13.25,1.4 z m 41.8,-21.3 -2.2,-2.15 -1.35,1.4 1.85,1.85 -9.05,9.1 4.2,4.2 5.65,-5.6 z m -1,17.6 14.3,-1.5 2.4,-2.45 -14.3,1.55 z m 9.9,11.35 -1.45,-1.4 -2.8,2.7 -25.75,-25.8 -9.35,1.1 -2.75,2.8 1.15,1.1 2.5,-2.55 25.75,25.8 9.9,-1 z m -88.15,-82.65 -25.8,-25.75 -9.3,1.1 -2.75,2.8 1.15,1.1 2.5,-2.55 25.75,25.75 9.9,-1.05 2.8,-2.7 -1.45,-1.45 z m -18.15,-0.1 -2.55,2.45 -1.35,13.65 2.45,-2.4 z m -11.55,7.15 1.4,-1.4 -2.2,-2.15 8.7,-8.65 -4.25,-4.25 -4.85,4.9 -1,9.4 z m 24.15,139.35 0.9,-8.75 -2.2,-2.15 -1.4,1.35 1.9,1.9 -9.05,9.05 4.2,4.2 z m -10.4,-6.2 1.45,-13.2 -2.45,2.4 -1.4,13.25 z m -14.9,14.85 -10.1,1.075 v 2.2 l 7.6,-0.775 z m 0.35,16.25 8.7,-8.6 -4.25,-4.2 -4.85,4.85 -1,9.4 2.2,2.15 1.4,-1.4 z m 9.85,-1.1 -1.4,13.75 2.45,-2.45 1.45,-13.8 z m 17.4,-17.35 -2.45,2.45 14.3,-1.6 2.45,-2.45 z m 3.25,15.05 -25.75,-25.8 -9.35,1.1 -2.8,2.75 1.15,1.1 2.55,-2.55 25.75,25.8 9.9,-0.95 2.7,-2.8 -1.4,-1.4 z m 64.3,-70.35 1.55,-13.75 -2.6,2.45 -1.4,13.75 z m -8.7,-7.95 -2.2,-2.2 8.7,-8.65 -4.25,-4.25 -4.85,4.9 -1,9.4 2.2,2.2 z m 39.35,145.55 -14.3,1.65 -2.4,2.45 14.3,-1.65 z m -29.4,-8.6 2.4,-2.45 1.45,-13.2 -2.45,2.4 z m 7.15,9.35 5.65,-5.6 0.9,-8.7 -2.2,-2.2 -1.35,1.35 1.95,1.9 -9.1,9.05 z m -18.5,22.9 1.4,-1.4 -2.2,-2.2 8.7,-8.6 -4.15,-4.2 -4.9,4.85 -1.05,9.4 z m -14.3,-18.45 -2.45,2.45 13.15,-1.35 2.45,-2.5 z m 24.4,25.05 1.45,-13.75 -2.5,2.5 -1.4,13.7 z m 19.6,-13.6 -25.75,-25.75 -9.3,1.05 -2.8,2.75 1.1,1.15 2.55,-2.55 25.75,25.75 9.9,-0.95 2.75,-2.8 -1.45,-1.4 z m -87.2,68.9 -2.45,2.45 14.35,-1.65 2.45,-2.45 z m -13.7,-23.45 -1.45,13.2 2.45,-2.45 1.4,-13.15 z m -19.75,17.65 2.45,-2.5 25.8,25.75 9.9,-1 2.75,-2.8 -1.4,-1.4 -2.8,2.75 -25.75,-25.75 -9.25,1.05 -2.8,2.75 z m -4.2,9.025 v 2.2 l 7.6,-0.775 2.5,-2.5 z m 29.75,-4.125 5.65,-5.6 0.8,-8.7 -2.15,-2.15 -1.35,1.3 2,1.9 -9.1,9.05 z m -8.5,29.5 1.55,-13.75 -2.5,2.5 -1.45,13.7 z m -10.8,-10.2 8.65,-8.6 -4.2,-4.2 -4.85,4.85 -1,9.4 2.2,2.2 1.4,-1.45 z m 276.65,-108.8 0.9,-8.75 -2.2,-2.2 -1.35,1.4 1.95,1.95 -9.1,9.05 4.15,4.15 z m 16.65,4.85 -14.35,1.6 -2.4,2.45 14.35,-1.6 z m -27.05,-11.1 1.45,-13.15 -2.45,2.4 -1.4,13.2 z m -14.5,31.15 8.65,-8.65 -4.15,-4.15 -4.9,4.85 -1.05,9.4 2.2,2.15 1.4,-1.4 z m -16,-12.4 13.15,-1.35 2.55,-2.5 -13.25,1.4 z m 26.85,22.55 1.55,-13.7 -2.55,2.5 -1.45,13.65 z m 19.65,-13.6 -25.75,-25.75 -9.35,1.1 -2.7,2.75 1.05,1.15 2.5,-2.55 25.75,25.75 9.9,-1 2.8,-2.75 -1.45,-1.4 z m -75.25,69.75 2.4,-2.45 -14.35,1.65 -2.4,2.45 z m -24.65,-13.5 1.45,-13.2 -2.45,2.4 -1.4,13.25 z m -28.05,16.25 -2.45,2.45 13.15,-1.35 2.45,-2.5 z m 32.8,-4.45 5.65,-5.6 0.9,-8.7 -2.2,-2.15 -1.35,1.3 1.95,1.95 -9.1,9.05 z m -19.25,19.3 8.65,-8.6 -4.15,-4.15 -4.9,4.85 -1.05,9.35 2.2,2.2 1.4,-1.45 z m 10.85,10.2 1.45,-13.75 -2.45,2.5 -1.45,13.7 z m 21.05,-12.15 2.75,-2.8 -1.45,-1.4 -2.7,2.75 -25.8,-25.75 -9.3,1.05 -2.8,2.75 1.1,1.15 2.55,-2.55 25.75,25.75 z m 76.95,60.95 0.85,-8.7 -2.2,-2.15 -1.35,1.3 1.95,1.95 -9.1,9.05 4.2,4.2 z m -0.15,8.95 14.35,-1.65 2.4,-2.45 -14.35,1.65 z m -10.2,-15.15 1.4,-13.2 -2.45,2.4 -1.4,13.25 z m -18.35,4.35 25.75,25.75 9.9,-0.95 2.75,-2.8 -1.45,-1.4 -2.7,2.8 -25.75,-25.75 -9.35,1.05 -2.8,2.8 1.1,1.05 z m -12.15,14.35 13.1,-1.35 2.5,-2.5 -13.2,1.45 z m 16.65,16.05 1.4,-1.45 -2.1,-2.2 8.65,-8.6 -4.2,-4.15 -4.9,4.85 -1,9.35 z m 10.1,6.55 1.45,-13.75 -2.45,2.5 -1.45,13.7 z m -81.25,31.9 -1.4,13.15 2.4,-2.45 1.45,-13.15 z m 8.75,7.35 1.95,1.95 -9.1,9.05 4.2,4.2 5.65,-5.65 0.8,-8.65 -2.2,-2.2 z m 16.9,16.85 2.4,-2.45 -14.4,1.65 -2.45,2.45 z m -7.3,15.65 2.8,-2.8 -1.45,-1.4 -2.8,2.8 -25.75,-25.75 -9.25,1.05 -2.8,2.8 1.1,1.05 2.5,-2.5 25.75,25.75 z m -33.25,3.4 2.15,2.2 1.4,-1.45 -2.1,-2.2 8.6,-8.6 -4.2,-4.15 -4.9,4.85 z m -1.4,-15.2 2.5,-2.5 -13.2,1.45 -2.45,2.4 z m 13.6,23.95 1.5,-13.75 -2.45,2.5 -1.5,13.7 z m 72.8,57.5 -13.2,1.45 -2.4,2.4 13.1,-1.35 z m 14.8,-14.8 1.45,-13.2 -2.45,2.45 -1.4,13.15 z m 10.45,6.15 0.8,-8.7 -2.15,-2.2 -1.3,1.3 1.9,1.95 -9.1,9.1 4.2,4.2 z m 16.6,4.85 -14.4,1.6 -2.45,2.45 14.45,-1.6 z m -182.2,-166.2 -2.45,2.45 14.45,-1.65 2.4,-2.45 z m -12.7,-12.7 1.45,-13.15 -2.45,2.45 -1.45,13.15 z m 4.8,11.85 5.65,-5.65 0.85,-8.7 -2.2,-2.15 -1.3,1.3 1.95,1.95 -9.1,9.05 z m -32.8,4.45 -2.45,2.4 13.15,-1.35 2.45,-2.5 z m 7.25,-9.4 2.5,-2.5 25.75,25.75 9.9,-1 2.8,-2.8 -1.45,-1.4 -2.8,2.8 -25.75,-25.75 -9.25,1 -2.8,2.75 z m 8.45,26.4 -2.2,-2.2 8.65,-8.6 -4.2,-4.15 -4.85,4.85 -1,9.35 2.2,2.2 z m 8.6,8 1.55,-13.75 -2.5,2.5 -1.45,13.7 z m -80.2,42.6 1.4,-13.15 -2.4,2.45 -1.45,13.15 z m 11.25,-2.45 -2.15,-2.2 -1.35,1.35 2,1.95 -9.1,9 4.15,4.2 5.65,-5.6 z m 4.7,30.2 -25.75,-25.75 -9.25,1.05 -2.8,2.7 1.1,1.15 2.45,-2.5 25.8,25.75 9.9,-1 2.75,-2.8 -1.4,-1.4 z m -3.25,-15.05 -2.45,2.45 14.45,-1.6 2.4,-2.45 z m -28.65,19.9 2.2,2.2 1.45,-1.45 -2.2,-2.2 8.65,-8.65 -4.2,-4.15 -4.85,4.85 z m -9,-16.625 v 2.175 l 7.55,-0.75 2.55,-2.55 z m 21.25,25.325 1.55,-13.75 -2.55,2.55 -1.4,13.65 z m 72.85,57.45 -13.2,1.45 -2.45,2.4 13.1,-1.3 z m 14.8,-14.85 1.45,-13.15 -2.45,2.45 -1.4,13.15 z m 9.05,-4.65 -1.3,1.35 1.95,1.95 -9.1,9.05 4.2,4.15 5.65,-5.6 0.8,-8.7 z m 18,15.75 -14.4,1.6 -2.45,2.45 14.45,-1.6 z m -6.9,15.25 -1.45,-1.4 -2.8,2.8 -25.75,-25.75 -9.25,1.1 -2.8,2.75 1.1,1.05 2.5,-2.5 25.75,25.75 9.9,-1 z m -22.35,1.2 -2.55,2.55 -1.4,13.65 2.4,-2.45 z m -11.6,7.25 1.45,-1.45 -2.1,-2.2 8.6,-8.65 -4.25,-4.15 -4.85,4.85 -1,9.4 z m -62.45,45.8 1.95,1.95 -9,9.05 4.2,4.15 5.6,-5.6 0.8,-8.7 -2.15,-2.2 z m -7.65,3.3 1.45,-13.15 -2.45,2.45 -1.4,13.15 z m -13.8,34.8 1.4,-1.45 -2.15,-2.15 8.7,-8.7 -4.25,-4.15 -4.85,4.85 -1,9.4 z m -11.2,-18.825 v 2.175 l 7.6,-0.75 2.6,-2.55 z m 37.65,-3.275 -2.45,2.45 14.35,-1.6 2.45,-2.45 z m 3.25,15.05 -25.75,-25.75 -9.3,1.1 -2.75,2.75 1.1,1.05 2.45,-2.5 25.8,25.75 9.9,-1 2.75,-2.8 -1.4,-1.4 z m -19.65,13.55 1.55,-13.75 -2.55,2.55 -1.4,13.65 z m 89.1,29.5 -2.45,2.45 -1.4,13.15 2.4,-2.4 z m 3.35,25 5.6,-5.6 0.85,-8.75 -2.15,-2.2 -1.35,1.35 1.85,1.95 -9,9.05 z m -32.8,4.45 -2.45,2.45 13.1,-1.35 2.55,-2.55 z m 13.45,14.9 8.7,-8.7 -4.25,-4.2 -4.85,4.9 -1,9.4 2.2,2.15 1.4,-1.45 z m 10.9,10.05 1.45,-13.75 -2.55,2.55 -1.35,13.65 z m 16.3,-28.6 -2.45,2.45 14.4,-1.55 2.4,-2.4 z m 7.55,13.65 -1.45,-1.4 -2.8,2.8 -25.8,-25.75 -9.3,1.1 -2.75,2.75 1.1,1.05 2.5,-2.5 25.8,25.75 9.9,-1 z m 165,-165 2.8,-2.8 -1.45,-1.4 -2.75,2.8 -25.85,-25.75 -9.25,1.05 -2.8,2.8 1.1,1.05 2.5,-2.5 25.8,25.75 z m -19.6,-1.6 -2.45,2.5 -1.45,13.7 2.45,-2.45 z m -11.5,7.2 1.45,-1.45 -2.2,-2.15 8.6,-8.6 -4.2,-4.2 -4.9,4.85 -0.95,9.4 z m -70.2,49.25 1.45,-13.2 -2.45,2.45 -1.4,13.15 z m -17.35,17.35 2.55,-2.55 -13.2,1.45 -2.45,2.4 z m 7.3,0.9 -4.9,4.85 -1,9.45 2.2,2.15 1.5,-1.45 -2.2,-2.1 8.6,-8.7 z m 34.7,-4.75 2.4,-2.4 -14.4,1.5 -2.45,2.45 z m -15.55,-18.25 -1.3,1.35 1.9,1.95 -9.1,9.05 4.2,4.2 5.65,-5.6 0.8,-8.75 z m 9.65,29.6 -2.75,2.8 -25.85,-25.75 -9.25,1.1 -2.8,2.75 1.1,1.05 2.5,-2.5 25.8,25.75 9.9,-1 2.8,-2.8 z m -22.4,16.35 1.45,-13.75 -2.55,2.55 -1.35,13.65 z m 89,29.5 -2.45,2.45 -1.4,13.15 2.4,-2.4 z m -31.85,31.9 13.05,-1.35 2.55,-2.55 -13.2,1.45 z m 15.95,12.45 8.6,-8.7 -4.2,-4.2 -4.9,4.9 -1,9.4 2.2,2.2 1.5,-1.4 z m 10.8,10.15 1.55,-13.85 -2.55,2.55 -1.45,13.7 z m 14.1,-35.1 0.85,-8.75 -2.2,-2.15 -1.3,1.35 1.9,1.9 -9.1,9.05 4.2,4.2 z m -0.15,8.85 14.35,-1.55 2.4,-2.4 -14.35,1.5 z m 9.9,11.3 -1.45,-1.45 -2.75,2.8 -25.75,-25.8 -9.35,1.1 -2.8,2.75 1.15,1.1 2.5,-2.45 25.75,25.75 9.9,-1.05 z m 342.5,-350.95 -14.301,1.55 -2.449,2.45 14.3,-1.55 z m -27,-11.1 1.4,-13.15 -2.4,2.45 -1.45,13.15 z m 9.6,-1.4 -9,9.05 4.2,4.25 5.55,-5.65 0.9,-8.8 -2.2,-2.1 -1.351,1.35 z m -13.3,42.7 1.55,-13.8 -2.55,2.55 -1.45,13.7 z m -14.601,-36.9 25.75,25.75 9.901,-1 2.8,-2.8 -1.4,-1.4 -2.801,2.8 -25.75,-25.85 -9.399,1.15 -2.7,2.7 1.099,1.15 z m 3.451,10.45 -13.15,1.45 -2.45,2.4 13.05,-1.3 z m 1.049,19.95 1.451,-1.45 -2.201,-2.2 8.651,-8.65 -4.2,-4.2 -4.85,4.85 -1.05,9.45 z m -70.099,49.1 1.4,-13.15 -2.45,2.45 -1.4,13.15 z m 11.25,-2.55 -2.2,-2.1 -1.35,1.35 1.899,1.9 -9.099,9.05 4.25,4.25 5.599,-5.65 z m 4.7,30.3 -25.75,-25.85 -9.4,1.15 -2.701,2.8 1.101,1.1 2.5,-2.55 25.75,25.75 9.899,-1 2.801,-2.75 -1.4,-1.4 z m -5.7,-12.65 14.3,-1.55 2.45,-2.45 -14.3,1.55 z m -13.95,26.2 1.549,-13.75 -2.549,2.5 -1.451,13.7 z m -10.85,-10.15 8.649,-8.65 -4.199,-4.2 -4.85,4.85 -1.05,9.45 2.2,2.2 1.45,-1.45 z m -15.95,-12.4 13.099,-1.35 2.551,-2.5 -13.25,1.45 z m 86.3,81.5 -2.4,2.4 13.1,-1.35 2.55,-2.5 z m 28.1,-16.35 1.4,-13.15 -2.4,2.45 -1.45,13.15 z m 4.75,11.9 5.6,-5.65 0.9,-8.7 -2.2,-2.2 -1.351,1.35 1.951,1.9 -9.05,9.1 z m 22.25,-0.8 -14.301,1.6 -2.449,2.45 14.3,-1.6 z m -194.8,-178.9 1.4,-13.15 -2.45,2.45 -1.4,13.15 z m 4.749,11.9 5.601,-5.65 0.85,-8.8 -2.15,-2.2 -1.35,1.4 1.9,1.95 -9.1,9.05 z m 5.451,3.2 14.35,-1.55 2.449,-2.45 -14.399,1.55 z m -29.4,-12.05 -2.7,2.8 1.05,1.05 2.5,-2.55 25.8,25.75 9.9,-1 2.8,-2.75 -1.401,-1.4 -2.799,2.7 -25.8,-25.75 z m -11.3,15.7 13.1,-1.35 2.55,-2.5 -13.25,1.45 z m 26.8,22.5 1.5,-13.7 -2.55,2.5 -1.4,13.65 z m -10.1,-6.5 1.45,-1.45 -2.2,-2.15 8.65,-8.65 -4.2,-4.2 -4.85,4.85 -1.05,9.45 z m -69.6,56.8 4.2,4.25 5.65,-5.65 0.85,-8.7 -2.15,-2.2 -1.35,1.3 1.9,1.95 z m 0.9,-20.8 -2.45,2.45 -1.4,13.2 2.45,-2.4 z m 8.8,28.3 14.35,-1.6 2.45,-2.45 -14.4,1.6 z m 7.15,14 2.75,-2.8 -1.45,-1.4 -2.7,2.8 -25.8,-25.75 -9.35,1.05 -2.8,2.8 1.1,1.05 2.55,-2.55 25.8,25.75 z m -33.35,3.45 2.2,2.15 1.45,-1.45 -2.2,-2.15 8.65,-8.6 -4.2,-4.2 -4.9,4.85 z m -14.5,-13.85 13.1,-1.35 2.5,-2.5 -13.2,1.45 z m 26.8,22.55 1.4,-13.75 -2.45,2.5 -1.4,13.7 z m 72.7,57.5 -13.2,1.45 -2.4,2.4 13.1,-1.35 z m 19.649,-3 5.601,-5.65 0.899,-8.7 -2.199,-2.15 -1.35,1.3 1.9,1.9 -9.1,9.1 z m -4.749,-11.8 1.4,-13.25 -2.45,2.45 -1.4,13.2 z m 26.999,11 -14.299,1.6 -2.451,2.45 14.301,-1.6 z m -8.349,13.9 -2.7,2.8 -25.75,-25.8 -9.4,1.05 -2.75,2.8 1.1,1.1 2.55,-2.55 25.75,25.75 9.9,-0.95 2.75,-2.75 z m -24.8,18.8 2.45,-2.4 1.5,-13.85 -2.5,2.5 z m -7.65,-9 1.45,-1.45 -2.2,-2.2 8.65,-8.6 -4.2,-4.2 -4.85,4.85 -1.05,9.4 z m -72.6,51.6 2.4,-2.4 1.45,-13.2 -2.45,2.45 z m -28,16.25 13.1,-1.35 2.5,-2.5 -13.2,1.45 z m 16.7,16.05 1.45,-1.45 -2.2,-2.15 8.6,-8.65 -4.2,-4.2 -4.9,4.85 -0.95,9.4 z m 40.8,-23.7 -14.4,1.6 -2.4,2.45 14.35,-1.6 z m -22.3,0.8 5.65,-5.65 0.85,-8.7 -2.2,-2.15 -1.3,1.3 1.9,1.9 -9.1,9.1 z m 12.6,17.3 2.8,-2.75 -1.45,-1.45 -2.75,2.8 -25.75,-25.8 -9.35,1.05 -2.8,2.8 1.15,1.1 2.5,-2.5 25.75,25.8 z m -21.05,12.2 1.55,-13.85 -2.5,2.5 -1.5,13.75 z m 89,29.4 -2.45,2.45 -1.4,13.15 2.4,-2.4 z m -31.85,31.9 13.1,-1.4 2.5,-2.5 -13.2,1.45 z m 15.95,12.4 8.6,-8.65 -4.15,-4.2 -4.85,4.9 -1.05,9.35 2.2,2.2 1.45,-1.45 z m 10.8,10.2 1.55,-13.8 -2.5,2.5 -1.5,13.7 z m 23.85,-14.95 -1.45,-1.45 -2.75,2.8 -25.75,-25.75 -9.35,1 -2.75,2.8 1.1,1.1 2.5,-2.45 25.75,25.75 9.9,-1.05 z m -9.75,-20.2 0.85,-8.65 -2.201,-2.2 -1.299,1.3 1.95,1.9 -9.1,9.1 4.199,4.2 z m -0.15,8.95 14.35,-1.65 2.449,-2.45 -14.399,1.7 z m 173.549,-155.25 -25.75,-25.75 -9.399,1.05 -2.7,2.8 1.099,1.1 2.5,-2.55 25.75,25.75 9.901,-1 2.8,-2.7 -1.4,-1.45 z m -18.099,-0.15 -2.55,2.5 -1.45,13.65 2.45,-2.45 z m -11.651,7.2 1.451,-1.45 -2.201,-2.2 8.651,-8.65 -4.151,-4.2 -4.849,4.85 -1.1,9.45 z m -100.599,67.85 13.099,-1.35 2.5,-2.5 -13.199,1.45 z m 18.15,14.6 -2.2,-2.15 8.649,-8.65 -4.149,-4.2 -4.851,4.85 -1.099,9.4 2.2,2.2 z m 39.35,-22.25 -14.3,1.7 -2.45,2.4 14.3,-1.65 z m -27,-11 1.4,-13.25 -2.45,2.45 -1.4,13.2 z m 11.25,-2.5 -2.2,-2.2 -1.35,1.3 1.95,1.9 -9.051,9.1 4.151,4.2 5.599,-5.65 z m 4.7,30.2 -25.75,-25.75 -9.4,1 -2.75,2.8 1.1,1.1 2.55,-2.55 25.75,25.75 9.899,-0.95 2.75,-2.75 -1.449,-1.45 z m -19.65,13.6 1.5,-13.8 -2.5,2.5 -1.451,13.7 z m 89,29.35 -2.4,2.45 -1.45,13.2 2.45,-2.4 z m -16.3,28.05 -13.2,1.45 -2.4,2.45 13.1,-1.4 z m 2.55,18.45 -2.201,-2.15 8.651,-8.65 -4.151,-4.15 -4.849,4.9 -1.1,9.3 2.199,2.2 z m 32.45,-6.9 -1.401,-1.45 -2.75,2.8 -25.75,-25.75 -9.299,1.05 -2.8,2.8 1.05,1.05 2.549,-2.55 25.75,25.75 9.901,-0.95 z m 6.9,-15.35 -14.301,1.7 -2.449,2.4 14.3,-1.65 z m -16.65,-4.85 0.9,-8.65 -2.2,-2.2 -1.351,1.3 1.951,1.95 -9.05,9.1 4.15,4.15 z m -14.05,35.15 1.5,-13.8 -2.5,2.5 -1.45,13.7 z"
       style="fill:#12253c;fill-opacity:1;fill-rule:evenodd;stroke:none"
       transform="matrix(1.3333333,0,0,-1.3333333,820.9336,2101.3333)" />
  </g>
  <g
     id="layer-MC2">
    <path
       id="path3"
       d="m 0,0 -41.95,41.95 m 42,-83.9 -42,-41.949 m 42,209.75 L -41.9,83.9 M 0,167.8 -41.95,209.75 M 0,335.601 l -41.95,42 m 0,-125.851 L 0,293.7 M 0,461.5 -41.95,419.55 M 0,629.3 -41.95,587.351 M 0.05,503.45 -41.9,545.4 M 83.949,-125.95 58.774,-151.1 m -75.45,0 -25.274,25.25 m -41.95,0 -25.25,-25.25 m -75.451,0 -25.149,25.15 m -142.7,-25.15 -25.151,25.15 m -142.674,-25.15 -25.175,25.25 m -41.95,-0.1 -25.15,-25.15 m 167.775,0 25.174,25.25 m 167.901,0 -25.276,-25.25 m 428.125,0 -25.25,25.25 M -335.65,167.851 -377.601,209.8 m 41.951,419.551 -41.951,-41.951 m 41.901,-251.75 -41.95,41.951 m 42,-83.951 -42,-41.95 m 41.95,251.75 -41.95,41.95 m 0.049,-125.9 41.951,41.95 m -42,-545.349 41.95,41.949 m 0.05,41.85 -41.951,42.05 M -335.7,125.851 -377.65,83.9 m -167.8,167.8 41.95,41.95 m 83.899,-41.9 -41.949,41.95 m -125.85,-42 -41.951,41.95 M -83.9,251.7 l -41.951,42 m -41.95,-0.05 -41.949,-41.95 m -41.95,0.05 -42,41.95 M -167.801,0 -209.75,41.95 m 41.949,-83.9 -41.949,-41.949 m -0.101,167.799 42.05,41.951 m 0,41.949 -41.949,42 M -83.851,41.95 -125.851,0 M -83.9,-83.899 -125.851,-41.95 M -293.75,0 -251.8,41.95 m 0.1,-125.95 -42,41.95 m 42,125.95 -42,42 m 42,83.85 -42.05,-41.95 m 209.85,-83.9 -41.951,41.951 m 0,41.949 41.951,41.95 m -419.6,-41.95 -41.95,41.95 M -503.45,0 -545.4,41.95 m 41.9,83.901 L -545.45,83.9 M -503.5,-41.95 -545.45,-84 M -419.601,41.95 -461.55,0 m 42,-84 -41.95,42.05 m -125.9,83.9 -41.951,-42.05 m 41.951,-83.799 -41.951,41.949 m -41.949,-0.1 -2.1,-2.099 M -671.351,0 -673.4,2.05 m 86,81.85 -41.951,41.951 m 0,41.949 41.951,41.95 m -86,-86 2.1,2.101 m 0,41.949 -2.1,2.1 m 253.85,-86 -41.95,41.951 m 41.899,83.899 -41.949,-41.95 m -41.95,461.5 -41.95,-41.949 m 41.95,-83.901 -41.95,41.95 m 41.95,-209.75 -41.95,41.951 m 42,83.899 -42,-41.95 m 125.849,0 -41.949,41.95 m -125.85,-41.95 -41.951,41.95 m 167.801,-125.899 42,41.949 m -167.85,0.051 -41.951,-41.951 m -41.949,-41.95 -2.1,-2.099 m 2.1,44 -2.1,2.099 m 86,249.651 -41.951,41.949 m 41.951,-83.9 -42,-41.95 m -41.9,0 -2.1,2.1 m 2.049,-44.05 -2.049,-2.05 m 2.1,169.85 -2.1,-2.1 m 253.799,-39.849 -41.949,41.949 m 42,-83.9 -41.95,-41.95 m 377.6,-83.9 -41.951,41.95 m -41.95,-125.85 -41.949,41.951 m -42.05,41.949 -41.95,41.95 m 125.949,0 -41.949,-41.95 m 0,167.801 41.949,41.949 M -167.9,503.45 -209.851,545.4 M -83.9,377.601 -125.851,335.65 m -125.849,41.9 -42,-41.949 m 41.9,251.75 -41.95,41.949 m 0.05,-125.85 42,41.95 m 167.8,41.951 -41.951,41.949 M -83.9,545.4 -125.851,503.45 M 83.899,251.7 41.949,293.65 M 167.85,293.7 125.899,251.75 M 167.85,0 l -42,41.95 m 42,-84 L 125.899,-84 m 41.901,251.8 -41.95,41.95 m 42,-83.85 -41.951,-41.95 m 93.25,-135.25 -9.349,9.35 M 219.149,9.351 209.8,0 M 83.949,41.95 42,0 m 41.949,-83.899 -42,41.949 m 42,251.75 L 42,167.851 M 83.899,83.9 41.949,125.851 m 177.2,-9.401 -9.399,9.401 m 9.399,51.349 -9.349,-9.349 M 83.949,419.5 42,461.5 M 167.85,335.601 125.899,377.55 m -0.049,42 41.95,41.95 m 0,167.8 -41.95,-41.949 m 42,-83.901 -41.951,42 m 93.25,-93.3 -9.349,9.35 m 9.349,-177.2 -9.349,9.35 m 9.349,51.35 -9.349,-9.35 m -167.851,0 41.95,41.951 M 83.949,587.4 42,629.351 M 83.899,545.4 41.949,503.45 m 177.2,116.55 -9.349,9.351 m -0.05,-125.901 9.399,9.401 M 0,671.3 -41.95,713.25 M 0,1174.75 -41.95,1216.7 M 0.05,965 -41.9,923.05 M -41.95,755.15 0,797.1 m 0,42 -41.95,42 M 0,1006.95 -41.95,1048.9 M 0,1132.85 -41.95,1090.9 M 0,1300.65 -41.95,1258.7 m 42,83.9 -41.95,41.95 m 18.4,60.4 -18.45,-18.45 M 42,839.05 83.949,881 m 83.901,-209.7 -41.951,41.95 m 0,209.8 41.951,41.95 m -0.05,-125.9 -41.95,42 m 42,-84 -41.951,-41.95 m 41.901,251.8 -41.95,41.95 m 93.299,-368.3 -9.349,-9.35 m 9.349,116.55 -9.349,9.35 m 9.349,51.3 -9.349,-9.35 M 83.899,755.2 41.949,797.15 m 41.95,-83.95 -41.95,-41.95 m 41.95,251.8 -41.95,41.95 m 42,83.95 L 42,1007 m 177.149,-51.4 -9.399,9.4 m 0.05,41.95 9.349,9.35 m -51.299,158.45 -41.951,41.95 m 41.951,-83.85 -41.951,-41.95 m 41.951,251.7 -41.951,41.95 m 41.901,-83.9 -41.95,-41.95 m 18.45,186.25 -18.45,-18.45 m 93.299,-242.35 -9.349,-9.35 m 9.349,-51.35 -9.349,9.35 m -125.901,83.95 -41.95,-41.95 m 41.95,-83.95 -41.95,41.95 m 41.95,251.75 -41.95,-41.95 m 42,-83.95 L 42,1300.6 m 41.949,125.95 -18.399,18.4 m 153.599,-153.65 -9.349,9.35 m 9.349,51.35 -9.399,-9.4 M -335.7,671.25 -377.65,713.2 m 41.95,461.6 -41.95,41.95 m 0.049,41.9 41.951,41.95 m 0,-461.55 -41.951,41.95 m 41.901,84 -41.95,-41.95 m 42,83.95 -41.951,41.95 m 41.901,83.85 -41.95,-41.95 m 41.95,251.75 -41.95,41.95 m 41.95,-587.4 -41.95,-41.95 m 209.849,-83.95 -41.949,41.95 M -167.9,965 -209.851,923.05 M -83.9,881.1 l -41.951,-42 m -41.95,-41.95 -41.949,-41.95 m -42.05,125.9 -41.95,-42 m 125.949,0 -41.949,42 m 41.949,125.85 -41.949,41.95 m 83.899,-377.65 41.951,41.95 m 0,42 -41.951,41.95 m -125.849,-83.9 -42,-41.95 m 42,83.85 -42,41.95 m 42,125.95 -42,41.95 m 41.9,83.9 -41.95,-41.95 M -83.9,923.05 -125.851,965 m 41.951,83.9 -41.951,-41.95 M -503.5,671.25 -545.45,713.2 m 41.95,251.8 -41.95,-41.95 m 41.95,83.9 -41.95,41.95 m 41.95,-209.8 -41.95,42 m 41.95,-83.95 -41.95,-41.95 m 125.849,125.9 -41.949,-42 m -125.85,42 -41.951,-42 m 209.75,-125.85 -41.949,-41.95 m 41.949,83.85 -41.949,41.95 m -125.85,-83.9 -41.951,-41.95 m 41.951,83.95 -41.951,41.95 M -671.3,671.3 l -2.1,2.1 m 2.1,123.7 -2.1,-2.1 m 2.049,44.1 -2.049,2.05 m 85.95,81.9 -41.95,41.95 m 0.049,41.95 41.951,41.95 m -86,-86 2.1,2.1 m -0.051,41.95 -2.049,2.05 M -419.55,923.05 -461.5,965 m 41.899,83.9 -41.949,-41.95 m -41.95,167.85 -41.95,41.95 m 0,-125.9 41.95,41.95 m 0,209.8 -41.95,41.95 m 41.95,-83.9 -41.95,-41.95 m 83.9,-83.95 41.949,41.95 m 0,-125.8 -41.949,41.95 m -125.85,83.9 -41.951,-41.95 m 41.951,-83.95 -41.951,41.95 m -41.949,0.05 -2.1,-2.1 m 2.1,44 -2.1,2.1 m 86,81.85 -41.951,41.95 m 41.901,83.9 -41.95,-41.95 m 42,83.9 -18.451,18.45 m -65.5,-144.3 -2.049,-2.05 m 2.1,44 -2.1,2.1 m 146.4,100.25 -18.45,-18.45 m 125.9,-41.95 -41.95,-41.95 m 41.899,-83.9 -41.949,41.95 m 41.949,125.85 -18.449,18.45 m 78.85,0 -18.401,-18.4 m 209.8,-251.75 -41.949,41.95 m 41.949,-83.95 -41.949,-41.95 m 41.949,209.8 -41.949,-41.95 m 41.85,83.9 -41.951,41.95 m 0.101,41.95 18.449,18.45 m 107.401,-228.2 -41.951,-41.95 m 41.951,-83.95 -41.951,41.95 m -125.849,83.9 -42,-41.95 m 42,-83.85 -42,41.95 m 41.9,125.85 -41.95,41.95 m 0.05,41.95 42,41.95 m -0.1,41.95 -18.45,18.45 m 186.35,-186.25 -41.951,41.95 m 41.951,83.9 -41.951,-41.95 m 41.951,83.9 -18.451,18.45"
       style="fill:none;stroke:#12253c;stroke-width:2;stroke-linecap:butt;stroke-linejoin:miter;stroke-miterlimit:3;stroke-dasharray:none;stroke-opacity:1"
       transform="matrix(1.3333333,0,0,-1.3333333,903.53387,1926.6003)"
       clip-path="url(#clipPath4)" />
  </g>
  <g
     id="layer-MC3">
    <path
       id="path5"
       d="M 153.1,546.1 H 719.55 V 336.35 H 153.1 Z m 49.15,-323.5 c 0.9,-2.666 3.417,-5.25 7.55,-7.75 0.367,7.334 0.55,18.783 0.55,34.35 -4.233,-1.7 -6.917,-4.6 -8.05,-8.7 -0.433,-1.566 -0.65,-4.667 -0.65,-9.3 0,-4.6 0.2,-7.467 0.6,-8.6 m -11.85,7.75 c 0,7.033 3.083,15.033 9.25,24 7.4,10.667 17.65,19.95 30.75,27.85 15.9,9.633 34.75,16.333 56.55,20.1 25.733,4.467 54.667,4.667 86.8,0.6 l 80.75,-1.15 c 2.767,-1.533 7.85,-5.05 15.25,-10.55 6.934,-5.167 12.434,-8.766 16.5,-10.8 l 164.55,-1.15 c 21.5,-6.667 36.417,-13.35 44.75,-20.05 8.033,-6.433 12.05,-14.65 12.05,-24.65 0,-12.234 -7.567,-29.667 -22.7,-52.3 -6.133,-9.233 -12.4,-17.483 -18.8,-24.75 -6.4,-7.267 -11.5,-11.95 -15.3,-14.05 h -15.75 c -1.934,0.6 -7.484,3.734 -16.65,9.4 -8.334,5.167 -13.75,7.75 -16.25,7.75 -33.1,0 -57.45,-0.9 -73.05,-2.7 -11.367,-1.3 -18.984,-3.267 -22.85,-5.9 -2.566,-2.833 -5.2,-4.783 -7.9,-5.85 -4.466,-1.8 -13.833,-2.7 -28.1,-2.7 -36.133,0 -64.4,3.883 -84.8,11.65 -5.6,2.133 -11.05,4.8 -16.35,8 -4.033,2.433 -6.517,3.65 -7.45,3.65 -6.033,0 -10.85,-1.45 -14.45,-4.35 -0.867,-0.7 -3.617,-3.883 -8.25,-9.55 -3.533,-4.333 -7.583,-7.517 -12.15,-9.55 -6.467,-2.9 -15.183,-4.35 -26.15,-4.35 -19.2,0 -43.3,15.083 -72.3,45.25 -9.3,9.7 -18.35,20.167 -27.15,31.4 -7.2,9.167 -10.8,14.084 -10.8,14.75 M 62.15,627.2 h 2.8 c -1.1,1.234 -2.1,3.184 -3,5.85 -0.467,1.367 -1.533,1.85 -3.2,1.45 v -5.65 c 1.067,0 2.2,-0.55 3.4,-1.65 M 622.4,759.65 h 111.9 c 7.334,5.4 17,8.183 29,8.35 2.933,0.033 6.933,-0.116 12,-0.45 3.8,-0.267 6.084,-0.283 6.85,-0.05 h 22.5 c 8.034,-8.033 16.534,-15.767 25.5,-23.2 9.633,-8 14.984,-12.517 16.05,-13.55 4.067,-3.9 6.85,-7.934 8.35,-12.1 1.6,-4.433 2.4,-10.733 2.4,-18.9 0,-4.1 -1.15,-10.5 -3.45,-19.2 -3.4,-13.033 -8.283,-24.583 -14.65,-34.65 -19.734,-31.1 -49.6,-42.216 -89.6,-33.35 -4.233,-3 -10.65,-8.133 -19.25,-15.4 -7.1,-5.933 -12.684,-10.084 -16.75,-12.45 H 686.5 c -12.6,4.567 -24.967,10.383 -37.1,17.45 -11.733,7.4 -19.8,12.367 -24.2,14.9 h -25.3 c -3.633,-1.267 -6.683,-3.083 -9.15,-5.45 -2.866,-2.767 -5.1,-4.567 -6.7,-5.4 -7.567,-3.834 -26.567,-5.75 -57,-5.75 -21.166,0 -32.817,2.2 -34.95,6.6 -0.333,2.334 -0.734,4 -1.2,5 -0.733,1.733 -3.034,2.834 -6.9,3.3 -14.467,0.766 -24.15,1.5 -29.05,2.2 -6.133,0.9 -10.317,2.417 -12.55,4.55 -24.3,-2.166 -39.583,-4.933 -45.85,-8.3 -0.7,-0.366 -3.4,-2.234 -8.1,-5.6 -3.867,-2.766 -8.583,-5.35 -14.15,-7.75 h -40.2 c -1.233,0.333 -4.783,3.3 -10.65,8.9 -5.8,5.5 -8.717,8.25 -8.75,8.25 -7.833,-2.9 -16.233,-5.883 -25.2,-8.95 -17.933,-6.133 -29.783,-9.617 -35.55,-10.45 -7.367,-1 -13.117,-2.45 -17.25,-4.35 -1.933,-0.9 -4.517,-2.633 -7.75,-5.2 -2.667,-2.1 -5.483,-3.55 -8.45,-4.35 -4.367,-1.234 -10.75,-1.85 -19.15,-1.85 -14.4,0 -26,5.1 -34.8,15.3 -3.833,5.134 -6.467,8.65 -7.9,10.55 -2.4,3.2 -4.483,4.8 -6.25,4.8 -0.267,0 -3.95,-2.784 -11.05,-8.35 -8,-5.9 -14.35,-9.583 -19.05,-11.05 H 91.1 c -21.933,8.9 -35.467,21.033 -40.6,36.4 -1.9,5.667 -2.917,12.483 -3.05,20.45 0.233,9.1 0.35,15.834 0.35,20.2 -0.267,12.4 -0.367,20.8 -0.3,25.2 0.1,6.866 1.067,12.717 2.9,17.55 2.067,5.4 6.017,12 11.85,19.8 5.067,6.7 13.933,17.35 26.6,31.95 h 31.2 c 5.133,-2 13.333,-4.434 24.6,-7.3 11.933,-3.033 18.083,-4.617 18.45,-4.75 h 82.95 c 5.833,1.467 10.467,3.333 13.9,5.6 3.5,2.7 6.65,4.85 9.45,6.45 h 35.75 c 1.733,-0.7 4.7,-3.25 8.9,-7.65 3.533,-3.7 6.933,-5.55 10.2,-5.55 2.667,2.433 5.967,5.283 9.9,8.55 8,6.6 15.617,11.966 22.85,16.1 23.433,13.5 40.183,12.883 50.25,-1.85 l 59.6,0.55 c 1.133,0.367 10.233,0.916 27.3,1.65 17.034,0.766 26.117,1.334 27.25,1.7 l 63.6,1.15 3.35,1.1 h 17.7 c 3.733,-1.566 7.3,-5.05 10.7,-10.45 1.267,-2.033 3.15,-5.666 5.65,-10.9 m 105.05,671.8 c -0.5,-5.533 -0.467,-9.35 0.1,-11.45 1.433,-4.967 6.05,-21.017 13.85,-48.15 7.1,-25.1 10.65,-38.767 10.65,-41 0,-7.933 -4.467,-20 -13.4,-36.2 -10.1,-16.733 -16.317,-27.25 -18.65,-31.55 -0.634,-1.133 -4.5,-4.1 -11.6,-8.9 -9.633,-6.367 -17.133,-11.383 -22.5,-15.05 -21.167,-14.6 -31.75,-24.617 -31.75,-30.05 0,-2 0.683,-3.867 2.05,-5.6 0.934,-1.2 2.684,-2.85 5.25,-4.95 6.8,-5.5 11.783,-10.617 14.95,-15.35 17.2,3.367 33.784,-2.817 49.75,-18.55 5.433,-5.333 10.2,-11.2 14.3,-17.6 3.4,-5.3 5.1,-8.717 5.1,-10.25 0,-12.067 -8.15,-33.117 -24.45,-63.15 -6.734,-12.4 -13.65,-23.966 -20.75,-34.7 -7.166,-10.833 -13.1,-18.617 -17.8,-23.35 -7.1,-7.333 -11.217,-17.284 -12.35,-29.85 -0.3,-3.4 -0.683,-8.517 -1.15,-15.35 -0.6,-5.9 -1.734,-10.917 -3.4,-15.05 -4.534,-11.133 -14.817,-20.367 -30.85,-27.7 -19.767,-9.033 -50.15,-16.283 -91.15,-21.75 h -42.2 c -4.8,2.367 -14.933,6.4 -30.4,12.1 -16.267,6 -25.633,9 -28.1,9 -37.633,0 -61.4,-1.8 -71.3,-5.4 -2.467,-0.9 -5.167,-2.5 -8.1,-4.8 -2.633,-2.067 -5.7,-3.55 -9.2,-4.45 H 269.4 c -45.333,10.334 -73.483,26.817 -84.45,49.45 -4,8.2 -6.15,18.117 -6.45,29.75 -0.1,3.667 -0.033,8.55 0.2,14.65 0.3,6.933 0.45,11.567 0.45,13.9 0,18.433 1.167,34.617 3.5,48.55 1.533,9.1 4.117,19.567 7.75,31.4 3.933,12.9 6.517,22.383 7.75,28.45 2.333,11.7 3.5,24.867 3.5,39.5 0,12.267 -0.35,20.55 -1.05,24.85 -0.9,5.8 -3.55,14.5 -7.95,26.1 -3.933,10.5 -9.05,20.2 -15.35,29.1 -3.433,4.633 -5.983,8.067 -7.65,10.3 -2.933,3.967 -5.3,7.517 -7.1,10.65 -5.9,10.333 -11.133,28.833 -15.7,55.5 -3.6,20.833 -5.4,35.05 -5.4,42.65 0,6.233 1.7,14.317 5.1,24.25 3.333,9.867 7.783,19.95 13.35,30.25 13.167,24.267 26.7,40.317 40.6,48.15 l 79.05,1.15 10.7,0.55 c 7.567,0.367 12.533,0.55 14.9,0.55 19.633,0 32.817,-2.25 39.55,-6.75 1.167,-0.767 3.033,-2.483 5.6,-5.15 1.733,-1.767 3.65,-2.867 5.75,-3.3 l 21.65,0.6 c 2.3,0.967 5.95,3.267 10.95,6.9 4.333,3.133 7.717,4.95 10.15,5.45 l 61.3,1.15 c 5.567,1.833 9.067,3.6 10.5,5.3 0.266,0.333 0.584,0.9 0.95,1.7 0.266,0.533 0.634,0.917 1.1,1.15 1.2,0.567 5,0.867 11.4,0.9 5.233,0.067 18.066,-0.05 38.5,-0.35 34.5,1.933 59.117,2.7 73.85,2.3 12.267,-0.333 21.15,-1.65 26.65,-3.95 1.433,-0.6 3.766,-1.817 7,-3.65 3.2,-1.833 6.183,-3.317 8.95,-4.45 9.3,-3.867 23.267,-7.267 41.9,-10.2 26.367,-2.833 41.5,-8.467 45.4,-16.9 1.2,-2.633 1.584,-6.417 1.15,-11.35"
       style="fill:#8c1d1b;fill-opacity:1;fill-rule:evenodd;stroke:none"
       transform="matrix(1.3333333,0,0,-1.3333333,0,2133.3333)"
       clip-path="url(#clipPath6)" />
  </g>
  <g
     id="layer-MC4">
    <path
       id="path7"
       d="M 0,0 H -2.101 L -7,-4 v -31.699 l 1.1,-0.901 h 3 l 4.9,3.901 v 31 z M -3.4,1.601 H 2 L 8.6,-3.6 v -33 h 2.9 v -1.7 H 8.6 L 4.1,-34.699 -0.5,-38.3 H -7 l -6.301,5 v 27 z M -49.8,-6.6 v -28.7 l 2,-1.7 h 1.8 l 5.7,4.601 V -4 l -2.1,1.7 h -2 z m -9.5,3.3 6.3,4.901 h 2.899 V -3.6 L -46.9,-1 h 6.299 l 6.5,-5.3 V -31.699 L -42.4,-38.3 h -5.701 L -49.8,-37 v -18.8 l -7.801,-6.3 H -60.5 v 1.401 h 2.899 l 1.601,1.3 V -3.3 Z m 41.999,37.901 V 33 h -3.3 L -21.8,32 v -65 h 3.699 l -6.599,-5.3 h -3.8 v 66.7 l 7.899,6.201 z M -80.601,-3.3 v -27.399 l -9.5,-7.601 H -95.8 l -6.301,5 v 27 l 9.901,7.901 h 5.4 z m -10,3.3 -5.199,-4.3 v -31 l 1.6,-1.3 h 2.5 l 5.3,4.201 v 30.7 L -88.4,0 Z M -114,31.7 V 2.601 h 2.5 l 1.6,1.299 v 3.701 h 2.1 v -4 L -110.601,1 H -114 v -36.3 l 2.1,-1.7 h 1.6 l 3.8,3 v 2 h 2 v -2.699 L -109,-38.3 h -7 l -4.5,3.601 V -2.3 h -3 l -1.601,-1.3 V -6.899 H -126.8 V -3.3 l 2.9,2.3 h 3.4 v 29.4 l 7.7,6.201 h 2.9 V 33 h -2.4 z m 278.3,-35.3 6.099,4.901 H 173.8 V -2.3 l 4.8,3.901 h 5.799 l 5.401,-4.3 V -33.3 h 3.7 l -6.101,-5 H 183.3 V 0 h -3 l -6.2,-5 v -42.5 l -8.201,-6.6 H 163 v 1.3 h 2.899 l 2,1.601 V -3.6 Z m -18.2,0 6.299,4.901 H 155.6 V -33.3 h 2.9 l -6.101,-5 H 149 V -3.6 Z M 131.8,0 h -2.101 L 124.8,-4 v -31.699 l 1.099,-0.901 h 3 l 4.901,3.901 v 31 z m 2,1.601 6.599,-5.201 v -33 h 2.901 v -1.7 h -2.901 l -4.5,3.601 -4.599,-3.601 h -6.5 l -6.3,5 v 27 l 9.899,7.901 z M 104.899,0 h -3.2 l -4.5,-3.6 v -31.7 l 2,-1.7 h 2.101 l 5.3,4.301 V -1.3 Z M 109.6,1.601 112.8,-1 v -54.8 l -7.901,-6.3 h -3.2 v 1.401 h 2.901 l 1.599,1.3 V -36 l -2.899,-2.3 h -6.101 l -6.3,5 V -6 l 9.5,7.601 z M 76.6,0 h -2.1 l -4.9,-4 v -31.699 l 1.099,-0.901 h 3 l 4.901,3.901 v 31 z M 73.199,1.601 H 78.6 L 85.199,-3.6 v -33 H 88.1 v -1.7 h -2.901 l -4.5,3.601 L 76.1,-38.3 h -6.5 l -6.3,5 v 27 z M 23.5,1.301 V -35.3 l 2,-1.7 H 28 l 5,4 V -3.6 H 28.8 L 35,1.301 h 4.1 v -57.7 l -7,-5.701 h -3.8 v 1.401 h 2.899 l 1.801,1.3 V -36 l -3,-2.3 h -6.5 l -6.301,5 V -3.6 H 13.5 l 6.199,4.901 z m -181.4,-3.601 -5.4,-4.3 v -28.7 l 2,-1.7 h 1.8 l 5.7,4.601 V -4 l -2.1,1.7 z m -14.9,-1 6.3,4.901 h 2.899 V -3.6 l 3.201,2.6 h 6.299 l 6.5,-5.3 V -31.699 L -155.9,-38.3 h -5.701 l -1.699,1.3 v -18.8 l -7.801,-6.3 H -174 v 1.401 h 2.899 l 1.601,1.3 V -3.3 Z m -12.301,4.901 6.601,-5.201 v -33 h 2.899 v -1.7 h -2.899 l -4.5,3.601 -4.601,-3.601 h -6.5 l -6.299,5 v 27 l 9.9,7.901 z m -9,-5.601 V -35.699 L -193,-36.6 h 3 l 4.899,3.901 v 31 l -2,1.699 h -2.099 z m -31,0.7 2.901,2.3 h 3.4 v 29.4 l 7.699,6.201 h 2.901 V 33 h -2.401 L -212.3,31.7 V 2.601 h 2.5 l 1.6,1.299 v 3.701 h 2.099 v -4 L -208.9,1 h -3.4 v -36.3 l 2.1,-1.7 h 1.599 l 3.801,3 v 2 h 2 v -2.699 l -4.5,-3.601 h -7 l -4.5,3.601 V -2.3 h -3 l -1.6,-1.3 v -3.299 h -1.701 z"
       style="fill:#e6c97d;fill-opacity:1;fill-rule:evenodd;stroke:none"
       transform="matrix(1.3333333,0,0,-1.3333333,623.53387,1819.2005)" />
    <path
       id="path8"
       d="m 525.25,199.6 h -6.6 v 7.601 h 6.6 z m -196.7,7.6 h 6.6 v -7.601 h -6.6 z m 74.1,-7.6 h -6.6 v 7.601 h 6.6 z"
       style="fill:#8c1d1b;fill-opacity:1;fill-rule:evenodd;stroke:none"
       transform="matrix(1.3333333,0,0,-1.3333333,0,2133.3333)" />
  </g>
  <g
     id="layer-MC5">
    <path
       id="path9"
       d="m 0,0 v -130.7 l -37.9,-30.45 h -11.7 l -37.9,30.45 v 108.4 h -12.9 L -74,-1.6 h 11.7 v -138.25 l 12.7,-10.95 h 10.15 l 15.05,12.1 V -13.1 L 6.45,11.7 H 20.1 V 5.25 H 6.45 Z m 97.3,-1.6 26.4,-20.7 v -29.3 l -62.5,-50 v -47.65 l 8,-6.65 h 8.4 l 19.7,16.05 v 32.6 l 24.8,20.1 v -44.9 l -36.5,-29.1 H 61.2 L 36,-141.25 V -33.2 L 75.649,-1.6 Z M 80.899,-8.05 62.95,-22.3 v -66 l 34.35,27.55 v 46.1 l -8,6.6 z m -229.199,6.45 24.8,-19.5 v -109.6 l -38.05,-30.45 h -22.85 l -25.2,19.9 V -33.2 l 39.65,31.6 z m -15.2,-6.45 -20.9,-17.15 v -124.05 l 6.4,-5.05 h 10 l 21.25,16.8 v 122.85 l -8,6.6 z m 16.6,300.5 V 73.35 l -31.65,-25.2 h -12.7 v 5.45 h 11.5 l 6.45,5.25 v 93.6 l -11.7,-9.2 h -24.4 l -25.2,19.9 v 109.2 l 38.05,30.45 h 36.75 z M -209.4,282.1 V 155.15 l 8,-6.65 h 8.4 l 21.25,17.2 v 125.6 l -6.8,5.05 h -12.7 z m 172.9,0 v -132 H -25 v -6.85 h -11.5 l -18,14.45 -18.55,-14.45 H -99 l -25.2,19.9 V 271.2 l 39.65,31.6 H -62.9 Z M -99,280.35 V 153.6 l 4.45,-3.5 h 11.95 l 19.7,15.6 v 124.05 l -8,6.6 h -8.4 z m 182.85,4.1 21.65,17.2 h 19.55 L 147.899,283.3 V 164.55 h 13.5 L 135,143.25 h -11.5 v 153.1 h -9.95 L 85.399,274.1 V 163.15 H 97.1 L 72.3,143.25 H 62.149 v 153.1 H 49.05 L 23.1,275.3 V 102.45 L -7,78.4 h -11.5 v 6.85 h 8.4 l 9.55,8 V 282.1 H -15 l 26.4,20.7 h 11.7 v -15.6 l 17.95,14.45 H 62.149 Z M 247.149,-10.75 V -22.3 H 260.45 L 237.6,-41.25 h -8.4 l -6.85,5.7 v 13.25 h -8.4 L 183.3,-47.5 v -93.75 h 14.25 l -24.2,-19.9 H 158.1 V -21.1 h -9.951 L 171.6,-2.75 h 11.7 V -33.2 l 37.9,30.45 h 16.4 z M 245.5,302.8 271.899,282.1 v -29.3 l -62.5,-50 v -47.65 l 8,-6.65 h 8.401 l 19.7,16.05 v 32.6 l 24.8,20.1 v -44.9 l -36.5,-29.1 H 209.399 L 184.2,163.15 V 271.2 l 39.65,31.6 z m -16.4,-6.45 -17.951,-14.25 v -66 l 34.351,27.55 v 46.1 l -8,6.6 z"
       style="fill:#e6c97d;fill-opacity:1;fill-rule:evenodd;stroke:none"
       transform="matrix(1.3333333,0,0,-1.3333333,574.26693,633.86653)" />
  </g>
  <g
     id="layer-MC6">
    <path
       id="path10"
       d="M 0,0 -6.7,-5.3 V -30.101 L 6.15,-19.75 v 17.3 L 3.15,0 Z m 6.15,2.45 9.9,-7.75 v -11 L -7.4,-35.05 v -17.9 l 3.05,-2.45 h 3.15 l 7.35,6 v 12.2 l 9.3,7.55 V -46.5 L 1.8,-57.4 h -9.2 l -9.45,7.45 v 40.5 l 14.9,11.9 z M -53.7,2 v -54.95 l 3,-2.45 h 3.75 l 7.5,6 v 44.1 h -6.3 l 9.3,7.3 h 6.15 v -86.55 l -10.5,-8.5 h -5.7 V -91 h 4.3 l 2.75,1.95 v 35.1 l -4.5,-3.45 h -9.75 l -9.45,7.45 V -5.3 H -68.7 L -59.4,2 Z M 41.4,0 34,-6 v -47.5 l 1.7,-1.351 h 4.5 L 47.55,-49 v 46.55 l -3,2.45 z m 6.15,2.45 9.9,-7.75 V -54.851 H 61.8 V -57.4 H 57.45 L 50.7,-52 43.75,-57.4 H 34 l -9.45,7.45 v 40.5 l 14.9,11.9 z M 100.2,2 l 3.55,-3 v -4.3 h 5 l -8.55,-7.15 h -3.15 l -2.6,2.15 v 5 H 91.3 l -11.5,-9.45 v -35.2 h 5.35 L 76.1,-57.4 h -5.75 v 52.5 h -3.7 L 75.4,2 h 4.4 V -9.45 L 94.05,2 Z m -669.75,0.45 9.3,-7.35 V -45.95 L -574.5,-57.4 h -8.6 l -9.45,7.45 v 40.5 l 14.9,11.9 z m -5.7,-2.45 -7.85,-6.4 v -46.55 l 2.45,-1.901 h 3.75 l 7.95,6.301 v 46.1 l -3,2.45 z M -606,2 v -86.55 l -10.5,-8.5 h -5.7 V -91 h 4.3 l 2.75,1.95 v 35.1 l -4.5,-3.45 h -9.75 l -9.45,7.45 V -5.3 h -5.55 l 9.3,7.3 h 5.7 v -54.95 l 3,-2.45 h 3.75 l 7.5,6 v 44.1 h -6.3 l 9.3,7.3 z m 68.7,0.45 v -55.4 l 2.45,-1.901 h 3.7 l 8.1,6.301 V -5.3 h -5.1 l 9.9,7.75 h 4.35 V -51.4 h 6.15 l -7.5,-6 h -3 l -3.15,2.549 V -52 l -6.75,-5.4 h -9.15 l -9.45,7.45 V -5.3 h -4.8 l 9.85,7.75 z M -454.05,0 -463.8,-7.9 v -64.8 l -11.25,-9 h -4.35 v 2.55 h 3.15 l 3.6,3 V -5.3 h -5.4 l 9.85,7.75 h 4.4 V -3.4 l 6.75,5.4 h 7.9 l 8.15,-6.45 8.15,6.45 h 7.3 l 8.55,-6.9 v -44.5 h 5.05 l -9.85,-8 h -4.35 V 0 h -3.7 L -440.4,-8.351 V -49.95 h 4.4 l -9.35,-7.45 h -3.8 V 0 Z m 109.35,0 -7.85,-6.4 v -46.55 l 3.05,-2.45 h 3.15 l 7.35,6 v 47.5 l -2.4,1.9 z m -35.7,2.45 9.9,-7.75 v -49.551 h 4.35 V -57.4 h -4.35 l -6.75,5.4 -6.95,-5.4 h -9.75 l -9.45,7.45 v 40.5 l 14.9,11.9 z m -6.15,-2.45 -7.4,-6 v -47.5 l 1.7,-1.351 h 4.5 l 7.35,5.851 v 46.55 l -3,2.45 z m 45.15,52.55 12.3,-9.901 V -45.95 l -14.25,-11.45 h -9.2 l -9.45,7.45 v 40.5 l 14.9,11.9 h 8.7 v 45.6 l -3,2.45 h -3.75 v 2.05 z M -242.1,2 v -51.95 h 4.35 l -9.2,-7.45 H -252 v 52.1 h -4.4 l 9.45,7.3 z m -55.5,0.45 9.9,-7.75 v -11 l -23.45,-18.75 v -17.9 l 3.05,-2.45 h 3.15 l 7.35,6 v 12.2 l 9.3,7.55 V -46.5 l -13.65,-10.9 h -9.2 l -9.45,7.45 v 40.5 l 14.9,11.9 z m -6.15,-2.45 -6.7,-5.3 v -24.801 l 12.85,10.351 v 17.3 l -3,2.45 z m 100.45,51.95 v -2.4 h -3.55 l -2.6,-1.901 V 4 h 3.8 l 2.35,1.899 v 5.551 h 3.15 v -6 l -4.15,-3.9 h -5.15 v -54.5 l 3.25,-2.45 h 2.35 l 5.7,4.45 v 3 h 3 V -52 l -6.75,-5.4 h -10.45 l -6.85,5.4 v 48.6 h -4.45 l -2.4,-1.9 v -5 h -2.6 v 5.4 l 4.4,3.45 h 5.05 v 44.099 l 11.6,9.301 z M -114.45,0 -122.3,-6.4 v -46.55 l 2.45,-1.901 h 3.75 l 7.95,6.301 v 46.1 l -3,2.45 z m 5.7,2.45 9.3,-7.35 V -45.95 L -113.7,-57.4 h -8.6 l -9.45,7.45 v 40.5 l 14.9,11.9 z m -34.7,49.5 v -2.4 H -147 l -2.6,-1.901 V 4 h 3.8 l 2.35,1.899 v 5.551 h 3.15 v -6 l -4.15,-3.9 h -5.15 v -54.5 l 3.25,-2.45 h 2.35 l 5.7,4.45 v 3 h 3 V -52 l -6.75,-5.4 h -10.45 l -6.85,5.4 v 48.6 h -4.45 l -2.4,-1.9 v -5 h -2.6 v 5.4 l 4.4,3.45 h 5.05 v 44.099 l 11.6,9.301 z"
       style="fill:#e6c97d;fill-opacity:1;fill-rule:evenodd;stroke:none"
       transform="matrix(1.3333333,0,0,-1.3333333,959,1187.7331)" />
    <path
       id="path11"
       d="m 233.1,655.25 h -9.9 v 11.4 h 9.9 z m 211.35,11.4 h 9.899 v -11.4 h -9.899 z m 198.75,-11.4 h -9.9 v 11.4 h 9.9 z m -101.25,0 h -9.9 v 11.4 h 9.9 z"
       style="fill:#8c1d1b;fill-opacity:1;fill-rule:evenodd;stroke:none"
       transform="matrix(1.3333333,0,0,-1.3333333,0,2133.3333)" />
  </g>
</svg>
