<svg xmlns="http://www.w3.org/2000/svg" width="1200" height="2133.3" viewBox="0 0 1200 2133.3"><defs><clipPath id="a" clipPathUnits="userSpaceOnUse"><path d="M0 1600h900V0H0Z"/></clipPath></defs><path d="M0 2133h1200V0H0Z" style="fill:#8c1d1b;fill-opacity:1;fill-rule:nonzero;stroke:none;stroke-width:1.33333"/><path d="M153 546h567V336H153Zm49-323q2-5 8-8v34q-6-2-8-8zm-12 7q0 11 10 24 11 16 30 28 24 15 57 20 39 7 87 1l81-1 15-11 16-11 165-1q32-9 45-20 12-9 12-24 0-19-23-53l-19-24q-9-11-15-15h-16l-17 10q-12 8-16 8-49 0-73-3-17-1-23-6-3-4-8-6-6-3-28-3-54 0-85 12l-16 8-7 4q-9 0-15-5l-8-9-12-10q-10-4-26-4-30 0-73 45a416 416 0 0 0-38 46M62 627h3l-3 6-3 2v-6zm560 133h112q11 8 29 8h42a370 370 0 0 1 41-37l9-12 2-19q0-6-4-19-5-20-14-35-30-47-90-33l-19-16-17-12h-26a228 228 0 0 0-62 32h-25q-6-2-9-5l-7-6q-12-6-57-6-32 1-35 7l-1 5q-1 3-7 3l-29 3q-9 1-13 4-36-3-45-8l-9-6-14-8h-40l-11 9-8 9-86-29-9-5-19-2q-22 0-34 16l-15 15-11-8q-12-9-19-11H91q-32 14-41 36l-3 21 1 45 2 17q3 9 12 20l27 32h31a232 232 0 0 1 43-12h83l14 6 9 6h36q3-1 9-7t10-6l33 25q35 20 50-2h60l27 2 27 2 64 1 3 1h18q5-3 11-10zm105 671 1-11 24-89q0-12-13-36l-19-32-12-9-22-15q-32-21-32-30l2-6 5-4q11-9 15-16 27 5 50-18 9-9 14-18l6-10q-1-18-25-63a466 466 0 0 0-38-58q-12-12-13-30l-1-16-3-15q-7-17-31-27-30-14-91-22h-43a394 394 0 0 1-58 21q-56 0-71-5l-8-5-10-5h-85q-67 16-84 50-6 12-7 30l1 28a297 297 0 0 0 19 109 203 203 0 0 1 3 64 145 145 0 0 1-24 55l-14 21q-9 15-16 55-6 32-6 43 0 9 6 24 4 15 13 31 20 36 40 48l80 1 10 1h15q30 0 40-7l5-5 6-3h22l11 7 10 6 61 1 11 5 1 2 1 1 11 1h39l73 2q19-1 27-4l7-4 9-4q14-6 42-10 39-5 45-17 2-5 1-12" clip-path="url(#a)" style="fill:#8c1d1b;fill-opacity:1;fill-rule:evenodd;stroke:none" transform="matrix(1.3333333 0 0 -1.3333333 0 2133)"/><path d="M624 1819h-3l-6 6v42l1 2h4l7-6v-41zm-4-2h7l9 8v44h3v1h-3l-7-4-5 4h-9l-8-7v-36zm-63 12v37l3 3h3l8-7v-37l-3-3h-3zm-12-6 8-6h4v8l4-4h8l10 6v35l-11 8h-8l-3-1v25l-10 8h-3v-1h3l2-3v-75zm56-50v2h-5l-1 2v86h5l-9 7h-4v-88l9-9Zm-85 50v38l-12 9h-8l-8-7v-36l13-10h7Zm-13-4-7 6v41l3 3h2l8-7v-40l-2-3zm-31-42v38h4l1-1v-5h3v5l-4 4h-4v48l3 3h2l4-4v-3h3v4l-5 4h-10l-5-4v-44h-4l-3 3v4h-2v-6l4-2h5v-39l9-9h4v2h-2zm371 48 8-7h5v4l7-5h6l8 6v40h6l-10 7h-5v-51h-4l-8 7v56l-11 9h-4v-1h4l3-3v-62zm-24 0 8-7h5v45h3l-8 7h-4v-45zm-19-6h-3l-6 6v42l1 2h4l7-6v-41zm3-2 8 8v44h4v1h-4l-6-4-6 4h-8l-8-7v-36l12-10zm-39 2h-4l-7 6v41l3 3h3l8-6v-42zm7-2 4 4v73l-11 8h-4v-1h4l1-3v-31l-4 3h-8l-8-7v-36l12-10zm-44 2h-4l-6 6v42l2 2h4l6-6v-41zm-6-2h8l8 8v44h4v1h-4l-5-4-7 4h-8l-9-7v-36zm-65 1v48l3 3h2l7-6v-38h-5l8-7h5v76l-9 8h-6v-1h4l3-3v-31l-4 3h-8l-9-7v-38h-4l8-7zm-243 4-6 7v37l2 3h2l8-7v-37l-3-3zm-20 1 8-6h4v8l6-4h8l8 6v35l-11 8h-8l-1-1v25l-11 8h-4v-1h4l3-3v-75zm-16-6 10 8v44h2v1h-2l-7-4-7 4h-8l-8-7v-36l12-10zm-12 8v42l2 2h4l6-6v-41l-2-3h-3zm-41-2 4-2h4v-39l11-9h4v2h-4l-2 2v38h3l3-1v-5h2v5l-4 4h-4v48l3 3h1l6-4v-3h2v4l-5 4h-9l-7-4v-44h-4l-1 3v4h-3z" style="fill:#e6c97d;fill-opacity:1;fill-rule:evenodd;stroke:none;stroke-width:1.33333"/><path d="M700 1867h-8v-10h8zm-261-10h8v10h-8zm98 10h-9v-10h9z" style="fill:#8c1d1b;fill-opacity:1;fill-rule:evenodd;stroke:none;stroke-width:1.33333"/><path d="M574 634v175l-51 40h-16l-49-40V664h-17l34-27h16v184l16 15h15l20-16V652l40-34h19v10h-19Zm129 3 36 27v40l-84 66v63l11 9h12l25-21v-44l34-27v60l-48 39h-34l-33-27V678l53-41zm-21 8-24 19v88l45-36v-62l-10-9zm-305-8 32 25v147l-51 40h-29l-35-27V678l53-41zm-22 8-26 23v165l8 7h13l28-22V654l-11-9zm23-400v292l-43 33h-16v-8h15l9-6V432l-16 12h-32l-34-27V272l50-42h50zm-83 13v170l11 8h11l28-23V246l-10-6h-16zm231 0v176h15v10h-15l-24-20-25 20h-35l-33-27V273l52-43h29Zm-84 3v168l5 5h16l27-21V248l-11-8h-10zm244-5 28-24h27l30 25v157h18l-35 30h-15V240h-13l-39 29v148h16l-33 27h-13V240h-18l-34 28v230l-40 32h-15v-9h11l12-11V258h-19l35-28h16v22l24-20h28zm217 393v15h18l-30 25h-12l-9-7v-18h-11l-41 33v125h20l-33 27h-20V662h-14l32-24h15v40l51-40h22zm-1-419 35 28v39l-84 67v64l10 8h12l27-22v-42l32-27v60l-48 39h-33l-34-27V273l54-43zm-23 10-24 18v88l47-37v-61l-11-8zm80 948-9 7v33l17-13v-24l-4-3zm8-2 13 9v15l-30 25v24l4 3h4l9-8v-16l12-10v22l-17 14h-12l-14-9v-55l20-14zm-80 0v73l4 3h5l11-8v-59h-9l13-9h8v116l-15 10h-8v-2h7l4-3v-47l-7 4h-13l-12-9v-60h-8l13-9zm127 2-10 8v63l3 3h5l11-8v-63l-4-3zm9-2 12 9v67h7v2h-7l-8-6-9 6h-14l-12-9v-55l19-14Zm69 0 6 4v5h6l-12 9h-4l-4-2v-7h-4l-14 13v47h6l-12 9h-8v-69h-4l11-9h7v14l18-14zm-893 0 13 9v55l-18 14h-12l-14-9v-55l20-14zm-7 2-10 8v63l2 3h6l10-8v-63l-4-3zm-41-2v116l-13 10h-8v-2h5l4-3v-47l-7 4h-12l-13-9v-60h-7l12-9h8v73l4 3h4l11-8v-59h-8l12-9zm92 0v73l3 3h5l11-8v-59h-7l13-9h6v70h8l-10 8h-4l-4-2v-4l-9 6h-12l-13-9v-60h-7l13-9zm111 2-14 11v87l-14 12h-6v-4h4l4-4v-95h-6l13-9h5v6l10-6h10l11 8 11-8h9l12 9v59h7l-14 10h-5v-76h-5l-14 11v56h6l-12 9h-6v-76zm145 0-11 8v63l4 3h6l9-8v-63l-3-3zm-47-2 12 9v67h7v2h-7l-8-6-9 6h-13l-12-9v-55l18-14zm-9 2-9 8v63l2 3h6l10-8v-63l-4-3zm61-70 16 13v119l-18 14h-14l-12-9v-55l20-14h12v-62l-4-2h-5v-4zm132 68v69h6l-12 9h-7v-69h-5l12-9zm-74 0 13 9v15l-31 25v24l4 3h4l10-8v-16l13-10v22l-19 14h-12l-13-9v-55l20-14zm-8 2-8 7v33l16-13v-24l-4-3zm134-69v3h-5l-3 2v59h4l4-3v-6h4v8l-5 4h-7v73l4 3h3l8-6v-4h4v6l-9 6h-14l-9-6v-66h-7l-2 3v7h-4v-7l6-5h7v-59l15-12zm119 69-11 8v63l3 3h5l11-8v-63l-4-3zm7-2 13 9v55l-20 14h-11l-13-9v-55l20-14zm-46-67v3h-5l-4 2v59h5l4-3v-6h4v8l-5 4h-8v73l5 3h3l8-6v-4h4v6l-9 6h-15l-8-6v-66h-7l-2 3v7h-4v-7l6-5h7v-59l15-12z" style="fill:#e6c97d;fill-opacity:1;fill-rule:evenodd;stroke:none;stroke-width:1.33333"/><path d="M311 1260h-14v-16h14zm281-16h13v16h-13zm265 16h-13v-16h13zm-134 0h-14v-16h14z" style="fill:#8c1d1b;fill-opacity:1;fill-rule:evenodd;stroke:none;stroke-width:1.33333"/></svg>