<svg xmlns="http://www.w3.org/2000/svg" width="1200" height="2133.3" viewBox="0 0 1200 2133.3"><defs><clipPath id="a" clipPathUnits="userSpaceOnUse"><path d="M0 1600h900V0H0Z"/></clipPath><clipPath id="b" clipPathUnits="userSpaceOnUse"><path d="M-653 166h900v-1600h-900Z"/></clipPath><clipPath id="d" clipPathUnits="userSpaceOnUse"><path d="M-530 1545h900V-55h-900z"/></clipPath><clipPath id="e" clipPathUnits="userSpaceOnUse"><path d="M-555 1541h900V-59h-900z"/></clipPath><clipPath id="f" clipPathUnits="userSpaceOnUse"><path d="M-589 1545h900V-55h-900z"/></clipPath><clipPath id="g" clipPathUnits="userSpaceOnUse"><path d="M-601 1539h900V-61h-900z"/></clipPath><clipPath id="h" clipPathUnits="userSpaceOnUse"><path d="M-629 1556h900V-44h-900z"/></clipPath><clipPath id="i" clipPathUnits="userSpaceOnUse"><path d="M-644 1536h900V-64h-900z"/></clipPath><clipPath id="j" clipPathUnits="userSpaceOnUse"><path d="M-673 1563h900V-37h-900z"/></clipPath><clipPath id="k" clipPathUnits="userSpaceOnUse"><path d="M-687 1537h900V-63h-900z"/></clipPath><clipPath id="l" clipPathUnits="userSpaceOnUse"><path d="M-721 1564h900V-36h-900z"/></clipPath><clipPath id="m" clipPathUnits="userSpaceOnUse"><path d="M-741 1536h900V-64h-900z"/></clipPath><clipPath id="n" clipPathUnits="userSpaceOnUse"><path d="M-758 1545h900V-55h-900z"/></clipPath><clipPath id="o" clipPathUnits="userSpaceOnUse"><path d="M-781 1536h900V-64h-900z"/></clipPath><clipPath id="p" clipPathUnits="userSpaceOnUse"><path d="M-811 1535H89V-65h-900z"/></clipPath><clipPath id="q" clipPathUnits="userSpaceOnUse"><path d="M-826 1536H74V-64h-900z"/></clipPath><clipPath id="r" clipPathUnits="userSpaceOnUse"><path d="M-858 1552H42V-48h-900z"/></clipPath></defs><path d="M0 0v2133h1200V0Z" style="fill:#12253c;fill-opacity:1;fill-rule:nonzero;stroke:none;stroke-width:1.33333"/><path d="M580 74h315V5H580ZM345 610q17-12 21-12l9 2 5 5 4 5q2 3 6 3h69l9-5 9-7q13-9 19-8h45l3 7q1 6 6 10 13 12 52 12 36 0 47-17l6-13q3-8 6-11 101-13 131-31 13-8 18-17l2-21q0-30-9-47-7-14-24-24l-29-19q-17-14-26-34-6-12-9-33l-1-44q-1-12-4-19-13-24-65-24-25 0-36 4l-5 3-3 3-141-1q-4-2-55-5l-6-6-9-5q-12-4-42-4-29 0-44 4-18 4-43 22-13 9-28 13l-10 2-8 7q-17 15-24 30-9 16-13 34-2 7-9 15l-16 15-16 16q-7 9-9 17l-10 67-1 15 1 14q1 14 7 24 6 11 24 19 18 9 51 17l7 11q5 5 12 8a329 329 0 0 0 108 17zm-161 959v-17q0-46-21-88-23-48-70-81H62a75 75 0 0 0-24 33l-4 9q-6 11-17 18l-13 7v149h150q13-5 20-11 9-8 10-19" clip-path="url(#a)" style="fill:#12253c;fill-opacity:1;fill-rule:evenodd;stroke:none" transform="matrix(1.3333333 0 0 -1.3333333 0 2133)"/><path d="M889 1595h-7l-8 5v99l4 3h10l5-4v-100zm92-168-9 7v33l17-13v-23l-4-4zm21 7v14l-32 26v24l4 2h4l11-8v-16l12-9v23l-19 13h-12l-12-9v-54l20-16h11Zm-546 197 12-9h9v114l-15 12h-8v-2h7l3-3v-47l-6 4h-13l-12-9v-60h-8l12-9h8v73l4 3h5l10-8v-59Zm65-7h-4l-9 7v33l17-14v-23Zm4-4 13 11v15l-32 25v24l4 3h6l9-8v-16l12-11v23l-17 14h-14l-12-9v-55l20-16zm44 0h11l13 11v67h7v2h-7l-8-6-9 6h-14l-13-9v-55zm3 4-10 8v63l3 3h5l10-8v-63l-4-3zm84 7h6l-12 9h-4l-4-2v-7h-4l-14 12v48h6l-12 9h-8v-69h-5l12-9h7v14l18-14h8l6 4zm50-20h-4l26-20v115h-12v-102Zm156-4 19-15h9l16 12v87l-17 15h-12l-15-12zm-82-15 16 12v87l-18 15h-12l-14-12v-87l20-15zm-2 3h-6l-7 5v99l4 3h8l5-4v-100zm56 0h-6l-8 5v99l4 3h9l5-4v-100zm18 9v87l-18 15h-12l-14-12v-87l18-15h10zm-480 16 12 11v55l-19 14h-11l-13-9v-55l20-16zm-3 4h-5l-10 8v63l3 3h5l11-10v-61Zm-49-69h5v3h-4l-4 2v59h5l3-3v-8h5v8l-6 6h-7v73l5 3h3l8-6v-4h4v6l-9 6h-15l-8-6v-66h-7l-2 3v7h-4v-7l5-5h8v-59Zm-38-131 14 10v14l-32 26v24l4 4h4l10-8v-18l12-9v23l-18 13h-12l-12-9v-54l20-16zm-4 3h-4l-9 7v33l17-13v-23Zm120 8v63l4 2h6l10-8v-62l-4-3h-5zm-66-72v59h5l3-3v-7h5v8l-7 6h-6v72l5 2h3l8-5v-4h4v5l-10 7h-14l-8-7v-65h-7l-3 3v6h-4v-6l7-4h7v-60l14-12h7v4h-5zm70-5h6v2h-6l-2 3v67l8-6h12l10 8v55l-18 15h-14l-12-10v-124zm-189 142h4l11-8v-62l-4-3h-6l-9 7v64zm3-76h17l7 6v109l-16 12h-6v-3h6l2-2v-47l-5 4h-12l-13-9v-55Zm641 112v-4h4l4-4v-94h-7l14-10h5v8l9-8h11l11 10 10-10h11l11 10v58h6l-13 11h-5v-76h-6l-13 11v56h5l-12 9h-5v-76h-7l-13 11v86l-15 12zm-183-102 12-10h7v7l9-7h12l11 8v62h8l-13 9h-8v-76h-6l-13 11v84l-16 13h-5v-3h5l4-2v-96zm160-10h7v70h5l-12 9h-6v-69h-6zm-33-66h5v4h-5l-3 1v59h6l2-3v-7h4v8l-5 6h-7v72l4 2h3l8-5v-4h4v5l-9 7h-14l-9-7v-65h-5l-4 3v6h-3v-6l5-4h7v-60zm-340 66h11l13 10v66h7v3h-7l-8-7-9 7h-14l-13-9v-54zm7 3h-4l-10 8v64l3 1h5l10-8v-61Zm169 7 13-10h7v70h5l-12 9h-6v-69zm-97 13-12 9v-26l-3-3h-5l-10 7v65l3 1h5l10-8v-16l13-9v21l-20 15h-12l-12-9v-54l19-16h12l12 10zm29-89h5v2h-5l-4 3v85h5l7-5v-19l16-12h7v3h-7l-3 3v20l-13 10h-5l17 15v36l5 4h4v3h-6l-15-12v-34l-12-9v43h7l-14 9h-6v-133z" style="fill:#e6c97d;fill-opacity:1;fill-rule:evenodd;stroke:none;stroke-width:1.33333"/><path d="M672 1680h13v16h-13zm-269 0h13v16h-13zm-28-182h-12v-14h12zm373-14h13v14h-13zm-135 0h14v14h-14z" style="fill:#12253c;fill-opacity:1;fill-rule:evenodd;stroke:none;stroke-width:1.33333"/><path d="m0 0-1-14q0-17-6-32l-15-26q-11-15-14-25-7-15-7-31 0-22 20-31 14-6 44-7l44-5q20-6 20-22 0-18-4-29-3-8-10-15l-10-13q-5-11-5-27 0-14 5-38l4-38q0-15-6-44l-5-41q0-9 5-24l19-59q5-16 5-27 0-4-5-7l-12-6-48-17-66-1-71 11q-62 0-82-40-7-12-10-31l-3-20-15-28q-11-15-24-27-35-31-101-43l-12 6-15 8q-20 12-23 30v95q-4 14-18 27l-28 22q-22 15-29 22-15 13-20 25v251-1l-1 4q0 6 45 39l57 37q21 9 68 24 41 14 59 31 30 25 44 42 27 27 31 43 6 17 11 24 8 13 25 16l53 38q81 0 100-13Q0 8 0 0" clip-path="url(#b)" style="fill:#12253c;fill-opacity:1;fill-rule:evenodd;stroke:none" transform="matrix(1.3333333 0 0 -1.3333333 871 221)"/><path d="M375 546v341l19 16h22l47-37V591h-39l58-45h38v539l-65 53h-35v-13h27l16-12V894l-28 21h-60l-59-46V591h-34l57-45Zm531-47h-27l-16 14v97l-61 49h-27l85 68v167l22 19h21v12h-32l-69-56V713l-54-44v200h27l-59 46h-30V293l77-62h28v16h-28l-15 12v400h24l34-28v-88l69-56h31z" style="fill:#e6c97d;fill-opacity:1;fill-rule:evenodd;stroke:none;stroke-width:1.33333"/><path d="m514 500 120-95v532h-57V467l-44 33z" style="fill:#903433;fill-opacity:1;fill-rule:evenodd;stroke:none;stroke-width:1.33333"/><path d="M0 0v2l1 2 2 2 2 2 1 1 8-1V-2h-3v4L6 3H5v-4l2-2 4-4 2-2 2-3 1-3v-2l-1-2-1-2-1-3-2-2-2-1H8l-8 1v12h3l1-6 3-2h2v1l1 1v4l-2 2-3 2-3 3-2 3v4z" clip-path="url(#d)" style="fill:#e6c97d;fill-opacity:1;fill-rule:evenodd;stroke:none" transform="matrix(1.3333333 0 0 -1.3333333 707 2060)"/><path d="m0 0 4 5 4-1 3-4 3 5h1l4-1 3-4 1-7v-17l1-1v-4l-5-1h-1l-1 2v24l-1 2-1 1-1-1-2-1-1-1v-20l2-1v-4l-5-1H7l-1 2v21L5-3 4-2 3-1v-1L0-4v-20l2-1v-4l-6-1-1 2v27l-2 1v4l5 1 2-2V2Z" clip-path="url(#e)" style="fill:#e6c97d;fill-opacity:1;fill-rule:evenodd;stroke:none" transform="matrix(1.3333333 0 0 -1.3333333 740 2055)"/><path d="M0 0v-7l5 2v7L3 4H1Zm-4 3 5 5 2 1 4-1q2-1 3-6l1-11-11-1v-6l2-3 2-1 6 1v-4l-6-3H2l-4 2-3 5-1 9 1 11z" clip-path="url(#f)" style="fill:#e6c97d;fill-opacity:1;fill-rule:evenodd;stroke:none" transform="matrix(1.3333333 0 0 -1.3333333 785 2060)"/><path d="m0 0 3 2 4 7 1-1h1V2h5v-5H9v-23l1-1h4v-5l-7-1-1 1-1 1-1 3-1 1v24H0Z" clip-path="url(#g)" style="fill:#e6c97d;fill-opacity:1;fill-rule:evenodd;stroke:none" transform="matrix(1.3333333 0 0 -1.3333333 801 2051)"/><path d="m0 0-6-2v-3l1-3 1-1h1l3 2zm-3 20h3l2-2 1-2 2-4 1-2V-9l1-2v-3l-5-1H1l-1 1v4l-3-4-1-1-4 1-3 4v5l1 7L0 4v4l-1 3-1 2-7-1-1 2 1 6h3z" clip-path="url(#h)" style="fill:#e6c97d;fill-opacity:1;fill-rule:evenodd;stroke:none" transform="matrix(1.3333333 0 0 -1.3333333 838 2075)"/><path d="m0 0 1-1 1-1v-2l4 5 4-1 3-4 1-7v-17l1-2v-3l-5-1H9l-1 1v22L7-8v1H5L2-9v-20l2-2v-3l-6-1h-1l-1 2v27l-2 1v4z" clip-path="url(#i)" style="fill:#e6c97d;fill-opacity:1;fill-rule:evenodd;stroke:none" transform="matrix(1.3333333 0 0 -1.3333333 858 2048)"/><path d="M0 0v7l-5-2-1-1V2l1-3 1-2 1 1zm-9 19-1 2 1 5h3l3 1 3-1 2-1 1-3 2-3 1-3V-3l1-1v-4L2-9 1-8v1L0-6v2l-3-4-1-1-4 1-2 4-1 5 1 7 10 2v8l-2 1h-2z" clip-path="url(#j)" style="fill:#e6c97d;fill-opacity:1;fill-rule:evenodd;stroke:none" transform="matrix(1.3333333 0 0 -1.3333333 898 2083)"/><path d="m0 0 1-1v-1l4-24 3 16-1 5-2 1v3l6 1 1-1 1-1 3-24h1l3 21-3 1v4h7l1-1v-1l-6-32-5-1-1 1-3 15-3-15-5-1-1 1-5 29-2 1v3z" clip-path="url(#k)" style="fill:#e6c97d;fill-opacity:1;fill-rule:evenodd;stroke:none" transform="matrix(1.3333333 0 0 -1.3333333 917 2049)"/><path d="m0 0 2-1h1l2 2v7L0 6Zm-4 22v5l6 1h3l2-2 3-6 1-3V-2l2-1v-3L7-8v1L6-6 5-5v2L2-7 1-8l-4 2-2 3-1 5v4l1 4 10 2v7l-2 1h-7z" clip-path="url(#l)" style="fill:#e6c97d;fill-opacity:1;fill-rule:evenodd;stroke:none" transform="matrix(1.3333333 0 0 -1.3333333 961 2085)"/><path d="m0 0 1-1v-4l3 5 1 1h2l1-1v-1l1-2-1-1-1-4-2 1-1-2-2-1v-19l3-1v-4l-7-1-1 1-1 1v27l-1 1v4z" clip-path="url(#m)" style="fill:#e6c97d;fill-opacity:1;fill-rule:evenodd;stroke:none" transform="matrix(1.3333333 0 0 -1.3333333 988 2048)"/><path d="M0 0v-7l5 2v7L3 4H1Zm-5 1 1 2 5 5 2 1 4-1q2-1 3-6l1-11-11-1v-6l2-3 2-1 6 1v-4l-6-3H2l-4 2-3 5-1 9z" clip-path="url(#n)" style="fill:#e6c97d;fill-opacity:1;fill-rule:evenodd;stroke:none" transform="matrix(1.3333333 0 0 -1.3333333 1010 2060)"/><path d="m0 0 9 2 3-1 2-2 1-5v-5l-2-5-6-11v-1h6v5h3v-11H-1v4l7 15 2 4 1 4v2L8-3 4-5l-1-6H0Z" clip-path="url(#o)" style="fill:#e6c97d;fill-opacity:1;fill-rule:evenodd;stroke:none" transform="matrix(1.3333333 0 0 -1.3333333 1041 2049)"/><path d="M0 0q5 0 8-5l2-13-2-13-3-4-5-2q-5 0-8 5l-2 14v6l2 6 3 4zm-4-12v-6l1-11q0-3 3-3l2 1 1 1 1 5v7L3-8q0 3-3 3h-2l-1-2z" clip-path="url(#p)" style="fill:#e6c97d;fill-opacity:1;fill-rule:evenodd;stroke:none" transform="matrix(1.3333333 0 0 -1.3333333 1082 2046)"/><path d="m0 0 9 2 3-1 2-2 1-5v-5l-2-5-6-11v-1h6v5h3v-11H-1v4l7 15 2 4 1 4v2L8-3 4-5l-1-6H0Z" clip-path="url(#q)" style="fill:#e6c97d;fill-opacity:1;fill-rule:evenodd;stroke:none" transform="matrix(1.3333333 0 0 -1.3333333 1101 2049)"/><path d="m0 0-2 1-3-1v-8l1-5 3-2 1 1v3l1 5zm4 18-4-2-2-3-2-4-1-5 3 2 1 1 5-2 2-5 1-6-1-3v-3l-2-3-2-2-2-2-1-1-5 1-3 4-2 5v7l1 11 3 8 5 5 6 2z" clip-path="url(#r)" style="fill:#e6c97d;fill-opacity:1;fill-rule:evenodd;stroke:none" transform="matrix(1.3333333 0 0 -1.3333333 1144 2069)"/><path d="M101 226h16v22h-16zm28-154h-22L95 82v26H77V89l27-21h31l25 20v85l-37 31h-8v-3l28-24V82Z" style="fill:#e6c97d;fill-opacity:1;fill-rule:evenodd;stroke:#e6c97d;stroke-width:2.66667;stroke-linecap:butt;stroke-linejoin:miter;stroke-miterlimit:3;stroke-dasharray:none;stroke-opacity:1"/></svg>