<?xml version="1.0" encoding="UTF-8" standalone="no"?>
<!-- Created with Inkscape (http://www.inkscape.org/) -->

<svg
   version="1.1"
   id="svg1"
   width="1200"
   height="2133.3333"
   viewBox="0 0 1200 2133.3333"
   xmlns="http://www.w3.org/2000/svg"
   xmlns:svg="http://www.w3.org/2000/svg">
  <defs
     id="defs1">
    <clipPath
       clipPathUnits="userSpaceOnUse"
       id="clipPath4">
      <path
         d="M 0,1600 H 900 V 0 H 0 Z"
         transform="translate(-826.34965,-5.4502001)"
         id="path4" />
    </clipPath>
    <clipPath
       clipPathUnits="userSpaceOnUse"
       id="clipPath6">
      <path
         d="M 0,1600 H 900 V 0 H 0 Z"
         transform="translate(0,-2.5000001e-5)"
         id="path6" />
    </clipPath>
    <clipPath
       clipPathUnits="userSpaceOnUse"
       id="clipPath10">
      <path
         d="M 0,1600 H 900 V 0 H 0 Z"
         transform="translate(-653.09962,-1434.4502)"
         id="path10" />
    </clipPath>
    <clipPath
       clipPathUnits="userSpaceOnUse"
       id="clipPath14">
      <path
         d="M 0,1600 H 900 V 0 H 0 Z"
         transform="translate(-530.08981,-55.343801)"
         id="path14" />
    </clipPath>
    <clipPath
       clipPathUnits="userSpaceOnUse"
       id="clipPath16">
      <path
         d="M 0,1600 H 900 V 0 H 0 Z"
         transform="translate(-555.07132,-58.714826)"
         id="path16" />
    </clipPath>
    <clipPath
       clipPathUnits="userSpaceOnUse"
       id="clipPath18">
      <path
         d="M 0,1600 H 900 V 0 H 0 Z"
         transform="translate(-588.67582,-54.719726)"
         id="path18" />
    </clipPath>
    <clipPath
       clipPathUnits="userSpaceOnUse"
       id="clipPath20">
      <path
         d="M 0,1600 H 900 V 0 H 0 Z"
         transform="translate(-601.08502,-61.459977)"
         id="path20" />
    </clipPath>
    <clipPath
       clipPathUnits="userSpaceOnUse"
       id="clipPath22">
      <path
         d="M 0,1600 H 900 V 0 H 0 Z"
         transform="translate(-628.56452,-43.979501)"
         id="path22" />
    </clipPath>
    <clipPath
       clipPathUnits="userSpaceOnUse"
       id="clipPath24">
      <path
         d="M 0,1600 H 900 V 0 H 0 Z"
         transform="translate(-643.79392,-63.957027)"
         id="path24" />
    </clipPath>
    <clipPath
       clipPathUnits="userSpaceOnUse"
       id="clipPath26">
      <path
         d="M 0,1600 H 900 V 0 H 0 Z"
         transform="translate(-673.20701,-37.423826)"
         id="path26" />
    </clipPath>
    <clipPath
       clipPathUnits="userSpaceOnUse"
       id="clipPath28">
      <path
         d="M 0,1600 H 900 V 0 H 0 Z"
         transform="translate(-687.39161,-63.460002)"
         id="path28" />
    </clipPath>
    <clipPath
       clipPathUnits="userSpaceOnUse"
       id="clipPath30">
      <path
         d="M 0,1600 H 900 V 0 H 0 Z"
         transform="translate(-720.59082,-36.115226)"
         id="path30" />
    </clipPath>
    <clipPath
       clipPathUnits="userSpaceOnUse"
       id="clipPath32">
      <path
         d="M 0,1600 H 900 V 0 H 0 Z"
         transform="translate(-740.89752,-63.957027)"
         id="path32" />
    </clipPath>
    <clipPath
       clipPathUnits="userSpaceOnUse"
       id="clipPath34">
      <path
         d="M 0,1600 H 900 V 0 H 0 Z"
         transform="translate(-757.74024,-54.719726)"
         id="path34" />
    </clipPath>
    <clipPath
       clipPathUnits="userSpaceOnUse"
       id="clipPath36">
      <path
         d="M 0,1600 H 900 V 0 H 0 Z"
         transform="translate(-780.62604,-63.583977)"
         id="path36" />
    </clipPath>
    <clipPath
       clipPathUnits="userSpaceOnUse"
       id="clipPath38">
      <path
         d="M 0,1600 H 900 V 0 H 0 Z"
         transform="translate(-811.24802,-65.206077)"
         id="path38" />
    </clipPath>
    <clipPath
       clipPathUnits="userSpaceOnUse"
       id="clipPath40">
      <path
         d="M 0,1600 H 900 V 0 H 0 Z"
         transform="translate(-825.91412,-63.583977)"
         id="path40" />
    </clipPath>
    <clipPath
       clipPathUnits="userSpaceOnUse"
       id="clipPath42">
      <path
         d="M 0,1600 H 900 V 0 H 0 Z"
         transform="translate(-857.9062,-48.225626)"
         id="path42" />
    </clipPath>
  </defs>
  <g
     id="layer-MC0">
    <path
       id="path1"
       d="m 0,0 v -1600 h 899.599 v 103.5 l 0.401,0.025 V 0 Z"
       style="fill:#12253c;fill-opacity:1;fill-rule:nonzero;stroke:none"
       transform="matrix(1.3333333,0,0,-1.3333333,0,-1.3333333e-4)" />
  </g>
  <g
     id="layer-MC1">
    <path
       id="path2"
       d="M 0,0 -1.45,13.2 1,10.75 2.399,-2.4 Z M 11.399,16.95 12.25,8.2 10.05,6.1 8.699,7.4 10.6,9.3 l -9.05,9.05 4.2,4.2 z m -24.149,28.5 1.399,-1.4 -2.2,-2.2 8.651,-8.6 -4.201,-4.2 -4.849,4.85 -1,9.4 z M -3.7,40.7 -5.101,54.5 -2.7,52.05 -1.2,38.25 Z m 22.099,-0.8 2.701,-2.8 -1.401,-1.4 -2.75,2.75 -25.75,-25.8 -9.349,1.1 -2.8,2.75 1.099,1.1 2.55,-2.5 25.75,25.8 z M -29.5,29.45 -16.4,28.1 -13.9,25.6 -27.051,27 Z m 55.149,-5.3 v -2.075 l -11.95,1.325 -2.449,2.45 14.3,-1.6 z M -71.7,-75.7 l -2.101,-2.2 -1.399,1.35 1.899,1.95 -9.05,9.05 4.201,4.25 5.65,-5.65 z m -11.2,2.55 1.45,-13.15 -2.45,2.45 -1.451,13.15 z m -12.35,33.25 -2.2,-2.15 8.7,-8.6 -4.25,-4.2 -4.851,4.85 -1,9.4 2.201,2.1 z m 22.55,-18.15 14.349,-1.6 2.451,-2.45 -14.35,1.6 z m -31,-8.25 2.55,-2.5 25.75,25.75 9.9,-1 2.699,-2.8 -1.399,-1.4 -2.75,2.75 -25.8,-25.75 -9.301,1.1 -2.8,2.8 z m -9.7,11.85 13.099,-1.35 2.5,-2.5 -13.149,1.45 z m 26.799,22.55 1.451,-13.75 -2.5,2.5 -1.35,13.7 z m -78.75,29.5 -2.45,2.4 -1.399,13.2 2.399,-2.45 z m 8.951,19.35 0.799,-8.75 -2.099,-2.2 -1.401,1.4 1.901,1.95 -9.05,9 4.199,4.2 z m 14.15,7.35 2.449,-2.5 -14.349,1.6 -2.451,2.45 z m -36.9,19.75 -2.201,-2.15 8.701,-8.65 -4.25,-4.2 -4.85,4.85 -1,9.45 2.199,2.1 z m 6.25,10.4 2.45,-2.45 1.399,-13.75 -2.5,2.55 z m -12.151,-39.35 25.75,25.75 9.901,-1 2.7,-2.8 -1.401,-1.45 -2.75,2.8 -25.799,-25.75 -9.3,1.15 -2.8,2.7 1.149,1.1 z m 0.901,13.05 2.45,-2.55 -13.151,1.4 -2.45,2.45 z m 101.25,66.5 1.45,-13.15 -2.45,2.4 -1.451,13.2 z m 10.25,15.1 14.299,-1.55 2.451,-2.5 -14.3,1.6 z m 0.15,-8.9 0.899,-8.75 -2.2,-2.15 -1.399,1.4 1.899,1.9 -9.05,9 4.201,4.2 z m 5.55,21.5 -25.75,-25.8 -9.351,1.15 -2.8,2.7 1.151,1.1 2.55,-2.5 25.75,25.8 9.9,-1 2.699,-2.8 -1.399,-1.45 z m -30.901,-4.55 -1,9.45 2.201,2.15 1.4,-1.4 -2.2,-2.2 8.7,-8.65 -4.25,-4.2 z m 11.25,18.15 1.5,-13.8 -2.5,2.55 -1.399,13.7 z m -26.799,-22.6 13.099,-1.3 2.5,-2.55 -13.149,1.4 z m -70.75,82.6 2.45,-2.55 -13.151,1.4 -2.45,2.45 z m 25.049,-20.7 1.901,1.85 -9.05,9.05 4.199,4.2 5.651,-5.55 0.799,-8.8 -2.149,-2.15 z m -10.2,5.75 2.45,-2.45 1.401,-13.15 -2.401,2.4 z m 21.2,22.45 -2.799,2.8 -25.75,-25.8 -9.3,1.1 -2.8,2.75 1.149,1.05 2.5,-2.45 25.75,25.8 9.901,-1 2.75,-2.8 z m 5.851,-11.35 2.449,-2.45 -14.349,1.55 -2.451,2.4 z m -36.9,19.8 -2.201,-2.2 8.651,-8.65 -4.25,-4.25 -4.851,4.9 -0.949,9.4 2.199,2.2 z m 8.599,7.95 1.551,-13.85 -2.5,2.55 -1.45,13.7 z m 98.051,48.8 0.8,-8.7 -2.2,-2.2 -1.3,1.35 1.95,1.9 -9.051,9.05 4.151,4.2 z m -25.301,8.6 -13.149,1.45 -2.45,2.45 13.099,-1.35 z m 14.851,-14.8 1.399,-13.2 -2.399,2.45 -1.45,13.15 z m -15.901,32.55 2.201,2.2 1.4,-1.4 -2.2,-2.2 8.599,-8.65 -4.149,-4.25 -4.851,4.9 z m 12.201,8.75 1.549,-13.8 -2.5,2.55 -1.45,13.65 z m 21.099,-12.2 2.75,-2.75 -1.399,-1.45 -2.8,2.8 -25.75,-25.75 -9.25,1.05 -2.801,2.75 1.101,1.1 2.45,-2.45 25.75,25.75 z M 2.399,165.4 0,167.8 -1.45,181 1,178.55 Z m -16.299,28 -13.151,1.4 -2.449,2.45 13.1,-1.3 z m 32.299,14.3 2.701,-2.8 -1.401,-1.45 -2.75,2.8 -25.75,-25.75 -9.3,1.05 -2.799,2.75 1.049,1.15 2.55,-2.5 25.75,25.75 z m -7.149,-14 14.3,-1.6 0.099,-0.1 v -2.125 l -11.95,1.375 z m -5.5,-3.35 5.649,-5.65 0.851,-8.65 -2.2,-2.2 -1.351,1.4 1.95,1.85 -9.049,9.05 z m -18.5,22.95 1.399,-1.4 -2.2,-2.2 8.651,-8.65 -4.151,-4.25 -4.849,4.9 -1.05,9.4 z m 10.05,6.55 1.5,-13.75 -2.5,2.55 -1.401,13.6 z m -53.2,53.7 -14.35,1.6 -2.45,2.4 14.349,-1.6 z m 55.849,62.05 -1.449,13.15 2.449,-2.4 1.401,-13.2 z m 10.7,9.35 -9.049,9.05 4.15,4.15 5.649,-5.6 0.8,-8.7 L 10,341.65 8.699,343 Z m 6.25,29.1 -25.75,-25.75 -9.25,1.05 -2.799,2.75 1.049,1.1 2.5,-2.5 25.75,25.75 9.901,-1 2.8,-2.75 -1.401,-1.45 z m -5.7,-12.6 14.401,-1.6 0.049,-0.05 v -2.075 l -12,1.325 z m -25.099,-0.3 -13.151,1.45 -2.449,2.4 13.1,-1.3 z m 0.349,16.35 8.601,-8.7 -4.151,-4.15 -4.849,4.9 -1,9.35 2.2,2.2 1.399,-1.4 z m 10.801,10.15 1.55,-13.8 -2.5,2.55 -1.5,13.65 z m -166.551,-38.9 2.45,-2.4 1.401,-13.2 -2.401,2.45 z m 12.851,3.8 0.849,-8.7 -2.149,-2.2 -1.4,1.35 1.95,1.9 -9,9.1 4.149,4.2 z m -27.8,11.15 2.55,-2.45 -13.151,1.4 -2.45,2.45 z m 37.55,9.05 -1.401,-1.45 -2.799,2.75 -25.75,-25.75 -9.3,1.05 -2.75,2.8 1.099,1.1 2.5,-2.55 25.75,25.75 9.901,-1 z m -9.901,-11.3 14.3,-1.6 2.45,-2.4 -14.299,1.6 z m -20.299,3.15 -4.85,4.85 -1.051,9.45 2.2,2.2 1.401,-1.4 -2.2,-2.2 8.7,-8.7 z m 6.349,23.05 1.551,-13.75 -2.551,2.5 -1.399,13.65 z m 89,29.4 -2.399,2.45 -1.45,13.15 2.45,-2.4 z m 8.851,28.3 14.349,-1.6 2.451,-2.45 -14.35,1.6 z m 0.149,-8.9 0.851,-8.7 -2.2,-2.2 -1.35,1.35 1.949,1.95 -9,9.1 4.151,4.15 z m -40.849,12.5 13.049,-1.35 2.55,-2.5 -13.149,1.45 z m 47.849,10.4 2.75,-2.7 -1.399,-1.45 -2.8,2.75 -25.75,-25.75 -9.301,1.05 -2.75,2.8 1.101,1.1 2.45,-2.55 25.75,25.75 z m -29.75,4.2 -2.199,-2.2 8.649,-8.65 -4.149,-4.15 -4.851,4.85 -1.049,9.4 2.2,2.2 z m 7.651,-3.25 -1.401,13.65 2.401,-2.45 1.549,-13.7 z m 2.299,140.15 2.451,-2.45 1.45,-13.15 -2.45,2.4 z m 13.651,-4.95 -2.2,-2.2 -1.35,1.4 1.949,1.95 -9,9.05 4.2,4.2 5.601,-5.65 z m -70.55,-67.85 2.449,-2.45 -14.349,1.6 -2.451,2.45 z m -16.9,-16.85 1.95,1.95 -9,9.1 4.149,4.15 5.601,-5.65 0.849,-8.7 -2.149,-2.2 z m -7.701,3.3 1.401,-13.15 -2.401,2.45 -1.45,13.15 z m -14.549,31.15 8.7,-8.65 -4.2,-4.15 -4.85,4.85 -1.051,9.4 2.2,2.2 1.401,-1.45 z m 9.849,-1.05 -1.399,13.65 2.399,-2.45 1.551,-13.7 z m -12.699,-12.7 2.55,-2.5 -13.151,1.45 -2.45,2.4 z m -4.45,-11.55 1.099,1.1 2.5,-2.55 25.75,25.75 9.901,-1 2.75,-2.75 -1.401,-1.4 -2.799,2.75 -25.75,-25.75 -9.3,1.05 z m 4.55,179.35 2.45,-2.5 -13.151,1.4 -2.45,2.45 z m 17.349,-17.35 1.45,-13.15 -2.45,2.4 -1.399,13.2 z m 24.551,13.5 2.449,-2.45 -14.349,1.65 -2.451,2.45 z m -14.15,-7.3 0.799,-8.7 -2.149,-2.15 -1.4,1.3 1.95,1.95 -9.05,9.05 4.199,4.15 z m 90.849,-61 2.75,-2.75 -1.399,-1.4 -2.8,2.7 -25.75,-25.75 -9.301,1.15 -2.75,2.8 1.101,1.05 2.45,-2.55 25.75,25.75 z m -31.149,5.65 1.399,-1.45 -2.149,-2.2 8.7,-8.65 -4.25,-4.15 -4.851,4.85 -1,9.4 z m 10.05,6.5 1.549,-13.7 -2.549,2.5 -1.401,13.65 z m -26.701,-22.55 13.05,-1.35 2.551,-2.5 -13.15,1.45 z M 1,514.1 2.399,500.95 0,503.4 -1.45,516.55 Z m 10.199,15.15 14.351,-1.6 0.099,-0.1 v -2.1 l -12,1.35 z M 10,509.45 l -1.351,1.35 1.951,1.95 -9,9.1 4.2,4.15 5.599,-5.65 0.8,-8.7 z m -13.75,34.75 -1.45,13.65 2.45,-2.45 1.55,-13.7 z m -7.65,3.25 -2.151,-2.2 8.651,-8.65 -4.201,-4.15 -4.849,4.85 -1,9.4 2.099,2.2 z m 29.7,-4.2 2.8,-2.75 -1.401,-1.4 -2.8,2.75 -25.75,-25.75 -9.299,1.1 -2.75,2.8 1.049,1.05 2.5,-2.55 25.75,25.75 z m -47.75,-10.4 13.05,-1.35 2.549,-2.5 -13.149,1.45 z m -26.45,76.25 -14.35,1.6 -2.45,2.45 14.349,-1.6 z M 0,671.2 -1.45,684.4 1,681.95 2.399,668.8 Z m -13.851,25.65 -13.149,1.45 -2.45,2.4 13.05,-1.35 z M 1.6,689.6 l 4.2,4.25 5.599,-5.65 0.8,-8.8 -2.149,-2.2 -1.351,1.4 1.901,1.95 z m 24.049,5.8 v -2.1 l -12,1.3 -2.45,2.45 14.351,-1.55 z m -265.099,-771.1 -2.151,-2.2 -1.349,1.4 1.899,1.95 -9.099,9 4.2,4.15 5.649,-5.6 z m -12.25,-8.25 -1.401,13.2 2.401,-2.45 1.45,-13.15 z m 28,21.8 -14.351,1.65 -2.449,2.45 14.399,-1.6 z m -45.3,-6.65 25.8,25.75 9.849,-1 2.701,-2.8 -1.401,-1.4 -2.75,2.75 -25.75,-25.75 -9.3,1.15 -2.799,2.75 1.099,1.05 z m -12.2,14.3 13.149,-1.3 2.5,-2.55 -13.199,1.4 z m 16.75,16.1 1.45,-1.45 -2.2,-2.2 8.649,-8.65 -4.199,-4.15 -4.9,4.85 -1,9.4 z m 10.099,6.5 1.401,-13.75 -2.5,2.55 -1.351,13.65 z m -78.849,29.45 -2.45,2.4 -1.401,13.2 2.401,-2.45 z m 11.2,25.85 -2.45,2.45 14.45,-1.6 2.399,-2.45 z m -7.851,-0.9 5.651,-5.55 0.8,-8.75 -2.151,-2.2 -1.3,1.4 1.901,1.95 -9.101,9 z m -8.45,29.5 1.45,-13.75 -2.45,2.55 -1.449,13.65 z m -18.25,-35.5 1.101,1.1 2.5,-2.5 25.8,25.75 9.849,-1 2.801,-2.8 -1.45,-1.45 -2.8,2.8 -25.75,-25.75 -9.25,1.15 z m 7.101,9.05 -13.2,1.4 -2.401,2.45 13.101,-1.3 z m 2.55,18.5 -2.201,-2.2 8.601,-8.65 -4.2,-4.15 -4.901,4.85 -0.95,9.4 2.2,2.15 z m 96.15,50.6 1.449,-13.15 -2.449,2.4 -1.4,13.2 z m 9.699,-1.4 -9.099,9 4.2,4.2 5.649,-5.55 0.75,-8.8 -2.099,-2.2 -1.3,1.35 z m 2.95,14.05 -2.45,2.45 14.45,-1.55 2.401,-2.45 z m -165.349,-170.25 -2.45,2.45 14.45,-1.6 2.399,-2.45 z m -12.651,-12.65 1.451,-13.2 -2.451,2.45 -1.45,13.15 z m 0.601,7.55 4.199,4.25 5.651,-5.6 0.75,-8.7 -2.201,-2.2 -1.299,1.35 2,1.9 z m -21.4,-0.7 2.45,-2.5 25.75,25.75 9.95,-1 2.75,-2.8 -1.4,-1.4 -2.8,2.8 -25.75,-25.75 -9.25,1.05 -2.8,2.75 z m -7.201,9.4 -2.449,2.4 13.15,-1.3 2.45,-2.55 z m 14.25,18.5 1.401,-1.45 -2.1,-2.15 8.6,-8.7 -4.25,-4.2 -4.85,4.85 -0.95,9.45 z m 10,6.5 1.55,-13.75 -2.5,2.55 -1.449,13.65 z M -502.4,10.7 -500,8.25 -498.55,-4.9 -501,-2.45 Z m 12.6,12.7 14.4,-1.6 2.45,-2.45 -14.401,1.6 z m -5.4,-3.25 5.65,-5.65 0.8,-8.7 -2.2,-2.2 -1.401,1.35 1.951,1.9 -9,9.05 z m -10.95,31.85 2.4,-2.45 1.55,-13.7 -2.55,2.5 z m -14.65,-36.8 2.5,-2.55 25.75,25.75 9.9,-1 2.799,-2.75 -1.449,-1.4 -2.801,2.75 -25.75,-25.75 -9.299,1.05 -2.75,2.8 z m -9.6,11.8 13.049,-1.35 2.551,-2.5 -13.2,1.45 z m 16.6,16.05 1.4,-1.45 -2.1,-2.2 8.649,-8.65 -4.199,-4.2 -4.9,4.85 -1,9.45 z m 95.249,51.55 1.45,-13.2 -2.45,2.45 -1.399,13.2 z m 10.401,6.25 0.849,-8.75 -2.149,-2.2 -1.351,1.35 1.901,2 -9.05,9.05 4.25,4.15 z m 16.599,4.85 -14.349,1.6 -2.401,2.45 14.351,-1.65 z m -11.099,16.6 -25.75,-25.75 -9.3,1.15 -2.7,2.75 1.049,1.1 2.5,-2.55 25.8,25.75 9.851,-1 2.8,-2.75 -1.451,-1.45 z m -19.55,13.6 1.5,-13.7 -2.55,2.5 -1.4,13.6 z m -12.3,-8.75 2.2,2.2 1.449,-1.4 -2.199,-2.2 8.65,-8.65 -4.201,-4.15 -4.899,4.85 z m -14.45,-13.8 13.05,-1.35 2.549,-2.5 -13.199,1.4 z m -68.3,80.05 -13.15,1.4 -2.451,2.45 13.051,-1.4 z m 14.85,-14.9 1.4,-13.2 -2.45,2.45 -1.401,13.15 z m 4.799,11.85 5.551,-5.65 0.85,-8.7 -2.151,-2.2 -1.349,1.35 1.9,1.95 -9.051,9.1 z m 15.301,14.55 -1.45,-1.45 -2.75,2.75 -25.75,-25.75 -9.351,1.1 -2.699,2.8 1.05,1.1 2.5,-2.55 25.8,25.75 9.849,-1.05 z m 6.9,-15.3 -14.4,1.6 -2.4,2.4 14.349,-1.6 z m -30.701,30.2 1.5,-13.7 -2.549,2.45 -1.4,13.65 z m -10.099,-6.55 1.45,-1.4 -2.2,-2.2 8.65,-8.7 -4.2,-4.15 -4.851,4.9 -1.049,9.35 z m 67.25,67.95 13.05,-1.4 2.549,-2.45 -13.199,1.4 z m 16.65,15.95 1.449,-1.45 -2.199,-2.1 8.65,-8.65 -4.201,-4.25 -4.899,4.9 -1,9.4 z m 13.749,-34.7 1.45,-13.2 -2.45,2.45 -1.399,13.15 z m 11.25,-2.55 -2.149,-2.2 -1.351,1.35 1.901,1.95 -9.05,9.1 4.25,4.2 5.55,-5.65 z m -1,17.6 14.351,-1.55 2.399,-2.4 -14.349,1.55 z m -16.349,28.6 2.45,-2.45 1.5,-13.7 -2.55,2.5 z m 22.099,-16 -25.849,-25.75 -9.3,1.1 -2.7,2.8 1.1,1.05 2.5,-2.55 25.749,25.75 9.901,-1 2.799,-2.7 -1.45,-1.45 z m 172,-169.15 -1.449,-1.45 -2.801,2.8 -25.8,-25.75 -9.25,1.15 -2.799,2.7 1.15,1.1 2.5,-2.5 25.75,25.75 9.899,-1 z m -23.849,14.95 1.45,-13.75 -2.5,2.55 -1.401,13.6 z m -26.8,-22.55 13.149,-1.3 2.5,-2.55 -13.199,1.4 z m 14.55,13.9 2.2,2.1 1.45,-1.4 -2.2,-2.15 8.599,-8.65 -4.25,-4.2 -4.849,4.85 z m -96,67.6 -2.401,2.45 13.051,-1.35 2.55,-2.5 z m 25.599,-13.85 2.401,-2.45 1.45,-13.15 -2.45,2.4 z m 7.2,9.4 5.601,-5.6 0.85,-8.8 -2.151,-2.2 -1.349,1.35 1.9,1.95 -9.051,9.1 z m 13.951,13.05 -2.8,2.75 -25.8,-25.75 -9.301,1.1 -2.75,2.8 1.151,1.1 2.5,-2.55 25.75,25.75 9.9,-1.05 2.8,-2.7 z m -6.1,-12.25 -2.45,2.4 14.399,-1.5 2.401,-2.45 z m -16.301,28.6 1.45,-13.7 -2.549,2.45 -1.35,13.65 z m -10.099,-6.55 1.4,-1.4 -2.15,-2.15 8.65,-8.65 -4.2,-4.25 -4.901,4.9 -1,9.4 z m 69.65,65.5 -2.45,2.45 13.05,-1.4 2.599,-2.45 z m 17.899,1.95 -4.849,4.9 -1,9.4 2.2,2.2 1.399,-1.4 -2.2,-2.2 8.7,-8.65 z m 20.351,-3.2 14.3,-1.55 2.45,-2.4 -14.301,1.55 z m -5.45,-3.2 5.599,-5.65 0.901,-8.75 -2.2,-2.15 -1.401,1.35 1.901,1.9 -9,9.1 z m -4.8,-11.85 1.449,-13.2 -2.449,2.45 -1.4,13.15 z m -4.7,30 -1.401,13.7 2.451,-2.4 1.5,-13.8 z m 22.099,-0.9 2.8,-2.7 -1.449,-1.45 -2.801,2.75 -25.75,-25.8 -9.349,1.1 -2.75,2.8 1.15,1.05 2.5,-2.55 25.75,25.85 z M -590.05,-31.9 l 2.449,-2.45 1.5,-13.7 -2.549,2.5 z m 30.65,-30.2 2.5,-2.45 -14.35,1.6 -2.45,2.45 z m -26.951,-11.1 2.401,-2.4 1.45,-13.2 -2.45,2.45 z m 7.201,9.45 5.65,-5.65 0.85,-8.75 -2.201,-2.15 -1.399,1.35 2,1.9 -9.05,9.1 z m -23.9,-8.85 -2.7,2.8 1.05,1.1 2.5,-2.55 25.75,25.75 9.9,-1 2.8,-2.7 -1.45,-1.45 -2.8,2.75 -25.75,-25.8 z m 4.3,11.85 -13.2,1.45 -2.45,2.45 13.1,-1.4 z m -0.101,8.25 -1.049,9.45 2.2,2.2 1.4,-1.45 -2.2,-2.15 8.7,-8.7 -4.15,-4.2 z m -67.549,47.6 -2.451,2.45 -1.399,13.15 2.399,-2.45 z m 3.35,25.05 5.6,-5.65 0.9,-8.8 -2.2,-2.1 -1.351,1.35 1.951,1.9 -9.05,9.05 z m 5.5,3.25 14.3,-1.6 2.399,-2.45 -14.299,1.6 z m -28.551,-10.75 25.75,25.75 9.901,-1 2.8,-2.75 -1.451,-1.4 -2.75,2.75 -25.75,-25.85 -9.349,1.15 -2.7,2.8 1.049,1.1 z M -698.25,27 l 13.05,-1.35 2.55,-2.5 -13.201,1.45 z m 18.1,14.6 -2.201,-2.2 8.651,-8.65 -4.151,-4.2 -4.849,4.85 -1.1,9.45 2.199,2.2 z m 6.2,10.4 2.45,-2.45 1.55,-13.7 -2.55,2.5 z m 75.25,55.05 -13.2,1.45 -2.4,2.4 13.05,-1.35 z m 14.8,-14.9 1.45,-13.15 -2.45,2.4 -1.4,13.2 z m 4.85,11.9 5.55,-5.65 0.85,-8.75 -2.201,-2.15 -1.399,1.35 2,1.9 -9.05,9.05 z m 22.15,-0.8 -14.35,1.6 -2.45,2.45 14.4,-1.6 z m -167.85,-167.8 -14.3,1.55 -2.4,2.45 14.3,-1.55 z m -17.9,-15.75 -1.35,1.35 1.899,1.9 -9.049,9.1 4.25,4.2 5.549,-5.65 0.901,-8.75 z m -11.5,7.1 2.45,-2.4 1.4,-13.2 -2.45,2.45 z m -15.85,1.9 25.75,25.8 9.899,-1.05 2.801,-2.75 -1.45,-1.4 -2.75,2.75 -25.75,-25.75 -9.4,1.1 -2.701,2.8 1.101,1.05 z m 3.45,10.55 -13.2,1.45 -2.4,2.45 13.049,-1.4 z m 0.3,16.3 8.649,-8.7 -4.199,-4.2 -4.9,4.85 -1,9.45 2.2,2.2 1.45,-1.45 z m 10.85,10.1 1.549,-13.75 -2.549,2.5 -1.451,13.7 z m -82.65,45.1 2.449,-2.4 1.401,-13.2 -2.45,2.45 z m 27,11.05 2.449,-2.45 -14.299,1.6 -2.451,2.45 z m -19.801,-1.65 5.601,-5.65 0.899,-8.7 -2.199,-2.15 -1.35,1.3 1.9,1.9 -9.101,9.05 z m -25.599,-5 2.55,-2.55 25.75,25.8 9.9,-1 2.75,-2.8 -1.45,-1.4 -2.7,2.8 -25.75,-25.75 -9.4,1.05 -2.75,2.8 z m 3.45,10.5 2.5,-2.5 -13.2,1.45 -2.401,2.4 z m 5.05,15.95 -2.2,-2.2 8.65,-8.6 -4.2,-4.2 -4.85,4.85 -1.051,9.4 2.201,2.2 z m 6.2,10.45 2.45,-2.45 1.5,-13.8 -2.5,2.5 z m 75.149,55 -13.199,1.45 -2.4,2.4 13.099,-1.35 z m 14.901,-14.85 1.4,-13.15 -2.45,2.45 -1.4,13.15 z m 10.349,6.2 0.901,-8.75 -2.2,-2.1 -1.35,1.3 1.95,1.9 -9.1,9.05 4.15,4.25 z m 16.601,4.85 -14.3,1.65 -2.4,2.45 14.3,-1.65 z m -6.851,15.3 -1.449,-1.4 -2.7,2.8 -25.75,-25.85 -9.351,1.1 -2.75,2.8 1.051,1.1 2.55,-2.55 25.75,25.75 9.899,-0.95 z m -22.299,1.2 -2.5,2.5 -1.451,13.7 2.451,-2.45 z m -10.15,5.75 -2.2,-2.2 8.649,-8.6 -4.149,-4.2 -4.851,4.85 -1.099,9.4 2.2,2.2 z m -74.051,53.05 2.5,-2.45 1.401,-13.15 -2.45,2.45 z m -28,16.25 13.101,-1.35 2.5,-2.5 -13.2,1.4 z m 24.601,3.8 -4.15,-4.2 -4.9,4.85 -1.051,9.4 2.201,2.15 1.45,-1.4 -2.2,-2.2 z m 14.899,-27.15 -1.299,1.3 1.95,1.9 -9.05,9.05 4.149,4.2 5.601,-5.6 0.85,-8.75 z m 1.201,19.8 14.35,-1.65 2.449,-2.45 -14.299,1.65 z m 8.45,9.8 -2.7,2.75 -25.75,-25.8 -9.3,1.1 -2.8,2.75 1.05,1.15 2.55,-2.5 25.75,25.75 9.9,-1 2.75,-2.8 z m -22.401,16.35 1.551,-13.75 -2.5,2.5 -1.5,13.7 z m 87.701,42.6 1.4,-13.15 -2.4,2.4 -1.5,13.2 z m -30.5,18.7 13.1,-1.35 2.5,-2.5 -13.2,1.4 z m 16.65,16 1.45,-1.4 -2.15,-2.2 8.65,-8.6 -4.2,-4.2 -4.95,4.85 -0.95,9.35 z m 11.6,-7.15 -2.5,2.5 -1.5,13.7 2.45,-2.45 z m 12.4,-12.4 14.399,-1.65 2.451,-2.45 -14.4,1.65 z m 0.2,-8.95 0.8,-8.7 -2.2,-2.2 -1.3,1.35 1.95,1.85 -9.1,9.1 4.25,4.2 z m 9.699,20.15 -1.449,-1.4 -2.7,2.75 -25.75,-25.75 -9.351,1 -2.75,2.8 1.051,1.15 2.55,-2.5 25.75,25.75 9.899,-1 z m 167.851,-167.8 -1.45,-1.4 -2.8,2.7 -25.75,-25.75 -9.3,1.1 -2.7,2.8 1.05,1.1 2.5,-2.55 25.75,25.75 9.9,-1 z m -26.3,17.35 2.449,-2.45 1.5,-13.7 -2.549,2.5 z m -9.801,-11.15 2.151,2.2 1.4,-1.45 -2.1,-2.2 8.65,-8.65 -4.2,-4.2 -4.901,4.85 z m -82.799,66.2 -13.201,1.4 -2.399,2.45 13.1,-1.35 z m 9,7.65 -4.201,-4.2 -4.849,4.85 -1.05,9.4 2.149,2.15 1.451,-1.4 -2.15,-2.2 z m 7.299,-35.65 -2.449,2.45 -1.4,13.15 2.45,-2.45 z m 9.801,10.65 -2.2,-2.15 -1.351,1.3 1.951,1.9 -9.1,9.05 4.2,4.2 5.65,-5.6 z m 6.1,31.65 2.75,-2.8 -1.45,-1.4 -2.701,2.75 -25.75,-25.75 -9.349,1.05 -2.75,2.75 1.05,1.15 2.549,-2.55 25.75,25.75 z m 9.65,-18.1 -14.35,1.65 -2.4,2.45 14.35,-1.65 z m -30.7,30.25 1.45,-13.75 -2.45,2.5 -1.45,13.7 z m 84.2,34.3 -1.45,13.15 2.45,-2.4 1.4,-13.2 z m -29.5,29.45 13.1,-1.4 2.5,-2.5 -13.2,1.45 z m 15.949,12.4 8.651,-8.6 -4.2,-4.2 -4.85,4.9 -1,9.3 2.149,2.2 1.451,-1.45 z m 10.851,10.2 1.45,-13.8 -2.5,2.5 -1.35,13.7 z m 13.899,-26.2 14.351,-1.65 2.45,-2.4 -14.4,1.65 z m 0.151,-8.95 0.849,-8.65 -2.149,-2.2 -1.351,1.3 1.901,1.95 -9.1,9.1 4.25,4.15 z m 6.95,22.95 2.75,-2.75 -1.45,-1.45 -2.7,2.8 -25.75,-25.75 -9.35,1.05 -2.75,2.8 1.05,1.05 2.55,-2.45 25.799,25.75 z m -90.8,60.95 0.75,-8.65 -2.15,-2.2 -1.3,1.3 1.899,1.95 -9.049,9.1 4.2,4.15 z m -12.9,-3.75 2.45,-2.4 1.45,-13.2 -2.4,2.45 z m -12.05,28.65 8.6,-8.6 -4.201,-4.15 -4.849,4.9 -0.95,9.3 2.2,2.2 1.4,-1.45 z m -15.95,-12.4 13.099,-1.3 2.5,-2.55 -13.149,1.45 z m 26.75,22.65 1.5,-13.8 -2.5,2.55 -1.45,13.65 z m 21,-12.2 2.8,-2.75 -1.451,-1.45 -2.75,2.8 -25.75,-25.75 -9.25,1.05 -2.799,2.8 1.049,1.05 2.551,-2.5 25.8,25.75 z m -7.1,-14 14.4,-1.65 2.45,-2.45 -14.45,1.7 z m 75.15,55.65 -2.4,2.45 -1.5,13.15 2.449,-2.4 z m 8.95,19.35 0.8,-8.7 -2.15,-2.2 -1.301,1.3 1.901,1.95 -9.1,9.1 4.25,4.2 z m 16.65,4.85 -14.45,1.6 -2.4,2.45 14.4,-1.6 z m -41.9,3.8 -13.2,1.45 -2.4,2.4 13.1,-1.3 z m 0.349,16.25 8.601,-8.6 -4.2,-4.2 -4.85,4.85 -0.95,9.4 2.149,2.15 1.451,-1.45 z m 9.801,-1.05 -1.45,13.65 2.45,-2.45 1.5,-13.75 z m 22.05,-0.95 2.8,-2.8 -1.401,-1.4 -2.799,2.8 -25.8,-25.75 -9.3,1.05 -2.75,2.8 1.1,1.05 2.549,-2.5 25.75,25.75 z m -254,-102.75 -2.4,2.45 14.4,-1.6 2.45,-2.45 z m -12.601,-12.7 1.401,-13.15 -2.45,2.4 -1.4,13.2 z m 4.801,11.8 5.6,-5.55 0.8,-8.75 -2.201,-2.2 -1.299,1.4 1.95,1.9 -9.05,9 z m -17.15,21.55 -2.151,-2.2 8.601,-8.65 -4.2,-4.25 -4.85,4.9 -0.95,9.4 2.1,2.2 z m -18.1,-14.65 13.1,-1.3 2.5,-2.55 -13.151,1.4 z m 26.699,22.6 1.551,-13.75 -2.5,2.55 -1.5,13.65 z m 21.051,-12.15 2.8,-2.8 -1.45,-1.45 -2.75,2.8 -25.75,-25.75 -9.25,1.1 -2.8,2.7 1.05,1.15 2.5,-2.5 25.75,25.75 z m 88.75,70.7 2.449,-2.45 -14.399,1.6 -2.45,2.45 z m -14.15,-7.3 0.75,-8.7 -2.151,-2.2 -1.299,1.35 1.9,1.95 -9.05,9.05 4.199,4.15 z m -11.45,-16.95 -1.451,13.15 2.451,-2.4 1.4,-13.2 z m -16.35,28.1 2.5,-2.55 -13.15,1.45 -2.451,2.4 z m 2.85,13.75 8.6,-8.65 -4.2,-4.15 -4.851,4.85 -0.949,9.4 2.199,2.2 1.401,-1.45 z m 9.799,-1.05 -1.399,13.65 2.399,-2.45 1.5,-13.75 z m 22,-0.95 2.801,-2.8 -1.4,-1.4 -2.8,2.8 -25.75,-25.75 -9.25,1.1 -2.8,2.75 1.05,1.05 2.5,-2.5 25.8,25.75 z m -18.299,128 -1.451,13.15 2.451,-2.45 1.4,-13.15 z m 8.7,7.35 1.9,1.95 -9,9.05 4.199,4.25 5.601,-5.65 0.8,-8.8 -2.151,-2.2 z m -78.95,-67.9 -2.451,2.45 14.351,-1.6 2.45,-2.45 z m -12.65,-12.7 1.4,-13.15 -2.4,2.45 -1.45,13.15 z m 4.8,11.9 5.6,-5.65 0.799,-8.7 -2.099,-2.2 -1.401,1.35 1.901,1.95 -9,9.1 z m -23.15,-7.5 25.85,25.75 9.8,-1 2.8,-2.8 -1.401,-1.4 -2.799,2.8 -25.75,-25.75 -9.3,1.1 -2.75,2.75 1.099,1.05 z m -10.451,12.65 v 1.475 l 11.401,-1.125 2.55,-2.55 -13.15,1.4 z m 18.701,1.3 -4.85,4.85 -1,9.4 2.2,2.2 1.4,-1.45 -2.201,-2.2 8.701,-8.65 z m 5.35,11.75 -1.35,13.65 2.4,-2.45 1.5,-13.75 z m -10.1,152.65 -13.201,1.45 -0.75,0.725 v 1.5 l 11.401,-1.175 z m 14.85,-14.9 1.4,-13.15 -2.4,2.4 -1.45,13.2 z m 9.1,-4.75 -1.401,1.4 1.901,1.95 -9.05,9.05 4.2,4.25 5.65,-5.65 0.799,-8.8 z m 15.45,18.3 2.45,-2.45 -14.35,1.55 -2.451,2.45 z m 75.3,-69.8 -25.8,-25.75 -9.3,1.15 -2.75,2.75 1.15,1.05 2.45,-2.5 25.75,25.75 9.95,-1 2.75,-2.8 -1.4,-1.4 z m 8.599,-14.1 2.451,-2.45 -14.35,1.55 -2.45,2.45 z m -55,5.15 13.051,-1.3 2.55,-2.55 -13.15,1.45 z m 26.75,22.55 1.5,-13.75 -2.549,2.55 -1.35,13.65 z m -8.649,-7.95 -2.2,-2.15 8.65,-8.65 -4.2,-4.2 -4.851,4.85 -1,9.45 2.201,2.15 z m 181.55,-46.45 -2.45,2.45 -1.4,13.15 2.449,-2.45 z m -0.85,20.75 4.25,4.25 5.6,-5.6 0.849,-8.8 -2.199,-2.1 -1.301,1.35 1.901,1.9 z m -74.25,-76.4 14.4,-1.55 2.45,-2.45 -14.45,1.55 z m 1,-17.6 -2.15,-2.2 -1.3,1.35 1.899,1.95 -9.049,9 4.2,4.25 5.65,-5.6 z m -28.551,19.9 2.5,-2.55 -13.149,1.45 -2.45,2.4 z m 17.351,-17.35 1.399,-13.2 -2.399,2.45 -1.45,13.15 z m -21.9,5.75 1.1,1.05 2.5,-2.5 25.75,25.75 9.9,-1 2.799,-2.8 -1.399,-1.4 -2.8,2.8 -25.801,-25.75 -9.25,1.1 z m 19.7,21.7 -2.5,2.55 -1.45,13.65 2.45,-2.45 z m -10.1,5.8 -2.2,-2.1 8.6,-8.7 -4.201,-4.2 -4.849,4.85 -0.95,9.45 2.2,2.15 z m -2.551,149.35 -13.149,1.4 -2.45,2.45 13.05,-1.3 z m 14.851,-14.85 1.399,-13.15 -2.399,2.4 -1.45,13.2 z m 10.35,6.25 0.9,-8.8 -2.2,-2.1 -1.35,1.35 1.9,1.9 -9,9.05 4.2,4.25 z m 16.65,4.85 -14.3,1.55 -2.45,2.45 14.3,-1.55 z m 72.85,-67.25 -25.75,-25.85 -9.35,1.15 -2.75,2.75 1.1,1.05 2.5,-2.5 25.75,25.8 9.9,-1 2.8,-2.8 -1.401,-1.4 z m -5.701,-12.65 14.351,-1.55 2.45,-2.45 -14.4,1.55 z m -40.699,3.6 13.1,-1.3 2.5,-2.55 -13.2,1.45 z m 26.75,22.6 1.55,-13.8 -2.5,2.55 -1.5,13.7 z m -10.051,-6.5 1.451,-1.45 -2.201,-2.2 8.601,-8.65 -4.2,-4.2 -4.85,4.85 -0.95,9.45 z m 263.05,-284.1 2.401,-2.4 1.45,-13.2 -2.45,2.45 z m 13.7,-4.95 -2.2,-2.15 -1.349,1.35 1.9,1.9 -9.051,9.1 4.2,4.2 5.601,-5.65 z m -26.099,17.45 -13.2,1.4 -2.401,2.45 13.051,-1.4 z m -1.151,17.65 2.201,2.2 1.4,-1.4 -2.15,-2.2 8.65,-8.7 -4.2,-4.2 -4.901,4.85 z m 26.25,-17.5 14.3,-1.55 2.401,-2.4 -14.3,1.5 z m 5.651,12.65 -25.7,-25.8 -9.401,1.1 -2.75,2.8 1.151,1.05 2.5,-2.55 25.75,25.8 9.9,-1 2.8,-2.7 -1.45,-1.45 z m -19.601,13.6 1.551,-13.8 -2.551,2.5 -1.449,13.7 z m 86.551,31.85 -1.4,13.15 2.4,-2.4 1.449,-13.2 z m 5.8,22.6 5.599,-5.65 0.901,-8.7 -2.2,-2.2 -1.401,1.35 2,1.9 -9.05,9.1 z m 19.75,1.65 2.45,-2.45 -14.301,1.6 -2.449,2.45 z m -52.55,2.8 -2.45,2.4 13.05,-1.35 2.599,-2.5 z m 14.25,18.45 1.399,-1.45 -2.2,-2.2 8.7,-8.65 -4.149,-4.2 -4.9,4.85 -1.05,9.45 z m 31.149,-5.65 2.8,-2.7 -1.449,-1.45 -2.801,2.75 -25.75,-25.75 -9.3,1.05 -2.75,2.8 1.101,1.1 2.5,-2.55 25.75,25.75 z m -22.099,0.95 -1.401,13.65 2.451,-2.45 1.5,-13.7 z m -246.95,-113.9 1.4,-13.2 -2.45,2.45 -1.401,13.2 z m 4.75,11.8 5.6,-5.65 0.85,-8.7 -2.151,-2.2 -1.349,1.3 1.9,1.95 -9.1,9.1 z m -20.75,20.7 2.2,2.15 1.45,-1.45 -2.2,-2.1 8.65,-8.6 -4.2,-4.25 -4.851,4.9 z m -14.5,-13.8 13.1,-1.4 2.5,-2.45 -13.2,1.4 z m 28.25,8.75 -2.5,2.5 -1.4,13.7 2.449,-2.4 z m 20.9,-2.6 -2.7,2.8 -25.8,-25.75 -9.351,1.05 -2.75,2.8 1.101,1.05 2.55,-2.5 25.75,25.75 9.9,-1 2.75,-2.75 z m -8.45,-9.8 14.349,-1.6 2.451,-2.4 -14.4,1.6 z m 72.649,58.1 -1.399,13.15 2.399,-2.4 1.45,-13.2 z m 11.401,16.9 0.9,-8.7 -2.2,-2.15 -1.351,1.3 1.901,1.9 -9.1,9.1 4.199,4.2 z m 16.599,4.85 -14.3,1.6 -2.399,2.45 14.3,-1.6 z m -41.849,3.8 -13.201,1.45 -2.399,2.4 13.1,-1.35 z m 0.35,16.25 8.65,-8.6 -4.201,-4.2 -4.899,4.85 -1,9.4 2.2,2.2 1.449,-1.45 z m 31.9,-1.95 2.75,-2.75 -1.451,-1.45 -2.7,2.8 -25.749,-25.8 -9.4,1.05 -2.8,2.8 1.149,1.05 2.551,-2.5 25.749,25.8 z m -22.05,0.85 -1.45,13.75 2.45,-2.4 1.5,-13.85 z m 4.599,137.8 1.5,-13.15 -2.45,2.45 -1.449,13.15 z m 7.8,-3.35 1.95,1.9 -9.099,9.05 4.149,4.25 5.651,-5.65 0.849,-8.65 -2.199,-2.2 z m -91.699,-80.5 1.5,-13.2 -2.45,2.45 -1.45,13.15 z m 4.85,11.8 5.6,-5.65 0.85,-8.7 -2.2,-2.15 -1.3,1.3 1.9,1.9 -9.1,9.05 z m 5.45,3.25 14.349,-1.6 2.451,-2.45 -14.4,1.6 z m -12.401,12.4 -2.5,2.55 -1.5,13.7 2.451,-2.45 z m -15.199,-10.1 2.5,-2.55 -13.2,1.45 -2.4,2.4 z m -1.801,-14.4 -2.75,2.8 1.101,1.05 2.55,-2.5 25.75,25.8 9.849,-1 2.801,-2.8 -1.45,-1.4 -2.75,2.8 -25.75,-25.8 z m 3.201,29.55 2.2,2.2 1.45,-1.45 -2.2,-2.2 8.599,-8.6 -4.199,-4.2 -4.9,4.85 z m 1.1,150.1 -13.2,1.4 -2.4,2.45 13.1,-1.3 z m 14.8,-14.85 1.45,-13.15 -2.45,2.4 -1.4,13.2 z m 0.649,7.6 4.201,4.2 5.6,-5.55 0.85,-8.75 -2.2,-2.15 -1.3,1.35 1.95,1.9 z m 26.451,3.5 -14.4,1.6 -2.4,2.45 14.349,-1.6 z m 72.75,-67.25 -25.75,-25.75 -9.25,1 -2.75,2.8 1.049,1.1 2.551,-2.5 25.749,25.75 9.851,-1 2.8,-2.8 -1.451,-1.4 z m -5.651,-12.6 14.351,-1.65 2.399,-2.45 -14.349,1.65 z m -13.949,26.15 1.55,-13.75 -2.5,2.55 -1.5,13.65 z m -26.75,-22.6 13.1,-1.3 2.5,-2.55 -13.201,1.45 z m 16.7,16.05 1.449,-1.45 -2.199,-2.2 8.6,-8.6 -4.151,-4.2 -4.899,4.85 -1,9.4 z m 180.55,-45.45 -1.4,13.15 2.4,-2.45 1.449,-13.15 z m 12.3,8.25 -2.2,-2.2 -1.401,1.3 2,1.95 -9.099,9.05 4.15,4.2 5.649,-5.65 z m -82.5,-68.75 -2.401,2.45 14.3,-1.65 2.401,-2.45 z m -12.7,-12.65 1.45,-13.2 -2.45,2.45 -1.401,13.15 z m 7.75,-3.4 1.95,1.9 -9.101,9.05 4.151,4.25 5.65,-5.65 0.899,-8.65 -2.2,-2.2 z m -12.401,33.4 -1.449,13.7 2.449,-2.45 1.45,-13.75 z m -23.399,-13.75 -2.45,2.4 13.15,-1.35 2.449,-2.5 z m 7.25,-9.4 2.55,-2.5 25.75,25.75 9.9,-1 2.75,-2.8 -1.45,-1.4 -2.75,2.8 -25.7,-25.75 -9.35,1 -2.801,2.8 z m 4.849,25.65 2.201,2.2 1.4,-1.45 -2.15,-2.2 8.65,-8.6 -4.15,-4.2 -4.901,4.85 z m 1.05,150.1 -13.149,1.4 -2.45,2.45 13.15,-1.3 z m 14.851,-14.85 1.5,-13.15 -2.45,2.4 -1.5,13.2 z m 0.649,7.65 4.151,4.15 5.65,-5.6 0.85,-8.7 -2.201,-2.15 -1.299,1.3 1.95,1.95 z m 26.45,3.4 -14.399,1.65 -2.45,2.45 14.45,-1.65 z m 81.5,-81.45 2.401,-2.45 -14.351,1.65 -2.449,2.45 z m -7.25,15.65 2.701,-2.8 -1.401,-1.4 -2.75,2.8 -25.75,-25.75 -9.3,1 -2.799,2.8 1.099,1.1 2.551,-2.5 25.75,25.75 z m -21.049,12.15 1.45,-13.75 -2.5,2.5 -1.401,13.7 z m -24.401,-25 -2.449,2.4 13.1,-1.35 2.5,-2.5 z m 14.301,18.45 1.399,-1.45 -2.2,-2.2 8.7,-8.6 -4.149,-4.15 -4.9,4.85 -1.05,9.35 z m -16.7,151.75 13.149,-1.3 2.5,-2.55 -13.199,1.4 z m 30.45,-18.7 1.5,-13.15 -2.45,2.4 -1.45,13.2 z m 4.8,11.8 5.649,-5.6 0.75,-8.7 -2.149,-2.2 -1.351,1.3 2,2 -9.099,9.05 z m -14.901,6.55 -4.849,4.85 -0.95,9.3 2.15,2.2 1.399,-1.4 -2.099,-2.2 8.599,-8.6 z m 30.201,8 -1.401,-1.45 -2.8,2.8 -25.75,-25.75 -9.25,1.1 -2.799,2.75 1.099,1.1 2.551,-2.5 25.75,25.75 9.85,-1 z m 4.549,-12.9 2.401,-2.4 -14.401,1.65 -2.45,2.45 z m -92.649,-69.65 -25.75,-25.75 -9.25,1.05 -2.801,2.75 1.101,1.15 2.55,-2.5 25.75,25.75 9.849,-1 2.801,-2.8 -1.45,-1.4 z m -19.601,13.6 1.5,-13.75 -2.45,2.55 -1.5,13.65 z m -12.25,-8.75 2.201,2.15 1.4,-1.4 -2.15,-2.2 8.599,-8.6 -4.149,-4.15 -4.901,4.85 z m 13.55,137.7 2.401,-2.45 1.45,-13.15 -2.45,2.4 z m -12.399,12.4 -13.2,1.4 -2.401,2.45 13.101,-1.3 z m 0.349,16.3 8.601,-8.65 -4.2,-4.15 -4.901,4.85 -0.95,9.35 2.151,2.2 1.4,-1.4 z m 30.351,-3.45 -25.75,-25.75 -9.25,1.15 -2.801,2.7 1.101,1.1 2.5,-2.5 25.75,25.75 9.899,-1 2.801,-2.8 -1.45,-1.45 z m -3.25,-15 -2.45,2.45 14.45,-1.6 2.399,-2.45 z m -7.851,-0.9 5.651,-5.55 0.8,-8.75 -2.201,-2.2 -1.299,1.4 1.95,1.95 -9.101,9 z m -8.5,29.5 1.5,-13.75 -2.45,2.55 -1.5,13.6 z m 83.851,-83.9 1.55,-13.75 -2.5,2.55 -1.45,13.65 z m -178.9,-26.45 -13.201,1.4 -2.399,2.45 13.1,-1.3 z m 2.549,18.5 -2.199,-2.2 8.6,-8.65 -4.151,-4.15 -4.899,4.85 -1,9.4 2.2,2.15 z m 39.401,-22.25 -14.45,1.6 -2.401,2.45 14.401,-1.6 z m -27.151,-11.1 1.451,-13.15 -2.451,2.4 -1.399,13.2 z m 10.451,6.25 0.849,-8.75 -2.199,-2.2 -1.301,1.4 1.95,1.95 -9.099,9 4.149,4.15 z m 9.75,20.1 -1.451,-1.45 -2.799,2.8 -25.75,-25.75 -9.25,1.1 -2.75,2.7 1.049,1.15 2.5,-2.5 25.75,25.75 9.901,-1 z m -85.35,-85.3 -2.75,2.75 -25.75,-25.75 -9.25,1.1 -2.8,2.7 1.05,1.15 2.5,-2.5 25.75,25.75 9.899,-1 2.801,-2.8 z m -34.65,7.65 2.2,2.2 1.45,-1.45 -2.2,-2.2 8.599,-8.65 -4.149,-4.2 -4.851,4.85 z m 9.799,11.15 2.451,-2.45 1.549,-13.75 -2.5,2.55 z m 3.701,126.5 2.4,-2.45 1.45,-13.15 -2.45,2.4 z m -28,16.25 13.049,-1.3 2.551,-2.55 -13.2,1.4 z m 18.1,14.65 -2.2,-2.2 8.649,-8.65 -4.149,-4.15 -4.851,4.85 -1.099,9.35 2.2,2.2 z m 10.199,-5.8 -2.549,2.55 -1.451,13.6 2.451,-2.4 z m 20.851,-2.65 -2.75,2.8 -25.75,-25.75 -9.351,1.05 -2.699,2.75 1.05,1.15 2.5,-2.5 25.75,25.75 9.899,-1 2.801,-2.8 z m -13.9,-13.05 5.549,-5.6 0.901,-8.75 -2.2,-2.2 -1.35,1.4 1.95,1.95 -9.051,9.05 z m 5.45,3.3 14.349,-1.6 2.451,-2.45 -14.4,1.6 z m 69.95,-57.75 1.55,-13.75 -2.5,2.55 -1.5,13.65 z m 12.75,121.8 -1.351,1.35 1.951,2 -9.05,9.05 4.25,4.15 5.55,-5.65 0.849,-8.7 z m -9.051,4.7 1.45,-13.2 -2.45,2.45 -1.399,13.15 z m 27,11.1 -14.349,1.6 -2.401,2.4 14.351,-1.6 z m -41.8,3.7 -13.199,1.45 -2.4,2.45 13.05,-1.35 z m -1.149,17.75 2.149,2.2 1.401,-1.4 -2.1,-2.2 8.65,-8.65 -4.201,-4.2 -4.899,4.9 z m 31.85,-4.85 -25.75,-25.75 -9.3,1.15 -2.7,2.7 1.049,1.05 2.5,-2.45 25.75,25.75 9.901,-1.05 2.8,-2.75 -1.451,-1.45 z m -18.05,-0.2 -2.55,2.55 -1.45,13.65 2.45,-2.4 z m -86.45,86.45 -1.451,13.65 2.451,-2.4 1.549,-13.75 z m 4.75,-30.05 1.4,-13.2 -2.45,2.45 -1.401,13.15 z m 11.2,-2.5 -2.2,-2.2 -1.35,1.35 1.95,1.95 -9.1,9.1 4.25,4.15 5.6,-5.65 z m 15.8,13.6 -14.4,1.6 -2.4,2.4 14.349,-1.6 z m -48.9,-5.25 1.05,1.05 2.5,-2.55 25.75,25.75 9.899,-1 2.801,-2.7 -1.45,-1.45 -2.75,2.75 -25.75,-25.75 -9.351,1.1 z m 16,16.6 -4.2,-4.15 -4.851,4.9 -1.049,9.35 2.15,2.2 1.45,-1.4 -2.15,-2.2 z m -8.95,-7.55 -13.25,1.4 -2.4,2.45 13.1,-1.4 z m 266.5,-98.75 1.449,-13.15 -2.449,2.4 -1.4,13.2 z m 7.8,-3.4 1.899,2 -9.099,9 4.2,4.2 5.649,-5.55 0.75,-8.8 -2.099,-2.2 z m 19.25,14.5 -14.401,1.55 -2.45,2.4 14.45,-1.5 z m -55.05,5.15 -2.45,2.45 13.149,-1.3 2.5,-2.55 z m 12.1,16.3 2.2,2.15 1.45,-1.4 -2.2,-2.15 8.599,-8.65 -4.25,-4.25 -4.849,4.9 z m 33.299,-3.5 2.8,-2.75 -1.449,-1.45 -2.801,2.8 -25.8,-25.75 -9.25,1.15 -2.799,2.7 1.099,1.05 2.45,-2.45 25.851,25.75 z m -19.599,-1.6 -2.5,2.55 -1.401,13.65 2.451,-2.4 z m -84.101,58.9 2.401,-2.45 1.45,-13.2 -2.45,2.45 z m 3,5.2 4.2,4.2 5.601,-5.65 0.85,-8.75 -2.151,-2.2 -1.349,1.35 1.9,1.95 z m 12.051,5 -2.45,2.4 14.399,-1.55 2.401,-2.4 z m -30.95,-8.35 25.8,25.75 9.9,-1 2.8,-2.75 -1.45,-1.45 -2.8,2.8 -25.8,-25.75 -9.301,1.1 -2.75,2.75 1.101,1.05 z m 3.349,18.85 -1,9.4 2.201,2.15 1.4,-1.4 -2.15,-2.15 8.65,-8.65 -4.2,-4.25 z m -13.049,-6.9 -2.401,2.45 13.051,-1.3 2.55,-2.55 z m 24.349,25 1.45,-13.8 -2.549,2.55 -1.35,13.65 z M -587.4,755.1 l -1.4,13.2 2.449,-2.45 1.401,-13.15 z m -13.8,25.6 -13.2,1.4 -2.4,2.45 13.05,-1.3 z m 2.5,18.5 -2.2,-2.2 8.65,-8.65 -4.15,-4.2 -4.85,4.85 -1.101,9.45 2.201,2.15 z m 36.9,-19.8 2.4,-2.45 -14.3,1.6 -2.401,2.45 z m -15.5,-18.25 -1.35,1.4 1.95,1.9 -9,9.05 4.15,4.2 5.55,-5.6 0.899,-8.75 z m 8.3,33.85 2.8,-2.8 -1.401,-1.45 -2.799,2.8 -25.75,-25.75 -9.35,1.1 -2.7,2.7 1.05,1.15 2.5,-2.5 25.75,25.75 z m -83.9,-83.9 2.799,-2.8 -1.399,-1.4 -2.8,2.75 -25.75,-25.8 -9.4,1.15 -2.7,2.7 1.1,1.1 2.5,-2.5 25.75,25.8 z m -33.3,3.45 2.15,2.2 1.449,-1.45 -2.199,-2.2 8.65,-8.65 -4.201,-4.2 -4.849,4.85 z m 12.25,8.7 1.55,-13.8 -2.55,2.55 -1.45,13.7 z m 1.25,128.95 2.45,-2.45 1.399,-13.15 -2.399,2.4 z m -28.05,16.3 13.1,-1.35 2.549,-2.5 -13.25,1.4 z m 15.95,12.4 8.65,-8.65 -4.15,-4.25 -4.85,4.9 -1.05,9.4 2.15,2.2 1.449,-1.4 z m 10.85,10.15 1.55,-13.7 -2.55,2.5 -1.45,13.6 z m 14.05,-35.05 0.9,-8.75 -2.2,-2.2 -1.35,1.4 1.949,1.85 -9.049,9.1 4.15,4.2 z m -0.1,8.9 14.3,-1.6 2.45,-2.45 -14.3,1.6 z m 7.1,14 2.799,-2.75 -1.399,-1.4 -2.8,2.7 -25.75,-25.75 -9.301,1.05 -2.75,2.8 1.051,1.15 2.5,-2.55 25.75,25.75 z m 62.85,-71.75 1.55,-13.75 -2.55,2.55 -1.45,13.65 z m -166.551,-38.85 2.451,-2.45 1.4,-13.15 -2.4,2.4 z m -14.949,14.95 2.55,-2.5 -13.2,1.4 -2.45,2.45 z m 11.5,5.1 -4.2,-4.2 -4.851,4.85 -1,9.45 2.201,2.15 1.4,-1.4 -2.2,-2.2 z m 17.15,-25.05 -2.201,-2.15 -1.349,1.4 1.9,1.9 -9.051,9.05 4.201,4.2 5.65,-5.6 z m 6.15,31.7 2.75,-2.75 -1.4,-1.4 -2.8,2.7 -25.75,-25.8 -9.35,1.15 -2.75,2.75 1.15,1.1 2.45,-2.55 25.75,25.8 z m 7.149,-15.6 2.451,-2.45 -14.3,1.55 -2.45,2.45 z m -88.299,-71.1 -1.4,-1.4 -2.801,2.7 -25.799,-25.75 -9.3,1.15 -2.75,2.8 1.15,1.05 2.5,-2.55 25.75,25.75 9.9,-1 z m -22.35,1.2 -2.55,2.5 -1.35,13.65 2.4,-2.45 z m -13.75,5.05 2.2,2.1 1.4,-1.4 -2.201,-2.15 8.701,-8.65 -4.25,-4.2 -4.85,4.85 z m 13.5,137.7 2.45,-2.45 1.4,-13.2 -2.4,2.4 z m 7.2,9.35 5.65,-5.6 0.85,-8.75 -2.15,-2.15 -1.401,1.35 1.901,1.85 -9.05,9.1 z m -33.551,5.2 v 1.525 l 11.401,-1.175 2.5,-2.5 -13.151,1.4 z m 15.051,17.7 1.4,-1.4 -2.201,-2.2 8.701,-8.6 -4.25,-4.2 -4.85,4.85 -1,9.35 z m 10.05,6.6 1.5,-13.8 -2.5,2.45 -1.4,13.8 z m 16.399,-28.65 -2.449,2.45 14.3,-1.6 2.45,-2.45 z m 4.701,16.5 2.7,-2.8 -1.401,-1.4 -2.75,2.75 -25.75,-25.8 -9.349,1.05 -2.8,2.8 1.149,1.1 2.551,-2.55 25.75,25.8 z m 62.799,-71.8 1.551,-13.75 -2.551,2.5 -1.399,13.7 z m 28.25,140 2.451,-2.4 -14.3,1.65 -2.45,2.45 z m -13.299,-15.95 -2.201,-2.2 -1.349,1.3 1.95,1.9 -9.05,9.1 4.15,4.2 5.65,-5.65 z m -26.15,17.35 -13.15,1.4 -2.45,2.45 13.1,-1.4 z m 14.9,-14.85 1.4,-13.25 -2.4,2.45 -1.451,13.25 z m -12.35,33.3 -2.2,-2.2 8.65,-8.6 -4.15,-4.25 -4.85,4.9 -1.051,9.35 2.201,2.2 z m 7.649,-3.3 -1.399,13.75 2.399,-2.45 1.5,-13.75 z m 20.651,-2.3 -25.75,-25.75 -9.3,1 -2.8,2.8 1.05,1.15 2.55,-2.55 25.75,25.75 9.95,-0.95 2.7,-2.8 -1.4,-1.45 z m -72.85,67.25 -14.35,1.65 -2.451,2.4 14.351,-1.65 z m -22.25,0.75 5.65,-5.65 0.799,-8.65 -2.199,-2.2 -1.301,1.3 1.951,1.9 -9.05,9.1 z m -5.801,-22.55 -1.449,13.2 2.449,-2.45 1.401,-13.2 z m -20.849,16.5 1.099,1.1 2.451,-2.45 25.75,25.75 9.9,-1.05 2.8,-2.75 -1.401,-1.45 -2.799,2.8 -25.75,-25.75 -9.25,1 z m -6.901,11.25 v 1.525 l 11.401,-1.225 2.5,-2.45 -13.151,1.4 z m 18.701,1.25 -4.85,4.9 -1,9.35 2.2,2.2 1.4,-1.4 -2.201,-2.2 8.601,-8.6 z m 6.35,23.05 1.55,-13.8 -2.5,2.5 -1.45,13.7 z m 254.4,-136 -1.4,13.15 2.449,-2.4 1.401,-13.2 z m 12.299,8.25 -2.199,-2.2 -1.35,1.35 1.95,2 -9.1,9.05 4.15,4.15 5.65,-5.65 z m 15.801,13.6 -14.4,1.6 -2.401,2.4 14.351,-1.6 z m -41.9,3.8 -13.25,1.4 -2.401,2.45 13.101,-1.4 z m 10.15,15.15 -1.45,13.65 2.45,-2.4 1.55,-13.7 z m -9.1,4.7 1.45,-1.4 -2.2,-2.2 8.65,-8.65 -4.15,-4.2 -4.85,4.9 -1.101,9.35 z m 29.75,-7.05 -25.75,-25.75 -9.35,1.05 -2.7,2.8 1.05,1.15 2.5,-2.55 25.75,25.75 9.9,-1.05 2.8,-2.7 -1.401,-1.45 z m -90.201,54.8 -9.049,9.1 4.15,4.15 5.6,-5.65 0.9,-8.65 -2.2,-2.2 -1.35,1.3 z m 17.401,12.5 -14.35,1.65 -2.45,2.4 14.35,-1.65 z m -27.05,-11.05 1.399,-13.25 -2.399,2.45 -1.45,13.25 z m -21.9,5.75 1.049,1.1 2.551,-2.55 25.75,25.75 9.9,-0.95 2.75,-2.75 -1.451,-1.45 -2.699,2.8 -25.75,-25.75 -9.301,1 z m 7,9.1 -13.201,1.4 -2.399,2.45 13.1,-1.4 z m 9,7.65 -4.15,-4.15 -4.85,4.85 -1.05,9.3 2.15,2.2 1.449,-1.4 -2.199,-2.2 z m 2.2,18.8 1.5,-13.8 -2.5,2.5 -1.45,13.7 z m 87.65,42.6 1.4,-13.25 -2.4,2.45 -1.45,13.2 z m 10.35,6.15 0.849,-8.65 -2.199,-2.2 -1.35,1.3 1.95,1.95 -9.1,9.1 4.25,4.15 z m -0.151,8.95 14.351,-1.65 2.45,-2.45 -14.4,1.7 z m -29.399,-12.1 -2.75,2.8 1.05,1.05 2.55,-2.55 25.75,25.75 9.9,-0.95 2.75,-2.75 -1.45,-1.45 -2.7,2.8 -25.75,-25.75 z m -11.3,15.65 13.1,-1.35 2.5,-2.5 -13.2,1.45 z m 24.3,25.05 2.45,-2.4 1.5,-13.8 -2.5,2.5 z m -8.351,-12.65 8.651,-8.6 -4.2,-4.15 -4.85,4.9 -1,9.3 2.1,2.2 1.45,-1.45 z m -69.399,52.85 1.399,-13.2 -2.399,2.45 -1.45,13.15 z m 10.45,6.15 0.75,-8.65 -2.2,-2.2 -1.3,1.3 1.949,1.95 -9.049,9.1 4.2,4.15 z m 16.6,4.85 -14.45,1.65 -2.4,2.45 14.4,-1.65 z m -6.95,15.3 -1.451,-1.4 -2.75,2.8 -25.75,-25.75 -9.25,1.05 -2.799,2.8 1.049,1.05 2.5,-2.5 25.75,25.75 9.901,-1 z m -34.6,4.75 8.6,-8.6 -4.201,-4.15 -4.849,4.9 -0.95,9.3 2.1,2.2 1.449,-1.45 z m -15.95,-12.4 13.099,-1.35 2.5,-2.5 -13.149,1.45 z m 26.7,22.6 1.55,-13.75 -2.5,2.5 -1.5,13.7 z m 72.8,57.5 -13.2,1.45 -2.4,2.4 13.1,-1.35 z m 13.8,-25.55 -1.4,13.15 2.449,-2.4 1.401,-13.2 z m 17,38.4 -25.8,-25.75 -9.3,1.05 -2.75,2.8 1.05,1.05 2.5,-2.5 25.8,25.75 9.9,-1 2.8,-2.8 -1.401,-1.4 z m -5.55,-21.5 0.8,-8.7 -2.15,-2.2 -1.301,1.3 1.901,1.95 -9.1,9.05 4.25,4.25 z m 16.65,4.85 -14.45,1.6 -2.4,2.45 14.4,-1.6 z m -184.65,-163.75 14.4,-1.65 2.449,-2.45 -14.399,1.7 z m 0.2,-8.95 0.8,-8.65 -2.2,-2.2 -1.3,1.3 1.95,1.95 -9.05,9.1 4.15,4.15 z m -10.45,-6.15 1.4,-13.2 -2.45,2.45 -1.4,13.15 z m -20.8,6.85 2.5,-2.45 25.75,25.7 9.899,-1 2.801,-2.75 -1.4,-1.45 -2.8,2.8 -25.75,-25.75 -9.25,1 -2.8,2.8 z m 3.45,10.45 2.5,-2.5 -13.15,1.45 -2.45,2.4 z m 2.85,13.75 8.599,-8.6 -4.149,-4.15 -4.851,4.9 -1,9.3 2.201,2.2 1.4,-1.45 z m 12.349,-3.55 -2.5,2.5 -1.5,13.7 2.451,-2.4 z m -81.75,56.4 1.401,-13.2 -2.401,2.45 -1.449,13.15 z m 9.701,-1.4 -9.05,9.05 4.15,4.15 5.65,-5.6 0.799,-8.7 -2.199,-2.2 -1.301,1.35 z m 3,14.05 -2.451,2.45 14.401,-1.6 2.45,-2.45 z m 7.45,13.65 -1.401,-1.4 -2.799,2.8 -25.75,-25.75 -9.25,1.05 -2.8,2.75 1.099,1.1 2.451,-2.5 25.75,25.75 9.9,-1 z m -48.901,-9.325 v 1.5 l 11.351,-1.125 2.55,-2.55 -13.151,1.45 z m 15,17.775 1.451,-1.45 -2.201,-2.15 8.601,-8.7 -4.15,-4.15 -4.85,4.9 -1.05,9.35 z m 10.051,6.5 1.55,-13.75 -2.55,2.55 -1.4,13.65 z m 89.05,29.45 -2.4,2.45 -1.451,13.15 2.451,-2.45 z m -18.8,30.55 2.55,-2.55 -13.15,1.45 -2.451,2.4 z m 27.6,-2.25 14.4,-1.6 2.449,-2.45 -14.399,1.6 z m 5.7,12.6 -25.75,-25.75 -9.25,1.1 -2.8,2.75 1.05,1.05 2.5,-2.5 25.75,25.75 9.899,-1 2.801,-2.8 -1.4,-1.4 z m -5.45,-21.5 0.75,-8.7 -2.2,-2.2 -1.3,1.35 1.95,1.95 -9.05,9 4.199,4.2 z m -22.8,27.1 -2.15,-2.2 8.6,-8.65 -4.2,-4.15 -4.851,4.85 -1,9.4 2.101,2.2 z m 6.149,10.4 2.451,-2.45 1.549,-13.75 -2.549,2.55 z m -77.699,40.15 1.4,-13.15 -2.4,2.4 -1.45,13.2 z m -14.85,14.85 -13.15,1.4 -0.801,0.8 v 1.475 l 11.401,-1.125 z m -1.1,17.75 2.149,2.2 1.401,-1.45 -2.151,-2.2 8.701,-8.65 -4.25,-4.15 -4.85,4.85 z m 9.8,11.15 2.4,-2.45 1.55,-13.75 -2.55,2.55 z m 17.349,-46.25 -2.199,-2.15 -1.35,1.35 1.95,1.95 -9,9 4.2,4.15 5.6,-5.55 z m 13.351,16.05 2.45,-2.45 -14.35,1.6 -2.451,2.45 z m -4.45,12.8 -1.401,-1.4 -2.799,2.75 -25.75,-25.75 -9.3,1.15 -2.75,2.75 1.099,1.05 2.451,-2.5 25.75,25.75 9.9,-1 z m 72.849,52.85 -1.349,1.4 1.9,1.95 -9,9 4.199,4.2 5.601,-5.55 0.8,-8.8 z m -11.5,7.2 2.451,-2.45 1.4,-13.15 -2.4,2.45 z m -9.899,30.85 -2.2,-2.15 8.65,-8.65 -4.2,-4.2 -4.851,4.85 -1,9.45 2.201,2.1 z m -18.101,-14.6 13.051,-1.3 2.55,-2.55 -13.15,1.4 z m 26.75,22.55 1.5,-13.75 -2.549,2.55 -1.35,13.65 z m 21.101,-12.15 2.75,-2.8 -1.4,-1.45 -2.8,2.8 -25.8,-25.75 -9.3,1.15 -2.75,2.7 1.05,1.1 2.5,-2.5 25.8,25.75 z m -7.2,-14 14.349,-1.55 2.451,-2.45 -14.35,1.55 z m 143.849,-148.2 1.451,-1.45 -2.201,-2.15 8.601,-8.6 -4.2,-4.2 -4.85,4.85 -0.95,9.4 z m 7.601,9 2.45,-2.45 1.5,-13.75 -2.5,2.5 z m -77.75,40.2 1.399,-13.15 -2.399,2.45 -1.45,13.15 z m -30.45,18.7 13.05,-1.3 2.549,-2.55 -13.149,1.45 z m 16.65,16.05 1.5,-1.45 -2.2,-2.15 8.6,-8.65 -4.201,-4.2 -4.849,4.85 -1,9.45 z m 10.1,6.5 1.5,-13.75 -2.55,2.55 -1.4,13.65 z m 13.9,-26.15 14.4,-1.55 2.45,-2.45 -14.45,1.55 z m 0.25,-8.85 0.75,-8.8 -2.15,-2.15 -1.3,1.35 1.899,1.95 -9.049,9 4.2,4.25 z m 5.5,21.4 -25.801,-25.75 -9.25,1.15 -2.799,2.75 1.049,1.05 2.5,-2.5 25.801,25.75 9.9,-1 2.799,-2.8 -1.399,-1.4 z m 69.35,43.1 -2.45,2.45 -1.4,13.15 2.449,-2.45 z m -0.85,20.75 4.25,4.2 5.6,-5.55 0.849,-8.8 -2.199,-2.1 -1.301,1.35 1.901,1.9 z m -16.551,25 2.201,2.2 1.5,-1.45 -2.201,-2.2 8.601,-8.65 -4.2,-4.2 -4.85,4.85 z m -14.449,-13.9 13.05,-1.3 2.55,-2.55 -13.2,1.4 z m 26.75,22.6 1.55,-13.8 -2.55,2.55 -1.45,13.7 z m 21.05,-12.15 2.8,-2.8 -1.401,-1.4 -2.799,2.75 -25.75,-25.8 -9.35,1.15 -2.75,2.7 1.1,1.15 2.5,-2.5 25.75,25.75 z m -7.101,-14.05 14.351,-1.55 2.45,-2.45 -14.4,1.55 z m 335.601,-335.65 14.3,-1.55 2.45,-2.4 -14.301,1.5 z m -10.25,-15.05 1.449,-13.2 -2.449,2.45 -1.4,13.15 z m 4.8,11.85 5.599,-5.65 0.901,-8.75 -2.2,-2.15 -1.401,1.35 1.901,1.9 -9,9.1 z m -9.5,18.15 -1.401,13.7 2.451,-2.4 1.5,-13.85 z m -13.55,-25.6 25.75,25.7 9.899,-1 2.8,-2.75 -1.449,-1.45 -2.801,2.8 -25.75,-25.8 -9.349,1.1 -2.75,2.75 1.15,1.1 z m -12.2,14.25 13.05,-1.3 2.599,-2.55 -13.199,1.45 z m 16.7,16.1 1.399,-1.4 -2.2,-2.2 8.7,-8.7 -4.25,-4.2 -4.849,4.85 -1,9.45 z m -70.15,49.15 1.45,-13.2 -2.45,2.45 -1.401,13.15 z m 11.299,-2.55 -2.2,-2.15 -1.349,1.35 1.9,1.9 -9.101,9.1 4.201,4.2 5.65,-5.65 z m 1.401,15.15 -2.401,2.45 14.3,-1.55 2.401,-2.45 z m 6.05,12.35 -2.8,2.75 -25.7,-25.8 -9.401,1.1 -2.75,2.8 1.151,1.1 2.5,-2.55 25.75,25.75 9.9,-1 2.8,-2.7 z m -22.401,16.3 1.551,-13.75 -2.551,2.5 -1.449,13.7 z m -24.399,-24.95 -2.45,2.45 13.15,-1.4 2.55,-2.5 z m 13.099,6.8 -1,9.45 2.201,2.2 1.4,-1.45 -2.15,-2.15 8.65,-8.7 -4.2,-4.2 z m 70.8,77.1 -2.449,2.4 13.1,-1.35 2.599,-2.5 z m 27.051,-27.05 -1.4,13.15 2.4,-2.45 1.449,-13.15 z m 5.75,22.6 5.649,-5.65 0.901,-8.7 -2.2,-2.2 -1.401,1.35 2,1.9 -9.099,9.05 z m 11.199,15.85 -25.75,-25.75 -9.349,1.05 -2.75,2.8 1.15,1.1 2.5,-2.55 25.75,25.75 9.899,-1 2.8,-2.75 -1.449,-1.4 z m 11.051,-16.65 -14.301,1.6 -2.449,2.45 14.3,-1.6 z m -194.801,-178.85 1.45,-13.2 -2.45,2.45 -1.399,13.15 z m 10.401,6.2 0.849,-8.75 -2.149,-2.2 -1.351,1.35 1.901,1.95 -9.1,9.1 4.199,4.2 z m -0.151,8.85 14.351,-1.55 2.399,-2.4 -14.349,1.5 z m -12.399,12.45 -2.55,2.5 -1.4,13.65 2.45,-2.45 z m -17,-24.5 -2.7,2.8 1.049,1.05 2.5,-2.55 25.8,25.75 9.901,-1 2.799,-2.7 -1.45,-1.45 -2.75,2.75 -25.849,-25.75 z m -11.3,15.75 13.1,-1.4 2.549,-2.45 -13.25,1.4 z m 15.95,12.4 8.65,-8.7 -4.201,-4.2 -4.899,4.85 -1,9.45 2.2,2.15 1.449,-1.45 z m -69.35,52.8 1.4,-13.25 -2.45,2.45 -1.401,13.2 z m 7.7,-3.45 1.9,1.95 -9.1,9.1 4.25,4.2 5.6,-5.65 0.85,-8.7 -2.151,-2.2 z m 19.3,14.45 -14.4,1.6 -2.4,2.45 14.349,-1.6 z m -8.35,13.85 -2.7,2.8 -25.8,-25.75 -9.351,1.05 -2.75,2.8 1.051,1.05 2.55,-2.55 25.8,25.75 9.9,-0.95 2.75,-2.8 z m -24.8,18.8 2.449,-2.45 1.451,-13.75 -2.5,2.5 z m -8.801,-20.5 -1.049,9.35 2.2,2.15 1.45,-1.45 -2.2,-2.1 8.65,-8.65 -4.2,-4.2 z m -15.549,-4.45 13.1,-1.4 2.5,-2.5 -13.2,1.45 z m 99.5,80 -13.201,1.45 -2.399,2.4 13.1,-1.35 z m 16.299,-28.05 -2.45,2.45 -1.399,13.2 2.399,-2.4 z m 3.3,25.05 5.651,-5.65 0.9,-8.7 -2.2,-2.15 -1.351,1.3 1.901,1.9 -9.1,9.05 z m 11.25,15.9 -25.749,-25.8 -9.4,1.05 -2.8,2.8 1.149,1.1 2.551,-2.55 25.749,25.75 9.901,-0.95 2.75,-2.8 -1.451,-1.4 z m 11,-16.7 -14.3,1.6 -2.399,2.45 14.3,-1.6 z m -33.099,32.7 2.45,-2.45 1.5,-13.8 -2.5,2.5 z m -7.65,-9 1.449,-1.45 -2.199,-2.2 8.65,-8.6 -4.201,-4.2 -4.899,4.85 -1,9.4 z m -100.6,67.85 13.1,-1.35 2.5,-2.5 -13.2,1.45 z m 18.15,14.6 -2.2,-2.2 8.599,-8.6 -4.199,-4.2 -4.9,4.85 -0.95,9.4 2.2,2.2 z m 12.25,-33.3 1.45,-13.15 -2.45,2.45 -1.4,13.15 z m 4.85,11.85 5.6,-5.65 0.85,-8.75 -2.2,-2.1 -1.3,1.3 1.9,1.9 -9.1,9.05 z m 5.45,3.25 14.349,-1.6 2.451,-2.45 -14.4,1.6 z m -12.401,12.4 -2.5,2.5 -1.5,13.75 2.451,-2.45 z m 22.301,-1.15 -1.45,-1.4 -2.75,2.8 -25.75,-25.85 -9.351,1.1 -2.75,2.8 1.101,1.1 2.5,-2.5 25.75,25.75 9.899,-1 z m 71.499,54.2 1.95,1.9 -9.099,9.05 4.149,4.2 5.651,-5.6 0.849,-8.7 -2.199,-2.15 z m -7.8,3.35 1.451,-13.15 -2.451,2.45 -1.399,13.15 z m -14.449,31.1 8.6,-8.6 -4.151,-4.2 -4.899,4.85 -1,9.4 2.2,2.15 1.449,-1.4 z m -15.95,-12.4 13.1,-1.35 2.5,-2.5 -13.201,1.4 z m 50.6,7.65 -1.451,-1.4 -2.799,2.75 -25.75,-25.75 -9.3,1.05 -2.8,2.75 1.149,1.15 2.5,-2.5 25.75,25.75 9.901,-1 z m -9.901,-11.2 14.351,-1.65 2.399,-2.45 -14.349,1.65 z m -13.949,26.15 1.55,-13.75 -2.5,2.5 -1.5,13.7 z m 165.399,-165.4 2.451,-2.45 1.5,-13.7 -2.55,2.5 z m -7.649,-8.95 1.399,-1.45 -2.2,-2.2 8.7,-8.65 -4.149,-4.2 -4.9,4.85 -1.05,9.45 z m -98.2,65.45 -2.45,2.4 13.15,-1.35 2.449,-2.5 z m 18.05,2 -4.901,4.85 -1.05,9.4 2.201,2.2 1.4,-1.45 -2.15,-2.2 8.65,-8.6 z m 37,-7.25 -14.3,1.65 -2.401,2.45 14.3,-1.65 z m -26.401,-3.45 4.151,4.25 5.65,-5.65 0.899,-8.65 -2.2,-2.2 -1.349,1.3 1.95,1.9 z m -0.599,-7.6 1.45,-13.2 -2.45,2.4 -1.401,13.25 z m -3.651,41.3 1.45,-13.75 -2.45,2.5 -1.449,13.7 z m 23.801,-14.95 -1.45,-1.4 -2.75,2.8 -25.7,-25.75 -9.401,1 -2.8,2.8 1.151,1.1 2.55,-2.55 25.75,25.75 9.9,-0.95 z m 63.75,57.55 1.449,-13.2 -2.449,2.4 -1.4,13.25 z m 11.3,-2.5 -2.2,-2.15 -1.401,1.3 2,1.95 -9.099,9.05 4.15,4.15 5.649,-5.6 z m -39.351,18.75 -2.449,2.45 13.1,-1.35 2.5,-2.5 z m 52.601,-2.75 2.45,-2.45 -14.301,1.65 -2.449,2.45 z m -8.601,14.2 -25.75,-25.75 -9.3,1.1 -2.799,2.8 1.099,1.05 2.551,-2.55 25.75,25.75 9.899,-0.95 2.701,-2.8 -1.401,-1.4 z m -25.949,-9.35 -4.9,4.85 -1.05,9.35 2.2,2.15 1.399,-1.4 -2.2,-2.2 8.7,-8.6 z m 6.35,22.95 1.45,-13.75 -2.5,2.5 -1.401,13.7 z m 272.799,-767.35 2.75,-2.75 -1.399,-1.4 -2.801,2.7 -25.8,-25.75 -9.299,1.15 -2.75,2.8 1.049,1.05 2.5,-2.55 25.8,25.75 z m -31.95,2.05 8.651,-8.65 -4.201,-4.2 -4.849,4.85 -1,9.45 2.2,2.1 1.399,-1.4 z m 10.851,10.1 1.5,-13.7 -2.55,2.5 -1.351,13.65 z M 2.399,836.65 0,839.05 -1.45,852.25 1,849.8 Z m 9,19.35 0.851,-8.75 -2.2,-2.15 -1.351,1.35 1.901,1.85 -9.05,9.1 4.2,4.2 z m -25.299,8.65 -13.151,1.4 -2.449,2.45 13.1,-1.35 z m 0.349,16.25 8.651,-8.6 -4.201,-4.2 -4.849,4.85 -1,9.35 2.2,2.2 1.399,-1.4 z m 10.851,10.2 1.5,-13.8 -2.5,2.45 -1.401,13.8 z m 21.099,-12.15 2.701,-2.8 -1.401,-1.4 -2.75,2.75 -25.75,-25.8 -9.349,1.05 -2.8,2.8 1.099,1.15 2.55,-2.5 25.75,25.75 z m 7.25,-15.75 v -2.075 l -11.95,1.325 -2.449,2.45 14.3,-1.6 z M -72.7,781 l 14.349,-1.6 2.451,-2.45 -14.35,1.6 z m -0.601,-16.55 -9.05,9.05 4.201,4.2 5.65,-5.6 0.8,-8.75 -2.101,-2.2 -1.399,1.3 z m -9.599,1.45 1.45,-13.15 -2.45,2.45 -1.451,13.15 z m -14.901,14.85 -13.149,1.4 -2.45,2.45 13.099,-1.35 z m 0.351,16.25 8.7,-8.6 -4.25,-4.2 -4.851,4.85 -1,9.4 2.201,2.1 1.4,-1.4 z m 31.95,-2 2.699,-2.8 -1.399,-1.45 -2.75,2.8 -25.8,-25.75 -9.301,1.1 -2.8,2.75 1.05,1.1 2.551,-2.5 25.85,25.75 z m -82.65,-88.1 -2.75,2.75 -25.75,-25.75 -9.3,1.1 -2.8,2.8 1.1,1.05 2.549,-2.5 25.75,25.75 9.901,-1 2.7,-2.8 z m -31.05,8.35 -2.151,-2.2 8.701,-8.6 -4.25,-4.15 -4.85,4.85 -1,9.35 2.149,2.15 z m 8.649,8 1.5,-13.75 -2.5,2.5 -1.399,13.7 z m 1.25,129 2.45,-2.45 1.5,-13.15 -2.45,2.4 z m -14.849,14.95 2.45,-2.55 -13.151,1.4 -2.45,2.45 z m 27.75,-11.2 0.75,-8.75 -2.1,-2.2 -1.351,1.3 1.901,1.95 -9.05,9.1 4.199,4.2 z m 14.15,7.3 2.449,-2.45 -14.399,1.6 -2.45,2.45 z m -36.9,19.75 -2.201,-2.15 8.651,-8.6 -4.25,-4.2 -4.851,4.85 -0.949,9.35 2.199,2.15 z m 8.599,8 1.5,-13.75 -2.5,2.55 -1.399,13.6 z m 21.101,-12.15 2.75,-2.8 -1.401,-1.45 -2.799,2.8 -25.8,-25.75 -9.25,1.05 -2.8,2.8 1.1,1.1 2.549,-2.5 25.8,25.75 z m 62.849,-71.75 1.451,-13.75 -2.5,2.5 -1.35,13.7 z m 3.651,126.55 1.5,-13.15 -2.45,2.4 -1.5,13.2 z m -14.851,14.85 -13.149,1.4 -2.45,2.45 13.099,-1.3 z m 24.5,-16.35 -9.05,9.1 4.201,4.2 5.65,-5.65 0.8,-8.7 -2.2,-2.15 -1.3,1.3 z m 7.75,30.65 2.75,-2.8 -1.399,-1.45 -2.8,2.8 -25.75,-25.8 -9.301,1.05 -2.8,2.8 1.151,1.15 2.55,-2.5 25.75,25.75 z m -22.05,0.85 -1.45,13.75 2.401,-2.45 1.549,-13.85 z m -7.649,3.3 -2.2,-2.2 8.599,-8.6 -4.2,-4.25 -4.849,4.9 -0.951,9.35 2.201,2.2 z m -60.351,48.05 -2.149,-2.15 -1.351,1.35 1.901,1.9 -9.05,9.05 4.199,4.2 5.651,-5.6 z m -13.7,5 2.45,-2.45 1.401,-13.2 -2.401,2.45 z m -3.399,20.05 -4.25,-4.25 -4.851,4.9 -0.949,9.4 2.199,2.2 1.401,-1.4 -2.201,-2.2 z m 30.45,-9 2.449,-2.4 -14.349,1.55 -2.451,2.4 z m -45.351,-6.65 2.5,-2.45 25.75,25.75 9.901,-1.05 2.75,-2.75 -1.401,-1.45 -2.799,2.8 -25.75,-25.8 -9.3,1.1 -2.8,2.75 z m 3.451,10.55 2.45,-2.55 -13.151,1.4 -2.45,2.45 z m 13.599,23.9 1.551,-13.85 -2.5,2.55 -1.45,13.7 z M -55.9,944.75 l -14.35,1.6 -2.45,2.4 14.349,-1.6 z m 68.099,70.35 -2.199,-2.2 -1.301,1.3 1.95,1.9 -9.049,9.1 4.15,4.2 5.649,-5.65 z m -9.8,-10.7 -2.399,2.45 -1.5,13.2 2.449,-2.45 z m -7.349,35.7 -4.151,-4.25 -4.849,4.9 -1,9.35 2.2,2.2 1.399,-1.4 -2.2,-2.2 z m 21.849,5.2 -25.75,-25.75 -9.299,1 -2.8,2.8 1.099,1.1 2.55,-2.45 25.75,25.75 9.851,-1.05 2.8,-2.75 -1.401,-1.45 z m -46.399,-9 13.1,-1.3 2.5,-2.55 -13.151,1.4 z m 26.75,22.6 1.55,-13.8 -2.5,2.55 -1.5,13.65 z m 28.399,139.9 v -2.1 l -12,1.35 -2.45,2.45 14.351,-1.6 z m 0,-167.85 v -2.025 l -12,1.375 -2.45,2.4 14.351,-1.65 z m -25.7,143.7 -1.449,13.15 2.449,-2.4 1.401,-13.2 z m 10.7,9.35 -9.049,9.05 4.15,4.15 5.649,-5.6 0.8,-8.7 -2.199,-2.2 -1.301,1.35 z m 6.25,29.1 -25.75,-25.75 -9.25,1.1 -2.799,2.75 1.049,1.05 2.5,-2.5 25.75,25.75 9.901,-1 2.8,-2.8 -1.401,-1.4 z m -28.25,5.6 -2.2,-2.15 8.601,-8.7 -4.151,-4.15 -4.849,4.9 -1,9.35 2.2,2.2 z m 8.601,7.95 1.55,-13.75 -2.5,2.55 -1.5,13.65 z m -26.75,-22.6 13.1,-1.3 2.5,-2.55 -13.151,1.45 z m -112.801,-5.15 2.45,-2.45 -14.299,1.6 -2.451,2.45 z m 69.601,-82.3 14.349,-1.6 2.451,-2.4 -14.35,1.6 z m 0.2,-8.9 0.8,-8.7 -2.2,-2.2 -1.3,1.35 1.95,1.9 -9.051,9.05 4.151,4.2 z m -10.45,-6.2 1.399,-13.2 -2.399,2.45 -1.45,13.15 z m -14.5,31.15 8.599,-8.7 -4.149,-4.2 -4.851,4.85 -1,9.45 2.201,2.2 1.4,-1.4 z m 12.349,-3.65 -2.5,2.55 -1.45,13.65 2.401,-2.4 z m -28.299,-8.85 13.099,-1.3 2.5,-2.55 -13.149,1.45 z m 8.549,-12.9 1.151,1.1 2.45,-2.45 25.75,25.7 9.949,-1 2.75,-2.75 -1.399,-1.45 -2.8,2.8 -25.75,-25.75 -9.301,1.05 z m -62,78.15 1.401,-13.2 -2.401,2.45 -1.45,13.15 z m 10.401,6.2 0.849,-8.7 -2.149,-2.2 -1.4,1.35 1.95,1.9 -9,9.1 4.149,4.2 z m 9.75,20.1 -1.401,-1.4 -2.799,2.8 -25.75,-25.75 -9.35,1.05 -2.75,2.75 1.149,1.1 2.5,-2.5 25.75,25.75 9.901,-1 z m -34.7,4.85 8.7,-8.7 -4.2,-4.2 -4.85,4.85 -1.051,9.45 2.2,2.2 1.401,-1.45 z m 10.849,10.1 1.551,-13.75 -2.551,2.55 -1.399,13.65 z m -13.699,-23.9 2.55,-2.55 -13.151,1.45 -2.45,2.4 z m 101.3,66.5 1.399,-13.15 -2.399,2.45 -1.45,13.15 z m -14.851,14.85 -13.149,1.45 -2.45,2.4 13.049,-1.3 z m 25.101,0.3 14.3,-1.6 2.45,-2.45 -14.3,1.6 z m 9.899,11.2 -1.399,-1.4 -2.8,2.8 -25.75,-25.75 -9.301,1.1 -2.75,2.75 1.101,1.05 2.45,-2.5 25.75,25.75 9.949,-1 z m -9.75,-20.1 0.851,-8.7 -2.2,-2.2 -1.35,1.35 1.949,1.95 -9,9.1 4.151,4.15 z m -24.149,28.55 1.399,-1.45 -2.199,-2.2 8.649,-8.65 -4.149,-4.15 -4.851,4.85 -1.049,9.4 z m 7.649,8.95 2.401,-2.45 1.549,-13.75 -2.549,2.55 z m -95.199,57.55 2.55,-2.5 -13.2,1.45 -2.451,2.4 z m 41.949,-3.85 2.45,-2.45 -14.299,1.6 -2.451,2.45 z m -14.149,-7.3 0.849,-8.75 -2.149,-2.15 -1.4,1.35 1.95,1.95 -9.05,9.1 4.149,4.15 z m -10.401,-6.25 1.401,-13.15 -2.401,2.4 -1.45,13.2 z m -12.349,33.35 -2.2,-2.2 8.7,-8.65 -4.2,-4.15 -4.85,4.85 -1.051,9.4 2.2,2.2 z m 7.649,-3.25 -1.399,13.65 2.399,-2.45 1.551,-13.7 z m 24.851,-3.7 -1.401,-1.4 -2.799,2.7 -25.75,-25.75 -9.3,1.15 -2.75,2.8 1.099,1.05 2.5,-2.55 25.75,25.75 9.901,-1 z m 63.8,57.55 1.45,-13.15 -2.45,2.45 -1.451,13.15 z m 11.2,-2.55 -2.2,-2.2 -1.35,1.4 1.949,1.95 -9.05,9.05 4.201,4.25 5.65,-5.65 z m 4.7,30.2 -25.75,-25.75 -9.301,1.15 -2.75,2.8 1.101,1.05 2.45,-2.55 25.75,25.75 9.949,-1 2.75,-2.75 -1.399,-1.4 z m -30.75,-12.75 -13.2,1.45 -2.45,2.4 13.099,-1.35 z m 0.3,16.25 8.7,-8.65 -4.25,-4.2 -4.851,4.85 -1,9.45 2.151,2.1 1.399,-1.4 z m 10.8,10.1 1.549,-13.7 -2.549,2.5 -1.401,13.65 z M 1,1353.2 2.399,1340.05 0,1342.5 l -1.45,13.15 z m 10.199,15.1 14.351,-1.55 0.099,-0.1 v -2.1 l -12,1.3 z m -0.599,-16.5 -9,9.1 4.2,4.2 5.599,-5.65 0.8,-8.8 -2.199,-2.15 -1.351,1.35 z m -24.451,16.25 -13.149,1.45 -2.45,2.4 13.05,-1.3 z m 2.451,18.45 -2.151,-2.15 8.651,-8.65 -4.201,-4.2 -4.849,4.85 -1,9.45 2.099,2.15 z m 8.65,7.95 1.55,-13.75 -2.55,2.55 -1.45,13.65 z m 21.05,-12.15 2.8,-2.8 -1.401,-1.4 -2.8,2.75 -25.75,-25.75 -9.299,1.15 -2.75,2.75 1.049,1.05 2.5,-2.5 25.75,25.75 z m -74.2,65.9 -14.35,1.55 -2.45,2.45 14.349,-1.55 z"
       style="fill:#354767;fill-opacity:1;fill-rule:evenodd;stroke:none"
       transform="matrix(1.3333333,0,0,-1.3333333,1161.5339,1995.6667)" />
  </g>
  <g
     id="layer-MC2">
    <path
       id="path3"
       d="m 0,0 -19.05,19.05 m -377.599,0 L -415.7,0 m -167.775,0 19.025,19.05 M -732.25,18.95 -751.225,0 m 79.951,0 -19.026,19.05 M -503.475,0 -522.45,18.95 M -335.725,0 -354.699,18.95 M -228.85,19.05 -247.899,0 m 80.075,0 -19.075,19.05 M -61,18.95 -80,0 m -64.899,1487.35 -41.951,41.95 m 41.901,-83.9 -41.95,-41.95 m 41.95,-125.85 -41.95,-41.95 m 41.95,-83.95 -41.95,41.95 m 41.95,-209.75 -41.95,41.95 m 0,-125.9 41.95,41.95 m 0.05,167.85 -41.951,-41.95 m 41.901,251.7 -41.95,41.95 m 42,-713.15 -41.951,41.95 m 41.901,83.899 -41.95,-41.949 m 41.95,-125.85 -41.95,-41.951 m 0,-167.799 41.95,41.95 m 0,41.9 -41.95,42 m 41.95,-209.801 -41.95,41.951 m 42,-83.9 -41.951,-41.95 m 41.951,-125.8 -42,-41.95 m 41.95,83.85 -41.95,41.95 m 41.95,629.35 -41.95,41.95 m 22.399,735.5 -22.399,-22.4 M 22.9,438.55 -19.05,396.6 m -42,-0.05 L -103,438.5 M 22.851,312.649 -19.1,354.6 m 42,-83.85 -41.95,-41.95 M 22.9,102.85 -19.05,60.899 m 41.95,83.951 -42,41.95 m 89.55,-89.45 -5.599,5.6 m 5.599,47.5 -5.599,-5.6 M -61,186.8 -102.949,144.85 M -61,61 -103,102.95 M -61,354.649 -102.949,312.7 M -61.05,228.75 -103,270.7 m 173.45,-5.65 -5.649,5.65 m 5.649,47.6 -5.599,-5.6 m -42,461.449 L -19.1,732.2 m 42,-83.9 -41.95,42 M 22.9,480.45 -19.05,522.399 m -0.05,42 41.951,41.951 m -83.851,-42 -41.949,42 m 173.399,-5.6 -5.599,5.6 M 70.45,432.899 64.851,438.5 m 5.599,47.6 -5.599,-5.6 m -167.851,0 41.95,41.95 m 0.05,209.8 -41.949,41.95 M -61.05,690.25 -103,648.3 m 167.801,0 5.649,5.65 m 0,114.65 -5.599,5.6 m -461.5,-377.6 -41.951,41.95 m 125.85,-0.05 -41.949,-41.95 m 125.849,0 -41.95,42 m -461.45,-42 -41.95,41.95 m 209.75,-41.9 -41.949,41.95 m -83.901,-42 41.95,41.95 m 167.85,-125.8 -41.95,41.949 m 41.95,419.551 -41.95,-41.95 m 41.85,-251.75 -41.95,41.95 m 42.05,-83.95 -42.05,-41.95 m 41.95,251.75 -41.95,41.95 m 0.1,-125.9 41.95,41.95 M -522.55,61 l 41.95,41.95 m 0.1,41.85 -41.95,42 m 41.85,83.9 -41.95,-41.95 m 209.8,83.899 -41.949,42 m -0.051,-125.899 42,41.95 m 0,-167.75 L -354.699,61 m 41.949,83.85 -41.949,41.95 M -228.85,61 -270.8,102.95 m 42,83.85 -42,-41.95 M -396.649,60.899 -438.6,102.85 m -0.049,42 41.949,41.95 m 0.051,167.8 -42,-41.951 m 42,-83.899 -41.951,42 m 167.8,41.899 41.95,41.951 m 0,-125.85 -41.95,41.95 m -377.55,41.949 -41.95,41.951 m 42,-209.75 -41.95,41.95 m 41.9,83.9 -41.95,-41.95 m 41.95,-125.8 -41.95,-42.051 m 125.901,0 -41.951,42.051 m 41.9,83.85 -41.949,-41.95 M -732.25,61 -774.2,102.95 m 41.95,83.85 -41.95,-42 m -41.949,-41.95 -5.901,-5.9 m 5.85,47.9 -5.85,5.85 m 47.85,161.949 41.95,41.951 m 0,-125.85 -41.95,41.95 m -47.85,-5.9 5.901,5.9 m 0,41.949 -5.901,5.901 m 257.651,-89.8 -41.951,41.95 m 41.9,83.9 -41.949,-41.951 m -125.851,251.75 -41.95,41.951 m 209.75,-41.951 -41.949,41.951 M -648.35,774.149 -690.3,732.2 m 41.95,-83.9 -41.95,41.95 m 41.95,-209.75 -41.95,41.95 m 42,83.9 -42,-41.951 m -125.9,41.951 -5.85,-5.85 m 215.651,-120.05 42,41.949 M -732.25,522.45 -774.2,480.5 m -41.949,-41.95 -5.901,-5.901 m 5.901,47.801 -5.901,5.9 m 89.8,203.9 -42,-41.95 m 42,83.9 -41.95,41.949 m -41.949,-125.849 -5.901,5.9 m 5.901,119.949 -5.901,-5.899 m 257.6,-36.05 -41.949,41.949 m 42,-83.899 -41.951,-41.95 m 293.55,0 -41.95,41.95 m 0.051,41.95 41.949,41.949 m 0,-167.799 -41.949,-41.951 m -42.001,0 -41.949,41.951 m 125.899,-125.85 -41.949,41.95 m 125.849,41.949 -41.95,41.951 m 41.95,-83.9 -41.95,-41.95 M -396.649,522.399 -438.6,480.45 m 0,167.85 41.951,41.95 m -0.051,41.95 -41.949,41.949 M -228.85,690.25 -270.8,648.3 m 41.95,83.9 -41.95,41.949 m -209.8,545.401 -41.95,41.95 m 0.1,41.9 41.95,41.95 m 0,-461.5 -41.95,41.95 m 41.85,83.95 -41.95,-41.95 m 42.05,83.95 -41.95,41.95 m 41.85,83.85 -41.95,-41.95 m 41.95,251.75 -41.95,41.95 M -480.6,941.95 -522.55,900 m 41.95,-83.95 -41.95,41.95 m 22.401,735.6 -22.301,-22.3 m 209.7,-419.6 -41.949,41.95 m 41.949,-209.75 -41.949,41.95 m -42.001,0 -41.949,-41.95 M -312.75,941.95 -354.699,900 m 125.849,125.85 -41.95,-41.95 m -42,125.85 -41.95,-41.95 m 42,-251.75 -41.949,41.95 m 125.849,42 -41.95,41.95 m 0,-125.9 41.95,41.95 m -167.799,41.95 -41.951,41.95 m 41.951,-83.8 -41.951,-41.95 m 41.9,377.5 -41.949,-41.95 m 42,-83.9 -41.951,41.95 m 209.75,83.9 -41.95,-41.95 m 41.95,-83.9 -41.95,41.95 m -461.45,-83.9 -41.95,-41.95 m 209.75,41.95 -41.949,-41.95 m -41.951,125.85 -41.95,-41.95 m 41.95,83.9 -41.95,41.95 m 41.95,-209.75 -41.95,41.95 m 41.95,-83.9 L -690.3,900 m 41.95,-83.95 -41.95,41.95 m 125.85,41.95 -41.949,41.95 m 41.949,-83.8 -41.949,-41.95 M -732.25,900 -774.2,941.95 M -732.25,858 -774.2,816.05 m -41.949,0.1 -5.901,5.9 m 5.901,119.85 -5.901,-5.9 m 5.85,47.9 -5.85,5.85 m 47.85,161.95 41.95,41.95 m -0.05,-125.85 -41.95,41.95 m -47.8,-5.9 5.901,5.9 m -0.051,41.95 -5.85,5.85 m 257.6,36.1 -41.949,-41.95 m 42,-83.9 -41.951,41.95 m -42,377.6 -41.95,41.95 m 41.95,-83.9 -41.95,-41.95 m 0,-167.85 41.95,41.95 m 0,42 -41.95,41.95 m 125.85,-125.85 -41.949,41.95 m 0,41.9 41.949,41.95 m -167.8,-125.85 -41.95,41.95 m 41.95,83.95 -41.95,-41.95 m -41.949,-41.95 -5.901,-5.9 m 5.901,47.8 -5.901,5.9 m 89.75,203.9 -41.95,-41.95 m 42,-83.9 -41.95,41.95 m 41.95,125.8 -22.399,22.4 m -61.551,-148.2 -5.85,-5.85 m 5.901,47.8 -5.901,5.9 m 154.151,100.35 -22.401,-22.4 m 125.901,-41.9 -41.951,-41.95 m 41.9,-83.9 -41.949,41.95 m 41.949,125.8 -22.4,22.4 m 274.05,-106.25 -41.95,41.95 m 42,-83.9 -41.949,-41.95 m 41.949,-125.9 -41.949,-41.95 m 41.949,83.95 -41.949,41.95 m 0,209.7 22.399,22.4 m 103.45,-358 -41.95,41.95 m 41.95,83.95 -41.95,-41.95 m -125.849,-83.9 -41.951,41.95 m 41.951,83.85 -41.951,-41.95 m 0,167.85 41.951,41.95 m -0.051,-125.85 -41.949,41.95 m 41.949,125.8 -22.4,22.4 m 190.25,-64.3 -41.95,-41.95 m 41.95,-83.9 -41.95,41.95 m 41.95,125.8 -22.4,22.4 M 22.851,1151.7 -19.1,1193.65 M 22.851,983.9 -19.1,1025.85 m 42,-83.95 -41.95,-41.95 m 0,167.85 41.95,41.95 M -102.949,983.85 -61,1025.8 M 22.9,816.15 -19.05,858.1 m 89.5,-36.45 -5.599,-5.6 m 5.599,120.3 -5.599,5.6 m 5.599,47.55 -5.599,-5.6 M -61.05,900 -103,941.95 M -61.05,858 -103,816.05 m 41.95,251.75 -41.95,41.95 m 42,83.95 -41.949,-41.95 m 173.399,-47.65 -5.649,5.65 m 0.05,41.95 5.599,5.6 m -47.55,330.05 -41.95,41.95 m 41.901,-83.9 -41.951,-41.95 m 42,-125.85 -41.95,-41.95 m 41.95,83.85 -41.95,41.95 M 3.301,1593.6 -19.1,1571.2 m 89.55,-299.25 -5.599,5.6 m 5.599,47.6 -5.599,-5.6 M -61.05,1361.5 -103,1319.55 m 41.95,-83.95 -41.95,41.95 m 42,125.85 -41.949,41.95 m 41.899,83.95 -41.95,-41.95 m 42,83.95 -22.3,22.3 m 153.75,-153.8 -5.599,5.6 m 5.599,47.6 -5.649,-5.65"
       style="fill:none;stroke:#354767;stroke-width:2;stroke-linecap:butt;stroke-linejoin:miter;stroke-miterlimit:3;stroke-dasharray:none;stroke-opacity:1"
       transform="matrix(1.3333333,0,0,-1.3333333,1101.7995,2126.0664)"
       clip-path="url(#clipPath4)" />
  </g>
  <g
     id="layer-MC3">
    <path
       id="path5"
       d="M 580.05,73.95 H 894.651 V 5.45 H 580.05 Z M 345.3,610.25 c 10.433,-7.934 17.35,-11.9 20.75,-11.9 3.9,0 7.017,0.65 9.35,1.95 1.633,0.967 3.183,2.483 4.65,4.55 2,2.9 3.217,4.6 3.65,5.1 1.7,1.734 3.85,2.9 6.45,3.5 h 69.1 c 2,-0.8 4.8,-2.516 8.4,-5.15 2.067,-1.533 5.35,-4.017 9.85,-7.45 8.467,-6.267 14.634,-8.933 18.5,-8 h 45.05 c 0.3,0.367 1.25,2.733 2.85,7.1 1.466,3.9 3.55,7.116 6.25,9.65 8.633,8.067 25.767,12.1 51.4,12.1 24.233,0 40.183,-5.516 47.85,-16.55 2.067,-2.933 4.1,-7.417 6.1,-13.45 1.767,-5.367 3.483,-8.884 5.15,-10.55 67.6,-8.733 111.517,-18.966 131.75,-30.7 8.666,-5.033 14.383,-10.983 17.15,-17.85 1.8,-4.5 2.7,-11.35 2.7,-20.55 0,-19.866 -3.184,-35.616 -9.55,-47.25 -4.766,-8.667 -12.533,-16.6 -23.3,-23.8 -0.3,-0.2 -5.084,-3.217 -14.35,-9.05 -5.934,-3.766 -10.85,-7.2 -14.75,-10.3 -11.3,-9.033 -20.217,-20.267 -26.75,-33.7 -3.9,-8.3 -6.75,-19.134 -8.55,-32.5 -1.134,-8.233 -1.95,-18.817 -2.45,-31.75 -0.033,-1.667 0.3,-6 1,-13 0.167,-7.233 -1.1,-13.5 -3.8,-18.8 -8.3,-16.167 -30.05,-24.25 -65.25,-24.25 -16.667,0 -28.434,1.367 -35.3,4.1 -2.334,0.934 -4.2,2.083 -5.6,3.45 -1.133,1.366 -1.933,2.283 -2.4,2.75 l -141.3,-0.7 c -2.567,-1.033 -20.783,-2.867 -54.65,-5.5 -1.667,-1.367 -3.883,-3.316 -6.65,-5.85 -2.5,-2.033 -5.283,-3.633 -8.35,-4.8 -7.867,-2.967 -21.883,-4.45 -42.05,-4.45 -19.667,0 -34.467,1.383 -44.4,4.15 -11.767,3.3 -25.95,10.617 -42.55,21.95 -9.067,6.2 -18.583,10.517 -28.55,12.95 -4.5,1.1 -7.617,2.017 -9.35,2.75 -3.133,1.366 -6.083,3.467 -8.85,6.3 -10.1,10.267 -18.017,20.5 -23.75,30.7 -5.633,10.067 -9.75,21.15 -12.35,33.25 -1,4.767 -4.05,9.933 -9.15,15.5 -2.7,2.933 -8.083,7.883 -16.15,14.85 -7.433,6.467 -12.8,11.667 -16.1,15.6 -5.1,6.067 -8.15,11.95 -9.15,17.65 -2.4,12.7 -4.367,23.417 -5.9,32.15 -2.933,16.467 -4.4,27.866 -4.4,34.2 0,0.067 -0.067,5.166 -0.2,15.3 -0.067,5.734 0.017,10.35 0.25,13.85 0.667,9.667 2.983,17.583 6.95,23.75 4.833,7.5 12.9,14.067 24.2,19.7 12.3,6.1 29.517,11.684 51.65,16.75 3.667,6.267 5.833,9.816 6.5,10.65 2.8,3.534 6.833,6.484 12.1,8.85 12.433,5.634 39,10.833 79.7,15.6 0,0.433 1.167,0.733 3.5,0.9 3.9,0.3 12.017,0.45 24.35,0.45 0.1,-0.033 6.35,-4.766 18.75,-14.2 m -161.6,958.8 c 0.533,-4.1 0.517,-9.717 -0.05,-16.85 0,-31 -6.783,-60.417 -20.35,-88.25 -15.533,-31.8 -38.85,-58.817 -69.95,-81.05 h -31.2 c -8.933,7.167 -15.583,14.883 -19.95,23.15 -1.3,2.433 -2.8,5.783 -4.5,10.05 -1.767,4.367 -3.133,7.483 -4.1,9.35 -3.633,7 -9.2,12.967 -16.7,17.9 -3.527,2.323 -7.728,4.623 -12.6,6.9 v 148.8 h 149.45 c 8.751,-3.151 15.535,-6.95 20.35,-11.4 5.467,-5.067 8.667,-11.267 9.6,-18.6"
       style="fill:#12253c;fill-opacity:1;fill-rule:evenodd;stroke:none"
       transform="matrix(1.3333333,0,0,-1.3333333,0,2133.3333)"
       clip-path="url(#clipPath6)" />
  </g>
  <g
     id="layer-MC4">
    <path
       id="path7"
       d="M 0,0 H -5.101 L -10.55,-4.45 V -77.7 l 3.05,-2.5 h 6.7 l 3.8,3.05 v 74.7 z m 68.55,125.9 -6.7,-5.3 V 95.8 l 12.85,10.35 v 17.3 l -3,2.45 z m 16.05,-5.3 v -11 L 61.149,90.85 V 72.95 L 64.2,70.5 h 3.15 l 7.35,6 V 88.7 L 84,96.25 V 79.4 L 70.35,68.5 H 61.149 L 51.7,75.95 v 40.5 l 14.9,11.9 h 8.1 z m -409.5,-147.65 9.3,7.3 h 6.15 v -86.55 l -10.5,-8.5 h -5.7 v 2.05 h 4.3 l 2.75,1.95 v 35.1 l -4.5,-3.45 h -9.75 l -9.45,7.45 v 44.65 h -5.55 l 9.3,7.3 h 5.7 V -74.7 l 3,-2.45 h 3.75 l 7.5,6 v 44.1 z m 48.9,5.3 h -3.15 l -6.7,-5.3 v -24.8 L -273,-41.5 v 17.3 z m 3,2.45 9.9,-7.75 v -11 l -23.45,-18.75 v -17.9 l 3.05,-2.45 h 3.15 l 7.35,6 v 12.2 l 9.3,7.55 v -16.85 l -13.65,-10.9 h -9.2 l -9.45,7.45 v 40.5 l 14.9,11.9 z m 33.3,0 h 8.1 l 9.9,-7.75 V -76.6 h 4.35 v -2.55 h -4.35 l -6.75,5.4 -6.95,-5.4 h -9.75 l -9.45,7.45 v 40.5 z m 1.95,-2.45 -7.4,-6 v -47.5 l 1.7,-1.35 h 4.5 l 7.35,5.85 v 46.55 l -3,2.45 z m 62.35,-5.3 h 5 l -8.55,-7.15 h -3.151 l -2.599,2.15 v 5 h -3.151 l -11.5,-9.45 V -71.7 H -194 l -9.05,-7.45 h -5.75 v 52.5 h -3.7 l 8.75,6.9 h 4.399 V -31.2 l 14.25,11.45 h 6.151 l 3.55,-3 z m 38.049,14.75 h -3 L -121.2,3.05 V -82.6 h -9.151 V -6.85 Z M -20,-8.75 -5.7,2.45 h 6.75 l 11.849,-9.3 v -65.4 L 0,-82.6 H -8.851 L -20,-73.75 Z m -61.75,11.2 11.85,-9.3 v -65.4 L -82.8,-82.6 h -8.85 l -11.15,8.85 v 65 l 14.3,11.2 z M -82.8,0 h -5.1 l -5.451,-4.45 V -77.7 l 3.051,-2.5 h 6.699 l 3.801,3.05 v 74.7 z m 41.4,0 h -5.1 l -5.45,-4.45 V -77.7 l 3.05,-2.5 h 6.7 l 3.8,3.05 v 74.7 z m 12.9,-6.85 v -65.4 L -41.4,-82.6 h -8.85 l -11.15,8.85 v 65 l 14.299,11.2 h 6.75 z m -359.4,-12.45 9.3,-7.35 V -67.7 l -14.25,-11.45 h -8.6 l -9.45,7.45 v 40.5 l 14.9,11.9 z m -2.4,-2.45 h -3.3 l -7.85,-6.4 V -74.7 l 2.45,-1.9 h 3.75 l 7.95,6.3 v 46.1 z m -36.6,51.95 h 4.3 v -2.4 h -3.55 l -2.6,-1.9 v -43.65 h 3.8 l 2.35,1.9 v 5.55 h 3.15 v -6 l -4.15,-3.9 h -5.15 v -54.5 l 3.25,-2.45 h 2.35 l 5.7,4.45 v 3 h 3 v -4.05 l -6.75,-5.4 h -10.45 l -6.85,5.4 v 48.6 h -4.45 l -2.4,-1.9 v -5 h -2.6 v 5.4 l 4.4,3.45 h 5.05 v 44.1 z m -28.35,98.15 9.9,-7.75 v -11 L -468.8,90.85 v -17.9 l 3.05,-2.45 h 3.15 l 7.35,6 v 12.2 l 9.3,7.55 V 79.4 L -459.6,68.5 h -9.2 l -9.45,7.45 v 40.5 l 14.9,11.9 z m -3,-2.45 h -3.15 l -6.7,-5.3 V 95.8 l 12.85,10.35 v 17.3 z m 90.7,-6 V 72.95 l 3.05,-2.45 h 3.8 l 7.3,6 V 124 l -2.55,1.9 h -4.2 z m -50.1,53.65 V 129.9 h 3.8 l 2.35,1.9 v 5.55 h 3.15 v -6 l -4.15,-3.9 h -5.15 v -54.5 l 3.25,-2.45 h 2.35 l 5.7,4.45 v 3 h 3 V 73.9 l -6.75,-5.4 h -10.45 l -6.85,5.4 v 48.6 h -4.45 l -2.4,-1.9 v -5 h -2.6 v 5.4 l 4.4,3.45 h 5.05 v 44.1 l 11.6,9.3 h 4.3 v -2.4 h -3.55 z m 53.15,4.9 h 3.8 v -2.6 h -3.8 l -2.35,-1.9 V 124 l 5.5,4.35 h 9.7 l 7.55,-5.85 V 79.95 L -358.35,68.5 h -9.2 l -9.45,7.45 v 92.6 z M -507.15,70.5 h 3.15 l 7.95,6.4 V 124 l -2.55,1.9 h -4.75 l -6.85,-5.3 V 72.95 Z m 1.8,57.85 h 13.8 l 4.8,-3.9 V 42.3 l -11.85,-9.45 h -4.75 v 2.05 h 4.3 l 2.4,1.95 v 35.1 L -501,68.5 h -9.2 l -9.45,7.45 V 116.9 Z M -24.3,44.2 v 2.55 h 3.15 l 3.6,3 v 70.85 h -5.4 l 9.849,7.75 H -8.7 v -5.85 l 6.75,5.4 h 7.9 l 8.15,-6.45 8.15,6.45 h 7.3 L 38.1,121 V 76.5 h 5.049 l -9.849,-8 h -4.35 v 57.4 h -3.7 L 14.7,117.55 v -41.6 h 4.4 L 9.75,68.5 h -3.8 v 57.4 H 1.05 L -8.7,118 V 53.2 l -11.25,-9 z m -136.95,76.4 9.149,7.3 H -147 v -5.4 l 7.2,5.85 h 8.699 l 8.051,-6.45 V 75.95 h 5.6 l -9.151,-7.45 h -6.149 v 57.4 h -4.5 l -9.3,-7.45 v -63.7 l -12.301,-10 h -4.299 v 2 h 4.299 l 3,2.4 v 71.45 z m 120.399,7.3 H -36 V 75.95 h 4.35 L -40.851,68.5 H -45.9 v 52.1 h -4.4 z M -66.3,177.85 h 4.3 v -2.4 h -3.55 l -2.6,-1.9 V 129.9 h 3.799 l 2.351,1.9 v 5.55 h 3.149 v -6 L -63,127.45 h -5.15 v -54.5 l 3.25,-2.45 h 2.35 l 5.699,4.45 v 3 h 3 V 73.9 l -6.75,-5.4 H -71.05 l -6.85,5.4 v 48.6 h -4.451 l -2.399,-1.9 v -5 h -2.601 v 5.4 l 4.401,3.45 h 5.05 v 44.1 z m -254.4,-49.5 h 8.1 l 9.9,-7.75 V 71.05 h 4.35 V 68.5 h -4.35 l -6.75,5.4 -6.95,-5.4 h -9.75 l -9.45,7.45 v 40.5 z m 5.1,-2.45 h -3.15 l -7.4,-6 V 72.4 l 1.7,-1.35 h 4.5 l 7.35,5.85 v 46.55 z m 126.999,-5.3 9.451,7.3 h 4.85 V 75.95 h 4.35 l -9.2,-7.45 h -5.05 v 52.1 z m -73.299,-9.45 -8.7,-7 V 124 l -2.55,1.9 h -4.2 l -6.7,-5.3 V 71.95 l 1.75,-1.45 h 4.4 l 7.3,6 v 12.2 l 9.3,7.55 V 79.95 L -275.55,68.5 h -9.2 l -9.45,7.45 v 40.5 l 14.3,11.45 h 8.7 l 9.3,-7.3 z m 21.6,67.3 h 4.35 v -2.6 h -4.35 l -2.35,-1.9 V 109.6 h 3.7 l 5.35,4.55 v 14.2 l 11.3,9 h 4.85 v -2 h -4.25 l -2.6,-2.05 v -15.75 l -9.85,-7.95 h -4.35 l 13.8,-10.9 V 71.95 l 3.4,-3 h 3.3 v -1.9 h -5.05 l -11.1,8.9 v 25.2 l -8.5,6.95 V 75.95 h 4.15 l -9.3,-7.45 h -5 v 100.05 z"
       style="fill:#e6c97d;fill-opacity:1;fill-rule:evenodd;stroke:none"
       transform="matrix(1.3333333,0,0,-1.3333333,889.26693,1594.6667)" />
    <path
       id="path8"
       d="m 504.35,339.7 h 9.9 v -11.4 h -9.9 z m -202.5,0 h 9.9 v -11.4 h -9.9 z m -20.4,136.25 h -9.9 v 11.399 h 9.9 z m 279.75,11.4 h 9.899 V 475.951 H 561.2 Z m -101.25,0 h 9.899 v -11.399 h -9.899 z"
       style="fill:#12253c;fill-opacity:1;fill-rule:evenodd;stroke:none"
       transform="matrix(1.3333333,0,0,-1.3333333,0,2133.3333)" />
  </g>
  <g
     id="layer-MC5">
    <path
       id="path9"
       d="m 0,0 c 0.2,-3.167 -0.066,-7.934 -0.8,-14.3 0,-11.067 -2.2,-21.7 -6.599,-31.9 -2.634,-6.167 -7.451,-14.617 -14.451,-25.35 -7.033,-10.8 -11.849,-19.217 -14.45,-25.25 -4.399,-10.134 -6.599,-20.667 -6.599,-31.6 0,-14.534 6.666,-24.667 20,-30.4 8.799,-3.8 23.45,-6.267 43.95,-7.4 13.166,-0.7 21,-1.167 23.5,-1.4 8.432,-0.7 15.25,-1.783 20.449,-3.25 13.334,-3.7 20,-11.1 20,-22.2 0,-12.267 -1.483,-22.017 -4.449,-29.25 -1.867,-4.5 -5.151,-9.333 -9.851,-14.5 -4.833,-5.3 -8.116,-9.85 -9.849,-13.65 -2.967,-6.633 -4.451,-15.55 -4.451,-26.75 0,-8.767 1.384,-21.433 4.151,-38 2.733,-16.533 4.099,-28.984 4.099,-37.35 0,-10.033 -1.733,-24.984 -5.2,-44.85 -3.5,-19.867 -5.25,-33.517 -5.25,-40.95 0,-5.934 1.484,-13.883 4.45,-23.85 1.567,-5.133 4.85,-14.7 9.85,-28.7 4.601,-12.833 7.884,-22.8 9.851,-29.9 2.966,-10.867 4.45,-20.05 4.45,-27.55 0,-2.6 -1.45,-4.95 -4.351,-7.05 -2.467,-1.8 -6.649,-3.8 -12.55,-6 -18.066,-5.867 -33.883,-11.5 -47.45,-16.9 l -66.3,-0.55 c -9.533,2.1 -18.95,3.983 -28.25,5.65 -18.099,3.2 -32.333,4.8 -42.7,4.8 -41.666,0 -69.217,-13.234 -82.649,-39.7 -4.134,-8.167 -7.167,-18.334 -9.101,-30.501 -0.466,-3.066 -1.05,-7.166 -1.75,-12.299 -0.599,-3.934 -1.233,-6.684 -1.9,-8.25 -4.833,-10.967 -9.766,-20.234 -14.8,-27.8 -6.833,-10.366 -14.95,-19.533 -24.35,-27.5 -23.433,-19.866 -57.049,-34.167 -100.85,-42.901 -1.633,1.101 -5.516,3.084 -11.65,5.951 -6.5,3 -11.6,5.667 -15.299,8 -13,8.066 -20.701,18.266 -23.101,30.6 v 94.35 c -2.899,9.3 -8.866,18.4 -17.899,27.3 -6,5.866 -15.367,13.317 -28.101,22.35 -14.3,10.166 -23.899,17.366 -28.8,21.6 -9.666,8.433 -16.349,16.766 -20.05,25 v 251.35 c -0.1,-0.5 -0.183,-0.783 -0.25,-0.85 -0.2,-0.1 -0.299,1 -0.299,3.3 0,4.5 14.982,17.616 44.949,39.35 11.767,8.5 23.15,16.35 34.15,23.55 11.067,7.233 18.517,11.667 22.35,13.3 13.867,5.933 36.467,13.85 67.801,23.75 27.466,9.633 47.316,19.95 59.549,30.95 19.734,17.867 34.5,31.966 44.3,42.3 17.1,18.067 27.45,32.567 31.05,43.5 3.567,11.133 6.9,18.916 10,23.35 5.733,8.3 14.217,13.9 25.45,16.8 12.8,7.933 22.967,14.45 30.5,19.55 12.734,8.633 20.351,14.683 22.851,18.15 53.633,0.233 86.716,-4.1 99.25,-13 C -2.783,9.85 -0.3,5.466 0,0"
       style="fill:#12253c;fill-opacity:1;fill-rule:evenodd;stroke:none"
       transform="matrix(1.3333333,0,0,-1.3333333,870.79947,220.73307)"
       clip-path="url(#clipPath10)" />
  </g>
  <g
     id="layer-MC6">
    <path
       id="path11"
       d="m 0,0 v -256.35 l 14,-11.6 h 17.45 l 34.85,28 V -34.2 H 36.9 L 80.3,0 H 109 V -404 L 60.15,-443.65 H 33.5 v 9.55 h 20.15 l 12.65,9.25 v 163.7 L 45.45,-277.2 H 0 l -44.1,34.85 V -34.2 h -26 L -26.7,0 Z M 397.95,34.85 H 378.1 L 366.15,25.3 V -48.2 L 320,-85.45 h -20.15 l 64.25,-50.95 v -124.75 l 16.05,-14 h 15.4 v -8.9 h -23.6 l -51.95,41.7 v 117.6 l -39.65,32.45 v -150.05 h 19.5 L 256.4,-277.2 h -23.2 v 466.9 l 58.1,46.15 h 20.5 v -12 H 291.3 L 280.35,215 V -85.45 h 17.45 l 24.95,21.2 v 66.3 l 52.6,42.05 h 22.6 z"
       style="fill:#e6c97d;fill-opacity:1;fill-rule:evenodd;stroke:none"
       transform="matrix(1.3333333,0,0,-1.3333333,375.13347,546.4668)" />
    <path
       id="path12"
       d="M 0,0 89.55,71.45 V -328.1 H 46.85 V 25.3 L 14,0 Z"
       style="fill:#903433;fill-opacity:1;fill-rule:evenodd;stroke:none"
       transform="matrix(1.3333333,0,0,-1.3333333,513.73307,500)" />
  </g>
  <g
     id="layer-MC7">
    <path
       id="path13"
       d="m 0,0 0.243,1.873 c 0.43,0.832 0.832,1.498 1.208,1.998 l 1.612,2.245 c 0.59,0.835 1.128,1.417 1.612,1.749 0.591,0.5 0.993,0.748 1.209,0.748 L 14.426,7.865 14.345,-1.873 H 11.122 L 10.799,2.246 5.722,3.495 C 5.614,3.495 5.48,3.371 5.318,3.122 5.212,3.036 5.104,2.746 4.998,2.246 L 4.916,0.873 c 0,-0.914 0.188,-1.707 0.564,-2.373 0.484,-0.748 0.967,-1.331 1.451,-1.748 l 3.788,-3.494 c 0.537,-0.418 1.316,-1.166 2.337,-2.249 0.751,-0.915 1.342,-1.831 1.772,-2.746 0.484,-1 0.726,-2.083 0.726,-3.246 v -1.872 l -0.323,-2.249 -1.128,-2.25 c -0.268,-0.582 -0.78,-1.455 -1.532,-2.621 l -1.772,-2.122 c -0.536,-0.499 -1.022,-0.748 -1.451,-0.748 H 7.656 l -7.816,0.997 0.08,11.363 2.901,0.126 1.048,-5.87 3.626,-1.373 1.37,-0.249 c 0.162,0 0.323,0.166 0.483,0.497 l 0.485,1.5 c 0.16,0.5 0.24,0.999 0.24,1.499 0,0.916 -0.186,1.665 -0.563,2.248 -0.269,0.5 -0.78,1.124 -1.531,1.873 l -2.741,2.373 C 3.789,-10.613 2.74,-9.533 2.096,-8.615 1.289,-7.618 0.727,-6.618 0.403,-5.618 0.081,-4.538 -0.08,-3.331 -0.08,-2 Z"
       style="fill:#e6c97d;fill-opacity:1;fill-rule:evenodd;stroke:none"
       transform="matrix(1.3333333,0,0,-1.3333333,706.7864,2059.5416)"
       clip-path="url(#clipPath14)" />
    <path
       id="path15"
       d="m 0,0 4.191,5.242 c 1.503,0 2.874,-0.414 4.11,-1.248 C 9.483,3.245 10.315,1.914 10.799,0 l 3.466,4.618 0.563,0.624 c 1.665,0 3.089,-0.373 4.272,-1.121 1.127,-0.666 2.014,-1.914 2.658,-3.746 0.645,-1.748 0.968,-4.163 0.968,-7.243 v -17.357 l 1.692,-1.124 v -3.494 l -5.481,-1.373 -0.563,0.497 -0.968,1.249 -0.403,0.875 v 20.603 c 0,1.497 -0.107,2.58 -0.321,3.246 -0.162,0.666 -0.403,1.207 -0.726,1.624 -0.106,0.166 -0.376,0.373 -0.806,0.624 l -0.645,0.125 -0.564,-0.376 -1.933,-1.622 -0.564,-0.375 v -20.479 l 1.692,-1.124 v -3.494 l -5.401,-1.373 -0.643,0.497 -0.886,1.249 -0.403,0.875 v 20.603 c 0,1.914 -0.162,3.246 -0.485,3.994 -0.267,0.749 -0.589,1.207 -0.966,1.373 L 3.466,-1.373 2.82,-1.749 0.242,-3.746 v -20.479 l 1.693,-1.124 v -3.494 l -5.481,-1.373 c -0.16,0 -0.348,0.165 -0.563,0.497 l -0.886,1.249 -0.484,0.875 V -0.873 L -7.253,0.248 V 3.869 L -1.611,5.242 -0.322,3.37 C -0.106,3.038 0,2.704 0,2.372 Z"
       style="fill:#e6c97d;fill-opacity:1;fill-rule:evenodd;stroke:none"
       transform="matrix(1.3333333,0,0,-1.3333333,740.09507,2055.0469)"
       clip-path="url(#clipPath16)" />
    <path
       id="path17"
       d="m 0,0 c -0.208,-1.544 -0.329,-3.729 -0.363,-6.556 l 5.681,1.562 c 0,2.911 -0.189,5.118 -0.565,6.616 -0.32,1.582 -1.02,2.455 -2.095,2.621 L 1.853,4.37 C 1.53,4.37 1.235,4.243 0.967,3.995 0.537,3.577 0.214,2.246 0,0 M -3.626,3.495 1.209,8.364 C 2.068,8.947 2.632,9.237 2.9,9.237 4.727,9.237 6.231,8.74 7.413,7.74 8.596,6.909 9.481,5.16 10.073,2.497 c 0.59,-2.414 0.886,-6.119 0.886,-11.113 l -11.361,-1.873 c 0.067,-2.082 0.283,-3.789 0.643,-5.118 0.538,-1.666 1.075,-2.749 1.612,-3.249 0.699,-0.666 1.262,-0.998 1.692,-0.998 l 6.688,0.5 V -23.1 l -6.526,-2.872 -1.371,-0.249 c -1.557,0 -3.008,0.583 -4.351,1.746 -1.29,1.248 -2.337,3.038 -3.142,5.371 -0.753,2.248 -1.129,5.16 -1.129,8.74 0,2.663 0.107,4.953 0.322,6.867 0.215,1.997 0.511,3.621 0.887,4.87 0.268,0.583 0.752,1.29 1.451,2.122"
       style="fill:#e6c97d;fill-opacity:1;fill-rule:evenodd;stroke:none"
       transform="matrix(1.3333333,0,0,-1.3333333,784.90107,2060.3737)"
       clip-path="url(#clipPath18)" />
    <path
       id="path19"
       d="M 0,0 3.305,2.249 6.85,8.741 c 0.268,0 0.564,-0.125 0.887,-0.373 L 8.945,7.743 V 1.624 h 4.754 V -3.37 H 8.945 v -19.978 c 0,-1.497 0.108,-2.415 0.322,-2.746 0.162,-0.5 0.429,-0.751 0.805,-0.751 l 4.192,-0.249 v -4.494 l -7.252,-1.373 c -0.27,0 -0.619,0.207 -1.049,0.624 l -1.208,1.746 -1.047,2.124 c -0.27,0.832 -0.403,1.456 -0.403,1.873 v 23.473 l -3.305,0 z"
       style="fill:#e6c97d;fill-opacity:1;fill-rule:evenodd;stroke:none"
       transform="matrix(1.3333333,0,0,-1.3333333,801.44667,2051.3867)"
       clip-path="url(#clipPath20)" />
    <path
       id="path21"
       d="m 0,0 -5.561,-1.81 -0.162,-1.185 -0.08,-1.872 c 0,-1 0.136,-2 0.404,-2.997 0.376,-0.834 0.967,-1.249 1.773,-1.249 l 0.967,0.5 L 0,-6.556 Z m -2.82,19.978 c 0.591,0 1.476,-0.082 2.658,-0.249 0.43,-0.083 0.995,-0.541 1.692,-1.373 0.752,-0.917 1.371,-1.832 1.855,-2.748 0.805,-1.415 1.342,-2.498 1.611,-3.246 0.43,-1.166 0.646,-2.08 0.646,-2.746 V -9.489 l 1.852,-1.124 v -3.494 L 1.853,-15.48 c -0.161,0 -0.349,0.165 -0.564,0.497 l -0.806,1.249 c -0.215,0.334 -0.322,0.624 -0.322,0.875 v 2.434 l -3.466,-4.058 c -0.483,-0.666 -0.833,-0.997 -1.047,-0.997 -1.665,0 -2.982,0.456 -3.949,1.373 -1.021,0.914 -1.771,2.121 -2.257,3.621 -0.483,1.497 -0.723,3.204 -0.723,5.119 0,1.165 0.08,2.372 0.24,3.621 0.107,0.997 0.377,2.205 0.807,3.619 L 0,3.934 v 4.182 c 0,1.334 -0.188,2.456 -0.564,3.373 -0.323,0.666 -0.914,1.039 -1.773,1.124 l -6.769,-0.127 -0.726,1.5 0.969,5.618 c 1.395,0.167 2.443,0.25 3.14,0.25 z"
       style="fill:#e6c97d;fill-opacity:1;fill-rule:evenodd;stroke:none"
       transform="matrix(1.3333333,0,0,-1.3333333,838.086,2074.694)"
       clip-path="url(#clipPath22)" />
    <path
       id="path23"
       d="M 0,0 0.485,-0.624 1.209,-1.872 1.612,-2.745 V -5.118 L 6.366,0 c 1.505,0 2.821,-0.373 3.949,-1.121 1.022,-0.583 1.855,-1.832 2.498,-3.746 0.539,-1.666 0.806,-4.08 0.806,-7.243 v -17.357 l 1.855,-1.124 v -3.494 l -5.561,-1.373 -0.645,0.497 -0.887,1.249 -0.402,0.875 v 20.727 c 0,1.832 -0.162,3.122 -0.484,3.87 -0.269,0.749 -0.59,1.207 -0.967,1.373 L 5.641,-6.615 4.835,-6.991 1.774,-8.988 v -20.479 l 1.852,-1.124 v -3.494 l -5.559,-1.373 -0.645,0.497 -1.289,2.124 v 26.846 l -1.854,1.124 v 3.494 z"
       style="fill:#e6c97d;fill-opacity:1;fill-rule:evenodd;stroke:none"
       transform="matrix(1.3333333,0,0,-1.3333333,858.39187,2048.0573)"
       clip-path="url(#clipPath24)" />
    <path
       id="path25"
       d="M 0,0 V 6.556 L -5.479,4.746 -5.641,3.561 -5.721,1.688 c 0,-1 0.135,-2 0.403,-2.997 0.377,-0.834 0.941,-1.249 1.692,-1.249 l 1.048,0.5 z m -9.024,19.042 -0.726,1.5 0.968,5.618 c 1.395,0.166 2.444,0.249 3.141,0.249 l 2.903,0.124 c 0.59,0 1.476,-0.082 2.658,-0.248 0.43,-0.083 0.994,-0.541 1.691,-1.373 0.753,-0.917 1.371,-1.832 1.855,-2.748 0.805,-1.415 1.343,-2.498 1.611,-3.246 0.43,-1.166 0.646,-2.08 0.646,-2.746 V -2.934 l 1.772,-1.124 v -3.494 l -5.56,-1.373 c -0.162,0 -0.35,0.165 -0.564,0.497 L 0.565,-7.179 C 0.35,-6.845 0.242,-6.555 0.242,-6.304 v 2.435 l -3.466,-4.059 c -0.482,-0.666 -0.832,-0.997 -1.046,-0.997 -1.666,0 -2.982,0.456 -3.949,1.373 -1.021,0.914 -1.772,2.121 -2.257,3.621 -0.483,1.497 -0.724,3.204 -0.724,5.119 0,1.166 0.081,2.373 0.241,3.622 0.162,1.415 0.43,2.622 0.806,3.619 L 0,10.489 v 4.183 c 0,1.5 -0.16,2.624 -0.483,3.373 -0.323,0.666 -0.913,1.039 -1.772,1.124 -0.323,0.083 -0.941,0.124 -1.854,0.124 z"
       style="fill:#e6c97d;fill-opacity:1;fill-rule:evenodd;stroke:none"
       transform="matrix(1.3333333,0,0,-1.3333333,897.60933,2083.4349)"
       clip-path="url(#clipPath26)" />
    <path
       id="path27"
       d="m 0,0 0.886,-1 c 0.322,-0.5 0.483,-0.831 0.483,-1 l 3.224,-23.972 h 0.562 l 3.306,15.608 -0.968,4.994 -2.014,0.873 v 3.746 L 10.716,0.497 11.361,0 l 0.967,-1 0.484,-1 3.465,-23.972 h 0.564 l 3.142,20.978 -3.223,0.624 v 4.119 l 6.769,0.748 0.564,-0.624 0.645,-1.248 0.242,-1.122 -5.64,-31.091 -5.641,-1.5 -0.805,0.751 -2.661,14.983 H 9.91 l -2.82,-14.234 -5.561,-1.5 -0.805,0.751 -4.753,28.967 -1.855,0.873 v 3.746 l 5.238,1.248 z"
       style="fill:#e6c97d;fill-opacity:1;fill-rule:evenodd;stroke:none"
       transform="matrix(1.3333333,0,0,-1.3333333,916.52213,2048.72)"
       clip-path="url(#clipPath28)" />
    <path
       id="path29"
       d="m 0,0 c 0.27,-0.834 0.833,-1.249 1.692,-1.249 l 1.048,0.5 2.578,2.058 V 7.864 L -0.242,6.055 C -0.296,5.687 -0.322,5.289 -0.322,4.869 L -0.402,2.997 C -0.402,1.748 -0.269,0.748 0,0 m -4.432,21.851 0.886,5.618 6.044,0.373 c 0.699,0 1.585,-0.082 2.66,-0.248 0.43,-0.083 0.993,-0.541 1.692,-1.373 0.699,-0.834 1.342,-1.749 1.934,-2.748 0.644,-1.164 1.155,-2.246 1.531,-3.246 0.43,-1.166 0.645,-2.081 0.645,-2.747 V -1.625 l 1.853,-1.124 V -6.243 L 7.173,-7.616 6.607,-7.119 5.884,-5.87 5.48,-4.995 v 2.373 L 2.015,-6.619 C 1.532,-7.285 1.183,-7.616 0.967,-7.616 c -1.665,0 -2.954,0.456 -3.867,1.373 -0.968,0.748 -1.747,1.956 -2.337,3.621 -0.484,1.497 -0.726,3.204 -0.726,5.119 0,1.165 0.08,2.372 0.242,3.621 l 0.806,3.619 10.233,2.061 v 4.182 c 0,1.5 -0.16,2.624 -0.483,3.374 -0.43,0.666 -1.022,1.039 -1.772,1.124 l -6.849,-0.127 z"
       style="fill:#e6c97d;fill-opacity:1;fill-rule:evenodd;stroke:none"
       transform="matrix(1.3333333,0,0,-1.3333333,960.78773,2085.1797)"
       clip-path="url(#clipPath30)" />
    <path
       id="path31"
       d="M 0,0 0.646,-0.624 1.531,-1.997 1.935,-2.994 1.854,-5.991 5.238,-0.624 5.804,0 7.575,-0.373 9.188,-1.121 9.43,-2.37 9.59,-3.994 9.35,-5.242 8.221,-8.74 7.898,-9.488 6.044,-8.364 5.077,-8.115 3.788,-8.74 2.097,-10.113 v -18.854 l 2.738,-1.248 v -3.746 l -6.526,-1.497 c -0.162,0 -0.35,0.165 -0.564,0.497 l -0.887,1.249 -0.484,0.875 v 26.97 l -1.772,1 v 3.494 z"
       style="fill:#e6c97d;fill-opacity:1;fill-rule:evenodd;stroke:none"
       transform="matrix(1.3333333,0,0,-1.3333333,987.86333,2048.0573)"
       clip-path="url(#clipPath32)" />
    <path
       id="path33"
       d="m 0,0 c -0.208,-1.544 -0.327,-3.729 -0.362,-6.556 l 5.68,1.562 c 0,2.911 -0.187,5.118 -0.563,6.616 C 4.432,3.204 3.733,4.077 2.66,4.243 L 1.854,4.37 C 1.531,4.37 1.235,4.243 0.968,3.995 0.538,3.577 0.216,2.246 0,0 m -5.076,1.373 c 0.214,0.415 0.724,1.124 1.53,2.122 L 1.209,8.364 C 2.068,8.947 2.633,9.237 2.9,9.237 4.728,9.237 6.232,8.74 7.414,7.74 8.597,6.909 9.482,5.16 10.073,2.497 c 0.645,-2.665 0.968,-6.369 0.968,-11.113 l -11.444,-1.873 c 0.069,-2.082 0.283,-3.789 0.645,-5.118 0.537,-1.666 1.073,-2.749 1.612,-3.249 0.699,-0.666 1.262,-0.998 1.692,-0.998 l 6.769,0.5 V -23.1 l -6.609,-2.872 -1.369,-0.249 c -1.505,0 -2.954,0.583 -4.352,1.746 -1.289,1.248 -2.337,3.038 -3.143,5.371 -0.75,2.497 -1.127,5.411 -1.127,8.74 0,2.663 0.107,4.953 0.321,6.867 0.216,1.997 0.512,3.621 0.888,4.87"
       style="fill:#e6c97d;fill-opacity:1;fill-rule:evenodd;stroke:none"
       transform="matrix(1.3333333,0,0,-1.3333333,1010.3203,2060.3737)"
       clip-path="url(#clipPath34)" />
    <path
       id="path35"
       d="m 0,0 8.944,1.622 c 1.022,0 2.015,-0.249 2.983,-0.749 1.02,-0.5 1.826,-1.289 2.418,-2.372 0.643,-1.249 0.967,-2.829 0.967,-4.743 0,-1.583 -0.27,-3.288 -0.807,-5.119 -0.43,-1.666 -1.074,-3.332 -1.934,-4.994 L 6.77,-27.469 v -0.625 h 6.124 l 0.403,5.243 h 2.98 l 0.162,-11.486 H -0.806 l -0.402,4.119 7.655,14.86 c 0.966,1.914 1.585,3.331 1.854,4.245 0.376,1.083 0.563,2.332 0.563,3.746 L 8.622,-4.869 C 8.354,-3.955 8.059,-3.496 7.736,-3.496 L 3.787,-4.745 3.304,-10.864 H 0.323 Z"
       style="fill:#e6c97d;fill-opacity:1;fill-rule:evenodd;stroke:none"
       transform="matrix(1.3333333,0,0,-1.3333333,1040.8347,2048.5547)"
       clip-path="url(#clipPath36)" />
    <path
       id="path37"
       d="m 0,0 c 3.439,0 5.964,-1.58 7.575,-4.743 1.665,-3.331 2.498,-7.867 2.498,-13.611 0,-2.163 -0.187,-4.287 -0.563,-6.368 C 9.188,-26.804 8.648,-28.76 7.898,-30.591 7.092,-32.423 6.07,-33.92 4.835,-35.086 3.6,-36.169 2.015,-36.707 0.08,-36.707 c -3.384,0 -5.936,1.621 -7.655,4.867 -1.612,3.249 -2.417,7.743 -2.417,13.486 0,2.081 0.162,4.205 0.482,6.368 0.323,2.083 0.888,4.08 1.694,5.995 0.751,1.748 1.772,3.204 3.061,4.369 C -3.357,-0.539 -1.772,0 0,0 m -3.706,-11.735 -0.081,-6.619 c 0,-4.911 0.241,-8.364 0.724,-10.364 0.485,-2.08 1.344,-3.122 2.58,-3.122 0.699,0 1.396,0.21 2.094,0.624 l 1.693,1.249 c 0.162,0.917 0.296,2.497 0.403,4.746 l 0.08,6.867 c 0,4.912 -0.241,8.365 -0.724,10.365 -0.485,1.998 -1.344,2.995 -2.58,2.995 -0.753,0 -1.422,-0.166 -2.014,-0.498 L -3.304,-6.867 C -3.466,-7.782 -3.6,-9.406 -3.706,-11.735"
       style="fill:#e6c97d;fill-opacity:1;fill-rule:evenodd;stroke:none"
       transform="matrix(1.3333333,0,0,-1.3333333,1081.664,2046.3919)"
       clip-path="url(#clipPath38)" />
    <path
       id="path39"
       d="m 0,0 8.945,1.622 c 1.021,0 2.015,-0.249 2.982,-0.749 1.021,-0.5 1.827,-1.289 2.417,-2.372 0.645,-1.249 0.967,-2.829 0.967,-4.743 0,-1.832 -0.268,-3.539 -0.806,-5.119 -0.43,-1.666 -1.073,-3.332 -1.933,-4.994 L 6.77,-27.469 v -0.625 h 6.124 l 0.402,5.243 h 2.982 l 0.161,-11.486 H -0.807 l -0.402,4.119 7.655,14.86 c 0.968,1.914 1.585,3.331 1.855,4.245 0.376,1.083 0.563,2.332 0.563,3.746 L 8.623,-4.869 C 8.461,-3.955 8.167,-3.496 7.737,-3.496 L 3.788,-4.745 3.305,-10.864 H 0.322 Z"
       style="fill:#e6c97d;fill-opacity:1;fill-rule:evenodd;stroke:none"
       transform="matrix(1.3333333,0,0,-1.3333333,1101.2188,2048.5547)"
       clip-path="url(#clipPath40)" />
    <path
       id="path41"
       d="m 0,0 c -0.43,0.917 -1.074,1.373 -1.934,1.373 l -3.465,-1.746 c -0.054,-3.249 -0.054,-5.911 0,-7.992 0.162,-2.165 0.564,-3.745 1.208,-4.745 0.699,-1.083 1.774,-1.622 3.223,-1.622 0.376,0 0.672,0.29 0.888,0.873 0.214,0.5 0.403,1.497 0.563,2.997 0.162,1.249 0.243,2.912 0.243,4.994 C 0.726,-2.956 0.483,-0.997 0,0 M 4.029,18.356 C 2.632,17.938 1.396,17.231 0.323,16.231 -0.698,15.4 -1.611,14.317 -2.417,12.986 -3.116,11.903 -3.733,10.53 -4.271,8.864 -4.755,7.201 -5.077,5.618 -5.237,4.121 l 0.16,-0.251 3.223,2.624 c 0.376,0.331 0.645,0.497 0.806,0.497 2.095,0 3.653,-0.665 4.675,-1.997 C 4.809,3.745 5.588,2.124 5.964,0.124 6.447,-1.79 6.687,-3.787 6.687,-5.868 L 6.447,-9.24 5.964,-12.235 4.433,-14.859 c -0.43,-0.583 -1.129,-1.373 -2.095,-2.37 l -2.097,-1.874 c -0.697,-0.417 -1.262,-0.624 -1.692,-0.624 -1.558,0 -2.954,0.373 -4.19,1.123 -1.181,0.665 -2.23,1.789 -3.142,3.372 -0.807,1.415 -1.425,3.163 -1.855,5.243 -0.483,2.083 -0.723,4.453 -0.723,7.119 0,3.994 0.429,7.574 1.289,10.737 0.752,2.912 1.879,5.536 3.384,7.864 1.397,2 3.062,3.665 4.997,4.996 1.771,1.165 3.679,1.958 5.72,2.373 z"
       style="fill:#e6c97d;fill-opacity:1;fill-rule:evenodd;stroke:none"
       transform="matrix(1.3333333,0,0,-1.3333333,1143.8749,2069.0325)"
       clip-path="url(#clipPath42)" />
  </g>
  <g
     id="layer-MC8">
    <path
       id="path43"
       d="m 75.8,1429.6 h 12.4 v -15.2 H 75.8 Z m 21.35,116.25 H 80 l -9.3,-7.45 v -19.8 h -13 v 14.65 l 19.85,15.7 h 23.6 l 18.95,-15.15 v -64.05 L 91.5,1446.8 h -5.75 v 2.55 l 21.4,17.3 v 71.2 z"
       style="fill:#e6c97d;fill-opacity:1;fill-rule:evenodd;stroke:#e6c97d;stroke-width:2;stroke-linecap:butt;stroke-linejoin:miter;stroke-miterlimit:3;stroke-dasharray:none;stroke-opacity:1"
       transform="matrix(1.3333333,0,0,-1.3333333,0,2133.3333)" />
  </g>
</svg>
