<svg xmlns="http://www.w3.org/2000/svg" width="1200" height="2133.7" viewBox="0 0 1200 2133.7"><defs><clipPath id="a" clipPathUnits="userSpaceOnUse"><path d="M-551 1563h900V-37h-900z"/></clipPath><clipPath id="b" clipPathUnits="userSpaceOnUse"><path d="M-653 306h900v-1600h-900Z"/></clipPath><clipPath id="c" clipPathUnits="userSpaceOnUse"><path d="M-530 1545h900V-55h-900z"/></clipPath><clipPath id="d" clipPathUnits="userSpaceOnUse"><path d="M-555 1541h900V-59h-900z"/></clipPath><clipPath id="e" clipPathUnits="userSpaceOnUse"><path d="M-589 1545h900V-55h-900z"/></clipPath><clipPath id="f" clipPathUnits="userSpaceOnUse"><path d="M-601 1539h900V-61h-900z"/></clipPath><clipPath id="g" clipPathUnits="userSpaceOnUse"><path d="M-629 1556h900V-44h-900z"/></clipPath><clipPath id="h" clipPathUnits="userSpaceOnUse"><path d="M-644 1536h900V-64h-900z"/></clipPath><clipPath id="i" clipPathUnits="userSpaceOnUse"><path d="M-673 1563h900V-37h-900z"/></clipPath><clipPath id="j" clipPathUnits="userSpaceOnUse"><path d="M-687 1537h900V-63h-900z"/></clipPath><clipPath id="k" clipPathUnits="userSpaceOnUse"><path d="M-721 1564h900V-36h-900z"/></clipPath><clipPath id="l" clipPathUnits="userSpaceOnUse"><path d="M-741 1536h900V-64h-900z"/></clipPath><clipPath id="m" clipPathUnits="userSpaceOnUse"><path d="M-758 1545h900V-55h-900z"/></clipPath><clipPath id="n" clipPathUnits="userSpaceOnUse"><path d="M-781 1536h900V-64h-900z"/></clipPath><clipPath id="o" clipPathUnits="userSpaceOnUse"><path d="M-808 1547H92V-53h-900z"/></clipPath><clipPath id="p" clipPathUnits="userSpaceOnUse"><path d="M-826 1536H74V-64h-900z"/></clipPath><clipPath id="q" clipPathUnits="userSpaceOnUse"><path d="M-858 1552H42V-48h-900z"/></clipPath><clipPath id="r" clipPathUnits="userSpaceOnUse"><path d="M-738 163h900v-1600h-900Z"/></clipPath><clipPath id="s" clipPathUnits="userSpaceOnUse"><path d="M-738 163h900v-1600h-900Z"/></clipPath><clipPath id="t" clipPathUnits="userSpaceOnUse"><path d="M-746 89h900v-1600h-900Z"/></clipPath></defs><path d="M0 2133h1200V0H0Z" style="fill:#12253c;fill-opacity:1;fill-rule:nonzero;stroke:none;stroke-width:1.33333"/><path d="M0 0q0 6 4 14 5 8 12 14 20 16 51 19l57 1 37 5 48 6v1h71l5-4 63-11v-82H18q-8 6-13 18Q0-9 0 0m-180 425 60-1q-3-2 1-5h18l2-4q1-3 5-3 38 0 57 5a41 41 0 0 1 25 19l6 5q9 6 29 6 13 0 22-10l5-9q3-6 6-7 7-7 19-11l20-6 31 5h61q35-26 42-44 3-9 3-19l1-38q-1-17-10-27-28-34-129-19l-40-29q-6 0-12 5l-12 9q-6 7-13 10-9 3-19 3h-21l-19-17h-25q-21 11-46 19-36 10-71 10-3 0-11-9l-10-10h-30l-9 2q-6 2-8 5-26-3-38-10l-10-6-9-6h-21q-13 4-19 12l-5 5-5 7q-47-7-59 27-5 12-5 27l1 68q3 30 15 51 17 30 36 31 15 1 31-14l24-31q12-17 16-17 18 0 33 18 4 3 10 12l6 8h21l22-10q10-4 28-7m-187 1107v-17q0-46-21-88-22-48-70-81h-31a75 75 0 0 0-24 33l-4 10q-6 10-17 17l-12 7v146h156l13-8q9-8 10-19" clip-path="url(#a)" style="fill:#12253c;fill-opacity:1;fill-rule:evenodd;stroke:none" transform="matrix(1.3333333 0 0 -1.3333333 735 2084)"/><path d="m0 0-1-14q0-17-6-32l-15-26q-11-15-14-25-7-15-7-31 0-22 20-31 14-6 44-7l44-5q20-6 20-22 0-18-4-29-3-8-10-15l-10-13q-5-11-5-27 0-14 5-38l4-38q0-15-6-44l-5-41q0-9 5-24l19-59q5-16 5-27 0-4-5-7l-12-6-48-17-66-1-71 11q-62 0-82-40-7-12-10-31l-3-20-15-28q-11-15-24-27-35-31-101-43l-12 6-15 8q-20 12-23 30v95q-4 14-18 27l-28 22q-22 15-29 22-15 13-20 25v251-1l-1 4q0 6 45 39l57 37q21 9 68 24 41 14 59 31 30 25 44 42 27 27 31 43 6 17 11 24 8 13 25 16l53 38q81 0 100-13Q0 8 0 0m100-425v2-21l-2 6z" clip-path="url(#b)" style="fill:#12253c;fill-opacity:1;fill-rule:evenodd;stroke:none" transform="matrix(1.3333333 0 0 -1.3333333 871 408)"/><path d="m282 792 57-45h36v341l19 16h24l45-37V792h-38l57-45h39v539l-66 52h-34v-12h26l16-12v-219l-26 21h-62l-58-46V792Zm624-104v12h-27l-16 12v99l-61 49h-27l86 68v167l21 19h21v12h-32l-69-56V914l-53-44v200h26l-57 46h-32V494l77-62h28v16h-28l-14 12v400h24l33-28v-88l69-56z" style="fill:#e6c97d;fill-opacity:1;fill-rule:evenodd;stroke:none;stroke-width:1.33333"/><path d="m514 699 120-94v532h-57V666l-44 33z" style="fill:#903433;fill-opacity:1;fill-rule:evenodd;stroke:none;stroke-width:1.33333"/><path d="M0 0v2l1 2 2 2 2 2 1 1 8-1V-2h-3v4L6 3H5v-4l2-2 4-4 2-2 2-3 1-3v-2l-1-2-1-2-1-3-2-2-2-1H8l-8 1v12h3l1-6 3-2h2v1l1 1v4l-2 2-3 2-3 3-2 3v4z" clip-path="url(#c)" style="fill:#e6c97d;fill-opacity:1;fill-rule:evenodd;stroke:none" transform="matrix(1.3333333 0 0 -1.3333333 707 2060)"/><path d="m0 0 4 5 4-1 3-4 3 5h1l4-1 3-4 1-7v-17l1-1v-4l-5-1h-1l-1 2v24l-1 2-1 1-1-1-2-1-1-1v-20l2-1v-4l-5-1H7l-1 2v21L5-3 4-2 3-1v-1L0-4v-20l2-1v-4l-6-1-1 2v27l-2 1v4l5 1 2-2V2Z" clip-path="url(#d)" style="fill:#e6c97d;fill-opacity:1;fill-rule:evenodd;stroke:none" transform="matrix(1.3333333 0 0 -1.3333333 740 2055)"/><path d="M0 0v-7l5 2v7L3 4H1Zm-5 1 1 2 5 5 2 1 4-1q2-1 3-6l1-11-11-1v-6l2-3 2-1 6 1v-4l-6-3H2l-4 2-3 5-1 9z" clip-path="url(#e)" style="fill:#e6c97d;fill-opacity:1;fill-rule:evenodd;stroke:none" transform="matrix(1.3333333 0 0 -1.3333333 785 2060)"/><path d="m0 0 3 2 4 7 1-1h1V2h5v-5H9v-23l1-1h4v-5l-7-1-1 1-1 1-1 3-1 1v24H0Z" clip-path="url(#f)" style="fill:#e6c97d;fill-opacity:1;fill-rule:evenodd;stroke:none" transform="matrix(1.3333333 0 0 -1.3333333 801 2051)"/><path d="m0 0-6-2v-3l1-3 1-1h1l3 2zm-3 20h3l2-2 1-2 2-4 1-2V-9l1-2v-3l-5-1H1l-1 1v4l-3-4-1-1-4 1-3 4v5l1 7L0 4v4l-1 3-1 2-7-1-1 2 1 6h3z" clip-path="url(#g)" style="fill:#e6c97d;fill-opacity:1;fill-rule:evenodd;stroke:none" transform="matrix(1.3333333 0 0 -1.3333333 838 2075)"/><path d="m0 0 1-1 1-1v-2l4 5 4-1 3-4 1-7v-17l1-2v-3l-5-1H9l-1 1v22L7-8v1H5L2-9v-20l2-2v-3l-6-1h-1l-1 2v27l-2 1v4z" clip-path="url(#h)" style="fill:#e6c97d;fill-opacity:1;fill-rule:evenodd;stroke:none" transform="matrix(1.3333333 0 0 -1.3333333 858 2048)"/><path d="M0 0v7l-5-2-1-1V2l1-3 1-2 1 1zm-9 19-1 2 1 5h3l3 1 3-1 2-1 1-3 2-3 1-3V-3l1-1v-4L2-9 1-8v1L0-6v2l-3-4-1-1-4 1-2 4-1 5 1 7 10 2v8l-2 1h-2z" clip-path="url(#i)" style="fill:#e6c97d;fill-opacity:1;fill-rule:evenodd;stroke:none" transform="matrix(1.3333333 0 0 -1.3333333 898 2083)"/><path d="m0 0 1-1v-1l4-24 3 16-1 5-2 1v3l6 1 1-1 1-1 3-24h1l3 21-3 1v4h7l1-1v-1l-6-32-5-1-1 1-3 15-3-15-5-1-1 1-5 29-2 1v3z" clip-path="url(#j)" style="fill:#e6c97d;fill-opacity:1;fill-rule:evenodd;stroke:none" transform="matrix(1.3333333 0 0 -1.3333333 917 2049)"/><path d="m0 0 2-1h1l2 2v7L0 6Zm-4 22v5l6 1h3l2-2 3-6 1-3V-2l2-1v-3L7-8v1L6-6 5-5v2L2-7 1-8l-4 2-2 3-1 5v4l1 4 10 2v7l-2 1h-7z" clip-path="url(#k)" style="fill:#e6c97d;fill-opacity:1;fill-rule:evenodd;stroke:none" transform="matrix(1.3333333 0 0 -1.3333333 961 2085)"/><path d="m0 0 1-1v-4l3 5 1 1h2l1-1v-1l1-2-1-1-1-4-2 1-1-2-2-1v-19l3-1v-4l-7-1-1 1-1 1v27l-1 1v4z" clip-path="url(#l)" style="fill:#e6c97d;fill-opacity:1;fill-rule:evenodd;stroke:none" transform="matrix(1.3333333 0 0 -1.3333333 988 2048)"/><path d="M0 0v-7l5 2v7L3 4H1Zm-4 3 5 5 2 1 4-1q2-1 3-6l1-11-11-1v-6l2-3 2-1 6 1v-4l-6-3H2l-4 2-3 5-1 9 1 11z" clip-path="url(#m)" style="fill:#e6c97d;fill-opacity:1;fill-rule:evenodd;stroke:none" transform="matrix(1.3333333 0 0 -1.3333333 1010 2060)"/><path d="m0 0 9 2 3-1 2-2 1-5v-5l-2-5-6-11v-1h6v5h3v-11H-1v4l7 15 2 4 1 4v2L8-3 4-5l-1-6H0Z" clip-path="url(#n)" style="fill:#e6c97d;fill-opacity:1;fill-rule:evenodd;stroke:none" transform="matrix(1.3333333 0 0 -1.3333333 1041 2049)"/><path d="M0 0v-7l1-10q0-3 2-3l2 1 2 1V4L4 7 2 6 0 5Zm4 12q5 0 7-5 3-5 3-14l-2-12-3-4-5-2q-5 0-8 5L-6-7v7l2 6 3 4z" clip-path="url(#o)" style="fill:#e6c97d;fill-opacity:1;fill-rule:evenodd;stroke:none" transform="matrix(1.3333333 0 0 -1.3333333 1077 2062)"/><path d="m0 0 9 2 3-1 2-2 1-5v-5l-2-5-6-11v-1h6v5h3v-11H-1v4l7 15 2 4 1 4v2L8-3 4-5l-1-6H0Z" clip-path="url(#p)" style="fill:#e6c97d;fill-opacity:1;fill-rule:evenodd;stroke:none" transform="matrix(1.3333333 0 0 -1.3333333 1101 2049)"/><path d="m0 0-2 1-3-1v-8l1-5 3-2 1 1v3l1 5zm4 18-4-2-2-3-2-4-1-5 3 2 1 1 5-2 2-5 1-6-1-3v-3l-2-3-2-2-2-2-1-1-5 1-3 4-2 5v7l1 11 3 8 5 5 6 2z" clip-path="url(#q)" style="fill:#e6c97d;fill-opacity:1;fill-rule:evenodd;stroke:none" transform="matrix(1.3333333 0 0 -1.3333333 1144 2069)"/><path d="M925 1602v72h8l-9 8h-4l-4-4v-4l-10 8h-12l-13-10v-59h-7l14-11h6v74l3 2h5l11-8v-57h-7l14-11zm48 7-4-4h-4l-8 8v33l16-14zm13 4v15l-30 24v24l4 4h4l9-8v-16l13-11v23l-18 14h-12l-14-10v-54l20-16h11Zm-505-8-11 9v62l3 2h5l11-8v-61l-4-4zm20 7v54l-19 16h-12l-12-10v-54l19-16h12zm85 1v12l-12 9v-26l-2-3h-6l-9 8v64l3 3h5l9-8v-16l14-11v21l-20 16h-12l-12-10v-54l18-16h12zm26 1v62l2 2h6l10-8v-61l-4-4h-5zm6-12h11l12 10v54l-19 16h-10l-14-10v-54zm35 11 12-11h7v8l10-8h11l11 8v62h8l-12 10h-8v-77h-7l-12 11v85l-16 13h-7v-2h7l4-4v-95zm117 0 14-11h6v70h6l-12 10h-7v-69zm56-11v8l10-8h12l10 8v62h7l-12 10h-8v-77h-5l-14 11v85l-16 13h-5v-2h5l4-4v-95h-6l12-11zm-521 11v65h5v4h-5l-9-8-10 8h-12l-13-10v-54l20-16h11zm-31 0v64l2 1h6l10-8v-61l-4-4h-4zm92 5v51l-16 13h-12l-2-2v37l-16 12h-6v-3h6l4-1v-113h-7l12-10h5v11l7-5h13zm-20-8-10 8v58l4 4h4l10-10v-57l-4-3zm-109-68v58h5l3-2v-8h5v8l-6 6h-7v72l5 4h3l8-7v-4h4v5l-9 8h-15l-8-8v-64h-7l-2 3v7h-4v-8l5-4h7v-59l16-13h5v4h-4zm512-5h7v3h-6l-4 2v58h6l4-2v-8h4v8l-6 6h-8v72l6 4h2l8-7v-4h4v5l-9 8h-13l-10-8v-64h-6l-3 3v7h-4v-8l7-4h6v-59zm-315 5v58h4l4-2v-8h4v8l-5 6h-7v72l4 4h3l8-7v-4h4v5l-9 8h-14l-9-8v-64h-5l-4 3v7h-3v-8l5-4h7v-59l16-13h5v4h-5z" style="fill:#e6c97d;fill-opacity:1;fill-rule:evenodd;stroke:none;stroke-width:1.33333"/><path d="M532 1677h-13v-16h13zm-135 0h-13v-16h13z" style="fill:#12253c;fill-opacity:1;fill-rule:evenodd;stroke:none;stroke-width:1.33333"/><path d="M0 0v24h-18v3h-4v6L6 68H4l2 2-28 4q4 15 16 26 20 20 48 20 27 0 47-20 21-20 20-47 1-28-20-48a65 65 0 0 0-47-20Q18-15 0 0" clip-path="url(#r)" style="fill:#12253c;fill-opacity:1;fill-rule:evenodd;stroke:none" transform="matrix(1.3333333 0 0 -1.3333333 984 218)"/><path d="M0 0q18-15 42-15 27 0 47 20 21 20 20 48 1 27-20 47a65 65 0 0 1-47 20q-28 0-48-20-12-11-16-26" clip-path="url(#s)" style="fill:none;stroke:#e6c97d;stroke-width:15;stroke-linecap:butt;stroke-linejoin:miter;stroke-miterlimit:3;stroke-dasharray:none;stroke-opacity:1" transform="matrix(1.3333333 0 0 -1.3333333 984 218)"/><path d="M0 0a83 83 0 0 1-35-45q-1 30-22 53z" clip-path="url(#t)" style="fill:#e6c97d;fill-opacity:1;fill-rule:evenodd;stroke:none" transform="matrix(1.3333333 0 0 -1.3333333 995 119)"/><path d="M101 227h16v21h-16zm28-155h-22L95 83v25H77V89l27-21h31l25 20v85l-37 31h-8v-3l28-24V83Z" style="fill:#e6c97d;fill-opacity:1;fill-rule:evenodd;stroke:#e6c97d;stroke-width:2.66667;stroke-linecap:butt;stroke-linejoin:miter;stroke-miterlimit:3;stroke-dasharray:none;stroke-opacity:1"/></svg>