<svg xmlns="http://www.w3.org/2000/svg" width="1200" height="2133.3" viewBox="0 0 1200 2133.3"><defs><clipPath id="a" clipPathUnits="userSpaceOnUse"><path d="M-691 583h900v-1600h-900Z"/></clipPath></defs><path d="M0 2133h1200V0H0Z" style="fill:#12253c;fill-opacity:1;fill-rule:nonzero;stroke:none;stroke-width:1.33333"/><path d="M0 0q45 6 63-6 20-20 23-35l2-15v-18q0-15-5-33a216 216 0 0 0-65-104H-9l-28 8h-33q-12-2-15-5l-3-3-3-3q-12-6-89-10-9-7-42-10l-74-2q-23 0-35 12-6 6-9 16l-44-19h-162q-30 6-44 23-11 13-11 31 0 9 16 42l16 31-2 6-3 5q0 18 8 27 13 18 54 17 7 8 18 9 9 3 23 1l45-4q-4 0-4-3l8 3 26 1 76-3 3-3 67-1 4-3 13-6h100l19 14 24 2 38 25 20 7q15 4 32 6" clip-path="url(#a)" style="fill:#12253c;fill-opacity:1;fill-rule:evenodd;stroke:none" transform="matrix(1.3333333 0 0 -1.3333333 921 778)"/><path d="M832 898v44l23-18v-31l-6-4h-5Zm-65-9-19 15v73h8l-16 13h-7V889h-9l-17 13v116l-20 16h-8v-5h5l7-5V898h-10l18-13h8v9l12-9h14l14 12 14-12h14l14 12v80h10l-18 13h-8V889Zm-132-4h14l18 13v88h8v4h-8l-12-9-12 9h-18l-17-12v-73zm-10 15v84l3 2h8l13-10v-83l-5-4h-5zm-32-8v145l-21 17h-8v-4h8l4-2v-63l-8 5h-16l-17-12v-73l25-20h25zm-29-3-12 9v84l5 6h6l14-12v-84l-5-3zm-136-4v91l11 8h5l9-8v-84l23-18h8v6h-8l-7 5v87l-24 18h-9l-20-14-20 14h-9l-24-18v-80l21-16h8v4h-8l-4 2v95l9 7h6l17-14v-72h-9l18-13zm-81 33-42 34v30l6 6h5l13-11v-23l18-13v31l-26 18h-16l-17-12v-73l27-20h14l18 13zm-23-29h-5l-12 9v44l22-18v-31zm-109-4h8v9l13-9h16l13 11v81h11l-16 13h-12V889h-8l-16 13v114l-21 17h-8v-4h8l5-4V898h-11zm713 80h17v20h-17Zm-56-47-41 34v30l5 6h5l14-11v-23l17-13v31l-25 18h-16l-16-13v-72l25-20h15l17 13Zm116-8-39 31h-8v-3l30-22v-96l-14-11h-22l-14 11v26h-17v-20l27-21h32l25 20z" style="fill:#e6c97d;fill-opacity:1;fill-rule:evenodd;stroke:none;stroke-width:1.33333"/><path d="M520 985h-19v-20h19z" style="fill:#12253c;fill-opacity:1;fill-rule:evenodd;stroke:none;stroke-width:1.33333"/><path d="M115 1215h392v392H115Zm569 0h392v392H684Z" style="fill:#12253c;fill-opacity:1;fill-rule:evenodd;stroke:#e6c97d;stroke-width:28.6667;stroke-linecap:butt;stroke-linejoin:miter;stroke-miterlimit:3;stroke-dasharray:none;stroke-opacity:1"/><path d="M952 1348v74l-25 20h-15l-17-14v-72l26-21h15Zm-27-9-13 12v83l4 4h7l13-12v-82l-5-5zm-581 29-41 34v32l5 4h5l14-11v-21l16-14v30l-24 20h-16l-18-14v-72l27-21h15l17 15zm-17-24-6-5h-5l-12 11v44l23-19zm54-5-4 4v31l16 12v101l-17 15h-16l-8-7v-7h5v7l4 3h10l6-6v-102l-17-14v-26l17-15h15l9 7v10l-8 6v-15l-4-4zm-170-3h9v98l5 4h7l13-11v-77h-10l16-14h10v154l-18 16h-10v-4h8l4-4v-63l-8 7h-17l-16-14v-78h-11zm618 16v114l-21 18h-8v-4h8l5-4v-126h-9l16-14h9v10l12-11h16l15 12v81h9l-16 14h-10v-103h-8z" style="fill:#e6c97d;fill-opacity:1;fill-rule:evenodd;stroke:none;stroke-width:1.33333"/></svg>