<?xml version="1.0" encoding="UTF-8" standalone="no"?>
<!-- Created with Inkscape (http://www.inkscape.org/) -->

<svg
   version="1.1"
   id="svg1"
   width="1200"
   height="2133.3333"
   viewBox="0 0 1200 2133.3333"
   xmlns="http://www.w3.org/2000/svg"
   xmlns:svg="http://www.w3.org/2000/svg">
  <defs
     id="defs1">
    <clipPath
       clipPathUnits="userSpaceOnUse"
       id="clipPath5">
      <path
         d="M 0,1600 H 900 V 0 H 0 Z"
         transform="translate(-691.09961,-1016.6499)"
         id="path5" />
    </clipPath>
  </defs>
  <g
     id="layer-MC0">
    <path
       id="path1"
       d="M 0,0 H 900 V 1600 H 0 Z"
       style="fill:#12253c;fill-opacity:1;fill-rule:nonzero;stroke:none"
       transform="matrix(1.3333333,0,0,-1.3333333,0,2133.3333)" />
  </g>
  <g
     id="layer-MC1">
    <path
       id="path2"
       d="m 0,0 2.05,-2.05 1.2,-11.1 -2.051,2.049 z M 22.75,9.35 24.8,7.3 12.75,8.6 10.699,10.649 Z M 6.1,7.95 10.8,3.2 11.55,-4.15 9.699,-5.95 8.55,-4.851 10.149,-3.25 2.55,4.399 Z m -29.701,5.8 11,-1.15 2.151,-2.1 -11.101,1.2 z M -13.351,1.6 8.35,23.35 16.699,22.5 19.05,20.2 17.85,19 15.5,21.3 -6.2,-0.45 -14.101,0.5 -16.4,2.85 l 0.95,0.9 z M -1.051,32.75 0.25,21.149 -1.9,23.25 -3.101,34.8 Z m -7.3,-6.7 -1.849,-1.85 7.3,-7.301 -3.55,-3.549 -4.101,4.1 -0.849,7.949 1.849,1.851 z m -60.299,-98.8 1.2,-11.101 -2.05,2.051 -1.2,11.1 z m 4.049,10 4.701,-4.75 0.7,-7.351 -1.8,-1.849 -1.15,1.099 1.599,1.651 -7.599,7.65 z m 18.701,-0.65 -12.1,1.299 -2.051,2.051 12.101,-1.301 z m -35.25,3.2 -11.1,1.2 -2.051,2.05 11,-1.151 z m 7.349,24.25 2.051,-2.05 1.25,-11.55 -2.15,2.1 z m -6.449,-7.55 1.199,-1.2 -1.849,-1.8 7.299,-7.3 -3.549,-3.551 -4.1,4.101 -0.851,7.95 z m 26.25,-4.75 2.35,-2.3 -1.201,-1.2 -2.349,2.3 -21.75,-21.7 -7.851,0.95 -2.3,2.349 0.951,0.901 2.099,-2.151 21.7,21.701 z m -84.15,35.149 -2.05,2.051 -1.2,11.1 2.049,-2.05 z m 9.45,21.75 -2.05,2.051 12.1,-1.35 2.049,-2.05 z m -6.651,-0.699 4.75,-4.75 0.701,-7.35 -1.8,-1.85 -1.151,1.1 1.601,1.65 -7.65,7.649 z m -7.099,24.8 1.2,-11.601 -2.101,2.101 -1.149,11.55 z m -8.5,-5.55 1.2,-1.2 -1.851,-1.8 7.3,-7.25 -3.55,-3.551 -4.099,4.101 -0.851,7.899 z m -3.8,-25.551 21.699,21.701 8.351,-0.85 2.3,-2.351 -1.201,-1.199 -2.299,2.35 -21.75,-21.7 -7.85,0.9 -2.351,2.35 0.951,0.9 z m 0.75,10.951 2.1,-2.1 -11.1,1.2 -2.051,2.05 z m 72.8,68.6 -11.101,1.199 -2.05,2.051 11.05,-1.15 z m 0.3,13.699 7.299,-7.25 -3.549,-3.549 -4.1,4.1 -0.851,7.9 1.851,1.85 1.199,-1.2 z m 13.45,-37.299 -2.05,2.049 -1.2,11.101 2.05,-2.05 z m 2.8,21.049 4.75,-4.75 0.75,-7.349 -1.85,-1.8 -1.15,1.1 1.599,1.6 -7.649,7.65 z M -54,93.25 l 2.3,-2.351 -1.2,-1.199 -2.3,2.35 -21.7,-21.75 -7.901,0.9 -2.349,2.35 0.95,0.9 2.149,-2.1 21.7,21.75 z M -45.9,78 -57.95,79.35 -60,81.399 -47.95,80.05 Z m -25.85,25.5 1.25,-11.65 -2.101,2.1 -1.2,11.6 z m -68.45,26.85 -1.2,11.1 2.049,-2.051 1.201,-11.099 z m 10.349,6.9 -1.849,-1.8 -1.151,1.15 1.601,1.6 -7.65,7.6 3.549,3.55 4.75,-4.75 z m -24.149,16.8 2.1,-2.151 -11.1,1.201 -2.051,2.049 z m 28.1,8.7 -21.701,-21.75 -7.899,0.95 -2.351,2.3 0.951,0.899 2.15,-2.099 21.699,21.75 8.351,-0.85 2.3,-2.35 -1.201,-1.201 z m 7.25,-11.95 2.049,-2.1 -12.049,1.35 -2.05,2.05 z m -25.651,7.55 -3.55,-3.55 -4.099,4.099 -0.851,7.951 1.851,1.85 1.2,-1.2 -1.851,-1.851 z m 1.851,15.85 1.25,-11.65 -2.101,2.15 -1.199,11.55 z m -11.55,121.25 2.1,-2.15 -11.1,1.2 -2.051,2.05 z m 14.6,-14.65 1.2,-11.1 -2.05,2.05 -1.2,11.1 z m 9.5,-2.1 -1.85,-1.85 -1.101,1.15 1.651,1.6 -7.651,7.6 3.5,3.55 4.75,-4.7 z m -0.85,14.85 12.1,-1.35 2.049,-2.051 -12.099,1.351 z m 61.25,-92.5 -1.2,11.099 2.05,-2.049 1.2,-11.1 z m 4.85,19 4.75,-4.75 0.75,-7.3 -1.85,-1.851 -1.15,1.151 1.65,1.599 -7.65,7.601 z m 4.65,2.8 12.05,-1.35 2.05,-2.101 -12.05,1.401 z m -27.101,-7.9 0.901,0.949 2.149,-2.099 21.7,21.7 8.351,-0.851 2.3,-2.349 -1.2,-1.2 -2.3,2.35 -21.7,-21.7 -7.85,0.899 z m -7.25,10.9 11.05,-1.1 2.101,-2.15 -11.101,1.2 z m 20.55,21.1 2.051,-2.051 1.25,-11.599 -2.101,2.15 z m -7.099,-10.6 7.299,-7.3 -3.5,-3.55 -4.099,4.1 -0.901,7.95 1.851,1.849 1.199,-1.199 z m 92.45,-99.05 -1.851,-1.85 -1.149,1.1 1.649,1.599 -7.649,7.651 3.5,3.55 4.75,-4.75 z M 2.05,139.399 3.25,128.3 1.199,130.35 0,141.45 Z m -8.45,15.401 -4.1,4.099 -0.9,7.901 1.849,1.849 1.2,-1.199 -1.849,-1.85 7.3,-7.25 z m -17.25,0.349 11.049,-1.149 2.101,-2.101 -11.101,1.201 z m 22.599,19.051 1.25,-11.6 -2.099,2.1 -1.201,11.55 z M 19,161.6 l -1.2,-1.201 -2.3,2.351 -21.7,-21.7 -7.851,0.849 -2.349,2.351 0.9,0.95 2.149,-2.1 21.701,21.7 8.349,-0.85 z m 3.75,-10.85 2.05,-2.05 -12.05,1.4 -2.051,2.049 z m -35.351,144.7 2.101,-2.15 -11.101,1.2 -2.049,2.05 z M 2.05,280.8 3.25,269.7 1.199,271.75 0,282.85 Z m 20.75,11.4 2.05,-2.1 -12.1,1.4 -2.051,2.05 z M 9.699,276.85 8.55,278 l 1.649,1.649 -7.649,7.601 3.5,3.5 4.75,-4.75 0.75,-7.3 z m 8.101,24.95 -2.3,2.349 -21.7,-21.699 -7.851,0.9 -2.349,2.299 0.9,0.951 2.149,-2.1 21.701,21.7 8.349,-0.85 L 19,303 Z m -28,5.25 7.3,-7.3 -3.5,-3.5 -4.1,4.1 -0.9,7.9 1.849,1.85 1.2,-1.201 z m 9.149,8.55 1.25,-11.6 -2.099,2.149 -1.201,11.5 z m 13.75,117.299 -2.05,2.051 12.151,-1.35 2.05,-2.05 z m -36.3,5.051 11.05,-1.1 2.101,-2.15 -11.101,1.199 z m 8.101,-9.95 2.1,-2.101 21.7,21.701 8.349,-0.85 2.351,-2.351 -1.2,-1.199 -2.351,2.35 -21.699,-21.7 -7.801,0.95 -2.349,2.3 z M 2.05,422.2 3.25,411.1 1.199,413.149 0,424.25 Z m 4.05,9.949 4.75,-4.699 0.65,-7.35 -1.851,-1.85 -1.099,1.149 1.649,1.651 -7.649,7.599 z m -9.25,26.901 2.049,-2.05 1.3,-11.601 -2.099,2.151 z m -7,-10.6 7.25,-7.301 -3.55,-3.5 -4.101,4.101 -0.8,7.899 1.8,1.851 1.2,-1.2 z m -84.201,-81.2 11.05,-1.101 2.101,-2.149 -11.101,1.2 z m 13.451,10.5 7.25,-7.3 -3.5,-3.5 -4.1,4.1 -0.851,7.9 1.851,1.85 1.199,-1.2 z m 19.849,-30.2 -1.099,1.15 1.65,1.65 -7.65,7.6 3.5,3.5 4.75,-4.7 0.7,-7.351 z m -7.649,3.95 1.2,-11.101 -2.051,2.051 -1.199,11.1 z m 8.649,12.75 12.151,-1.351 2.049,-2.049 L -58,362.2 Z m -10.449,10.45 -2.101,2.15 -1.25,11.5 2.05,-2.05 z m 17.6,-2.2 -2.35,2.35 -21.7,-21.701 -7.8,0.901 -2.351,2.3 0.901,0.95 2.099,-2.1 21.701,21.699 8.349,-0.849 2.351,-2.35 z m -70.701,-70.7 -2.349,2.349 -21.7,-21.699 -7.8,0.9 -2.351,2.299 0.901,0.951 2.099,-2.1 21.7,21.7 8.351,-0.85 2.35,-2.35 z m -20.95,15.849 2.051,-2.049 1.3,-11.6 -2.101,2.149 z m -7.05,-10.599 7.25,-7.3 -3.5,-3.55 -4.099,4.1 -0.851,7.95 1.851,1.85 1.2,-1.201 z m 16.25,125.15 4.701,-4.75 0.75,-7.35 -1.85,-1.85 -1.15,1.149 1.65,1.651 -7.601,7.65 z m -4.049,-10 1.2,-11.1 -2.05,2.049 -1.2,11.101 z m 22.799,9.35 -12.099,1.349 -2.05,2.051 12.1,-1.35 z m -37.45,5.3 2.151,-2.1 -11.1,1.2 -2.051,2.05 z m 29.301,9.9 2.35,-2.3 -1.201,-1.2 -2.349,2.3 -21.7,-21.7 -7.85,0.9 -2.301,2.35 0.901,0.95 2.099,-2.151 21.7,21.701 z m -26.9,1.7 7.299,-7.301 -3.5,-3.5 -4.099,4.101 -0.901,7.899 1.851,1.851 1.199,-1.2 z m 7.099,10.6 2.051,-2.05 1.3,-11.55 -2.151,2.1 z m 73.851,35.9 2.05,-2.051 1.2,-11.099 -2.05,2.05 z m 6.099,7.949 4.701,-4.75 0.7,-7.349 -1.851,-1.85 -1.149,1.15 1.649,1.65 -7.599,7.649 z m 4.55,2.75 12.101,-1.349 2.05,-2.05 -12.1,1.35 z m -13.8,24.101 2.05,-2.05 1.301,-11.551 -2.15,2.101 z m -10.25,-33.15 21.701,21.7 8.349,-0.85 2.351,-2.301 -1.2,-1.199 -2.35,2.3 -21.7,-21.7 -7.851,0.95 -2.3,2.35 0.901,0.9 z m -10.2,12.1 11,-1.15 2.151,-2.1 -11.1,1.199 z m 14,13.5 1.2,-1.2 -1.799,-1.851 7.299,-7.299 -3.549,-3.5 -4.1,4.1 -0.851,7.9 z m -84.699,57.199 11,-1.149 2.149,-2.101 -11.099,1.201 z m 23.6,-13.75 2.049,-2.049 1.201,-11.1 -2.05,2.05 z m 6.099,7.951 4.7,-4.75 0.701,-7.35 -1.85,-1.851 -1.15,1.151 1.65,1.65 -7.601,7.65 z m -14.5,18.1 -1.8,-1.85 7.3,-7.3 -3.55,-3.5 -4.099,4.099 -0.851,7.901 1.801,1.849 z m 19.051,-15.35 12.1,-1.35 2.049,-2.05 -12.099,1.35 z m 4.8,10.6 -21.7,-21.7 -7.85,0.95 -2.301,2.35 0.901,0.9 2.099,-2.15 21.7,21.7 8.351,-0.851 2.35,-2.299 -1.201,-1.201 z m -16.55,11.449 1.3,-11.549 -2.151,2.1 -1.2,11.5 z m 73.85,35.951 1.2,-11.1 -2.05,2.05 -1.2,11.099 z m 9.45,-2.15 -1.8,-1.85 -1.15,1.15 1.599,1.649 -7.599,7.651 3.549,3.55 4.701,-4.75 z m -19.851,30.199 -1.849,-1.799 7.299,-7.3 -3.549,-3.55 -4.1,4.1 -0.851,7.95 1.851,1.8 z m -15.25,-12.25 11,-1.149 2.151,-2.101 -11.1,1.201 z m 23.801,7.401 -2.15,2.099 -1.151,11.5 2.051,-2.049 z m 16.5,1.3 2.35,-2.3 -1.201,-1.2 -2.349,2.299 -21.75,-21.699 -7.851,0.949 -2.3,2.351 0.901,0.899 2.099,-2.149 21.75,21.7 z m -6.051,-11.8 12.101,-1.3 2.05,-2.05 L -58,645 Z M 1.199,554.6 0,565.7 2.05,563.649 3.25,552.55 Z m -24.8,24.85 11,-1.15 2.151,-2.1 -11.101,1.199 z m 15.25,12.25 -1.849,-1.801 7.3,-7.299 -3.55,-3.55 -4.101,4.099 -0.849,7.951 1.849,1.799 z m 18.05,-32.051 -1.149,1.151 1.599,1.65 -7.599,7.65 3.55,3.549 4.7,-4.75 0.7,-7.399 z m 0.95,16.701 12.101,-1.3 2.05,-2.05 -12.101,1.3 z m 4.851,10.6 -21.75,-21.7 -7.851,0.95 -2.299,2.35 0.9,0.9 2.1,-2.15 21.75,21.7 8.349,-0.851 2.351,-2.299 -1.2,-1.201 z m -16.551,11.449 1.25,-11.549 -2.149,2.1 -1.151,11.5 z m -352.3,-506.549 -2.099,2.15 -1.2,11.5 2.049,-2.05 z m 119.651,-150.9 -2.05,2.05 11.05,-1.15 2.099,-2.1 z m 32.25,-0.95 12.099,-1.4 2.05,-2.05 -12.099,1.4 z m -8.601,-12.75 1.2,-11.101 -2.049,2.051 -1.201,11.1 z m 4,9.95 4.75,-4.75 0.7,-7.301 -1.799,-1.849 -1.151,1.099 1.601,1.651 -7.651,7.65 z m 10.601,14.6 2.3,-2.35 -1.201,-1.2 -2.299,2.35 -21.701,-21.701 -7.849,0.901 -2.351,2.349 0.901,0.901 2.15,-2.1 21.75,21.699 z m -26.851,1.65 7.301,-7.25 -3.551,-3.5 -4.099,4.1 -0.85,7.849 1.85,1.851 1.2,-1.2 z m 7.101,10.65 2.05,-2.05 1.2,-11.6 -2.101,2.1 z m -135.05,-47.951 -1.2,11.101 2.05,-2.05 1.2,-11.1 z m 4.85,19 4.75,-4.75 0.7,-7.299 -1.851,-1.85 -1.149,1.1 1.649,1.6 -7.649,7.65 z m 18.75,-0.649 -12.1,1.399 -2.051,2.051 12.101,-1.4 z m -25.901,25.5 1.25,-11.601 -2.099,2.151 -1.201,11.5 z m 69.75,40 2.051,-2.05 1.199,-11.1 -2.05,2.049 z m 6.051,7.899 4.75,-4.75 0.699,-7.299 -1.8,-1.85 -1.149,1.149 1.6,1.651 -7.651,7.599 z m -29.7,5.801 11.05,-1.1 2.099,-2.15 -11.099,1.199 z m 22.599,19.05 1.201,-11.601 -2.1,2.151 -1.15,11.5 z m -7.299,-6.7 -1.85,-1.85 7.3,-7.301 -3.55,-3.5 -4.101,4.101 -0.849,7.899 1.849,1.851 z m -62.401,44.65 2.051,-2.051 1.199,-11.099 -2.05,2.05 z m 6.101,7.9 4.75,-4.701 0.649,-7.349 -1.8,-1.85 -1.099,1.15 1.599,1.65 -7.649,7.6 z m 18.75,-0.6 -12.151,1.35 -2.049,2.049 12.15,-1.349 z m 61.349,-56.7 -21.7,-21.7 -7.849,0.95 -2.35,2.3 0.899,0.9 2.151,-2.101 21.75,21.701 8.3,-0.85 2.299,-2.351 -1.2,-1.199 z m -2.75,-12.651 -2.049,2.051 12.099,-1.35 2.051,-2.1 z m 59.201,51 -1.201,11.101 2.05,-2.05 1.2,-11.1 z m -22.8,22.75 -2.05,2.051 11.05,-1.1 2.099,-2.15 z m 10.2,13.75 1.85,1.801 1.2,-1.2 -1.851,-1.8 7.301,-7.301 -3.551,-3.549 -4.099,4.1 z m 22.05,-14.75 12.099,-1.299 2.05,-2.1 -12.099,1.35 z m 4.849,10.601 -21.75,-21.7 -7.849,0.95 -2.351,2.3 0.95,0.9 2.151,-2.1 21.7,21.7 8.35,-0.85 2.299,-2.35 -1.2,-1.201 z m -9.45,-13.351 4.75,-4.75 0.7,-7.349 -1.799,-1.85 -1.151,1.15 1.601,1.65 -7.651,7.6 z M -367.9,-69.95 l 0.9,0.95 2.149,-2.101 21.701,21.701 8.349,-0.85 2.301,-2.351 -1.2,-1.199 -2.3,2.35 -21.7,-21.7 -7.851,0.9 z m -7.201,10.9 11.05,-1.1 2.101,-2.15 -11.101,1.199 z m -43.849,43.85 -2.05,2.05 -1.2,11.1 2.05,-2.051 z m 59.099,-31.55 -1.799,-1.851 7.299,-7.25 -3.549,-3.549 -4.1,4.1 -0.851,7.949 1.8,1.851 z M -489.7,-85.9 l -2.05,2.049 -1.2,11.101 2.05,-2.05 z m -18.7,16.9 2.1,-2.101 21.699,21.701 8.351,-0.85 2.35,-2.351 -1.201,-1.199 -2.349,2.35 -21.7,-21.75 -7.8,0.95 -2.35,2.3 z m -8.15,9.95 11.05,-1.1 2.1,-2.15 -11.1,1.199 z m 34.449,-10.5 0.701,-7.4 -1.85,-1.8 -1.101,1.149 1.651,1.601 -7.651,7.6 3.5,3.549 z m -0.149,7.5 12.1,-1.35 2.049,-2.05 -12.099,1.349 z M -494,-40 l 1.3,-11.601 -2.1,2.151 -1.25,11.5 z m -7.25,-6.7 -1.851,-1.85 7.25,-7.301 -3.5,-3.549 -4.099,4.1 -0.85,7.949 1.85,1.851 z m 10.399,113.3 1.201,-11.1 -2.05,2.05 -1.2,11.099 z m 8.101,-1.201 -7.601,7.651 3.551,3.55 4.75,-4.75 0.65,-7.35 -1.85,-1.851 -1.15,1.151 z m -33.75,17 11,-1.149 2.149,-2.101 -11.099,1.201 z m 13.399,10.451 7.301,-7.3 -3.551,-3.55 -4.099,4.1 -0.85,7.95 1.8,1.849 1.2,-1.199 z m 29.201,-4 -1.201,-1.201 -2.349,2.301 -21.7,-21.7 -7.85,0.899 -2.3,2.351 0.9,0.95 2.1,-2.15 21.699,21.7 8.351,-0.851 z m 5.85,-12.9 -12.15,1.35 -2.05,2.05 12.1,-1.35 z m 56.699,-74.801 0.651,-7.349 -1.85,-1.85 -1.1,1.15 1.65,1.6 -7.65,7.6 3.549,3.55 z m -0.199,7.5 12.15,-1.349 2.049,-2.05 -12.149,1.35 z m 7.15,8.25 -2.35,2.351 -21.7,-21.7 -7.8,0.9 -2.351,2.3 0.901,0.95 2.099,-2.1 21.701,21.7 8.35,-0.85 2.35,-2.35 z m -28.25,-8.5 -11.1,1.201 -2.05,2.049 11.05,-1.099 z m 0.299,13.75 7.25,-7.299 -3.549,-3.55 -4.1,4.099 -0.8,7.951 1.8,1.85 1.2,-1.2 z m 9.051,8.551 1.3,-11.6 -2.101,2.15 -1.25,11.5 z m 53.35,42.85 0.899,0.9 2.101,-2.1 21.75,21.7 8.3,-0.85 2.349,-2.35 -1.199,-1.201 -2.351,2.351 -21.7,-21.7 -7.8,0.95 z m 5.95,7.599 -11.101,1.201 -2.049,2.049 11.049,-1.099 z m 0.949,16.801 1.2,-1.2 -1.849,-1.851 7.25,-7.299 -3.55,-3.5 -4.101,4.1 -0.799,7.9 z m -57.949,30.3 -2.05,2.05 -1.2,11.099 2.05,-2.049 z m 8.25,9 -1.8,-1.851 -1.15,1.151 1.599,1.65 -7.599,7.65 3.55,3.5 4.7,-4.75 z m 11.25,13.5 2.05,-2.05 -12.1,1.35 -2.051,2.05 z m -33.3,8.149 -0.85,7.901 1.85,1.849 1.199,-1.199 -1.849,-1.85 7.3,-7.3 -3.55,-3.5 z m 9.5,15.25 1.25,-11.549 -2.15,2.1 -1.151,11.5 z m -12.35,-31.099 21.75,21.7 8.299,-0.851 2.351,-2.299 -1.2,-1.201 -2.35,2.301 -21.7,-21.7 -7.851,0.95 -2.299,2.35 0.9,0.9 z m -56.35,-41.651 1.3,-11.549 -2.151,2.1 -1.199,11.5 z m 57.149,52.601 2.151,-2.101 -11.1,1.201 -2.051,2.049 z m -79.649,69.8 -2.05,2.05 11,-1.15 2.15,-2.1 z m 22.75,-22.8 -1.2,11.1 2.05,-2.05 1.2,-11.1 z m 4.899,19.05 4.701,-4.75 0.7,-7.35 -1.8,-1.85 -1.15,1.15 1.6,1.649 -7.6,7.651 z m 4.551,2.75 12.1,-1.35 2.05,-2.051 -12.1,1.351 z m -20.2,16.55 1.2,-1.201 -1.85,-1.849 7.299,-7.3 -3.549,-3.5 -4.1,4.1 -0.851,7.9 z m 7.6,-3.951 -1.15,11.5 2.05,-2.049 1.25,-11.55 z m 17.4,-2 -21.7,-21.699 -7.85,0.949 -2.301,2.351 0.901,0.899 2.099,-2.149 21.75,21.7 8.301,-0.85 2.35,-2.3 -1.2,-1.2 z m 31.649,63.201 11,-1.15 2.151,-2.1 -11.1,1.2 z m 83.851,-73.951 -11.101,1.201 -2.049,2.049 11,-1.149 z m -0.95,14.901 1.849,1.8 1.201,-1.201 -1.85,-1.799 7.3,-7.3 -3.55,-3.55 -4.101,4.1 z m -57.25,43.25 1.2,-11.1 -2.05,2.05 -1.2,11.1 z m 8.099,-1.2 -7.599,7.65 3.55,3.55 4.7,-4.75 0.7,-7.401 -1.8,-1.849 -1.15,1.15 z m 0.5,13.9 12.101,-1.3 2.05,-2.051 -12.1,1.301 z m 200.451,-190.05 1.2,-11.6 -2.101,2.15 -1.149,11.5 z m -46.901,47.35 2.051,-2.05 -12.15,1.3 -2.05,2.05 z m -16.699,-1.45 4.75,-4.701 0.649,-7.399 -1.799,-1.851 -1.1,1.151 1.6,1.65 -7.651,7.6 z m -19.45,-6.3 21.7,21.7 8.35,-0.851 2.349,-2.349 -1.199,-1.2 -2.351,2.35 -21.75,-21.7 -7.799,0.95 -2.35,2.3 0.949,0.899 z m 13.349,-1.6 2.05,-2.051 1.2,-11.099 -2.049,2.05 z m -10.549,17.449 -0.8,7.951 1.849,1.799 1.201,-1.199 -1.85,-1.801 7.25,-7.299 -3.551,-3.55 z m -2,-4.849 2.099,-2.151 -11.099,1.201 -2.05,2.049 z m 11.5,20.099 1.25,-11.599 -2.1,2.15 -1.2,11.5 z m -68.451,26.901 -1.2,11.099 2.051,-2.049 1.199,-11.1 z m 4.901,19.05 4.7,-4.75 0.699,-7.4 -1.8,-1.85 -1.149,1.15 1.6,1.649 -7.6,7.651 z m 4.55,2.7 12.099,-1.3 2.051,-2.05 -12.101,1.3 z m 4.849,10.599 -21.75,-21.699 -7.849,0.949 -2.3,2.351 0.95,0.899 2.1,-2.149 21.7,21.7 8.349,-0.85 2.351,-2.3 -1.2,-1.2 z m -15.3,-0.099 -2.149,2.099 -1.15,11.5 2.049,-2.049 z m 57.901,62.15 2.149,-2.1 -11.099,1.2 -2.05,2.05 z m 14.649,-14.65 1.2,-11.1 -2.049,2.05 -1.201,11.1 z m 47.101,-57 -2.05,2.05 11.05,-1.1 2.099,-2.15 z m 22.75,-22.75 -1.2,11.099 2.049,-2.049 1.201,-11.1 z m 4.899,19 4.75,-4.7 0.7,-7.4 -1.849,-1.801 -1.101,1.151 1.601,1.599 -7.651,7.601 z m 4.601,2.75 12.099,-1.3 2.05,-2.05 -12.099,1.3 z m -20.2,16.599 1.2,-1.199 -1.851,-1.85 7.25,-7.3 -3.55,-3.55 -4.099,4.1 -0.8,7.95 z m 26.2,-4.75 2.349,-2.349 -1.2,-1.2 -2.349,2.35 -21.701,-21.75 -7.849,0.949 -2.351,2.301 0.95,0.9 2.101,-2.1 21.699,21.75 z m -16.45,-1.399 -2.1,2.149 -1.25,11.551 2.05,-2.051 z m -58.201,58.2 -2.049,2.05 12.049,-1.3 2.05,-2.051 z m -2.599,-11.85 -7.601,7.65 3.551,3.55 4.699,-4.75 0.75,-7.401 -1.849,-1.799 -1.151,1.15 z m -290.95,-281.65 2.049,-2.051 1.201,-11.099 -2.05,2.05 z m -67.451,-83.85 -2.049,2.049 -1.201,11.101 2.051,-2.05 z m 2.851,21.1 4.75,-4.75 0.7,-7.4 -1.85,-1.8 -1.15,1.149 1.6,1.601 -7.6,7.649 z m 18.75,-0.65 -12.101,1.3 -2.049,2.049 12.049,-1.299 z m -40.3,-3.55 2.1,-2.15 21.7,21.75 8.35,-0.9 2.35,-2.301 -1.2,-1.199 -2.351,2.3 -21.699,-21.7 -7.9,0.95 -2.3,2.35 z m -8.15,10 11,-1.15 2.15,-2.1 -11.1,1.2 z m 14.05,13.5 1.2,-1.2 -1.85,-1.85 7.3,-7.301 -3.55,-3.549 -4.1,4.1 -0.85,7.949 z m 8.5,5.5 1.299,-11.601 -2.149,2.101 -1.2,11.55 z m -22.55,122.399 11,-1.149 2.15,-2.101 -11.1,1.201 z m 14.05,13.5 1.2,-1.199 -1.85,-1.85 7.3,-7.3 -3.5,-3.55 -4.101,4.1 -0.899,7.95 z m 11.6,-29.299 1.199,-11.1 -2.049,2.05 -1.201,11.099 z m 7.65,-3.951 -1.15,1.151 1.65,1.599 -7.6,7.651 3.5,3.55 4.7,-4.75 0.75,-7.4 z m 15.1,13.301 -12.051,1.35 -2.049,2.05 12.049,-1.35 z m -5.75,12.9 -1.2,-1.201 -2.351,2.301 -21.699,-21.75 -7.85,0.949 -2.3,2.351 0.9,0.95 2.1,-2.15 21.7,21.7 8.35,-0.851 z m 62.35,-80.201 12.05,-1.349 2.1,-2.05 -12.1,1.35 z m 0.15,-7.5 0.699,-7.399 -1.849,-1.8 -1.151,1.15 1.651,1.6 -7.6,7.65 3.5,3.549 z m -17.25,10.151 -4.1,4.099 -0.9,7.951 1.85,1.85 1.2,-1.2 -1.851,-1.851 7.301,-7.299 z m -9.051,-9.55 2.101,-2.15 21.7,21.7 8.35,-0.85 2.349,-2.301 -1.199,-1.199 -2.35,2.3 -21.701,-21.75 -7.849,0.95 -2.3,2.35 z m -8.149,9.95 11,-1.15 2.149,-2.1 -11.099,1.199 z m 22.55,19 1.3,-11.551 -2.15,2.101 -1.2,11.5 z m -137.1,-45.9 -2.051,2.05 -1.199,11.1 2.05,-2.051 z m -70.7,-70.7 -2.05,2.049 -1.2,11.101 2.05,-2.05 z m -18.7,16.9 2.099,-2.15 21.701,21.7 8.35,-0.85 2.35,-2.301 -1.2,-1.199 -2.35,2.3 -21.7,-21.7 -7.901,0.95 -2.299,2.35 z m -8.151,10 11,-1.15 2.151,-2.1 -11.1,1.2 z m 34.301,-3.101 12.05,-1.299 2.05,-2.05 -12.05,1.3 z m -4.6,-2.699 4.7,-4.75 0.75,-7.4 -1.85,-1.85 -1.15,1.15 1.599,1.65 -7.599,7.649 z m -7.15,24.75 1.3,-11.551 -2.15,2.101 -1.201,11.5 z m -8.5,-5.5 1.199,-1.2 -1.849,-1.8 7.3,-7.301 -3.55,-3.549 -4.1,4.1 -0.85,7.949 z m 11.6,112.199 1.2,-11.099 -2.05,2.05 -1.2,11.1 z m 6.5,-2.849 1.599,1.599 -7.649,7.651 3.55,3.55 4.75,-4.75 0.75,-7.35 -1.85,-1.8 z m -32.2,18.599 11.049,-1.149 2.101,-2.101 -11.101,1.201 z m 13.45,10.451 7.3,-7.25 -3.55,-3.55 -4.1,4.099 -0.85,7.901 1.85,1.849 1.199,-1.199 z m 91.7,-91.701 0.75,-7.399 -1.851,-1.8 -1.149,1.15 1.6,1.6 -7.6,7.65 3.55,3.549 z m -0.101,7.451 12.051,-1.3 2.05,-2.05 -12.05,1.3 z m -20.899,13.549 7.3,-7.299 -3.55,-3.55 -4.101,4.099 -0.849,7.951 1.849,1.85 1.201,-1.2 z m 9.149,8.551 1.301,-11.6 -2.15,2.1 -1.2,11.55 z m -22.549,-19 11,-1.15 2.15,-2.1 -11.101,1.199 z m 8.15,-10 2.1,-2.15 21.7,21.75 8.349,-0.901 2.351,-2.299 -1.2,-1.201 -2.35,2.301 -21.7,-21.7 -7.9,0.95 -2.3,2.35 z m -36.25,87.1 -1.2,-1.2 -2.3,2.35 -21.7,-21.7 -7.901,0.899 -2.349,2.351 0.95,0.899 2.149,-2.149 21.701,21.75 8.35,-0.851 z m 5.8,-12.85 -12.05,1.35 -2.05,2.05 L -753,78 Z m 47.95,61.4 1.2,-11.1 -2.051,2.05 -1.199,11.099 z m 8.75,5.2 0.75,-7.35 -1.851,-1.801 -1.149,1.101 1.649,1.6 -7.649,7.65 3.5,3.55 z m 14,4.099 -12.05,1.401 -2.051,2.05 12.051,-1.4 z m -7,11.701 -2.3,2.35 -21.7,-21.75 -7.851,0.9 -2.349,2.35 0.9,0.949 2.15,-2.149 21.7,21.7 8.349,-0.801 2.301,-2.349 z m -17.601,2.2 -2.099,2.099 -1.2,11.551 2.049,-2.051 z m -10.699,-10.7 -11.1,1.2 -2.05,2.05 11.05,-1.15 z m 2.15,15.549 -1.85,-1.849 7.3,-7.25 -3.5,-3.55 -4.1,4.1 -0.9,7.9 1.849,1.85 z m -63.4,-63.949 1.25,-11.65 -2.1,2.099 -1.201,11.601 z m 1,108.65 2.1,-2.05 1.2,-11.1 -2.05,2.05 z m 10.85,3.15 0.7,-7.351 -1.851,-1.799 -1.099,1.1 1.65,1.6 -7.65,7.65 3.5,3.55 z m -32.401,8.5 -2.049,2.05 11.049,-1.151 2.101,-2.099 z m 11.401,12.5 7.3,-7.25 -3.5,-3.55 -4.15,4.1 -0.85,7.9 1.85,1.85 1.199,-1.2 z m 9.099,8.6 1.301,-11.6 -2.1,2.1 -1.25,11.549 z m 25.901,-25.5 -12.05,1.4 -2.101,2.05 12.101,-1.401 z m -9.3,14.049 -21.7,-21.75 -7.85,0.901 -2.35,2.349 0.9,0.951 2.149,-2.1 21.701,21.7 8.35,-0.85 2.3,-2.35 -1.2,-1.2 z m 44.75,59.851 -11.101,1.2 -2.049,2.05 11.049,-1.15 z m 12.55,-12.5 1.2,-11.101 -2.05,2.051 -1.25,11.1 z m 9.4,-2.101 -1.85,-1.849 -1.1,1.099 1.649,1.601 -7.649,7.649 3.55,3.551 4.75,-4.75 z m 13.35,11.401 -12.1,1.4 -2.1,2.05 12.15,-1.4 z m 125.099,-153.55 1.651,1.6 -7.6,7.65 3.55,3.55 4.7,-4.75 0.699,-7.35 -1.849,-1.85 z m 4.201,13.5 -2.05,2.05 12.099,-1.35 2.051,-2.051 z m -12.701,-8.65 2.051,-2.05 1.199,-11.1 -2.049,2.05 z m -1.949,23.299 -1.2,11.5 2.05,-2.049 1.3,-11.55 z m -7.65,3.951 1.2,-1.201 -1.8,-1.849 7.3,-7.3 -3.55,-3.55 -4.1,4.1 -0.85,7.95 z m -14,-13.5 11,-1.15 2.15,-2.1 -11.1,1.2 z m 41.4,5.25 -2.35,2.299 -21.701,-21.699 -7.849,0.9 -2.3,2.35 0.899,0.949 2.101,-2.149 21.7,21.7 8.35,-0.85 2.349,-2.3 z m -89.6,-56.951 1.299,-11.549 -2.149,2.1 -1.2,11.5 z m 1.1,108.701 2.05,-2.05 1.2,-11.1 -2.051,2.05 z m 10.65,10.7 12.1,-1.401 2.05,-2.049 -12.101,1.4 z m 0.15,-7.55 0.7,-7.3 -1.85,-1.85 -1.15,1.1 1.65,1.6 -7.65,7.65 3.55,3.55 z m -11.9,29.6 1.25,-11.6 -2.1,2.1 -1.2,11.549 z m -9.4,-22.3 -11.1,1.2 -2.05,2.05 11.05,-1.151 z m -5.95,-7.651 0.899,0.951 2.151,-2.15 21.7,21.699 8.35,-0.799 2.299,-2.35 -1.199,-1.2 -2.301,2.349 -21.699,-21.699 -7.85,0.85 z m 6.85,24.401 1.2,-1.2 -1.8,-1.85 7.3,-7.25 -3.55,-3.55 -4.101,4.1 -0.849,7.9 z m 54.6,59.25 11.05,-1.151 2.1,-2.099 -11.1,1.2 z m 25.699,-15.75 1.201,-11.1 -2.05,2.05 -1.2,11.1 z m 10.651,10.7 -2.05,2.05 12.1,-1.401 2.049,-2.049 z m -1.2,-12.8 -1.8,-1.85 -1.151,1.1 1.601,1.65 -7.65,7.65 3.549,3.5 4.75,-4.75 z m 6.25,23.1 -2.3,2.349 -21.7,-21.699 -7.85,0.9 -2.351,2.35 0.901,0.9 2.15,-2.1 21.75,21.7 8.3,-0.85 2.3,-2.35 z m -19.701,4.3 -1.149,11.549 2.05,-2.049 1.2,-11.6 z m -9.449,2.1 1.85,1.85 1.2,-1.2 -1.851,-1.85 7.301,-7.25 -3.551,-3.5 -4.099,4.1 z m -69.801,55.8 -11.099,1.2 -2.05,2.05 11.05,-1.101 z m 0.951,16.75 1.2,-1.2 -1.85,-1.85 7.25,-7.25 -3.551,-3.5 -4.099,4.1 -0.8,7.849 z m 21,-31.351 -1.8,-1.849 -1.1,1.099 1.6,1.651 -7.651,7.65 3.551,3.5 4.75,-4.75 z m -9.451,2.101 1.25,-11.101 -2.049,2.051 -1.25,11.1 z m 8.601,12.75 12.149,-1.4 2.051,-2.05 -12.15,1.4 z m -12.55,12.6 -1.2,11.5 2.05,-2.05 1.25,-11.6 z m 19.699,-4.35 -2.349,2.35 -21.7,-21.701 -7.8,0.901 -2.35,2.349 0.9,0.901 2.15,-2.1 21.75,21.699 8.25,-0.849 2.35,-2.35 z M -636.4,495 l 2.049,-2.05 1.201,-11.1 -2.05,2.049 z m 81.35,-60.05 12.15,-1.35 2.049,-2.05 -12.149,1.349 z m -34.25,3.05 11.05,-1.101 2.1,-2.149 -11.1,1.2 z m 25.65,-15.75 1.25,-11.101 -2.05,2.051 -1.25,11.1 z m 4.049,9.95 4.75,-4.75 0.651,-7.35 -1.8,-1.85 -1.101,1.1 1.601,1.65 -7.65,7.649 z m -15.599,19.25 1.2,-1.2 -1.851,-1.8 7.25,-7.25 -3.549,-3.551 -4.1,4.101 -0.8,7.899 z m 6.4,7.6 2.05,-2.05 1.25,-11.601 -2.101,2.151 z m 19.8,-12.3 2.35,-2.351 -1.201,-1.199 -2.349,2.35 -21.75,-21.7 -7.8,0.9 -2.351,2.35 0.951,0.9 2.15,-2.101 21.7,21.701 z m -138.25,-147 -2.3,2.35 -21.7,-21.701 -7.851,0.851 -2.349,2.35 0.9,0.95 2.15,-2.1 21.7,21.699 8.349,-0.849 2.301,-2.35 z m -29.15,6.399 1.799,1.851 1.201,-1.2 -1.8,-1.85 7.3,-7.25 -3.55,-3.551 -4.151,4.101 z m 10.25,7.401 1.299,-11.6 -2.099,2.1 -1.25,11.55 z m -67.55,35.9 1.2,-11.1 -2.05,2.049 -1.2,11.101 z m 8.599,12.75 12.151,-1.35 2.05,-2.05 -12.15,1.349 z m 0.201,-7.5 0.65,-7.35 -1.851,-1.85 -1.099,1.149 1.65,1.601 -7.65,7.6 3.55,3.549 z m -26.35,0.55 2.1,-2.101 21.7,21.701 8.349,-0.85 2.351,-2.351 -1.2,-1.199 -2.35,2.35 -21.7,-21.7 -7.8,0.9 -2.35,2.3 z m 5.05,6.7 -11.1,1.199 -2.051,2.051 11.051,-1.1 z m 0.9,16.8 1.199,-1.2 -1.799,-1.85 7.25,-7.301 -3.55,-3.549 -4.1,4.1 -0.801,7.949 z m 8.449,5.5 1.301,-11.601 -2.1,2.151 -1.25,11.5 z m -0.949,110.7 2.05,-2.051 1.2,-11.099 -2.051,2.05 z m 76.8,-62.801 4.75,-4.699 0.649,-7.35 -1.799,-1.85 -1.1,1.149 1.6,1.651 -7.65,7.599 z m -4.05,-9.949 1.199,-11.1 -2.049,2.049 -1.201,11.101 z m 8.6,12.75 12.15,-1.35 2.05,-2.05 -12.15,1.349 z m -34.25,3 11.05,-1.1 2.1,-2.15 -11.1,1.199 z m 40.25,8.8 2.349,-2.351 -1.199,-1.199 -2.35,2.35 -21.701,-21.7 -7.799,0.95 -2.35,2.3 0.899,0.9 2.101,-2.101 21.75,21.701 z m -26.151,4.75 1.201,-1.2 -1.85,-1.85 7.25,-7.301 -3.55,-3.5 -4.1,4.101 -0.8,7.899 z m 6.401,7.55 2.05,-2.05 1.25,-11.601 -2.1,2.151 z m 3.099,106.65 2.051,-2.051 1.199,-11.099 -2.049,2.05 z m 6.101,7.949 4.7,-4.75 0.699,-7.399 -1.799,-1.851 -1.15,1.151 1.6,1.65 -7.6,7.65 z m -16.55,2.5 -11.1,1.201 -2.05,2.049 11,-1.099 z m 2.1,15.551 -1.85,-1.801 7.3,-7.299 -3.55,-3.55 -4.1,4.099 -0.85,7.951 1.85,1.799 z m 19,-15.35 12.099,-1.3 2.051,-2.05 -12.1,1.3 z m 7.2,8.25 -2.351,2.35 -21.75,-21.7 -7.849,0.95 -2.3,2.3 0.95,0.899 2.1,-2.099 21.7,21.7 8.35,-0.851 2.35,-2.349 z m -90.5,-66.35 -1.15,11.5 2.049,-2.05 1.25,-11.6 z m 12.6,-12.601 12.1,-1.349 2.05,-2.05 -12.101,1.35 z m -4.55,-2.75 4.7,-4.75 0.7,-7.349 -1.801,-1.85 -1.149,1.15 1.6,1.65 -7.6,7.649 z m -21.6,-4.199 2.1,-2.1 21.75,21.7 8.3,-0.85 2.35,-2.35 -1.2,-1.201 -2.351,2.351 -21.699,-21.7 -7.85,0.95 -2.3,2.3 z m -6.051,7.9 -2.049,2.049 11,-1.099 2.15,-2.151 z m 12,15.6 1.201,-1.2 -1.85,-1.851 7.3,-7.299 -3.55,-3.5 -4.101,4.1 -0.849,7.9 z m 11.601,112.15 1.2,-11.1 -2.051,2.05 -1.199,11.099 z m 8.1,-1.201 -7.65,7.651 3.55,3.55 4.75,-4.75 0.7,-7.4 -1.801,-1.85 -1.149,1.15 z m -12.1,26.5 -1.15,11.5 2.049,-2.049 1.25,-11.55 z m -8.5,-12.75 -11.15,1.201 -2.05,2.049 11.05,-1.149 z m 0.25,13.701 7.3,-7.3 -3.55,-3.55 -4.101,4.1 -0.849,7.95 1.849,1.8 1.201,-1.201 z m 35,-16.9 -12.101,1.3 -2.049,2.05 12.1,-1.3 z m 44.85,-45.301 1.25,-11.599 -2.15,2.15 -1.15,11.5 z m -51.8,56.951 -2.35,2.299 -21.75,-21.699 -7.85,0.949 -2.3,2.351 0.95,0.899 2.1,-2.149 21.7,21.7 8.349,-0.85 2.351,-2.3 z m 195.45,-100.75 -1.2,11.1 2.05,-2.051 1.2,-11.099 z m -13.75,23.7 2.1,-2.151 -11.1,1.201 -2.05,2.049 z m 4.25,13.45 -1.851,-1.851 7.25,-7.299 -3.549,-3.55 -4.1,4.099 -0.8,7.951 1.85,1.85 z m 18,-32.05 -1.101,1.15 1.601,1.6 -7.65,7.6 3.549,3.55 4.75,-4.701 0.701,-7.399 z m 1,16.65 12.1,-1.3 2.049,-2.05 -12.099,1.3 z m 6,11.85 2.35,-2.35 -1.201,-1.201 -2.349,2.351 -21.7,-21.75 -7.85,0.95 -2.351,2.3 0.951,0.899 2.1,-2.099 21.699,21.75 z m -81.3,-85.301 4.75,-4.699 0.65,-7.4 -1.8,-1.85 -1.1,1.15 1.6,1.65 -7.651,7.6 z m -8,15.351 -1.2,11.5 2.05,-2.05 1.25,-11.6 z m 12.55,-12.601 12.149,-1.299 2.051,-2.05 -12.15,1.3 z m -32.2,1 -2.05,2.051 11.05,-1.1 2.099,-2.15 z m 6.099,-7.949 2.101,-2.1 21.7,21.7 8.35,-0.85 2.349,-2.35 -1.199,-1.201 -2.35,2.351 -21.75,-21.7 -7.8,0.95 -2.35,2.3 z m 7.151,22.3 -1.85,-1.8 7.25,-7.301 -3.551,-3.549 -4.099,4.1 -0.8,7.949 1.85,1.801 z m 10.349,113.35 1.201,-11.1 -2.05,2.05 -1.2,11.099 z m 8.101,-1.201 -7.601,7.651 3.551,3.55 4.699,-4.75 0.75,-7.4 -1.849,-1.801 -1.151,1.151 z m -20.601,13.701 -11.099,1.2 -2.05,2.05 11,-1.1 z m 0.25,13.75 7.301,-7.3 -3.551,-3.55 -4.099,4.1 -0.85,7.95 1.85,1.849 1.2,-1.199 z m 26.901,-1.701 2.349,-2.349 -1.199,-1.2 -2.35,2.35 -21.701,-21.75 -7.899,0.949 -2.3,2.301 0.949,0.9 2.101,-2.1 21.7,21.75 z m -18.6,0.75 -1.2,11.551 2.05,-2.051 1.3,-11.649 z m 12.6,-12.599 12.05,-1.3 2.049,-2.05 -12.049,1.3 z m 58.95,-48.6 1.3,-11.65 -2.1,2.15 -1.25,11.55 z m 301.75,-296.6 -2.351,2.299 -21.7,-21.75 -7.899,0.951 -2.3,2.35 0.949,0.9 2.101,-2.15 21.7,21.75 8.35,-0.85 2.349,-2.3 z m 64.399,47.549 -1.849,-1.849 -1.151,1.15 1.651,1.6 -7.601,7.65 3.5,3.55 4.7,-4.75 z m -9.5,2.101 1.201,-11.101 -2.05,2.051 -1.2,11.1 z m 8.651,12.75 12.05,-1.351 2.049,-2.049 -12.049,1.35 z m -32.25,1 -2.05,2.05 11,-1.151 2.149,-2.099 z m 11.349,12.5 7.3,-7.3 -3.5,-3.551 -4.099,4.101 -0.901,7.95 1.851,1.85 1.2,-1.2 z m 25.701,-2.9 -21.701,-21.701 -7.849,0.901 -2.3,2.349 0.899,0.951 2.101,-2.15 21.699,21.699 8.351,-0.849 2.349,-2.3 -1.2,-1.2 z m -15.25,-0.1 -2.151,2.1 -1.199,11.5 2.05,-2.05 z m -70.701,-70.75 -2.149,2.1 -1.2,11.549 2.05,-2.049 z m -3.149,-4.25 -3.551,-3.55 -4.099,4.1 -0.85,7.95 1.85,1.85 1.2,-1.201 -1.851,-1.849 z m -59.25,48.95 1.6,1.6 -7.6,7.65 3.55,3.55 4.7,-4.75 0.75,-7.4 -1.851,-1.8 z m -6.5,2.8 1.199,-11.101 -2.05,2.051 -1.2,11.1 z m 8.649,12.7 12.05,-1.301 2.051,-2.049 -12.051,1.299 z m 47.401,72.65 2.149,-2.1 -11.099,1.2 -2.05,2.05 z m 14.649,-14.65 1.2,-11.1 -2.049,2.049 -1.201,11.101 z m -72.75,72.8 2.051,-2.05 1.199,-11.1 -2.05,2.049 z m 60.5,-46.55 7.301,-7.301 -3.5,-3.549 -4.101,4.1 -0.899,7.949 1.85,1.851 1.2,-1.2 z m 7.101,10.6 2.05,-2.05 1.299,-11.55 -2.149,2.1 z m 13.3,-38.05 -7.6,7.649 3.5,3.551 4.699,-4.75 0.75,-7.35 -1.849,-1.85 -1.151,1.149 z m 5.299,24.55 -21.7,-21.7 -7.849,0.9 -2.3,2.35 0.899,0.95 2.101,-2.151 21.7,21.701 8.35,-0.85 2.349,-2.3 -1.199,-1.2 z m -4.799,-10.6 12.049,-1.35 2.05,-2.05 -12.05,1.349 z m 60,60 2.049,-2.051 1.201,-11.099 -2.05,2.05 z M -405.2,303 l -1.2,-1.2 -2.35,2.3 -21.75,-21.701 -7.851,0.951 -2.299,2.35 0.95,0.9 2.099,-2.15 21.701,21.699 8.35,-0.849 z m -21,3.1 -1.151,11.5 2.051,-2.05 1.25,-11.55 z m -0.95,-6.35 -3.55,-3.55 -4.1,4.1 -0.85,7.95 1.85,1.8 1.199,-1.2 -1.849,-1.8 z m 58.15,57.55 2.1,-2.151 21.7,21.75 8.349,-0.849 2.351,-2.3 -1.2,-1.2 -2.351,2.3 -21.699,-21.75 -7.9,0.95 -2.3,2.349 z m -6.101,7.95 -2.049,2.05 11,-1.151 2.15,-2.099 z m 18.451,23.1 2.049,-2.05 1.3,-11.6 -2.149,2.1 z m -7.1,-10.6 7.3,-7.3 -3.55,-3.551 -4.101,4.101 -0.849,7.95 1.849,1.85 1.201,-1.2 z m -122.65,-29.101 1.6,1.651 -7.65,7.65 3.55,3.55 4.75,-4.75 0.7,-7.351 -1.8,-1.849 z m -6.5,2.901 1.2,-11.1 -2.05,2.05 -1.2,11.1 z m -23.65,13.7 -2.051,2.05 11.051,-1.151 2.1,-2.099 z m 12.05,15.5 1.2,-1.2 -1.85,-1.8 7.299,-7.25 -3.549,-3.55 -4.1,4.1 -0.851,7.9 z m 7.6,-3.95 -1.15,11.55 2.05,-2.05 1.2,-11.6 z m 17.45,-1.95 -21.75,-21.701 -7.85,0.901 -2.35,2.349 0.95,0.901 2.15,-2.1 21.699,21.699 8.351,-0.849 2.3,-2.35 -1.2,-1.2 z m 9.3,-14 -12.1,1.35 -2.05,2.05 12.1,-1.351 z m 22.25,77.15 11.049,-1.15 2.101,-2.1 -11.101,1.2 z m -47.1,57 2.05,-2.05 1.25,-11.1 -2.05,2.049 z m 76.8,-62.8 4.75,-4.75 0.75,-7.35 -1.85,-1.8 -1.15,1.099 1.599,1.601 -7.649,7.649 z m -4,-9.95 1.2,-11.101 -2.05,2.051 -1.2,11.1 z m 22.75,9.3 -12.05,1.349 -2.05,2.051 12.05,-1.35 z m -8.1,15.25 2.3,-2.35 -1.2,-1.2 -2.3,2.35 -21.7,-21.75 -7.901,0.9 -2.349,2.35 0.95,0.9 2.149,-2.101 21.701,21.75 z m -26.25,4.7 1.199,-1.2 -1.849,-1.85 7.3,-7.25 -3.55,-3.551 -4.1,4.101 -0.85,7.899 z m 6.449,7.6 2.051,-2.05 1.25,-11.651 -2.1,2.101 z m 63.3,46.35 -11.099,1.199 -2.05,2.051 11.05,-1.15 z m 2.151,15.55 -1.85,-1.851 7.3,-7.25 -3.5,-3.549 -4.101,4.1 -0.899,7.9 1.849,1.85 z m -62.4,44.7 2.05,-2.051 1.25,-11.099 -2.05,2.05 z m 6.1,7.9 4.75,-4.75 0.7,-7.3 -1.851,-1.85 -1.099,1.1 1.65,1.599 -7.65,7.651 z m -17.45,17.45 1.85,1.849 1.199,-1.199 -1.849,-1.85 7.25,-7.25 -3.5,-3.55 -4.1,4.099 z m 22.049,-14.651 12.101,-1.399 2.05,-2.05 -12.1,1.4 z m -83.25,-58.149 -1.25,11.55 2.051,-2.05 1.3,-11.65 z m 12.551,-12.601 12.1,-1.349 2.05,-2.05 -12.1,1.35 z m 0.15,-7.5 0.7,-7.349 -1.85,-1.8 -1.1,1.1 1.6,1.6 -7.65,7.65 3.55,3.549 z m -21.3,7.301 -11.1,1.199 -2.051,2.051 11.051,-1.1 z m -2.85,-8.85 21.699,21.75 8.301,-0.85 2.35,-2.351 -1.2,-1.199 -2.35,2.35 -21.7,-21.75 -7.85,0.9 -2.35,2.35 0.95,0.9 z m 5,24.4 -1.85,-1.851 7.25,-7.25 -3.55,-3.549 -4.1,4.1 -0.801,7.9 1.851,1.85 z m 65.699,46.35 21.701,21.7 8.299,-0.85 2.351,-2.35 -1.2,-1.201 -2.35,2.351 -21.7,-21.7 -7.8,0.849 -2.35,2.351 0.9,0.95 z m -10.299,12.049 11.049,-1.099 2.101,-2.151 -11.101,1.201 z m -45.05,54.951 1.2,-11.1 -2.05,2.05 -1.2,11.099 z m 8.2,-1.201 -7.65,7.601 3.5,3.55 4.75,-4.7 0.7,-7.35 -1.85,-1.851 -1.1,1.151 z m 6.45,25.75 2.35,-2.349 -1.2,-1.2 -2.35,2.35 -21.7,-21.7 -7.8,0.899 -2.351,2.301 0.901,0.949 2.099,-2.099 21.701,21.7 z m -6,-11.799 12.1,-1.35 2.05,-2.05 -12.1,1.35 z m -12.551,12.6 -1.25,11.5 2.051,-2.051 1.3,-11.599 z m -8.599,-12.85 -11.1,1.2 -2.051,2.05 11.051,-1.1 z m 0.3,13.75 7.25,-7.3 -3.5,-3.55 -4.1,4.1 -0.851,7.95 1.851,1.849 1.2,-1.199 z m 79.799,-62.15 1.301,-11.6 -2.1,2.15 -1.25,11.5 z m 50.201,49.6 -2.05,2.05 11.05,-1.1 2.099,-2.15 z m 11.4,12.5 7.25,-7.25 -3.5,-3.5 -4.101,4.099 -0.849,7.851 1.849,1.85 1.201,-1.201 z m 148.5,-130.8 2.05,-2.05 1.3,-11.551 -2.151,2.101 z m 13.8,-24.101 12.099,-1.349 2.05,-2.05 -12.099,1.35 z m 0.099,-7.5 0.75,-7.349 -1.849,-1.85 -1.151,1.15 1.651,1.65 -7.601,7.649 3.5,3.5 z m -24.149,-1.549 21.699,21.7 8.351,-0.85 2.349,-2.301 -1.2,-1.199 -2.349,2.3 -21.701,-21.7 -7.849,0.9 -2.3,2.35 0.899,0.95 z m -8.2,10.049 -2.05,2.051 11,-1.15 2.149,-2.1 z m 12,15.551 1.2,-1.2 -1.851,-1.851 7.3,-7.299 -3.5,-3.5 -4.099,4.1 -0.901,7.9 z m -50.45,54.199 12.099,-1.399 2.051,-2.05 -12.101,1.4 z m -81.201,-60.25 -2.099,2.101 -1.2,11.55 2.049,-2.05 z m 5.851,-13.25 4.75,-4.75 0.75,-7.299 -1.851,-1.85 -1.149,1.1 1.649,1.6 -7.649,7.65 z m 4.649,2.801 12.05,-1.4 2.051,-2.05 -12.051,1.399 z m 4.8,10.6 -21.699,-21.7 -7.851,0.85 -2.349,2.35 0.899,0.95 2.151,-2.101 21.7,21.701 8.349,-0.85 2.3,-2.351 -1.199,-1.199 z m 56.401,38.3 -1.201,11.1 2.05,-2.051 1.2,-11.099 z m -17.6,13.9 0.899,0.95 2.151,-2.1 21.7,21.7 8.35,-0.85 2.299,-2.35 -1.2,-1.201 -2.3,2.351 -21.7,-21.7 -7.849,0.849 z m -7.25,10.899 11.05,-1.149 2.099,-2.101 -11.099,1.201 z m 29.699,-5.799 4.75,-4.75 0.75,-7.3 -1.849,-1.85 -1.151,1.1 1.651,1.65 -7.651,7.65 z m -17.449,17.45 1.85,1.849 1.2,-1.199 -1.851,-1.85 7.301,-7.25 -3.5,-3.5 -4.101,4.1 z m 10.35,7.4 1.25,-11.6 -2.1,2.1 -1.2,11.55 z m -67.651,35.9 1.25,-11.1 -2.05,2.05 -1.25,11.099 z m 8.2,-1.201 -7.649,7.651 3.5,3.5 4.75,-4.75 0.699,-7.3 -1.849,-1.851 -1.1,1.101 z m -10,24.401 -2.099,2.15 -1.25,11.5 2.05,-2.051 z m 16.451,1.349 2.349,-2.349 -1.199,-1.2 -2.351,2.35 -21.7,-21.7 -7.8,0.85 -2.349,2.35 0.899,0.949 2.151,-2.099 21.7,21.7 z m -6,-11.799 12.15,-1.4 2.05,-2.051 -12.151,1.401 z m 132.849,-12.75 1.2,-11.1 -2.049,2.05 -1.201,11.099 z m 9.45,-2.1 -1.849,-1.851 -1.151,1.101 1.651,1.649 -7.651,7.651 3.55,3.5 4.75,-4.75 z m -11.349,25.3 -2.101,2.099 -1.199,11.551 2.05,-2.051 z m 15.3,0.15 -21.701,-21.7 -7.849,0.899 -2.351,2.351 0.901,0.899 2.15,-2.099 21.699,21.7 8.351,-0.851 2.3,-2.349 -1.201,-1.2 z m -4.8,-10.6 12.099,-1.4 2.05,-2.051 -12.099,1.401 z m -21.151,-0.25 -11.099,1.2 -2.05,2.05 11.05,-1.15 z m 0.3,13.7 7.301,-7.25 -3.551,-3.5 -4.099,4.099 -0.85,7.851 1.8,1.85 1.2,-1.201 z m -37.75,55.85 2.051,-2.05 -12.15,1.4 -2.05,2.05 z m 26.351,73.1 -2.05,2.05 11.05,-1.1 2.099,-2.15 z m 23.599,-13.7 1.25,-11.1 -2.049,2.05 -1.25,11.1 z m 4.05,9.95 4.75,-4.75 0.651,-7.35 -1.8,-1.85 -1.101,1.1 1.601,1.65 -7.651,7.65 z M -276.75,715 l 4.75,-4.75 0.649,-7.3 -1.849,-1.85 -1.101,1.1 1.651,1.65 -7.651,7.65 z m -2.801,-21.05 -2.05,2.05 -1.25,11.1 2.05,-2.05 z m -18.8,16.9 2.151,-2.1 21.7,21.7 8.3,-0.85 2.349,-2.35 -1.2,-1.2 -2.349,2.35 -21.701,-21.7 -7.799,0.9 -2.35,2.35 z m -8.099,9.95 11.05,-1.1 2.099,-2.15 -11.099,1.2 z m 23.8,7.45 -2.1,2.15 -1.25,11.5 2.05,-2.05 z m -10.35,3 7.25,-7.25 -3.551,-3.5 -4.099,4.1 -0.8,7.85 1.8,1.85 1.2,-1.2 z m -58.5,44.5 1.199,-11.1 -2.05,2.05 -1.2,11.1 z m 4.05,9.95 4.75,-4.7 0.649,-7.35 -1.849,-1.85 -1.1,1.15 1.649,1.65 -7.649,7.6 z m 18.75,-0.6 -12.151,1.35 -2.049,2.05 12.15,-1.35 z m 47.899,61.4 1.2,-11.1 -2.049,2.05 -1.201,11.1 z m -14.599,14.65 2.099,-2.15 -11.099,1.2 -2.05,2.05 z m 11.5,20.1 1.25,-11.6 -2.1,2.15 -1.2,11.5 z m -8.451,-5.5 1.201,-1.2 -1.85,-1.8 7.25,-7.3 -3.551,-3.55 -4.099,4.1 -0.8,7.95 z m 96.901,-75.45 2.349,-2.35 -1.2,-1.2 -2.349,2.35 -21.75,-21.7 -7.8,0.9 -2.351,2.35 0.901,0.9 2.15,-2.1 21.75,21.7 z m -19.8,12.3 2.05,-2.05 1.25,-11.6 -2.101,2.15 z m -6.4,-7.6 1.2,-1.2 -1.851,-1.8 7.25,-7.25 -3.55,-3.55 -4.099,4.1 -0.8,7.9 z m -51.5,37.5 -1.1,1.15 1.6,1.65 -7.651,7.6 3.551,3.55 4.75,-4.7 0.649,-7.4 z m 0.95,16.7 12.149,-1.3 2.051,-2.05 -12.15,1.3 z m 7.2,8.25 -2.351,2.35 -21.75,-21.7 -7.799,0.95 -2.35,2.3 0.899,0.9 2.101,-2.1 21.75,21.7 8.35,-0.85 2.349,-2.35 z m -146.55,-151.7 -2.051,2.05 12.151,-1.35 2.05,-2.05 z m -6.65,-0.75 4.75,-4.7 0.7,-7.35 -1.851,-1.85 -1.099,1.15 1.65,1.65 -7.65,7.6 z m -2.85,-21.05 -2.051,2.05 -1.199,11.1 2.05,-2.05 z m -5.1,36.45 -1.25,11.5 2.049,-2.05 1.301,-11.6 z m -6.451,2.75 -1.849,-1.85 7.25,-7.3 -3.5,-3.5 -4.1,4.1 -0.85,7.9 1.85,1.85 z m 63.55,48.4 2.101,-2.1 21.7,21.7 8.35,-0.85 2.349,-2.35 -1.199,-1.2 -2.351,2.35 -21.7,-21.7 -7.8,0.95 -2.349,2.3 z m -6.05,7.9 -2.049,2.05 11.049,-1.1 2.101,-2.15 z m -65.549,-79.55 0.9,0.95 2.1,-2.1 21.7,21.7 8.349,-0.85 2.351,-2.35 -1.2,-1.2 -2.35,2.35 -21.7,-21.7 -7.8,0.9 z m 3.799,9.8 2.101,-2.15 -11.101,1.2 -2.049,2.05 z m -79.699,69.75 -2.051,2.05 11,-1.1 2.151,-2.15 z m 23.6,-13.7 1.2,-11.1 -2.05,2.05 -1.2,11.1 z m 4.05,10 4.7,-4.75 0.75,-7.35 -1.85,-1.85 -1.15,1.15 1.65,1.65 -7.6,7.65 z m 18.75,-0.65 -12.1,1.35 -2.05,2.05 12.1,-1.35 z m -8.15,15.2 2.35,-2.35 -1.2,-1.2 -2.35,2.35 -21.7,-21.7 -7.85,0.9 -2.301,2.3 0.901,0.95 2.099,-2.1 21.701,21.7 z m -18.6,0.8 -1.201,11.5 2.051,-2.05 1.3,-11.6 z m -7.65,3.95 1.199,-1.2 -1.849,-1.85 7.3,-7.3 -3.5,-3.5 -4.1,4.1 -0.9,7.9 z m 67.699,56.05 2.151,-2.15 -11.1,1.2 -2.051,2.05 z m 80.151,-48.5 2.05,-2.05 1.299,-11.6 -2.099,2.15 z m -6.401,-7.55 1.201,-1.2 -1.8,-1.85 7.25,-7.3 -3.55,-3.5 -4.101,4.1 -0.799,7.9 z m -38.399,52.8 2.05,-2.05 -12.1,1.35 -2.051,2.05 z m -16.65,-1.4 4.7,-4.75 0.7,-7.35 -1.851,-1.85 -1.149,1.15 1.649,1.65 -7.599,7.65 z m -4.05,-10 1.2,-11.1 -2.05,2.05 -1.2,11.1 z m -10.45,28.1 -1.8,-1.85 7.3,-7.3 -3.55,-3.5 -4.1,4.1 -0.85,7.9 1.799,1.85 z m 6.45,-2.75 -1.2,11.5 2.049,-2.05 1.301,-11.6 z m 19.75,-4.35 -2.35,2.35 -21.7,-21.7 -7.851,0.95 -2.299,2.3 0.9,0.9 2.1,-2.1 21.7,21.7 8.349,-0.85 2.351,-2.35 z m 31.349,63.45 -2.049,2.05 11,-1.1 2.15,-2.15 z m -45.899,45.9 -2.05,2.05 -1.2,11.1 2.05,-2.05 z m 57.25,-33.35 7.3,-7.3 -3.55,-3.55 -4.101,4.1 -0.849,7.95 1.849,1.8 1.201,-1.2 z m -152.8,-12.55 -2.051,2.05 11.051,-1.15 2.15,-2.1 z m 23.65,-13.75 1.2,-11.1 -2.05,2.05 -1.2,11.1 z m 4,10 4.75,-4.75 0.7,-7.35 -1.85,-1.85 -1.15,1.15 1.65,1.65 -7.65,7.65 z m 4.6,2.75 12.1,-1.35 2.05,-2.05 -12.1,1.35 z m -13.801,24.1 2.051,-2.05 1.3,-11.55 -2.15,2.1 z m 19.801,-12.3 2.35,-2.3 -1.2,-1.2 -2.35,2.3 -21.7,-21.7 -7.85,0.95 -2.301,2.35 0.901,0.9 2.099,-2.15 21.701,21.7 z m -26.25,4.75 1.199,-1.2 -1.799,-1.85 7.299,-7.3 -3.549,-3.5 -4.1,4.1 -0.851,7.9 z m 67.699,56.1 2.151,-2.1 -11.151,1.2 -2.049,2.05 z m -54.849,44.95 -2.05,2.05 -1.2,11.15 2.05,-2.05 z m -24.85,24.85 -2.051,2.05 11.051,-1.15 2.1,-2.1 z m 18.699,5.25 -3.549,-3.55 -4.1,4.1 -0.851,7.9 1.851,1.8 1.2,-1.2 -1.85,-1.8 z m 8.951,-9 4.75,-4.75 0.7,-7.35 -1.8,-1.85 -1.15,1.1 1.6,1.65 -7.65,7.65 z m 10.65,14.55 2.3,-2.35 -1.2,-1.2 -2.3,2.35 -21.75,-21.7 -7.85,0.9 -2.35,2.35 0.9,0.9 2.149,-2.15 21.75,21.7 z m 8.1,-15.2 -12.1,1.35 -2.05,2.05 12.1,-1.35 z m 61.4,-56.75 -21.75,-21.7 -7.851,0.95 -2.299,2.35 0.9,0.9 2.1,-2.15 21.75,21.7 8.35,-0.85 2.35,-2.3 -1.2,-1.2 z m 7.25,-11.9 2.05,-2.05 -12.1,1.3 -2.051,2.05 z m -16.7,-1.4 4.75,-4.75 0.7,-7.4 -1.8,-1.85 -1.15,1.15 1.599,1.65 -7.649,7.65 z m -15.6,19.25 1.199,-1.2 -1.849,-1.8 7.3,-7.3 -3.55,-3.55 -4.1,4.1 -0.85,7.95 z m 8.5,5.5 1.25,-11.55 -2.15,2.1 -1.151,11.5 z m 61.3,48.5 -11.15,1.2 -2.05,2.05 11.05,-1.15 z m -0.95,14.9 1.849,1.85 1.201,-1.2 -1.85,-1.85 7.3,-7.3 -3.55,-3.55 -4.101,4.1 z m 131.25,-155.15 -2.05,2.05 11.05,-1.1 2.099,-2.15 z m 23.599,-13.7 1.201,-11.1 -2.05,2.05 -1.2,11.1 z m 4.05,9.95 4.75,-4.7 0.7,-7.4 -1.849,-1.8 -1.101,1.15 1.601,1.6 -7.651,7.6 z m 10.601,14.6 2.349,-2.35 -1.2,-1.2 -2.349,2.35 -21.701,-21.75 -7.849,0.95 -2.351,2.3 0.95,0.95 2.101,-2.1 21.699,21.7 z m -26.2,4.75 1.2,-1.2 -1.851,-1.85 7.25,-7.3 -3.55,-3.55 -4.099,4.1 -0.8,7.95 z m 6.4,7.55 2.05,-2.05 1.3,-11.65 -2.1,2.15 z m -138.101,-13.7 -2.149,2.15 -1.15,11.5 2.049,-2.05 z m 1.851,-23.15 1.199,-11.1 -2.05,2.05 -1.2,11.1 z m 4.05,10 4.7,-4.75 0.699,-7.4 -1.8,-1.85 -1.149,1.15 1.6,1.65 -7.6,7.65 z m 18.7,-0.65 -12.101,1.3 -2.049,2.05 12.099,-1.3 z m -8.101,15.15 2.351,-2.35 -1.2,-1.2 -2.351,2.35 -21.75,-21.7 -7.849,0.95 -2.3,2.3 0.899,0.9 2.101,-2.1 21.75,21.7 z m 57.25,35.1 -2.049,2.05 -1.201,11.1 2.05,-2.05 z m 2.851,21.1 4.699,-4.75 0.75,-7.4 -1.849,-1.8 -1.151,1.15 1.601,1.6 -7.601,7.65 z m -29.7,5.75 11,-1.1 2.149,-2.15 -11.099,1.2 z m 22.55,19.05 1.299,-11.65 -2.149,2.15 -1.2,11.55 z m -8.5,-5.5 1.2,-1.2 -1.851,-1.85 7.301,-7.3 -3.551,-3.55 -4.099,4.1 -0.85,7.95 z m -57.901,30.3 -2.05,2.05 -1.2,11.1 2.051,-2.05 z m 2.801,21.1 4.75,-4.75 0.75,-7.4 -1.851,-1.8 -1.149,1.15 1.6,1.6 -7.651,7.65 z m 9.449,13.35 -21.699,-21.75 -7.9,0.95 -2.3,2.35 0.95,0.95 2.1,-2.15 21.7,21.7 8.349,-0.85 2.351,-2.3 -1.2,-1.2 z m 9.301,-14 -12.051,1.3 -2.05,2.05 12.05,-1.3 z m 61.399,-56.7 -21.7,-21.75 -7.899,0.95 -2.3,2.3 0.949,0.95 2.101,-2.1 21.7,21.7 8.35,-0.85 2.349,-2.35 -1.199,-1.2 z m 7.25,-11.95 2.05,-2.05 -12.05,1.3 -2.049,2.05 z m 51.201,48.2 -2.05,2.05 -1.2,11.1 2.049,-2.05 z m -24.8,24.8 -2.05,2.05 11,-1.1 2.149,-2.15 z m 12,15.6 1.2,-1.2 -1.851,-1.85 7.3,-7.3 -3.5,-3.55 -4.099,4.1 -0.901,7.95 z m 15.649,-19.3 4.7,-4.75 0.75,-7.35 -1.849,-1.85 -1.151,1.15 1.651,1.6 -7.601,7.65 z m 9.401,13.35 -21.701,-21.7 -7.899,0.9 -2.301,2.3 0.95,0.95 2.101,-2.1 21.699,21.7 8.351,-0.85 2.349,-2.35 -1.2,-1.2 z m -346.3,-365.5 2.05,-2.05 -12.05,1.35 -2.05,2.05 z m -16.651,-1.4 4.701,-4.75 0.75,-7.35 -1.85,-1.85 -1.15,1.15 1.65,1.6 -7.601,7.65 z m -6.099,-7.95 2.05,-2.05 1.2,-11.1 -2.05,2.05 z m -13.35,1.65 21.699,21.7 8.351,-0.85 2.35,-2.35 -1.201,-1.2 -2.349,2.35 -21.7,-21.7 -7.85,0.9 -2.3,2.3 0.9,0.95 z m 0.75,10.95 2.15,-2.15 -11.1,1.2 -2.05,2.05 z m 10.699,10.7 -1.199,11.5 2.05,-2.05 1.3,-11.6 z m -6.449,2.75 -1.85,-1.85 7.299,-7.3 -3.5,-3.55 -4.099,4.1 -0.901,7.95 1.851,1.85 z m -83.95,56.35 -2.05,2.05 11.05,-1.15 2.149,-2.1 z m 23.649,-13.75 1.201,-11.1 -2.05,2.05 -1.2,11.1 z m 4,10 4.75,-4.75 0.75,-7.35 -1.849,-1.85 -1.151,1.15 1.651,1.6 -7.651,7.65 z m 18.75,-0.65 -12.049,1.35 -2.05,2.05 12.05,-1.35 z m -24.549,13.9 -2.15,2.1 -1.2,11.5 2.05,-2.05 z m 16.45,1.3 2.349,-2.3 -1.199,-1.2 -2.35,2.3 -21.701,-21.7 -7.849,0.9 -2.3,2.35 0.899,0.95 2.101,-2.15 21.7,21.7 z m -26.25,4.75 1.2,-1.2 -1.851,-1.85 7.301,-7.3 -3.5,-3.55 -4.1,4.1 -0.9,7.95 z m 82.3,41.4 1.2,-11.1 -2.05,2.05 -1.2,11.1 z m -14.65,14.65 2.15,-2.1 -11.15,1.2 -2.051,2.05 z m 10.699,10.7 -1.199,11.5 2.05,-2.05 1.3,-11.55 z m -7.649,3.95 1.2,-1.2 -1.85,-1.85 7.299,-7.3 -3.5,-3.5 -4.099,4.1 -0.901,7.9 z m 19.25,-33.25 -1.15,1.15 1.65,1.65 -7.65,7.65 3.5,3.5 4.75,-4.75 0.75,-7.35 z m 15.149,13.3 -12.099,1.35 -2.05,2.05 12.1,-1.35 z m -7,11.7 -2.349,2.3 -21.7,-21.7 -7.85,0.9 -2.3,2.35 0.9,0.95 2.1,-2.15 21.699,21.7 8.351,-0.85 2.35,-2.3 z m -136.5,-151.05 2.051,-2.05 -12.051,1.3 -2.049,2.05 z m -16.699,-1.4 4.75,-4.75 0.75,-7.4 -1.85,-1.8 -1.15,1.15 1.6,1.6 -7.651,7.65 z m -6.051,-7.95 2.051,-2.05 1.199,-11.1 -2.049,2.05 z m -1.899,23.25 -1.2,11.55 2.05,-2.05 1.299,-11.6 z m -7.65,4 1.2,-1.2 -1.85,-1.85 7.3,-7.3 -3.55,-3.55 -4.1,4.1 -0.85,7.95 z m -3.8,-25.65 21.7,21.75 8.35,-0.85 2.35,-2.3 -1.2,-1.2 -2.351,2.3 -21.699,-21.75 -7.9,0.95 -2.3,2.35 0.95,0.9 z m -10.3,12.15 11.05,-1.15 2.15,-2.1 -11.15,1.2 z m -68.65,68.65 -2.05,2.05 11.05,-1.15 2.1,-2.1 z m 23.65,-13.7 1.2,-11.15 -2.051,2.05 -1.199,11.15 z m 4,9.95 4.75,-4.75 0.75,-7.35 -1.851,-1.8 -1.149,1.1 1.6,1.6 -7.65,7.65 z m 4.649,2.75 12.051,-1.35 2.05,-2.05 -12.05,1.35 z m -12.599,12.55 -1.2,11.6 2.049,-2.05 1.25,-11.65 z m -8.3,0.95 7.3,-7.25 -3.55,-3.55 -4.101,4.1 -0.849,7.9 1.849,1.85 1.201,-1.2 z m 28,-5.2 -2.3,2.35 -21.7,-21.75 -7.9,0.9 -2.35,2.35 0.95,0.9 2.15,-2.15 21.7,21.75 8.349,-0.8 2.301,-2.35 z m 75.649,61.05 2.051,-2.05 -12.051,1.4 -2.049,2.05 z m -16.699,-1.4 4.75,-4.75 0.75,-7.3 -1.85,-1.85 -1.15,1.1 1.65,1.6 -7.65,7.65 z m -16.551,2.55 -11.099,1.2 -2.05,2.05 11.05,-1.15 z m 12.551,-12.5 1.199,-11.15 -2.049,2.05 -1.201,11.15 z m -10.4,28.05 -1.85,-1.85 7.3,-7.25 -3.5,-3.55 -4.101,4.1 -0.899,7.9 1.85,1.85 z m 6.45,-2.75 -1.2,11.55 2.05,-2.05 1.25,-11.6 z m 19.7,-4.3 -2.301,2.35 -21.699,-21.7 -7.85,0.85 -2.35,2.35 0.899,0.95 2.151,-2.15 21.7,21.7 8.35,-0.8 2.299,-2.35 z m -14.6,109.3 -2.05,2.05 -1.2,11.1 2.049,-2.05 z m -84.4,-47.1 -11.1,1.2 -2.05,2.05 11.05,-1.15 z m 21.15,0.25 12.1,-1.4 2.05,-2.05 -12.101,1.4 z m -4.6,-2.8 4.75,-4.75 0.7,-7.3 -1.85,-1.85 -1.1,1.1 1.649,1.6 -7.649,7.65 z m -4.05,-9.95 1.199,-11.1 -2.049,2.05 -1.201,11.1 z m -5.15,36.85 2.05,-2.05 1.299,-11.6 -2.099,2.1 z m 19.8,-12.3 2.35,-2.35 -1.2,-1.2 -2.351,2.35 -21.699,-21.7 -7.801,0.85 -2.349,2.35 0.9,0.95 2.1,-2.1 21.7,21.7 z m -26.201,4.7 1.201,-1.2 -1.85,-1.85 7.25,-7.25 -3.5,-3.55 -4.101,4.1 -0.849,7.9 z m 12.75,101.05 -2.049,2.05 -1.201,11.1 2.051,-2.05 z m -13.699,23.6 -11.1,1.2 -2.05,2.05 11,-1.1 z m 0.9,16.8 1.25,-1.2 -1.85,-1.85 7.25,-7.3 -3.5,-3.5 -4.101,4.1 -0.899,7.9 z m 15.65,-19.35 4.75,-4.7 0.7,-7.35 -1.85,-1.85 -1.1,1.15 1.649,1.65 -7.649,7.6 z m 87.45,-69.3 2.05,-2.05 -12.15,1.4 -2.05,2.05 z m -16.75,-1.4 4.75,-4.75 0.699,-7.3 -1.849,-1.85 -1.1,1.1 1.65,1.65 -7.65,7.65 z m -7.15,24.85 1.3,-11.6 -2.1,2.1 -1.25,11.55 z m -7.25,-6.75 -1.85,-1.85 7.25,-7.25 -3.5,-3.5 -4.1,4.1 -0.85,7.85 1.85,1.85 z m -15.3,-12.3 11.05,-1.15 2.099,-2.1 -11.099,1.2 z m 10.25,-12.05 21.7,21.7 8.35,-0.85 2.349,-2.35 -1.199,-1.2 -2.35,2.35 -21.701,-21.7 -7.799,0.85 -2.35,2.35 0.899,0.95 z m -39.5,88 -2.351,2.35 -21.699,-21.7 -7.801,0.9 -2.349,2.3 0.9,0.95 2.1,-2.1 21.7,21.7 8.35,-0.85 2.35,-2.35 z m 7.05,-11.65 -12.151,1.35 -2.049,2.05 12.15,-1.35 z m 190.55,-91.2 -2.05,2.05 -1.2,11.15 2.049,-2.05 z m -73.8,-36.35 -2.1,2.1 -1.2,11.55 2.05,-2.05 z m 1.849,-23.2 1.201,-11.15 -2.05,2.05 -1.2,11.15 z m 4,9.95 4.75,-4.75 0.75,-7.3 -1.849,-1.85 -1.151,1.1 1.651,1.65 -7.651,7.65 z m 18.801,-0.65 -12.1,1.4 -2.05,2.05 12.099,-1.4 z m -46.45,4.4 -2.05,2.05 11.05,-1.15 2.1,-2.1 z m 12.05,15.55 1.2,-1.2 -1.851,-1.85 7.301,-7.25 -3.5,-3.5 -4.1,4.1 -0.9,7.85 z m 26.25,-4.7 2.3,-2.35 -1.201,-1.2 -2.299,2.35 -21.701,-21.7 -7.849,0.85 -2.35,2.35 0.9,0.95 2.15,-2.15 21.7,21.7 z m -27.151,129.35 -11.099,1.2 -2.05,2.05 11.05,-1.15 z m -0.899,14.9 1.8,1.85 1.2,-1.2 -1.8,-1.85 7.25,-7.25 -3.551,-3.5 -4.099,4.1 z m 11.35,-25.35 2.049,-2.05 1.201,-11.1 -2.05,2.05 z m 6.1,7.9 4.75,-4.75 0.65,-7.3 -1.85,-1.85 -1.101,1.1 1.651,1.65 -7.651,7.65 z m 18.75,-0.65 -12.15,1.4 -2.05,2.05 12.149,-1.4 z m -7.051,11.7 -2.349,2.35 -21.7,-21.7 -7.8,0.9 -2.35,2.35 0.9,0.9 2.1,-2.1 21.699,21.7 8.351,-0.85 2.35,-2.35 z m 75.701,-80.35 2.049,-2.05 -12.099,1.4 -2.05,2.05 z m -16.701,-1.4 4.75,-4.75 0.701,-7.3 -1.85,-1.85 -1.15,1.1 1.65,1.65 -7.65,7.65 z m -21.599,-4.15 2.15,-2.15 21.699,21.7 8.351,-0.8 2.3,-2.35 -1.2,-1.2 -2.3,2.35 -21.7,-21.7 -7.85,0.9 -2.351,2.35 z m -8.1,9.95 11.05,-1.15 2.1,-2.1 -11.1,1.2 z m 22.55,19.05 1.25,-11.6 -2.101,2.1 -1.199,11.55 z m -7.3,-6.75 -1.801,-1.85 7.301,-7.25 -3.551,-3.5 -4.099,4.1 -0.85,7.85 1.8,1.85 z m 16.949,110.5 1.601,1.65 -7.65,7.65 3.549,3.55 4.75,-4.75 0.651,-7.35 -1.8,-1.85 z m -8.599,4.95 2.05,-2.05 1.2,-11.1 -2.05,2.05 z m -10.55,17.45 -0.8,7.9 1.85,1.8 1.2,-1.2 -1.851,-1.8 7.25,-7.25 -3.549,-3.55 z m -2,-4.9 2.1,-2.1 -11.1,1.2 -2.05,2.05 z m 11.5,20.15 1.25,-11.6 -2.101,2.1 -1.199,11.55 z m 20.1,-12.6 -1.201,-1.2 -2.349,2.35 -21.75,-21.7 -7.8,0.9 -2.351,2.35 0.901,0.9 2.099,-2.1 21.75,21.7 8.351,-0.85 z m 3.75,-10.8 2.049,-2.05 -12.149,1.35 -2.05,2.05 z m -94.6,-47.3 1.3,-11.6 -2.1,2.1 -1.25,11.55 z m 2.3,97.6 -1.2,11.1 2.049,-2.05 1.201,-11.1 z m 4.9,19 4.75,-4.7 0.65,-7.4 -1.8,-1.85 -1.1,1.15 1.6,1.65 -7.651,7.6 z m 4.55,2.75 12.149,-1.3 2.051,-2.05 -12.15,1.3 z m -12.601,12.6 -1.149,11.5 2.05,-2.05 1.25,-11.6 z m -21.649,-9.55 11,-1.1 2.149,-2.15 -11.099,1.2 z m 9.55,-13.2 -2.35,2.3 0.9,0.9 2.1,-2.1 21.75,21.7 8.35,-0.85 2.349,-2.35 -1.199,-1.2 -2.35,2.35 -21.75,-21.7 z m 2.65,24.9 1.85,1.8 1.25,-1.2 -1.85,-1.8 7.25,-7.3 -3.551,-3.55 -4.099,4.1 z m 58.5,59 11,-1.1 2.15,-2.15 -11.1,1.2 z m 25.65,-15.75 1.2,-11.1 -2.05,2.05 -1.2,11.1 z m 20.75,11.4 2.049,-2.05 -12.099,1.3 -2.05,2.05 z m -12.6,-12.6 -7.65,7.6 3.549,3.55 4.75,-4.7 0.701,-7.4 -1.85,-1.8 -1.101,1.15 z m -148.351,-151.35 -2.049,2.05 -1.201,11.1 2.051,-2.05 z m 8.25,9 -1.849,-1.85 -1.1,1.15 1.65,1.65 -7.65,7.6 3.55,3.5 4.75,-4.7 z m 7.5,24.3 -1.199,-1.2 -2.35,2.35 -21.701,-21.7 -7.799,0.95 -2.35,2.3 0.899,0.9 2.101,-2.1 21.7,21.7 8.35,-0.85 z m 3.801,-10.8 2.05,-2.05 -12.15,1.35 -2.05,2.05 z m -33.25,1.1 -11.1,1.2 -2.05,2.05 11,-1.1 z m 0.85,16.8 1.25,-1.2 -1.8,-1.85 7.25,-7.3 -3.55,-3.5 -4.1,4.1 -0.85,7.9 z m 8.5,5.5 1.3,-11.6 -2.15,2.15 -1.2,11.5 z m -70.7,-70.7 1.299,-11.6 -2.149,2.15 -1.2,11.5 z m -20.451,120.3 -2.049,2.05 11,-1.1 2.15,-2.15 z m 24.801,-24.8 -2.051,2.05 -1.199,11.1 2.05,-2.05 z m 2.85,21.05 4.7,-4.7 0.7,-7.35 -1.85,-1.85 -1.15,1.15 1.65,1.65 -7.6,7.6 z m -15.7,19.35 1.2,-1.2 -1.8,-1.85 7.3,-7.3 -3.55,-3.5 -4.101,4.1 -0.849,7.9 z m 7.65,-3.95 -1.2,11.5 2.05,-2.05 1.299,-11.6 z m 26.75,-16 -12.101,1.35 -2.049,2.05 12.1,-1.35 z m -7,11.65 -2.351,2.35 -21.699,-21.7 -7.85,0.95 -2.3,2.3 0.9,0.9 2.1,-2.1 21.7,21.7 8.35,-0.85 2.35,-2.35 z m 42.45,62.25 -11.1,1.2 -2.05,2.05 11,-1.1 z m 12.5,-12.5 1.199,-11.1 -2.049,2.05 -1.201,11.1 z m 9.449,-2.15 -1.799,-1.85 -1.15,1.15 1.6,1.65 -7.6,7.6 3.55,3.55 4.7,-4.7 z m 13.301,11.5 -12.1,1.3 -2.05,2.05 12.099,-1.3 z m -5.75,12.8 -1.2,-1.2 -2.351,2.35 -21.75,-21.7 -7.849,0.95 -2.3,2.3 0.899,0.9 2.101,-2.1 21.75,21.7 8.35,-0.85 z m -21,3.15 -1.15,11.5 2.05,-2.05 1.25,-11.6 z m -9.45,2.15 1.85,1.8 1.2,-1.2 -1.85,-1.8 7.3,-7.3 -3.55,-3.55 -4.1,4.1 z m -50.75,40.4 1.6,1.65 -7.65,7.65 3.55,3.55 4.75,-4.75 0.7,-7.4 -1.801,-1.85 z m -6.5,2.85 1.2,-11.1 -2.051,2.05 -1.199,11.1 z m 8.6,12.7 12.1,-1.3 2.05,-2.05 -12.101,1.3 z m -32.25,1.05 -2.05,2.05 11.05,-1.15 2.1,-2.1 z m 11.4,12.5 7.3,-7.3 -3.55,-3.55 -4.101,4.1 -0.849,7.95 1.849,1.8 1.201,-1.2 z m 8.25,-0.95 -1.15,11.5 2.049,-2.05 1.201,-11.55 z m 18.649,-0.8 2.301,-2.3 -1.2,-1.2 -2.3,2.3 -21.75,-21.7 -7.85,0.95 -2.35,2.35 0.899,0.9 2.151,-2.15 21.75,21.7 z m 60.051,56.2 4.75,-4.75 0.75,-7.4 -1.85,-1.8 -1.15,1.15 1.6,1.6 -7.651,7.65 z m -4,-10 1.199,-11.1 -2.049,2.05 -1.201,11.1 z m 22.75,9.35 -12.051,1.3 -2.049,2.05 12.049,-1.3 z m -48.45,6.45 11.05,-1.15 2.099,-2.1 -11.099,1.2 z m 40.35,8.75 2.299,-2.3 -1.199,-1.2 -2.301,2.3 -21.699,-21.75 -7.9,0.95 -2.35,2.35 0.949,0.95 2.151,-2.15 21.7,21.7 z m -26.9,1.7 7.3,-7.3 -3.55,-3.55 -4.1,4.1 -0.85,7.95 1.85,1.85 1.2,-1.2 z m 7.1,10.6 2.05,-2.05 1.25,-11.6 -2.1,2.1 z m 163.55,-156.05 -1.201,-1.2 -2.349,2.35 -21.7,-21.75 -7.85,0.95 -2.351,2.3 0.951,0.95 2.1,-2.1 21.699,21.7 8.351,-0.85 z m -20.951,3.1 -1.199,11.55 2.05,-2.05 1.3,-11.65 z m -9.5,2.15 1.851,1.85 1.25,-1.2 -1.851,-1.85 7.25,-7.3 -3.549,-3.55 -4.1,4.1 z m -69.75,55.75 -11.099,1.2 -2.05,2.05 11,-1.1 z m 0.25,13.75 7.301,-7.3 -3.551,-3.55 -4.099,4.1 -0.85,7.95 1.85,1.85 1.2,-1.2 z m 21.75,-28.4 -1.849,-1.8 -1.151,1.15 1.601,1.6 -7.601,7.6 3.551,3.55 4.699,-4.7 z m -9.5,2.15 1.201,-11.1 -2.05,2.05 -1.2,11.1 z m 8.651,12.7 12.05,-1.3 2.049,-2.05 -12.049,1.3 z m -12.6,12.6 -1.2,11.55 2.05,-2.05 1.3,-11.65 z m 19.75,-4.3 -2.35,2.35 -21.701,-21.75 -7.899,0.95 -2.3,2.3 0.949,0.95 2.101,-2.1 21.7,21.7 8.35,-0.85 2.349,-2.35 z m 63.55,62.45 12.05,-1.35 2.05,-2.05 -12.05,1.35 z m -23.3,1.9 2.15,-2.15 -11.1,1.2 -2.05,2.05 z m 14.65,-14.65 1.2,-11.1 -2.05,2.05 -1.2,11.1 z m 4.049,9.95 4.701,-4.7 0.75,-7.35 -1.85,-1.85 -1.15,1.15 1.65,1.6 -7.601,7.6 z m -16.299,16.3 7.299,-7.3 -3.5,-3.55 -4.099,4.1 -0.901,7.95 1.851,1.85 1.2,-1.2 z m 7.1,10.6 2.05,-2.05 1.3,-11.6 -2.151,2.15 z m 19.8,-12.3 2.35,-2.35 -1.201,-1.2 -2.349,2.35 -21.7,-21.7 -7.9,0.9 -2.301,2.3 0.951,0.95 2.1,-2.1 21.699,21.7 z m 194.399,-343.3 1.3,-11.6 -2.149,2.1 -1.2,11.55 z m 141.401,0 1.3,-11.6 -2.151,2.15 -1.199,11.5 z m -46.901,47.3 2.05,-2.05 -12.05,1.35 -2.049,2.05 z m -16.7,-1.4 4.75,-4.75 0.75,-7.35 -1.849,-1.85 -1.151,1.15 1.651,1.6 -7.651,7.65 z m -19.399,-6.3 21.7,21.7 8.35,-0.85 2.349,-2.3 -1.199,-1.2 -2.351,2.3 -21.7,-21.7 -7.899,0.9 -2.3,2.35 0.949,0.95 z m 13.349,-1.65 2.05,-2.05 1.2,-11.1 -2.049,2.05 z m -10.5,17.45 -0.899,7.95 1.85,1.85 1.2,-1.2 -1.851,-1.85 7.301,-7.3 -3.5,-3.55 z m -13.149,-3.7 11.05,-1.15 2.149,-2.1 -11.149,1.2 z m 22.6,19 1.299,-11.55 -2.149,2.1 -1.2,11.5 z m -68.451,26.85 -1.2,11.15 2.051,-2.05 1.199,-11.15 z m 4.851,19.05 4.75,-4.75 0.75,-7.3 -1.851,-1.85 -1.149,1.1 1.649,1.6 -7.649,7.65 z m 4.649,2.8 12.05,-1.4 2.051,-2.05 -12.051,1.4 z m 47.401,72.55 2.099,-2.1 -11.099,1.2 -2.05,2.05 z m 14.649,-14.6 1.2,-11.15 -2.049,2.05 -1.201,11.15 z m 47.051,-57 -2.051,2.05 11.051,-1.15 2.149,-2.1 z m 24.85,-24.85 -2.05,2.05 -1.2,11.1 2.049,-2.05 z m 2.799,21.1 4.75,-4.75 0.75,-7.35 -1.849,-1.85 -1.151,1.15 1.651,1.65 -7.651,7.65 z m -15.599,19.3 1.2,-1.2 -1.851,-1.85 7.3,-7.3 -3.5,-3.5 -4.099,4.1 -0.901,7.9 z m 9.8,-6.05 -2.151,2.1 -1.199,11.5 2.05,-2.05 z m 16.45,1.3 2.349,-2.3 -1.2,-1.2 -2.349,2.3 -21.701,-21.7 -7.849,0.95 -2.3,2.35 0.899,0.9 2.101,-2.15 21.699,21.7 z m -64.651,57.55 2.05,-2.05 -12.05,1.4 -2.049,2.05 z m -11.2,-13.45 -1.849,-1.85 -1.151,1.1 1.651,1.65 -7.651,7.65 3.5,3.5 4.75,-4.75 z M -421,1118.2 l -2.05,2.05 -1.2,11.15 2.05,-2.05 z m 8.3,9 -1.85,-1.8 -1.15,1.1 1.599,1.6 -7.649,7.65 3.55,3.55 4.75,-4.75 z m 11.2,13.5 2.05,-2.05 -12.05,1.35 -2.05,2.05 z m -32.95,14.85 7.3,-7.25 -3.55,-3.55 -4.1,4.1 -0.85,7.9 1.85,1.85 1.199,-1.2 z m 9.15,8.6 1.25,-11.65 -2.1,2.1 -1.201,11.6 z m -14.45,-29 2.149,-2.15 21.701,21.7 8.35,-0.8 2.3,-2.35 -1.2,-1.2 -2.3,2.35 -21.7,-21.75 -7.901,0.9 -2.349,2.35 z m -56.25,-41.75 1.2,-11.6 -2.1,2.1 -1.15,11.55 z m 59.149,50.55 2.101,-2.1 -11.101,1.2 -2.049,2.05 z m -79.699,69.8 -2.051,2.05 11.051,-1.15 2.1,-2.1 z m 22.75,-22.75 -1.2,11.1 2.05,-2.05 1.2,-11.1 z m 4.9,19 4.75,-4.75 0.7,-7.35 -1.85,-1.8 -1.1,1.1 1.6,1.6 -7.65,7.65 z m 4.6,2.75 12.1,-1.35 2.05,-2.05 -12.1,1.35 z m -22.051,14.7 1.851,1.85 1.2,-1.2 -1.85,-1.85 7.25,-7.25 -3.55,-3.55 -4.1,4.1 z m 9.5,-2.15 -1.25,11.6 2.051,-2.05 1.3,-11.65 z m 18.551,-0.7 2.35,-2.35 -1.2,-1.2 -2.35,2.35 -21.7,-21.75 -7.85,0.9 -2.35,2.35 0.95,0.95 2.099,-2.1 21.701,21.7 z m 41.449,60.75 2.101,-2.1 -11.101,1.2 -2.049,2.05 z m 59.651,-69.55 11.05,-1.15 2.099,-2.1 -11.099,1.2 z m 8.149,-9.95 2.151,-2.15 21.7,21.7 8.349,-0.8 2.3,-2.35 -1.199,-1.2 -2.301,2.35 -21.699,-21.7 -7.9,0.85 -2.35,2.35 z m 12.401,31.05 2.049,-2.05 1.25,-11.6 -2.099,2.1 z m -5.25,-8.8 -1.85,-1.85 7.3,-7.25 -3.5,-3.55 -4.101,4.1 -0.899,7.9 1.849,1.85 z m -60.35,42.65 1.2,-11.1 -2.051,2.05 -1.199,11.1 z m 9.5,-2.1 -1.851,-1.85 -1.099,1.1 1.65,1.6 -7.65,7.65 3.5,3.55 4.75,-4.75 z m -0.851,14.85 12.101,-1.4 2.05,-2.05 -12.1,1.4 z m 8.351,9.45 -1.2,-1.2 -2.35,2.35 -21.7,-21.7 -7.851,0.85 -2.349,2.35 0.95,0.95 2.1,-2.1 21.7,21.7 8.349,-0.85 z m -20.9,3.1 -1.25,11.55 2.049,-2.05 1.301,-11.6 z m -1.05,-6.35 -3.5,-3.55 -4.1,4.1 -0.85,7.9 1.85,1.85 1.199,-1.2 -1.849,-1.85 z m 63.149,64.25 -11.099,1.2 -2.05,2.05 11.05,-1.15 z m 2.151,15.55 -1.85,-1.85 7.25,-7.25 -3.5,-3.5 -4.101,4.1 -0.849,7.85 1.849,1.85 z m -124.5,-30.85 1.65,1.6 -7.65,7.6 3.5,3.55 4.75,-4.7 0.7,-7.35 -1.85,-1.85 z m -6.55,2.8 1.2,-11.1 -2.05,2.05 -1.2,11.1 z m -23.6,13.7 -2.051,2.05 11,-1.1 2.151,-2.15 z m 13.25,14.4 -1.85,-1.85 7.25,-7.3 -3.5,-3.55 -4.1,4.1 -0.9,7.95 1.85,1.85 z m 6.4,-2.75 -1.201,11.5 2.051,-2.05 1.3,-11.6 z m 17.4,-2 -21.7,-21.7 -7.85,0.9 -2.35,2.3 0.95,0.95 2.099,-2.1 21.701,21.7 8.35,-0.85 2.35,-2.35 -1.2,-1.2 z m 9.35,-14 -12.1,1.35 -2.05,2.05 12.1,-1.35 z m 22.25,77.1 11,-1.1 2.15,-2.15 -11.101,1.2 z m 29.7,-5.8 4.75,-4.7 0.7,-7.35 -1.851,-1.85 -1.099,1.15 1.65,1.65 -7.65,7.6 z m -4.05,-9.95 1.2,-11.1 -2.051,2.05 -1.199,11.1 z m 22.8,9.35 -12.1,1.35 -2.051,2.05 12.101,-1.35 z m -8.151,15.2 2.351,-2.35 -1.2,-1.2 -2.35,2.35 -21.7,-21.7 -7.8,0.95 -2.35,2.3 0.9,0.9 2.1,-2.1 21.7,21.7 z m -19.799,12.3 2.049,-2.05 1.301,-11.6 -2.15,2.15 z m -7.05,-10.6 7.25,-7.3 -3.5,-3.5 -4.1,4.1 -0.9,7.9 1.849,1.85 1.25,-1.2 z m 167.099,-144.3 -21.7,-21.7 -7.849,0.9 -2.35,2.35 0.899,0.9 2.151,-2.15 21.7,21.7 8.35,-0.8 2.299,-2.35 -1.2,-1.2 z m 66.75,45.25 -1.849,-1.85 -1.151,1.1 1.651,1.65 -7.651,7.65 3.55,3.55 4.75,-4.75 z m -9.45,2.15 1.2,-11.15 -2.049,2.05 -1.201,11.15 z m -23.649,13.7 -2.05,2.05 11.05,-1.15 2.099,-2.1 z m 11.399,12.5 7.301,-7.25 -3.551,-3.55 -4.099,4.1 -0.85,7.9 1.8,1.8 1.2,-1.2 z m 10.351,-3.05 -2.101,2.1 -1.199,11.55 2.05,-2.05 z m 15.3,0.15 -21.701,-21.7 -7.849,0.9 -2.351,2.35 0.901,0.9 2.15,-2.15 21.699,21.7 8.351,-0.8 2.3,-2.35 -1.201,-1.2 z m -86,-70.85 -2.1,2.1 -1.2,11.55 2.05,-2.05 z m -3.1,-4.25 -3.5,-3.5 -4.101,4.1 -0.899,7.85 1.85,1.85 1.2,-1.2 -1.851,-1.85 z m -57.601,50.55 -7.649,7.65 3.5,3.5 4.75,-4.75 0.699,-7.3 -1.849,-1.85 -1.1,1.1 z m -8.2,1.2 1.2,-11.1 -2.049,2.05 -1.201,11.1 z m 8.651,12.75 12.099,-1.4 2.051,-2.05 -12.101,1.4 z m -10.451,10.45 -2.099,2.1 -1.25,11.55 2.05,-2.05 z m 15.25,0.15 -21.7,-21.7 -7.8,0.9 -2.349,2.35 0.899,0.9 2.101,-2.1 21.7,21.7 8.35,-0.85 2.349,-2.35 -1.199,-1.2 z m 31.651,63.15 11.05,-1.15 2.099,-2.1 -11.099,1.2 z m 25.649,-15.75 1.2,-11.1 -2.049,2.05 -1.201,11.1 z m -12.199,26.2 7.25,-7.25 -3.551,-3.55 -4.099,4.1 -0.8,7.9 1.8,1.8 1.2,-1.2 z m 7,10.6 2.05,-2.05 1.3,-11.6 -2.1,2.1 z m 12.8,-40.8 -1.101,1.1 1.651,1.65 -7.651,7.65 3.551,3.55 4.75,-4.75 0.649,-7.35 z m 5.8,27.3 -21.701,-21.7 -7.799,0.9 -2.35,2.35 0.899,0.9 2.101,-2.1 21.699,21.7 8.351,-0.85 2.349,-2.35 -1.2,-1.2 z m -4.8,-10.6 12.149,-1.35 2.051,-2.05 -12.15,1.35 z m 297,-710.5 -12.05,1.3 -2.051,2.05 12.051,-1.3 z m -18.7,0.65 4.7,-4.75 0.75,-7.4 -1.851,-1.8 -1.149,1.15 1.599,1.6 -7.599,7.65 z M 0,707.1 2.05,705.05 3.25,693.95 1.199,696 Z m -15.45,3.8 2.099,-2.15 21.701,21.7 8.349,-0.85 2.351,-2.3 -1.2,-1.2 -2.35,2.3 -21.7,-21.75 -7.901,0.95 -2.299,2.35 z m -8.151,9.95 11,-1.15 2.151,-2.1 -11.101,1.2 z m 22.55,19 1.301,-11.6 -2.15,2.1 -1.201,11.55 z m -9.149,-8.55 7.3,-7.3 -3.55,-3.55 -4.101,4.1 -0.849,7.95 1.849,1.85 1.2,-1.2 z M 2.05,846.5 3.25,835.4 1.199,837.45 0,848.55 Z m -14.651,14.6 2.101,-2.1 -11.101,1.2 -2.049,2.05 z m 2.401,11.6 7.3,-7.25 -3.5,-3.55 -4.1,4.1 -0.9,7.9 1.849,1.85 1.2,-1.2 z m 9.149,8.6 1.25,-11.6 -2.099,2.1 -1.201,11.55 z m 10.75,-38.75 -1.149,1.1 1.649,1.6 -7.649,7.65 3.5,3.55 4.75,-4.75 0.75,-7.3 z m 15.101,13.25 -12.05,1.4 -2.051,2.05 12.051,-1.4 z m -9.3,14.05 -21.7,-21.7 -7.901,0.85 -2.349,2.35 0.95,0.95 2.149,-2.1 21.701,21.7 8.349,-0.85 2.301,-2.35 -1.2,-1.2 z m -96.7,-81.55 -11.101,1.2 -2.05,2.05 11.05,-1.15 z m 12.55,-12.5 1.2,-11.1 -2.05,2.05 -1.2,11.1 z m 4,9.95 4.75,-4.75 0.75,-7.35 -1.85,-1.8 -1.15,1.1 1.599,1.6 -7.649,7.65 z m 18.75,-0.65 -12.05,1.35 -2.05,2.05 12.05,-1.35 z m -72.75,-68.65 2.049,-2.05 -12.099,1.35 -2.05,2.05 z m -16.701,-1.4 4.75,-4.75 0.701,-7.35 -1.8,-1.85 -1.151,1.1 1.601,1.65 -7.65,7.65 z m -6.049,-7.9 2.049,-2.05 1.201,-11.1 -2.05,2.05 z m -1.951,23.2 -1.149,11.55 2.05,-2.05 1.2,-11.6 z m -7.599,3.95 1.2,-1.2 -1.851,-1.8 7.3,-7.25 -3.55,-3.55 -4.099,4.1 -0.851,7.9 z m -3.851,-25.55 21.75,21.7 8.351,-0.85 2.3,-2.35 -1.201,-1.2 -2.299,2.35 -21.75,-21.7 -7.85,0.9 -2.351,2.35 0.901,0.9 z m -10.25,12.1 11.051,-1.15 2.1,-2.1 -11.1,1.2 z m -22.25,64.25 -12.149,1.35 -2.05,2.05 12.149,-1.35 z m 33.301,76.05 2.1,-2.15 -11.1,1.2 -2.051,2.05 z m 25.3,-4 -2.05,2.05 12.1,-1.35 2.049,-2.05 z m -6.651,-0.7 4.75,-4.75 0.701,-7.35 -1.85,-1.8 -1.101,1.1 1.601,1.6 -7.65,7.65 z m -4.049,-9.95 1.25,-11.1 -2.05,2.05 -1.25,11.1 z m -10.35,28.05 -1.851,-1.85 7.25,-7.25 -3.549,-3.55 -4.1,4.1 -0.801,7.9 1.851,1.85 z m 5.199,8.8 2.051,-2.05 1.3,-11.65 -2.101,2.15 z m 20.95,-15.85 -2.349,2.35 -21.7,-21.75 -7.85,0.9 -2.351,2.35 0.951,0.95 2.15,-2.1 21.699,21.7 8.301,-0.85 2.35,-2.35 z M -51.7,798 l -1.2,-1.2 -2.3,2.35 -21.7,-21.75 -7.901,0.9 -2.349,2.35 0.95,0.95 2.149,-2.1 21.7,21.7 8.351,-0.85 z m -22.101,14.65 2.051,-2.05 1.25,-11.65 -2.101,2.1 z m -6.449,-7.6 1.199,-1.2 -1.849,-1.85 7.299,-7.25 -3.549,-3.55 -4.1,4.1 -0.851,7.9 z m 11.55,112.15 1.25,-11.1 -2.05,2.05 -1.25,11.1 z m 4.05,9.95 4.75,-4.75 0.7,-7.3 -1.851,-1.85 -1.099,1.1 1.65,1.6 -7.65,7.65 z m 18.75,-0.65 -12.1,1.4 -2.051,2.05 12.101,-1.4 z m -35.3,3.2 -11.101,1.2 -2.05,2.05 11.05,-1.1 z m 7.349,24.35 2.05,-2.05 1.301,-11.6 -2.101,2.15 z m -7.049,-10.65 7.25,-7.25 -3.5,-3.55 -4.1,4.1 -0.851,7.9 1.851,1.85 1.199,-1.2 z m 26.849,-1.65 2.351,-2.35 -1.2,-1.2 -2.35,2.35 -21.7,-21.7 -7.851,0.85 -2.349,2.35 0.95,0.95 2.149,-2.1 21.7,21.7 z m -133.25,-15.2 -12.099,1.3 -2.05,2.05 12.099,-1.3 z m 45.851,63.4 2.05,-2.05 1.2,-11.1 -2.05,2.05 z m 22.8,9.35 2.049,-2.05 -12.099,1.35 -2.05,2.05 z m -16.701,-1.45 4.75,-4.7 0.701,-7.35 -1.85,-1.85 -1.101,1.15 1.651,1.6 -7.651,7.6 z m -7.149,24.85 1.3,-11.6 -2.101,2.15 -1.25,11.5 z m -8.45,-5.5 1.2,-1.2 -1.851,-1.85 7.25,-7.3 -3.5,-3.55 -4.099,4.1 -0.851,7.95 z m -5.95,-23.5 2.099,-2.1 21.7,21.7 8.351,-0.85 2.35,-2.35 -1.201,-1.2 -2.349,2.35 -21.7,-21.7 -7.85,0.9 -2.351,2.3 z m 2.9,8.85 2.1,-2.15 -11.1,1.2 -2.051,2.05 z m -33.351,65.4 -12.049,1.35 -2.05,2.05 12.05,-1.35 z m 106.151,3.15 -11.101,1.2 -2.05,2.05 11.05,-1.1 z m 0.95,16.8 1.199,-1.2 -1.849,-1.85 7.25,-7.3 -3.5,-3.5 -4.1,4.1 -0.851,7.9 z m 9.5,-27.25 2.05,-2.05 1.2,-11.1 -2.051,2.05 z m 6.1,7.9 4.75,-4.7 0.7,-7.35 -1.851,-1.85 -1.099,1.15 1.65,1.65 -7.65,7.6 z m 12.95,12.25 -1.2,-1.2 -2.35,2.35 -21.7,-21.7 -7.8,0.95 -2.351,2.3 0.901,0.9 2.099,-2.1 21.701,21.7 8.349,-0.85 z m 5.8,-12.85 -12.1,1.35 -2.051,2.05 12.101,-1.35 z M 3.25,976.8 1.199,978.85 -0.051,989.95 2,987.9 Z m 9.449,21.8 -2.05,2.05 12.101,-1.4 2.05,-2.05 z m -6.649,-0.75 4.75,-4.75 0.7,-7.3 -1.851,-1.85 -1.099,1.1 1.649,1.65 -7.649,7.65 z m -29.7,5.8 11.049,-1.1 2.101,-2.15 -11.101,1.2 z m 7.25,-10.85 0.9,0.9 2.149,-2.1 21.701,21.7 8.299,-0.85 2.351,-2.35 -1.2,-1.2 -2.351,2.35 -21.699,-21.7 -7.801,0.9 z m 15.299,29.9 1.3,-11.6 -2.099,2.15 -1.25,11.5 z m -7.25,-6.75 -1.849,-1.85 7.25,-7.25 -3.5,-3.5 -4.101,4.1 -0.849,7.85 1.849,1.85 z m 19.851,111.25 -1.851,-1.85 -1.099,1.15 1.649,1.65 -7.649,7.6 3.55,3.55 4.75,-4.7 z m -11.5,4.2 2.05,-2.05 1.2,-11.1 -2.051,2.05 z m -2.9,16.9 -3.55,-3.55 -4.101,4.1 -0.8,7.95 1.8,1.8 1.2,-1.2 -1.799,-1.8 z m -20.701,-3.2 11.05,-1.1 2.101,-2.15 -11.101,1.2 z m 22.5,19 1.3,-11.6 -2.099,2.15 -1.25,11.5 z M 19,1151.5 l -1.2,-1.2 -2.351,2.35 -21.699,-21.7 -7.801,0.95 -2.349,2.3 0.9,0.9 2.1,-2.1 21.7,21.7 8.349,-0.85 z m 3.8,-10.75 2.05,-2.05 -12.151,1.3 -2.05,2.05 z m -35.401,144.65 2.151,-2.15 -11.101,1.2 -2.05,2.05 z m 14.651,-14.65 1.2,-11.1 -2.051,2.05 L 0,1272.8 Z m 20.7,11.4 2.05,-2.05 -12.101,1.3 -2.05,2.05 z m -13.051,-15.35 -1.149,1.15 1.599,1.6 -7.599,7.65 3.55,3.55 4.7,-4.75 0.7,-7.4 z m -81.5,-173.4 1.301,-11.6 -2.101,2.15 -1.25,11.5 z m -68.449,26.85 -1.2,11.1 2.05,-2.05 1.2,-11.1 z m 10.35,6.95 -1.85,-1.85 -1.15,1.15 1.65,1.65 -7.601,7.65 3.5,3.5 4.701,-4.75 z m -24.151,16.75 2.151,-2.15 -11.1,1.2 -2.051,2.05 z m 30.45,6.35 -2.349,2.35 -21.7,-21.7 -7.85,0.95 -2.301,2.3 0.901,0.9 2.099,-2.1 21.7,21.7 8.351,-0.85 2.35,-2.35 z m 4.901,-9.6 2.05,-2.05 -12.05,1.35 -2.05,2.05 z m -33.25,8.15 -0.901,7.9 1.851,1.85 1.199,-1.2 -1.849,-1.85 7.299,-7.3 -3.5,-3.5 z m 9.45,15.25 1.3,-11.6 -2.151,2.15 -1.2,11.5 z m -44.851,45.25 -12.049,1.35 -2.05,2.05 12.05,-1.35 z m 33.351,76.05 2.149,-2.1 -11.149,1.2 -2.051,2.05 z m 14.649,-14.65 1.201,-11.1 -2.05,2.05 -1.2,11.1 z m 9.451,-2.15 -1.85,-1.85 -1.15,1.15 1.65,1.65 -7.65,7.65 3.549,3.55 4.75,-4.75 z m -0.85,14.85 12.1,-1.3 2.049,-2.05 -12.099,1.3 z m 61.25,-92.45 -1.2,11.1 2.05,-2.05 1.2,-11.1 z m 4.899,19.05 4.701,-4.75 0.7,-7.4 -1.851,-1.85 -1.149,1.15 1.649,1.65 -7.599,7.65 z m 4.55,2.7 12.101,-1.3 2.05,-2.05 -12.1,1.3 z m -27.05,-7.85 0.901,0.9 2.099,-2.1 21.701,21.7 8.349,-0.85 2.351,-2.35 -1.2,-1.2 -2.35,2.35 -21.7,-21.7 -7.851,0.95 z m -7.2,10.9 11,-1.1 2.151,-2.15 -11.1,1.2 z m 20.45,21.05 2.05,-2.05 1.301,-11.6 -2.15,2.15 z m -6.45,-7.55 1.2,-1.2 -1.799,-1.8 7.299,-7.3 -3.549,-3.55 -4.1,4.1 -0.851,7.95 z m -14.05,127.95 11.05,-1.15 2.151,-2.1 -11.151,1.2 z m 14.101,13.5 1.199,-1.2 -1.849,-1.85 7.299,-7.3 -3.549,-3.55 -4.1,4.1 -0.851,7.95 z m 19.25,-33.25 -1.15,1.15 1.599,1.6 -7.649,7.65 3.55,3.55 4.75,-4.75 0.7,-7.4 z m -7.65,3.95 1.2,-11.1 -2.05,2.05 -1.2,11.1 z m 8.599,12.7 12.101,-1.3 2.05,-2.05 -12.1,1.3 z m -10.449,10.5 -2.15,2.1 -1.151,11.55 2.051,-2.05 z m 15.25,0.1 -21.7,-21.7 -7.851,0.95 -2.3,2.35 0.901,0.9 2.099,-2.15 21.75,21.75 8.351,-0.9 2.35,-2.3 -1.25,-1.2 z m -70.7,-70.7 -21.7,-21.7 -7.85,0.95 -2.301,2.35 0.901,0.9 2.099,-2.15 21.7,21.7 8.351,-0.85 2.35,-2.3 -1.201,-1.2 z m -16.55,11.45 1.3,-11.55 -2.151,2.1 -1.2,11.5 z m -9.101,-8.5 7.3,-7.3 -3.55,-3.55 -4.099,4.1 -0.851,7.95 1.801,1.8 1.199,-1.2 z m -35.7,53.8 -12.099,1.35 -2.05,2.05 12.099,-1.35 z m 51.95,71.35 4.75,-4.75 0.701,-7.35 -1.8,-1.8 -1.151,1.1 1.601,1.6 -7.65,7.65 z m -4,-9.95 1.201,-11.15 -2.05,2.05 -1.2,11.15 z m 22.75,9.3 -12.099,1.35 -2.05,2.05 12.1,-1.35 z m -48.45,6.45 11.051,-1.15 2.1,-2.1 -11.1,1.2 z m 40.351,8.75 2.3,-2.35 -1.25,-1.2 -2.3,2.35 -21.7,-21.7 -7.85,0.9 -2.351,2.35 0.901,0.9 2.149,-2.15 21.75,21.75 z m -26.901,1.7 7.3,-7.25 -3.55,-3.55 -4.099,4.1 -0.851,7.9 1.851,1.85 1.2,-1.2 z m 9.151,8.6 1.2,-11.65 -2.101,2.1 -1.149,11.6 z m 161.5,-154.1 -1.25,-1.2 -2.351,2.35 -21.699,-21.7 -7.851,0.95 -2.299,2.3 0.9,0.9 2.1,-2.1 21.75,21.75 8.349,-0.9 z m -29.25,4.1 7.3,-7.3 -3.55,-3.55 -4.101,4.1 -0.849,7.95 1.849,1.85 1.2,-1.2 z m 9.149,8.55 1.25,-11.65 -2.149,2.15 -1.151,11.55 z"
       style="fill:#8c1d1b;fill-opacity:1;fill-rule:evenodd;stroke:none"
       transform="matrix(1.3333333,0,0,-1.3333333,1121.8672,1980.3997)" />
  </g>
  <g
     id="layer-MC2">
    <path
       id="path3"
       d="M 0,0 -35.351,-35.35 M 0.05,-106 -35.3,-70.65 M 0,-141.4 -35.351,-176.75 M 0,-282.8 -35.351,-318.15 M 0.05,-247.5 -35.3,-212.15 M 0,-388.9 -35.351,-353.55 M 0,-530.3 -35.351,-494.95 M 0.05,-424.2 -35.3,-459.55 m 0,-141.5 35.35,35.35 m -0.05,-106 -35.351,35.35 m 223.601,-82.2 -11.45,11.5 M 0.05,-813.1 -35.3,-777.75 M 0,-848.5 -35.351,-883.85 m 0,-141.4 L 0,-989.9 m 0,-106.1 -35.351,35.35 M 0.05,-954.6 -35.3,-919.2 m 35.35,-212.1 -35.35,-35.35 m 35.35,-106.1 -35.35,-35.35 m 35.3,70.7 -35.351,35.35 m 35.401,-176.75 -35.401,35.35 m 17.601,-158.95 -17.55,17.55 m 35.35,70.65 -35.401,-35.35 m -141.399,707.1 35.35,35.35 m 70.7,-35.3 -35.35,35.35 m -106.051,-35.4 -35.349,35.35 m 247.45,0 -35.351,-35.35 m 106.101,0.05 -35.351,35.35 m 106.051,-0.05 -35.35,-35.35 m -601.05,0 -35.35,35.35 m -35.35,0 -35.35,-35.35 m 247.45,0 -35.35,35.35 m -35.35,0.05 -35.35,-35.35 m 176.8,35.35 -35.35,-35.35 m 388.9,-565.7 -35.4,35.35 m 106.1,-106.05 -35.35,35.35 m 35.35,70.7 -35.35,-35.35 m 35.35,70.7 -35.4,35.35 m 35.4,-212.15 -35.35,-35.35 m 35.35,318.25 -35.35,-35.35 m 82.15,-200.7 -11.45,-11.45 m -106.05,35.3 -35.351,-35.35 m 35.351,-70.65 -35.351,35.35 m 35.351,-70.75 -17.5,-17.5 m 17.45,335.7 -35.35,35.35 m 35.4,-70.65 -35.351,-35.35 m 152.851,-46.85 -11.45,11.45 m 11.45,46.8 -11.45,-11.45 m 11.45,94.6 -11.45,11.45 m -35.35,318.2 -35.35,35.4 m 35.35,-176.8 -35.35,35.35 m 35.35,-70.7 -35.35,-35.35 m -0.05,141.4 35.349,35.35 m 0.051,-247.5 -35.35,35.35 m 82.15,-23.85 -11.45,-11.45 m 11.45,94.6 -11.45,11.45 m 11.45,46.8 -11.45,-11.45 m -106.05,-70.75 -35.351,35.35 m 35.351,-70.65 -35.351,-35.35 m -0.049,141.4 35.35,35.35 m 0,141.4 -35.35,-35.35 m 35.4,-70.7 -35.351,35.4 m 141.401,35.3 11.45,11.45 m 0,-58.25 -11.45,11.45 m -530.3,-318.15 -35.35,35.35 m 35.35,353.55 -35.35,-35.35 m 35.3,-212.15 -35.35,35.35 m 35.4,-70.75 -35.4,-35.35 m 35.35,212.15 -35.35,35.35 m 0.05,-106.1 35.35,35.35 m 0,-530.3 -35.35,35.35 m -0.05,35.4 35.35,35.35 m 0.05,35.3 -35.35,35.4 m 35.3,70.7 -35.35,-35.35 m 35.4,-247.45 -17.5,-17.55 m 229.649,229.65 -35.399,-35.35 m 106.05,0 -35.35,35.35 m -106.051,-35.35 -35.349,35.35 m -70.75,-35.35 35.35,35.35 m 212.15,-212.15 -17.5,-17.5 m 17.55,52.9 -35.4,35.35 m -35.35,0 -35.35,-35.35 m 17.55,-52.9 -17.55,17.5 m 35.35,106.1 -35.35,35.35 m 106.1,0 -35.4,-35.35 m -106.051,-70.75 -35.349,35.35 m 35.349,-70.65 -17.549,-17.55 m -71,0 -17.5,17.5 m 35.35,70.75 -35.35,-35.35 m 35.35,70.65 -35.35,35.35 m 106.049,0.05 -35.349,-35.35 m -35.35,141.4 -35.35,35.4 m 70.65,-35.4 35.399,35.35 m -70.699,70.7 -35.4,-35.35 m 106.099,0 -35.349,35.4 m 106.05,-106.1 -35.35,35.35 m 106.1,0 -35.35,-35.35 m -70.75,70.7 35.35,35.35 m 70.7,-35.35 -35.35,35.35 m -388.9,-35.35 -35.35,35.35 m 35.4,-176.75 -35.35,35.35 m 35.3,70.7 -35.35,-35.35 m 106.05,-35.35 -35.35,-35.35 m -176.8,0 -20.8,20.8 m 91.55,14.55 -35.35,-35.4 m 106.05,-35.3 -35.35,-35.4 m 35.35,-70.7 -35.35,35.4 m 106.1,35.3 -35.35,35.4 m -0.05,-106.1 35.35,35.4 m -17.85,-88.25 -17.5,17.5 m -52.85,-17.5 17.5,17.5 m -88.5,-17.5 -17.55,17.55 m 35.35,70.65 -35.35,-35.35 m -35.35,0.05 -20.85,20.85 m 20.85,85.15 -20.85,-20.85 m 91.55,-14.45 -35.35,35.35 m -56.2,120.5 20.85,20.9 m 70.7,-35.35 -35.35,35.35 m -35.35,35.35 -20.85,20.85 m 56.2,-20.85 35.35,35.35 m 141.45,-106.05 -35.35,35.35 m 35.3,70.7 -35.35,-35.35 m -35.35,388.9 -35.35,-35.35 m 35.35,-70.7 -35.35,35.35 m 35.35,-176.75 -35.35,35.35 m 0,-106.1 35.35,35.35 m 0.05,141.45 -35.4,-35.35 m 106.05,-141.4 -35.35,35.35 m 0,35.3 35.4,35.35 m -0.05,35.4 -35.35,35.35 m -106.05,-70.7 -35.35,-35.35 m -35.35,-0.05 -20.85,20.85 m 91.55,-91.55 -35.35,35.35 m -35.35,0.05 -20.85,-20.85 m 20.8,162.25 -20.8,-20.8 m 91.55,-14.55 -35.35,35.35 m 35.35,106.05 -35.35,35.35 m 35.35,-70.7 -35.4,-35.35 m -35.3,0 -20.85,20.85 m 20.85,85.2 -20.85,-20.85 m 20.85,56.25 -20.85,20.85 m 232.95,-91.6 -35.35,35.35 m 35.4,-70.7 -35.35,-35.35 m 388.85,-141.45 -35.35,35.4 m -35.35,0 -35.35,-35.35 m 70.7,-70.7 35.35,35.35 m -70.7,-35.4 -35.35,35.4 m 35.35,106.05 -35.35,35.35 m 106.05,0 -35.35,-35.35 m -106.051,-70.7 -35.349,35.35 m -35.35,-0.05 -35.35,-35.35 m 106.049,-35.35 -35.349,-35.35 m -35.35,0.05 -35.35,35.35 m 35.3,106.05 -35.35,35.35 m 106.099,0 -35.349,-35.35 m 0,141.4 35.349,35.35 m -70.749,-35.35 -35.35,35.35 m 106.05,-106.05 -35.35,35.35 m -70.65,-35.35 35.35,35.35 m 212.1,70.7 -35.35,-35.35 m -35.35,0 -35.35,35.35 m 106.1,-106.05 -35.35,35.35 m -35.4,0 -35.35,-35.35 m -35.351,565.7 -35.349,35.35 m -35.35,-0.05 -35.35,-35.35 m 176.75,35.4 -35.35,-35.35 m 106.05,-0.05 -35.35,35.35 m -530.3,-35.35 -20.85,20.85 m 91.55,14.55 -35.35,-35.35 m 106.05,0 -35.35,35.35 m 70.7,-35.4 35.35,35.35 m 70.7,247.5 L -388.9,0 m 35.35,-318.15 -35.35,35.35 m 0.05,35.3 35.35,35.35 m 0,-388.9 -35.35,35.35 m 35.3,70.75 -35.35,-35.35 m 35.4,70.75 -35.35,35.35 m 35.3,70.65 -35.35,-35.35 m 35.35,212.15 -35.35,35.35 m 35.4,70.75 -35.35,-35.35 m 35.3,-530.35 -35.35,-35.35 m 247.5,141.4 -35.35,35.35 m 106.1,0 -35.35,-35.35 m -106.15,35.35 -35.35,-35.35 m -35.3,0 -35.35,35.35 m 212.1,-176.8 35.35,35.35 m -70.7,-35.3 -35.35,35.35 m 35.35,70.7 -35.35,-35.35 m 106.05,0 -35.35,35.35 m -106.051,-70.7 -35.349,-35.35 m -35.35,-0.05 -35.35,35.35 m 35.3,70.75 -35.35,-35.35 m 106.099,0 -35.349,35.35 m 35.349,106.05 -35.349,35.35 m -35.4,0 -35.35,-35.35 m 35.4,70.75 -35.35,35.35 m 106.049,-0.05 -35.349,-35.35 m 176.75,-70.7 -35.35,35.35 m -35.35,0 -35.35,-35.35 m 35.35,70.7 -35.35,35.35 m 106.05,0.05 -35.35,-35.35 m -424.25,-0.05 35.35,35.35 m 0,-141.4 -35.35,-35.35 m 35.35,70.7 -35.35,35.35 m 106.1,-106.05 -35.35,35.35 m -106.15,-35.35 -35.35,35.35 m 106.1,-106.05 -35.35,35.35 m 35.35,-70.7 -35.35,-35.35 m 106.05,-0.05 -35.35,35.35 m 35.35,70.75 -35.35,-35.35 m -106.05,-70.7 -35.35,35.35 m -35.35,-0.05 -20.85,-20.85 m 20.8,56.25 -20.8,20.8 m 91.55,14.55 L -601,-601 m 0,141.4 35.35,35.35 m -91.55,-91.55 20.85,20.85 m -0.05,35.35 -20.8,20.8 m 20.85,85.3 -20.85,-20.85 m 91.55,-14.55 -35.35,35.35 m 176.75,-70.7 -35.35,-35.35 m 35.35,70.75 -35.35,35.35 m -70.7,388.9 19.7,19.7 M -494.95,-35.35 -530.3,0 m 35.35,-70.7 -35.35,-35.35 m 35.35,-70.7 -35.35,35.35 m 35.35,-70.7 -35.35,-35.35 m 106.1,106.05 -35.35,-35.35 m 35.3,-70.7 -35.35,35.35 m -176.8,0 -20.8,-20.8 m 91.55,-14.55 -35.35,35.35 m -35.35,35.35 -20.85,20.85 m 91.5,14.5 -35.35,-35.35 M -601,-35.35 -565.65,0 m 0,-106.05 -35.35,35.35 m -56.2,-20.8 20.8,20.8 M -424.25,35.35 -444,55.1 m 19.75,-161.15 -35.35,35.35 m 35.35,70.75 -35.35,-35.35 m 90.4,90.4 -19.7,-19.7 m 318.2,-247.5 -35.35,-35.35 m -35.35,0 -35.35,35.35 m 35.35,70.7 -35.35,-35.35 m 106.1,0 -35.35,35.35 m -176.85,-106.05 -35.35,35.35 m 106.099,0 -35.349,-35.35 m -70.7,70.7 35.35,35.35 m 70.65,-35.35 -35.35,35.35 M -212.101,-35.35 -247.45,0 m -35.35,0.05 -35.35,-35.35 m 70.7,-70.75 35.349,35.35 m -70.749,-35.35 -35.35,35.35 m 35.4,106.05 -19.75,19.75 m 74.8,0 -19.7,-19.7 M -70.7,-35.3 -106.05,0.05 m -70.7,-35.4 L -141.4,0 m 70.7,-70.7 -35.35,-35.35 m -35.35,0 -35.35,35.35 m 35.35,106.1 -19.701,19.7 M -106.05,35.35 -86.3,55.1 m 157.05,-373.3 -35.351,35.35 m 106.051,0.05 -35.35,-35.35 M 35.399,-530.3 70.75,-494.95 m 70.649,-35.35 -35.349,35.35 m 0.05,35.35 35.35,35.35 m 0,35.35 -35.35,35.35 m 35.35,-318.15 -35.35,35.35 m 35.35,70.7 L 106.1,-601 m 82.15,-59.25 -11.45,-11.45 m 11.45,94.6 -11.45,11.45 m 11.45,46.8 -11.45,-11.45 M 70.7,-601 35.35,-565.65 m 35.4,-70.75 -35.351,-35.35 M 70.75,-353.5 35.399,-388.85 M 70.7,-459.6 35.35,-424.25 m 152.9,-11.45 -11.45,11.45 m 0,35.35 11.45,11.45 m -46.8,130 -35.35,35.35 m 35.299,70.7 -35.349,-35.35 m 0.05,106.05 35.35,-35.35 m 46.8,-188.2 -11.45,11.45 m 11.45,46.8 -11.45,-11.45 m 0,106.05 11.45,-11.45 m -117.5,-23.9 -35.351,35.35 M 70.7,-212.1 35.35,-247.45 M 35.399,0.05 70.75,-35.3 M 70.7,-70.7 35.35,-106.05 M -19.7,55.1 0,35.4"
       style="fill:none;stroke:#8c1d1b;stroke-width:2;stroke-linecap:butt;stroke-linejoin:miter;stroke-miterlimit:3;stroke-dasharray:none;stroke-opacity:1"
       transform="matrix(1.3333333,0,0,-1.3333333,910.26693,103.86653)" />
  </g>
  <g
     id="layer-MC3">
    <path
       id="path4"
       d="m 0,0 c 29.7,3.833 50.767,1.784 63.2,-6.15 12.767,-13.5 20.434,-25.2 23,-35.1 1.067,-4.133 1.617,-9.15 1.651,-15.05 0.033,-3.567 -0.034,-9.617 -0.201,-18.15 0,-9.6 -1.65,-20.483 -4.95,-32.65 -3.366,-12.3 -8.083,-24.7 -14.149,-37.2 -13.7,-28.2 -30.667,-50.483 -50.901,-66.85 H -9.1 c -2.2,0.8 -7.4,2.317 -15.599,4.55 -7.867,2.1 -11.95,3.2 -12.25,3.3 h -33.45 c -7.467,-1.2 -12.384,-2.85 -14.75,-4.95 -0.167,-0.133 -0.967,-1.033 -2.401,-2.7 -0.967,-1.133 -2.116,-2.067 -3.45,-2.8 -8.267,-4.5 -38.05,-7.766 -89.35,-9.8 -5.933,-5.4 -19.95,-8.933 -42.049,-10.6 -13.567,-1 -38,-1.5 -73.301,-1.5 -15.633,0 -27.4,3.884 -35.3,11.65 -3.533,3.5 -6.566,8.717 -9.1,15.65 -6.633,-3 -12.783,-5.767 -18.45,-8.3 -11.133,-5.033 -19.516,-8.45 -25.15,-10.25 h -162.6 c -19.633,3.667 -34.216,11.317 -43.75,22.95 -7.367,9 -11.05,19.25 -11.05,30.75 0,5.9 5.384,19.817 16.15,41.75 10.767,20.8 16.15,31.35 16.15,31.65 0,0.133 -0.883,1.9 -2.65,5.3 -1.766,3.434 -2.65,5.417 -2.65,5.95 0,11.334 2.55,20.25 7.65,26.75 9.634,12.267 27.801,17.8 54.5,16.6 4.801,4.8 10.7,7.967 17.7,9.5 5.8,1.3 13.45,1.634 22.95,1 0.234,-0.033 9.95,-1 29.151,-2.9 5.537,-0.548 10.837,-0.982 15.899,-1.3 -2.745,-0.47 -4.128,-1.445 -4.149,-2.925 0.055,1.191 2.921,2.083 8.599,2.675 5.587,-0.3 10.87,-0.45 15.85,-0.45 -4.16,0.397 -7.743,0.681 -10.75,0.85 5.3,0.312 12.15,0.462 20.551,0.45 13.533,-0.033 37.732,-0.467 72.599,-1.3 1.234,0 2.484,-0.517 3.75,-1.55 0.401,-0.333 1.217,-1.133 2.45,-2.4 27.067,-0.067 43.75,-0.15 50.05,-0.25 9.067,-0.166 14.734,-0.55 17,-1.15 0.901,-0.233 2.401,-1.233 4.5,-3 2.334,-2 6.517,-4 12.55,-6 h 100.4 c 3.201,3 5.85,5.467 7.951,7.4 3.966,3.6 7.599,5.917 10.899,6.95 l 23.65,1.15 c 6.6,4.134 13.35,8.45 20.25,12.95 12,7.8 18.184,11.817 18.55,12.05 3.367,2.167 9.8,4.533 19.3,7.1 C -21.983,-3.583 -11.233,-1.466 0,0"
       style="fill:#12253c;fill-opacity:1;fill-rule:evenodd;stroke:none"
       transform="matrix(1.3333333,0,0,-1.3333333,921.46613,777.80013)"
       clip-path="url(#clipPath5)" />
  </g>
  <g
     id="layer-MC4">
    <path
       id="path6"
       d="m 0,0 v -33 l 17.2,13.75 V 3.8 l -4,3.3 -4.2,0 z M -48.8,7.1 -62.85,-4 V -59.5 H -57 l -12.399,-9.95 H -74.5 V 7.1 h -6.55 l -13,-10.55 v -86.4 l -15,-12 h -5.8 v 3.4 h 4.201 l 4.799,4 V 0 h -7.2 l 13.151,10.35 h 5.849 V 2.5 l 9,7.25 h 10.55 l 10.851,-8.6 10.849,8.6 h 9.75 L -31.6,0.55 V -58.8 h 6.701 L -38.05,-69.45 h -5.8 V 7.1 Z m -99.05,3.25 H -137 L -123.85,0 v -66.05 h 5.8 v -3.4 h -5.8 l -8.95,7.25 -9.3,-7.25 h -13 l -12.6,9.95 v 54 z M -155.1,-0.9 v -63.35 l 2.25,-1.8 h 5.951 l 9.899,7.85 v 62 l -4,3.3 h -4.2 z m -23.95,6.05 V -104.4 l -15.8,-12.6 h -6.35 v 2.75 h 5.75 l 3.25,2.6 v 46.8 l -5.9,-4.6 h -12.2 l -12.6,9.95 v 54.6 l 19.05,15.25 h 18.35 z M -201.2,7.1 -210.3,0 v -63.5 l 4,-3.3 h 4.2 l 10.65,8.6 V 4.55 l -3.4,2.55 z m -101.45,3.25 V -58.2 l 7.4,-6.05 h 4 l 7.6,6.05 V 4.55 l 16.45,13.2 h 6.5 v -3.4 h -6.5 l -5,-4 V -54.9 l -18.05,-14.55 h -6.55 l -14.85,11.8 -15.05,-11.8 h -7.15 L -352.3,-54.9 V 4.55 L -336.45,17 h 6.65 v -3.25 h -6.65 l -2.35,-2.05 v -70.5 l 6.35,-5.45 h 4.2 l 13.35,10.6 V 0 h -6.7 l 13.15,10.35 z m -61,-25 -31.25,-25 V -63.5 l 4,-3.3 h 4.2 l 9.9,8 v 16.3 l 12.4,10.05 V -54.9 l -18.3,-14.55 h -12.2 l -12.6,9.95 v 54 l 19.85,15.85 h 10.85 L -363.65,0 Z M -380.8,7.1 H -385 L -394,0 v -33 l 17.2,13.75 V 3.8 Z m -82.65,2.65 h 6.8 V 2.5 l 9.6,7.85 h 11.6 l 10.75,-8.6 V -59.5 h 7.45 l -12.25,-9.95 h -8.2 V 7.1 h -5.95 l -12.4,-9.95 V -87.8 l -16.4,-13.3 h -5.75 v 2.65 h 5.75 l 4,3.2 V 0 h -7.2 z M 72.4,-49.65 h 12.399 v -15.2 H 72.4 Z m -42.049,35 -31.25,-25 V -63.5 l 4,-3.3 H 7.3 l 9.9,8 v 16.3 l 12.401,10.05 V -54.9 L 11.3,-69.45 H -0.899 L -13.5,-59.5 v 54 L 6.351,10.35 H 17.2 L 30.351,0 Z M 116.7,-9.5 88.101,-32.45 h -5.75 v 2.55 l 21.399,17.3 v 71.2 l -10,8 H 76.601 L 67.3,59.15 v -19.8 h -13 V 54 l 19.85,15.7 h 23.6 L 116.7,54.55 Z"
       style="fill:#e6c97d;fill-opacity:1;fill-rule:evenodd;stroke:none"
       transform="matrix(1.3333333,0,0,-1.3333333,831.73307,898.4668)" />
    <path
       id="path7"
       d="M 389.55,861.3 H 376.4 v 15.2 h 13.15 z"
       style="fill:#12253c;fill-opacity:1;fill-rule:evenodd;stroke:none"
       transform="matrix(1.3333333,0,0,-1.3333333,0,2133.3333)" />
  </g>
  <g
     id="layer-MC5">
    <path
       id="path8"
       d="M 86.25,689 H 380.1 V 395.15 H 86.25 Z m 426.8,0 H 806.901 V 395.15 H 513.05 Z"
       style="fill:#12253c;fill-opacity:1;fill-rule:evenodd;stroke:#e6c97d;stroke-width:21.5;stroke-linecap:butt;stroke-linejoin:miter;stroke-miterlimit:3;stroke-dasharray:none;stroke-opacity:1"
       transform="matrix(1.3333333,0,0,-1.3333333,0,2133.3333)" />
  </g>
  <g
     id="layer-MC6">
    <path
       id="path9"
       d="M 0,0 V -54.75 L -19.05,-70 H -30.5 l -12.6,9.95 v 54 l 19.85,15.851 h 10.851 z M -20.05,6.551 -30.5,-2.05 v -62 l 3.25,-2.55 h 4.95 l 10.651,8.401 V 3.25 l -4,3.301 z m -435.8,-21.75 -31.25,-25 V -64.05 l 4,-3.3 h 4.201 l 9.899,8 v 16.3 L -456.6,-33 V -55.449 L -474.899,-70 H -487.1 l -12.6,9.95 v 54 l 19.85,15.851 H -469 L -455.85,-0.55 Z M -469,3.25 l -4,3.301 h -4.2 l -9,-7.101 v -33 L -469,-19.8 Z M -427.899,6.551 -431,4 v -22.649 l 12.101,-9.75 v -76 l -13,-10.401 H -443.6 l -6.45,5.151 v 4.7 h 4 v -4.7 l 3.401,-2.55 h 6.549 l 5.1,4 v 77.149 l -13.5,10.45 V -0.55 L -431,9.801 h 11.3 l 6.65,-5.2 V -2.6 l -5.849,-4.599 V 4 L -422,6.551 Z M -556.45,9.2 h 7.6 v -73.25 l 4.05,-3.3 h 4.95 l 9.951,8 v 58.8 h -8.401 l 12.401,9.75 h 8.25 v -115.45 l -14,-11.3 h -7.601 v 2.75 h 5.75 l 3.601,2.601 v 46.8 L -535.85,-70 h -13 l -12.549,9.95 v 59.5 h -7.451 z M -91.649,-3.399 V -88.35 l -16.401,-13.299 h -5.75 V -99 h 5.75 l 4,3.2 v 95.25 h -7.2 l 12.2,9.75 h 6.8 V 1.95 l 9.601,7.851 H -71.05 L -60.3,1.2 v -61.25 h 7.45 L -65.1,-70 h -8.2 V 6.551 h -5.95 z"
       style="fill:#e6c97d;fill-opacity:1;fill-rule:evenodd;stroke:none"
       transform="matrix(1.3333333,0,0,-1.3333333,952.46613,1347.8672)" />
  </g>
</svg>
