<svg xmlns="http://www.w3.org/2000/svg" viewBox="0 0 70 100"><defs><clipPath id="a"><path d="M-69 110H9V-1h-78z"/></clipPath><clipPath id="b"><path d="M-69 110H9V-1h-78z"/></clipPath><clipPath id="c"><path d="M-53 97h78V-14h-78z"/></clipPath><clipPath id="d"><path d="M-19 91h78V-20h-78z"/></clipPath><clipPath id="e"><path d="M-53 97h78V-14h-78z"/></clipPath></defs><path fill="#354767" fill-rule="evenodd" d="M62 99H8l-7-7V8l6-6 1-1h54l7 7v84z"/><path fill="none" stroke="#4b678e" stroke-linecap="round" stroke-linejoin="round" stroke-miterlimit="3" stroke-width="2" d="M0 0h-61l-8 8v93l8 7" clip-path="url(#a)" transform="matrix(.89 0 0 -.89 62 99)"/><path fill="none" stroke="#252e3b" stroke-linecap="round" stroke-linejoin="round" stroke-miterlimit="3" stroke-width="2" d="m0 0 8 8v93l-8 7h-61" clip-path="url(#b)" transform="matrix(.89 0 0 -.89 62 99)"/><path fill="#222b35" fill-rule="evenodd" d="M0 0h-38l-1 2 5 5h31l5-5zm7 6L5 5H4L0 9l4 25 5 5h1l1-1zm-38 45-6-5v1l4 33h1l4-4zm1-5H4l2-2 1-2-4-3h-33l-3 3v1zm-6-36-6-5-1 1 5 33h1l4-5zm50 71h1l1-2-4-32-1-1H9l-3 4 3 25zm-8-2h-31l-5 4 2 2h38l1-1h1z" clip-path="url(#c)" transform="matrix(.89 0 0 -.89 47 87)"/><path fill="none" stroke="#2d2c2c" stroke-linecap="round" stroke-linejoin="round" stroke-miterlimit="3" d="m0 0-6-5 1-2h39m9 40-6-5-3-25 4-4h1v0l2 1M-5 33-9 0v-1h1l6 5m6 36-3-2v-1l2-3h33l4 3M0 75l-4-33v-1q0-1 0 0l6 5m3 34-1-1 4-5h31m8 2-5-5-3-25 3-5h2l1 2" clip-path="url(#d)" transform="matrix(.89 0 0 -.89 17 81)"/><path fill="none" stroke="#000" stroke-linecap="round" stroke-linejoin="round" stroke-miterlimit="3" d="m0 0 2 2-5 5h-31M7 6l4 32-1 2H9m-45-30 3 25-4 5h-1m45 2v2l-2 2h-34m-2 5 3 25-4 5h-1m39-2 5 5v1l-1 1q0 0 0 0h-38m40-38 4 32-1 2h-1" clip-path="url(#e)" transform="matrix(.89 0 0 -.89 47 87)"/></svg>