<?xml version="1.0" encoding="UTF-8" standalone="no"?>
<!-- Created with Inkscape (http://www.inkscape.org/) -->

<svg
   version="1.1"
   id="svg1"
   width="1200"
   height="2133.3333"
   viewBox="0 0 1200 2133.3333"
   xmlns="http://www.w3.org/2000/svg"
   xmlns:svg="http://www.w3.org/2000/svg">
  <defs
     id="defs1">
    <clipPath
       clipPathUnits="userSpaceOnUse"
       id="clipPath5">
      <path
         d="M 0,1600 H 900 V 0 H 0 Z"
         transform="translate(-371.00001,-461.45021)"
         id="path5" />
    </clipPath>
    <clipPath
       clipPathUnits="userSpaceOnUse"
       id="clipPath10">
      <path
         d="M 0,1600 H 900 V 0 H 0 Z"
         transform="translate(-738.09962,-1436.75)"
         id="path10" />
    </clipPath>
    <clipPath
       clipPathUnits="userSpaceOnUse"
       id="clipPath12">
      <path
         d="M 0,1600 H 900 V 0 H 0 Z"
         transform="translate(-738.09962,-1436.75)"
         id="path12" />
    </clipPath>
    <clipPath
       clipPathUnits="userSpaceOnUse"
       id="clipPath14">
      <path
         d="M 0,1600 H 900 V 0 H 0 Z"
         transform="translate(-745.95022,-1510.8999)"
         id="path14" />
    </clipPath>
  </defs>
  <g
     id="layer-MC0">
    <path
       id="path1"
       d="M 0,0 H 900 V 1600 H 0 Z"
       style="fill:#12253c;fill-opacity:1;fill-rule:nonzero;stroke:none"
       transform="matrix(1.3333333,0,0,-1.3333333,0,2133.3333)" />
  </g>
  <g
     id="layer-MC1">
    <path
       id="path2"
       d="m 0,0 -1.199,11.101 2.05,-2.05 1.2,-11.101 z m 9.5,21.75 12.051,-1.3 2.05,-2.05 -12.05,1.3 z M 4.9,19.051 9.601,14.301 10.351,6.95 8.5,5.15 7.351,6.25 8.95,7.851 1.351,15.5 Z m -19.45,-6.351 21.7,21.75 8.35,-0.849 2.351,-2.3 -1.201,-1.2 -2.349,2.299 -21.7,-21.75 -7.901,0.951 -2.3,2.349 0.951,0.901 z m -10.25,12.151 11,-1.151 2.151,-2.099 -11.101,1.2 z M -9.55,37.15 -11.399,35.301 -4.1,28 l -3.549,-3.55 -4.101,4.101 -0.85,7.949 1.85,1.851 z m 7.3,6.701 L -0.949,32.25 -3.1,34.351 -4.3,45.9 Z m -63.55,-95.5 4.7,-4.75 0.701,-7.351 -1.8,-1.85 -1.151,1.1 1.6,1.65 -7.6,7.651 z m -4.05,-10 1.201,-11.101 -2.05,2.051 -1.2,11.099 z m 22.75,9.349 -12.099,1.3 -2.051,2.051 12.101,-1.301 z m -35.25,3.2 -11.099,1.201 -2.051,2.049 11,-1.15 z m 7.35,24.25 2.051,-2.049 1.25,-11.55 -2.151,2.099 z m -7.1,-10.549 7.3,-7.3 -3.55,-3.551 -4.099,4.101 -0.851,7.95 1.851,1.8 1.199,-1.201 z m 26.901,-1.75 2.349,-2.3 -1.2,-1.2 -2.349,2.299 -21.75,-21.7 -7.851,0.95 -2.3,2.35 0.95,0.9 2.1,-2.15 21.7,21.7 z m -85.351,46.25 1.2,-11.101 -2.049,2.051 -1.201,11.099 z m 22.75,9.299 -12.099,1.35 -2.05,2.051 12.099,-1.351 z m -18.75,0.651 4.75,-4.75 0.7,-7.351 -1.799,-1.849 -1.151,1.099 1.601,1.651 -7.651,7.649 z m -15.599,19.25 1.2,-1.2 -1.851,-1.8 7.3,-7.25 -3.55,-3.551 -4.099,4.101 L -154,36.5 Z m 8.5,5.55 1.2,-11.601 -2.101,2.101 -1.149,11.549 z m -14.451,-29 2.151,-2.101 21.699,21.7 8.351,-0.849 2.299,-2.351 -1.2,-1.199 -2.3,2.349 -21.75,-21.7 -7.849,0.901 -2.351,2.349 z m -8.15,10 11.051,-1.151 2.099,-2.099 -11.099,1.2 z M -82.1,106 l 7.3,-7.25 -3.55,-3.55 -4.099,4.101 -0.851,7.899 1.851,1.851 1.199,-1.2 z M -82.399,92.301 -93.5,93.5 -95.55,95.551 -84.5,94.4 Z m 12.549,-12.5 1.201,-11.101 -2.05,2.05 -1.2,11.101 z m 14.651,24.55 2.3,-2.351 -1.201,-1.199 -2.299,2.349 -21.701,-21.75 -7.9,0.901 -2.35,2.349 0.951,0.901 2.149,-2.101 21.7,21.75 z M -65.85,89.75 -61.1,85 l 0.75,-7.35 -1.849,-1.799 -1.151,1.099 1.6,1.601 -7.649,7.649 z m 18.75,-0.649 -12.049,1.349 -2.05,2.05 12.05,-1.35 z m -25.849,25.5 1.25,-11.651 -2.101,2.101 -1.2,11.599 z m -68.45,26.849 -1.201,11.101 2.05,-2.051 1.2,-11.1 z m 10.349,6.901 -1.849,-1.8 -1.151,1.149 1.601,1.601 -7.651,7.599 3.55,3.55 4.75,-4.75 z m -35.2,17.899 11.051,-1.1 2.099,-2.15 -11.099,1.2 z m 41.45,5.25 -2.3,2.351 -21.7,-21.75 -7.899,0.95 -2.351,2.3 0.95,0.899 2.151,-2.1 21.699,21.75 8.351,-0.849 2.299,-2.351 z m -7.099,-8.3 12.049,-1.3 2.05,-2.099 -12.05,1.349 z m -13.601,6.25 -3.55,-3.55 -4.099,4.1 -0.851,7.95 1.851,1.851 1.2,-1.2 -1.851,-1.851 z m 1.851,15.851 1.25,-11.651 -2.101,2.151 -1.199,11.55 z m -22.601,122.349 11.051,-1.099 2.099,-2.151 -11.099,1.201 z m 25.65,-15.75 1.201,-11.099 -2.05,2.05 -1.2,11.099 z m 8.651,12.75 12.099,-1.349 2.05,-2.051 -12.099,1.351 z m 0.849,-14.849 -1.849,-1.851 -1.101,1.151 1.651,1.599 -7.651,7.601 3.5,3.55 4.75,-4.701 z m 62.451,-79.7 -2.05,2.049 -1.2,11.1 2.049,-2.05 z m 2.799,21.049 4.75,-4.75 0.75,-7.299 -1.849,-1.851 -1.151,1.15 1.651,1.6 -7.651,7.601 z m 4.651,2.8 12.05,-1.349 2.049,-2.101 -12.049,1.4 z m -24.75,-10.2 -2.351,2.301 0.901,0.949 2.149,-2.1 21.7,21.701 8.351,-0.851 2.3,-2.35 -1.201,-1.2 -2.299,2.351 -21.701,-21.7 z m -9.601,13.2 11.05,-1.099 2.101,-2.151 -11.101,1.2 z m 13.45,10.5 7.3,-7.3 -3.5,-3.549 -4.099,4.099 -0.901,7.95 1.851,1.85 1.199,-1.199 z m 7.1,10.601 2.051,-2.051 1.25,-11.6 -2.101,2.151 z m 83.5,-111.5 -1.149,1.099 1.649,1.6 -7.649,7.65 3.5,3.55 4.75,-4.75 0.75,-7.3 z m -9.699,6 2.05,-2.051 1.2,-11.1 L 0,141.45 Z M -7.6,165.9 l -4.099,4.1 -0.901,7.9 1.85,1.85 1.2,-1.199 -1.849,-1.851 7.299,-7.25 z m -17.25,0.35 11.05,-1.149 2.101,-2.101 -11.101,1.2 z m 22.6,19.051 1.25,-11.601 -2.1,2.101 -1.2,11.55 z m 16.551,-11.45 -21.7,-21.701 -7.851,0.85 -2.35,2.351 0.901,0.95 2.149,-2.101 21.7,21.7 8.35,-0.849 2.301,-2.351 -1.2,-1.2 z M 9.5,163.25 l 12.051,-1.399 2.05,-2.05 -12.05,1.399 z m -23.3,143.301 2.101,-2.151 -11.101,1.201 -2.05,2.049 z M 0.851,291.9 2.051,280.801 0,282.851 -1.199,293.95 Z M 9.5,304.65 21.601,303.301 23.65,301.2 11.551,302.601 Z M 10.351,289.801 8.5,287.95 7.351,289.101 9,290.75 l -7.649,7.601 3.5,3.5 4.75,-4.75 z m 7.45,24.3 -1.2,-1.201 -2.3,2.35 -21.7,-21.699 -7.851,0.899 -2.35,2.3 0.901,0.95 2.149,-2.099 21.7,21.7 8.35,-0.851 z M -2.25,326.7 -1,315.101 l -2.1,2.149 -1.2,11.5 z m -9.149,-8.55 7.299,-7.299 -3.5,-3.5 -4.099,4.099 -0.901,7.901 1.85,1.849 1.2,-1.2 z M 23.65,442.65 11.5,444 9.45,446.051 21.601,444.7 Z m -40.349,-3.549 2.099,-2.101 21.701,21.7 8.349,-0.849 2.351,-2.351 -1.2,-1.199 -2.351,2.349 -21.699,-21.7 -7.801,0.95 -2.35,2.3 z m -8.101,9.95 11.05,-1.101 2.101,-2.149 L -22.75,447 Z M 4.9,443.25 9.65,438.551 10.301,431.2 8.45,429.351 7.351,430.5 9,432.15 1.351,439.75 Z M 0.851,433.301 2.051,422.2 0,424.25 -1.199,435.351 Z m -12.201,26.25 7.25,-7.301 -3.549,-3.5 -4.101,4.101 -0.8,7.899 1.8,1.851 1.2,-1.201 z m 9.05,8.55 1.3,-11.601 -2.1,2.15 -1.25,11.5 z m -93.25,-89.75 11.05,-1.101 2.101,-2.149 -11.101,1.2 z m 13.45,10.5 7.25,-7.3 -3.5,-3.5 -4.099,4.099 -0.851,7.901 1.851,1.849 1.199,-1.2 z m 19.85,-30.201 -1.1,1.151 1.651,1.649 -7.651,7.601 3.5,3.5 4.75,-4.7 0.701,-7.351 z m -7.649,3.951 1.2,-11.101 -2.051,2.051 -1.199,11.099 z m 8.649,12.75 12.15,-1.351 2.05,-2.05 -12.149,1.351 z m 7.15,8.25 -2.349,2.349 -21.7,-21.7 -7.8,0.9 -2.351,2.3 0.901,0.95 2.099,-2.099 21.7,21.699 8.35,-0.85 2.351,-2.349 z m -17.599,2.2 -2.101,2.149 -1.25,11.5 2.05,-2.05 z m -51.901,-71.7 -1.2,-1.201 -2.349,2.35 -21.701,-21.699 -7.799,0.899 -2.351,2.3 0.9,0.95 2.1,-2.099 21.7,21.7 8.351,-0.851 z m -22.15,14.649 2.051,-2.05 1.3,-11.599 -2.101,2.149 z m -7.05,-10.6 7.25,-7.299 -3.5,-3.55 -4.099,4.099 -0.851,7.951 1.851,1.849 1.2,-1.2 z m 12.2,115.151 1.201,-11.101 -2.05,2.05 -1.2,11.101 z m 4.05,10 4.7,-4.75 0.75,-7.351 -1.849,-1.849 -1.151,1.149 1.651,1.65 -7.601,7.651 z m 18.75,-0.651 -12.099,1.35 -2.05,2.051 12.099,-1.351 z m -48.45,6.451 11,-1.151 2.15,-2.099 -11.099,1.2 z m 40.301,8.75 2.349,-2.3 -1.2,-1.2 -2.349,2.299 -21.701,-21.7 -7.849,0.901 -2.301,2.349 0.9,0.95 2.1,-2.15 21.7,21.7 z M -151,461.4 l -1.85,-1.849 7.3,-7.301 -3.5,-3.5 -4.099,4.101 -0.901,7.899 1.851,1.851 z m 7.301,6.701 1.3,-11.55 -2.151,2.099 -1.2,11.5 z m 73,26.849 -1.2,11.101 2.049,-2.051 1.201,-11.1 z m 9.449,21.8 12.101,-1.35 2.049,-2.049 -12.099,1.349 z m -4.55,-2.75 4.7,-4.75 0.701,-7.35 -1.851,-1.849 -1.149,1.149 1.649,1.651 -7.6,7.649 z m -9.25,26.851 2.05,-2.05 1.301,-11.551 -2.151,2.101 z M -85.3,507.7 l 21.7,21.7 8.35,-0.849 2.351,-2.301 -1.201,-1.199 -2.349,2.3 -21.7,-21.701 -7.851,0.951 -2.3,2.349 0.901,0.901 z m -10.2,12.101 11,-1.151 2.15,-2.099 -11.099,1.199 z m 14,13.5 1.2,-1.2 -1.8,-1.851 7.3,-7.3 -3.55,-3.5 -4.099,4.101 -0.851,7.899 z m -73.699,56.05 2.149,-2.101 -11.099,1.2 -2.05,2.05 z m 13.8,-23.701 -1.201,11.1 2.05,-2.05 1.2,-11.099 z m 4.899,19.05 4.7,-4.75 0.7,-7.349 -1.849,-1.851 -1.151,1.15 1.651,1.651 -7.601,7.649 z m -17.5,17.45 1.801,1.85 1.199,-1.199 -1.8,-1.851 7.3,-7.3 -3.55,-3.5 -4.099,4.1 z m 26.851,-4.099 -21.701,-21.7 -7.849,0.95 -2.301,2.349 0.9,0.901 2.1,-2.151 21.7,21.701 8.351,-0.851 2.349,-2.3 -1.2,-1.2 z m -4.8,-10.601 12.099,-1.349 2.05,-2.05 -12.099,1.349 z m -11.75,22.05 1.3,-11.55 -2.151,2.101 -1.2,11.5 z m 73.849,35.95 1.201,-11.099 -2.05,2.049 -1.2,11.1 z m 9.451,-2.149 -1.8,-1.851 -1.151,1.151 1.6,1.649 -7.6,7.65 3.55,3.55 4.7,-4.75 z m -19.851,30.199 -1.85,-1.8 7.3,-7.3 -3.55,-3.549 -4.099,4.099 -0.851,7.95 1.851,1.8 z m -15.25,-12.25 11,-1.149 2.15,-2.101 -11.099,1.2 z m 23.801,7.4 -2.151,2.1 -1.15,11.5 2.051,-2.05 z m 16.5,1.3 2.349,-2.3 -1.2,-1.2 -2.349,2.3 -21.75,-21.699 L -86,648 l -2.3,2.351 0.901,0.899 2.099,-2.149 21.75,21.7 z m -6.051,-11.8 12.101,-1.299 2.049,-2.05 -12.099,1.3 z M 2.051,563.65 0,565.7 l -1.199,11.101 2.05,-2.051 z m -26.851,26.901 11,-1.151 2.151,-2.099 -11.101,1.199 z m 15.25,12.25 -1.849,-1.801 7.299,-7.3 -3.549,-3.55 -4.101,4.1 -0.85,7.95 1.85,1.8 z M 8.5,570.75 7.351,571.9 8.95,573.551 1.351,581.2 4.9,584.75 9.601,580 l 0.7,-7.399 z m 5.801,27.301 -21.75,-21.7 -7.851,0.95 -2.3,2.349 0.901,0.901 2.099,-2.151 21.75,21.701 8.35,-0.851 2.351,-2.3 -1.201,-1.2 z M 9.45,587.45 l 12.101,-1.3 2.05,-2.049 L 11.5,585.4 Z m -11.7,22.05 1.25,-11.55 -2.149,2.101 -1.151,11.5 z m -353.55,-494.949 1.25,-11.601 -2.099,2.151 -1.201,11.5 z m 120.901,-162.5 -2.05,2.05 11.05,-1.151 2.099,-2.099 z m 27.649,-3.75 4.75,-4.75 0.7,-7.301 -1.8,-1.85 -1.15,1.1 1.601,1.65 -7.651,7.651 z m -4,-9.95 1.2,-11.101 -2.05,2.051 -1.2,11.099 z m 8.601,12.75 12.099,-1.401 2.05,-2.05 -12.1,1.401 z m 6,11.799 2.299,-2.349 -1.2,-1.2 -2.3,2.349 -21.7,-21.7 -7.849,0.9 -2.351,2.35 0.9,0.9 2.151,-2.099 21.75,21.699 z m -19.75,12.3 2.049,-2.05 1.201,-11.599 -2.101,2.099 z m -5.25,-8.8 -1.851,-1.849 7.301,-7.25 -3.551,-3.5 -4.1,4.099 -0.849,7.85 1.849,1.851 z m -129.8,-39.15 -1.2,11.101 2.049,-2.05 1.201,-11.101 z m 4.849,19 4.75,-4.75 0.701,-7.3 -1.851,-1.849 -1.149,1.099 1.649,1.601 -7.649,7.649 z m 18.75,-0.649 -12.099,1.399 -2.051,2.051 12.101,-1.401 z m -25.9,25.5 1.25,-11.601 -2.1,2.15 -1.2,11.5 z M -282.8,0 l -1.2,11.101 2.051,-2.05 1.199,-11.101 z m 4.851,19 4.75,-4.75 0.699,-7.3 -1.8,-1.849 -1.149,1.149 1.599,1.65 -7.65,7.6 z m -29.7,5.801 11.049,-1.101 2.1,-2.149 -11.1,1.199 z m 15.299,12.349 -1.849,-1.849 7.3,-7.301 -3.55,-3.5 -4.101,4.101 -0.849,7.899 1.849,1.851 z m 7.3,6.701 1.2,-11.601 -2.099,2.15 -1.151,11.5 z m -69.7,37.95 2.051,-2.051 1.199,-11.1 -2.05,2.05 z m 6.101,7.899 4.75,-4.7 0.649,-7.35 -1.8,-1.849 -1.099,1.149 1.599,1.651 -7.649,7.599 z m 18.75,-0.599 -12.151,1.349 -2.05,2.05 12.151,-1.35 z m 63.649,-59.05 -2.3,2.349 -21.7,-21.7 -7.85,0.95 -2.349,2.3 0.899,0.901 2.151,-2.101 21.75,21.7 8.299,-0.849 2.3,-2.351 z m 7.051,-11.7 -12.101,1.399 -2.05,2.051 12.1,-1.351 z m 49.149,50.349 -2.05,2.05 -1.2,11.101 2.05,-2.05 z m -13.75,23.601 -11.099,1.199 -2.05,2.051 11.05,-1.101 z m -0.899,14.949 1.849,1.801 1.201,-1.2 -1.851,-1.8 7.301,-7.301 -3.551,-3.55 -4.1,4.101 z m 17.449,-17.5 4.75,-4.75 0.7,-7.35 -1.8,-1.849 -1.15,1.149 1.601,1.651 -7.651,7.599 z m 9.45,13.351 -21.75,-21.701 -7.849,0.951 -2.351,2.299 0.95,0.901 2.151,-2.101 21.7,21.7 8.349,-0.849 2.3,-2.351 -1.2,-1.2 z m -4.849,-10.601 12.099,-1.3 2.05,-2.099 -12.1,1.349 z M -369.1,-58.85 l 0.901,0.951 2.149,-2.101 21.7,21.7 8.35,-0.849 2.301,-2.351 -1.2,-1.199 -2.3,2.349 -21.7,-21.7 -7.851,0.901 z m -7.2,10.901 11.05,-1.101 2.101,-2.149 L -374.25,-50 Z M -421.35,7 l 1.201,-11.1 -2.051,2.05 -1.199,11.101 z m 59.1,-41.399 1.2,-1.25 -1.8,-1.851 7.3,-7.25 -3.55,-3.55 -4.099,4.101 -0.851,7.949 z m -130.7,-38.351 -1.199,11.101 2.049,-2.05 1.201,-11.101 z m -16.65,14.851 2.1,-2.101 21.7,21.7 8.35,-0.849 2.35,-2.351 -1.2,-1.199 -2.349,2.349 -21.701,-21.75 -7.799,0.951 -2.351,2.299 z m -8.15,9.95 11.05,-1.101 2.1,-2.149 -11.1,1.199 z m 34.3,-3 12.1,-1.351 2.05,-2.05 -12.099,1.35 z m 0.15,-7.5 0.7,-7.401 -1.85,-1.799 -1.1,1.149 1.651,1.601 -7.651,7.599 3.5,3.55 z m -11.9,29.55 1.301,-11.601 -2.101,2.15 -1.25,11.5 z m -8.449,-5.5 1.199,-1.201 -1.85,-1.849 7.25,-7.301 -3.5,-3.55 -4.099,4.101 -0.851,7.949 z m 11.599,112.099 1.2,-11.099 -2.049,2.049 -1.201,11.1 z m 6.45,-2.8 1.65,1.6 -7.6,7.65 3.55,3.55 4.75,-4.75 0.65,-7.349 -1.85,-1.851 z m -32.1,18.6 11,-1.149 2.15,-2.101 -11.099,1.2 z m 13.4,10.45 7.3,-7.3 -3.55,-3.549 -4.099,4.099 -0.851,7.95 1.8,1.85 1.2,-1.199 z m 28,-5.2 -2.349,2.301 -21.701,-21.7 -7.85,0.899 -2.3,2.351 0.9,0.95 2.1,-2.151 21.7,21.701 8.35,-0.851 2.35,-2.3 z m 7.05,-11.699 -12.149,1.349 -2.051,2.05 12.1,-1.349 z m 56.7,-74.801 0.651,-7.35 -1.851,-1.849 -1.1,1.149 1.65,1.601 -7.65,7.599 3.55,3.55 z m -0.2,7.5 12.15,-1.35 2.05,-2.049 -12.15,1.349 z m 8.351,9.45 -1.201,-1.2 -2.35,2.351 -21.699,-21.701 -7.801,0.901 -2.35,2.3 0.901,0.95 2.099,-2.101 21.7,21.7 8.35,-0.849 z m -29.151,4.05 7.25,-7.3 -3.55,-3.55 -4.1,4.1 -0.8,7.95 1.8,1.851 1.2,-1.2 z m -0.3,-13.75 -11.1,1.2 -2.05,2.05 11.05,-1.1 z m 9.35,22.301 1.3,-11.601 -2.1,2.151 -1.25,11.5 z m 55.7,40.55 -2.349,2.299 0.899,0.901 2.101,-2.101 21.75,21.7 8.299,-0.849 2.35,-2.351 -1.199,-1.2 -2.351,2.351 L -361,81.4 Z m 3.601,9.899 -11.101,1.2 -2.05,2.05 11.05,-1.1 z m 0.949,16.801 1.2,-1.2 -1.849,-1.851 7.25,-7.3 -3.55,-3.5 -4.101,4.101 -0.8,7.899 z m -57.95,30.3 -2.05,2.049 -1.2,11.1 2.051,-2.05 z m 8.25,9 -1.8,-1.851 -1.149,1.15 1.599,1.651 -7.599,7.649 3.549,3.5 4.701,-4.75 z m -0.85,14.849 12.1,-1.349 2.051,-2.05 -12.101,1.349 z m -21.2,6.8 -0.85,7.9 1.85,1.85 1.2,-1.199 -1.849,-1.851 7.299,-7.3 -3.549,-3.5 z m 9.5,15.25 1.25,-11.55 -2.149,2.101 -1.151,11.5 z m -14.45,-28.949 2.1,-2.151 21.75,21.701 8.3,-0.851 2.35,-2.3 -1.199,-1.2 -2.351,2.301 -21.7,-21.7 -7.85,0.95 -2.3,2.349 z m -54.25,-43.801 1.301,-11.55 -2.151,2.101 -1.2,11.5 z m 46.15,53.75 11,-1.149 2.151,-2.101 -11.101,1.2 z m -57.55,67.45 -11.1,1.2 -2.05,2.05 11,-1.149 z m 11.65,-21.599 -1.199,11.099 2.049,-2.05 1.201,-11.099 z m 4.9,19.049 4.7,-4.75 0.701,-7.349 -1.801,-1.851 -1.15,1.151 1.6,1.649 -7.6,7.65 z m 4.55,2.75 12.101,-1.349 2.049,-2.051 -12.1,1.351 z m -22.05,14.701 1.85,1.849 1.2,-1.2 -1.85,-1.85 7.3,-7.299 -3.55,-3.5 -4.1,4.099 z m 26.85,-4.101 -21.699,-21.699 -7.851,0.949 -2.3,2.351 0.901,0.899 2.099,-2.149 21.75,21.7 8.3,-0.851 2.351,-2.3 -1.201,-1.2 z m -17.4,2 -1.15,11.5 2.05,-2.05 1.25,-11.55 z m 60.05,60.051 2.151,-2.101 -11.101,1.2 -2.05,2.05 z m 70.7,-70.7 2.151,-2.101 -11.101,1.2 -2.05,2.05 z m 1.201,12.799 1.849,1.8 1.2,-1.2 -1.849,-1.8 7.3,-7.3 -3.55,-3.549 -4.101,4.099 z m -57.25,43.25 1.199,-11.099 -2.05,2.05 -1.2,11.099 z m 8.599,12.701 12.1,-1.3 2.051,-2.051 -12.101,1.301 z m -0.5,-13.901 -7.599,7.651 3.549,3.549 4.701,-4.75 0.699,-7.4 -1.8,-1.85 -1.149,1.151 z m 200.95,-176.149 1.201,-11.601 -2.101,2.151 -1.149,11.5 z m -59.049,48.649 12.149,-1.3 2.051,-2.049 -12.151,1.299 z m -4.55,-2.75 4.75,-4.7 0.649,-7.399 -1.8,-1.851 -1.099,1.15 1.599,1.651 -7.65,7.599 z m -19.45,-6.3 21.7,21.701 8.349,-0.851 2.35,-2.35 -1.199,-1.2 -2.351,2.351 -21.75,-21.7 -7.8,0.95 -2.349,2.3 0.949,0.899 z m 14.549,-12.7 -1.2,11.101 2.05,-2.051 1.2,-11.1 z m -7.65,24.45 -4.1,4.1 -0.799,7.95 1.849,1.8 1.2,-1.199 -1.849,-1.801 7.25,-7.3 z m -6.1,-0.75 2.1,-2.15 -11.1,1.2 -2.049,2.05 z m 11.5,20.1 1.25,-11.6 -2.099,2.151 -1.2,11.5 z m -66.4,24.851 -2.05,2.049 -1.2,11.1 2.051,-2.05 z m 2.851,21.099 4.7,-4.75 0.699,-7.399 -1.8,-1.851 -1.149,1.151 1.599,1.649 -7.599,7.65 z m 4.549,2.7 12.1,-1.299 2.051,-2.05 -12.101,1.3 z m -10.45,10.5 -2.149,2.1 -1.151,11.5 2.05,-2.05 z m 15.3,0.1 -21.75,-21.699 -7.85,0.949 -2.299,2.351 0.95,0.899 2.099,-2.149 21.701,21.7 8.349,-0.851 2.351,-2.3 -1.2,-1.2 z m 42.601,62.051 2.149,-2.101 -11.1,1.2 -2.049,2.05 z M -282,291.9 l 1.2,-11.099 -2.05,2.05 -1.2,11.099 z m 58.2,-58.2 -11.099,1.2 -2.05,2.05 11.05,-1.099 z m 11.651,-21.55 -1.201,11.1 2.05,-2.05 1.2,-11.099 z m 4.899,19 4.75,-4.7 0.7,-7.399 -1.849,-1.801 -1.101,1.15 1.601,1.6 -7.651,7.601 z m 4.601,2.75 12.099,-1.299 2.05,-2.05 -12.1,1.3 z m -22.05,14.75 1.849,1.85 1.201,-1.199 -1.851,-1.851 7.25,-7.3 -3.55,-3.549 -4.099,4.099 z m 11.599,-4.299 -2.099,2.149 -1.25,11.551 2.05,-2.051 z m 16.451,1.399 2.349,-2.35 -1.2,-1.2 -2.35,2.351 -21.7,-21.75 -7.849,0.949 -2.351,2.301 0.95,0.899 2.101,-2.099 21.699,21.75 z m -62.601,55.5 -12.05,1.301 -2.05,2.05 12.05,-1.3 z m -16.25,-12.149 1.601,1.599 -7.601,7.651 3.551,3.549 4.699,-4.75 0.75,-7.4 -1.85,-1.8 z M -563.649,-2.05 -564.85,9.051 -562.8,7 l 1.2,-11.1 z m -68.651,-72.75 -2.05,2.05 -1.2,11.101 2.05,-2.05 z m 2.85,21.101 4.75,-4.75 0.7,-7.401 -1.85,-1.799 -1.15,1.149 1.601,1.601 -7.601,7.649 z m 18.75,-0.651 -12.1,1.3 -2.05,2.05 12.05,-1.3 z m -40.3,-3.549 2.101,-2.151 21.699,21.75 8.35,-0.899 2.35,-2.301 -1.2,-1.199 -2.35,2.3 -21.7,-21.701 -7.899,0.951 -2.301,2.349 z m -8.149,10 11,-1.151 2.149,-2.099 -11.1,1.2 z m 13.399,10.45 7.3,-7.301 -3.55,-3.55 -4.1,4.101 -0.85,7.949 1.85,1.851 1.201,-1.201 z m 9.15,8.55 1.3,-11.601 -2.15,2.101 -1.199,11.549 z m -22.549,122.399 11,-1.149 2.149,-2.101 -11.1,1.2 z m 14.049,13.5 1.201,-1.199 -1.851,-1.851 7.3,-7.3 -3.5,-3.549 -4.1,4.099 -0.9,7.95 z m 11.6,-29.3 1.2,-11.099 -2.05,2.049 -1.2,11.1 z m 7.65,-3.95 -1.15,1.15 1.65,1.6 -7.6,7.65 3.5,3.55 4.7,-4.75 0.75,-7.399 z m 9.35,26.2 -1.2,-1.2 -2.35,2.301 -21.7,-21.75 -7.85,0.949 -2.299,2.351 0.899,0.95 2.101,-2.151 21.699,21.701 8.35,-0.851 z m 5.75,-12.899 -12.05,1.349 -2.05,2.05 12.05,-1.349 z M -554,12.25 l 0.7,-7.399 -1.849,-1.8 -1.151,1.149 1.651,1.601 -7.601,7.649 3.5,3.55 z m -0.149,7.5 12.049,-1.35 2.1,-2.049 -12.1,1.349 z m -17.101,2.65 -4.1,4.1 -0.9,7.95 1.851,1.851 1.199,-1.2 -1.85,-1.851 7.3,-7.3 z m -17.2,0.401 11,-1.151 2.15,-2.099 -11.099,1.199 z m 8.15,-9.95 2.1,-2.151 21.7,21.7 8.351,-0.849 2.349,-2.301 -1.2,-1.199 -2.35,2.3 -21.7,-21.75 -7.849,0.95 -2.301,2.349 z m 14.401,28.95 1.299,-11.551 -2.15,2.101 -1.2,11.5 z M -704.2,7 l 1.2,-11.1 -2.05,2.05 -1.2,11.101 z m -71.55,-79.75 -1.2,11.101 2.051,-2.05 1.199,-11.101 z m -16.649,14.851 2.099,-2.151 21.7,21.7 8.35,-0.849 2.351,-2.301 -1.201,-1.199 -2.35,2.3 -21.699,-21.701 -7.901,0.951 -2.3,2.349 z m -8.151,10 11,-1.151 2.151,-2.099 -11.101,1.2 z m 29.7,-5.8 4.701,-4.75 0.75,-7.401 -1.851,-1.849 -1.149,1.149 1.599,1.651 -7.599,7.649 z m 4.6,2.699 12.05,-1.3 2.051,-2.05 -12.051,1.3 z m -11.75,22.051 1.3,-11.551 -2.15,2.101 -1.2,11.5 z m -9.149,-8.5 7.299,-7.301 -3.549,-3.55 -4.101,4.101 -0.85,7.949 1.85,1.801 1.2,-1.2 z m 12.25,115.199 1.199,-11.1 -2.05,2.05 -1.2,11.101 z m 7.649,-3.949 -1.149,1.099 1.599,1.6 -7.65,7.65 3.551,3.55 4.75,-4.75 0.75,-7.349 z m -33.35,19.699 11.05,-1.149 2.1,-2.101 -11.1,1.2 z m 13.451,10.45 7.299,-7.25 -3.549,-3.55 -4.101,4.1 -0.85,7.9 1.85,1.85 1.2,-1.199 z m 91.699,-91.7 0.75,-7.399 -1.85,-1.8 -1.15,1.149 1.6,1.601 -7.6,7.649 3.551,3.55 z m -0.1,7.45 12.05,-1.3 2.05,-2.049 -12.05,1.299 z m -20.9,13.55 7.301,-7.3 -3.551,-3.55 -4.1,4.1 -0.849,7.95 1.849,1.851 1.2,-1.2 z m 9.15,8.551 1.3,-11.601 -2.149,2.101 -1.201,11.55 z m -22.55,-19 11,-1.151 2.15,-2.099 -11.1,1.199 z m 8.15,-10 2.1,-2.151 21.701,21.75 8.349,-0.9 2.35,-2.3 -1.199,-1.2 -2.351,2.301 -21.7,-21.7 -7.9,0.95 -2.299,2.349 z m -39.75,88.25 -21.699,-21.7 -7.901,0.899 -2.349,2.351 0.949,0.899 2.15,-2.149 21.7,21.75 8.35,-0.851 2.3,-2.35 -1.199,-1.2 z m 9.301,-14 -12.051,1.349 -2.05,2.05 12.05,-1.349 z m 45.899,63.449 2.05,-2.05 1.2,-11.099 -2.05,2.049 z m 24.8,7.25 -12.05,1.4 -2.05,2.05 12.05,-1.399 z m -14,-4.1 0.75,-7.349 -1.85,-1.801 -1.15,1.101 1.65,1.599 -7.65,7.651 3.5,3.549 z m 8.2,17 -1.2,-1.2 -2.3,2.351 -21.7,-21.75 -7.85,0.899 -2.349,2.351 0.899,0.949 2.15,-2.149 21.701,21.7 8.349,-0.801 z m -20.899,3.1 -1.201,11.551 2.05,-2.051 1.25,-11.6 z m -8.601,-12.8 -11.1,1.2 -2.049,2.05 11.049,-1.149 z m 2.15,15.55 -1.85,-1.85 7.301,-7.25 -3.5,-3.549 -4.101,4.099 -0.899,7.901 1.849,1.849 z m -63.4,-63.949 1.25,-11.651 -2.1,2.1 -1.2,11.601 z m 1,108.649 2.101,-2.05 1.199,-11.099 -2.05,2.05 z m 10.851,3.151 0.699,-7.351 -1.85,-1.8 -1.099,1.101 1.649,1.599 -7.649,7.651 3.5,3.55 z m -21.301,7.299 -11.1,1.201 -2.05,2.049 11.05,-1.15 z m 0.301,13.701 7.299,-7.25 -3.5,-3.55 -4.15,4.099 -0.85,7.901 1.85,1.849 1.2,-1.2 z m 9.099,8.599 1.3,-11.599 -2.1,2.099 -1.25,11.55 z m 25.901,-25.5 -12.051,1.401 -2.1,2.049 12.1,-1.4 z m -7,11.7 -2.301,2.35 -21.699,-21.75 -7.851,0.9 -2.35,2.35 0.9,0.95 2.15,-2.099 21.7,21.7 8.35,-0.851 2.3,-2.349 z m 42.449,62.201 -11.1,1.2 -2.05,2.05 11.05,-1.151 z m 12.551,-12.5 1.199,-11.101 -2.05,2.051 -1.25,11.099 z m 9.399,-2.101 -1.85,-1.85 -1.1,1.1 1.65,1.601 -7.65,7.649 3.551,3.551 4.75,-4.75 z m 13.351,11.4 -12.101,1.401 -2.1,2.05 12.15,-1.401 z m 126.25,-154.7 -1.151,1.151 1.651,1.599 -7.601,7.651 3.55,3.549 4.7,-4.75 0.7,-7.349 z m 15.149,13.3 -12.1,1.351 -2.049,2.049 12.099,-1.349 z m -23.6,-18.399 -1.2,11.099 2.05,-2.05 1.2,-11.099 z m -1,32.299 -2.15,2.1 -1.2,11.5 2.051,-2.05 z m -9.799,6.05 1.199,-1.2 -1.8,-1.85 7.3,-7.299 -3.55,-3.55 -4.1,4.099 -0.85,7.951 z m -14,-13.5 11,-1.149 2.149,-2.101 -11.1,1.2 z m 42.599,6.45 -1.2,-1.2 -2.35,2.3 -21.7,-21.699 -7.849,0.899 -2.301,2.351 0.9,0.949 2.1,-2.149 21.7,21.7 8.351,-0.851 z m -90.8,-58.15 1.3,-11.55 -2.15,2.101 -1.199,11.5 z m 1.1,108.7 2.05,-2.05 1.2,-11.099 -2.05,2.05 z m 10.8,3.151 0.7,-7.3 -1.85,-1.851 -1.15,1.101 1.65,1.599 -7.65,7.651 3.55,3.55 z m -0.15,7.549 12.1,-1.4 2.05,-2.05 -12.1,1.401 z m -11.75,22.05 1.25,-11.599 -2.1,2.099 -1.199,11.55 z m -9.4,-22.3 -11.1,1.201 -2.049,2.049 11.049,-1.15 z m -3.6,-10 -2.35,2.35 0.9,0.95 2.151,-2.149 21.699,21.699 8.35,-0.8 2.3,-2.349 -1.2,-1.201 -2.3,2.35 -21.7,-21.699 z m 4.5,26.75 1.201,-1.2 -1.801,-1.849 7.301,-7.25 -3.551,-3.55 -4.1,4.099 -0.849,7.901 z m 54.6,59.25 11.05,-1.15 2.1,-2.1 -11.1,1.201 z m 25.7,-15.75 1.2,-11.099 -2.049,2.05 -1.201,11.099 z m 22.75,9.3 -12.099,1.401 -2.051,2.049 12.1,-1.4 z m -14.65,-10.5 -7.65,7.651 3.55,3.5 4.75,-4.75 0.7,-7.3 -1.799,-1.851 -1.151,1.101 z m 8.801,23.401 -1.201,-1.201 -2.299,2.35 -21.701,-21.699 -7.85,0.899 -2.35,2.351 0.901,0.899 2.149,-2.099 21.75,21.7 8.3,-0.851 z m -20.901,3.099 -1.15,11.55 2.051,-2.05 1.199,-11.599 z m -9.45,2.101 1.851,1.849 1.199,-1.2 -1.85,-1.849 7.3,-7.25 -3.55,-3.5 -4.099,4.099 z m -69.8,55.8 -11.099,1.2 -2.051,2.05 11.051,-1.101 z m 0.95,16.75 1.201,-1.201 -1.851,-1.849 7.25,-7.25 -3.55,-3.5 -4.099,4.099 -0.801,7.85 z m 19.201,-33.201 -1.101,1.1 1.601,1.65 -7.651,7.651 3.55,3.5 4.75,-4.75 0.65,-7.301 z m -7.651,3.951 1.25,-11.101 -2.05,2.051 -1.25,11.099 z m 8.6,12.75 12.15,-1.401 2.05,-2.05 -12.149,1.401 z m -12.55,12.599 -1.2,11.5 2.051,-2.05 1.25,-11.599 z m 19.7,-4.349 -2.349,2.349 -21.701,-21.7 -7.799,0.9 -2.351,2.35 0.9,0.9 2.15,-2.099 21.75,21.699 8.25,-0.85 2.35,-2.349 z M -636.399,495 l -1.201,11.101 2.05,-2.05 1.2,-11.101 z m 80.149,-48.949 12.15,-1.351 2.05,-2.05 -12.15,1.35 z m -34.25,3.05 11.05,-1.101 2.1,-2.149 -11.1,1.2 z m 29.7,-5.8 4.75,-4.75 0.651,-7.351 -1.801,-1.849 -1.1,1.099 1.6,1.651 -7.65,7.649 z m -4.05,-9.95 1.25,-11.101 -2.049,2.051 -1.25,11.099 z m -12.2,26.2 7.25,-7.25 -3.55,-3.551 -4.1,4.101 -0.8,7.899 1.851,1.801 1.199,-1.2 z m 9.1,8.55 1.25,-11.601 -2.1,2.15 -1.2,11.5 z m 17.75,-10.25 2.35,-2.351 -1.2,-1.199 -2.349,2.349 -21.75,-21.7 -7.801,0.901 -2.35,2.349 0.95,0.901 2.15,-2.101 21.7,21.7 z m -137.05,-145.8 -1.2,-1.2 -2.3,2.349 -21.7,-21.7 -7.85,0.851 -2.349,2.349 0.899,0.95 2.15,-2.099 21.701,21.699 8.349,-0.85 z m -30.35,5.199 1.8,1.851 1.2,-1.201 -1.799,-1.849 7.299,-7.25 -3.549,-3.551 -4.151,4.101 z m 10.25,7.4 1.3,-11.599 -2.099,2.099 -1.25,11.55 z m -67.549,35.901 1.199,-11.101 -2.05,2.05 -1.2,11.101 z m 8.599,12.75 12.151,-1.351 2.049,-2.05 -12.15,1.35 z m -4.55,-2.801 4.75,-4.699 0.65,-7.351 -1.85,-1.849 -1.099,1.149 1.649,1.601 -7.649,7.599 z m -21.6,-4.149 2.1,-2.101 21.701,21.7 8.349,-0.849 2.35,-2.351 -1.199,-1.199 -2.351,2.349 -21.7,-21.7 -7.8,0.901 -2.35,2.299 z m 5.051,6.7 -11.101,1.199 -2.05,2.051 11.05,-1.101 z m 0.899,16.8 1.2,-1.201 -1.8,-1.849 7.25,-7.301 -3.549,-3.55 -4.101,4.101 -0.8,7.949 z m 8.45,5.5 1.3,-11.601 -2.1,2.15 -1.25,11.5 z m 0.25,99.599 -1.2,11.101 2.05,-2.051 1.2,-11.1 z m 71.55,-61.649 1.2,-11.101 -2.05,2.05 -1.2,11.101 z m 4.05,9.949 4.75,-4.699 0.65,-7.351 -1.8,-1.849 -1.1,1.149 1.6,1.65 -7.65,7.6 z m 4.551,2.801 12.149,-1.351 2.05,-2.05 -12.15,1.35 z m -34.25,3 11.049,-1.101 2.1,-2.149 -11.1,1.199 z m 40.25,8.8 2.349,-2.351 -1.2,-1.199 -2.35,2.349 -21.7,-21.7 -7.8,0.95 -2.35,2.3 0.9,0.901 2.1,-2.101 21.75,21.7 z m -26.801,1.7 7.25,-7.301 -3.55,-3.5 -4.1,4.101 -0.799,7.899 1.849,1.851 1.2,-1.201 z m 9.1,8.55 1.25,-11.601 -2.1,2.15 -1.199,11.5 z m 2.25,97.599 -1.2,11.101 2.05,-2.051 1.2,-11.1 z m 4.9,19.05 4.7,-4.75 0.7,-7.399 -1.8,-1.851 -1.15,1.15 1.601,1.651 -7.601,7.649 z m -16.55,2.5 -11.1,1.2 -2.049,2.05 11,-1.1 z m 0.9,16.75 1.201,-1.199 -1.851,-1.801 7.3,-7.3 -3.55,-3.55 -4.1,4.1 -0.85,7.95 z m 27.4,-8.3 -2.35,2.351 -21.75,-21.7 -7.849,0.95 -2.301,2.3 0.95,0.899 2.101,-2.1 21.699,21.701 8.35,-0.851 2.35,-2.35 z m -7.199,-8.25 12.099,-1.3 2.05,-2.049 -12.1,1.299 z m -83.301,-58.099 -1.15,11.5 2.05,-2.05 1.25,-11.601 z m 12.6,-12.601 12.1,-1.35 2.05,-2.049 -12.1,1.349 z m 0.15,-7.5 0.7,-7.35 -1.8,-1.849 -1.15,1.149 1.6,1.651 -7.6,7.649 3.551,3.5 z m -32.35,8.45 -2.05,2.05 11,-1.1 2.15,-2.15 z m 6.05,-7.899 2.101,-2.101 21.75,21.7 8.299,-0.849 2.35,-2.351 -1.2,-1.2 -2.35,2.351 -21.7,-21.701 -7.85,0.951 -2.299,2.299 z m 5.95,23.5 1.2,-1.2 -1.85,-1.851 7.301,-7.3 -3.551,-3.5 -4.1,4.101 -0.849,7.899 z m 11.6,112.149 1.2,-11.099 -2.05,2.049 -1.2,11.1 z m 8.1,-1.2 -7.65,7.65 3.55,3.55 4.75,-4.75 0.7,-7.399 -1.8,-1.851 -1.15,1.151 z m -12.1,26.5 -1.15,11.5 2.05,-2.05 1.25,-11.55 z m -8.5,-12.75 -11.15,1.2 -2.049,2.05 11.049,-1.149 z m 0.25,13.7 7.301,-7.3 -3.551,-3.549 -4.1,4.099 -0.849,7.95 1.849,1.8 1.2,-1.2 z m 35,-16.899 -12.1,1.3 -2.05,2.049 12.1,-1.299 z m 44.85,-45.301 1.25,-11.6 -2.15,2.151 -1.149,11.5 z m -51.799,56.95 -2.351,2.3 -21.75,-21.699 -7.85,0.949 -2.299,2.351 0.949,0.899 2.1,-2.149 21.701,21.7 8.349,-0.851 2.35,-2.3 z m 197.5,-102.8 -2.051,2.05 -1.199,11.101 2.049,-2.051 z m -26.851,26.85 11.05,-1.1 2.1,-2.15 -11.1,1.2 z m 15.3,12.351 -1.85,-1.851 7.25,-7.3 -3.55,-3.55 -4.1,4.1 -0.8,7.95 1.851,1.851 z m 19.85,-30.25 -1.85,-1.8 -1.1,1.149 1.6,1.601 -7.65,7.599 3.55,3.55 4.75,-4.7 z m 5.15,26.7 2.35,-2.351 -1.2,-1.2 -2.349,2.351 -21.701,-21.75 -7.85,0.95 -2.35,2.3 0.95,0.899 2.1,-2.1 21.7,21.75 z m -6,-11.851 12.1,-1.3 2.05,-2.049 -12.099,1.299 z m -70.75,-70.7 12.15,-1.3 2.05,-2.05 -12.149,1.3 z m -12.55,12.601 -1.2,11.5 2.051,-2.05 1.25,-11.601 z m 8,-15.351 4.75,-4.699 0.65,-7.401 -1.799,-1.849 -1.101,1.149 1.601,1.651 -7.651,7.599 z m -21.55,-4.199 2.1,-2.101 21.7,21.7 8.351,-0.849 2.349,-2.351 -1.2,-1.2 -2.35,2.351 -21.75,-21.701 -7.799,0.951 -2.351,2.299 z m -6.099,7.949 -2.051,2.051 11.051,-1.101 2.099,-2.149 z m 13.25,14.351 -1.851,-1.8 7.25,-7.301 -3.55,-3.55 -4.099,4.101 -0.801,7.949 1.85,1.801 z m 10.349,113.349 1.2,-11.099 -2.049,2.049 -1.201,11.1 z m 8.1,-1.2 -7.6,7.65 3.55,3.55 4.7,-4.75 0.75,-7.399 -1.849,-1.801 -1.151,1.15 z m -20.6,13.7 -11.099,1.2 -2.051,2.05 11,-1.099 z m 0.25,13.75 7.3,-7.3 -3.55,-3.549 -4.099,4.099 -0.851,7.95 1.851,1.85 1.199,-1.199 z m 26.901,-1.7 2.349,-2.35 -1.2,-1.2 -2.35,2.351 -21.7,-21.75 -7.9,0.949 -2.3,2.301 0.95,0.899 2.1,-2.099 21.7,21.75 z m -18.601,0.75 -1.2,11.551 2.051,-2.051 1.299,-11.649 z m 12.601,-12.6 12.049,-1.299 2.05,-2.05 -12.05,1.3 z m 58.949,-48.599 1.301,-11.651 -2.101,2.151 -1.25,11.55 z M -265,314.15 l -1.199,-1.2 -2.351,2.3 -21.7,-21.75 -7.899,0.95 -2.3,2.351 0.949,0.899 2.101,-2.149 21.7,21.75 8.349,-0.851 z m 61.351,44.5 -1.151,1.151 1.651,1.599 -7.601,7.651 3.5,3.55 4.7,-4.75 0.75,-7.351 z m -7.651,3.951 1.2,-11.101 -2.049,2.051 -1.201,11.099 z m 8.651,12.75 12.049,-1.351 2.05,-2.05 -12.05,1.351 z m -32.25,1 -2.05,2.049 11,-1.15 2.149,-2.1 z m 11.349,12.5 7.3,-7.3 -3.5,-3.551 -4.1,4.101 -0.9,7.95 1.851,1.849 1.2,-1.2 z m 10.45,-3 -2.15,2.099 -1.199,11.5 2.05,-2.05 z m 15.25,0.099 -21.7,-21.7 -7.849,0.9 -2.3,2.35 0.899,0.95 2.101,-2.149 L -205,388 l 8.351,-0.85 2.349,-2.299 -1.2,-1.201 z m -85.95,-70.849 -2.149,2.099 -1.2,11.55 2.049,-2.05 z m -3.149,-4.25 -3.551,-3.55 -4.1,4.099 -0.849,7.951 1.849,1.849 1.201,-1.2 -1.851,-1.85 z m -59.25,48.95 1.599,1.599 -7.599,7.651 3.55,3.55 4.7,-4.75 0.75,-7.401 -1.851,-1.8 z m -6.5,2.8 1.199,-11.101 -2.05,2.051 -1.2,11.099 z m 8.649,12.7 12.05,-1.301 2.051,-2.05 -12.051,1.3 z m 47.401,72.649 2.149,-2.099 -11.1,1.2 -2.049,2.05 z m 14.649,-14.649 1.2,-11.101 -2.05,2.05 -1.2,11.101 z m -71.55,61.699 -1.2,11.101 2.051,-2.05 1.199,-11.101 z m 61.151,-33.6 -1.851,-1.849 7.301,-7.301 -3.5,-3.55 -4.101,4.101 -0.899,7.949 1.849,1.851 z m 7.299,6.701 1.3,-11.55 -2.149,2.099 -1.2,11.5 z m 11.25,-36 -7.599,7.649 3.5,3.551 4.699,-4.75 0.75,-7.351 -1.85,-1.849 -1.15,1.149 z m 0.5,13.95 12.05,-1.351 2.05,-2.05 -12.05,1.35 z m 4.8,10.599 -21.7,-21.7 -7.85,0.901 -2.299,2.349 0.899,0.95 2.101,-2.15 21.7,21.7 8.349,-0.849 2.35,-2.3 -1.199,-1.2 z m 56.401,38.3 -1.201,11.101 2.05,-2.051 1.2,-11.1 z M -408.75,316.4 l 2.351,-2.299 -1.201,-1.201 -2.35,2.3 -21.75,-21.7 -7.85,0.95 -2.3,2.351 0.951,0.899 2.099,-2.149 21.7,21.699 z m -18.649,0.8 -1.151,11.5 2.05,-2.05 1.25,-11.549 z m -0.951,-6.349 -3.549,-3.55 -4.101,4.099 -0.85,7.951 1.85,1.799 1.2,-1.2 -1.849,-1.8 z m 58.151,57.549 2.099,-2.15 21.701,21.75 8.349,-0.85 2.351,-2.299 -1.2,-1.201 -2.351,2.3 -21.699,-21.75 -7.901,0.95 -2.299,2.35 z m 5,6.75 -11.101,1.201 -2.05,2.049 11,-1.15 z m 0.25,13.701 7.3,-7.3 -3.55,-3.551 -4.101,4.101 -0.849,7.95 1.849,1.849 1.2,-1.2 z m 7.099,10.599 2.05,-2.05 1.3,-11.599 -2.149,2.099 z m -128.6,-40.8 -1.15,1.1 1.6,1.65 -7.649,7.651 3.549,3.55 4.75,-4.75 0.701,-7.351 z m -7.65,4 1.201,-11.099 -2.051,2.05 -1.199,11.099 z m -23.65,13.701 -2.05,2.049 11.05,-1.15 2.101,-2.1 z m 12.05,15.5 1.2,-1.201 -1.85,-1.799 7.3,-7.25 -3.55,-3.55 -4.1,4.099 -0.85,7.901 z m 25.051,-5.901 -21.75,-21.7 -7.851,0.9 -2.35,2.35 0.951,0.9 2.149,-2.099 21.7,21.699 8.35,-0.85 2.301,-2.349 -1.201,-1.2 z m -17.451,1.95 -1.15,11.55 2.05,-2.05 1.2,-11.599 z m 26.75,-15.95 -12.1,1.351 -2.05,2.05 12.101,-1.351 z m 33.3,76 2.1,-2.099 -11.1,1.2 -2.05,2.05 z m -56.9,47.05 -1.25,11.101 2.051,-2.05 1.25,-11.101 z m 71.551,-61.649 1.199,-11.101 -2.05,2.051 -1.2,11.099 z m 4,9.95 4.75,-4.75 0.75,-7.351 -1.851,-1.8 -1.149,1.1 1.599,1.601 -7.65,7.649 z m 18.75,-0.651 -12.051,1.35 -2.05,2.051 12.05,-1.351 z m -8.101,15.25 2.3,-2.349 -1.199,-1.2 -2.301,2.349 -21.699,-21.75 -7.901,0.901 -2.349,2.349 0.949,0.901 2.15,-2.101 21.7,21.75 z m -26.899,1.651 7.299,-7.25 -3.549,-3.551 -4.101,4.101 -0.85,7.899 1.85,1.851 1.2,-1.201 z m 9.149,8.599 1.25,-11.65 -2.1,2.101 -1.2,11.599 z m 61.25,48.401 -11.1,1.199 -2.049,2.051 11.049,-1.151 z m 2.15,15.55 -1.849,-1.851 7.3,-7.25 -3.5,-3.55 -4.101,4.101 -0.899,7.899 1.849,1.851 z m -61.15,33.599 -1.25,11.101 2.05,-2.051 1.25,-11.1 z m 4.851,19 4.75,-4.75 0.699,-7.3 -1.85,-1.849 -1.099,1.099 1.649,1.6 -7.649,7.65 z m -9,9 -3.5,-3.55 -4.101,4.1 -0.85,7.9 1.85,1.85 1.2,-1.199 -1.849,-1.851 z m 13.599,-6.2 12.1,-1.399 2.051,-2.05 -12.101,1.399 z m -83.25,-58.149 -1.25,11.549 2.05,-2.049 1.3,-11.651 z m 12.55,-12.601 12.101,-1.35 2.049,-2.049 -12.1,1.349 z m -4.6,-2.75 4.75,-4.75 0.701,-7.35 -1.851,-1.799 -1.1,1.099 1.6,1.601 -7.649,7.649 z m -19.4,-6.3 21.7,21.75 8.3,-0.849 2.351,-2.351 -1.201,-1.199 -2.35,2.349 -21.699,-21.75 -7.851,0.901 -2.35,2.349 0.951,0.901 z m 2.851,8.851 -11.101,1.199 -2.05,2.051 11.05,-1.101 z m 2.149,15.55 -1.85,-1.851 7.25,-7.25 -3.549,-3.55 -4.101,4.101 -0.8,7.899 1.85,1.851 z m 63.55,48.45 2.15,-2.101 21.7,21.7 8.3,-0.849 2.35,-2.351 -1.199,-1.2 -2.351,2.351 -21.7,-21.701 -7.8,0.85 -2.35,2.351 z m 2.9,8.849 2.1,-2.15 -11.1,1.2 -2.05,2.05 z m -56.099,56.05 1.199,-11.099 -2.05,2.049 -1.2,11.1 z m 8.199,-1.2 -7.65,7.601 3.5,3.549 4.75,-4.7 0.701,-7.349 -1.851,-1.851 -1.1,1.15 z m 5.25,24.551 -21.699,-21.7 -7.801,0.899 -2.35,2.301 0.901,0.949 2.099,-2.1 21.7,21.701 8.35,-0.851 2.351,-2.35 -1.201,-1.2 z m -4.8,-10.601 12.101,-1.349 2.049,-2.05 -12.1,1.349 z m -12.55,12.601 -1.25,11.5 2.05,-2.051 1.3,-11.6 z m -8.599,-12.851 -11.101,1.2 -2.05,2.05 11.05,-1.099 z m 0.299,13.75 7.25,-7.3 -3.5,-3.549 -4.1,4.099 -0.85,7.95 1.85,1.85 1.2,-1.199 z m 79.8,-62.149 1.3,-11.601 -2.1,2.151 -1.25,11.5 z m 50.2,49.599 -2.049,2.05 11.049,-1.099 2.1,-2.151 z m 11.401,12.5 7.25,-7.25 -3.5,-3.5 -4.101,4.1 -0.849,7.851 1.849,1.849 1.2,-1.2 z m 149.699,-142.299 -1.199,11.5 2.05,-2.05 1.299,-11.551 z m 12.601,-12.601 12.099,-1.35 2.05,-2.049 -12.1,1.349 z m -4.601,-2.75 4.7,-4.75 0.75,-7.35 -1.849,-1.849 -1.151,1.149 1.651,1.651 -7.601,7.649 z m -27.649,3.75 -2.05,2.051 11,-1.151 2.149,-2.099 z m 8.2,-10.05 21.699,21.7 8.351,-0.849 2.349,-2.301 -1.2,-1.199 -2.35,2.3 -21.7,-21.701 -7.849,0.901 -2.3,2.349 0.899,0.951 z m 3.8,25.601 1.2,-1.2 -1.851,-1.851 7.3,-7.3 -3.5,-3.5 -4.1,4.101 -0.9,7.899 z m -50.451,54.199 12.1,-1.399 2.051,-2.05 -12.101,1.399 z m -81.2,-60.25 -2.099,2.101 -1.201,11.549 2.05,-2.049 z m 15.3,0.15 -21.699,-21.7 -7.851,0.851 -2.349,2.349 0.899,0.951 2.15,-2.101 21.701,21.7 8.349,-0.849 2.3,-2.351 -1.199,-1.199 z m -4.8,-10.599 12.05,-1.401 2.051,-2.049 -12.051,1.399 z m -4.649,-2.801 4.75,-4.75 0.75,-7.3 -1.851,-1.849 -1.149,1.099 1.649,1.601 -7.649,7.649 z m 67.899,49.65 -2.05,2.05 -1.2,11.101 2.05,-2.051 z m -16.599,14.8 21.7,21.7 8.349,-0.849 2.3,-2.351 -1.2,-1.2 -2.3,2.351 -21.7,-21.701 -7.85,0.85 -2.349,2.351 0.899,0.95 z m 0.75,10.901 2.099,-2.101 -11.099,1.2 -2.05,2.05 z M -278,584.7 l 4.75,-4.75 0.75,-7.3 -1.85,-1.849 -1.15,1.099 1.65,1.651 -7.65,7.649 z m -17.449,17.45 1.849,1.85 1.201,-1.199 -1.851,-1.851 7.301,-7.25 -3.5,-3.5 -4.101,4.101 z m 10.349,7.401 1.25,-11.601 -2.099,2.101 -1.2,11.55 z m -67.65,35.899 1.25,-11.099 -2.05,2.049 -1.25,11.1 z m 8.2,-1.2 -7.649,7.65 3.5,3.5 4.75,-4.75 0.699,-7.299 -1.85,-1.851 -1.099,1.101 z m -10,24.4 -2.099,2.151 -1.25,11.5 2.049,-2.051 z m 16.45,1.35 2.35,-2.35 -1.199,-1.2 -2.351,2.351 -21.7,-21.7 -7.8,0.849 -2.349,2.351 0.899,0.949 2.15,-2.1 21.701,21.701 z m -6,-11.8 12.151,-1.399 2.05,-2.051 -12.151,1.4 z m 132.85,-12.75 1.2,-11.099 -2.05,2.049 -1.2,11.1 z m 9.45,-2.099 -1.849,-1.851 -1.151,1.101 1.651,1.649 -7.651,7.65 3.55,3.5 4.75,-4.75 z m -12.599,36.899 1.25,-11.6 -2.101,2.1 -1.199,11.551 z m 17.75,-10.25 2.299,-2.35 -1.2,-1.2 -2.3,2.351 -21.7,-21.7 -7.849,0.899 -2.351,2.351 0.9,0.899 2.151,-2.1 21.699,21.701 z m -6,-11.8 12.099,-1.399 2.05,-2.051 -12.1,1.4 z m -21.151,-0.25 -11.099,1.2 -2.05,2.05 11.05,-1.149 z m 0.3,13.7 7.301,-7.25 -3.551,-3.5 -4.1,4.1 -0.849,7.851 1.8,1.849 1.2,-1.2 z m -37.75,55.85 2.051,-2.05 -12.151,1.401 -2.049,2.049 z m 37.45,71.9 -11.099,1.201 -2.05,2.049 11.05,-1.1 z m 12.5,-12.5 1.25,-11.1 -2.05,2.051 -1.25,11.099 z m 4.05,9.951 4.75,-4.75 0.65,-7.351 -1.799,-1.85 -1.101,1.1 1.601,1.65 -7.651,7.65 z m -70.699,-70.75 4.75,-4.75 0.649,-7.301 -1.849,-1.85 -1.101,1.1 1.65,1.65 -7.65,7.651 z m -4.051,-9.951 1.25,-11.1 -2.05,2.051 -1.25,11.099 z m -18.449,4.9 0.899,0.9 2.151,-2.099 21.7,21.699 8.3,-0.85 2.349,-2.349 -1.2,-1.201 -2.35,2.35 -21.7,-21.7 -7.8,0.9 z m 3.849,9.75 2.1,-2.15 -11.1,1.201 -2.049,2.049 z m 9.401,22.2 2.05,-2.05 1.299,-11.599 -2.099,2.149 z m -7,-10.649 7.25,-7.25 -3.551,-3.5 -4.1,4.099 -0.799,7.85 1.799,1.85 1.201,-1.2 z m -58.5,44.5 1.199,-11.101 -2.05,2.05 -1.2,11.1 z m 4.05,9.949 4.75,-4.699 0.649,-7.351 -1.85,-1.85 -1.099,1.15 1.649,1.65 -7.649,7.6 z m 18.75,-0.6 -12.151,1.35 -2.05,2.051 12.151,-1.351 z m 47.899,61.401 1.2,-11.101 -2.05,2.05 -1.2,11.1 z m -14.6,14.649 2.1,-2.149 -11.1,1.199 -2.049,2.051 z m 3.05,14.601 1.2,-1.201 -1.849,-1.799 7.25,-7.301 -3.551,-3.55 -4.1,4.101 -0.799,7.949 z m 8.45,5.5 1.25,-11.601 -2.099,2.15 -1.2,11.5 z m 88.451,-80.951 2.349,-2.35 -1.2,-1.199 -2.35,2.349 -21.75,-21.7 -7.799,0.9 -2.351,2.35 0.9,0.9 2.151,-2.1 21.75,21.7 z m -26.201,4.701 1.201,-1.201 -1.851,-1.799 7.25,-7.25 -3.55,-3.551 -4.099,4.1 -0.8,7.9 z m 6.401,7.599 2.05,-2.05 1.25,-11.6 -2.101,2.15 z m -57.901,29.901 -1.099,1.149 1.599,1.65 -7.65,7.6 3.551,3.55 4.75,-4.699 0.649,-7.401 z m 3,14.649 -2.049,2.05 12.149,-1.3 2.051,-2.05 z m 5.151,10.3 -2.351,2.35 -21.75,-21.7 -7.8,0.95 -2.349,2.3 0.899,0.901 2.101,-2.101 21.75,21.7 8.349,-0.849 2.35,-2.351 z M -400.6,725.5 l -12.15,1.351 -2.05,2.049 12.151,-1.35 z m -18.799,0.601 4.75,-4.701 0.699,-7.35 -1.85,-1.85 -1.099,1.151 1.649,1.649 -7.649,7.601 z m -4.051,-9.951 1.2,-11.1 -2.05,2.051 -1.2,11.099 z m -3.9,25.35 -1.25,11.5 2.05,-2.05 1.3,-11.599 z m -6.45,2.75 -1.849,-1.85 7.25,-7.299 -3.5,-3.5 -4.101,4.099 -0.85,7.901 1.85,1.849 z m 57.5,56.3 -2.05,2.051 11.05,-1.101 2.101,-2.149 z m 5.151,-8.8 0.899,0.9 2.101,-2.1 21.7,21.7 8.349,-0.85 2.35,-2.35 -1.199,-1.199 -2.351,2.349 -21.7,-21.7 -7.8,0.95 z m -67.701,-71.899 21.701,21.699 8.349,-0.85 2.35,-2.349 -1.199,-1.201 -2.351,2.35 -21.7,-21.7 -7.8,0.9 -2.35,2.3 0.9,0.95 z m -10.25,12.049 11.05,-1.1 2.1,-2.15 -11.1,1.201 z m -57.549,67.451 -11.101,1.199 -2.05,2.051 11,-1.101 z m 12.5,-12.5 1.199,-11.101 -2.05,2.05 -1.2,11.1 z m 4.049,10 4.701,-4.75 0.75,-7.351 -1.851,-1.85 -1.149,1.15 1.649,1.65 -7.6,7.651 z m 18.75,-0.651 -12.1,1.35 -2.05,2.051 12.101,-1.351 z m -26.75,16 -1.2,11.5 2.05,-2.05 1.3,-11.6 z m 18.6,-0.8 2.351,-2.35 -1.201,-1.199 -2.35,2.349 -21.699,-21.7 -7.851,0.9 -2.3,2.3 0.901,0.95 2.099,-2.1 21.7,21.7 z m -26.25,4.75 1.2,-1.2 -1.849,-1.849 7.299,-7.301 -3.5,-3.5 -4.1,4.1 -0.9,7.9 z m 56.7,57.15 11,-1.1 2.151,-2.15 -11.101,1.2 z m 91.151,-49.6 2.049,-2.05 1.3,-11.6 -2.099,2.15 z m -8.201,-9.4 1.8,1.85 1.2,-1.2 -1.799,-1.849 7.25,-7.301 -3.55,-3.5 -4.101,4.1 z m -48.7,56 12.1,-1.35 2.051,-2.05 -12.101,1.35 z m -4.55,-2.75 4.701,-4.75 0.699,-7.35 -1.85,-1.849 -1.15,1.149 1.65,1.65 -7.599,7.65 z m -4.049,-10 1.199,-11.1 -2.05,2.05 -1.2,11.101 z m -10.451,28.1 -1.799,-1.85 7.299,-7.3 -3.549,-3.5 -4.101,4.101 -0.85,7.899 1.8,1.851 z m 8.6,-4.9 -2.149,2.15 -1.201,11.5 2.05,-2.049 z m 17.601,-2.2 -2.351,2.35 -21.7,-21.7 -7.85,0.95 -2.3,2.3 0.9,0.901 2.1,-2.101 21.701,21.7 8.349,-0.849 2.35,-2.351 z m 31.349,63.45 -2.05,2.05 11,-1.1 2.151,-2.15 z m -47.099,57 1.199,-11.1 -2.05,2.05 -1.2,11.1 z m 60.299,-42.649 -1.849,-1.801 7.3,-7.3 -3.55,-3.55 -4.101,4.1 -0.849,7.95 1.849,1.8 z M -517.75,942 l -2.05,2.05 11.05,-1.15 2.15,-2.1 z m 32.25,-1 12.101,-1.35 2.049,-2.049 -12.1,1.349 z m -4.6,-2.75 4.75,-4.75 0.701,-7.35 -1.851,-1.85 -1.149,1.15 1.649,1.651 -7.649,7.649 z m -4,-10 1.201,-11.1 -2.051,2.05 -1.199,11.1 z m -3.15,34.8 1.3,-11.55 -2.15,2.101 -1.2,11.5 z m 17.75,-10.25 2.351,-2.3 -1.201,-1.2 -2.35,2.301 -21.699,-21.701 -7.851,0.951 -2.3,2.349 0.901,0.901 2.099,-2.151 21.7,21.7 z m -26.85,1.7 7.3,-7.3 -3.55,-3.5 -4.1,4.1 -0.85,7.9 1.8,1.85 1.2,-1.199 z m 57.25,60.3 11.05,-1.15 2.151,-2.1 -11.151,1.2 z m -45,54.95 1.201,-11.149 -2.051,2.049 -1.199,11.15 z m -12.549,12.5 -11.101,1.2 -2.05,2.05 11.05,-1.149 z m -0.901,14.9 1.85,1.8 1.2,-1.2 -1.85,-1.8 7.3,-7.25 -3.55,-3.55 -4.1,4.1 z m 28.1,-2.9 2.301,-2.35 -1.201,-1.2 -2.299,2.35 -21.75,-21.699 -7.851,0.899 -2.35,2.351 0.9,0.899 2.15,-2.149 21.75,21.699 z m -10.65,-14.55 4.75,-4.75 0.701,-7.349 -1.801,-1.851 -1.15,1.101 1.6,1.649 -7.649,7.65 z m 18.75,-0.65 -12.1,1.35 -2.05,2.05 12.101,-1.349 z m 63.75,-59.05 -2.35,2.3 -21.75,-21.699 -7.85,0.949 -2.3,2.35 0.9,0.9 2.1,-2.15 21.75,21.701 8.35,-0.851 2.351,-2.3 z m -7.2,-8.3 12.1,-1.3 2.051,-2.049 -12.101,1.299 z m -4.599,-2.7 4.75,-4.75 0.699,-7.399 -1.8,-1.851 -1.149,1.15 1.599,1.65 -7.65,7.65 z m -7.101,24.75 1.25,-11.55 -2.149,2.1 -1.151,11.5 z m -8.5,-5.5 1.2,-1.2 -1.849,-1.8 7.299,-7.3 -3.549,-3.55 -4.101,4.1 -0.85,7.95 z m 69.801,54 -11.151,1.2 -2.049,2.05 11.049,-1.149 z m -0.95,14.9 1.849,1.85 1.2,-1.2 -1.849,-1.85 7.3,-7.3 -3.55,-3.549 -4.101,4.099 z m 131.25,-155.15 -2.05,2.05 11.05,-1.1 2.099,-2.15 z m 27.649,-3.75 4.75,-4.7 0.7,-7.4 -1.849,-1.799 -1.101,1.149 1.601,1.601 -7.651,7.599 z m -4.05,-9.95 1.2,-11.1 -2.049,2.05 -1.201,11.101 z m 14.651,24.551 2.349,-2.351 -1.2,-1.2 -2.35,2.35 -21.7,-21.75 -7.849,0.951 -2.351,2.299 0.95,0.951 2.101,-2.101 21.699,21.7 z m -19.8,12.299 2.05,-2.049 1.299,-11.651 -2.099,2.151 z m -7.051,-10.6 7.25,-7.3 -3.55,-3.55 -4.099,4.1 -0.8,7.95 1.849,1.851 1.201,-1.201 z m -131.05,-3.1 -2.149,2.151 -1.151,11.5 2.05,-2.051 z m 5.901,-13.15 4.7,-4.75 0.699,-7.4 -1.8,-1.85 -1.149,1.15 1.599,1.651 -7.599,7.649 z m -4.05,-10 1.199,-11.1 -2.05,2.05 -1.2,11.101 z m 22.75,9.35 -12.101,1.3 -2.05,2.05 12.1,-1.3 z m -8.101,15.15 2.351,-2.35 -1.2,-1.2 -2.351,2.351 -21.75,-21.701 -7.85,0.951 -2.299,2.299 0.899,0.9 2.101,-2.1 21.75,21.7 z m 56.05,46.2 1.2,-11.1 -2.05,2.05 -1.2,11.1 z m 4.051,10 4.699,-4.75 0.75,-7.399 -1.85,-1.801 -1.15,1.15 1.601,1.6 -7.601,7.65 z m -29.7,5.75 11,-1.1 2.149,-2.15 -11.1,1.2 z m 14.049,13.55 1.201,-1.199 -1.851,-1.851 7.301,-7.3 -3.551,-3.55 -4.1,4.1 -0.849,7.95 z m 8.5,5.5 1.3,-11.65 -2.149,2.15 -1.2,11.551 z m -66.4,24.801 -2.05,2.049 -1.2,11.1 2.051,-2.05 z m 12.25,34.449 -21.699,-21.75 -7.901,0.95 -2.299,2.351 0.95,0.949 2.099,-2.15 21.701,21.701 8.349,-0.851 2.351,-2.3 -1.2,-1.2 z m -9.449,-13.35 4.75,-4.75 0.75,-7.4 -1.851,-1.8 -1.149,1.15 1.599,1.6 -7.65,7.65 z m 18.75,-0.65 -12.051,1.301 -2.05,2.049 12.05,-1.299 z m 63.75,-59.05 -2.351,2.351 -21.7,-21.75 -7.899,0.949 -2.3,2.301 0.949,0.949 2.101,-2.1 21.7,21.7 8.349,-0.85 2.35,-2.35 z m -7.151,-8.3 12.05,-1.3 2.05,-2.049 -12.05,1.299 z m 62.05,58 1.2,-11.099 -2.049,2.049 -1.201,11.1 z m -12.5,12.5 -11.099,1.2 -2.05,2.05 11,-1.099 z m 0.901,16.8 1.2,-1.2 -1.851,-1.85 7.3,-7.3 -3.5,-3.549 -4.1,4.099 -0.9,7.95 z m 25.049,-5.95 -21.7,-21.699 -7.899,0.899 -2.301,2.3 0.95,0.95 2.101,-2.1 21.699,21.701 8.351,-0.851 2.349,-2.35 -1.2,-1.2 z m -9.4,-13.35 4.7,-4.75 0.75,-7.349 -1.849,-1.851 -1.151,1.15 1.651,1.6 -7.601,7.65 z m -336.899,-352.15 2.049,-2.05 -12.049,1.351 -2.051,2.049 z m -16.651,-1.4 4.7,-4.75 0.75,-7.35 -1.85,-1.85 -1.15,1.151 1.65,1.599 -7.6,7.651 z m -4.9,-19.049 -1.199,11.099 2.049,-2.05 1.201,-11.1 z m -16.65,14.849 2.1,-2.099 21.7,21.699 8.35,-0.85 2.35,-2.349 -1.2,-1.201 -2.349,2.35 -21.701,-21.7 -7.85,0.9 -2.3,2.3 z m -8.15,9.95 11,-1.1 2.15,-2.15 -11.1,1.201 z m 21.7,9.6 -1.2,11.5 2.05,-2.05 1.301,-11.599 z m -6.45,2.75 -1.85,-1.85 7.3,-7.299 -3.5,-3.551 -4.099,4.1 -0.901,7.951 1.85,1.849 z m -83.95,56.351 -2.05,2.049 11.05,-1.15 2.15,-2.1 z m 23.65,-13.75 1.2,-11.101 -2.049,2.05 -1.201,11.1 z m 4,10 4.75,-4.75 0.75,-7.351 -1.849,-1.85 -1.151,1.15 1.651,1.6 -7.651,7.65 z m 18.75,-0.651 -12.05,1.35 -2.049,2.051 12.049,-1.351 z m -8.099,15.2 2.349,-2.299 -1.2,-1.201 -2.35,2.3 -21.7,-21.7 -7.849,0.9 -2.301,2.35 0.9,0.95 2.1,-2.15 21.7,21.7 z m -18.601,0.8 -1.2,11.5 2.051,-2.05 1.299,-11.549 z m -9.5,2.1 1.851,1.85 1.199,-1.2 -1.85,-1.849 7.3,-7.301 -3.5,-3.55 -4.1,4.101 z m 84.15,43.25 1.201,-11.1 -2.051,2.05 -1.199,11.101 z m -14.65,14.65 2.15,-2.099 -11.15,1.199 -2.05,2.051 z m 3.05,14.651 1.2,-1.201 -1.85,-1.85 7.3,-7.3 -3.5,-3.5 -4.099,4.101 -0.901,7.899 z m 7.65,-3.951 -1.2,11.5 2.05,-2.049 1.301,-11.551 z m 11.6,-29.299 -1.15,1.149 1.65,1.65 -7.65,7.65 3.5,3.5 4.75,-4.75 0.75,-7.35 z m 13.1,15.349 2.05,-2.05 -12.099,1.35 -2.051,2.05 z m -4.95,9.651 -2.349,2.299 -21.701,-21.7 -7.85,0.901 -2.3,2.349 0.9,0.95 2.1,-2.15 21.7,21.7 8.35,-0.849 2.35,-2.301 z m -148.55,-149.75 12.05,-1.301 2.05,-2.05 -12.05,1.3 z m -4.65,-2.701 4.75,-4.75 0.75,-7.4 -1.85,-1.8 -1.15,1.151 1.601,1.599 -7.651,7.651 z m -4.85,-19.049 -1.2,11.099 2.05,-2.05 1.2,-11.1 z m -3.1,34.349 -1.199,11.55 2.049,-2.05 1.3,-11.599 z m -7.65,4 1.201,-1.2 -1.851,-1.85 7.3,-7.299 -3.55,-3.551 -4.1,4.1 -0.85,7.951 z m -5.9,-23.5 2.101,-2.15 21.699,21.75 8.35,-0.85 2.35,-2.3 -1.2,-1.2 -2.35,2.3 -21.7,-21.75 -7.899,0.95 -2.301,2.35 z m -8.2,10 11.051,-1.15 2.149,-2.1 -11.149,1.2 z m -57.55,67.45 -11.1,1.201 -2.049,2.049 11.049,-1.15 z m 12.55,-12.5 1.2,-11.15 -2.05,2.05 -1.2,11.15 z m 4,9.951 4.75,-4.75 0.75,-7.351 -1.85,-1.8 -1.15,1.1 1.6,1.6 -7.65,7.65 z m 4.65,2.75 12.05,-1.351 2.05,-2.05 -12.05,1.35 z m -12.599,12.549 -1.201,11.6 2.05,-2.05 1.25,-11.65 z m -8.301,0.951 7.301,-7.25 -3.551,-3.551 -4.1,4.1 -0.849,7.9 1.849,1.85 1.2,-1.2 z m 28,-5.201 -2.3,2.35 -21.7,-21.75 -7.9,0.9 -2.35,2.35 0.95,0.9 2.15,-2.15 21.701,21.75 8.349,-0.8 2.3,-2.349 z m 63.6,62.451 12.05,-1.401 2.05,-2.05 -12.05,1.4 z m -4.65,-2.801 4.75,-4.75 0.75,-7.3 -1.85,-1.85 -1.15,1.1 1.65,1.601 -7.65,7.649 z m -16.55,2.551 -11.099,1.199 -2.051,2.051 11.051,-1.151 z m 12.55,-12.5 1.2,-11.151 -2.05,2.05 -1.2,11.15 z m -10.399,28.049 -1.851,-1.85 7.3,-7.25 -3.5,-3.55 -4.1,4.101 -0.9,7.899 1.85,1.851 z m 8.549,-4.85 -2.1,2.1 -1.199,11.55 2.049,-2.05 z m 17.6,-2.199 -2.3,2.349 -21.7,-21.7 -7.85,0.851 -2.35,2.349 0.9,0.95 2.151,-2.15 21.699,21.7 8.35,-0.8 2.3,-2.35 z M -706.3,999 l 1.2,-11.1 -2.049,2.05 -1.201,11.1 z m -83.2,-58.2 -11.1,1.2 -2.049,2.05 11.049,-1.15 z m 12.5,-12.5 1.2,-11.1 -2.05,2.05 -1.2,11.101 z m 4.05,9.95 4.75,-4.75 0.7,-7.3 -1.85,-1.849 -1.1,1.099 1.65,1.6 -7.65,7.65 z m 4.6,2.8 12.1,-1.4 2.05,-2.049 -12.1,1.399 z m -11.75,22.051 1.3,-11.601 -2.099,2.101 -1.25,11.549 z m 17.75,-10.25 2.35,-2.351 -1.2,-1.2 -2.35,2.35 -21.7,-21.7 -7.8,0.85 -2.349,2.35 0.899,0.951 2.101,-2.101 21.699,21.7 z m -26.85,1.649 7.25,-7.25 -3.5,-3.55 -4.1,4.1 -0.849,7.9 1.849,1.85 1.2,-1.199 z m 12.2,115.2 1.2,-11.099 -2.05,2.049 -1.2,11.1 z m -12.5,12.5 -11.1,1.2 -2.049,2.05 11,-1.099 z m 0.9,16.8 1.25,-1.2 -1.85,-1.85 7.25,-7.3 -3.5,-3.5 -4.1,4.1 -0.9,7.9 z m 15.65,-19.35 4.75,-4.7 0.7,-7.349 -1.85,-1.851 -1.1,1.15 1.65,1.65 -7.65,7.6 z m 75.301,-67.9 12.149,-1.399 2.05,-2.051 -12.15,1.4 z m -4.601,-2.8 4.75,-4.75 0.7,-7.3 -1.849,-1.85 -1.101,1.1 1.65,1.65 -7.65,7.65 z m -14.399,18.1 -1.851,-1.85 7.25,-7.25 -3.5,-3.5 -4.1,4.1 -0.85,7.85 1.85,1.85 z m 7.25,6.75 1.299,-11.6 -2.1,2.1 -1.25,11.551 z m -22.551,-19.05 11.051,-1.149 2.099,-2.101 -11.099,1.2 z m 8.15,-9.95 2.1,-2.1 21.7,21.7 8.351,-0.85 2.349,-2.35 -1.2,-1.2 -2.35,2.351 -21.7,-21.701 -7.8,0.85 -2.35,2.351 z m -37.4,85.9 -2.35,2.35 -21.7,-21.699 -7.8,0.899 -2.349,2.3 0.899,0.95 2.101,-2.1 21.699,21.701 8.35,-0.851 2.35,-2.35 z m 7.051,-11.65 -12.151,1.35 -2.05,2.05 12.15,-1.349 z M -564.8,999 l 1.2,-11.149 -2.049,2.049 -1.201,11.15 z m -73.849,-35.899 1.25,-11.601 -2.101,2.101 -1.2,11.549 z m 7.099,-24.851 4.75,-4.75 0.75,-7.3 -1.849,-1.849 -1.151,1.099 1.651,1.651 -7.651,7.649 z m -4,-9.95 1.2,-11.15 -2.049,2.05 -1.201,11.151 z m 22.8,9.301 -12.1,1.399 -2.049,2.05 12.099,-1.4 z m -46.45,4.399 -2.05,2.05 11.05,-1.15 2.1,-2.1 z m 11.4,12.5 7.3,-7.25 -3.5,-3.5 -4.1,4.101 -0.9,7.849 1.851,1.85 1.199,-1.199 z m 26.901,-1.649 2.299,-2.351 -1.2,-1.2 -2.3,2.35 -21.7,-21.7 -7.849,0.85 -2.351,2.35 0.9,0.951 2.15,-2.151 21.7,21.7 z m -27.151,129.349 -11.099,1.2 -2.051,2.05 11.051,-1.15 z m -0.9,14.901 1.801,1.849 1.199,-1.2 -1.8,-1.85 7.25,-7.25 -3.55,-3.5 -4.099,4.1 z m 12.551,-36.451 -1.201,11.1 2.05,-2.05 1.2,-11.099 z m 4.899,19 4.75,-4.75 0.65,-7.299 -1.85,-1.851 -1.1,1.101 1.651,1.649 -7.651,7.65 z m 11.7,11.05 -2.349,2.35 -21.701,-21.699 -7.799,0.899 -2.351,2.351 0.9,0.899 2.1,-2.1 21.7,21.701 8.35,-0.851 2.35,-2.35 z m 7.05,-11.7 -12.149,1.4 -2.051,2.05 12.15,-1.4 z m 56.55,-67.25 12.1,-1.399 2.05,-2.051 -12.099,1.4 z m -4.6,-2.8 4.75,-4.75 0.7,-7.3 -1.85,-1.85 -1.15,1.1 1.65,1.65 -7.65,7.65 z m -29.7,5.8 11.05,-1.149 2.1,-2.101 -11.1,1.2 z m 8.101,-9.95 2.149,-2.15 21.7,21.701 8.35,-0.801 2.301,-2.35 -1.201,-1.2 -2.299,2.351 -21.701,-21.701 -7.85,0.9 -2.35,2.35 z m 7.149,22.25 -1.8,-1.85 7.3,-7.25 -3.55,-3.5 -4.099,4.1 -0.851,7.85 1.8,1.85 z m 7.3,6.75 1.25,-11.6 -2.1,2.1 -1.2,11.551 z m 10.75,102.65 -1.1,1.1 1.6,1.65 -7.65,7.651 3.55,3.549 4.75,-4.75 0.651,-7.35 z m -8.5,-5.05 -1.199,11.1 2.049,-2.05 1.201,-11.099 z m -7.65,24.451 -4.1,4.099 -0.8,7.901 1.851,1.799 1.199,-1.2 -1.85,-1.8 7.25,-7.25 z m -6.1,-0.801 2.1,-2.1 -11.1,1.2 -2.05,2.05 z m 11.5,20.15 1.25,-11.599 -2.1,2.099 -1.2,11.55 z m 17.75,-10.25 2.35,-2.349 -1.2,-1.201 -2.349,2.35 -21.75,-21.7 -7.801,0.9 -2.35,2.35 0.901,0.9 2.099,-2.099 21.75,21.699 z m -6.05,-11.8 12.15,-1.35 2.05,-2.05 -12.15,1.351 z m -82.45,-48.65 1.301,-11.6 -2.101,2.1 -1.25,11.55 z m 4.35,95.55 -2.049,2.051 -1.201,11.099 2.05,-2.05 z m 2.85,21.051 4.75,-4.701 0.65,-7.4 -1.799,-1.85 -1.101,1.15 1.601,1.65 -7.651,7.6 z m 4.55,2.75 12.15,-1.301 2.05,-2.05 -12.149,1.3 z m -12.6,12.599 -1.15,11.5 2.051,-2.05 1.25,-11.6 z m -19.599,-11.599 -2.051,2.049 11,-1.1 2.15,-2.15 z m 8.149,-10.051 21.75,21.7 8.351,-0.85 2.349,-2.35 -1.2,-1.199 -2.35,2.349 -21.75,-21.7 -7.799,0.95 -2.351,2.3 0.9,0.9 z m 2,23.801 1.851,1.799 1.25,-1.2 -1.851,-1.8 7.25,-7.299 -3.55,-3.551 -4.099,4.1 z m 58.5,59 11,-1.101 2.15,-2.149 -11.1,1.199 z m 25.65,-15.75 1.201,-11.101 -2.051,2.05 -1.199,11.1 z m 8.65,12.699 12.1,-1.3 2.05,-2.05 -12.099,1.3 z m -2.1,-15.5 1.6,1.6 -7.65,7.6 3.55,3.55 4.75,-4.699 0.7,-7.401 -1.85,-1.8 z m -146.75,-149.75 -2.05,2.051 -1.2,11.099 2.05,-2.05 z m 8.25,9 -1.849,-1.85 -1.101,1.151 1.65,1.649 -7.65,7.601 3.55,3.5 4.75,-4.701 z m 5.151,26.65 2.349,-2.349 -1.2,-1.201 -2.35,2.35 -21.7,-21.7 -7.8,0.95 -2.35,2.3 0.9,0.9 2.1,-2.099 21.7,21.699 z m -6,-11.8 12.149,-1.35 2.05,-2.05 -12.15,1.351 z m -21.101,-0.25 -11.1,1.201 -2.049,2.049 11,-1.1 z m 0.851,16.8 1.25,-1.2 -1.801,-1.85 7.25,-7.299 -3.55,-3.5 -4.1,4.099 -0.85,7.901 z m 8.5,5.5 1.299,-11.599 -2.15,2.149 -1.2,11.5 z m -70.701,-70.7 1.3,-11.6 -2.15,2.15 -1.199,11.5 z m -9.35,119.101 -11.1,1.199 -2.05,2.051 11,-1.101 z m 13.7,-23.601 -2.05,2.05 -1.2,11.1 2.05,-2.049 z m 2.851,21.05 4.699,-4.699 0.7,-7.351 -1.85,-1.85 -1.15,1.15 1.65,1.65 -7.6,7.6 z m -17.5,17.5 1.799,1.85 1.201,-1.2 -1.801,-1.849 7.301,-7.301 -3.551,-3.5 -4.1,4.1 z m 9.449,-2.1 -1.199,11.5 2.049,-2.05 1.3,-11.6 z m 26.75,-16 -12.1,1.35 -2.05,2.051 12.1,-1.351 z m -7,11.651 -2.35,2.349 -21.7,-21.7 -7.85,0.95 -2.299,2.3 0.899,0.9 2.101,-2.1 21.699,21.7 8.35,-0.85 2.35,-2.35 z m 42.45,62.25 -11.1,1.199 -2.049,2.051 11,-1.101 z m 12.5,-12.5 1.2,-11.101 -2.05,2.05 -1.2,11.1 z m 22.75,9.349 -12.1,1.3 -2.049,2.05 12.099,-1.3 z m -13.3,-11.5 -1.8,-1.849 -1.15,1.149 1.601,1.65 -7.601,7.6 3.55,3.55 4.7,-4.699 z m 5.2,26.651 2.35,-2.351 -1.2,-1.2 -2.35,2.35 -21.75,-21.7 -7.849,0.95 -2.301,2.3 0.9,0.901 2.1,-2.101 21.75,21.7 z m -18.65,0.799 -1.149,11.5 2.049,-2.049 1.25,-11.601 z m -9.45,2.15 1.85,1.801 1.201,-1.201 -1.851,-1.799 7.3,-7.301 -3.55,-3.55 -4.1,4.101 z m -49.6,39.25 -1.15,1.15 1.6,1.651 -7.65,7.649 3.55,3.55 4.75,-4.75 0.7,-7.4 z m -7.65,4 1.2,-11.1 -2.05,2.05 -1.2,11.101 z m 8.6,12.7 12.1,-1.3 2.05,-2.05 -12.1,1.3 z m -32.25,1.05 -2.049,2.051 11.049,-1.151 2.1,-2.099 z m 11.4,12.5 7.301,-7.3 -3.551,-3.55 -4.1,4.1 -0.849,7.95 1.849,1.8 1.2,-1.199 z m 26.9,-1.75 2.3,-2.3 -1.2,-1.2 -2.3,2.301 -21.75,-21.701 -7.85,0.951 -2.35,2.349 0.9,0.901 2.151,-2.151 21.75,21.7 z m -18.65,0.801 -1.15,11.5 2.05,-2.051 1.2,-11.55 z m 74.7,45.399 1.2,-11.1 -2.05,2.05 -1.2,11.1 z m 4,10 4.75,-4.75 0.75,-7.399 -1.85,-1.801 -1.15,1.15 1.601,1.6 -7.651,7.65 z m 18.75,-0.649 -12.05,1.299 -2.05,2.05 12.05,-1.3 z m -48.45,6.449 11.051,-1.15 2.099,-2.1 -11.099,1.2 z m 40.35,8.75 2.3,-2.3 -1.2,-1.2 -2.3,2.301 -21.7,-21.75 -7.899,0.949 -2.351,2.35 0.95,0.951 2.151,-2.151 21.699,21.7 z m -25.049,3.551 -1.851,-1.851 7.3,-7.3 -3.55,-3.55 -4.1,4.1 -0.85,7.95 1.85,1.85 z m 7.299,6.699 1.25,-11.6 -2.1,2.1 -1.199,11.551 z m 159.15,-151.65 2.35,-2.35 -1.2,-1.199 -2.349,2.349 -21.701,-21.75 -7.85,0.95 -2.35,2.3 0.95,0.95 2.1,-2.1 21.7,21.7 z m -18.6,0.75 -1.2,11.55 2.05,-2.05 1.301,-11.65 z m -9.5,2.15 1.85,1.85 1.25,-1.2 -1.85,-1.849 7.25,-7.301 -3.55,-3.55 -4.1,4.101 z m -69.75,55.75 -11.099,1.2 -2.051,2.05 11,-1.1 z m 0.25,13.75 7.3,-7.3 -3.55,-3.55 -4.099,4.1 -0.851,7.95 1.851,1.851 1.199,-1.201 z m 19.901,-30.199 -1.151,1.149 1.6,1.601 -7.6,7.599 3.55,3.55 4.7,-4.7 0.75,-7.4 z m -7.651,3.949 1.2,-11.1 -2.049,2.05 -1.201,11.101 z m 8.651,12.7 12.049,-1.3 2.05,-2.05 -12.05,1.3 z m -12.601,12.601 -1.2,11.549 2.051,-2.049 1.299,-11.651 z m 19.75,-4.301 -2.35,2.35 -21.7,-21.75 -7.9,0.951 -2.3,2.299 0.95,0.951 2.1,-2.101 21.7,21.7 8.351,-0.849 2.349,-2.351 z m 63.55,62.45 12.051,-1.35 2.049,-2.049 -12.049,1.349 z m -23.3,1.9 2.15,-2.15 -11.1,1.2 -2.05,2.05 z m 18.7,-4.7 4.7,-4.7 0.75,-7.35 -1.85,-1.85 -1.15,1.15 1.65,1.6 -7.6,7.6 z m -4.05,-9.95 1.201,-11.1 -2.051,2.05 -1.199,11.1 z m -10.4,28.101 -1.85,-1.851 7.3,-7.3 -3.5,-3.55 -4.099,4.1 -0.901,7.95 1.85,1.85 z m 7.3,6.699 1.301,-11.6 -2.151,2.151 -1.2,11.5 z m 17.75,-10.25 2.35,-2.35 -1.2,-1.2 -2.349,2.351 -21.701,-21.701 -7.9,0.9 -2.3,2.301 0.95,0.949 2.1,-2.1 21.7,21.7 z m 194.4,-343.3 1.3,-11.6 -2.149,2.1 -1.201,11.55 z m 141.401,0 1.299,-11.6 -2.15,2.15 -1.199,11.5 z m -58.951,48.65 12.05,-1.35 2.05,-2.05 -12.05,1.351 z m -4.65,-2.75 4.75,-4.75 0.75,-7.35 -1.85,-1.85 -1.15,1.151 1.65,1.599 -7.65,7.651 z m -19.399,-6.299 21.7,21.699 8.349,-0.85 2.35,-2.3 -1.199,-1.2 -2.351,2.3 -21.7,-21.7 -7.899,0.9 -2.3,2.35 0.949,0.95 z m 14.549,-12.75 -1.2,11.099 2.05,-2.05 1.2,-11.1 z m -7.599,24.449 -4.101,4.1 -0.899,7.951 1.849,1.849 1.201,-1.2 -1.851,-1.85 7.301,-7.299 z m -17.25,0.4 11.05,-1.15 2.149,-2.1 -11.149,1.2 z m 22.599,19 1.3,-11.55 -2.149,2.1 -1.2,11.5 z m -66.4,24.8 -2.05,2.05 -1.2,11.15 2.051,-2.05 z m 2.801,21.101 4.75,-4.75 0.75,-7.301 -1.851,-1.85 -1.149,1.1 1.649,1.6 -7.649,7.65 z m 4.649,2.799 12.05,-1.4 2.051,-2.05 -12.051,1.401 z m 47.401,72.55 2.099,-2.099 -11.099,1.199 -2.05,2.051 z m 14.649,-14.599 1.2,-11.151 -2.05,2.05 -1.2,11.15 z m 58.2,-58.201 -11.149,1.201 -2.051,2.049 11.051,-1.15 z m 13.7,-23.65 -2.049,2.05 -1.201,11.1 2.05,-2.049 z m 2.8,21.101 4.75,-4.75 0.75,-7.351 -1.849,-1.85 -1.151,1.15 1.651,1.65 -7.651,7.651 z m -17.45,17.449 1.851,1.85 1.2,-1.2 -1.851,-1.849 7.3,-7.301 -3.5,-3.5 -4.1,4.1 z m 28.101,-2.9 2.349,-2.299 -1.2,-1.201 -2.35,2.3 -21.7,-21.7 -7.849,0.95 -2.3,2.35 0.899,0.9 2.101,-2.15 21.699,21.7 z m -16.451,-1.299 -2.15,2.099 -1.199,11.5 2.05,-2.05 z m -60.25,60.25 12.05,-1.401 2.05,-2.05 -12.05,1.4 z m -0.5,-13.951 -7.65,7.65 3.5,3.5 4.75,-4.75 0.75,-7.3 -1.85,-1.85 -1.15,1.1 z m -148.35,-151.35 -2.05,2.051 -1.2,11.149 2.051,-2.05 z m 8.301,9 -1.851,-1.8 -1.149,1.101 1.599,1.599 -7.65,7.651 3.551,3.549 4.75,-4.75 z m -0.851,14.85 12.05,-1.35 2.051,-2.05 -12.051,1.351 z m -20.899,13.5 7.299,-7.25 -3.549,-3.549 -4.101,4.099 -0.85,7.901 1.85,1.849 1.2,-1.2 z m 9.149,8.6 1.25,-11.649 -2.1,2.099 -1.2,11.6 z m -15.399,-29.95 0.949,0.95 2.15,-2.149 21.7,21.699 8.35,-0.8 2.3,-2.35 -1.199,-1.2 -2.301,2.35 -21.699,-21.75 -7.901,0.9 z m -55.301,-40.8 1.2,-11.6 -2.1,2.1 -1.15,11.55 z m 48.1,51.7 11.05,-1.15 2.1,-2.1 -11.1,1.2 z m -57.549,67.45 -11.101,1.201 -2.05,2.049 11.05,-1.15 z m 11.649,-21.549 -1.2,11.099 2.051,-2.05 1.199,-11.1 z m 4.9,19 4.75,-4.75 0.701,-7.351 -1.851,-1.8 -1.1,1.1 1.6,1.6 -7.649,7.65 z m 4.6,2.75 12.101,-1.351 2.049,-2.05 -12.1,1.35 z m -21.25,6.799 -0.8,7.9 1.85,1.85 1.2,-1.2 -1.85,-1.849 7.25,-7.25 -3.549,-3.551 z m 27.25,5.05 2.351,-2.349 -1.201,-1.201 -2.35,2.35 -21.699,-21.75 -7.851,0.9 -2.35,2.35 0.951,0.95 2.099,-2.099 21.7,21.699 z m -18.55,0.7 -1.25,11.6 2.05,-2.05 1.3,-11.65 z m 48.95,61.201 11.05,-1.151 2.1,-2.099 -11.1,1.199 z m 72.75,-72.75 -2.049,2.049 11.049,-1.15 2.1,-2.1 z m 5.151,-8.851 0.949,0.95 2.15,-2.15 21.701,21.7 8.349,-0.8 2.3,-2.349 -1.199,-1.201 -2.301,2.35 -21.699,-21.7 -7.901,0.85 z m 8.099,23.2 -1.849,-1.849 7.3,-7.25 -3.5,-3.551 -4.101,4.1 -0.899,7.9 1.849,1.85 z m 5.25,8.8 2.05,-2.05 1.25,-11.599 -2.099,2.099 z m -65.6,33.851 1.2,-11.101 -2.05,2.05 -1.2,11.1 z m 8.65,12.75 12.1,-1.401 2.051,-2.05 -12.101,1.4 z m 0.85,-14.851 -1.85,-1.85 -1.099,1.1 1.649,1.601 -7.649,7.649 3.5,3.55 4.75,-4.75 z m 5.15,26.65 2.35,-2.35 -1.199,-1.199 -2.351,2.349 -21.7,-21.7 -7.85,0.851 -2.349,2.349 0.949,0.95 2.1,-2.1 21.701,21.7 z m -18.55,0.75 -1.25,11.55 2.05,-2.05 1.3,-11.6 z m -1.049,-6.35 -3.5,-3.55 -4.101,4.101 -0.85,7.899 1.85,1.851 1.2,-1.201 -1.849,-1.85 z m 63.149,64.25 -11.1,1.2 -2.049,2.05 11.049,-1.15 z m 2.15,15.551 -1.849,-1.851 7.25,-7.25 -3.5,-3.5 -4.101,4.101 -0.849,7.849 1.849,1.85 z m -123.4,-32 -1.1,1.149 1.65,1.601 -7.65,7.599 3.5,3.55 4.75,-4.7 0.701,-7.35 z m -7.649,3.949 1.199,-11.1 -2.05,2.05 -1.2,11.101 z m -23.601,13.7 -2.05,2.05 11,-1.1 2.151,-2.15 z m 13.25,14.4 -1.85,-1.85 7.25,-7.3 -3.5,-3.55 -4.1,4.1 -0.9,7.95 1.85,1.851 z m 23.8,-4.75 -21.699,-21.7 -7.851,0.901 -2.35,2.299 0.951,0.951 2.099,-2.101 21.7,21.7 8.35,-0.849 2.351,-2.351 -1.201,-1.2 z m -17.4,2 -1.2,11.5 2.05,-2.049 1.3,-11.601 z m 26.75,-16 -12.1,1.35 -2.05,2.05 12.101,-1.35 z m 33.25,76 2.15,-2.15 -11.1,1.2 -2.05,2.05 z m 14.65,-14.65 1.2,-11.1 -2.05,2.05 -1.2,11.1 z m 4.051,9.95 4.75,-4.7 0.699,-7.35 -1.85,-1.85 -1.099,1.15 1.649,1.651 -7.649,7.599 z m 18.75,-0.599 -12.101,1.349 -2.05,2.05 12.1,-1.35 z m -8.151,15.199 2.35,-2.35 -1.199,-1.2 -2.351,2.351 -21.7,-21.701 -7.8,0.951 -2.35,2.299 0.9,0.9 2.1,-2.1 21.701,21.7 z m -17.75,10.25 1.3,-11.6 -2.149,2.151 -1.201,11.5 z m -7.25,-6.699 -1.849,-1.851 7.25,-7.3 -3.5,-3.5 -4.101,4.1 -0.899,7.9 1.849,1.85 z m 167.55,-148.5 -2.3,2.349 -21.7,-21.7 -7.85,0.9 -2.349,2.35 0.899,0.9 2.151,-2.15 21.7,21.7 8.349,-0.8 2.3,-2.35 z m 62.601,45.75 -1.151,1.099 1.651,1.651 -7.651,7.649 3.55,3.55 4.75,-4.75 0.7,-7.35 z m -7.601,4 1.2,-11.151 -2.05,2.05 -1.2,11.15 z m -23.649,13.699 -2.05,2.051 11.05,-1.151 2.099,-2.099 z m 11.399,12.5 7.301,-7.25 -3.551,-3.55 -4.1,4.101 -0.849,7.899 1.8,1.8 1.2,-1.199 z m 25.65,-2.9 -21.7,-21.7 -7.849,0.901 -2.351,2.349 0.9,0.901 2.151,-2.151 21.699,21.7 8.351,-0.799 2.299,-2.351 -1.2,-1.2 z m -15.299,-0.15 -2.101,2.101 -1.199,11.549 2.05,-2.049 z m -70.701,-70.7 -2.099,2.1 -1.2,11.55 2.049,-2.05 z m -3.099,-4.25 -3.5,-3.5 -4.101,4.1 -0.899,7.85 1.849,1.851 1.201,-1.201 -1.851,-1.85 z m -57.601,50.551 -7.649,7.649 3.5,3.5 4.75,-4.75 0.699,-7.3 -1.85,-1.849 -1.099,1.099 z m -8.2,1.199 1.2,-11.1 -2.05,2.05 -1.2,11.101 z m 8.65,12.75 12.1,-1.4 2.051,-2.049 -12.101,1.399 z m 4.8,10.6 -21.7,-21.7 -7.8,0.901 -2.349,2.349 0.899,0.901 2.101,-2.101 21.7,21.7 8.349,-0.849 2.35,-2.351 -1.199,-1.2 z m -15.25,-0.15 -2.099,2.101 -1.25,11.549 2.049,-2.049 z m 46.901,63.3 11.049,-1.15 2.1,-2.1 -11.1,1.2 z m 25.649,-15.75 1.2,-11.1 -2.05,2.05 -1.2,11.101 z m -10.399,28 -1.8,-1.8 7.25,-7.25 -3.551,-3.55 -4.1,4.1 -0.799,7.9 1.799,1.8 z m 7.25,6.75 1.299,-11.6 -2.099,2.1 -1.25,11.551 z m 10.75,-38.75 -1.101,1.1 1.65,1.65 -7.65,7.65 3.551,3.55 4.75,-4.75 0.649,-7.35 z m 1,16.7 12.149,-1.35 2.051,-2.049 -12.151,1.349 z m 4.799,10.601 -21.7,-21.701 -7.8,0.9 -2.349,2.35 0.899,0.9 2.101,-2.1 21.699,21.7 8.351,-0.85 2.349,-2.35 -1.2,-1.2 z M 23.601,725.5 11.551,726.8 9.5,728.851 21.551,727.55 Z M 4.9,726.15 9.601,721.4 10.351,714 8.5,712.2 7.351,713.351 8.95,714.95 1.351,722.601 Z M 0,707.101 -1.199,718.2 l 2.05,-2.05 1.2,-11.1 z m -17.6,13.949 0.951,0.95 2.099,-2.149 21.7,21.699 8.35,-0.85 2.351,-2.3 -1.201,-1.2 -2.349,2.3 -21.7,-21.75 -7.901,0.95 z m 3.8,9.75 2.151,-2.1 -11.101,1.2 -2.05,2.05 z m 2.401,11.6 7.299,-7.299 -3.549,-3.551 -4.101,4.1 -0.85,7.951 1.85,1.849 1.2,-1.2 z m 9.149,8.55 1.301,-11.599 L -3.1,741.45 -4.3,753 Z M 0.851,857.601 2.051,846.5 0,848.55 -1.199,859.65 Z M -13.8,872.2 l 2.101,-2.099 -11.101,1.199 -2.05,2.051 z m 11.55,20.2 1.25,-11.6 -2.1,2.1 -1.2,11.55 z m -9.149,-8.6 7.299,-7.25 -3.5,-3.55 -4.099,4.101 -0.901,7.899 1.85,1.851 1.2,-1.201 z m 35,-16.9 -12.05,1.4 -2.051,2.051 12.051,-1.401 z M 8.5,853.65 7.351,854.75 9,856.351 1.351,864 l 3.5,3.55 4.75,-4.75 0.75,-7.3 z m 5.801,27.3 -21.7,-21.7 -7.901,0.851 -2.349,2.349 0.95,0.95 2.149,-2.1 21.7,21.7 8.35,-0.85 2.301,-2.35 -1.2,-1.199 z m -96.7,-81.55 -11.101,1.201 -2.05,2.049 11.05,-1.15 z m 12.549,-12.5 1.201,-11.1 -2.05,2.051 -1.2,11.099 z m 4,9.951 4.75,-4.75 0.75,-7.351 -1.849,-1.8 -1.151,1.1 1.6,1.6 -7.649,7.65 z m 18.75,-0.651 -12.049,1.35 -2.05,2.051 12.05,-1.351 z m -84.849,-67.3 12.099,-1.35 2.05,-2.05 -12.099,1.351 z m -4.601,-2.75 4.75,-4.75 0.7,-7.35 -1.799,-1.85 -1.151,1.1 1.601,1.65 -7.651,7.651 z m -4.849,-19 -1.201,11.1 2.05,-2.05 1.2,-11.099 z m -2.25,43.8 1.2,-11.599 -2.101,2.099 -1.149,11.55 z m -8.5,-5.55 1.2,-1.2 -1.851,-1.8 7.3,-7.25 -3.55,-3.549 -4.099,4.099 -0.851,7.901 z m -6,-23.45 2.149,-2.099 21.75,21.699 8.351,-0.85 2.299,-2.349 -1.2,-1.201 -2.3,2.35 -21.75,-21.7 -7.849,0.9 -2.351,2.35 z m 2.95,8.85 2.099,-2.1 -11.099,1.2 -2.051,2.05 z m -33.301,65.4 -12.149,1.35 -2.05,2.051 12.149,-1.351 z m 22.25,77.151 11.051,-1.101 2.099,-2.149 -11.099,1.199 z m 48.45,-6.451 -12.099,1.35 -2.05,2.05 12.099,-1.35 z m -18.75,0.65 4.75,-4.75 0.7,-7.35 -1.849,-1.8 -1.101,1.1 1.601,1.601 -7.651,7.649 z m -4.05,-9.949 1.25,-11.101 -2.049,2.05 -1.25,11.1 z m -10.349,28.049 -1.851,-1.85 7.25,-7.25 -3.55,-3.55 -4.099,4.101 -0.801,7.899 1.851,1.851 z m 6.449,-2.75 -1.25,11.55 2.051,-2.05 1.3,-11.65 z m 19.7,-4.299 -2.349,2.349 -21.701,-21.75 -7.849,0.901 -2.351,2.349 0.95,0.95 2.151,-2.1 21.699,21.7 8.301,-0.85 2.349,-2.35 z m 69.601,-67.151 2.3,-2.349 -1.201,-1.201 -2.299,2.35 -21.701,-21.75 -7.9,0.9 -2.35,2.35 0.951,0.95 2.149,-2.099 21.7,21.699 z m -19.801,12.3 2.051,-2.05 1.25,-11.65 -2.101,2.1 z m -8.3,-9.45 1.851,1.85 1.199,-1.2 -1.85,-1.849 7.3,-7.25 -3.55,-3.551 -4.099,4.1 z m 17.45,123.95 4.75,-4.75 0.701,-7.3 -1.851,-1.849 -1.1,1.099 1.651,1.6 -7.651,7.65 z m -4.049,-9.95 1.25,-11.1 -2.05,2.05 -1.25,11.101 z m 22.799,9.301 -12.099,1.399 -2.051,2.05 12.101,-1.4 z m -35.299,3.199 -11.101,1.2 -2.05,2.05 11.05,-1.1 z m 7.349,24.35 2.05,-2.049 1.301,-11.601 -2.101,2.15 z m -5.2,-8.799 -1.85,-1.851 7.25,-7.25 -3.5,-3.55 -4.099,4.1 -0.851,7.9 1.851,1.85 z m 25,-3.5 2.351,-2.351 -1.201,-1.2 -2.349,2.35 -21.7,-21.7 -7.851,0.85 -2.35,2.35 0.951,0.951 2.149,-2.101 21.7,21.7 z m -133.25,-15.201 -12.1,1.3 -2.049,2.05 12.099,-1.3 z m 47.051,52.3 -1.2,11.1 2.049,-2.05 1.201,-11.1 z m 9.5,21.8 12.099,-1.35 2.05,-2.049 -12.099,1.349 z m -4.601,-2.8 4.75,-4.7 0.7,-7.35 -1.849,-1.85 -1.101,1.15 1.651,1.6 -7.651,7.6 z m -15.599,19.35 1.2,-1.199 -1.851,-1.851 7.25,-7.3 -3.5,-3.55 -4.099,4.1 -0.851,7.95 z m 8.45,5.5 1.3,-11.6 -2.101,2.151 -1.25,11.5 z m -15.351,-29.949 0.95,0.949 2.1,-2.1 21.7,21.7 8.351,-0.85 2.349,-2.35 -1.2,-1.2 -2.349,2.351 -21.701,-21.701 -7.849,0.9 z m -7.2,10.899 11.051,-1.1 2.099,-2.15 -11.099,1.2 z m -22.3,64.3 -12.05,1.35 -2.049,2.05 12.049,-1.349 z m 107.101,19.95 1.199,-1.2 -1.85,-1.85 7.25,-7.3 -3.5,-3.5 -4.099,4.1 -0.851,7.9 z m -0.95,-16.8 -11.101,1.2 -2.05,2.05 11.05,-1.099 z m 11.649,-21.55 -1.199,11.1 2.05,-2.05 1.2,-11.099 z m 17.851,31.25 -1.201,-1.2 -2.349,2.35 -21.7,-21.699 -7.8,0.949 -2.351,2.301 0.901,0.899 2.099,-2.1 21.7,21.701 8.35,-0.851 z m -12.951,-12.25 4.75,-4.7 0.701,-7.349 -1.851,-1.851 -1.1,1.15 1.651,1.65 -7.651,7.6 z m 18.75,-0.6 -12.099,1.35 -2.051,2.05 12.101,-1.349 z M 0.801,999 2.051,987.9 0,989.95 l -1.25,11.1 z m 22.8,9.3 -12.101,1.4 -2.05,2.05 12.101,-1.399 z m -18.75,0.65 4.75,-4.75 0.7,-7.3 -1.851,-1.85 -1.099,1.1 1.649,1.65 -7.649,7.65 z m -22.451,-5.05 0.901,0.9 2.149,-2.1 21.7,21.7 8.3,-0.85 2.351,-2.35 -1.2,-1.2 -2.351,2.351 -21.699,-21.701 -7.801,0.9 z m -7.25,10.85 11.05,-1.1 2.101,-2.15 -11.101,1.2 z m 15.3,12.3 -1.849,-1.85 7.25,-7.25 -3.5,-3.5 -4.101,4.1 -0.85,7.85 1.85,1.85 z m 7.25,6.75 1.3,-11.6 -2.1,2.151 -1.25,11.5 z m 10.75,102.65 -1.099,1.151 1.649,1.649 -7.649,7.601 3.549,3.549 4.75,-4.7 0.651,-7.4 z M 0,1131.4 l -1.199,11.1 2.05,-2.05 1.2,-11.099 z m -4.1,28 -3.549,-3.549 -4.101,4.099 -0.8,7.95 1.8,1.8 1.2,-1.2 -1.8,-1.8 z m -20.7,-3.2 11.05,-1.099 2.101,-2.151 -11.101,1.2 z m 22.5,19 1.3,-11.599 -2.1,2.149 -1.25,11.5 z m 16.55,-11.45 -21.699,-21.7 -7.801,0.95 -2.35,2.3 0.901,0.9 2.099,-2.099 21.701,21.699 8.349,-0.85 2.351,-2.349 -1.2,-1.201 z m -4.8,-10.6 12.151,-1.299 2.049,-2.051 -12.15,1.301 z m -23.25,143.35 2.151,-2.149 -11.101,1.199 -2.05,2.051 z m 14.651,-14.649 1.2,-11.101 -2.051,2.05 -1.199,11.1 z m 8.599,12.699 12.101,-1.3 2.05,-2.05 -12.101,1.3 z m 0.851,-14.85 -1.801,-1.8 -1.149,1.15 1.599,1.6 -7.599,7.65 3.549,3.551 4.701,-4.75 z M -73,1104.5 l 1.301,-11.6 -2.101,2.15 -1.25,11.5 z m -68.449,26.851 -1.2,11.099 2.049,-2.05 1.201,-11.1 z m 10.349,6.949 -1.849,-1.85 -1.151,1.151 1.651,1.649 -7.601,7.65 3.5,3.5 4.7,-4.75 z m -35.15,17.85 11,-1.1 2.15,-2.15 -11.099,1.201 z m 42.65,6.451 -1.2,-1.201 -2.349,2.35 -21.701,-21.7 -7.849,0.95 -2.301,2.3 0.9,0.9 2.1,-2.099 21.7,21.699 8.351,-0.85 z m -8.349,-9.451 12.05,-1.35 2.049,-2.05 -12.049,1.351 z m -21.2,6.8 -0.901,7.901 1.851,1.849 1.199,-1.2 -1.85,-1.85 7.3,-7.299 -3.5,-3.5 z m 9.45,15.25 1.3,-11.599 -2.151,2.149 -1.2,11.5 z m -44.851,45.25 -12.05,1.35 -2.049,2.051 12.049,-1.351 z m 22.3,77.2 11.051,-1.15 2.149,-2.1 -11.149,1.201 z m 25.7,-15.799 1.2,-11.101 -2.049,2.05 -1.201,11.1 z m 8.601,12.699 12.099,-1.3 2.05,-2.05 -12.099,1.3 z m 0.849,-14.85 -1.849,-1.849 -1.151,1.149 1.651,1.65 -7.651,7.65 3.55,3.551 4.75,-4.75 z m 62.451,-79.65 -2.05,2.051 -1.2,11.099 2.049,-2.05 z m 2.849,21.1 4.7,-4.75 0.701,-7.4 -1.851,-1.85 -1.149,1.15 1.649,1.65 -7.6,7.651 z m 4.55,2.701 12.101,-1.301 2.049,-2.05 -12.099,1.3 z M -86,1213.7 l -2.3,2.3 0.901,0.9 2.099,-2.1 21.7,21.7 8.35,-0.85 2.351,-2.35 -1.201,-1.199 -2.349,2.349 -21.7,-21.7 z m -9.5,13.2 11,-1.1 2.15,-2.15 -11.099,1.201 z m 14,13.5 1.2,-1.2 -1.8,-1.8 7.3,-7.299 -3.55,-3.551 -4.099,4.1 -0.851,7.951 z m 6.45,7.55 2.05,-2.05 1.301,-11.6 -2.151,2.15 z m -20.5,120.401 11.05,-1.151 2.15,-2.099 -11.15,1.199 z m 14.101,13.5 1.199,-1.201 -1.85,-1.85 7.3,-7.3 -3.55,-3.55 -4.099,4.1 -0.851,7.95 z m 19.25,-33.25 -1.151,1.149 1.6,1.601 -7.649,7.649 3.549,3.55 4.75,-4.75 0.701,-7.4 z m -7.651,3.949 1.201,-11.1 -2.05,2.05 -1.2,11.101 z m 8.6,12.7 12.101,-1.3 2.049,-2.05 -12.099,1.3 z m 4.801,10.601 -21.7,-21.701 -7.851,0.951 -2.3,2.349 0.901,0.901 2.099,-2.151 21.75,21.75 8.351,-0.9 2.349,-2.3 -1.25,-1.2 z m -15.25,-0.101 -2.151,2.101 -1.15,11.549 2.051,-2.049 z m -53.101,-72.899 -2.349,2.299 -21.701,-21.7 -7.849,0.95 -2.301,2.35 0.9,0.9 2.1,-2.15 21.7,21.7 8.351,-0.849 2.349,-2.301 z m -18.899,13.75 1.3,-11.551 -2.151,2.1 -1.2,11.5 z m -9.101,-8.5 7.3,-7.301 -3.55,-3.55 -4.099,4.101 -0.851,7.949 1.801,1.801 1.199,-1.201 z m -35.7,53.799 -12.1,1.35 -2.049,2.05 12.099,-1.35 z m 47.95,61.4 1.2,-11.15 -2.049,2.05 -1.201,11.151 z m 4,9.95 4.75,-4.75 0.7,-7.35 -1.799,-1.799 -1.151,1.099 1.601,1.6 -7.651,7.65 z m 18.75,-0.649 -12.099,1.349 -2.05,2.05 12.099,-1.35 z m -37.399,5.299 2.099,-2.1 -11.099,1.2 -2.051,2.05 z m 29.3,9.9 2.299,-2.35 -1.25,-1.2 -2.299,2.351 -21.701,-21.701 -7.849,0.9 -2.351,2.35 0.901,0.9 2.149,-2.15 21.75,21.75 z m -25.05,3.551 -1.851,-1.851 7.3,-7.25 -3.55,-3.55 -4.099,4.1 -0.851,7.9 1.851,1.85 z m 5.25,8.799 2.05,-2.049 1.2,-11.651 -2.101,2.1 z m 159.949,-155 -21.699,-21.7 -7.851,0.95 -2.3,2.3 0.901,0.901 2.099,-2.101 21.75,21.75 8.35,-0.899 2.351,-2.351 -1.25,-1.2 z m -16.5,11.5 1.25,-11.65 -2.149,2.15 -1.151,11.55 z m -9.149,-8.549 7.299,-7.301 -3.549,-3.55 -4.101,4.101 -0.85,7.949 1.85,1.85 1.2,-1.2 z"
       style="fill:#354767;fill-opacity:1;fill-rule:evenodd;stroke:none"
       transform="matrix(1.3333333,0,0,-1.3333333,1123.4661,1995.2005)" />
  </g>
  <g
     id="layer-MC2">
    <path
       id="path3"
       d="M 0,0 -35.351,-35.35 M 0.05,35.4 -35.3,70.75 M 0,141.4 -35.351,106.05 M -282.8,-565.65 -318.15,-601 m -106.1,35.35 -35.35,-35.35 m 106.05,-0.05 -35.35,35.35 m -176.75,0 -35.35,-35.35 m 106.05,0 -35.35,35.35 m 671.75,0 -35.35,-35.35 M 70.75,-601 35.399,-565.65 M 0,-565.7 -35.351,-601.05 m -176.75,0 -35.349,35.35 m 176.75,-35.3 -35.35,35.35 m -70.7,-35.4 35.35,35.35 m 141.45,-707.1 -35.401,-35.35 m 17.601,-52.85 -17.55,17.55 m 35.35,106.05 -35.401,35.35 M 0,-1096 l -35.351,35.35 M 0.05,-1131.351 -35.3,-1166.7 m 35.35,176.8 -35.35,-35.35 M 0.05,-813.2 -35.3,-777.8 M 0,-954.601 -35.351,-919.25 m 0,35.399 L 0,-848.5 m 0,141.399 -35.351,-35.349 m 35.401,70.75 -35.35,35.349 m 223.55,59.201 -11.45,11.5 M 0,-530.3 l -35.351,35.35 m 0.051,35.3 35.35,35.35 m 0,141.5 -35.35,-35.35 M 0,-388.9 -35.351,-353.55 M 0,-247.5 -35.351,-212.15 M 0.05,-106.1 -35.3,-70.75 M 0,-141.4 -35.351,-176.75 M 141.45,-989.9 106.1,-1025.25 m 35.35,-247.55 -35.35,-35.35 m 35.35,212.15 -35.4,35.35 m 35.4,-70.701 -35.35,-35.349 m 35.35,-70.7 -35.35,35.35 m -35.35,35.35 -35.4,35.349 m 152.9,-94.599 -11.45,-11.45 m -106.05,-70.701 -35.351,35.351 m 35.351,70.649 -35.351,-35.349 M 70.75,-1343.5 53.25,-1361 m 17.5,300.399 -35.351,-35.349 m 35.301,70.65 -35.35,35.35 m 152.9,-152.85 -11.45,11.449 m 11.45,46.801 -11.45,-11.45 m 11.45,94.6 -11.45,11.45 m -35.35,35.349 -35.35,35.351 m -0.05,176.8 35.349,35.349 M 141.45,-848.5 106.1,-883.851 m 35.35,70.701 -35.35,35.35 m 35.35,106.05 -35.35,35.399 m 82.15,-306.75 -11.45,-11.449 m 11.45,94.6 -11.45,11.45 m 11.45,46.8 -11.45,-11.45 m -141.45,0 35.35,35.35 m 0.05,-141.4 -35.351,-35.35 m 35.351,70.65 -35.351,35.35 m 35.351,106.1 -35.351,35.4 M 70.7,-636.4 35.35,-671.75 m 141.45,0 11.45,11.45 m 0,-58.25 -11.45,11.449 M -353.5,-1343.45 -371,-1361 m 17.45,300.35 -35.35,-35.35 m 35.4,-70.75 -35.35,35.399 m -0.05,-106.049 35.35,35.35 m 0.05,-106.1 -35.35,35.35 m 0,459.6 35.35,35.349 m -0.05,35.401 -35.35,35.349 m 35.4,-212.149 -35.4,-35.351 m 35.35,70.75 -35.35,35.351 m 35.4,212.149 -35.35,-35.349 m 35.35,-353.55 -35.35,35.35 m 70.65,-176.8 35.35,35.349 m 70.749,-35.349 -35.349,35.349 m 176.75,-35.349 -35.35,35.349 m -35.301,0 -35.399,-35.349 m 106.1,-141.401 -35.4,35.351 m 35.35,-70.75 -17.5,-17.5 m -53.2,88.25 -35.35,-35.351 m 17.55,-52.899 -17.55,17.5 m 35.35,106.1 -35.35,35.35 m 106.1,0 -35.4,-35.35 m -106.051,-70.75 -35.349,35.35 m 35.349,-70.65 -17.549,-17.55 m -71,0 -17.5,17.5 m 35.35,70.75 -35.35,-35.351 m 35.35,70.651 -35.35,35.349 m 106.049,0.051 -35.349,-35.35 m -0.05,141.4 35.399,35.35 m -70.699,-35.35 -35.35,35.399 m 35.35,70.651 -35.4,-35.35 m 106.099,0 -35.349,35.4 m 176.8,-70.75 L -106,-1096 m -35.4,0 -35.35,35.35 m 0,35.35 35.35,35.35 m 70.7,-35.35 -35.35,35.35 m -388.9,-318.2 -35.35,35.4 m 35.35,70.7 -35.35,-35.4 m -35.35,106.099 -35.35,-35.399 m -35.4,0.05 -20.8,20.8 m 232.95,14.549 -35.35,-35.349 m -35.35,106.05 -35.35,-35.35 m 35.4,-70.7 -35.35,35.349 m 35.3,106.051 -35.35,35.35 m 70.7,-318.2 35.35,35.4 m 0.05,35.3 -35.35,35.4 m 17.45,-158.95 -17.5,17.5 m -52.85,-17.5 17.5,17.5 m -88.5,-17.5 -17.55,17.55 m 35.35,70.65 -35.35,-35.35 m -35.35,0.049 -20.85,20.851 m 20.85,85.149 -20.85,-20.849 m 91.55,-14.45 -35.35,35.35 m 35.35,106.05 -35.35,35.35 m -56.2,-20.9 20.85,20.9 m 0,35.35 -20.85,20.85 m 56.2,-20.85 35.35,35.35 m 141.4,0 -35.35,-35.35 m 35.4,-70.7 -35.35,35.35 m -35.35,282.85 -35.4,-35.35 m 0,-141.451 35.35,35.351 m 0,35.399 -35.35,35.351 m 35.35,106.05 -35.35,35.349 m 35.35,70.701 -35.35,-35.35 m 106.05,-141.4 -35.35,35.35 m 0,-106.1 35.4,35.35 m -0.05,-106 -35.35,35.35 m -176.75,35.3 -20.85,20.85 m 91.55,14.55 -35.35,-35.351 m 35.35,-70.75 -35.35,35.351 m -35.35,0.05 -20.85,-20.85 m 20.8,162.25 -20.8,-20.801 m 91.55,-14.549 -35.35,35.35 m 35.35,106.05 -35.35,35.35 m 35.35,-70.701 -35.4,-35.349 m -35.3,0 -20.85,20.849 m 20.85,120.601 -20.85,20.85 m 20.85,-56.25 -20.85,-20.85 m 233,-49.851 -35.35,-35.349 m 35.3,70.7 -35.35,35.35 m 318.2,-212.1 -35.35,-35.351 m 106.05,-0.049 -35.35,35.4 m 0,-106.05 35.35,35.35 m -70.7,-35.401 -35.35,35.401 m 35.35,106.05 -35.35,35.35 m 106.05,0 -35.35,-35.35 m -176.75,-35.4 -35.35,-35.35 m 106.049,0.049 -35.349,35.351 m 35.349,-70.75 -35.349,-35.351 m -35.35,0.051 -35.35,35.35 m 35.3,106.05 -35.35,35.35 m 106.099,0 -35.349,-35.35 m -35.4,141.4 -35.35,35.35 m 70.75,-35.35 35.349,35.35 m -0.049,-106.05 -35.35,35.349 m -70.65,-35.349 35.35,35.349 m 141.4,35.351 -35.35,35.35 m 106.05,0 -35.35,-35.35 m 35.4,-70.7 -35.35,35.349 m -35.4,0 -35.35,-35.349 m -176.8,247.5 -35.35,-35.35 m 35.4,601.05 -35.35,-35.35 m 35.3,-70.75 L -388.9,0 m 35.35,-212.15 -35.35,-35.35 m 35.4,-70.65 -35.35,35.35 m 35.3,-70.75 -35.35,-35.35 m 35.4,-70.75 -35.35,35.35 m 0,318.2 35.35,35.35 m -0.05,-106 -35.35,35.35 m 35.35,247.45 -35.35,35.35 m -70.7,-318.2 35.35,35.35 m -70.7,-35.3 -35.35,35.35 m -35.35,0 -35.35,-35.35 m -35.35,-0.05 -20.85,20.85 m 586.5,-20.85 -35.35,35.35 m -35.35,0.05 -35.35,-35.35 m -106.05,35.3 -35.35,-35.35 m 106.049,0.05 -35.349,35.35 m -35.35,-247.5 -35.35,35.35 m 106,0 -35.35,-35.35 m 176.85,35.35 -35.35,-35.35 m -35.4,0 -35.35,35.35 m 70.7,-176.8 35.35,35.35 m -70.7,-35.3 -35.35,35.35 m 35.35,70.7 -35.35,-35.35 m 106.05,0 -35.35,35.35 m -106.051,-70.7 -35.349,-35.35 m -35.35,-0.05 -35.35,35.35 m 35.3,70.75 -35.35,-35.35 m 106.099,0 -35.349,35.35 m 35.349,106.05 -35.349,35.35 m -35.4,0 -35.35,-35.35 m 35.4,70.75 -35.35,35.35 m 106.049,-0.05 -35.349,-35.35 m 176.75,-70.7 -35.35,35.35 m -35.35,0 -35.35,-35.35 m 35.35,70.7 -35.35,35.35 m 106.05,0.05 -35.35,-35.35 m -388.9,-247.5 -35.35,-35.35 m 35.35,70.7 -35.35,35.35 m -35.4,35.35 -35.35,35.35 m 176.85,-35.35 -35.35,35.35 m -35.4,35.35 -35.35,35.35 m 35.35,-70.7 -35.35,-35.35 m 0,141.4 35.35,35.35 m 70.7,-212.1 -35.35,-35.35 m 35.35,-70.75 -35.35,35.35 m -106.05,-35.3 -35.35,35.35 m -35.35,-0.05 -20.85,-20.85 m 20.8,56.25 -20.8,20.8 m 91.55,14.55 -35.35,-35.35 m 0,141.4 35.35,35.35 m -70.75,-35.35 -20.8,20.8 m 0,-77 20.85,20.85 m 0,141.45 -20.85,-20.85 m 91.55,-14.55 -35.35,35.35 m 176.75,-35.3 -35.35,35.35 m 35.35,-70.75 -35.35,-35.35 M -494.95,70.7 -530.3,35.35 m 35.35,70.7 -35.35,35.35 m 0,35.4 19.7,19.7 m 15.65,-267.2 -35.35,-35.35 m 35.35,70.7 L -530.3,0 m 106.05,-106.05 -35.35,35.35 m 35.4,70.7 -35.35,-35.35 m -106.1,-70.7 -35.35,35.35 m -35.4,0 -20.8,-20.8 m 20.85,56.15 -20.85,20.85 m 91.5,14.5 -35.35,-35.35 m 0.05,141.4 35.35,35.35 m 0,-106.05 L -601,70.7 m -56.2,-20.8 20.8,20.8 m 212.15,70.75 -35.35,-35.35 m 35.35,-70.75 -35.35,35.35 m 35.35,106.05 -19.75,19.75 m 74.8,0 -19.7,-19.7 m 247.5,-282.85 -35.35,35.35 m 106.05,0 -35.35,-35.35 M -141.4,0 -176.75,-35.35 m 106.1,0 L -106,0 m -106.101,-70.7 -35.349,-35.35 m -35.4,0 -35.35,35.35 m 0.05,35.35 L -282.8,0 M -212.15,-35.35 -247.5,0 m -35.3,141.45 -35.35,-35.35 m 106.049,-0.05 -35.349,35.35 m 0,-106.05 35.349,35.35 M -282.85,35.35 -318.2,70.7 m 35.4,106.05 -19.75,19.75 m 74.8,0 -19.7,-19.7 m 70.7,-70.75 35.35,35.35 m 70.7,-35.3 -35.35,35.35 M -70.7,70.7 -106.05,35.35 m -35.35,0 -35.35,35.35 m 35.35,106.1 -19.701,19.7 m 55.051,-19.75 19.75,19.75 m 227.75,-337.9 -35.35,-35.35 m -35.35,-0.05 -35.351,35.35 M 141.45,-424.25 106.1,-459.6 m 35.35,-70.7 -35.35,35.35 m 35.35,247.45 -35.35,35.35 m 0,-106.05 35.35,35.35 m -0.051,-106.05 -35.349,35.35 m -70.651,-35.35 35.351,35.35 m 117.5,-165.3 -11.45,-11.45 m 11.45,94.6 -11.45,11.45 m 11.45,46.8 -11.45,-11.45 M 70.75,-495 35.399,-530.35 m 35.301,70.75 -35.35,35.35 m 35.35,106.05 -35.35,35.35 m 35.4,70.75 -35.351,-35.35 m 152.851,-46.85 -11.45,11.45 m 0,35.35 11.45,11.45 M 106.1,70.7 141.45,35.35 M 141.399,0 106.05,-35.35 m 35.4,-70.7 -35.35,35.35 m 82.15,-82.15 -11.45,11.45 m 11.45,46.8 -11.45,-11.45 M 176.8,0 188.25,-11.45 M 70.7,-70.7 35.35,-106.05 m 35.4,70.7 L 35.399,0 M 70.7,70.7 35.35,35.35 M 35.399,141.45 70.75,106.1 M -19.7,196.5 0,176.8"
       style="fill:none;stroke:#354767;stroke-width:2;stroke-linecap:butt;stroke-linejoin:miter;stroke-miterlimit:3;stroke-dasharray:none;stroke-opacity:1"
       transform="matrix(1.3333333,0,0,-1.3333333,910.26693,292.39973)" />
  </g>
  <g
     id="layer-MC3">
    <path
       id="path4"
       d="M 0,0 C 40.433,0.967 60.75,1.433 60.95,1.399 61.417,1.3 61.467,1.083 61.1,0.75 60.867,0.55 60.4,0.133 59.7,-0.5 c -1.4,-1.434 -1,-2.967 1.2,-4.601 L 79.35,-5.75 c 0.733,-0.3 1.4,-1.617 2,-3.95 0.5,-2.033 1.966,-3.05 4.4,-3.05 25.233,0 44.184,1.833 56.85,5.5 9,2.566 15.85,6.566 20.55,12 2.3,2.933 4,5.083 5.1,6.45 1.967,2.4 4,4.267 6.1,5.6 5.733,3.667 15.3,5.5 28.7,5.5 9.134,0 16.35,-3.401 21.65,-10.2 1.2,-1.534 3.05,-4.417 5.55,-8.65 2.066,-3.467 3.833,-5.9 5.3,-7.301 4.6,-4.333 11.217,-7.849 19.85,-10.549 0.4,-0.1 3.833,-1.067 10.3,-2.9 3.9,-1.1 6.916,-2.134 9.05,-3.1 7.566,0.299 14.45,0.966 20.65,2 4.3,0.733 7.833,1.549 10.6,2.45 h 61.2 c 23,-16.5 36.934,-31.167 41.8,-44 1.967,-5.2 3.033,-11.367 3.2,-18.5 0.067,-4.267 -0.05,-11.267 -0.35,-21 0,-0.734 0.216,-2.833 0.65,-6.3 0.434,-3.9 0.566,-7.517 0.4,-10.851 -0.466,-10.632 -3.716,-19.649 -9.75,-27.049 -18.7,-23 -61.917,-29.201 -129.65,-18.6 -4.8,-3.167 -12.967,-9.167 -24.5,-18 -9.866,-7.533 -14.983,-11.3 -15.35,-11.3 -4,0 -8.067,1.533 -12.2,4.6 -0.7,0.5 -4.433,3.783 -11.2,9.849 -4.833,4.334 -9.333,7.434 -13.5,9.301 -5.833,2.633 -12.233,3.633 -19.2,3 h -20.4 c -3.3,-3.301 -6.016,-5.9 -8.15,-7.801 -3.7,-3.333 -7.366,-6.25 -11,-8.75 h -25.5 c -13.3,7.301 -28.45,13.5 -45.45,18.601 -23.9,7.133 -47.733,10.7 -71.5,10.7 -2.033,0 -5.483,-3.033 -10.35,-9.1 -5.033,-6.267 -8.383,-9.6 -10.05,-10 h -30.6 c -3.4,0.367 -6.2,0.817 -8.4,1.35 -4.133,1 -6.867,2.883 -8.2,5.65 -16.9,-2.3 -29.567,-5.617 -38,-9.951 -2.633,-1.366 -5.833,-3.366 -9.6,-6 -4.133,-2.899 -7.383,-5.016 -9.75,-6.349 h -20.4 c -9.167,3.433 -15.7,7.266 -19.6,11.5 -1.067,1.133 -2.6,3.099 -4.6,5.9 -2,2.767 -3.817,5.033 -5.45,6.8 -30.9,-4.833 -50.583,4.183 -59.05,27.05 -2.767,7.5 -4.267,16.467 -4.5,26.9 0.3,10 0.45,16.033 0.45,18.1 -0.167,10.4 -0.267,18.383 -0.3,23.95 -0.067,9.967 0.183,18.533 0.75,25.7 1.667,20.3 6.617,37.433 14.85,51.4 11.6,19.5 23.567,29.833 35.9,31 9.767,0.933 20.033,-3.967 30.8,-14.701 5.4,-5.399 13.5,-15.632 24.3,-30.699 8.067,-11.233 13.533,-16.85 16.4,-16.85 12.133,0 23.183,5.833 33.15,17.5 2.133,2.5 5.317,6.75 9.55,12.75 3,4.266 5.133,6.716 6.4,7.35 h 20.4 C -43.017,14.333 -35.667,11.116 -28.3,7.55 -21.867,4.883 -12.433,2.366 0,0 m -286.05,469.6 c -0.633,-2.234 -1.433,-4.067 -2.4,-5.5 V 334.7 c 7.9,13.533 9.6,24.583 5.1,33.15 V 474.3 h -1.3 v -0.65 c -0.3,-0.467 -0.767,-1.817 -1.4,-4.05 m 98.75,638 c 0.533,-4.1 0.517,-9.717 -0.05,-16.85 0,-31 -6.783,-60.417 -20.35,-88.25 -15.533,-31.8 -38.85,-58.817 -69.95,-81.05 h -31.2 c -8.933,7.167 -15.583,14.883 -19.95,23.15 -1.3,2.433 -2.8,5.783 -4.5,10.05 -1.767,4.367 -3.133,7.483 -4.1,9.35 -3.633,7 -9.2,12.966 -16.7,17.9 -4.106,2.704 -9.122,5.379 -15.05,8.025 v 145.825 h 156.625 c 6.509,-2.756 11.717,-5.939 15.625,-9.55 5.467,-5.067 8.667,-11.267 9.6,-18.6 M 459.05,548.05 c 2.533,-13.9 3.8,-24.567 3.8,-32 0,-8.067 -1.433,-22.084 -4.3,-42.05 -2.7,-18.7 -3.817,-33.05 -3.35,-43.05 0.533,-12.834 -1.967,-25.884 -7.5,-39.15 -6.7,-16 -17.167,-30.15 -31.4,-42.45 -8.967,-7.7 -16.317,-13.133 -22.05,-16.3 -5.434,-3 -12.833,-5.8 -22.2,-8.401 -14.067,-3.533 -26.833,-6.849 -38.3,-9.949 -21.634,-5.834 -45.116,-12.884 -70.45,-21.15 -8.1,-2.567 -15.116,-7.267 -21.05,-14.1 -3.967,-4.567 -8.5,-11.65 -13.6,-21.25 -5.867,-11 -10.167,-18.45 -12.9,-22.35 -5.6,-7.833 -11.967,-13.666 -19.1,-17.5 h -76.5 c -23,8.1 -39.117,18.45 -48.35,31.049 -6.733,9.167 -10.583,21.334 -11.55,36.5 -3.467,0.368 -18.533,2.767 -45.2,7.201 -21.7,3.6 -34.15,5.033 -37.35,4.299 h -96.9 c -14.067,-4.099 -25.117,-9.733 -33.15,-16.899 -6.133,-5.5 -11.567,-13.117 -16.3,-22.851 -1,-2.066 -2.983,-6.449 -5.95,-13.149 -2.5,-5.733 -4.7,-10.417 -6.6,-14.05 -5.867,-11.301 -13.15,-21.284 -21.85,-29.95 h -35.7 c -29.533,-0.967 -48.633,23.184 -57.3,72.45 -2.933,16.633 -4.65,36.35 -5.15,59.15 v 44.35 c 0,21.7 1.4,47.05 4.2,76.05 3.8,34.8 6.65,62.783 8.55,83.95 0.433,0 0.85,0.416 1.25,1.25 0.867,0.866 2.567,1.3 5.1,1.3 1.067,0 2.467,-0.983 4.2,-2.95 0.933,-1.067 2.083,-2.533 3.45,-4.4 18.333,11.833 39.633,21.8 63.9,29.9 41.6,13.867 87.767,20.8 138.5,20.8 15.267,0 24.317,-0.7 27.15,-2.1 1.267,-0.634 2.583,-1.867 3.95,-3.7 2.033,-2.734 3.783,-4.834 5.25,-6.3 l 84.45,-0.65 c 1.3,-1.067 3.65,-3.4 7.05,-7 10.767,-0.134 18.883,-1.384 24.35,-3.75 1.534,-0.634 3.716,-1.65 6.55,-3.05 2.8,-1.167 5.883,-2.084 9.25,-2.75 h 71.4 c 3.633,1 6.75,2.467 9.35,4.4 2.567,1.9 5.6,3.333 9.1,4.3 12.1,3.3 44.95,6.35 98.55,9.15 10.733,3.066 18.334,7.433 22.8,13.1 3.567,4.466 5.484,10.3 5.75,17.5 0.067,2.466 -0.034,5.667 -0.3,9.6 -0.367,5.533 -0.567,8.75 -0.6,9.65 -0.3,7.667 0.684,13.783 2.95,18.35 4.366,16.633 11.583,28.5 21.65,35.6 18.067,12.766 43.784,9.817 77.15,-8.85 12.366,-11.333 23.983,-35.85 34.85,-73.55 4.266,-14.9 7.75,-29.65 10.45,-44.25"
       style="fill:#12253c;fill-opacity:1;fill-rule:evenodd;stroke:none"
       transform="matrix(1.3333333,0,0,-1.3333333,494.66667,1518.0664)"
       clip-path="url(#clipPath5)" />
  </g>
  <g
     id="layer-MC4">
    <path
       id="path6"
       d="m 0,0 h -11.7 l -6.25,-5.05 v -45.3 L 6.25,-69.9 v -151.95 l -25.95,-20.9 h -23.449 l -12.901,10.35 v 9.4 h 8 v -9.4 l 6.85,-5.1 h 13.1 l 10.15,8.05 v 154.3 l -26.949,20.9 v 40 L -17.95,6.45 H 4.7 L 17.95,-3.9 V -18.35 L 6.25,-27.5 V -5.05 Z M 74,0 56.05,-14.25 v -66 L 90.4,-52.7 v 46.1 l -8,6.6 z m -192.8,-14.25 26.4,20.7 h 11.501 V -137.1 H -64.5 l -19.899,-16 H -92.4 l -8.4,6.85 v 7.6 l -18,-14.45 h -24.4 l -25.2,19.9 v 118.95 h -12.9 l 26.4,20.7 h 11.7 V -141.2 l 6.45,-5.05 h 9.95 l 21.5,16.8 v 115.2 z m -110.4,20.7 26.4,-20.7 v -132 h 11.5 v -6.85 h -11.5 l -18,14.45 -18.55,-14.45 h -25.95 l -25.2,19.9 v 108.05 l 39.65,31.6 z M -245.6,0 -265.3,-16 v -126.75 l 4.45,-3.5 h 11.95 l 19.7,15.6 V -6.6 l -8,6.6 z m -130.05,-141.2 8.05,-6.65 h 7.2 l 22.65,18.4 V -16 l -8.4,6.85 h -7.8 l -21.7,-17.2 z M -376.8,6.45 v -20.7 l 12.7,10.35 h 25.2 l 25.95,-21.25 v -101.6 l -33.2,-26.35 h -22.65 l -6.85,5.25 V -223 l -31.25,-25.2 h -11.5 v 5.45 h 11.5 l 6.45,5.25 v 224.45 h -13.25 l 25.2,19.5 z m 493.6,-50 -62.5,-50 v -47.65 l 8,-6.65 h 8.4 l 19.7,16.05 v 32.6 l 24.8,20.1 V -124 L 78.7,-153.1 H 54.3 l -25.199,19.9 V -25.15 L 68.75,6.45 H 90.4 l 26.4,-20.7 z M 194.351,0 h -8.75 L 164.7,-17.15 V -141.2 l 8,-6.65 h 8.401 L 200.8,-131.8 V -5.05 Z m 0,134.6 H 184.4 v 5.45 h 9.951 L 227.2,113.7 V -122.65 L 189.101,-153.1 H 164.7 l -25.2,19.9 v 108.05 l 39.65,31.6 h 23.201 v 121.7 z"
       style="fill:#e6c97d;fill-opacity:1;fill-rule:evenodd;stroke:none"
       transform="matrix(1.3333333,0,0,-1.3333333,716.39973,844.66667)" />
  </g>
  <g
     id="layer-MC5">
    <path
       id="path7"
       d="m 0,0 v -53.85 h 6.15 l -7.5,-6 h -3 l -3.15,2.55 v 2.85 l -6.75,-5.4 h -9.15 l -9.45,7.451 V -7.75 h -4.8 L -27.8,0 h 4.4 v -55.399 l 2.45,-1.901 h 3.7 l 8.1,6.3 v 43.25 h -5.1 L -4.35,0 Z m 36.45,-4.899 -3,2.449 H 30.3 l -6.7,-5.3 v -24.8 l 12.85,10.35 z m 9.9,-2.851 v -11 L 22.9,-37.5 v -17.899 l 3.05,-2.451 h 3.15 l 7.35,6 v 12.201 l 9.3,7.549 V -48.95 L 32.1,-59.85 h -9.2 l -9.45,7.451 v 40.5 L 28.35,0 h 8.1 z m -379.5,5.3 -7.85,-6.4 v -46.549 l 2.45,-1.901 h 3.75 l 7.95,6.3 v 46.101 l -3,2.449 z m 15,-4.9 V -48.399 L -332.4,-59.85 h -8.6 l -9.45,7.451 v 40.5 L -335.55,0 h 8.1 z m 64.2,-0.4 v -9.45 l -8.7,-7 v 19.85 l -2.55,1.9 h -4.2 l -6.7,-5.3 v -48.649 l 1.75,-1.451 h 4.4 l 7.3,6 v 12.201 l 9.3,7.549 V -48.399 L -267.6,-59.85 h -9.2 l -9.45,7.451 v 40.5 l 14.3,11.449 h 8.7 z m 18.55,-1.1 v -46.549 l 2.45,-1.901 h 3.75 l 7.95,6.3 v 46.101 l -3,2.449 h -3.3 z m 5.45,8.85 h 8.1 l 9.3,-7.35 V -48.399 L -226.8,-59.85 h -8.6 l -9.45,7.451 v 40.5 z m 26.1,-7.75 9.15,7.3 h 5.1 v -5.4 l 7.2,5.85 h 8.7 l 8.05,-6.45 v -45.949 h 5.6 l -9.15,-7.451 h -6.15 v 57.4 h -4.5 l -9.3,-7.449 V -73.6 l -12.3,-10 h -4.3 v 2 h 4.3 l 3,2.4 v 71.45 z m 88.15,0 9.45,7.3 h 4.85 v -51.949 h 4.35 l -9.2,-7.451 h -5.05 v 52.1 z m 41.6,7.3 v -5.4 L -66.9,0 h 8.7 l 8.05,-6.45 v -45.949 h 5.6 l -9.15,-7.451 h -6.15 v 57.4 h -4.5 l -9.3,-7.449 V -73.6 l -12.3,-10 h -4.3 v 2 h 4.3 l 3,2.4 v 71.45 h -5.4 l 9.15,7.3 z M -465,-7.75 V -57.3 h 4.35 v -2.55 H -465 l -6.75,5.4 -6.95,-5.4 h -9.75 l -9.45,7.451 v 40.5 L -483,0 h 8.1 z m -23.45,-0.7 v -47.5 l 1.7,-1.35 h 4.5 l 7.35,5.85 v 46.551 l -3,2.449 h -3.15 z m 69.75,-3.449 V -49.95 l -12.45,-9.9 h -8.5 l -2.55,2 v -28.2 l -11.7,-9.45 h -4.35 v 2.05 h 4.35 l 2.4,1.95 v 84.15 h -5 l 9.45,7.35 h 4.4 v -7.75 l 4.8,3.851 h 9.45 z m -15.35,6.049 -8.15,-6.45 v -43.099 l 3,-2.451 h 2.7 l 8.5,6.85 v 42.55 l -3.15,2.6 z m -81.7,51.05 V 1.55 h 3.8 l 2.35,1.9 V 9 h 3.15 V 3 l -4.15,-3.899 h -5.15 v -54.5 l 3.25,-2.451 h 2.35 l 5.7,4.451 v 3 h 3 v -4.051 l -6.75,-5.4 h -10.45 l -6.85,5.4 v 48.6 h -4.45 l -2.4,-1.9 v -5 h -2.6 v 5.4 l 4.4,3.451 h 5.05 V 40.2 l 11.6,9.3 h 4.3 v -2.399 h -3.55 z m 384.05,4.3 h 4.3 v -2.399 h -3.55 l -2.6,-1.901 V 1.55 h 3.8 l 2.35,1.9 V 9 h 3.15 V 3 l -4.15,-3.899 h -5.15 v -54.5 l 3.25,-2.451 h 2.35 l 5.7,4.451 v 3 h 3 v -4.051 l -6.75,-5.4 h -10.45 l -6.85,5.4 v 48.6 h -4.45 l -2.4,-1.9 v -5 h -2.6 v 5.4 l 4.4,3.451 h 5.05 V 40.2 Z M -368.3,45.2 V 1.55 h 3.8 l 2.35,1.9 V 9 H -359 V 3 l -4.15,-3.899 h -5.15 v -54.5 l 3.25,-2.451 h 2.35 l 5.7,4.451 v 3 h 3 v -4.051 l -6.75,-5.4 h -10.45 l -6.85,5.4 v 48.6 h -4.45 l -2.4,-1.9 v -5 h -2.6 v 5.4 l 4.4,3.451 h 5.05 V 40.2 l 11.6,9.3 h 4.3 v -2.399 h -3.55 z"
       style="fill:#e6c97d;fill-opacity:1;fill-rule:evenodd;stroke:none"
       transform="matrix(1.3333333,0,0,-1.3333333,925,1601.9336)" />
    <path
       id="path8"
       d="m 399,342.15 h -9.9 v 11.399 h 9.9 z m -101.25,0 h -9.9 v 11.399 h 9.9 z"
       style="fill:#12253c;fill-opacity:1;fill-rule:evenodd;stroke:none"
       transform="matrix(1.3333333,0,0,-1.3333333,0,2133.3333)" />
  </g>
  <g
     id="layer-MC6">
    <path
       id="path9"
       d="M 0,0 H 0.95 V 24.2 H -17 v 3.2 h -3.649 c -0.134,0.3 -0.25,0.583 -0.351,0.85 v 5.2 L 5.65,67.55 4.101,67.775 5.65,69.75 -22.199,73.7 c 3.168,9.801 8.684,18.634 16.55,26.5 13.132,13.133 28.983,19.7 47.549,19.7 18.567,0 34.417,-6.567 47.55,-19.7 13.134,-13.133 19.7,-28.983 19.7,-47.55 0,-18.567 -6.566,-34.417 -19.7,-47.55 C 76.317,-8.033 60.467,-14.6 41.9,-14.6 25.9,-14.6 11.934,-9.733 0,0"
       style="fill:#12253c;fill-opacity:1;fill-rule:evenodd;stroke:none"
       transform="matrix(1.3333333,0,0,-1.3333333,984.1328,217.66667)"
       clip-path="url(#clipPath10)" />
    <path
       id="path11"
       d="m 0,0 c 11.934,-9.733 25.9,-14.6 41.9,-14.6 18.567,0 34.417,6.567 47.55,19.7 13.134,13.133 19.7,28.983 19.7,47.55 0,18.567 -6.566,34.417 -19.7,47.55 -13.133,13.133 -28.983,19.7 -47.55,19.7 -18.566,0 -34.417,-6.567 -47.549,-19.7 -7.866,-7.866 -13.382,-16.699 -16.55,-26.5"
       style="fill:none;stroke:#e6c97d;stroke-width:15;stroke-linecap:butt;stroke-linejoin:miter;stroke-miterlimit:3;stroke-dasharray:none;stroke-opacity:1"
       transform="matrix(1.3333333,0,0,-1.3333333,984.1328,217.66667)"
       clip-path="url(#clipPath12)" />
  </g>
  <g
     id="layer-MC7">
    <path
       id="path13"
       d="M 0,0 C -17.044,-10.854 -28.761,-25.838 -35.15,-44.95 -35.78,-24.911 -42.913,-7.261 -56.55,8 Z"
       style="fill:#e6c97d;fill-opacity:1;fill-rule:evenodd;stroke:none"
       transform="matrix(1.3333333,0,0,-1.3333333,994.60027,118.80013)"
       clip-path="url(#clipPath14)" />
  </g>
  <g
     id="layer-MC8">
    <path
       id="path15"
       d="m 75.8,1429.6 h 12.4 v -15.2 H 75.8 Z m 21.35,116.25 H 80 l -9.3,-7.45 v -19.8 h -13 v 14.65 l 19.85,15.7 h 23.6 l 18.95,-15.15 v -64.05 L 91.5,1446.8 h -5.75 v 2.55 l 21.4,17.3 v 71.2 z"
       style="fill:#e6c97d;fill-opacity:1;fill-rule:evenodd;stroke:#e6c97d;stroke-width:2;stroke-linecap:butt;stroke-linejoin:miter;stroke-miterlimit:3;stroke-dasharray:none;stroke-opacity:1"
       transform="matrix(1.3333333,0,0,-1.3333333,0,2133.3333)" />
  </g>
</svg>
