<svg xmlns="http://www.w3.org/2000/svg" width="1200" height="2133.3" viewBox="0 0 1200 2133.3"><defs><clipPath id="a" clipPathUnits="userSpaceOnUse"><path d="M-371 1139h900V-461h-900z"/></clipPath><clipPath id="b" clipPathUnits="userSpaceOnUse"><path d="M-738 163h900v-1600h-900Z"/></clipPath><clipPath id="c" clipPathUnits="userSpaceOnUse"><path d="M-738 163h900v-1600h-900Z"/></clipPath><clipPath id="d" clipPathUnits="userSpaceOnUse"><path d="M-746 89h900v-1600h-900Z"/></clipPath></defs><path d="M0 2133h1200V0H0Z" style="fill:#12253c;fill-opacity:1;fill-rule:nonzero;stroke:none;stroke-width:1.33333"/><path d="M0 0h60q-2-2 1-5l18-1q2 0 2-4 1-3 5-3 38 0 57 6a41 41 0 0 1 25 18l6 6q9 5 29 5 13 0 22-10l5-9 6-7q7-6 19-10l20-6 31 4h61q34-24 42-44 3-8 3-18l1-39q-1-15-10-27-28-35-130-18l-39-30q-6 0-13 5l-11 10-13 9q-9 5-19 3h-21l-19-16h-26q-19 10-45 18-36 11-71 11-3 0-11-9-7-9-10-10h-30l-9 1q-6 2-8 6-26-3-38-10l-10-6-9-6h-21q-14 5-19 11l-5 6-5 7q-47-7-60 27-4 11-4 27l1 67q3 31 15 52 17 29 36 31 14 1 30-15 9-7 25-31 12-16 16-16 18 0 33 17l10 13 6 7h21l22-9q9-5 28-8m-286 470-2-6V335q11 19 5 33v106h-2zm99 638v-17q0-47-21-88-23-48-70-82h-31a75 75 0 0 0-24 34l-4 9q-6 11-17 18l-15 8v146h156q10-4 16-10 9-7 10-18m646-560q4-21 4-32l-4-42q-4-28-4-43 1-19-7-39-10-24-32-43-13-11-22-16-8-5-22-8l-109-31q-12-4-21-15-6-6-13-21l-13-22q-9-12-19-18h-77q-34 13-48 31-10 15-12 37l-45 7q-33 6-37 4h-97q-21-5-33-17-9-8-17-22l-12-28q-9-16-22-30h-36q-43 0-57 73-5 25-5 59v44q0 33 4 76l10 86 5 1 4-3 4-4q27 17 63 30a436 436 0 0 0 166 18l4-3 5-7h85l7-7a66 66 0 0 0 31-7l9-3h71l10 4q3 3 9 5 18 5 98 9 17 4 23 13 6 6 6 17v10l-1 10q0 11 3 18 7 25 22 36 27 19 77-9 18-17 35-74z" clip-path="url(#a)" style="fill:#12253c;fill-opacity:1;fill-rule:evenodd;stroke:none" transform="matrix(1.3333333 0 0 -1.3333333 495 1518)"/><path d="M716 845h-16l-8 7v60l32 27v202l-35 28h-30l-18-14v-12h11v12l9 8h18l13-12V945l-36-28v-53l36-27h31l17 14v18l-16 12v-29zm99 0-24 19v88l45-36v-61l-11-10zm-258 19 36-27h15v191h23l-27 21h-11l-12-9v-9l-24 18h-32l-33-26V864h-17l34-27h16v196l8 7h14l29-23V864Zm-146-27 34 27v176h16v9h-16l-24-18-24 18h-34l-35-26V879l53-42zm-23 8-25 22v169l5 4h16l27-20V855l-11-10zm-173 188 10 10h11l29-26V867l-10-10h-11l-29 23zm-2-196v27l18-13h33l35 28v136l-44 34h-31l-9-6v100l-42 33h-14v-7h14l10-8V863h-19l33-26zm659 67-84 67v62l11 10h12l25-22v-44l33-26v60l-48 38h-33l-33-26V879l53-42h28l36 27zm103-59h-11l-28 23v165l11 10h10l27-22V852Zm0-180h-14v-6h14l44 34v316l-51 40h-32l-35-26V879l54-42h30V675Zm-50 937v72h8l-9 8h-4l-4-4v-4l-10 8h-12l-13-10v-59h-7l14-11h6v74l3 2h5l11-8v-57h-7l14-11zm48 7-4-4h-4l-8 8v33l16-14zm13 4v15l-30 24v24l4 4h4l9-8v-16l13-11v23l-18 14h-12l-14-10v-54l20-16h11Zm-505-8-11 9v62l3 2h5l11-8v-61l-4-4zm20 7v54l-19 16h-12l-12-10v-54l19-16h12zm85 1v12l-12 9v-26l-2-3h-6l-9 8v64l3 3h5l9-8v-16l14-11v21l-20 16h-12l-12-10v-54l18-16h12zm26 1v62l2 2h6l10-8v-61l-4-4h-5zm6-12h11l12 10v54l-19 16h-10l-14-10v-54zm35 11 12-11h7v8l10-8h11l11 8v62h8l-12 10h-8v-77h-7l-12 11v85l-16 13h-7v-2h7l4-4v-95zm117 0 14-11h6v70h6l-12 10h-7v-69zm56-11v8l10-8h12l10 8v62h7l-12 10h-8v-77h-5l-14 11v85l-16 13h-5v-2h5l4-4v-95h-6l12-11zm-521 11v65h5v4h-5l-9-8-10 8h-12l-13-10v-54l20-16h11zm-31 0v64l2 1h6l10-8v-61l-4-4h-4zm92 5v51l-16 13h-12l-2-2v37l-16 12h-6v-3h6l4-1v-113h-7l12-10h5v11l7-5h13zm-20-8-10 8v58l4 4h4l10-10v-57l-4-3zm-109-68v58h5l3-2v-8h5v8l-6 6h-7v72l5 4h3l8-7v-4h4v5l-9 8h-15l-8-8v-64h-7l-2 3v7h-4v-8l5-4h7v-59l16-13h5v4h-4zm512-5h7v3h-6l-4 2v58h6l4-2v-8h4v8l-6 6h-8v72l6 4h2l8-7v-4h4v5l-9 8h-13l-10-8v-64h-6l-3 3v7h-4v-8l7-4h6v-59zm-315 5v58h4l4-2v-8h4v8l-5 6h-7v72l4 4h3l8-7v-4h4v5l-9 8h-14l-9-8v-64h-5l-4 3v7h-3v-8l5-4h7v-59l16-13h5v4h-5z" style="fill:#e6c97d;fill-opacity:1;fill-rule:evenodd;stroke:none;stroke-width:1.33333"/><path d="M532 1677h-13v-16h13zm-135 0h-13v-16h13z" style="fill:#12253c;fill-opacity:1;fill-rule:evenodd;stroke:none;stroke-width:1.33333"/><path d="M0 0v24h-18v3h-4v6L6 68H4l2 2-28 4q4 15 16 26 20 20 48 20 27 0 47-20 21-20 20-47 1-28-20-48a65 65 0 0 0-47-20Q18-15 0 0" clip-path="url(#b)" style="fill:#12253c;fill-opacity:1;fill-rule:evenodd;stroke:none" transform="matrix(1.3333333 0 0 -1.3333333 984 218)"/><path d="M0 0q18-15 42-15 27 0 47 20 21 20 20 48 1 27-20 47a65 65 0 0 1-47 20q-28 0-48-20-12-11-16-26" clip-path="url(#c)" style="fill:none;stroke:#e6c97d;stroke-width:15;stroke-linecap:butt;stroke-linejoin:miter;stroke-miterlimit:3;stroke-dasharray:none;stroke-opacity:1" transform="matrix(1.3333333 0 0 -1.3333333 984 218)"/><path d="M0 0a83 83 0 0 1-35-45q-1 30-22 53z" clip-path="url(#d)" style="fill:#e6c97d;fill-opacity:1;fill-rule:evenodd;stroke:none" transform="matrix(1.3333333 0 0 -1.3333333 995 119)"/><path d="M101 227h16v21h-16zm28-155h-22L95 83v25H77V89l27-21h31l25 20v85l-37 31h-8v-3l28-24V83Z" style="fill:#e6c97d;fill-opacity:1;fill-rule:evenodd;stroke:#e6c97d;stroke-width:2.66667;stroke-linecap:butt;stroke-linejoin:miter;stroke-miterlimit:3;stroke-dasharray:none;stroke-opacity:1"/></svg>