<svg version="1.1" viewBox="0 0 70 100" xmlns="http://www.w3.org/2000/svg" xmlns:xlink="http://www.w3.org/1999/xlink"><defs><clipPath id="d"><path transform="translate(-69 -1)" d="m0 111h78v-111h-78z"/></clipPath><clipPath id="c"><path transform="translate(-69 -1)" d="m0 111h78v-111h-78z"/></clipPath><clipPath id="b"><path transform="translate(-53 -14)" d="m0 111h78v-111h-78z"/></clipPath><clipPath id="a"><path transform="translate(-19 -20)" d="m0 111h78v-111h-78z"/></clipPath><clipPath id="l"><path transform="translate(-53 -14)" d="m0 111h78v-111h-78z"/></clipPath><clipPath id="k"><path transform="translate(-64 -97)" d="m0 111h78v-111h-78z"/></clipPath><clipPath id="j"><path transform="translate(-68 -95)" d="m0 111h78v-111h-78z"/></clipPath><clipPath id="i"><path transform="translate(-61 -53)" d="m0 111h78v-111h-78z"/></clipPath><clipPath id="h"><path transform="translate(-13 -15)" d="m0 111h78v-111h-78z"/></clipPath><clipPath id="g"><path transform="translate(-20 -48)" d="m0 111h78v-111h-78z"/></clipPath><clipPath id="f"><path transform="translate(-21 -94)" d="m0 111h78v-111h-78z"/></clipPath><clipPath id="e"><path transform="translate(-22 -60)" d="m0 111h78v-111h-78z"/></clipPath></defs><g transform="translate(-.00027)"><path d="m62 99h-54l-7-6.8v-84l6.5-6.4 0.51-0.49h54l7 6.8v84z" display="none" fill="#444343" fill-rule="evenodd"/><path transform="matrix(.89 0 0 -.89 62 99)" d="m0 0h-61l-7.8 7.6v93l7.3 7.1" clip-path="url(#d)" display="none" fill="none" stroke="#565656" stroke-linecap="round" stroke-linejoin="round" stroke-miterlimit="3" stroke-width="2"/><path transform="matrix(.89 0 0 -.89 62 99)" d="m0 0 7.9 7.6v93l-7.9 7.6-61-0.35" clip-path="url(#c)" display="none" fill="none" stroke="#333" stroke-linecap="round" stroke-linejoin="round" stroke-miterlimit="3" stroke-width="2"/><path transform="matrix(.89 0 0 -.89 47 87)" d="m0 0h-38c-0.067 0.033-0.13 0.051-0.2 0.051-0.87 0.5-1.2 1-1 1.5l5.6 5.1h31l4.4-4.7c-0.17-0.9-0.78-1.5-1.8-1.9m7.3 6.2-1.8-1.4v-0.051c-0.33-0.17-0.74-0.17-1.2 0l-3.8 4.4 3.2 25 5.4 5.1c0.33 0.43 0.72 0.43 1.2 0l1-1.6zm-38 45-5.8-5c-0.2-0.1-0.35-0.033-0.45 0.2-0.17 0.2-0.3 0.5-0.4 0.9l4.2 33c0.47 0.53 0.95 0.53 1.4 0l4.1-4.8zm1.1-5.5h34l2.1-2c0.46-0.5 0.5-1 0.099-1.6l-3.8-2.8-33 0.05-2.4 2.6c-0.37 0.37-0.37 0.77 0 1.2zm-6.2-36-6-5.1c-0.17-0.066-0.28 0-0.35 0.2-0.2 0.23-0.33 0.55-0.4 0.95l4.2 33c0.47 0.53 0.95 0.53 1.4 0l4.2-4.8zm50 71c0.43 0.37 0.85 0.37 1.2 0l0.9-1.6-3.9-32-1.7-1.4h-0.049c-0.4-0.2-0.78-0.2-1.2 0l-3.8 4.4 3.2 25zm-8.2-2.2h-31l-4.5 4.8c0.2 0.83 0.73 1.4 1.6 1.8 0.067 0.033 0.15 0.067 0.25 0.1h38c0.066 0 0.12-0.017 0.15-0.05 0.47-0.3 0.78-0.6 0.95-0.9 0.14-0.2 0.17-0.4 0.1-0.6z" clip-path="url(#b)" display="none" fill="#2d2c2c" fill-rule="evenodd"/><path transform="matrix(.89 0 0 -.89 17 81)" d="m0 0-5.6-5.1c-0.17-0.5 0.18-1 1-1.5 0.066 0 0.13-0.017 0.2-0.05h38m9.2 40-5.4-5.1-3.2-25 3.8-4.4c0.47-0.17 0.87-0.17 1.2 0v0.051l1.8 1.4m-46 33-4.2-33c0.066-0.4 0.2-0.72 0.4-0.95 0.066-0.2 0.18-0.27 0.35-0.2l6 5.1m6.2 36-3.2-2.5c-0.37-0.43-0.37-0.83 0-1.2l2.4-2.6 33-0.051 3.8 2.8m-40 38-4.2-33c0.1-0.4 0.23-0.7 0.4-0.9 0.1-0.23 0.25-0.3 0.45-0.2l5.8 5m3.2 34c-0.1-0.034-0.18-0.067-0.25-0.1-0.87-0.4-1.4-1-1.6-1.9l4.5-4.8h31m8.2 2.2-5.4-5.2-3.2-25 3.8-4.4c0.37-0.2 0.75-0.2 1.2 0h0.049l1.7 1.4" clip-path="url(#a)" display="none" fill="none" stroke="#2d2c2c" stroke-linecap="round" stroke-linejoin="round" stroke-miterlimit="3"/><path transform="matrix(.89 0 0 -.89 47 87)" d="m0 0c1.1 0.4 1.7 1.1 1.8 1.9l-4.4 4.7h-31m41-0.45 4 32-1 1.6c-0.43 0.43-0.82 0.43-1.2 0m-45-30 3.1 25-4.2 4.8c-0.5 0.53-0.98 0.53-1.4 0m45 2.8c0.4 0.53 0.37 1.1-0.099 1.6l-2.1 2h-34m-1.1 5.5 3 25-4.1 4.8c-0.5 0.53-0.98 0.53-1.4 0m39-2 5.5 5.2c0.066 0.2 0.033 0.4-0.1 0.6-0.17 0.3-0.48 0.6-0.95 0.9-0.033 0.033-0.084 0.05-0.15 0.05h-38m40-38 3.9 32-0.9 1.6c-0.4 0.37-0.82 0.37-1.2 0" clip-path="url(#l)" display="none" fill="none" stroke="#000" stroke-linecap="round" stroke-linejoin="round" stroke-miterlimit="3"/><path transform="matrix(.89 0 0 -.89 57 13)" d="m0 0c-0.02-0.096-0.062-0.18-0.12-0.25l-5.4-5.2c-0.1-0.086-0.22-0.13-0.35-0.12h-31c-0.069 3e-3 -0.14 0.019-0.2 0.05-0.067 0.022-0.12 0.055-0.18 0.1l-4.5 4.8c-0.052 0.066-0.085 0.14-0.1 0.22-0.021 0.083-0.021 0.17 0 0.25 0.26 1.1 0.98 1.8 2.2 2.3 0.057 0.02 0.12 0.029 0.18 0.025h38c0.18-1e-3 0.32-0.042 0.42-0.12 1.1-0.7 1.5-1.4 1.2-2" clip-path="url(#k)" fill="#fc0" fill-rule="evenodd"/><g fill="#f6eb16" fill-rule="evenodd"><path transform="matrix(.89 0 0 -.89 61 15)" d="m0 0c0.031-0.037 0.057-0.079 0.075-0.12l0.9-1.6c0.058-0.1 0.084-0.21 0.074-0.32l-4-32c-0.016-0.12-0.075-0.22-0.18-0.3l-1.7-1.4c-0.071-0.058-0.14-0.1-0.22-0.12-0.54-0.24-1.1-0.22-1.6 0.05-0.047 0.034-0.09 0.076-0.12 0.12l-3.8 4.4c-0.047 0.05-0.08 0.11-0.1 0.18-0.023 0.075-0.031 0.15-0.025 0.22l3.2 25c0.017 0.11 0.066 0.2 0.15 0.28l5.4 5.2c0.67 0.56 1.3 0.56 1.9 0" clip-path="url(#j)" display="none"/><path transform="matrix(.89 0 0 -.89 55 52)" d="m0 0-0.051-0.074c0.29 0.37 0.61 0.54 0.95 0.52 0.3 0.021 0.62-0.14 0.95-0.47 0.027-0.023 0.052-0.048 0.074-0.076l1-1.6c0.064-0.11 0.09-0.23 0.076-0.35l-4-32c-0.021-0.13-0.088-0.24-0.2-0.32l-1.6-1.3c-6e-3 -0.018-0.014-0.035-0.024-0.05-0.05-0.078-0.12-0.14-0.2-0.18-0.44-0.24-0.98-0.24-1.6-0.024-0.079 0.031-0.14 0.081-0.2 0.15l-3.8 4.4c-0.046 0.05-0.079 0.11-0.1 0.17-0.022 0.067-0.031 0.13-0.024 0.2l3.1 25c0.014 0.13 0.065 0.24 0.15 0.32z" clip-path="url(#i)" display="none"/><path transform="matrix(.89 0 0 -.89 12 86)" d="m0 0c0.024 0.087 0.066 0.16 0.12 0.23l5.6 5.1c0.1 0.086 0.22 0.13 0.35 0.12h31c0.07-3e-3 0.14-0.019 0.2-0.05 0.067-0.022 0.12-0.055 0.18-0.1l4.4-4.7c0.049-0.059 0.082-0.12 0.1-0.2 0.027-0.083 0.035-0.17 0.025-0.25-0.18-1.1-0.91-1.9-2.2-2.3-0.057-0.018-0.12-0.027-0.18-0.025h-38c-0.079-1e-3 -0.15 0.016-0.22 0.051-0.079 6e-3 -0.15 0.032-0.22 0.074-1.2 0.66-1.6 1.4-1.3 2.1" clip-path="url(#h)" display="none"/><path transform="matrix(.89 0 0 -.89 18 56)" d="m0 0c0.046-0.053 0.079-0.11 0.1-0.18 0.023-0.074 0.031-0.15 0.025-0.22l-3.1-25c-0.016-0.12-0.075-0.22-0.17-0.3l-6-5.1c-0.045-0.039-0.095-0.072-0.15-0.099-0.25-0.094-0.46-0.078-0.62 0.051-0.14 0.058-0.25 0.18-0.32 0.38-0.24 0.28-0.39 0.66-0.48 1.1-8e-3 0.041-8e-3 0.084 0 0.12l4.2 33c0.015 0.1 0.057 0.2 0.12 0.28 0.36 0.4 0.72 0.59 1.1 0.58 0.37 0.023 0.73-0.16 1.1-0.55v-0.025z" clip-path="url(#g)" display="none"/><path transform="matrix(.89 0 0 -.89 19 15)" d="m0 0v-0.025l4.1-4.8c0.046-0.051 0.079-0.11 0.1-0.18 0.023-0.075 0.031-0.15 0.025-0.22l-3-25c-0.017-0.12-0.075-0.22-0.18-0.3l-5.8-5c-0.031-0.029-0.065-0.054-0.1-0.075-0.26-0.13-0.5-0.14-0.7-0.026-0.16 0.053-0.29 0.19-0.4 0.4-0.19 0.24-0.34 0.59-0.45 1-0.02 0.058-0.028 0.12-0.025 0.17l4.2 33c0.014 0.1 0.056 0.2 0.12 0.28 0.36 0.4 0.72 0.59 1.1 0.58 0.37 0.023 0.73-0.16 1.1-0.55" clip-path="url(#f)" display="none"/><path transform="matrix(.89 0 0 -.89 20 46)" d="m0 0 0.025 0.025c0.19 0.12 0.38 0.18 0.58 0.18h34c0.27 2e-3 0.5-0.098 0.7-0.3l2-1.8c0.066-0.03 0.12-0.071 0.18-0.12 0.82-0.9 0.86-1.8 0.12-2.8-0.015-0.018-0.031-0.034-0.05-0.049-0.033-0.033-0.067-0.067-0.1-0.1-0.016-0.017-0.033-0.033-0.051-0.049l-3.8-2.8-0.025-0.026c-0.19-0.12-0.38-0.18-0.57-0.18l-33 0.05c-0.27-2e-3 -0.5 0.098-0.7 0.3l-2.4 2.6v-0.026c-0.42 0.4-0.62 0.81-0.6 1.2-0.015 0.39 0.14 0.79 0.48 1.2 0.041 0.075 0.099 0.15 0.18 0.22 0.016 0.017 0.032 0.033 0.05 0.05z" clip-path="url(#e)" display="none"/></g></g></svg>
