<?xml version="1.0" encoding="UTF-8" standalone="no"?>
<!-- Created with Inkscape (http://www.inkscape.org/) -->

<svg
   version="1.1"
   id="svg1"
   width="1200"
   height="2133.3333"
   viewBox="0 0 1200 2133.3333"
   xmlns="http://www.w3.org/2000/svg"
   xmlns:svg="http://www.w3.org/2000/svg">
  <defs
     id="defs1">
    <clipPath
       clipPathUnits="userSpaceOnUse"
       id="clipPath5">
      <path
         d="M 709.45,529.25 H 805.4 V 471.9 h -95.95 z"
         transform="translate(-709.45022,-506.40041)"
         id="path5" />
    </clipPath>
    <clipPath
       clipPathUnits="userSpaceOnUse"
       id="clipPath7">
      <path
         d="M 0,1600 H 900 V 0 H 0 Z"
         transform="matrix(1.3333333,0,0,-1.3333333,0,2133.3333)"
         id="path7" />
    </clipPath>
  </defs>
  <g
     id="layer-MC1">
    <path
       id="path1"
       d="M 824.45,450.4 H 79.05 V 1207 h 745.4 z"
       style="fill:#2e3949;fill-opacity:1;fill-rule:evenodd;stroke:#e6c97d;stroke-width:10;stroke-linecap:butt;stroke-linejoin:miter;stroke-miterlimit:3;stroke-dasharray:none;stroke-opacity:1"
       transform="matrix(1.3333333,0,0,-1.3333333,0,2133.3333)" />
  </g>
  <g
     id="layer-MC2">
    <path
       id="path2"
       d="m 0,0 -8.65,-6.9 v -45.95 l 3.2,-2.65 h 2.9 l 9.05,7.35 v 45.4 L 3.15,0 Z m -32.95,-2.05 v -52.8 h 4.6 v -2.75 h -4.6 l -7.2,5.8 -7.45,-5.8 h -10.35 l -10.1,7.95 v 43.2 l 15.85,12.7 h 8.7 z m -25,-0.7 v -50.7 l 1.8,-1.4 h 4.75 l 7.9,6.25 V 1 l -3.2,2.65 h -3.4 z m 34.05,1.15 10.1,7.85 h 4.65 v -8.3 l 5.1,4.15 H 6.05 L 16.4,-6.45 v -40.6 L 3.15,-57.6 h -9.1 l -2.7,2.1 v -30.05 l -12.5,-10.1 h -4.6 v 2.2 h 4.6 l 2.55,2.1 V -1.6 Z M -87.1,54.45 V 7.85 h 4.1 l 2.5,2.05 v 5.95 h 3.35 V 9.45 L -81.6,5.3 h -5.5 v -58.15 l 3.45,-2.65 h 2.5 l 6.1,4.75 v 3.25 h 3.2 v -4.3 l -7.2,-5.8 H -90.2 l -7.25,5.8 V 0 h -4.8 l -2.55,-2.05 v -5.3 h -2.75 v 5.75 l 4.7,3.7 h 5.4 v 47 l 12.35,9.95 h 4.6 v -2.6 h -3.85 z"
       style="fill:#e7c980;fill-opacity:1;fill-rule:evenodd;stroke:none"
       transform="matrix(1.3333333,0,0,-1.3333333,455.73307,890.26693)" />
    <path
       id="path3"
       d="m 307.4,733.15 h 10.55 v -12.2 H 307.4 Z m 295.05,0 H 613 v -12.2 H 602.45 Z M 450.9,878.35 h -10.55 v 12.2 h 10.55 z m -68.45,0 H 371.9 v 12.2 h 10.55 z"
       style="fill:#2e3949;fill-opacity:1;fill-rule:evenodd;stroke:none"
       transform="matrix(1.3333333,0,0,-1.3333333,0,2133.3333)" />
    <path
       id="path4"
       d="m 0,0 v -49.601 l 2.55,-2 h 4 l 8.5,6.701 V 4.25 l -3.2,2.649 h -3.5 z m 14.45,9.5 9.9,-7.851 V -42.15 L 9.1,-54.351 H 0 L -10.1,-46.4 V -3.2 L 5.75,9.5 Z M 58.35,1.199 68.45,9 h 5.15 v -55.4 h 4.6 l -9.75,-7.951 h -5.4 V 1.199 Z M 102.7,9 V 3.25 l 7.7,6.25 h 9.25 l 8.6,-6.9 v -49 h 5.95 l -9.75,-7.951 h -6.55 v 61.25 h -4.8 l -9.9,-7.95 v -68 L 90.05,-79.65 h -4.6 v 2.099 h 4.6 L 93.25,-75 V 1.199 H 87.5 L 97.25,9 Z m 87.1,5.8 v -2.601 h -5.5 L 181.75,10.1 V -42.15 L 166.6,-54.351 h -4.7 L 146.75,-42.15 V 1.199 H 141.6 L 152.15,9.5 h 4.65 v -55.351 l 5.1,-4.349 h 4.05 l 6.05,4.849 V 4.85 l 12.3,9.95 z m 27.7,-7.901 h -3.4 l -7.15,-5.7 V -25.2 l 13.75,11 V 4.25 Z m 13.75,-5.7 V -10.5 l -25,-20 v -19.101 l 3.2,-2.649 h 3.35 l 7.9,6.399 v 13.05 l 9.9,8.051 V -42.7 L 216,-54.351 h -9.75 l -10.1,7.951 V -3.2 L 212,9.5 h 8.7 z M 276.8,9 280.6,5.8 V 1.199 h 5.35 L 276.8,-6.4 h -3.35 l -2.75,2.299 v 5.3 h -3.35 L 255.05,-8.9 v -37.5 h 5.7 l -9.65,-7.951 H 245 v 56 h -4 L 250.4,9 h 4.65 V -3.2 L 270.25,9 Z M 353.4,1.199 363.5,9 h 5.15 v -55.4 h 4.6 l -9.75,-7.951 h -5.4 V 1.199 Z M 310.05,57.7 V 11.1 h 4.1 l 2.5,2.049 V 19.1 H 320 V 12.699 L 315.55,8.55 h -5.5 v -58.151 l 3.45,-2.649 h 2.5 l 6.1,4.75 v 3.25 h 3.2 v -4.301 l -7.2,-5.8 h -11.15 l -7.25,5.8 V 3.25 h -4.8 l -2.55,-2.051 v -5.3 h -2.75 v 5.75 l 4.7,3.701 h 5.4 v 47 l 12.35,9.95 h 4.6 v -2.6 h -3.85 z m -51.5,106.6 -7.85,-6.401 V 107.2 l 1.8,-1.4 h 4.75 l 7.9,6.25 v 49.599 l -3.2,2.651 z m -2.1,2.599 h 8.7 L 275.7,158.6 v -52.8 h 4.6 v -2.75 h -4.6 l -7.2,5.8 -7.45,-5.8 H 250.7 L 240.6,111 v 43.2 z m 117.5,-20 -25,-20 V 107.8 l 3.2,-2.651 h 3.35 l 7.9,6.401 v 13.05 l 9.9,8.049 V 114.7 l -14.6,-11.65 h -9.75 l -10.1,7.95 v 43.2 l 15.85,12.699 h 8.7 l 10.55,-8.299 z m -24.3,11.701 v -26.4 l 13.75,11 v 18.449 l -3.2,2.651 h -3.4 z M 300,156.35 v -68 l -13.15,-10.6 h -4.6 v 2.1 h 4.6 l 3.2,2.549 V 158.6 h -5.75 l 9.75,7.799 h 5.45 v -5.75 l 7.7,6.25 h 9.25 L 325.05,160 V 111 H 331 l -9.75,-7.95 h -6.55 v 61.25 h -4.8 z m -88.85,6.4 h 10.1 l 10.35,-8.55 v -40.6 l -13.25,-10.55 h -9.1 l -2.7,2.099 V 75.1 L 194.05,65 h -4.6 v 2.2 h 4.6 l 2.55,2.1 v 89.75 h -5.3 l 10.1,7.849 h 4.65 V 158.6 Z m -4.6,-9 V 107.8 l 3.2,-2.651 h 2.9 l 9.05,7.351 v 45.399 l -3.35,2.75 h -3.15 z m -48.6,4.85 v -52.8 h 4.6 v -2.75 h -4.6 l -7.2,5.8 -7.45,-5.8 h -10.35 l -10.1,7.95 v 43.2 l 15.85,12.699 h 8.7 z m -17.15,5.7 -7.85,-6.401 V 107.2 l 1.8,-1.4 h 4.75 l 7.9,6.25 v 49.599 l -3.2,2.651 z M -27.15,62.3 h 4.6 v -2.6 h -3.85 l -2.75,-2 V 11.1 h 4.1 l 2.5,2.049 V 19.1 h 3.35 V 12.699 L -23.65,8.55 h -5.5 v -58.151 l 3.45,-2.649 h 2.5 l 6.1,4.75 v 3.25 h 3.2 v -4.301 l -7.2,-5.8 h -11.15 l -7.25,5.8 V 3.25 h -4.8 l -2.55,-2.051 v -5.3 h -2.75 v 5.75 l 4.7,3.701 h 5.4 v 47 z m 432.6,0 h 4.6 v -2.6 h -3.85 l -2.75,-2 V 11.1 h 4.1 l 2.5,2.049 V 19.1 h 3.35 V 12.699 L 408.95,8.55 h -5.5 v -58.151 l 3.45,-2.649 h 2.5 l 6.1,4.75 v 3.25 h 3.2 v -4.301 l -7.2,-5.8 h -11.15 l -7.25,5.8 V 3.25 h -4.8 l -2.55,-2.051 v -5.3 H 383 v 5.75 l 4.7,3.701 h 5.4 v 47 z m -9.8,157.4 h 5.3 v -2.6 h -5.3 l -1.85,-1.55 v -104 h 5.85 l -10.55,-8.5 H 383 v 106.7 z"
       style="fill:#e6c97d;fill-opacity:1;fill-rule:evenodd;stroke:none"
       transform="matrix(1.3333333,0,0,-1.3333333,358.19987,1104.4661)" />
  </g>
  <g
     id="layer-MC3">
    <g
       opacity="0.498032"
       id="g6"
       clip-path="url(#clipPath7)">
      <path
         d="M 0,0 H 46.399 V 22.85 C 59.566,7.416 76.083,-2.101 95.95,-5.7 76.116,-9.2 59.6,-18.801 46.399,-34.5 v 22.55 H 0 Z"
         style="fill:#e6c97d;fill-opacity:1;fill-rule:evenodd;stroke:none"
         transform="matrix(1.3333333,0,0,-1.3333333,945.9336,1458.1328)"
         clip-path="url(#clipPath5)"
         id="path6" />
    </g>
  </g>
</svg>
