<svg xmlns="http://www.w3.org/2000/svg" width="1200" height="2133.3" viewBox="0 0 1200 2133.3"><defs><clipPath id="b" clipPathUnits="userSpaceOnUse"><path d="M0 22.8h96v-57.3H0z"/></clipPath><clipPath id="a" clipPathUnits="userSpaceOnUse"><path d="M0 0h1200v2133.3H0Z"/></clipPath></defs><path d="M824.5 450.4H79V1207h745.3z" style="fill:#2e3949;fill-opacity:1;fill-rule:evenodd;stroke:#e6c97d;stroke-width:10;stroke-linecap:butt;stroke-linejoin:miter;stroke-miterlimit:3;stroke-dasharray:none;stroke-opacity:1" transform="matrix(1.3333333 0 0 -1.3333333 0 2133.3)"/><path d="M0 0v-5.1l-4.1-3.2v7.9l-2.2 1.7h-4.1l-2.1-1.8v-15.8l8.4-6.8v-53.2l-9.1-7.3h-8.2l-4.5 3.6v3.3h2.8V-80l2.4-1.8h4.6l3.6 2.8v54l-9.5 7.3v14l9.5 7.3h7.9zm-389 1.4h-3l-7.4-6v-43.5l2.2-1.7h3.5l7.5 5.8v43zm11-4.6v-38.4l-13.4-10.6h-8l-8.8 6.9v37.9l13.8 11h7.6zm48.4 4.6h-3l-6.8-5.6v-44.4l1.5-1.2h4.2l6.9 5.4V-1Zm-4.8 2.2h7.6l9.3-7.2v-46.2h4v-2.5h-4l-6.4 5.1-6.5-5h-9l-8.9 6.9v37.9zm33.6-8.2v-43.5l2.8-2.3h3l6.8 5.6V-.4l-2.2 1.8h-3zm38.7 0v-43.5l2.7-2.3h3l6.9 5.6V-.4l-2.3 1.8h-3zm109.9 6-6.9-5.6v-44.4l1.6-1.2h4.1l7 5.4V-1l-2.9 2.4zM-187.4-2h-2.7l-7.6-6v-40.2l2.8-2.3h2.5l8 6.4v39.8zm11.6-5.6V-43l-11.6-9.2h-7.9l-2.4 1.8v-26.3l-10.9-8.8h-4v1.9h4l2.2 1.8v78.6h-4.6l8.8 6.8h4.1v-7.2l4.5 3.6h8.8zm38.6 3.9v-46.2h4v-2.5h-4l-6.3 5.1-6.5-5h-9.1l-8.8 6.9v37.9l13.8 11h7.6zM-94-2.4v-42.9h5.2l-8.5-7h-5.7V1.5h-4.2l-8.7-7V-65l-11.5-9.3h-4v1.9h4l2.8 2.2v66.7h-5l8.5 6.8h4.7v-5l6.7 5.4h8.2zm42.8-11.5-22-17.5v-16.7l2.8-2.3h3l6.9 5.6v11.4l8.7 7V-42l-12.8-10.2h-8.6l-8.8 6.9v37.8l14 11.1h7.6l9.3-7.2zm-15 15.3-6.3-5v-23.2l12 9.7V-1l-2.8 2.4zm34 48.4h4.6v-2.2h-4.6l-1.6-1.4v-91h5l-9.1-7.4h-5.4v93.4zm-114 83.9V89.8l2.8-2.3h3.6l6.9 5.6v44.4l-2.4 1.7h-4zm6.4 54.6v-2.5h-3.5l-2.2-1.7v-46.6l5.1 4h9.1l7-5.4V96.3l-13.3-10.6h-8.5l-8.9 6.9v86.5l11.6 9.2zm45-54 9.2 7.2h4V91.3h5.7l-6.9-5.6h-2.8l-3 2.4v2.6l-6.3-5h-8.5l-8.8 6.9v41.7h-4.5l9.2 7.2h4.1V89.8l2.3-1.7h3.4l7.6 5.8v40.3zm45.4 53.4h4v-2.2h-3.3l-2.4-1.8V143h3.5l2.2 1.7v5.2h3v-5.6l-3.9-3.6h-4.8V89.8l3-2.3h2.2l5.4 4.2v2.8h2.8v-3.8l-6.3-5h-9.8l-6.4 5v45.4h-4.1l-2.3-1.8v-4.7H-69v5l4.1 3.3h4.7v41.2zM-251.7 48.5h-3.6v1.8h3.6l11.4-9.2v-82.7l-13.3-10.7h-8.5l-8.8 7v37.8l13.8 11.1h8.2v42.6zm-38.7 0h-3.5v1.8h3.5l11.5-9.2v-82.7l-13.3-10.7h-8.6l-8.8 7v37.8l13.9 11.1h8.1v42.6zm15.6 75.5-21.9-17.5V89.8l2.8-2.3h3l6.9 5.6v11.4l8.7 7V95.9l-12.8-10.2h-8.6l-8.8 7v37.9l13.9 11h7.6l9.2-7.2zm-21.2 10.2v-23l12 9.6v16.1l-2.8 2.4h-3zm53.5-10.6v-3.3h23.6v17.2l8.6 6.8h4.7v-1.9h-4.7v-22.2h16.9l8.6-6.9v-3.6h-2.3v3.6h-23.2V93.1l-9-7.4h-4.3v1.8h4.2v25.8H-236l-8.9 7v3.3zm-108.4-68.9 2.8 2.2v122.5l10.5 8.3h4.4v-2.2h-3.9l-2.3-1.8v-44.4l6.9 5.4h6.3l8.1-6.4V92.6h5.2l-8.6-7h-4.7V143h-3.9l-9.3-7.5V61.2l-11-8.8h-4v2.3Zm-74-8.9V5.1h3.6l2.2 1.7V12h2.9V6.4l-3.9-3.6h-4.8v-50.9l3-2.3h2.2l5.4 4.2v2.8h2.8v-3.8l-6.3-5h-9.8l-6.4 5v45.4h-4.1l-2.3-1.9v-4.6h-2.4v5l4.1 3.3h4.7v41.2l10.8 8.6h4v-2.2h-3.3zm-51.7 95.7h7.6l9.3-7.2V88h4v-2.4h-4l-6.3 5.1-6.5-5h-9.1l-8.8 6.9v37.9zm1.9-2.2-7-5.7V89.4l1.7-1.2h4.1l6.9 5.4V137l-2.8 2.4zm58.2-8.9V95l-11.6-9.2h-8l-2.3 1.8V61.2l-11-8.8h-4v1.9h4l2.3 1.8v78.6h-4.7l8.8 6.8h4.1v-7.2l4.5 3.6h8.8zM-431 136l-7.5-6V89.8l2.7-2.3h2.6l7.9 6.4v39.8l-3 2.4zm61.4 47.7V143h3.6l2.1 1.7v5.2h3v-5.6l-3.9-3.6h-4.8V89.8l3-2.3h2.2l5.4 4.2v2.8h2.7v-3.8l-6.2-5h-9.9l-6.3 5v45.4h-4.1l-2.3-1.8v-4.7h-2.4v5l4.1 3.3h4.7v41.2l10.8 8.6h4v-2.2h-3.3zm-146.7-45.8V179l10.8 8.7h4v-2.2h-3.3l-2.5-1.8V143h3.6l2.2 1.7v5.2h3v-5.6l-4-3.6h-4.7V89.8l3-2.3h2.2l5.3 4.2v2.8h2.8v-3.8l-6.3-5h-9.8l-6.3 5v45.4h-4.2l-2.2-1.8v-4.7h-2.4v5l4 3.3zm535.6 1.3h-3l-7.4-6V89.9l2.3-1.7h3.4l7.5 5.8v43zm-5.4 2.3h7.6l8.7-6.8V96.3L17 85.7H9L.2 92.6v37.9zm-28.8 46.2h4v-2.2H-14l-2.4-1.8V143h3.5l2.2 1.7v5.2h3v-5.6l-3.9-3.6h-4.8V89.8l3-2.3h2.2l5.3 4.2v2.8h2.8v-3.8l-6.3-5h-9.8l-6.3 5v45.4h-4.2l-2.2-1.8v-4.7h-2.4v5l4.1 3.3h4.7v41.2zm75.6-48.4-8.6-7V72.8l-11.5-9.3h-4v1.9h4l2.8 2.2v66.7h-5L47 141h4.8v-5l6.7 5.4h8.1l7.5-6V92.6h5.2l-8.5-7H65v53.7z" style="fill:#e6c97d;fill-opacity:1;fill-rule:evenodd;stroke:none" transform="matrix(1.3333333 0 0 -1.3333333 898.7 1085.3)"/><path d="M308.6 747.7h9.2v-10.8h-9.2zm137.2 0h9.3v-10.8h-9.3zm56 137.8h9.3v-10.7h-9.2zm-90.5 0h9.2v-10.7h-9.2zm-132.6-10.7h-9.3v10.7h9.3z" style="fill:#2e3949;fill-opacity:1;fill-rule:evenodd;stroke:none" transform="matrix(1.3333333 0 0 -1.3333333 0 2133.3)"/><g clip-path="url(#a)" opacity=".5"><path d="M0 0h46.4v22.9A83 83 0 0 1 96-5.7a82 82 0 0 1-49.6-28.8v22.6H0Z" clip-path="url(#b)" style="fill:#e6c97d;fill-opacity:1;fill-rule:evenodd;stroke:none" transform="matrix(1.3333333 0 0 -1.3333333 946 1458.1)"/></g></svg>