<svg xmlns="http://www.w3.org/2000/svg" width="1200" height="2133.3" viewBox="0 0 1200 2133.3"><defs><clipPath id="b" clipPathUnits="userSpaceOnUse"><path d="M0 22.8h96v-57.3H0z"/></clipPath><clipPath id="a" clipPathUnits="userSpaceOnUse"><path d="M0 0h1200v2133.3H0Z"/></clipPath></defs><path d="M79 1207h745.4V450.4H79.1Z" style="fill:#2e3949;fill-opacity:1;fill-rule:evenodd;stroke:#e6c97d;stroke-width:10;stroke-linecap:butt;stroke-linejoin:miter;stroke-miterlimit:3;stroke-dasharray:none;stroke-opacity:1" transform="matrix(1.3333333 0 0 -1.3333333 0 2133.3)"/><path d="M0 0h14.7l5.2-4.1v-87.7L7.2-101.9H2.1v2.2h4.6l2.6 2.1v37.4l-4.7-3.7h-9.7l-10.2 8v43.7zm2.1-2.6-7.2-5.7v-50.8l3.1-2.6h3.4l8.5 6.9v50.2l-2.7 2Zm48.2 0h-3.4l-7.2-5.7v-26.4l13.8 11v18.5ZM64-8.3V-20L39-40v-19.1l3.2-2.6h3.4l7.9 6.4v13l9.9 8v-17.9L48.8-63.8H39L28.9-56v43.2L44.8 0h8.7zm29.5 56.5V1.6h4.1l2.5 2v6h3.4V3.2L99-.9h-5.5v-58.2l3.5-2.6h2.5l6 4.7v3.3h3.2V-58l-7.2-5.8h-11L83.2-58v51.8h-4.8l-2.6-2.1v-5.3h-2.7v5.7l4.7 3.7h5.4v47l12.3 10h4.6v-2.6h-3.8ZM186.3 0l5.3-4.1V-10l-4.7-3.6v9l-2.5 2h-4.6l-2.5-2v-18.2l9.6-7.7v-60.8l-10.3-8.4h-9.4l-5.2 4.2v3.7h3.2v-3.7l2.8-2.1h5.2l4 3.2v61.7l-10.7 8.4v16L177.3 0ZM133-4.6l-2.5 2h-4.6l-2.6-2v-18.2l9.7-7.7v-60.8l-10.3-8.4h-9.4l-5.2 4.2v3.7h3.2v-3.7l2.8-2.1h5.2l4 3.2v61.7l-10.8 8.4v16L123.4 0h9.1l5.3-4.1V-10l-4.7-3.7ZM245.7 0h4.6v-59.1l2.6-2h4l8.6 6.7v46.1h-5.4L270.6 0h4.6v-57.4h6.6l-8-6.5h-3.1l-3.4 2.8v3l-7.2-5.8h-9.8l-10 8v47.6H235ZM223 52.8v-2.6h-3.8l-2.8-2V1.6h4.1l2.5 2v6h3.4V3.2L222-.9h-5.5v-58.2l3.5-2.6h2.4l6.1 4.7v3.3h3.2V-58l-7.2-5.8h-11.1l-7.2 5.8v51.8h-4.8l-2.6-2.1v-5.3h-2.7v5.7l4.7 3.7h5.3v47l12.4 10zM314.2-.5l9.9-7.8v-10.1l-9.3-7.4v21.2l-2.7 2h-4.5l-7.2-5.7v-51.9l1.9-1.5h4.7l7.8 6.4v13l10 8v-17.3l-15.3-12.2h-9.7L289.6-56v43.2L305-.5zm32.9 53.9h4.6v-2.7h-4.6l-2.5-2V-20h4l5.6 4.8V0l12.1 9.6h5.1V7.5H367l-2.7-2.2v-16.8L353.6-20H349l14.7-11.6v-28.6l3.7-3.2h3.5v-2h-5.4l-11.9 9.5V-29l-9 7.4v-34.3h4.4l-9.9-8h-5.3V43zm-55 40.2 2.6-2.1h7.2l5.3 4.2v49l-5.3 4.4h-3.2l-6.5-5.3zM235 154.8h-3.4l-7.1-5.7v-26.4l13.7 11v18.5zm-5.5 2.6h8.7l10.6-8.3v-11.7l-25-20V98.3l3.2-2.6h3.3l8 6.3v13.1l9.8 8v-17.9l-14.6-11.6h-9.7l-10.1 7.9v43.2zm62.7-3 3.2-2.8h4.1l7.8 6.4v18.5L304 179h-4.6l-7.2-5.9zm-9.4 14.7 15.2 12.1h6.6l12-9.6v-8.9l-13.1-10.5 13.8-11.2v-39.5L302 89.4h-7.2l-12.6 10V139l11.8 9.4-11.1 9zm-103.1-24.8v-46l3.2-2.6h2.8l9.1 7.3v45.4l-3.3 2.7h-3.2zm-.5 13.1v-8.3l5 4.2h10.2l10.3-8.6v-40.6l-13.2-10.5h-9.2l-2.6 2v-30L167 55.5h-4.6v2.2h4.6l2.5 2.1v89.8h-5.3l10.1 7.8zm-48.8-59.7 1.7-1.4h4.8l7.9 6.3v49.6l-3.2 2.6h-3.4l-7.8-6.4zm-10.2 3.8v43.2l15.9 12.7h8.7l10.6-8.3V96.3h4.5v-2.7h-4.6l-7.1 5.8-7.5-5.9h-10.3ZM83.5 210.2h5.1v-2.6H84l-2.7-2v-50.8l8 6.3h7.2l9.3-7.4v-52.2h5.9l-10-8h-5.3V159H92l-10.7-8.5V65.6L68.8 55.5h-4.6v2.7h4l3.2 2.5v140zm71.5 96.3v-52.8h4.6V251H155l-7.2 5.7-7.4-5.7H130l-10.1 7.9v43.2l15.9 12.7h8.7zm-17.1 5.7-7.9-6.4v-50.7l1.8-1.4h4.8l7.9 6.3v49.6l-3.2 2.6zm26.8-5.2 9.5 7.3h4.6v-12.2l15.2 12.2h6.6l3.8-3.2v-4.6h5.3l-9.1-7.6H197l-2.7 2.3v5.3H191l-12.3-10.1v-37.5h5.7l-9.7-8h-6v56zm-71 5.2-7.1-5.7v-51.9l1.8-1.5H93l7.8 6.3v13.1l10 8v-17.3L95.5 251h-9.7l-10.1 7.9v43.2l15.2 12.2h9.3l9.9-7.8v-10.1l-9.3-7.4v21.1l-2.7 2.1zm238.4 2.6h4.6v-57.4h6.6l-8-6.4H332l-3.4 2.7v3l-7.1-5.7h-9.8l-10.1 7.9v47.6h-5.1l10.5 8.3h4.7v-59.1l2.6-2h4l8.6 6.7v46.1h-5.4zm31.7 52.8h5.2V365h-5.2l-1.9-1.5v-104h5.8l-10.5-8.6H351v106.7zm-115.3-72.8-25-20v-19.1l3.1-2.6h3.4l7.9 6.4v13l9.9 8v-17.9L233.1 251h-9.8l-10 7.9v43.2l15.8 12.7h8.7l10.5-8.3zM224 306.5v-26.4l13.8 11v18.5l-3.2 2.6h-3.4zm68.5 51.2h-2.6v4.1l-2.6 2.1h-6.7l-2.8-2.1v-64.9h3.5l4 3.2v4.1h2.5V299l-5.3-4.1h-4.7v-70.7l-11.1-9h-7.8l-5.5 3.7v4.6h2.7v-4.7l2.8-1.5h5.8l3.5 2.6v68.5h-4.7l-3.3-2.5v-5.3h-2.8v5.3l6.7 5.3h4.1v67l9.7 8h9.4l5.2-4.3zM47.3 157.3h9l5.3-4.1v-5.9l-4.7-3.6v9l-2.5 2h-4.7l-2.5-2v-18.2l9.7-7.8V66.1l-10.4-8.4h-9.4L32 61.8v3.8h3.2v-3.7l2.8-2.1h5.2l4 3.2v61.7l-10.7 8.4v16zm-5 137.4-25-20v-19.1l3.2-2.6h3.3l8 6.4v13l9.9 8v-17.9L27 250.9h-9.7l-10.1 8v43.2L23 314.8h8.7l10.6-8.3ZM18 306.5v-26.4l13.8 11v18.5l-3.3 2.6h-3.3zm-37 5.7-7.8-6.4v-50.1l3.1-2.6h4.1l7.8 6.4V310l-2.7 2.1zm-7.1 51.3V310l5.8 4.7h10.4l8-6.3V263L-17 251h-9.7l-10.1 8v98.8l13.3 10.5h4v-2.7h-4zM380 266.8h10v-12.2h-10Zm0 39.7h10v-12.2h-10Z" style="fill:#e6c97d;fill-opacity:1;fill-rule:evenodd;stroke:none" transform="matrix(1.3333333 0 0 -1.3333333 365 1169.7)"/><path d="M420.6 674.8h10.6v-12.2h-10.6Zm115.6 157.4h10.6v-12.3h-10.6ZM340.3 977.3h-10.5v12.3h10.6z" style="fill:#2e3949;fill-opacity:1;fill-rule:evenodd;stroke:none" transform="matrix(1.3333333 0 0 -1.3333333 0 2133.3)"/><g clip-path="url(#a)" opacity=".5"><path d="M0 0h46.4v22.9A83 83 0 0 1 96-5.7a82 82 0 0 1-49.6-28.8v22.6H0Z" clip-path="url(#b)" style="fill:#e6c97d;fill-opacity:1;fill-rule:evenodd;stroke:none" transform="matrix(1.3333333 0 0 -1.3333333 946 1458.1)"/></g></svg>