<?xml version="1.0" encoding="UTF-8" standalone="no"?>
<!-- Created with Inkscape (http://www.inkscape.org/) -->

<svg
   version="1.1"
   id="svg1"
   width="1200"
   height="2133.3333"
   viewBox="0 0 1200 2133.3333"
   xmlns="http://www.w3.org/2000/svg"
   xmlns:svg="http://www.w3.org/2000/svg">
  <defs
     id="defs1">
    <clipPath
       clipPathUnits="userSpaceOnUse"
       id="clipPath4">
      <path
         d="M 709.45,529.25 H 805.4 V 471.9 h -95.95 z"
         transform="translate(-709.45022,-506.40041)"
         id="path4" />
    </clipPath>
    <clipPath
       clipPathUnits="userSpaceOnUse"
       id="clipPath6">
      <path
         d="M 0,1600 H 900 V 0 H 0 Z"
         transform="matrix(1.3333333,0,0,-1.3333333,0,2133.3333)"
         id="path6" />
    </clipPath>
  </defs>
  <g
     id="layer-MC1">
    <path
       id="path1"
       d="M 824.45,450.4 H 79.05 V 1207 h 745.4 z"
       style="fill:#2e3949;fill-opacity:1;fill-rule:evenodd;stroke:#e6c97d;stroke-width:10;stroke-linecap:butt;stroke-linejoin:miter;stroke-miterlimit:3;stroke-dasharray:none;stroke-opacity:1"
       transform="matrix(1.3333333,0,0,-1.3333333,0,2133.3333)" />
  </g>
  <g
     id="layer-MC2">
    <path
       id="path2"
       d="m 0,0 v -5.1 l -4.1,-3.2 v 7.85 l -2.2,1.8 h -4.1 l -2.15,-1.8 V -16.3 l 8.45,-6.85 V -76.3 l -9.1,-7.35 h -8.2 l -4.5,3.65 v 3.3 h 2.8 V -80 l 2.4,-1.8 h 4.6 l 3.55,2.8 v 54.05 l -9.45,7.3 v 14 l 9.45,7.25 h 7.9 z m -389,1.35 h -3.05 l -7.35,-6 V -48.1 l 2.25,-1.75 h 3.5 l 7.45,5.85 v 43 z m 10.95,-4.6 V -41.6 l -13.35,-10.65 h -8 l -8.8,6.95 v 37.85 l 13.85,11.05 h 7.6 z m 48.45,4.6 h -2.95 l -6.9,-5.6 v -44.4 l 1.6,-1.2 h 4.15 l 6.9,5.45 V -1 Z m -4.8,2.25 h 7.6 l 9.25,-7.25 v -46.2 h 4 v -2.4 h -4 l -6.3,5.05 -6.5,-5.05 h -9.1 l -8.8,6.95 v 37.85 z m 33.6,-8.25 V -48.1 l 2.8,-2.3 h 2.95 l 6.9,5.6 v 44.35 l -2.25,1.8 h -3.05 z m 38.65,0 V -48.1 l 2.8,-2.3 h 2.95 l 6.9,5.6 v 44.35 l -2.25,1.8 h -3.05 z m 109.95,6 -6.9,-5.6 v -44.4 l 1.6,-1.2 h 4.15 l 6.9,5.45 V -1 l -2.8,2.35 z m -35.15,-3.2 h -2.75 l -7.55,-6.05 v -40.2 l 2.8,-2.3 h 2.5 l 7.95,6.4 v 39.75 z m 11.6,-5.6 V -43 l -11.6,-9.25 h -7.95 l -2.35,1.85 v -26.3 l -10.95,-8.85 h -4.05 v 1.9 h 4.05 l 2.25,1.85 V -3.25 H -211 l 8.8,6.85 h 4.1 v -7.25 l 4.45,3.65 h 8.85 z m 38.55,3.8 v -46.2 h 4 v -2.4 h -4 l -6.3,5.05 -6.5,-5.05 h -9.1 l -8.8,6.95 v 37.85 l 13.85,11.05 h 7.6 z M -94,-2.4 v -42.9 h 5.2 l -8.55,-6.95 h -5.7 v 53.6 h -4.2 l -8.65,-7 V -65.1 l -11.5,-9.3 h -4.05 v 1.85 h 4.05 l 2.8,2.25 v 66.65 h -5.05 l 8.55,6.85 h 4.75 v -5.05 l 6.7,5.45 h 8.15 z m 42.75,-11.5 -21.9,-17.5 v -16.7 l 2.8,-2.3 h 2.95 l 6.9,5.6 v 11.4 l 8.7,7.05 v -15.7 l -12.8,-10.2 h -8.55 l -8.8,6.95 V -7.45 L -68.1,3.6 h 7.6 l 9.25,-7.25 z m -15,15.25 -6.25,-5 v -23.1 l 12,9.65 V -1 l -2.8,2.35 z m 34,48.45 h 4.65 v -2.25 h -4.65 l -1.6,-1.35 v -91 h 5.1 l -9.2,-7.45 h -5.35 v 93.4 z m -113.9,83.85 V 89.8 l 2.8,-2.3 h 3.55 l 6.85,5.6 v 44.35 l -2.4,1.8 h -3.9 z m 6.35,54.6 v -2.4 h -3.55 l -2.15,-1.75 v -46.65 l 5.1,4.05 h 9.1 l 7.05,-5.45 V 96.3 L -137.6,85.65 h -8.55 l -8.8,6.95 v 86.45 l 11.6,9.2 z m 44.95,-54 9.25,7.25 h 4 V 91.25 h 5.75 l -6.95,-5.6 h -2.8 l -2.95,2.4 v 2.65 l -6.3,-5.05 h -8.55 l -8.8,6.95 v 41.65 h -4.5 l 9.2,7.25 h 4.1 V 89.8 l 2.25,-1.75 h 3.5 l 7.55,5.85 v 40.35 z m 45.45,53.45 h 4.05 v -2.25 h -3.35 l -2.4,-1.75 v -40.75 h 3.55 l 2.2,1.75 v 5.2 h 2.95 v -5.6 l -3.9,-3.6 h -4.8 V 89.8 l 3,-2.3 h 2.2 l 5.35,4.15 v 2.8 h 2.8 V 90.7 l -6.3,-5.05 h -9.8 l -6.35,5.05 v 45.35 h -4.15 l -2.25,-1.8 V 129.6 H -69 v 5.05 l 4.1,3.25 h 4.7 v 41.15 z M -251.75,48.45 h -3.5 v 1.9 h 3.5 l 11.5,-9.2 V -41.6 l -13.35,-10.65 h -8.55 l -8.8,6.95 V -7.45 L -257.1,3.6 h 8.15 v 42.6 z m -38.65,0 h -3.5 v 1.9 h 3.5 l 11.5,-9.2 V -41.6 l -13.35,-10.65 h -8.55 l -8.8,6.95 v 37.85 l 13.85,11.05 h 8.15 v 42.6 z m 15.6,75.55 -21.9,-17.5 V 89.8 l 2.8,-2.3 h 2.95 l 6.9,5.6 v 11.4 l 8.7,7.05 v -15.7 l -12.8,-10.2 h -8.55 l -8.8,6.95 v 37.85 l 13.85,11.05 h 7.6 l 9.25,-7.25 z m -21.25,10.25 v -23.1 l 12,9.65 v 16.1 l -2.8,2.35 h -2.95 z m 53.55,-10.65 v -3.35 h 23.55 v 17.2 l 8.65,6.85 h 4.65 v -1.85 h -4.65 v -22.2 h 16.85 l 8.65,-6.9 v -3.65 h -2.35 v 3.65 H -210.3 V 93.1 l -9.05,-7.45 h -4.2 v 1.85 h 4.2 v 25.85 h -16.75 l -8.85,6.9 v 3.35 z m -108.45,-68.9 2.8,2.25 v 122.5 l 10.5,8.25 h 4.45 v -2.25 h -3.9 l -2.35,-1.75 v -44.45 l 6.95,5.45 h 6.3 l 8.1,-6.4 V 92.6 h 5.2 l -8.65,-6.95 h -4.65 v 57.3 h -3.9 l -9.35,-7.45 V 61.2 l -10.95,-8.85 h -4.05 V 54.7 Z M -424.9,45.8 V 5.05 h 3.55 l 2.2,1.75 V 12 h 2.95 V 6.4 l -3.9,-3.6 h -4.8 v -50.9 l 3,-2.3 h 2.2 l 5.35,4.15 v 2.8 h 2.8 v -3.75 l -6.3,-5.05 h -9.8 l -6.35,5.05 v 45.35 h -4.15 l -2.25,-1.8 V -8.3 h -2.4 v 5.05 l 4.1,3.25 h 4.7 v 41.15 l 10.8,8.65 h 4.05 v -2.25 h -3.35 z m -51.7,95.7 h 7.6 l 9.25,-7.25 v -46.2 h 4 v -2.4 h -4 l -6.3,5.05 -6.5,-5.05 h -9.1 l -8.8,6.95 v 37.85 z m 1.85,-2.25 -6.9,-5.6 v -44.4 l 1.6,-1.2 h 4.15 l 6.9,5.45 v 43.4 l -2.8,2.35 z m 58.2,-8.8 V 94.9 l -11.6,-9.25 h -7.95 l -2.35,1.85 V 61.2 l -10.95,-8.85 h -4.05 v 1.9 h 4.05 l 2.25,1.85 v 78.55 h -4.65 l 8.8,6.85 h 4.1 v -7.25 l 4.45,3.65 h 8.85 z m -14.35,5.6 -7.55,-6.05 V 89.8 l 2.8,-2.3 h 2.5 l 7.95,6.4 v 39.75 l -2.95,2.4 z m 61.4,47.65 v -40.75 h 3.55 l 2.2,1.75 v 5.2 h 2.95 v -5.6 l -3.9,-3.6 h -4.8 V 89.8 l 3,-2.3 h 2.2 l 5.35,4.15 v 2.8 h 2.8 V 90.7 l -6.3,-5.05 h -9.8 l -6.35,5.05 v 45.35 h -4.15 l -2.25,-1.8 v -4.65 h -2.4 v 5.05 l 4.1,3.25 h 4.7 v 41.15 l 10.8,8.65 h 4.05 v -2.25 h -3.35 z m -146.75,-45.8 v 41.15 l 10.8,8.65 h 4.05 v -2.25 h -3.35 l -2.4,-1.75 v -40.75 h 3.55 l 2.2,1.75 v 5.2 h 2.95 v -5.6 l -3.9,-3.6 h -4.8 V 89.8 l 3,-2.3 h 2.2 l 5.35,4.15 v 2.8 h 2.8 V 90.7 l -6.3,-5.05 h -9.8 l -6.35,5.05 v 45.35 h -4.15 l -2.25,-1.8 v -4.65 h -2.4 v 5.05 l 4.1,3.25 z M 19.4,139.25 H 16.35 L 9,133.25 V 89.8 l 2.25,-1.75 h 3.5 l 7.45,5.85 v 43 z m -5.35,2.25 h 7.6 l 8.7,-6.85 V 96.3 L 17,85.65 H 9 L 0.2,92.6 v 37.85 z m -28.85,46.2 h 4.05 v -2.25 h -3.35 l -2.4,-1.75 v -40.75 h 3.55 l 2.2,1.75 v 5.2 h 2.95 v -5.6 l -3.9,-3.6 h -4.8 V 89.8 l 3,-2.3 h 2.2 l 5.35,4.15 v 2.8 h 2.8 V 90.7 l -6.3,-5.05 h -9.8 l -6.35,5.05 v 45.35 h -4.15 l -2.25,-1.8 v -4.65 h -2.4 v 5.05 l 4.1,3.25 h 4.7 v 41.15 z m 75.65,-48.45 -8.65,-7 V 72.8 L 40.7,63.5 h -4.05 v 1.85 h 4.05 l 2.8,2.25 v 66.65 H 38.45 L 47,141.1 h 4.75 v -5.05 l 6.7,5.45 h 8.15 l 7.5,-6 V 92.6 h 5.2 l -8.55,-6.95 h -5.7 v 53.6 z"
       style="fill:#e6c97d;fill-opacity:1;fill-rule:evenodd;stroke:none"
       transform="matrix(1.3333333,0,0,-1.3333333,898.66667,1085.3333)" />
    <path
       id="path3"
       d="m 308.55,747.65 h 9.25 v -10.7 h -9.25 z m 137.25,0 h 9.25 v -10.7 h -9.25 z m 56.05,137.9 h 9.25 v -10.7 h -9.25 z m -90.6,0 h 9.25 v -10.7 h -9.25 z m -132.6,-10.7 h -9.25 v 10.7 h 9.25 z"
       style="fill:#2e3949;fill-opacity:1;fill-rule:evenodd;stroke:none"
       transform="matrix(1.3333333,0,0,-1.3333333,0,2133.3333)" />
  </g>
  <g
     id="layer-MC3">
    <g
       opacity="0.498032"
       id="g5"
       clip-path="url(#clipPath6)">
      <path
         d="M 0,0 H 46.399 V 22.85 C 59.566,7.416 76.083,-2.101 95.95,-5.7 76.116,-9.2 59.6,-18.801 46.399,-34.5 v 22.55 H 0 Z"
         style="fill:#e6c97d;fill-opacity:1;fill-rule:evenodd;stroke:none"
         transform="matrix(1.3333333,0,0,-1.3333333,945.9336,1458.1328)"
         clip-path="url(#clipPath4)"
         id="path5" />
    </g>
  </g>
</svg>
