<?xml version="1.0" encoding="UTF-8" standalone="no"?>
<!-- Created with Inkscape (http://www.inkscape.org/) -->

<svg
   version="1.1"
   id="svg1"
   width="1200"
   height="2133.3333"
   viewBox="0 0 1200 2133.3333"
   xmlns="http://www.w3.org/2000/svg"
   xmlns:svg="http://www.w3.org/2000/svg">
  <defs
     id="defs1">
    <clipPath
       clipPathUnits="userSpaceOnUse"
       id="clipPath4">
      <path
         d="M 709.45,529.25 H 805.4 V 471.9 h -95.95 z"
         transform="translate(-709.45022,-506.40041)"
         id="path4" />
    </clipPath>
    <clipPath
       clipPathUnits="userSpaceOnUse"
       id="clipPath6">
      <path
         d="M 0,1600 H 900 V 0 H 0 Z"
         transform="matrix(1.3333333,0,0,-1.3333333,0,2133.3333)"
         id="path6" />
    </clipPath>
  </defs>
  <g
     id="layer-MC1">
    <path
       id="path1"
       d="M 824.45,450.4 H 79.05 V 1207 h 745.4 z"
       style="fill:#2e3949;fill-opacity:1;fill-rule:evenodd;stroke:#e6c97d;stroke-width:10;stroke-linecap:butt;stroke-linejoin:miter;stroke-miterlimit:3;stroke-dasharray:none;stroke-opacity:1"
       transform="matrix(1.3333333,0,0,-1.3333333,0,2133.3333)" />
  </g>
  <g
     id="layer-MC2">
    <path
       id="path2"
       d="m 0,0 v -46.601 h 4.1 l 2.5,2.051 v 5.949 H 9.95 V -45 L 5.5,-49.15 H 0 v -58.15 l 3.45,-2.65 h 2.5 l 6.1,4.75 v 3.25 h 3.2 v -4.3 l -7.2,-5.8 H -3.1 l -7.25,5.8 v 51.8 h -4.8 l -2.55,-2.05 v -5.3 h -2.75 v 5.75 l 4.7,3.699 h 5.4 v 47 L 2,4.6 H 6.6 V 2 H 2.75 Z m 41,-50.8 h -3.5 l -8.35,-6.9 v -49.6 l 2.55,-2 h 4 l 8.5,6.699 v 49.151 z m 2.6,2.6 9.9,-7.85 V -99.851 L 38.25,-112.05 h -9.1 l -10.1,7.949 V -60.9 l 15.85,12.7 z m 147.65,-5.25 -3.2,2.65 h -3.4 l -7.15,-5.7 v -26.4 l 13.75,11 z m -64.7,-2.1 8.7,6.85 h 7.8 l 9.15,-7.35 v -47.5 h 5.4 l -10.55,-8.5 h -4.6 v 61.25 h -4 l -11.25,-8.9 v -44.401 h 4.7 l -9.95,-7.949 h -4.05 v 61.25 h -5.25 l -10.4,-8.45 v -69.15 l -12,-9.6 h -4.6 v 2.75 H 89 l 3.8,3.2 v 75.55 h -5.75 l 10.55,8.3 h 4.65 v -6.25 l 7.2,5.75 h 8.45 z m 85,-0.5 9.4,7.35 h 4.65 v -12.2 l 15.2,12.2 h 6.55 l 3.8,-3.2 v -4.6 h 5.35 l -9.15,-7.601 H 244 l -2.75,2.301 v 5.3 h -3.35 l -12.3,-10.101 v -37.5 h 5.7 l -9.65,-7.949 h -6.1 v 56 z m -9.75,-12.15 -25,-20 v -19.1 l 3.2,-2.65 h 3.35 l 7.9,6.4 v 13.05 l 9.9,8.05 v -17.95 l -14.6,-11.65 h -9.75 l -10.1,7.949 V -60.9 l 15.85,12.7 h 8.7 l 10.55,-8.3 z m 127.05,14.75 -3.2,2.65 h -3.4 l -7.15,-5.7 v -26.4 l 13.75,11 z m 0,5.25 10.55,-8.3 v -11.7 l -25,-20 v -19.1 l 3.2,-2.65 h 3.35 l 7.9,6.4 v 13.05 l 9.9,8.05 v -17.95 l -14.6,-11.65 h -9.75 l -10.1,7.949 V -60.9 l 15.85,12.7 z m -46.25,-2.6 h -5.1 l -7.25,-5.7 v -50.8 l 3.2,-2.65 h 3.35 l 8.5,6.9 v 50.199 z m 12.65,-1.551 V -140 l -12.65,-10.101 h -5.1 v 2.201 h 4.6 l 2.6,2.1 v 37.4 l -4.7,-3.65 h -9.75 l -10.1,7.949 V -60.4 l 15.25,12.2 h 14.7 z m 36.4,141.551 -25,-20 V 50.1 l 3.2,-2.65 h 3.35 l 7.9,6.4 V 66.9 l 9.9,8.05 V 57 L 316.4,45.35 h -9.75 l -10.1,7.95 v 43.2 l 15.85,12.7 h 8.7 l 10.55,-8.3 z m -13.75,17.4 h -3.4 l -7.15,-5.7 V 74.5 l 13.75,11 v 18.45 z M 259.8,162 h 5.1 v -2.6 h -4.5 l -2.7,-2 v -50.8 l 7.95,6.25 h 7.2 l 9.3,-7.35 V 53.3 h 5.95 l -9.95,-7.95 h -5.3 v 65.45 h -4.45 l -10.7,-8.5 V 17.399 L 245.2,7.3 h -4.6 v 2.65 h 3.95 l 3.2,2.6 v 140 z m -34.4,0 h 4.6 v -2.6 h -3.85 l -2.75,-2 v -46.6 h 4.1 l 2.5,2.05 v 5.95 h 3.35 v -6.4 l -4.45,-4.15 h -5.5 V 50.1 l 3.45,-2.65 h 2.5 l 6.1,4.75 v 3.25 h 3.2 v -4.3 l -7.2,-5.8 H 220.3 l -7.25,5.8 v 51.8 h -4.8 l -2.55,-2.05 v -5.3 h -2.75 v 5.75 l 4.7,3.7 h 5.4 v 47 z M 168.9,99.7 V 50.1 l 2.55,-2 h 4 l 8.5,6.7 v 49.15 l -3.2,2.65 h -3.5 z m 5.75,9.5 h 8.7 l 9.9,-7.85 V 57.55 L 178,45.35 h -9.1 l -10.1,7.95 v 43.2 z m -70.4,-8.3 9.75,7.8 h 5.45 v -5.75 l 7.7,6.25 h 9.25 l 8.6,-6.9 v -49 h 5.95 l -9.75,-7.95 h -6.55 v 61.25 h -4.8 l -9.9,-7.95 v -68 L 106.8,20.05 h -4.6 v 2.1 h 4.6 l 3.2,2.55 v 76.2 z m -22.35,5.7 h -3.4 l -7.85,-6.4 V 49.5 l 1.8,-1.4 h 4.75 l 7.9,6.25 v 49.6 z m 3.2,2.6 10.55,-8.3 V 48.1 h 4.6 v -2.75 h -4.6 l -7.2,5.8 L 81,45.35 H 70.65 l -10.1,7.95 v 43.2 l 15.85,12.7 z m 66.8,157.4 10.55,-8.3 v -52.8 h 4.6 v -2.75 h -4.6 l -7.2,5.8 -7.45,-5.8 h -10.35 l -10.1,7.95 v 43.2 l 15.85,12.7 z m -14.45,-9 v -50.7 l 1.8,-1.4 H 144 l 7.9,6.25 v 49.6 l -3.2,2.65 h -3.4 z m -59.8,2.75 -8.65,-6.9 V 207.5 l 3.2,-2.65 h 2.9 l 9.05,7.35 v 45.4 l -3.35,2.75 z m -9.15,-2.05 5.1,4.15 H 83.7 L 94.05,253.9 V 213.3 L 80.8,202.75 h -9.1 l -2.7,2.1 V 174.8 L 56.5,164.7 h -4.6 v 2.2 h 4.6 l 2.55,2.1 v 89.75 h -5.3 l 10.1,7.85 h 4.65 z m 236,-2.25 v -68 l -13.15,-10.6 h -4.6 v 2.1 h 4.6 l 3.2,2.55 v 76.2 h -5.75 l 9.75,7.8 H 304 v -5.75 l 7.7,6.25 h 9.25 l 8.6,-6.9 v -49 h 5.95 l -9.75,-7.95 H 319.2 V 264 h -4.8 z m -34.85,10.55 10.55,-8.3 v -52.8 h 4.6 v -2.75 h -4.6 l -7.2,5.8 -7.45,-5.8 H 255.2 l -10.1,7.95 v 43.2 l 15.85,12.7 z m -14.45,-9 v -50.7 l 1.8,-1.4 h 4.75 l 7.9,6.25 v 49.6 l -3.2,2.65 h -3.4 z m -32.35,2.75 h -3.15 l -8.65,-6.9 V 207.5 l 3.2,-2.65 h 2.9 l 9.05,7.35 v 45.4 z m 2.9,2.1 10.35,-8.55 v -40.6 l -13.25,-10.55 h -9.1 l -2.7,2.1 V 174.8 l -12.5,-10.1 h -4.6 v 2.2 h 4.6 l 2.55,2.1 v 89.75 h -5.3 l 10.1,7.85 h 4.65 v -8.3 l 5.1,4.15 z M -3.1,102.95 4.6,109.2 h 9.25 l 8.6,-6.9 v -49 H 28.4 L 18.65,45.35 H 12.1 V 106.6 H 7.3 l -9.9,-7.95 v -68 l -13.15,-10.6 h -4.6 v 2.1 h 4.6 l 3.2,2.55 v 76.2 h -5.75 l 9.75,7.8 H -3.1 Z M -49.35,48.1 h 4 l 8.5,6.7 v 49.15 l -3.2,2.65 h -3.5 L -51.9,99.7 V 50.1 Z M -62,53.3 v 43.2 l 15.85,12.7 h 8.7 l 9.9,-7.85 V 57.55 L -42.8,45.35 h -9.1 z m 87.45,213.3 h 8.7 l 9.9,-7.85 v -43.8 L 28.8,202.75 H 19.7 L 9.6,210.7 v 43.2 z m 2.6,-2.6 -8.35,-6.9 v -49.6 l 2.55,-2 h 4 l 8.5,6.7 v 49.15 l -3.2,2.65 z m -53,-15.8 v -37.5 h 5.7 l -9.65,-7.95 H -35 v 56 h -4 l 9.4,7.35 h 4.65 v -12.2 l 15.2,12.2 h 6.55 l 3.8,-3.2 v -4.6 H 5.95 L -3.2,250.7 H -6.55 L -9.3,253 v 5.3 h -3.35 z m -40.45,15.8 -8.35,-6.9 v -49.6 l 3.2,-2.65 h 3.35 l 7.9,6.4 v 50.7 l -2.6,2.05 z m 16.65,45.45 v -94.5 L -64,202.75 h -9.75 l -10.1,7.95 v 43.2 L -68,266.6 h 9.3 v 48.65 l -3.2,2.6 h -4 V 320 h 4 z M 386.35,100.9 377.2,93.3 h -3.35 l -2.75,2.3 v 5.3 h -3.35 L 355.45,90.8 V 53.3 h 5.7 l -9.65,-7.95 h -6.1 v 56 h -4 l 9.4,7.35 h 4.65 V 96.5 l 15.2,12.2 h 6.55 l 3.8,-3.2 v -4.6 z M 377.8,232.35 V 214.4 l -14.6,-11.65 h -9.75 l -10.1,7.95 v 43.2 l 15.85,12.7 h 8.7 l 10.55,-8.3 v -11.7 l -25,-20 v -19.1 l 3.2,-2.65 H 360 l 7.9,6.4 v 13.05 z m -16.5,31.65 -7.15,-5.7 v -26.4 l 13.75,11 v 18.45 l -3.2,2.65 z m 44.15,55.4 v -2.6 h -5.3 l -1.85,-1.55 v -104 h 5.85 l -10.55,-8.5 h -6.1 v 106.7 l 12.65,9.95 z"
       style="fill:#e6c97d;fill-opacity:1;fill-rule:evenodd;stroke:none"
       transform="matrix(1.3333333,0,0,-1.3333333,388.13347,1090.7331)" />
    <path
       id="path3"
       d="M 369.55,673.55 H 359 v 12.2 h 10.55 z m -37.5,169.6 h 10.55 v -12.2 h -10.55 z m 77.35,145.2 h -10.55 v 12.2 h 10.55 z m 68.45,0 H 467.3 v 12.2 h 10.55 z"
       style="fill:#2e3949;fill-opacity:1;fill-rule:evenodd;stroke:none"
       transform="matrix(1.3333333,0,0,-1.3333333,0,2133.3333)" />
  </g>
  <g
     id="layer-MC3">
    <g
       opacity="0.498032"
       id="g5"
       clip-path="url(#clipPath6)">
      <path
         d="M 0,0 H 46.399 V 22.85 C 59.566,7.416 76.083,-2.101 95.95,-5.7 76.116,-9.2 59.6,-18.801 46.399,-34.5 v 22.55 H 0 Z"
         style="fill:#e6c97d;fill-opacity:1;fill-rule:evenodd;stroke:none"
         transform="matrix(1.3333333,0,0,-1.3333333,945.9336,1458.1328)"
         clip-path="url(#clipPath4)"
         id="path5" />
    </g>
  </g>
</svg>
