<svg xmlns="http://www.w3.org/2000/svg" width="1200" height="2133.3" viewBox="0 0 1200 2133.3"><defs><clipPath id="b" clipPathUnits="userSpaceOnUse"><path d="M0 22.8h96v-57.3H0z"/></clipPath><clipPath id="a" clipPathUnits="userSpaceOnUse"><path d="M0 0h1200v2133.3H0Z"/></clipPath></defs><path d="M824.5 450.4H79V1207h745.3z" style="fill:#2e3949;fill-opacity:1;fill-rule:evenodd;stroke:#e6c97d;stroke-width:10;stroke-linecap:butt;stroke-linejoin:miter;stroke-miterlimit:3;stroke-dasharray:none;stroke-opacity:1" transform="matrix(1.3333333 0 0 -1.3333333 0 2133.3)"/><path d="m0 0-8.6-6.9v-46l3.1-2.6h3l9 7.4v45.4L3.2 0Zm-33-2v-52.8h4.6v-2.8H-33l-7.2 5.8-7.4-5.8H-58l-10 8v43.2l15.8 12.7h8.7zm-25-.7v-50.7l1.8-1.5h4.8l7.9 6.3V1l-3.2 2.7h-3.4zm34.1 1.1 10.1 7.9h4.6v-8.4L-4 2.1H6l10.4-8.5v-40.7L3.2-57.5H-6l-2.7 2.1v-30l-12.5-10.1h-4.6v2.2h4.5l2.6 2v89.8Zm-63.2 56V8h4.1l2.5 2v6h3.4V9.4l-4.5-4.1h-5.5v-58.1l3.5-2.7h2.5l6 4.8v3.2h3.2v-4.3l-7.1-5.8h-11.2l-7.2 5.8V0h-4.8l-2.6-2v-5.3h-2.7v5.7l4.7 3.7h5.4v47l12.3 10h4.6v-2.7h-3.8z" style="fill:#e7c980;fill-opacity:1;fill-rule:evenodd;stroke:none" transform="matrix(1.3333333 0 0 -1.3333333 455.7 890.3)"/><path d="M307.4 733.2H318v-12.3h-10.6Zm295 0H613v-12.3h-10.5ZM451 878.3h-10.5v12.3H451zm-68.4 0H372v12.3h10.6z" style="fill:#2e3949;fill-opacity:1;fill-rule:evenodd;stroke:none" transform="matrix(1.3333333 0 0 -1.3333333 0 2133.3)"/><path d="M0 0v-49.6l2.6-2h4l8.5 6.7V4.3l-3.2 2.6H8.4zm14.5 9.5 9.9-7.9V-42L9-54.4H0l-10.1 8v43.2L5.8 9.5Zm43.9-8.3 10 7.8h5.2v-55.4h4.6l-9.7-8H63V1.2ZM102.7 9V3.3l7.7 6.2h9.3l8.6-6.9v-49h5.9l-9.7-8h-6.6V7h-4.8l-9.9-8v-68L90-79.7h-4.6v2.1H90l3.3 2.6V1.2h-5.8L97.3 9Zm87.1 5.8v-2.6h-5.5l-2.6-2.1v-52.2l-15.1-12.3h-4.7L146.7-42V1.1h-5.1l10.6 8.3h4.6V-46l5.1-4.3h4l6.1 4.8V5l12.3 9.9zm27.7-7.9h-3.4L207 1.2v-26.4l13.7 11V4.3Zm13.8-5.7v-11.7l-25-20v-19.1l3.1-2.6h3.4l7.9 6.3v13.1l9.9 8v-17.9L216-54.4h-9.7l-10.2 8v43.2L212 9.5h8.7zM276.8 9l3.8-3.2V1.2h5.4l-9.2-7.6h-3.3l-2.8 2.3v5.3h-3.3L255-8.9v-37.5h5.7l-9.7-8h-6v56h-4l9.4 7.4h4.7V-3.2L270.3 9Zm76.6-7.8L363.5 9h5.2v-55.4h4.5l-9.7-8h-5.4V1.2Zm-43.3 56.5V11.1h4l2.6 2v6h3.3v-6.4l-4.4-4.1H310v-58.2l3.5-2.6h2.5l6.1 4.7v3.3h3.2v-4.4l-7.2-5.8H307l-7.3 5.8V3.3h-4.8l-2.5-2.1v-5.3h-2.8v5.7l4.7 3.8h5.4v47l12.4 9.9h4.5v-2.6h-3.8zm-51.6 106.6-7.8-6.4v-50.7l1.8-1.4h4.8l7.8 6.3v49.5l-3.2 2.7zm-2 2.6h8.6l10.6-8.3v-52.8h4.6v-2.7h-4.6l-7.2 5.8-7.4-5.9h-10.4l-10.1 8v43.2zm117.5-20-25-20v-19.1l3.1-2.7h3.4l7.9 6.5v13l9.9 8v-17.9l-14.6-11.6h-9.8l-10 7.9v43.2l15.8 12.7h8.7l10.5-8.3zm-24.4 11.7v-26.4l13.8 11v18.4l-3.2 2.7h-3.4zm-49.6-2.2v-68l-13.1-10.7h-4.6v2.1h4.5l3.3 2.6v76.2h-5.8l9.8 7.8h5.4v-5.8l7.7 6.3h9.3l8.6-6.9v-49h5.9l-9.7-8h-6.6v61.3h-4.8zm-88.8 6.3h10l10.4-8.5v-40.6l-13.2-10.5h-9.2l-2.6 2v-30L194 65h-4.6v2.2h4.6l2.5 2.1v89.8h-5.3l10.1 7.8h4.7v-8.3Zm-4.6-9v-45.9l3.2-2.7h2.8l9.1 7.4v45.4l-3.3 2.7h-3.2zm-48.6 4.9v-52.8h4.6v-2.7H158l-7.2 5.8-7.5-5.9H133l-10.1 8v43.2l15.8 12.7h8.7zm-17.2 5.7-7.8-6.4v-50.7l1.8-1.4h4.7l7.9 6.3v49.5l-3.2 2.7zm-168-102h4.6v-2.6h-3.8l-2.8-2V11.1h4.1l2.5 2v6h3.4v-6.4l-4.4-4.1h-5.5v-58.2l3.4-2.6h2.5l6.1 4.7v3.3h3.2v-4.4l-7.2-5.8h-11.1l-7.3 5.8V3.3h-4.8l-2.5-2.1v-5.3h-2.8v5.7l4.7 3.8h5.4v47zm432.7 0h4.6v-2.6h-3.9l-2.7-2V11.1h4l2.6 2v6h3.3v-6.4L409 8.6h-5.6v-58.2l3.5-2.6h2.5l6.1 4.7v3.3h3.2v-4.4l-7.2-5.8h-11.1l-7.3 5.8V3.3h-4.8l-2.5-2.1v-5.3H383v5.7l4.7 3.8h5.4v47zm-9.8 157.4h5.3v-2.6h-5.3l-1.9-1.5v-104h5.9L389 103h-6v106.7z" style="fill:#e6c97d;fill-opacity:1;fill-rule:evenodd;stroke:none" transform="matrix(1.3333333 0 0 -1.3333333 358.2 1104.5)"/><g clip-path="url(#a)" opacity=".5"><path d="M0 0h46.4v22.9A83 83 0 0 1 96-5.7a82 82 0 0 1-49.6-28.8v22.6H0Z" clip-path="url(#b)" style="fill:#e6c97d;fill-opacity:1;fill-rule:evenodd;stroke:none" transform="matrix(1.3333333 0 0 -1.3333333 946 1458.1)"/></g></svg>