<?xml version="1.0" encoding="UTF-8" standalone="no"?>
<!-- Created with Inkscape (http://www.inkscape.org/) -->

<svg
   version="1.1"
   id="svg1"
   width="1200"
   height="2133.3333"
   viewBox="0 0 1200 2133.3333"
   xmlns="http://www.w3.org/2000/svg"
   xmlns:svg="http://www.w3.org/2000/svg">
  <defs
     id="defs1">
    <clipPath
       clipPathUnits="userSpaceOnUse"
       id="clipPath4">
      <path
         d="M 709.45,529.25 H 805.4 V 471.9 h -95.95 z"
         transform="translate(-709.45022,-506.40041)"
         id="path4" />
    </clipPath>
    <clipPath
       clipPathUnits="userSpaceOnUse"
       id="clipPath6">
      <path
         d="M 0,1600 H 900 V 0 H 0 Z"
         transform="matrix(1.3333333,0,0,-1.3333333,0,2133.3333)"
         id="path6" />
    </clipPath>
  </defs>
  <g
     id="layer-MC1">
    <path
       id="path1"
       d="m 79.05,1207 h 745.4 V 450.4 H 79.05 Z"
       style="fill:#2e3949;fill-opacity:1;fill-rule:evenodd;stroke:#e6c97d;stroke-width:10;stroke-linecap:butt;stroke-linejoin:miter;stroke-miterlimit:3;stroke-dasharray:none;stroke-opacity:1"
       transform="matrix(1.3333333,0,0,-1.3333333,0,2133.3333)" />
  </g>
  <g
     id="layer-MC2">
    <path
       id="path2"
       d="m 0,0 h 14.7 l 5.15,-4.15 V -91.8 L 7.2,-101.9 H 2.1 v 2.2 h 4.6 l 2.6,2.1 v 37.4 l -4.7,-3.65 h -9.75 l -10.1,7.95 v 43.7 z m 2.1,-2.6 -7.25,-5.7 v -50.8 l 3.2,-2.65 H 1.4 l 8.5,6.9 v 50.2 L 7.2,-2.6 Z m 48.15,0 h -3.4 L 39.7,-8.3 v -26.4 l 13.75,11 V -5.25 Z M 64,-8.3 V -20 L 39,-40 v -19.1 l 3.2,-2.65 h 3.35 l 7.9,6.4 v 13.05 l 9.9,8.05 V -52.2 L 48.75,-63.85 H 39 l -10.1,7.95 v 43.2 L 44.75,0 h 8.7 z M 93.5,48.2 V 1.6 h 4.1 l 2.5,2.05 V 9.6 h 3.35 V 3.2 L 99,-0.95 H 93.5 V -59.1 l 3.45,-2.65 h 2.5 l 6.1,4.75 v 3.25 h 3.2 v -4.3 l -7.2,-5.8 H 90.4 l -7.25,5.8 v 51.8 h -4.8 L 75.8,-8.3 v -5.3 h -2.75 v 5.75 l 4.7,3.7 h 5.4 v 47 L 95.5,52.8 h 4.6 V 50.2 H 96.25 Z M 186.3,0 l 5.3,-4.15 v -5.8 l -4.7,-3.65 v 8.95 l -2.5,2.05 h -4.65 l -2.5,-2.05 v -18.1 l 9.65,-7.8 v -60.8 l -10.35,-8.35 h -9.4 l -5.15,4.15 v 3.75 h 3.2 v -3.75 l 2.75,-2.05 h 5.2 l 4.1,3.2 v 61.7 l -10.8,8.4 v 16 L 177.25,0 Z M 133,-4.65 130.5,-2.6 h -4.65 l -2.5,-2.05 v -18.1 l 9.65,-7.8 v -60.8 l -10.35,-8.35 h -9.4 l -5.15,4.15 v 3.75 h 3.2 v -3.75 l 2.75,-2.05 h 5.2 l 4.1,3.2 v 61.7 l -10.8,8.4 v 16 l 10.8,8.3 h 9.05 l 5.3,-4.15 v -5.8 L 133,-13.6 Z M 245.65,0 h 4.65 v -59.1 l 2.6,-2 h 4 l 8.6,6.7 v 46.1 h -5.4 L 270.65,0 h 4.6 v -57.45 h 6.55 l -7.95,-6.4 h -3.2 l -3.4,2.75 v 3.05 l -7.15,-5.8 h -9.8 l -10.05,7.95 V -8.3 H 235.1 Z M 223.1,52.8 v -2.6 h -3.85 l -2.75,-2 V 1.6 h 4.1 l 2.5,2.05 V 9.6 h 3.35 V 3.2 L 222,-0.95 h -5.5 V -59.1 l 3.45,-2.65 h 2.5 l 6.1,4.75 v 3.25 h 3.2 v -4.3 l -7.2,-5.8 H 213.4 l -7.25,5.8 v 51.8 h -4.8 L 198.8,-8.3 v -5.3 h -2.75 v 5.75 l 4.7,3.7 h 5.4 v 47 l 12.35,9.95 z m 91.1,-53.3 9.9,-7.8 v -10.1 l -9.3,-7.4 v 21.15 l -2.7,2.05 h -4.5 l -7.15,-5.7 v -51.9 l 1.85,-1.55 h 4.7 l 7.8,6.4 v 13.05 l 9.95,8.05 v -17.4 l -15.25,-12.2 h -9.75 l -10.1,7.95 v 43.2 l 15.25,12.2 z m 32.9,53.9 h 4.65 v -2.7 h -4.65 l -2.5,-2.05 V -20 h 3.95 l 5.7,4.8 V 0 l 12.05,9.6 h 5.15 V 7.5 h -4.5 L 364.2,5.3 V -11.5 L 353.65,-20 h -4.6 l 14.7,-11.65 V -60.2 l 3.65,-3.2 h 3.5 v -2 h -5.4 l -11.85,9.5 V -29 l -9.05,7.4 v -34.3 h 4.45 l -9.95,-7.95 h -5.3 v 106.7 z m -54.95,40.15 2.55,-2.1 h 7.2 l 5.3,4.2 v 49.05 l -5.3,4.4 h -3.2 l -6.55,-5.3 z m -57.2,61.25 h -3.4 l -7.15,-5.7 v -26.4 l 13.75,11 v 18.45 z m -5.5,2.6 h 8.7 l 10.55,-8.3 v -11.7 l -25,-20 V 98.3 l 3.2,-2.65 h 3.35 l 7.9,6.4 v 13.05 l 9.9,8.05 V 105.2 l -14.6,-11.65 h -9.75 l -10.1,7.95 v 43.2 z m 62.7,-3.05 3.2,-2.75 h 4.05 l 7.8,6.4 v 18.45 l -3.2,2.7 h -4.6 l -7.25,-5.9 z m -9.4,14.75 15.15,12.1 h 6.6 l 12,-9.6 v -8.9 l -13.1,-10.55 13.75,-11.1 V 101.5 L 301.9,89.4 h -7.2 l -12.65,9.95 V 139 l 11.9,9.4 -11.2,9 z M 179.55,144.25 V 98.3 l 3.2,-2.65 h 2.9 l 9.05,7.35 v 45.4 l -3.35,2.75 h -3.15 z m -0.5,13.15 v -8.3 l 5.1,4.15 h 10.1 L 204.6,144.7 V 104.1 L 191.35,93.55 h -9.1 l -2.7,2.1 V 65.6 l -12.5,-10.1 h -4.6 v 2.2 h 4.6 l 2.55,2.1 v 89.75 h -5.3 l 10.1,7.85 z m -48.8,-59.7 1.8,-1.4 h 4.75 l 7.9,6.25 v 49.6 l -3.2,2.65 h -3.4 l -7.85,-6.4 z m -10.1,3.8 v 43.2 L 136,157.4 h 8.7 l 10.55,-8.3 V 96.3 h 4.6 v -2.75 h -4.6 l -7.2,5.8 -7.45,-5.8 H 130.25 Z M 83.4,210.2 h 5.1 v -2.6 H 84 l -2.7,-2 v -50.8 l 7.95,6.25 h 7.2 l 9.3,-7.35 v -52.2 h 5.95 l -9.95,-7.95 h -5.3 V 159 H 92 L 81.3,150.5 V 65.6 L 68.8,55.5 h -4.6 v 2.65 h 3.95 l 3.2,2.6 v 140 z m 71.5,96.3 v -52.8 h 4.6 v -2.75 h -4.6 l -7.2,5.8 -7.45,-5.8 H 129.9 l -10.1,7.95 v 43.2 l 15.85,12.7 h 8.7 z m -17.15,5.7 -7.85,-6.4 v -50.7 l 1.8,-1.4 h 4.75 l 7.9,6.25 v 49.6 l -3.2,2.65 z m 26.9,-5.25 9.4,7.35 h 4.65 v -12.2 l 15.2,12.2 h 6.55 l 3.8,-3.2 v -4.6 h 5.35 l -9.15,-7.6 h -3.35 l -2.75,2.3 v 5.3 H 191 l -12.3,-10.1 v -37.5 h 5.7 l -9.65,-7.95 h -6.1 v 56 z m -71.05,5.25 -7.15,-5.7 v -51.9 l 1.85,-1.55 H 93 l 7.8,6.4 v 13.05 l 9.95,8.05 v -17.4 L 95.5,250.95 h -9.75 l -10.1,7.95 v 43.2 l 15.25,12.2 h 9.3 l 9.9,-7.8 v -10.1 l -9.3,-7.4 v 21.15 l -2.7,2.05 z m 238.4,2.6 h 4.6 v -57.45 h 6.55 l -7.95,-6.4 H 332 l -3.4,2.75 v 3.05 l -7.15,-5.8 h -9.8 l -10.05,7.95 v 47.6 h -5.15 l 10.55,8.3 h 4.65 v -59.1 l 2.6,-2 h 4 l 8.6,6.7 v 46.1 h -5.4 z m 31.65,52.8 h 5.3 V 365 h -5.3 l -1.85,-1.55 v -104 h 5.85 l -10.55,-8.5 H 351 v 106.7 z m -115.3,-72.8 -25,-20 v -19.1 l 3.2,-2.65 h 3.35 l 7.9,6.4 v 13.05 l 9.9,8.05 V 262.6 l -14.6,-11.65 h -9.75 l -10.1,7.95 v 43.2 l 15.85,12.7 h 8.7 l 10.55,-8.3 z m -24.3,11.7 v -26.4 l 13.75,11 v 18.45 l -3.2,2.65 h -3.4 z m 68.45,51.15 h -2.6 v 4.15 l -2.55,2.1 h -6.75 l -2.75,-2.1 v -64.9 h 3.45 l 4,3.2 v 4.15 h 2.5 v -5.35 l -5.25,-4.1 h -4.7 V 224.05 L 266.7,215.1 h -7.8 l -5.5,3.65 v 4.7 h 2.75 v -4.7 l 2.75,-1.55 h 5.75 l 3.55,2.6 v 68.55 h -4.7 l -3.35,-2.55 v -5.25 h -2.75 v 5.25 l 6.7,5.3 h 4.1 v 67.05 l 9.65,7.9 h 9.5 l 5.15,-4.25 z M 47.25,157.4 h 9.05 l 5.3,-4.15 v -5.8 l -4.7,-3.65 v 8.95 l -2.5,2.05 h -4.65 l -2.5,-2.05 v -18.1 l 9.65,-7.8 V 66.05 L 46.55,57.7 h -9.4 L 32,61.85 v 3.75 h 3.2 v -3.75 l 2.75,-2.05 h 5.2 l 4.1,3.2 v 61.7 l -10.8,8.4 v 16 z m -4.95,137.4 -25,-20 v -19.1 l 3.2,-2.65 h 3.35 l 7.9,6.4 v 13.05 l 9.9,8.05 V 262.6 L 27.05,250.95 H 17.3 L 7.2,258.9 v 43.2 l 15.85,12.7 h 8.7 L 42.3,306.5 Z M 18,306.5 v -26.4 l 13.75,11 v 18.45 l -3.2,2.65 h -3.4 z m -37,5.7 -7.85,-6.4 v -50.1 l 3.2,-2.65 h 4.05 l 7.8,6.4 v 50.7 l -2.7,2.05 z m -7.15,51.25 v -53.3 l 5.85,4.65 h 10.4 l 8.05,-6.25 v -45.4 l -15.25,-12.2 h -9.75 l -10.1,7.95 v 98.75 l 13.3,10.55 h 4.05 v -2.7 h -4.05 z M 380,266.8 h 10.05 V 254.6 H 380 Z m 0,39.7 h 10.05 V 294.3 H 380 Z"
       style="fill:#e6c97d;fill-opacity:1;fill-rule:evenodd;stroke:none"
       transform="matrix(1.3333333,0,0,-1.3333333,365,1169.6667)" />
    <path
       id="path3"
       d="m 420.6,674.75 h 10.55 v -12.2 H 420.6 Z m 115.6,157.4 h 10.55 v -12.2 H 536.2 Z M 340.35,977.35 H 329.8 v 12.2 h 10.55 z"
       style="fill:#2e3949;fill-opacity:1;fill-rule:evenodd;stroke:none"
       transform="matrix(1.3333333,0,0,-1.3333333,0,2133.3333)" />
  </g>
  <g
     id="layer-MC3">
    <g
       opacity="0.498032"
       id="g5"
       clip-path="url(#clipPath6)">
      <path
         d="M 0,0 H 46.399 V 22.85 C 59.566,7.416 76.083,-2.101 95.95,-5.7 76.116,-9.2 59.6,-18.801 46.399,-34.5 v 22.55 H 0 Z"
         style="fill:#e6c97d;fill-opacity:1;fill-rule:evenodd;stroke:none"
         transform="matrix(1.3333333,0,0,-1.3333333,945.9336,1458.1328)"
         clip-path="url(#clipPath4)"
         id="path5" />
    </g>
  </g>
</svg>
