<svg xmlns="http://www.w3.org/2000/svg" width="1200" height="2133.3" viewBox="0 0 1200 2133.3"><defs><clipPath id="b" clipPathUnits="userSpaceOnUse"><path d="M0 22.8h96v-57.3H0z"/></clipPath><clipPath id="a" clipPathUnits="userSpaceOnUse"><path d="M0 0h1200v2133.3H0Z"/></clipPath></defs><path d="M824.5 450.4H79V1207h745.3z" style="fill:#2e3949;fill-opacity:1;fill-rule:evenodd;stroke:#e6c97d;stroke-width:10;stroke-linecap:butt;stroke-linejoin:miter;stroke-miterlimit:3;stroke-dasharray:none;stroke-opacity:1" transform="matrix(1.3333333 0 0 -1.3333333 0 2133.3)"/><path d="M0 0v-46.6h4.1l2.5 2v6H10V-45l-4.5-4.1H0v-58.2l3.5-2.6H6l6 4.7v3.3h3.3v-4.3L8-112H-3l-7.2 5.8v51.8H-15l-2.6-2.1v-5.3h-2.7v5.8l4.6 3.6h5.5v47L2 4.6h4.6V2H2.8Zm41-50.8h-3.5l-8.3-6.9v-49.6l2.5-2h4l8.5 6.7v49.2zm2.6 2.6 9.9-7.8v-44l-15.2-12h-9.1L19-104.1v43.2l15.8 12.7zm147.7-5.2-3.3 2.6h-3.3l-7.2-5.7v-26.4l13.8 11zm-64.8-2.1 8.7 6.8h7.9l9.1-7.3v-47.5h5.4l-10.5-8.5h-4.6v61.2h-4l-11.3-8.9v-44.4h4.7l-10-8h-4v61.3h-5.2l-10.4-8.4v-69.2l-12-9.6h-4.6v2.8H89l3.8 3.1v75.6h-5.7l10.5 8.3h4.7v-6.3l7.2 5.8h8.4zm85-.5 9.5 7.3h4.6v-12.2l15.2 12.2h6.6l3.8-3.2v-4.6h5.3l-9.1-7.6H244l-2.7 2.3v5.3h-3.4l-12.3-10.1v-37.5h5.7l-9.7-8h-6v56zm-9.7-12.2-25-20v-19.1l3.2-2.7h3.4l7.8 6.4v13.1l10 8v-17.9l-14.6-11.7h-9.8l-10.1 8v43.2l15.9 12.7h8.7l10.5-8.3zm127 14.8-3.1 2.6h-3.4l-7.2-5.7v-26.4l13.8 11zm0 5.2 10.6-8.3v-11.7l-25-20v-19.1l3.2-2.7h3.4l7.9 6.4v13.1l9.9 8v-17.9L324-112.1h-9.7l-10.1 8v43.2L320-48.2zm-46.2-2.6h-5.1l-7.2-5.7v-50.8l3.1-2.7h3.4l8.5 7v50zm12.7-1.6V-140l-12.7-10.1h-5.1v2.2h4.6l2.6 2.1v37.4L280-112h-9.7l-10.1 7.9v43.7l15.2 12.2h14.7zm36.3 141.6-25-20V50.1l3.2-2.6h3.4l7.9 6.4v13l9.9 8V57l-14.6-11.6h-9.7l-10.2 7.9v43.2l15.9 12.7h8.7l10.5-8.3zM318 106.6h-3.4l-7.1-5.7V74.5l13.7 11V104zM259.8 162h5.1v-2.6h-4.5l-2.7-2v-50.8l8 6.3h7.2l9.3-7.4V53.3h5.9l-10-8H273v65.5h-4.5l-10.7-8.5V17.4L245.2 7.3h-4.6V10h4l3.1 2.6v140zm-34.4 0h4.6v-2.6h-3.8l-2.8-2v-46.6h4.1l2.5 2v6h3.4v-6.4l-4.5-4.1h-5.5V50l3.5-2.6h2.4l6.1 4.7v3.3h3.2v-4.3l-7.2-5.8h-11.1l-7.2 5.8V103h-4.8l-2.6-2.1v-5.3H203v5.8l4.6 3.7h5.4v47zm-56.5-62.3V50.1l2.6-2h4l8.5 6.7V104l-3.2 2.6h-3.5zm5.8 9.5h8.7l9.8-7.8V57.5L178 45.4h-9.1l-10.1 7.9v43.2zm-70.4-8.3 9.7 7.8h5.5V103l7.7 6.2h9.2l8.6-6.9v-49h6l-9.8-8h-6.5v61.3h-4.9l-9.9-8v-68l-13.1-10.5h-4.6v2h4.6l3.2 2.6v76.2zm-22.4 5.7h-3.4l-7.8-6.4V49.5l1.8-1.4h4.7l7.9 6.3V104zm3.2 2.6 10.6-8.3V48.1h4.6v-2.7h-4.6l-7.2 5.8-7.5-5.9H70.7l-10.1 8v43.2l15.8 12.7zm66.8 157.4 10.6-8.3v-52.8h4.6v-2.7h-4.6l-7.2 5.7-7.5-5.7h-10.3l-10.1 7.9v43.2l15.8 12.7zm-14.4-9v-50.7l1.8-1.4h4.7l7.9 6.3v49.6l-3.2 2.6h-3.4zm-59.8 2.8-8.7-7v-45.9l3.2-2.6h2.9l9 7.3v45.4l-3.3 2.7zm-9.2-2.1 5.1 4.2h10.1l10.3-8.6v-40.6l-13.2-10.6h-9.1L69 205v-30.1l-12.5-10.1h-4.6v2.2h4.6l2.6 2.1v89.7h-5.4l10.1 7.9h4.7zm236-2.2v-68l-13.1-10.6h-4.6v2h4.5l3.3 2.6v76.2h-5.8l9.8 7.8h5.4v-5.7l7.7 6.2h9.3l8.5-6.9v-49h6l-9.7-8h-6.6V264h-4.8zm-34.8 10.5 10.5-8.3v-52.8h4.6v-2.7h-4.6l-7.2 5.7-7.4-5.7h-10.4l-10.1 7.9v43.2l15.9 12.7zm-14.5-9v-50.7l1.8-1.4h4.8l7.8 6.3v49.6l-3.2 2.6h-3.3zm-32.3 2.8h-3.2l-8.6-7v-45.9l3.1-2.6h3l9 7.3v45.4zm2.8 2 10.4-8.5v-40.6l-13.2-10.5h-9.2l-2.6 2v-30l-12.5-10.1H194v2.2h4.6l2.5 2.1v89.8h-5.3l10.1 7.8h4.7v-8.3l5 4.2zM-3 103l7.7 6.2H14l8.5-6.9v-49h6l-9.7-8H12v61.3H7.3l-9.9-8v-68L-15.7 20h-4.6v2.1h4.5l3.2 2.6v76.2h-5.7l9.8 7.8h5.4Zm-46.3-55h4l8.4 6.7V104l-3.2 2.6h-3.5l-8.3-6.9V50.1ZM-62 53.3v43.2l15.9 12.7h8.7l9.8-7.8V57.5l-15.2-12.1h-9.1zm87.5 213.3h8.7l9.9-7.8v-43.9l-15.3-12.2h-9.1l-10.1 8v43.2zM28 264l-8.4-6.9v-49.6l2.6-2h4l8.5 6.7v49.2l-3.2 2.6zm-53-15.8v-37.5h5.7l-9.7-8h-6v56h-4l9.4 7.4h4.7v-12.2l15.1 12.2h6.6l3.8-3.2v-4.6H6l-9.2-7.6h-3.3l-2.8 2.3v5.3h-3.3zM-65.4 264l-8.3-6.9v-49.6l3.2-2.6h3.3l7.9 6.4V262l-2.6 2zm16.7 45.5v-94.6L-64 202.8h-9.7l-10.1 8V254l15.8 12.7h9.3v48.7l-3.2 2.5h-4v2.2h4zm435-208.6-9.1-7.6h-3.3l-2.8 2.3v5.3h-3.4l-12.2-10.1V53.3h5.6l-9.6-8h-6.1v56h-4l9.4 7.4h4.6V96.5l15.2 12.2h6.6l3.8-3.2v-4.6zm-8.5 131.5v-18l-14.6-11.6h-9.7l-10.2 7.9v43.2l15.9 12.7h8.7l10.6-8.3v-11.7l-25-20v-19.1l3.1-2.7h3.4l7.9 6.4v13.1zM361.3 264l-7.1-5.7v-26.4l13.7 11v18.5l-3.2 2.6zm44.2 55.4v-2.6H400l-1.8-1.6v-104h5.8l-10.5-8.5h-6.1v106.7l12.6 10z" style="fill:#e6c97d;fill-opacity:1;fill-rule:evenodd;stroke:none" transform="matrix(1.3333333 0 0 -1.3333333 388.1 1090.7)"/><path d="M369.6 673.6H359v12.1h10.6zM332 843h10.6v-12h-10.5zm77.4 145.2h-10.5v12.2h10.5zm68.5 0h-10.6v12.2h10.6z" style="fill:#2e3949;fill-opacity:1;fill-rule:evenodd;stroke:none" transform="matrix(1.3333333 0 0 -1.3333333 0 2133.3)"/><g clip-path="url(#a)" opacity=".5"><path d="M0 0h46.4v22.9A83 83 0 0 1 96-5.7a82 82 0 0 1-49.6-28.8v22.6H0Z" clip-path="url(#b)" style="fill:#e6c97d;fill-opacity:1;fill-rule:evenodd;stroke:none" transform="matrix(1.3333333 0 0 -1.3333333 946 1458.1)"/></g></svg>