<?xml version="1.0" encoding="UTF-8" standalone="no"?>
<!-- Created with Inkscape (http://www.inkscape.org/) -->

<svg
   version="1.1"
   id="svg1"
   width="1200"
   height="2133.3333"
   viewBox="0 0 1200 2133.3333"
   xmlns="http://www.w3.org/2000/svg"
   xmlns:svg="http://www.w3.org/2000/svg">
  <defs
     id="defs1" />
  <g
     id="layer-MC2">
    <path
       id="path2"
       d="m 0,0 33.9,-33.25 -19.95,182.3 -32.6,32.601 z m -149.7,33.951 14.001,-125.75 64.499,-64.551 55.9,55.9 -115.1,115.1 29.3,28.6 -19.299,19.3 z m -31.249,-375.901 -33.25,33.95 -14,-13.999 35.949,-37.25 124.401,-15.3 343.25,342.649 37.25,-35.95 L 331.3,-49.2 294.05,-12.649 162.3,0.65 Z m -129.751,159.7 176.3,-19.3 -33.9,33.251 -174.299,17.95 z m 541.551,-49.25 191.599,-20.65 -32.599,32.6 -190.95,20.65 z m -161,-66.549 121.099,-120.401 -25.3,-25.95 17.951,-18.6 28.599,29.25 -11.299,117.1 -74.501,75.15 z M 49.25,-542.2 81.8,-574.799 63.201,-399.8 30.6,-367.2 Z"
       style="fill:#e6c97d;fill-opacity:1;fill-rule:nonzero;stroke:none"
       transform="matrix(1.3333333,0,0,-1.3333333,553.7328,782.33373)" />
  </g>
</svg>
