<svg xmlns="http://www.w3.org/2000/svg" width="1200" height="2133.3" viewBox="0 0 1200 2133.3"><defs><clipPath id="a" clipPathUnits="userSpaceOnUse"><path d="M-168 1454h900V-146h-900z"/></clipPath></defs><path d="M0 2133h1200V0H0Z" style="fill:#553e62;fill-opacity:1;fill-rule:nonzero;stroke:none;stroke-width:1.33333"/><path d="M0 0q5 1 17 16l15 20 2 1q-11-1-23-14L3 12 0 4Zm-12 3 3 16q6 16 32 29h36l4-3 2-3a123 123 0 0 1 54 9l22 7q11 4 23 4l20-2 13-4 11-5 20-2 67 3q5 1 8 5l5 12 8 13a123 123 0 0 0 29 26q7 4 13 4 10 0 24-23 12 1 18 4l9 7h74l7-3 7-6q47 6 62-27 5-11 5-25V22l-1-15-2-9-31-63 1-6-3-7q-7-7-39-10l-73-1h-5l-24-2-13-12q-10-7-16-9h-41l-6 9-8 15q-12 19-29 19-9 0-15-3l-11-6-14-7q-10-3-26-3-44 0-60 14l-5 4-3 5q-4 3-9 4-9 0-16-5l-13-10q-9-6-20-9-15-5-38-5Q8-90-5-55q-6 17-6 40zm483 462a236 236 0 0 1 86-46q36-12 47-53 5-14 6-32l1-26q0-22-12-51a226 226 0 0 0-66-85q-19-15-34-15-16 0-33 9l-26 20q-16 15-26 21-16 9-34 9-14 0-21-4l-6-4-5-5q-9-6-24-9a355 355 0 0 0-77-2l-27 4H115l-57-15q-22 0-57 25a284 284 0 0 0-46 41v92l-1 1-1-9v-11l-2-1-4-2-5 8v6q-1 11 2 27 3 26 8 48 19 65 59 65h5v-1h1v-4l-6-4q-9-4-15-10-22-17-25-37h20l6 3 3 2 40 3q8 12 17 32l16 31a131 131 0 0 0 61 56h16l36-14 21 15 23 17h27l8-8 7-12q9-16 17-21l113-1a305 305 0 0 0 69-53m64 856-3-34q-4-19-4-28a164 164 0 0 1 12-63l9-23q4-13 4-22l-1-18q-2-13-7-23-15-28-58-33H344l-6 7-2 4-93-1q-7-8-10-17l-4-18-2-19q-2-12-5-19-9-24-47-44l-23-10q15 0 21-4l3-4 4-2 6 1 27 6 42 7h38l7-6q7-6 16-9 27-13 60-13l48 3 9 3 26 1q56 0 83-42a122 122 0 0 0 20-53q3-31 9-46 4-11 11-18 6-6 8-12 3-9 3-30 0-23-19-56-7-13-16-23l-12-13-61-33q-41-19-83-33h-44q-24 12-33 35-7 17-6 40h-25l-3-3-2-2q-3-3-31-3l-27 2-8 3q-4 3-13 4a335 335 0 0 1-64 0l-11-5-11-4-22-2q-18 0-49 19l-38 25-22 13q-3 2-3 5l-1 6v28q5 80 26 142 18 55 43 76 26 20 58 5v2l1 12 1 5-1 50q-3 28-15 46-34-13-51 19-9 19-11 52 0 7-12 19l-17 17q-6 8-8 17l-1 17q0 14 5 39 4 26 4 42l4 19q4 11 12 17 24 18 91 18l8 1v2q0 2 30 4 28 6 46-6 6-3 12-10l9-9v8q0 4 8 7h100l7-4 7-2 40 9q42 8 61 8 13 0 35-5 31-6 42-17 9-11 11-17z" clip-path="url(#a)" style="fill:#553e62;fill-opacity:1;fill-rule:evenodd;stroke:none" transform="matrix(1.3333333 0 0 -1.3333333 224 1938)"/><path d="M672 738v231h19l-40 33h-23V770h-20l43-32zm-341-13-7 7v234l20 19h15l44-36V770h-22l44-33h19v228l24 20h13l27-20V756l55-44h21v12h-21l-18 13v217l-60 48h-21l-51-40-49 40h-24l-61-48V756l52-42h22v11zm297-545 41 32v182l-64 51h-37l-43-32V233l67-53Zm-25 10-35 30v206l11 8h16l36-28V201l-14-11zm-138-8v383l-45 37h-27v-8h20l12-9V429l-20 16h-42l-43-33V213h-25l41-33h27v246l13 11h16l33-27V214h-28l42-33zm435 582v204h24l-40 33h-28V748h-19l-41 32v284l-55 44h-20v-8h20l14-12V770h-26l42-32h22v24l32-25h39Zm-31-320h-13l-13-11v-13l-31 24h-40l-43-32V213h-21l44-35h20v248l11 8h16l36-28V214h-23l44-34h19v238h28zm14 1540h-12v-15h12zm37-355-16 14h-7v-3h7l4-4v-21l16-14h5v4h-5l-4 3zm-1-176v138l-15 12h-7v-3h7l3-3v-133Zm-139 467v65h5v4h-5l-9-8-10 8h-13l-12-10v-54l20-16h11zm-21-8-11 8v64l3 1h5l11-8v-61l-4-4zm94-47 20-16h23l19 16v64l-28 23h-6v-3l22-17v-71l-11-8h-17l-10 7v20h-12zm-234 44v68l8 7h4l6-7v-62l18-14h6v4h-6l-6 4v66l-18 14h-7l-15-12-14 12h-7l-19-14v-60l16-12h7v2h-7l-2 3v71l6 5h4l14-11v-53h-7l13-11zm205-66v4h-4l-4 2v58h5l3-3v-7h5v8l-6 6h-7v72l5 4h3l8-7v-4h4v5l-9 8h-15l-8-8v-64h-7l-2 3v7h-4v-8l5-4h8v-59l15-13zm-128 0v4h-5l-4 2v63l10-8h10l10 9v66h8l-12 10h-6v-82h-7l-13 10v107l-15 12h-7v-3h6l4-4v-174l14-12zm-392 69-12 11v84l-16 13h-7v-3h7l4-2v-95h-8l13-11h7v8l9-8h12l11 8v62h7l-12 10h-8v-77Zm60 0-11 9v62l3 2h5l11-8v-61l-4-4zm7-3 13 10v54l-19 16h-12l-13-10v-54l20-16zm48-6v2h-7l-3 3v71l7 5h4l13-11v-53h-6l13-11h5v68l8 7h4l7-7v-62l17-14h7v4h-7l-5 4v66l-19 14h-6l-15-12-15 12h-6l-19-14v-60l16-12zm-88-376v62l2 3h6l10-8v-63l-4-2h-4zm17-11 13 9v55l-18 15h-12l-14-10v-54l20-15Zm-45-67v3h-6l-2 3v58h4l4-2v-7h4v8l-6 4h-6v73l4 3h2l8-5v-4h4v5l-9 7h-13l-10-7v-65h-6l-3 2v7h-4v-7l7-5h6v-59l15-12zm549 47v97l4 3h9l4-4v-99l-4-4h-6zm7-9h8l16 12v88l-18 13h-10l-16-12v-87zm-48 2h-7l-8 7v97l4 3h9l6-4v-99zm17 10v88l-17 13h-12l-15-12v-87l19-14h9zm-145 8h-4l25-22v115h-12v-101Zm58-11v97l4 3h10l5-4v-99l-4-4h-8zm7-9h9l15 12v88l-16 13h-12l-15-12v-87zm41-158v32l18-13v-23l-4-4h-4zm-236 190h-4l-10 8v62l2 3h6l10-8v-63zm4-3 14 9v67h5v3h-5l-10-7-9 7h-13l-12-10v-54l20-15zm43 0v15l19-15h8l5 4v5h7l-12 10h-4l-3-3v-7h-4l-16 14v46h7l-12 10h-7v-70h-5l12-9zm-115 43 16-14v-24l-4-2h-4l-8 6zm-32-43v116l-14 11h-7v-3h5l4-3v-46l-6 4h-12l-14-10v-60h-6l12-9h8v73l4 3h4l10-8v-59h-9l13-9Zm48 0 14 9v15l-31 25v24l4 3h4l9-8v-16l14-9v21l-19 15h-12l-13-10v-54l20-15zm-6-187v32l16-13v-23l-4-4h-4zm126 59v-53l20-16h11l12 9v55l-19 16h-12zm12-57v61l4 3h6l10-8v-62l-4-4h-5zm-36-12 12 10v12l-12 10v-27l-2-3h-7l-8 8v64l3 3h5l9-8v-16l12-11v22l-18 16h-12l-12-11v-53l18-16zm-38-67v4h-7l-3 1v131h7l-12 11h-8v-134l16-13zm-48 67 13 10v15l-31 24v24l4 4h4l10-8v-16l13-11v23l-19 15h-12l-13-11v-53l20-16zm-50 0v65l-17 15h-7l-14-12-16 12h-7l-19-15v-60l16-12h7v3h-7l-2 2v71l6 5h4l14-10v-54h-7l13-10h6v68l8 6h4l8-6v-63l16-13h6v4h-6zm346 0 13 10v15l-32 24v24l4 4h4l11-8v-16l12-11v23l-19 15h-12l-12-11v-53l20-16zm-112 0v8l9-8h11l10 9 11-9h9l12 9v60h7l-13 11h-6v-78h-5l-13 12v55h5l-12 11h-5v-78h-7l-13 11v87l-15 12h-5v-3h4l4-4v-95h-7l13-10z" style="fill:#e6c97d;fill-opacity:1;fill-rule:evenodd;stroke:none;stroke-width:1.33333"/><path d="M392 1591h-13v-15h13zm271 0h-14v-15h14z" style="fill:#553e62;fill-opacity:1;fill-rule:evenodd;stroke:none;stroke-width:1.33333"/></svg>