<?xml version="1.0" encoding="UTF-8" standalone="no"?>
<!-- Created with Inkscape (http://www.inkscape.org/) -->

<svg
   version="1.1"
   id="svg1"
   width="1200"
   height="2133.3333"
   viewBox="0 0 1200 2133.3333"
   xmlns="http://www.w3.org/2000/svg"
   xmlns:svg="http://www.w3.org/2000/svg">
  <defs
     id="defs1">
    <clipPath
       clipPathUnits="userSpaceOnUse"
       id="clipPath4">
      <path
         d="M 0,1600 H 900 V 0 H 0 Z"
         transform="translate(-677.70022,-658.50004)"
         id="path4" />
    </clipPath>
    <clipPath
       clipPathUnits="userSpaceOnUse"
       id="clipPath6">
      <path
         d="M 0,1600 H 900 V 0 H 0 Z"
         transform="translate(-168.25,-146.29983)"
         id="path6" />
    </clipPath>
  </defs>
  <g
     id="layer-MC0">
    <path
       id="path1"
       d="M 0,0 H 900 V 1600 H 0 Z"
       style="fill:#553e62;fill-opacity:1;fill-rule:nonzero;stroke:none"
       transform="matrix(1.3333333,0,0,-1.3333333,0,2133.3333)" />
  </g>
  <g
     id="layer-MC1">
    <path
       id="path2"
       d="M 0,0 1.399,-13.15 -1,-10.75 -2.45,2.45 Z M 10.399,6.2 11.2,-2.5 9.05,-4.7 7.7,-3.3 l 1.9,1.95 -9.05,9 4.2,4.15 z m 2.25,6.5 -2.449,2.45 14.35,-1.6 2.45,-2.5 z m -31.799,-9.6 -2.8,2.7 1.05,1.1 2.549,-2.5 25.801,25.75 9.85,-1 2.75,-2.8 -1.401,-1.4 -2.75,2.75 -25.75,-25.75 z m 4.25,11.75 -13.15,1.4 -2.45,2.45 13.1,-1.3 z m 0.35,16.3 8.65,-8.65 -4.201,-4.15 -4.849,4.85 -1,9.4 2.2,2.2 1.399,-1.45 z M -3.7,41.3 -2.25,27.55 -4.75,30.1 -6.101,43.75 Z m -70.05,57.75 14.399,-1.6 2.451,-2.45 -14.451,1.6 z m -10.2,-15.15 1.4,-13.15 -2.45,2.4 -1.4,13.2 z m 10.45,6.25 0.75,-8.75 -2.15,-2.2 -1.3,1.4 1.9,1.95 -9.051,9 4.201,4.15 z m -16.601,37.5 2.451,-2.45 1.5,-13.75 -2.5,2.55 z M -103.05,87 l -2.801,2.7 1.051,1.1 2.5,-2.5 25.8,25.75 9.85,-1 2.799,-2.8 -1.449,-1.4 -2.75,2.75 -25.75,-25.75 z m -11.35,15.6 13.1,-1.3 2.5,-2.55 -13.15,1.4 z m 14.549,13.9 2.201,2.2 1.4,-1.45 -2.2,-2.2 8.599,-8.65 -4.199,-4.15 -4.85,4.85 z M 9.6,166.45 l -9.05,9 4.2,4.25 5.649,-5.6 0.75,-8.8 L 9,163.1 7.7,164.5 Z m -9.65,1.4 1.4,-13.15 -2.4,2.45 -1.45,13.15 z m -165.4,-170.3 1.45,-13.15 -2.45,2.45 -1.4,13.15 z m 9.7,-1.4 -9.101,9 4.201,4.25 5.65,-5.6 0.8,-8.7 -2.2,-2.2 -1.3,1.35 z m -14.35,31.5 -1.5,13.65 2.4,-2.45 1.55,-13.75 z m 31.7,-19 -14.4,1.6 -2.45,2.45 14.45,-1.6 z m -47.85,-4.2 2.5,-2.5 25.75,25.75 9.899,-1 2.801,-2.8 -1.45,-1.4 -2.8,2.8 -25.75,-25.75 -9.25,1.05 -2.8,2.75 z m 6,7.95 -13.2,1.45 -2.45,2.4 13.15,-1.3 z m 2.45,18.5 -2.1,-2.15 8.6,-8.7 -4.2,-4.2 -4.9,4.85 -0.95,9.45 2.15,2.2 z m -61.35,65.7 14.4,-1.6 2.45,-2.45 -14.4,1.6 z m -10.2,-15.1 1.45,-13.2 -2.45,2.45 -1.4,13.15 z m 4.8,11.85 5.65,-5.65 0.8,-8.7 -2.2,-2.2 -1.4,1.35 1.95,1.9 -9,9.1 z m -23.1,-7.5 25.75,25.75 9.9,-1 2.8,-2.7 -1.45,-1.45 -2.8,2.75 -25.75,-25.75 -9.3,1.05 -2.75,2.8 1.1,1.1 z m -12.15,14.4 13.05,-1.4 2.6,-2.5 -13.2,1.45 z m 16.65,16 1.4,-1.45 -2.15,-2.15 8.7,-8.7 -4.25,-4.2 -4.85,4.85 -1,9.45 z m 10.05,6.5 1.55,-13.7 -2.55,2.5 -1.4,13.65 z m 94.85,43.7 -9.05,9.1 4.25,4.15 5.55,-5.65 0.85,-8.75 -2.15,-2.2 -1.35,1.4 z m -9.6,1.35 1.4,-13.15 -2.45,2.4 -1.4,13.2 z m 18.65,25 -2.75,2.7 -25.75,-25.75 -9.35,1.15 -2.7,2.8 1.05,1.05 2.5,-2.55 25.8,25.75 9.85,-1 2.8,-2.75 z m -8.45,-9.85 14.35,-1.6 2.449,-2.45 -14.399,1.6 z m -25.15,8.05 -1.05,9.4 2.2,2.2 1.45,-1.45 -2.2,-2.2 8.65,-8.65 -4.2,-4.15 z m -15.5,-4.45 13.05,-1.35 2.55,-2.5 -13.2,1.45 z m 26.75,22.55 1.5,-13.7 -2.55,2.5 -1.4,13.65 z m -95.05,57.5 -13.2,1.45 -2.4,2.4 13.05,-1.35 z m 16.25,-28.05 -2.45,2.4 -1.4,13.2 2.45,-2.45 z m 3.4,25.05 5.55,-5.65 0.85,-8.75 -2.15,-2.15 -1.35,1.35 1.9,1.95 -9.05,9.1 z m 22.2,-0.8 -14.4,1.6 -2.4,2.45 14.35,-1.6 z m -9.7,18.05 2.8,-2.75 -1.45,-1.4 -2.75,2.7 -25.75,-25.75 -9.35,1.15 -2.7,2.8 1.05,1.05 2.5,-2.55 25.8,25.75 z m -31.1,5.65 1.45,-1.45 -2.2,-2.2 8.65,-8.65 -4.2,-4.15 -4.9,4.85 -1,9.4 z m 7.65,8.95 2.45,-2.45 1.5,-13.7 -2.55,2.5 z m 87.85,67.75 -2.55,2.5 -1.4,13.65 2.45,-2.45 z m -12.65,-12.65 -13.2,1.45 -2.4,2.45 13.05,-1.4 z m 1.05,19.85 1.45,-1.45 -2.2,-2.1 8.65,-8.7 -4.2,-4.2 -4.85,4.85 -1.05,9.45 z m 13.8,-34.7 1.4,-13.2 -2.45,2.45 -1.4,13.15 z m 4.8,11.85 5.55,-5.65 0.85,-8.8 -2.15,-2.15 -1.35,1.35 1.9,1.95 -9.05,9.1 z m 5.4,3.2 14.35,-1.55 2.449,-2.45 -14.399,1.55 z m 8.549,9.85 -2.799,2.75 -25.8,-25.8 -9.35,1.15 -2.7,2.8 1.1,1.05 2.5,-2.55 25.75,25.75 9.9,-1 2.8,-2.75 z M 10.149,182.95 24.55,181.4 27,178.95 12.55,180.5 Z m 9.951,11.2 -1.4,-1.4 -2.801,2.75 -25.799,-25.75 -9.25,1.15 -2.8,2.75 1.099,1.05 2.5,-2.5 25.75,25.75 9.901,-1 z m -23.85,14.95 1.5,-13.75 -2.5,2.55 -1.45,13.65 z m -10,-6.5 1.399,-1.45 -2.199,-2.15 8.6,-8.65 -4.2,-4.2 -4.85,4.85 -0.95,9.45 z m -1.15,-19.9 -13.15,1.45 -2.45,2.4 13.1,-1.3 z m -83.9,83.95 -13.15,1.45 -2.45,2.4 13.049,-1.35 z m 13.8,-25.6 -1.4,13.15 2.45,-2.45 1.4,-13.15 z m 5.85,22.6 5.549,-5.65 0.851,-8.8 -2.15,-2.15 -1.35,1.35 1.899,1.95 -9,9.1 z m 22.2,-0.8 -14.401,1.55 -2.399,2.45 14.35,-1.55 z m -9.651,18 2.801,-2.75 -1.4,-1.4 -2.8,2.7 -25.8,-25.75 -9.35,1.15 -2.701,2.8 1.101,1.05 2.5,-2.55 25.75,25.75 z m -22.099,0.95 -1.401,13.65 2.451,-2.45 1.5,-13.7 z m -9.05,4.7 1.45,-1.45 -2.2,-2.15 8.649,-8.65 -4.199,-4.2 -4.85,4.85 -1.05,9.45 z m 69.7,65.5 -2.45,2.45 13.05,-1.4 2.55,-2.5 z m 12,16.25 2.199,2.2 1.451,-1.45 -2.201,-2.15 8.651,-8.7 -4.2,-4.2 -4.85,4.85 z m 28.699,-19.95 -2.449,2.45 14.3,-1.55 2.45,-2.45 z m -12.699,-12.6 1.4,-13.2 -2.4,2.45 -1.45,13.15 z m 7.699,-3.35 1.901,1.9 -9,9.1 4.2,4.2 5.55,-5.65 0.9,-8.8 L 9,331 Z m -9.849,30.85 -2.55,2.5 -1.45,13.7 2.45,-2.45 z m 18.099,0.2 -25.75,-25.85 -9.399,1.15 -2.7,2.8 1.099,1.05 2.5,-2.55 25.75,25.8 9.901,-1 2.8,-2.7 -1.4,-1.45 z M -323.65,-3.85 l -9,9.1 4.15,4.2 5.65,-5.65 0.8,-8.8 -2.15,-2.1 -1.4,1.35 z m 17.4,12.5 -14.35,1.6 -2.45,2.45 14.3,-1.6 z m -29.5,-8.65 2.45,-2.45 1.4,-13.15 -2.4,2.45 z m -18.3,4.5 2.45,-2.55 25.8,25.75 9.9,-1 2.75,-2.7 -1.4,-1.45 -2.8,2.75 -25.75,-25.85 -9.3,1.15 -2.75,2.8 z m 5.9,7.95 -13.15,1.45 -2.45,2.4 13.05,-1.35 z m 11.15,26.4 1.55,-13.7 -2.55,2.5 -1.4,13.65 z m -8.65,-7.95 -2.2,-2.15 8.65,-8.7 -4.15,-4.2 -4.85,4.85 -1.05,9.45 2.2,2.2 z m -61.3,65.7 14.3,-1.6 2.45,-2.45 -14.3,1.6 z m 0.15,-8.9 0.85,-8.8 -2.15,-2.1 -1.4,1.35 1.95,1.9 -9,9.1 4.15,4.2 z m -10.4,-6.2 1.4,-13.2 -2.4,2.45 -1.45,13.15 z m -30.45,18.75 13.05,-1.4 2.55,-2.5 -13.15,1.45 z m 12.15,-14.4 25.75,25.75 9.95,-1 2.75,-2.7 -1.4,-1.45 -2.8,2.75 -25.75,-25.85 -9.3,1.15 -2.75,2.8 1.1,1.1 z m 5.95,28.95 -2.2,-2.15 8.65,-8.7 -4.15,-4.2 -4.85,4.85 -1.05,9.45 2.2,2.2 z m 8.65,7.95 1.55,-13.7 -2.55,2.5 -1.4,13.65 z m 85.25,45.05 2.4,-2.4 1.45,-13.2 -2.45,2.45 z m 3,5.25 4.2,4.2 5.6,-5.65 0.8,-8.7 -2.15,-2.2 -1.4,1.35 1.95,1.9 z m 26.4,3.4 -14.35,1.65 -2.45,2.4 14.35,-1.6 z m -184.6,-163.8 14.3,-1.55 2.45,-2.45 -14.3,1.55 z m -5.45,-3.2 5.6,-5.65 0.85,-8.8 -2.2,-2.1 -1.35,1.35 1.9,1.9 -9,9.1 z m -7.25,-9.45 2.45,-2.45 1.4,-13.15 -2.4,2.45 z m -19.45,3.4 1.15,1.05 2.45,-2.55 25.75,25.8 9.95,-1.05 2.75,-2.75 -1.4,-1.4 -2.8,2.7 -25.75,-25.75 -9.35,1.15 z m -8.55,12.9 13.05,-1.35 2.55,-2.5 -13.15,1.45 z m 26.75,22.55 1.55,-13.75 -2.55,2.5 -1.4,13.7 z m -8.65,-7.95 -2.2,-2.15 8.65,-8.7 -4.2,-4.2 -4.85,4.85 -1,9.45 2.2,2.2 z m -58.85,63.25 -2.45,2.45 14.3,-1.6 2.45,-2.45 z m -7.95,-0.8 5.65,-5.65 0.85,-8.7 -2.2,-2.15 -1.35,1.3 1.9,1.9 -9.05,9.1 z m -4.75,-11.8 1.4,-13.2 -2.4,2.45 -1.45,13.15 z m -18.3,4.25 25.75,25.8 9.95,-1 2.7,-2.8 -1.4,-1.4 -2.75,2.8 -25.75,-25.75 -9.35,1.05 -2.8,2.8 1.1,1.05 z m 3.4,10.55 -13.15,1.45 -1.5,1.5 v 0.85 l 12.15,-1.3 z m 1.15,19.9 1.4,-1.45 -2.2,-2.15 8.65,-8.65 -4.2,-4.2 -4.85,4.9 -1,9.35 z m 10.05,6.6 1.5,-13.85 -2.5,2.5 -1.4,13.75 z m 85.15,45 2.45,-2.4 1.4,-13.2 -2.4,2.45 z m 15.15,10.3 -2.45,2.4 14.3,-1.65 2.45,-2.45 z m -1.45,-15.25 -2.2,-2.15 -1.35,1.3 1.95,1.9 -9.05,9.1 4.15,4.2 5.65,-5.65 z m 8.85,28.9 -1.4,-1.45 -2.75,2.8 -25.75,-25.8 -9.3,1.05 -2.8,2.8 1.05,1.1 2.55,-2.55 25.75,25.75 9.95,-0.95 z m -36.05,6.15 2.2,2.2 1.4,-1.4 -2.2,-2.2 8.65,-8.6 -4.15,-4.25 -4.85,4.9 z m 1.05,-17.7 -13.15,1.45 -2.45,2.45 13.1,-1.4 z m 11.2,26.5 1.5,-13.8 -2.5,2.5 -1.4,13.7 z m -82.7,45 2.5,-2.4 1.4,-13.2 -2.4,2.45 z m -27.05,15.35 v 0.85 l 12.15,-1.3 2.5,-2.5 -13.15,1.45 z m 38.55,-22.45 -1.3,1.3 1.95,1.9 -9.05,9.1 4.15,4.2 5.65,-5.65 0.8,-8.7 z m 3.7,17.4 -2.5,2.4 14.35,-1.65 2.45,-2.4 z m 4.7,16.4 2.7,-2.75 -1.4,-1.45 -2.75,2.8 -25.75,-25.8 -9.3,1.05 -2.8,2.8 1.05,1.1 2.55,-2.45 25.75,25.75 z m -23.6,14.6 2.45,-2.4 1.55,-13.8 -2.5,2.5 z m -7.55,-9 1.4,-1.4 -2.2,-2.2 8.65,-8.6 -4.15,-4.25 -4.9,4.9 -1,9.35 z m 97.7,49.2 1.45,-13.2 -2.45,2.45 -1.5,13.2 z m -30.5,18.7 13.1,-1.4 2.5,-2.45 -13.15,1.4 z m 18.1,14.6 -2.15,-2.2 8.7,-8.6 -4.25,-4.25 -4.9,4.9 -0.95,9.35 2.15,2.2 z m 8.6,8 1.55,-13.8 -2.5,2.5 -1.5,13.7 z m 11.45,-44.7 1.95,1.9 -9.05,9.1 4.2,4.2 5.65,-5.65 0.75,-8.65 -2.2,-2.2 z m 16.9,16.85 2.45,-2.4 -14.35,1.65 -2.5,2.4 z m -7.2,15.7 2.7,-2.8 -1.4,-1.45 -2.75,2.8 -25.75,-25.75 -9.3,1 -2.8,2.8 1.05,1.15 2.55,-2.5 25.75,25.75 z m 170.55,-170.6 -1.4,-1.45 -2.8,2.75 -25.75,-25.75 -9.3,1.05 -2.75,2.8 1.1,1.1 2.45,-2.55 25.8,25.75 9.9,-1 z m -32.5,6.95 -2.15,-2.2 8.7,-8.7 -4.25,-4.2 -4.85,4.85 -1,9.45 2.15,2.2 z m -18.05,-14.6 13.05,-1.4 2.55,-2.5 -13.15,1.45 z m 26.7,22.55 1.55,-13.75 -2.55,2.5 -1.4,13.65 z m -82.6,45.05 2.45,-2.4 1.45,-13.2 -2.45,2.45 z m -28.05,16.3 13.1,-1.4 2.5,-2.5 -13.15,1.45 z m 40.9,-12.55 0.8,-8.65 -2.15,-2.2 -1.4,1.3 1.95,1.9 -9.05,9.1 4.2,4.2 z m 16.6,4.9 -14.35,1.65 -2.45,2.4 14.35,-1.65 z m -9.65,18.05 2.7,-2.75 -1.4,-1.45 -2.75,2.8 -25.75,-25.75 -9.3,1 -2.8,2.8 1.05,1.1 2.55,-2.55 25.75,25.75 z m -29.75,4.2 -2.15,-2.2 8.7,-8.6 -4.25,-4.25 -4.85,4.9 -1,9.35 2.15,2.2 z m 6.25,10.4 2.4,-2.4 1.5,-13.8 -2.5,2.5 z m 72.75,57.45 -13.2,1.45 -2.4,2.4 13.1,-1.35 z m 14.9,-14.8 1.4,-13.2 -2.45,2.45 -1.4,13.15 z m -4.75,30 -1.4,13.7 2.45,-2.45 1.4,-13.75 z m -9.8,1.05 8.65,-8.6 -4.2,-4.15 -4.9,4.9 -1,9.3 2.2,2.2 1.45,-1.45 z m 24.75,-15.95 14.35,-1.65 2.4,-2.45 -14.35,1.65 z m 0.15,-8.95 0.85,-8.65 -2.15,-2.2 -1.35,1.3 1.9,1.95 -9.1,9.1 4.2,4.15 z m 6.95,22.95 2.75,-2.8 -1.45,-1.4 -2.7,2.8 -25.75,-25.75 -9.35,1.05 -2.8,2.8 1.1,1.05 2.55,-2.5 25.8,25.75 z m -99.8,41.6 -2.45,2.45 -1.45,13.15 2.4,-2.4 z m 3.3,25 5.65,-5.65 0.8,-8.65 -2.15,-2.2 -1.3,1.3 1.9,1.95 -9.1,9.1 z m -22.1,5.55 2.5,-2.55 -13.2,1.45 -2.45,2.4 z m 13.65,23.95 1.45,-13.8 -2.45,2.55 -1.45,13.65 z m -8.6,-8.05 -2.2,-2.2 8.6,-8.6 -4.2,-4.15 -4.9,4.9 -0.95,9.3 2.2,2.2 z m 29.6,-4.15 2.8,-2.8 -1.45,-1.4 -2.8,2.8 -25.75,-25.75 -9.25,1.05 -2.8,2.8 1.1,1.05 2.55,-2.5 25.8,25.75 z m 7.3,-15.65 2.4,-2.45 -14.4,1.7 -2.45,2.4 z m 69.7,76.65 0.8,-8.7 -2.15,-2.2 -1.3,1.3 1.9,1.95 -9.1,9.1 4.2,4.2 z m 16.6,4.9 -14.4,1.6 -2.45,2.4 14.45,-1.6 z m -41.85,3.75 -13.2,1.45 -2.4,2.45 13.1,-1.35 z m 14.8,-14.8 1.5,-13.2 -2.45,2.45 -1.45,13.15 z m -15.9,32.5 2.2,2.15 1.45,-1.45 -2.2,-2.1 8.6,-8.6 -4.2,-4.25 -4.9,4.9 z m 12.25,8.75 1.45,-13.8 -2.45,2.55 -1.45,13.65 z m 23.85,-14.95 -1.45,-1.45 -2.75,2.8 -25.85,-25.75 -9.25,1.05 -2.8,2.8 1.15,1.05 2.55,-2.5 25.75,25.75 9.85,-1 z M -576,412.45 l -1.3,1.35 1.95,1.9 -9.05,9.05 4.2,4.2 5.65,-5.55 0.75,-8.75 z m -7.6,-8.5 -2.4,2.45 -1.45,13.2 2.45,-2.45 z m -30.95,31 v 0.8 l 12.2,-1.2 2.5,-2.55 -13.15,1.4 z m 13.65,14.75 2.15,2.2 1.4,-1.4 -2.15,-2.2 8.6,-8.65 -4.2,-4.25 -4.85,4.9 z m 12.15,8.75 1.55,-13.75 -2.5,2.55 -1.5,13.65 z m 22.45,-16.4 -2.8,2.8 -25.75,-25.75 -9.25,1.05 -2.8,2.75 1.05,1.15 2.5,-2.5 25.75,25.75 9.9,-1 2.8,-2.8 z m 5.9,-11.4 2.45,-2.4 -14.4,1.6 -2.45,2.45 z m 81.5,86.35 2.4,-2.4 -14.4,1.6 -2.45,2.4 z m -55.1,5.15 13.15,-1.3 2.5,-2.55 -13.2,1.45 z m 35.25,-6.85 5.65,-5.6 0.8,-8.7 -2.15,-2.2 -1.3,1.35 1.9,1.95 -9.1,9.05 z m -4.8,-11.8 1.45,-13.2 -2.45,2.45 -1.4,13.15 z m -2.2,27.5 -2.5,2.55 -1.4,13.65 2.45,-2.4 z m -13.7,5.05 2.2,2.2 1.45,-1.4 -2.2,-2.2 8.6,-8.7 -4.25,-4.15 -4.85,4.9 z m 36.05,-6.2 -1.45,-1.45 -2.8,2.8 -25.75,-25.75 -9.25,1.1 -2.8,2.75 1.1,1.05 2.5,-2.5 25.8,25.75 9.85,-1 z m -21.15,130.75 -1.4,13.2 2.4,-2.45 1.45,-13.2 z m -70.25,-60.5 -2.45,2.4 14.35,-1.6 2.45,-2.4 z m -12.65,-12.7 1.45,-13.2 -2.45,2.45 -1.4,13.15 z m 10.4,6.2 0.8,-8.7 -2.1,-2.2 -1.4,1.35 1.9,1.95 -9,9.1 4.2,4.15 z m -29.55,-3.15 -2.75,2.75 1.1,1.05 2.45,-2.5 25.85,25.8 9.85,-1.05 2.75,-2.75 -1.4,-1.45 -2.8,2.8 -25.75,-25.75 z m -7.95,13.1 v 2.175 l 9.7,-0.975 2.6,-2.55 z m 14.75,17.2 -2.2,-2.2 8.7,-8.7 -4.25,-4.15 -4.85,4.9 -1,9.35 2.2,2.2 z m 8.7,7.95 1.45,-13.8 -2.55,2.55 -1.35,13.65 z m -23.45,142.75 v 2.2 l 9.7,-1 2.6,-2.5 z m 27.1,-16.2 1.45,-13.2 -2.45,2.45 -1.4,13.2 z m 9.6,-1.45 -9.05,9.1 4.2,4.2 5.65,-5.6 0.8,-8.8 -2.1,-2.2 -1.4,1.35 z m 3.05,14.1 -2.45,2.4 14.35,-1.55 2.45,-2.4 z m 95.85,-83.05 2.4,-2.4 -14.35,1.55 -2.45,2.4 z m -19.8,-1.65 5.6,-5.65 0.85,-8.75 -2.15,-2.2 -1.35,1.35 1.85,1.95 -9,9.1 z m -23.05,-7.5 25.75,25.75 9.9,-1.05 2.8,-2.75 -1.45,-1.45 -2.8,2.8 -25.8,-25.75 -9.3,1.1 -2.75,2.75 1.15,1.05 z m -12.2,14.35 13.1,-1.3 2.55,-2.55 -13.2,1.4 z m 15.9,12.45 8.7,-8.65 -4.25,-4.25 -4.85,4.9 -1,9.4 2.2,2.15 1.4,-1.4 z m 10.9,10.1 1.45,-13.8 -2.55,2.55 -1.35,13.65 z m 172.9,-54.45 -2.45,2.45 -1.4,13.2 2.4,-2.45 z m -75.15,-55.65 14.45,-1.55 2.4,-2.4 -14.4,1.55 z m -5.4,-3.25 5.65,-5.6 0.8,-8.75 -2.15,-2.2 -1.3,1.35 1.9,1.95 -9.1,9.05 z m -7.2,-9.4 2.4,-2.4 1.45,-13.2 -2.45,2.45 z m -15.85,1.9 25.75,25.8 9.9,-1.05 2.8,-2.75 -1.45,-1.45 -2.75,2.8 -25.85,-25.75 -9.25,1.1 -2.8,2.75 1.15,1.05 z m 0.95,13.1 2.5,-2.55 -13.2,1.4 -2.45,2.45 z m 5.05,15.9 -2.2,-2.15 8.6,-8.65 -4.2,-4.25 -4.9,4.9 -0.95,9.4 2.2,2.15 z m 8.6,7.95 1.45,-13.8 -2.45,2.55 -1.45,13.65 z m -11.15,141.4 -13.2,1.4 -2.45,2.45 13.1,-1.3 z m 14.8,-14.85 1.45,-13.2 -2.45,2.45 -1.4,13.2 z m 7.75,-3.35 1.9,1.9 -9.05,9.1 4.2,4.2 5.6,-5.6 0.9,-8.8 -2.2,-2.15 z m 16.85,16.85 2.4,-2.4 -14.3,1.55 -2.4,2.4 z m 69.6,-82.35 14.35,-1.55 2.4,-2.4 -14.35,1.55 z m 0.15,-8.85 0.85,-8.75 -2.2,-2.15 -1.3,1.35 1.9,1.9 -9.1,9.05 4.2,4.2 z m -40.85,12.5 13.1,-1.3 2.5,-2.55 -13.2,1.4 z m 8.5,-12.95 1.15,1.05 2.5,-2.45 25.75,25.8 9.9,-1 2.8,-2.8 -1.45,-1.45 -2.75,2.8 -25.75,-25.8 -9.35,1.1 z m 8.2,29 1.45,-1.4 -2.2,-2.2 8.6,-8.65 -4.2,-4.25 -4.9,4.9 -0.95,9.4 z m 10.05,6.55 1.55,-13.85 -2.5,2.55 -1.5,13.75 z M -82.55,406.4 -85,408.85 -86.4,422 l 2.45,-2.4 z m -31.85,31.95 13.049,-1.4 2.551,-2.5 -13.15,1.45 z m 18.1,14.55 -2.2,-2.15 8.649,-8.7 -4.199,-4.2 -4.85,4.85 -1.05,9.45 2.2,2.2 z m 28.3,-5.6 -25.75,-25.8 -9.4,1.1 -2.701,2.8 1.101,1.05 2.5,-2.55 25.75,25.8 9.899,-1 2.801,-2.7 -1.4,-1.45 z m -5.7,-12.65 14.3,-1.55 2.45,-2.45 -14.3,1.55 z m -5.45,-3.2 5.549,-5.65 0.901,-8.75 -2.2,-2.15 -1.35,1.35 1.899,1.9 -9,9.1 z m -8.5,29.45 1.549,-13.8 -2.549,2.5 -1.451,13.7 z m 87.6,42.6 1.4,-13.2 -2.4,2.45 -1.45,13.15 z m 0.65,7.65 4.15,4.2 5.55,-5.65 0.9,-8.7 -2.2,-2.2 -1.351,1.35 1.951,1.9 z m 12.049,5.05 -2.449,2.4 14.3,-1.6 2.45,-2.4 z m -40.699,3.6 -2.45,2.45 13.05,-1.4 2.55,-2.5 z m 12,16.25 2.199,2.2 1.451,-1.4 -2.201,-2.2 8.651,-8.7 -4.151,-4.2 -4.849,4.85 z m 31.949,-4.85 -25.75,-25.75 -9.299,1.05 -2.75,2.8 1.049,1.1 2.5,-2.55 25.75,25.75 9.901,-1 2.8,-2.7 -1.4,-1.45 z m -18.099,-0.15 -2.55,2.5 -1.45,13.65 2.45,-2.4 z m -252,-109 2.45,-2.4 1.4,-13.2 -2.45,2.45 z m -28.05,16.3 13.1,-1.4 2.5,-2.5 -13.2,1.45 z m 26.8,22.55 1.4,-13.8 -2.45,2.5 -1.4,13.7 z m -10.1,-6.6 1.45,-1.45 -2.2,-2.1 8.65,-8.6 -4.2,-4.25 -4.9,4.9 -1,9.35 z m 31.15,-5.6 2.75,-2.8 -1.45,-1.4 -2.7,2.8 -25.8,-25.75 -9.35,1.05 -2.8,2.8 1.15,1.05 2.55,-2.5 25.75,25.75 z m -7.15,-14 14.35,-1.6 2.45,-2.45 -14.4,1.65 z m -5.5,-3.25 5.65,-5.65 0.85,-8.7 -2.15,-2.2 -1.35,1.3 1.9,1.95 -9.1,9.1 z m 83.949,83.9 5.601,-5.65 0.899,-8.7 -2.199,-2.15 -1.35,1.3 1.9,1.9 -9.1,9.1 z m -4.749,-11.8 1.4,-13.2 -2.45,2.45 -1.4,13.15 z m 26.999,11.05 -14.299,1.6 -2.451,2.4 14.301,-1.6 z m -41.899,3.75 -13.2,1.45 -2.4,2.45 13.1,-1.4 z m 11.2,26.5 1.5,-13.85 -2.5,2.5 -1.45,13.75 z m -2.2,-18.8 -4.2,-4.25 -4.85,4.9 -1.05,9.35 2.2,2.2 1.45,-1.4 -2.2,-2.2 z m 26,3.85 -1.45,-1.45 -2.7,2.8 -25.75,-25.8 -9.4,1.05 -2.75,2.8 1.1,1.05 2.55,-2.5 25.75,25.85 9.9,-1.05 z m -21.15,130.7 -1.45,13.2 2.4,-2.45 1.5,-13.2 z m -73.25,-74.65 -9.1,9.1 4.2,4.2 5.65,-5.65 0.85,-8.7 -2.2,-2.15 -1.3,1.3 z m 0.6,16.55 14.35,-1.6 2.45,-2.4 -14.4,1.6 z m -12.7,-12.65 2.4,-2.4 1.5,-13.2 -2.45,2.45 z m -18.35,4.4 2.55,-2.5 25.75,25.85 9.85,-1 2.8,-2.8 -1.45,-1.45 -2.75,2.8 -25.75,-25.8 -9.35,1.05 -2.8,2.8 z m 5.95,8.05 -13.2,1.4 -2.4,2.45 13.1,-1.3 z m 2.55,18.45 -2.2,-2.2 8.6,-8.6 -4.2,-4.25 -4.9,4.9 -0.95,9.35 2.2,2.2 z m 8.6,8 1.55,-13.85 -2.5,2.55 -1.5,13.7 z m -11.15,141.35 -13.2,1.4 -2.4,2.45 13.1,-1.3 z m 16.25,-28.05 -2.45,2.45 -1.4,13.2 2.4,-2.45 z m 8.3,11.75 -9.1,9.05 4.15,4.2 5.65,-5.55 0.85,-8.75 -2.2,-2.2 -1.3,1.35 z m 17.35,12.55 -14.4,1.6 -2.4,2.45 14.35,-1.65 z m 67.25,-88.85 0.85,-8.65 -2.201,-2.2 -1.299,1.3 1.95,1.9 -9.1,9.1 4.199,4.2 z m -0.15,8.95 14.35,-1.65 2.449,-2.4 -14.399,1.65 z m -32.1,-9.35 1.05,1.15 2.55,-2.5 25.75,25.75 9.85,-1 2.8,-2.8 -1.45,-1.45 -2.75,2.8 -25.75,-25.75 -9.3,1 z m -8.6,12.95 13.1,-1.3 2.5,-2.55 -13.2,1.4 z m 16.7,16 1.45,-1.4 -2.2,-2.2 8.6,-8.6 -4.15,-4.25 -4.85,4.9 -1.05,9.35 z m 10.05,6.6 1.55,-13.75 -2.5,2.55 -1.5,13.65 z m 172.95,-54.5 -2.4,2.45 -1.45,13.2 2.45,-2.45 z m -85.3,-70.7 1.4,-13.2 -2.45,2.45 -1.4,13.15 z m 10.349,6.15 0.901,-8.65 -2.2,-2.2 -1.35,1.3 1.95,1.9 -9.051,9.1 4.151,4.2 z m -0.099,8.95 14.3,-1.65 2.45,-2.4 -14.3,1.65 z m -29.35,-12.15 -2.801,2.8 1.051,1.1 2.55,-2.45 25.75,25.75 9.899,-1 2.75,-2.8 -1.449,-1.45 -2.7,2.8 -25.75,-25.75 z m 4.199,11.9 -13.199,1.4 -2.4,2.45 13.099,-1.4 z m 2.551,18.45 -2.2,-2.2 8.649,-8.6 -4.149,-4.25 -4.851,4.9 -1.099,9.35 2.2,2.2 z m 8.65,8 1.5,-13.8 -2.5,2.5 -1.451,13.7 z m -11.201,141.35 -13.199,1.4 -2.4,2.45 13.099,-1.3 z m 14.801,-14.85 1.5,-13.2 -2.45,2.45 -1.45,13.2 z m 10.449,6.15 0.851,-8.65 -2.2,-2.2 -1.3,1.3 1.95,1.95 -9.051,9.1 4.151,4.15 z m 16.701,4.9 -14.451,1.65 -2.399,2.45 14.399,-1.7 z m 69.549,-82.25 -2.449,2.4 14.35,-1.65 2.45,-2.4 z m -7.949,-0.9 5.6,-5.65 0.9,-8.65 -2.2,-2.2 -1.351,1.3 1.951,1.95 -9.05,9.1 z m -8.45,29.5 1.5,-13.75 -2.5,2.45 -1.45,13.75 z m -14.601,-36.9 25.75,25.75 9.901,-1 2.75,-2.8 -1.401,-1.45 -2.75,2.8 -25.75,-25.75 -9.299,1 -2.8,2.8 1.05,1.15 z m 3.401,10.45 -13.2,1.4 -2.4,2.45 13.1,-1.4 z m 0.349,16.25 8.651,-8.6 -4.151,-4.15 -4.849,4.85 -1.1,9.3 2.199,2.2 1.451,-1.4 z M 262.1,90.15 263,81.4 l -2.2,-2.1 -1.401,1.3 1.901,1.9 -9.05,9.05 4.2,4.25 z m -10.4,-6.2 1.449,-13.15 -2.449,2.45 -1.45,13.15 z m -14.551,31.1 8.701,-8.6 -4.25,-4.2 -4.85,4.85 -1,9.4 2.2,2.2 1.4,-1.45 z m 10.851,10.2 1.5,-13.8 -2.5,2.5 -1.4,13.75 z m -26.8,-22.6 13.1,-1.35 2.5,-2.5 -13.151,1.45 z m 8.55,-12.95 1.1,1.1 2.6,-2.5 25.75,25.8 9.9,-1 2.7,-2.8 -1.401,-1.4 -2.75,2.8 -25.75,-25.85 -9.349,1.1 z m 48.95,5.3 -14.301,1.6 -2.449,2.45 14.3,-1.6 z M 166.8,-10.65 165.35,2.5 167.8,0.05 169.2,-13.1 Z m 5.75,22.5 5.65,-5.6 0.8,-8.75 -2.101,-2.2 -1.399,1.3 1.899,2 -9.049,9.05 z m 19.8,1.7 2.45,-2.45 -14.35,1.6 -2.45,2.45 z m -46.5,-7.75 1.1,1.1 2.55,-2.5 25.8,25.75 9.9,-1 2.699,-2.8 -1.399,-1.4 -2.75,2.75 -25.8,-25.75 -9.301,1.1 z m -8.55,12.95 13.099,-1.35 2.5,-2.5 -13.149,1.4 z m 26.8,22.55 1.45,-13.75 -2.5,2.5 -1.35,13.7 z m -10.85,-10.15 8.649,-8.6 -4.199,-4.2 -4.85,4.85 -1,9.4 2.2,2.1 1.4,-1.4 z M 108.45,97.5 110.899,95 96.55,96.6 94.1,99.05 Z M 83.899,83.95 85.3,70.8 82.899,73.25 81.45,86.4 Z m 4.75,11.85 5.651,-5.65 0.8,-8.75 -2.15,-2.2 -1.35,1.4 1.9,1.95 -9.05,9 z m -8.449,29.4 1.449,-13.75 -2.5,2.55 -1.349,13.65 z m -18.25,-35.5 1.1,1.1 2.55,-2.5 25.75,25.75 9.95,-1 2.7,-2.8 -1.4,-1.4 -2.75,2.75 -25.8,-25.75 -9.3,1.15 z m -6.1,10.55 -2.451,2.4 13.101,-1.3 2.5,-2.55 z m 13.5,14.85 8.65,-8.65 -4.2,-4.2 -4.85,4.85 -1,9.45 2.199,2.15 1.401,-1.45 z m 97.45,42.05 -1.45,13.15 2.45,-2.45 1.4,-13.15 z m 12.25,8.15 -2.151,-2.1 -1.399,1.35 1.899,1.9 -9.049,9 4.2,4.25 5.65,-5.65 z m 8.849,28.9 -1.399,-1.4 -2.75,2.8 -25.75,-25.85 -9.351,1.15 -2.799,2.75 1.1,1.05 2.55,-2.5 25.8,25.8 9.9,-1 z m 4.451,-12.8 2.45,-2.5 -14.3,1.6 -2.45,2.45 z m -30.451,8.95 -4.199,-4.2 -4.85,4.85 -1,9.45 2.2,2.2 1.4,-1.45 -2.2,-2.2 z m 2.201,18.8 1.5,-13.8 -2.5,2.55 -1.4,13.7 z m -26.8,-22.6 13.099,-1.3 2.5,-2.55 -13.149,1.45 z m -83.901,83.9 13.101,-1.3 2.5,-2.55 -13.15,1.45 z m 29.451,-29.4 -1.451,13.15 2.451,-2.45 1.4,-13.15 z m 5.799,22.55 5.651,-5.6 0.8,-8.8 -2.201,-2.1 -1.299,1.35 1.9,1.9 -9.05,9 z m 5.451,3.25 14.35,-1.55 2.449,-2.45 -14.349,1.55 z m 7.1,14.05 2.8,-2.8 -1.4,-1.4 -2.8,2.8 -25.75,-25.85 -9.3,1.15 -2.8,2.75 1.1,1.05 2.5,-2.5 25.75,25.8 z m -22,0.9 -1.45,13.7 2.399,-2.45 1.551,-13.8 z m -9.85,1.1 8.6,-8.65 -4.2,-4.2 -4.851,4.85 -0.949,9.45 2.199,2.2 1.401,-1.45 z m 81.049,70.15 2.5,-2.55 -13.149,1.45 -2.45,2.4 z m 41.951,-3.85 2.45,-2.45 -14.35,1.6 -2.45,2.45 z m -19.8,-1.7 5.65,-5.6 0.8,-8.7 -2.2,-2.2 -1.3,1.35 1.95,1.9 -9.051,9 z m -4.8,-11.8 1.399,-13.2 -2.399,2.45 -1.45,13.15 z m -2.15,27.5 -2.5,2.55 -1.451,13.65 2.401,-2.45 z m -12.75,-4.4 -1,9.45 2.2,2.2 1.4,-1.45 -2.2,-2.15 8.6,-8.7 -4.15,-4.2 z m 30.85,4.6 -25.75,-25.75 -9.25,1.05 -2.801,2.75 1.051,1.1 2.5,-2.5 25.75,25.75 9.949,-1 2.75,-2.8 -1.399,-1.4 z m 67,-122.35 -1.45,13.15 2.45,-2.45 1.449,-13.15 z m -13.9,25.55 -13.151,1.45 -2.449,2.4 13.1,-1.3 z m 25.3,-8.65 0.9,-8.65 -2.2,-2.2 -1.401,1.35 1.951,1.9 -9.05,9 4.15,4.25 z m -0.15,8.95 14.3,-1.6 2.45,-2.5 -14.301,1.65 z m 7.15,14 2.7,-2.8 -1.401,-1.4 -2.75,2.8 -25.75,-25.75 -9.299,1.05 -2.8,2.75 1.05,1.1 2.6,-2.5 25.75,25.75 z m -31.15,5.65 1.4,-1.45 -2.201,-2.2 8.701,-8.65 -4.201,-4.2 -4.849,4.85 -1.05,9.45 z m 10.05,6.5 1.5,-13.75 -2.5,2.55 -1.4,13.65 z m 5.05,113.35 -2.401,2.45 -1.449,13.15 2.449,-2.4 z m 3.4,25 5.65,-5.6 0.799,-8.7 -2.199,-2.2 -1.301,1.35 1.951,1.95 -9.05,9.05 z m 11.15,15.9 -25.75,-25.75 -9.25,1.05 -2.8,2.75 1.05,1.1 2.5,-2.5 25.75,25.75 9.95,-1 2.75,-2.8 -1.401,-1.4 z m -5.701,-12.6 14.451,-1.6 2.4,-2.45 -14.4,1.65 z m -25.099,-0.3 -13.151,1.45 -2.449,2.4 13.1,-1.3 z m 11.15,26.5 1.55,-13.8 -2.5,2.55 -1.45,13.65 z m -8.6,-8 -2.201,-2.15 8.601,-8.7 -4.15,-4.15 -4.85,4.9 -1,9.35 2.2,2.2 z m -154.1,-46.5 -2.4,2.45 -1.451,13.15 2.451,-2.4 z m -31.851,31.95 13.051,-1.4 2.55,-2.5 -13.15,1.45 z m 46.401,8.95 -25.75,-25.75 -9.3,1.05 -2.75,2.8 1.05,1.1 2.5,-2.55 25.75,25.75 9.9,-1 2.8,-2.7 -1.4,-1.45 z m -5.7,-12.6 14.299,-1.6 2.451,-2.45 -14.3,1.65 z m -5.451,-3.25 5.551,-5.65 0.9,-8.7 -2.201,-2.2 -1.349,1.35 1.95,1.9 -9,9.1 z m -14.849,6.4 -4.85,4.85 -1.051,9.45 2.151,2.2 1.45,-1.45 -2.2,-2.15 8.65,-8.7 z m 6.349,23.05 1.551,-13.75 -2.551,2.5 -1.399,13.65 z m 92.401,54.45 5.55,-5.65 0.9,-8.7 -2.2,-2.2 -1.35,1.35 1.949,1.95 -9,9.1 z m -4.8,-11.85 1.399,-13.2 -2.399,2.45 -1.45,13.15 z m 24.6,13.5 2.45,-2.4 -14.35,1.6 -2.45,2.4 z m -55.05,5.25 13.05,-1.4 2.549,-2.5 -13.149,1.45 z m 47.849,10.35 2.75,-2.7 -1.399,-1.45 -2.8,2.75 -25.75,-25.75 -9.301,1.05 -2.75,2.8 1.051,1.1 2.5,-2.55 25.75,25.75 z m -23.299,-6.65 -4.15,-4.15 -4.85,4.9 -1.05,9.35 2.15,2.2 1.449,-1.4 -2.199,-2.2 z m -0.201,21.25 2.401,-2.4 1.55,-13.75 -2.55,2.5 z m 5.151,113.35 -1.45,13.15 2.45,-2.4 1.4,-13.2 z m -78.151,-61.3 5.551,-5.65 0.9,-8.7 -2.201,-2.2 -1.349,1.35 1.95,1.95 -9,9.1 z m -7.25,-9.45 2.451,-2.4 1.4,-13.2 -2.4,2.45 z m 12.701,12.7 14.35,-1.6 2.449,-2.4 -14.349,1.6 z m -28.55,-10.75 25.75,25.8 9.9,-1.05 2.8,-2.7 -1.4,-1.45 -2.8,2.75 -25.75,-25.75 -9.3,1.05 -2.75,2.8 1.05,1.1 z m -12.151,14.4 13.051,-1.4 2.55,-2.45 -13.15,1.4 z m 16.651,16 1.45,-1.4 -2.2,-2.2 8.65,-8.7 -4.15,-4.15 -4.85,4.9 -1.051,9.35 z m 10.099,6.55 1.551,-13.75 -2.551,2.5 -1.399,13.65 z M 55.85,771.5 53.399,773.95 66.5,772.55 69,770.1 Z m 28.049,-16.25 1.401,-13.2 -2.401,2.45 -1.449,13.2 z m 11.201,-2.5 -2.201,-2.2 -1.349,1.3 1.95,1.95 -9.05,9.1 4.199,4.15 5.651,-5.65 z m -1,17.65 14.35,-1.7 2.449,-2.4 -14.349,1.65 z m 98.25,-85.6 2.45,-2.4 -14.35,1.6 -2.45,2.4 z m -19.75,-1.65 5.6,-5.65 0.8,-8.7 -2.2,-2.2 -1.35,1.35 1.949,1.95 -9,9.1 z m -8.55,29.45 1.55,-13.7 -2.55,2.45 -1.401,13.65 z m -8.651,-7.95 -2.149,-2.2 8.649,-8.7 -4.199,-4.15 -4.85,4.9 -1,9.35 2.1,2.2 z m -5,-16 2.551,-2.45 -13.15,1.4 -2.45,2.45 z m -4.5,-11.5 1.051,1.1 2.5,-2.55 25.75,25.75 9.949,-1.05 2.75,-2.7 -1.399,-1.45 -2.8,2.75 -25.75,-25.75 -9.301,1.1 z M 261.3,586 l -9,9.1 4.2,4.15 5.6,-5.65 0.799,-8.7 -2.199,-2.2 -1.35,1.35 z m -9.6,1.4 1.449,-13.2 -2.449,2.45 -1.45,13.15 z m -13.801,34.75 1.401,-1.4 -2.151,-2.2 8.701,-8.7 -4.25,-4.15 -4.85,4.9 -1,9.35 z m 24,-19.65 14.351,-1.6 2.45,-2.4 -14.35,1.6 z m -32.099,-9.25 1.05,1.05 2.5,-2.55 25.75,25.8 9.95,-1.05 2.75,-2.7 -1.401,-1.45 -2.799,2.75 -25.75,-25.75 -9.3,1.1 z m -8.55,12.9 13.05,-1.4 2.55,-2.45 -13.15,1.4 z m 26.7,22.55 1.55,-13.75 -2.55,2.5 -1.4,13.65 z m 3.75,126.55 1.449,-13.2 -2.449,2.45 -1.45,13.2 z m -14.85,14.9 -13.15,1.4 -2.45,2.45 13.05,-1.35 z m 26.049,-17.45 -2.099,-2.2 -1.401,1.35 1.901,1.95 -9,9.1 4.2,4.2 5.6,-5.6 z m 15.801,13.65 -14.35,1.55 -2.451,2.4 14.351,-1.55 z m -6.801,15.25 -1.449,-1.45 -2.801,2.75 -25.799,-25.75 -9.3,1.1 -2.75,2.8 1.05,1.1 2.5,-2.55 25.85,25.75 9.9,-1.05 z m -24.949,3.65 -1.35,13.65 2.4,-2.4 1.5,-13.7 z m -7.6,3.3 -2.201,-2.15 8.701,-8.65 -4.25,-4.25 -4.85,4.9 -1,9.4 2.2,2.15 z m 22.75,140.75 0.9,-8.75 -2.2,-2.15 -1.401,1.35 1.901,1.9 -9.05,9.05 4.2,4.2 z m -10.4,-6.2 1.449,-13.15 -2.449,2.4 -1.45,13.2 z m -14.9,14.85 -13.151,1.4 -2.449,2.45 13.1,-1.35 z m 0.349,16.25 8.701,-8.6 -4.25,-4.2 -4.85,4.85 -1,9.4 2.2,2.15 1.4,-1.4 z m 10.851,10.2 1.5,-13.8 -2.5,2.5 -1.4,13.75 z m 19.649,-13.6 -25.75,-25.8 -9.349,1.1 -2.8,2.75 1.1,1.15 2.6,-2.5 25.75,25.75 9.9,-1 2.7,-2.8 -1.401,-1.4 z m 11.051,-16.65 -14.301,1.6 -2.449,2.45 14.3,-1.6 z m -128.301,-77.6 2.5,-2.5 -13.149,1.4 -2.45,2.45 z m 25.101,-20.8 1.899,1.95 -9.049,9.1 4.2,4.2 5.65,-5.6 0.8,-8.75 -2.101,-2.2 z m -8.7,-7.3 -1.45,13.2 2.45,-2.45 1.4,-13.15 z m 25.55,24.25 2.45,-2.45 -14.35,1.6 -2.45,2.45 z m -8.6,14.15 -25.8,-25.75 -9.301,1.05 -2.799,2.8 1.049,1.1 2.551,-2.5 25.85,25.75 9.9,-1 2.699,-2.8 -1.399,-1.45 z M 99.8,782.95 74.05,757.2 l -9.3,1.05 -2.8,2.8 1.05,1.1 2.55,-2.5 25.75,25.75 9.9,-1 2.75,-2.8 -1.4,-1.45 z m -20.651,2.3 -1.399,13.75 2.399,-2.45 1.5,-13.75 z m -11.199,2.5 2.1,2.2 1.45,-1.4 -2.15,-2.2 8.65,-8.6 -4.2,-4.15 -4.85,4.85 z m -12.1,151.6 -2.451,2.45 13.101,-1.3 2.5,-2.55 z m 40.65,-3.6 -2.45,2.45 14.4,-1.6 2.449,-2.45 z m -12.65,-12.65 1.45,-13.15 -2.401,2.4 -1.5,13.2 z m 4.799,11.8 5.651,-5.6 0.75,-8.75 -2.151,-2.2 -1.299,1.3 1.9,2 -9.05,9.05 z m -14.899,6.5 -4.851,4.85 -0.949,9.4 2.199,2.1 1.401,-1.4 -2.2,-2.15 8.6,-8.6 z m 4,25.4 2.399,-2.45 1.5,-13.75 -2.5,2.55 z M 99.8,950.75 74,925 l -9.25,1.1 -2.8,2.75 1.05,1.1 2.55,-2.5 25.8,25.75 9.85,-1 2.8,-2.8 -1.4,-1.45 z m 55.65,-78.3 -2.2,-2.15 8.649,-8.6 -4.199,-4.2 -4.85,4.85 -1,9.35 2.2,2.15 z m 8.65,8 1.45,-13.75 -2.5,2.45 -1.35,13.75 z m 13.9,141.65 14.35,-1.6 2.45,-2.45 -14.35,1.6 z m -10.25,-15.1 1.45,-13.15 -2.4,2.4 -1.5,13.2 z m 9.05,-4.7 -1.3,1.35 1.899,1.9 -9.049,9.05 4.2,4.2 5.65,-5.6 0.8,-8.75 z m -39.5,23.4 13.099,-1.3 2.5,-2.55 -13.149,1.4 z m 47.849,10.45 2.75,-2.8 -1.399,-1.4 -2.8,2.75 -25.75,-25.8 -9.301,1.1 -2.799,2.75 1.1,1.15 2.55,-2.5 25.8,25.75 z m -31.899,1.95 8.6,-8.6 -4.201,-4.2 -4.849,4.85 -0.95,9.4 2.2,2.15 1.4,-1.4 z m 10.8,10.2 1.55,-13.8 -2.5,2.55 -1.451,13.7 z m -78.8,29.45 -2.4,2.4 -1.451,13.2 2.451,-2.45 z m 3.399,24.95 5.651,-5.55 0.8,-8.8 -2.201,-2.1 -1.299,1.35 1.9,1.9 -9.05,9 z m 22.25,-0.7 -14.349,1.55 -2.45,2.45 14.35,-1.55 z m -57.5,7.6 13.101,-1.3 2.5,-2.55 -13.15,1.4 z m 15.951,12.45 8.6,-8.65 -4.2,-4.2 -4.851,4.85 -0.949,9.45 2.199,2.2 1.401,-1.45 z m 31.85,-2 2.8,-2.8 -1.4,-1.4 -2.8,2.75 -25.75,-25.8 -9.3,1.15 -2.8,2.7 1.1,1.15 2.5,-2.5 25.75,25.75 z m -21.051,12.15 1.551,-13.8 -2.5,2.55 -1.45,13.7 z m 170.551,-52.05 -1.5,13.2 2.449,-2.45 1.5,-13.15 z m 11.4,16.95 0.799,-8.7 -2.199,-2.15 -1.301,1.3 1.951,1.9 -9.05,9.05 4.15,4.2 z m -40.9,12.5 13.1,-1.3 2.5,-2.55 -13.151,1.4 z m 47.85,10.45 2.75,-2.8 -1.401,-1.4 -2.799,2.75 -25.75,-25.75 -9.3,1.05 -2.8,2.75 1.1,1.15 2.6,-2.5 25.75,25.75 z m -29.7,4.15 -2.201,-2.2 8.601,-8.6 -4.15,-4.2 -4.85,4.85 -1,9.4 2.2,2.2 z m 8.6,8 1.55,-13.75 -2.5,2.55 -1.45,13.65 z m 30.75,-30.25 -14.35,1.65 -2.451,2.45 14.351,-1.65 z m -28.051,146.05 -1.449,13.15 2.449,-2.45 1.401,-13.15 z m 10.051,6.05 -1.301,1.35 1.951,1.95 -9.05,9 4.15,4.2 5.65,-5.6 0.799,-8.7 z m 9.699,29.6 -2.799,2.8 -25.75,-25.75 -9.25,1.1 -2.8,2.75 1.05,1.05 2.5,-2.5 25.75,25.75 9.95,-1 2.75,-2.8 z m -34.649,7.65 2.2,2.2 1.4,-1.45 -2.201,-2.2 8.601,-8.65 -4.15,-4.15 -4.85,4.85 z m 12.2,8.7 1.55,-13.75 -2.5,2.55 -1.45,13.65 z m -26.75,-22.6 13.1,-1.3 2.5,-2.55 -13.151,1.45 z m 57.5,-7.6 -14.35,1.6 -2.451,2.45 14.351,-1.6 z m -100.7,-79.85 14.35,-1.6 2.45,-2.45 -14.35,1.6 z m -5.45,-3.3 5.65,-5.6 0.8,-8.75 -2.2,-2.15 -1.3,1.35 1.95,1.9 -9.051,9 z m -4.8,-11.85 1.399,-13.15 -2.399,2.45 -1.45,13.15 z m -12.3,33.35 -2.2,-2.2 8.6,-8.65 -4.15,-4.2 -4.85,4.85 -1,9.45 2.2,2.2 z m 10.15,-5.8 -2.5,2.55 -1.451,13.65 2.401,-2.45 z m -28.3,-8.85 13.099,-1.3 2.5,-2.55 -13.149,1.45 z m 8.55,-12.95 1.1,1.15 2.5,-2.5 25.75,25.75 9.949,-1 2.75,-2.8 -1.399,-1.4 -2.8,2.8 -25.75,-25.75 -9.301,1.05 z m -64.451,80.6 2.451,-2.45 1.4,-13.15 -2.4,2.45 z m 11.5,-7.1 -1.349,1.35 1.95,1.9 -9,9.05 4.149,4.25 5.551,-5.65 0.9,-8.7 z m 6.901,32.4 -25.75,-25.75 -9.401,1.05 -2.699,2.7 1.1,1.15 2.5,-2.5 25.75,25.75 9.9,-1 2.8,-2.8 -1.4,-1.4 z m -5.7,-12.6 14.299,-1.6 2.451,-2.45 -14.3,1.6 z m -13.951,26.15 1.551,-13.75 -2.551,2.55 -1.399,13.65 z m -10.849,-10.15 8.65,-8.65 -4.15,-4.2 -4.85,4.85 -1.051,9.45 2.151,2.2 1.45,-1.45 z M 53.399,1277.4 66.45,1276.1 69,1273.55 55.85,1275 Z m 83.901,83.9 13.05,-1.3 2.549,-2.55 -13.149,1.45 z m 30.45,-18.7 1.399,-13.15 -2.399,2.45 -1.45,13.15 z m 4.8,11.9 5.55,-5.65 0.9,-8.7 -2.2,-2.2 -1.35,1.35 1.949,1.95 -9,9.1 z m 19.75,1.65 2.45,-2.45 -14.3,1.6 -2.45,2.45 z m -8.6,14.2 -25.75,-25.75 -9.301,1.1 -2.75,2.75 1.051,1.05 2.5,-2.5 25.75,25.75 9.949,-1 2.75,-2.8 -1.399,-1.4 z m -28.301,5.6 -2.199,-2.2 8.65,-8.65 -4.15,-4.15 -4.85,4.85 -1.05,9.4 2.15,2.2 z m 8.651,7.95 1.55,-13.75 -2.55,2.55 -1.401,13.65 z m -110.7,61.35 13.1,-1.35 2.55,-2.5 -13.25,1.45 z m 43.2,-6.05 -2.45,2.45 14.299,-1.6 2.451,-2.45 z m -12.7,-12.7 1.4,-13.15 -2.4,2.45 -1.451,13.15 z m 4.75,11.9 5.6,-5.65 0.9,-8.7 -2.201,-2.2 -1.349,1.35 1.95,1.95 -9.05,9.1 z m -14.8,6.45 -4.85,4.85 -1.051,9.4 2.151,2.2 1.45,-1.45 -2.2,-2.15 8.65,-8.7 z m 26,9.4 -25.75,-25.75 -9.3,1.1 -2.75,2.8 1.05,1.05 2.5,-2.55 25.75,25.75 9.9,-1 2.8,-2.7 -1.4,-1.45 z m -19.651,13.55 1.551,-13.7 -2.551,2.5 -1.399,13.65 z m 89.051,29.5 -2.4,2.45 -1.45,13.15 2.45,-2.4 z m -31.9,31.95 13.099,-1.4 2.551,-2.45 -13.2,1.4 z m 40.7,-3.7 14.35,-1.55 2.45,-2.4 -14.35,1.5 z m 5.7,12.6 -25.75,-25.75 -9.301,1.1 -2.75,2.8 1.051,1.05 2.5,-2.55 25.75,25.75 9.949,-1 2.75,-2.7 -1.399,-1.45 z m -11.15,-15.8 5.65,-5.65 0.8,-8.75 -2.2,-2.2 -1.35,1.35 1.949,1.95 -9.049,9.1 z m -8.5,29.35 1.55,-13.7 -2.55,2.5 -1.401,13.65 z m -10.8,-10.05 8.649,-8.7 -4.199,-4.2 -4.85,4.9 -1,9.4 2.1,2.15 1.449,-1.45 z m 83.6,-100.25 -13.15,1.45 -2.45,2.4 13.05,-1.3 z m 25.049,0.25 14.351,-1.55 2.45,-2.4 -14.35,1.5 z m -1.199,-19.8 -1.35,1.35 1.95,1.95 -9,9.1 4.2,4.2 5.6,-5.65 0.799,-8.75 z m -9,4.75 1.449,-13.2 -2.449,2.45 -1.45,13.15 z m -12.4,33.25 -2.151,-2.1 8.701,-8.7 -4.25,-4.2 -4.85,4.85 -1,9.45 2.149,2.15 z m 28.3,-5.6 -25.75,-25.75 -9.3,1.1 -2.75,2.75 1.05,1.05 2.5,-2.5 25.75,25.75 9.95,-1 2.75,-2.8 -1.401,-1.4 z m -19.65,13.55 1.55,-13.75 -2.55,2.55 -1.4,13.65 z M -14.9,854 l -13.15,1.4 -2.45,2.45 13.1,-1.3 z M -0.05,839.15 1.399,826 -1,828.4 -2.5,841.6 Z m 0.6,7.65 4.2,4.15 5.649,-5.65 0.75,-8.65 -2.199,-2.2 -1.301,1.3 1.951,1.95 z m 26.45,3.4 -14.45,1.65 -2.401,2.45 14.401,-1.7 z M 15.85,866.85 -9.9,841.1 l -9.25,1.05 -2.8,2.8 1.05,1.1 2.549,-2.5 25.75,25.75 9.851,-1 2.8,-2.8 -1.401,-1.45 z m -83.9,-83.9 -25.75,-25.75 -9.25,1 -2.801,2.8 1.051,1.15 2.55,-2.5 25.75,25.75 9.85,-1 2.799,-2.8 -1.449,-1.45 z m -20.6,2.4 -1.5,13.65 2.45,-2.45 1.55,-13.75 z m -11.3,2.4 2.2,2.2 1.45,-1.4 -2.2,-2.2 8.6,-8.6 -4.15,-4.15 -4.85,4.85 z m -14.45,154 13.1,-1.3 2.5,-2.55 -13.15,1.4 z m 15.95,12.45 8.599,-8.65 -4.199,-4.15 -4.85,4.85 -0.951,9.4 2.101,2.15 1.45,-1.4 z m 24.7,-16 14.399,-1.6 2.451,-2.45 -14.451,1.6 z m -10.2,-15.15 1.4,-13.15 -2.45,2.4 -1.4,13.2 z m 10.45,6.25 0.75,-8.75 -2.2,-2.2 -1.3,1.4 1.95,1.95 -9.051,9 4.201,4.15 z m -16.65,37.5 2.45,-2.45 1.55,-13.75 -2.5,2.55 z m 22.1,-16.05 -25.75,-25.75 -9.25,1.15 -2.801,2.7 1.051,1.1 2.5,-2.5 25.75,25.75 9.9,-1 2.799,-2.8 -1.449,-1.45 z m 64.25,-70.3 1.55,-13.75 -2.5,2.55 -1.5,13.65 z m -8.6,-8 -2.15,-2.2 8.6,-8.6 -4.2,-4.15 -4.85,4.85 -0.95,9.3 2.099,2.2 z M -182.75,854 l -13.2,1.4 -2.4,2.45 13.1,-1.3 z m 14.8,-14.85 1.45,-13.15 -2.45,2.4 -1.4,13.2 z m 9.75,-1.35 -9.1,9 4.199,4.15 5.601,-5.55 0.85,-8.75 -2.201,-2.2 -1.299,1.4 z m 17.4,12.45 -14.45,1.6 -2.4,2.45 14.4,-1.6 z m -8.4,13.8 -2.75,2.8 -25.75,-25.75 -9.3,1.05 -2.75,2.75 1.05,1.15 2.5,-2.5 25.75,25.75 9.9,-1 2.8,-2.8 z m -85.25,-79.65 2.8,-2.8 -1.45,-1.45 -2.75,2.8 -25.75,-25.75 -9.3,1.05 -2.75,2.75 1.05,1.15 2.5,-2.5 25.75,25.75 z m -22,0.95 -1.5,13.65 2.45,-2.45 1.55,-13.75 z m -9.1,4.65 1.45,-1.4 -2.2,-2.2 8.6,-8.65 -4.15,-4.25 -4.9,4.9 -1,9.4 z m 15.15,119.9 -2.45,2.4 -1.4,13.2 2.4,-2.45 z m -31.85,31.85 13.05,-1.3 2.55,-2.55 -13.2,1.4 z m 25.75,11.4 -1.45,13.65 2.45,-2.45 1.55,-13.75 z m -9.1,4.65 1.45,-1.4 -2.2,-2.2 8.65,-8.65 -4.15,-4.15 -4.9,4.85 -1.05,9.4 z m 24.05,-19.6 14.35,-1.6 2.45,-2.45 -14.4,1.6 z m 0.1,-8.9 0.9,-8.75 -2.2,-2.2 -1.35,1.4 1.95,1.95 -9.05,9.05 4.15,4.15 z m 7,22.9 2.8,-2.8 -1.45,-1.45 -2.75,2.8 -25.75,-25.75 -9.35,1.1 -2.7,2.7 1.05,1.15 2.5,-2.5 25.75,25.75 z m 54.25,-79.7 -2.2,-2.2 8.6,-8.65 -4.15,-4.15 -4.85,4.85 -1.05,9.35 2.2,2.2 z m 8.6,7.95 1.55,-13.75 -2.5,2.55 -1.5,13.65 z m 1.3,128.95 2.45,-2.45 1.4,-13.15 -2.45,2.4 z m 7.25,9.4 5.55,-5.6 0.85,-8.75 -2.201,-2.2 -1.349,1.4 1.95,1.95 -9.05,9.05 z m 22.199,-0.75 -14.399,1.6 -2.4,2.45 14.35,-1.6 z m -41.949,12.1 -1.05,9.4 2.15,2.15 1.45,-1.4 -2.15,-2.2 8.65,-8.65 -4.2,-4.15 z m -15.5,-4.5 13.05,-1.3 2.55,-2.55 -13.2,1.4 z m 26.7,22.6 1.55,-13.75 -2.55,2.55 -1.45,13.65 z m 22.4,-16.4 -2.75,2.8 -25.75,-25.75 -9.35,1.15 -2.7,2.7 1.05,1.1 2.5,-2.5 25.75,25.75 9.9,-1 2.8,-2.8 z m -97.85,70.85 5.65,-5.6 0.85,-8.75 -2.2,-2.2 -1.35,1.4 1.95,1.95 -9.1,9.05 z m 22.3,-0.75 -14.4,1.6 -2.4,2.45 14.35,-1.6 z m -29.45,-8.65 2.45,-2.45 1.4,-13.15 -2.45,2.4 z m -12.4,12.45 -13.25,1.4 -2.4,2.45 13.1,-1.35 z m 0.3,16.25 8.65,-8.65 -4.2,-4.15 -4.9,4.85 -1,9.4 2.15,2.2 1.45,-1.45 z m 8.35,12.6 2.45,-2.45 1.55,-13.7 -2.55,2.5 z m 23.5,-14.6 2.8,-2.75 -1.45,-1.4 -2.75,2.7 -25.75,-25.75 -9.35,1.15 -2.7,2.8 1.05,1.05 2.5,-2.55 25.75,25.75 z m 234.4,-113 1.4,-13.15 -2.4,2.4 -1.45,13.2 z m 10.449,6.25 0.75,-8.8 -2.149,-2.2 -1.3,1.4 1.9,1.95 -9.05,9 4.2,4.2 z m 2.151,6.4 -2.401,2.45 14.401,-1.55 2.45,-2.45 z m -27.45,2.2 -13.15,1.4 -2.45,2.45 13.1,-1.3 z m -1.05,17.75 2.2,2.1 1.399,-1.4 -2.199,-2.15 8.6,-8.65 -4.2,-4.2 -4.85,4.85 z m 31.849,-4.95 -25.799,-25.75 -9.25,1.15 -2.8,2.7 1.05,1.1 2.5,-2.5 25.799,25.75 9.901,-1 2.8,-2.8 -1.4,-1.45 z m -19.649,13.6 1.5,-13.75 -2.5,2.55 -1.45,13.65 z m -78.8,29.5 -2.45,2.4 -1.4,13.2 2.45,-2.45 z m 3.4,25.05 5.549,-5.65 0.851,-8.8 -2.15,-2.2 -1.35,1.4 1.899,1.95 -9,9.05 z m 22.2,-0.8 -14.401,1.55 -2.399,2.45 14.35,-1.55 z m -41.85,3.75 -13.15,1.4 -2.45,2.45 13.049,-1.3 z m 2.5,18.45 -2.2,-2.15 8.649,-8.65 -4.199,-4.2 -4.85,4.85 -1.05,9.45 2.2,2.15 z m 29.699,-4.2 2.801,-2.8 -1.4,-1.4 -2.8,2.75 -25.8,-25.75 -9.35,1.15 -2.701,2.7 1.051,1.1 2.5,-2.5 25.8,25.75 z m -21.049,12.15 1.5,-13.75 -2.55,2.55 -1.401,13.65 z M -334.3,826 l -2.45,2.4 -1.4,13.2 2.4,-2.45 z m -16.25,28 -13.2,1.4 -2.4,2.45 13.05,-1.3 z m 24.5,-16.3 -9.05,9.1 4.15,4.2 5.6,-5.6 0.9,-8.75 -2.2,-2.2 -1.35,1.4 z m 6.3,29.15 -25.75,-25.75 -9.35,1.05 -2.7,2.75 1.05,1.15 2.5,-2.5 25.75,25.75 9.9,-1 2.8,-2.8 -1.45,-1.45 z m 11,-16.6 -14.3,1.6 -2.4,2.45 14.3,-1.6 z m -90.7,-68.65 -1.45,-1.45 -2.75,2.8 -25.8,-25.8 -9.35,1.1 -2.75,2.75 1.15,1.05 2.5,-2.45 25.75,25.8 9.9,-1 z m -24.85,3.65 -1.45,13.75 2.45,-2.45 1.55,-13.85 z m -11.3,2.55 2.2,2.2 1.4,-1.4 -2.15,-2.2 8.65,-8.65 -4.2,-4.25 -4.9,4.9 z m 20.7,147.1 5.65,-5.6 0.9,-8.75 -2.2,-2.2 -1.35,1.4 1.95,1.9 -9.1,9.05 z m -4.75,-11.85 1.45,-13.15 -2.45,2.4 -1.4,13.2 z m -30.5,18.75 13.15,-1.35 2.55,-2.5 -13.25,1.4 z m 28.4,8.85 -2.55,2.5 -1.45,13.65 2.45,-2.45 z m -12.4,3.55 8.65,-8.65 -4.15,-4.2 -4.9,4.85 -1.05,9.45 2.2,2.15 1.4,-1.4 z m 39.1,-17.6 2.4,-2.45 -14.3,1.6 -2.4,2.45 z m -4.4,12.85 -1.45,-1.4 -2.75,2.7 -25.8,-25.75 -9.3,1.1 -2.7,2.75 1.05,1.15 2.5,-2.55 25.75,25.75 9.9,-1 z m 51.35,-76.95 -2.15,-2.2 8.65,-8.65 -4.15,-4.25 -4.9,4.9 -1.05,9.4 2.2,2.2 z m 8.7,7.95 1.55,-13.75 -2.55,2.55 -1.45,13.65 z m -164.15,-41.3 1.45,-13.15 -2.45,2.4 -1.4,13.2 z m -30.5,18.75 13.15,-1.35 2.55,-2.5 -13.25,1.4 z m 41.8,-21.3 -2.2,-2.15 -1.35,1.4 1.85,1.85 -9.05,9.1 4.2,4.2 5.65,-5.6 z m 8.9,28.95 -1.45,-1.4 -2.8,2.7 -25.75,-25.8 -9.35,1.1 -2.75,2.8 1.15,1.1 2.5,-2.55 25.75,25.8 9.9,-1 z m -9.9,-11.35 14.3,-1.5 2.4,-2.45 -14.3,1.55 z m -78.25,-71.3 -25.8,-25.75 -9.3,1.1 -2.75,2.8 1.15,1.1 2.5,-2.55 25.75,25.75 9.9,-1.05 2.8,-2.7 -1.45,-1.45 z m -18.15,-0.1 -2.55,2.45 -1.35,13.65 2.45,-2.4 z m -11.55,7.15 1.4,-1.4 -2.2,-2.15 8.7,-8.65 -4.25,-4.25 -4.85,4.9 -1,9.4 z m 13.75,133.15 1.45,-13.2 -2.45,2.4 -1.4,13.25 z m 10.4,6.2 0.9,-8.75 -2.2,-2.15 -1.4,1.35 1.9,1.9 -9.05,9.05 4.2,4.2 z m -25.3,8.65 -12.2,1.3 v 2.2 l 9.7,-1 z m 0.35,16.25 8.7,-8.6 -4.25,-4.2 -4.85,4.85 -1,9.4 2.2,2.15 1.4,-1.4 z m 9.85,-1.1 -1.4,13.75 2.45,-2.45 1.45,-13.8 z m 17.4,-17.35 -2.45,2.45 14.3,-1.6 2.45,-2.45 z m 3.25,15.05 -25.75,-25.8 -9.35,1.1 -2.8,2.75 1.15,1.1 2.55,-2.55 25.75,25.8 9.9,-0.95 2.7,-2.8 -1.4,-1.4 z m 64.3,-70.35 1.55,-13.75 -2.6,2.45 -1.4,13.75 z m -8.7,-7.95 -2.2,-2.2 8.7,-8.65 -4.25,-4.25 -4.85,4.9 -1,9.4 2.2,2.2 z m 39.35,145.55 -14.3,1.65 -2.4,2.45 14.3,-1.65 z m -22.25,0.75 5.65,-5.6 0.9,-8.7 -2.2,-2.2 -1.35,1.35 1.95,1.9 -9.1,9.05 z m -7.15,-9.35 2.4,-2.45 1.45,-13.2 -2.45,2.4 z m -25.65,13.8 -2.45,2.45 13.15,-1.35 2.45,-2.5 z m 14.3,18.45 1.4,-1.4 -2.2,-2.2 8.7,-8.6 -4.15,-4.2 -4.9,4.85 -1.05,9.4 z m 10.1,6.6 1.45,-13.75 -2.5,2.5 -1.4,13.7 z m 19.6,-13.6 -25.75,-25.75 -9.3,1.05 -2.8,2.75 1.1,1.15 2.55,-2.55 25.75,25.75 9.9,-0.95 2.75,-2.8 -1.45,-1.4 z m -87.2,68.9 -2.45,2.45 14.35,-1.65 2.45,-2.45 z m -13.7,-23.45 -1.45,13.2 2.45,-2.45 1.4,-13.15 z m -19.75,17.65 2.45,-2.5 25.8,25.75 9.9,-1 2.75,-2.8 -1.4,-1.4 -2.8,2.75 -25.75,-25.75 -9.25,1.05 -2.8,2.75 z m -6.3,9.25 v 2.2 l 9.7,-1 2.5,-2.5 z m 31.85,-4.35 5.65,-5.6 0.8,-8.7 -2.15,-2.15 -1.35,1.3 2,1.9 -9.1,9.05 z m -8.5,29.5 1.55,-13.75 -2.5,2.5 -1.45,13.7 z m -10.8,-10.2 8.65,-8.6 -4.2,-4.2 -4.85,4.85 -1,9.4 2.2,2.2 1.4,-1.45 z m 276.65,-108.8 0.9,-8.75 -2.2,-2.2 -1.35,1.4 1.95,1.95 -9.1,9.05 4.15,4.15 z m 16.65,4.85 -14.35,1.6 -2.4,2.45 14.35,-1.6 z m -27.05,-11.1 1.45,-13.15 -2.45,2.4 -1.4,13.2 z m -13.75,34.75 1.4,-1.4 -2.15,-2.2 8.65,-8.65 -4.15,-4.15 -4.9,4.85 -1.05,9.4 z m -16.75,-16 13.15,-1.35 2.55,-2.5 -13.25,1.4 z m 26.85,22.55 1.55,-13.7 -2.55,2.5 -1.45,13.65 z m 19.65,-13.6 -25.75,-25.75 -9.35,1.1 -2.7,2.75 1.05,1.15 2.5,-2.55 25.75,25.75 9.9,-1 2.8,-2.75 -1.45,-1.4 z m -75.25,69.75 2.4,-2.45 -14.35,1.65 -2.4,2.45 z m -24.65,-13.5 1.45,-13.2 -2.45,2.4 -1.4,13.25 z m -28.05,16.25 -2.45,2.45 13.15,-1.35 2.45,-2.5 z m 32.8,-4.45 5.65,-5.6 0.9,-8.7 -2.2,-2.15 -1.35,1.3 1.95,1.95 -9.1,9.05 z m -8.4,29.5 1.45,-13.75 -2.45,2.5 -1.45,13.7 z m -10.85,-10.2 8.65,-8.6 -4.15,-4.15 -4.9,4.85 -1.05,9.35 2.2,2.2 1.4,-1.45 z m 31.9,-1.95 2.75,-2.8 -1.45,-1.4 -2.7,2.75 -25.8,-25.75 -9.3,1.05 -2.8,2.75 1.1,1.15 2.55,-2.55 25.75,25.75 z m 76.8,69.9 14.35,-1.65 2.4,-2.45 -14.35,1.65 z m 0.15,-8.95 0.85,-8.7 -2.2,-2.15 -1.35,1.3 1.95,1.95 -9.1,9.05 4.2,4.2 z m -10.35,-6.2 1.4,-13.2 -2.45,2.4 -1.4,13.25 z m -30.5,18.7 13.1,-1.35 2.5,-2.5 -13.2,1.45 z m 12.15,-14.35 25.75,25.75 9.9,-0.95 2.75,-2.8 -1.45,-1.4 -2.7,2.8 -25.75,-25.75 -9.35,1.05 -2.8,2.8 1.1,1.05 z m 5.9,28.95 -2.1,-2.2 8.65,-8.6 -4.2,-4.15 -4.9,4.85 -1,9.35 2.15,2.2 z m 8.7,8 1.45,-13.75 -2.45,2.5 -1.45,13.7 z m -81.25,31.9 -1.4,13.15 2.4,-2.45 1.45,-13.15 z m 8.75,7.35 1.95,1.95 -9.1,9.05 4.2,4.2 5.65,-5.65 0.8,-8.65 -2.2,-2.2 z m 9.6,32.5 2.8,-2.8 -1.45,-1.4 -2.8,2.8 -25.75,-25.75 -9.25,1.05 -2.8,2.8 1.1,1.05 2.5,-2.5 25.75,25.75 z m 7.3,-15.65 2.4,-2.45 -14.4,1.65 -2.45,2.45 z m -41.95,3.85 2.5,-2.5 -13.2,1.45 -2.45,2.4 z m 1.4,15.2 2.15,2.2 1.4,-1.45 -2.1,-2.2 8.6,-8.6 -4.2,-4.15 -4.9,4.85 z m 12.2,8.75 1.5,-13.75 -2.45,2.5 -1.5,13.7 z m 87.6,42.7 1.45,-13.2 -2.45,2.45 -1.4,13.15 z m -14.8,14.8 -13.2,1.45 -2.4,2.4 13.1,-1.35 z m 25.25,-8.65 0.8,-8.7 -2.15,-2.2 -1.3,1.3 1.9,1.95 -9.1,9.1 4.2,4.2 z m 16.6,4.85 -14.4,1.6 -2.45,2.45 14.45,-1.6 z m -182.2,-166.2 -2.45,2.45 14.45,-1.65 2.4,-2.45 z m -7.9,-0.85 5.65,-5.65 0.85,-8.7 -2.2,-2.15 -1.3,1.3 1.95,1.95 -9.1,9.05 z m -4.8,-11.85 1.45,-13.15 -2.45,2.45 -1.45,13.15 z m -20.75,6.9 2.5,-2.5 25.75,25.75 9.9,-1 2.8,-2.8 -1.45,-1.4 -2.8,2.8 -25.75,-25.75 -9.25,1 -2.8,2.75 z m -7.25,9.4 -2.45,2.4 13.15,-1.35 2.45,-2.5 z m 15.7,17 -2.2,-2.2 8.65,-8.6 -4.2,-4.15 -4.85,4.85 -1,9.35 2.2,2.2 z m 8.6,8 1.55,-13.75 -2.5,2.5 -1.45,13.7 z m -80.2,42.6 1.4,-13.15 -2.4,2.45 -1.45,13.15 z m 11.25,-2.45 -2.15,-2.2 -1.35,1.35 2,1.95 -9.1,9 4.15,4.2 5.65,-5.6 z m 1.45,15.15 -2.45,2.45 14.45,-1.6 2.4,-2.45 z m 3.25,15.05 -25.75,-25.75 -9.25,1.05 -2.8,2.7 1.1,1.15 2.45,-2.5 25.8,25.75 9.9,-1 2.75,-2.8 -1.4,-1.4 z m -31.9,4.85 2.2,2.2 1.45,-1.45 -2.2,-2.2 8.65,-8.65 -4.2,-4.15 -4.85,4.85 z m -11.1,-16.4 v 2.15 l 9.65,-0.95 2.55,-2.55 z m 23.35,25.1 1.55,-13.75 -2.55,2.55 -1.4,13.65 z m 72.85,57.45 -13.2,1.45 -2.45,2.4 13.1,-1.3 z m 14.8,-14.85 1.45,-13.15 -2.45,2.45 -1.4,13.15 z m 9.05,-4.65 -1.3,1.35 1.95,1.95 -9.1,9.05 4.2,4.15 5.65,-5.6 0.8,-8.7 z m 18,15.75 -14.4,1.6 -2.45,2.45 14.45,-1.6 z m -6.9,15.25 -1.45,-1.4 -2.8,2.8 -25.75,-25.75 -9.25,1.1 -2.8,2.75 1.1,1.05 2.5,-2.5 25.75,25.75 9.9,-1 z m -22.35,1.2 -2.55,2.55 -1.4,13.65 2.4,-2.45 z m -11.6,7.25 1.45,-1.45 -2.1,-2.2 8.6,-8.65 -4.25,-4.15 -4.85,4.85 -1,9.4 z m -70.1,49.1 1.45,-13.15 -2.45,2.45 -1.4,13.15 z m 7.65,-3.3 1.95,1.95 -9,9.05 4.2,4.15 5.6,-5.6 0.8,-8.7 -2.15,-2.2 z m -21.45,38.1 1.4,-1.45 -2.15,-2.15 8.7,-8.7 -4.25,-4.15 -4.85,4.85 -1,9.4 z m -13.3,-18.6 v 2.175 l 9.7,-0.975 2.6,-2.55 z m 39.75,-3.5 -2.45,2.45 14.35,-1.6 2.45,-2.45 z m 3.25,15.05 -25.75,-25.75 -9.3,1.1 -2.75,2.75 1.1,1.05 2.45,-2.5 25.8,25.75 9.9,-1 2.75,-2.8 -1.4,-1.4 z m -19.65,13.55 1.55,-13.75 -2.55,2.55 -1.4,13.65 z m 89.1,29.5 -2.45,2.45 -1.4,13.15 2.4,-2.4 z m 3.35,25 5.6,-5.6 0.85,-8.75 -2.15,-2.2 -1.35,1.35 1.85,1.95 -9,9.05 z m -32.8,4.45 -2.45,2.45 13.1,-1.35 2.55,-2.55 z m 13.45,14.9 8.7,-8.7 -4.25,-4.2 -4.85,4.9 -1,9.4 2.2,2.15 1.4,-1.45 z m 10.9,10.05 1.45,-13.75 -2.55,2.55 -1.35,13.65 z m 23.85,-14.95 -1.45,-1.4 -2.8,2.8 -25.8,-25.75 -9.3,1.1 -2.75,2.75 1.1,1.05 2.5,-2.5 25.8,25.75 9.9,-1 z m -7.55,-13.65 -2.45,2.45 14.4,-1.55 2.4,-2.4 z m 172.55,-151.35 2.8,-2.8 -1.45,-1.4 -2.75,2.8 -25.85,-25.75 -9.25,1.05 -2.8,2.8 1.1,1.05 2.5,-2.5 25.8,25.75 z m -31.1,5.6 1.45,-1.45 -2.2,-2.15 8.6,-8.6 -4.2,-4.2 -4.9,4.85 -0.95,9.4 z m 11.5,-7.2 -2.45,2.5 -1.45,13.7 2.45,-2.45 z m -81.7,56.45 1.45,-13.2 -2.45,2.45 -1.4,13.15 z m -17.35,17.35 2.55,-2.55 -13.2,1.45 -2.45,2.4 z m 7.3,0.9 -4.9,4.85 -1,9.45 2.2,2.15 1.5,-1.45 -2.2,-2.1 8.6,-8.7 z m 34.7,-4.75 2.4,-2.4 -14.4,1.5 -2.45,2.45 z m -15.55,-18.25 -1.3,1.35 1.9,1.95 -9.1,9.05 4.2,4.2 5.65,-5.6 0.8,-8.75 z m 9.65,29.6 -2.75,2.8 -25.85,-25.75 -9.25,1.1 -2.8,2.75 1.1,1.05 2.5,-2.5 25.8,25.75 9.9,-1 2.8,-2.8 z m -22.4,16.35 1.45,-13.75 -2.55,2.55 -1.35,13.65 z m 89,29.5 -2.45,2.45 -1.4,13.15 2.4,-2.4 z m -31.85,31.9 13.05,-1.35 2.55,-2.55 -13.2,1.45 z m 26.75,22.6 1.55,-13.85 -2.55,2.55 -1.45,13.7 z m -10.8,-10.15 8.6,-8.7 -4.2,-4.2 -4.9,4.9 -1,9.4 2.2,2.2 1.5,-1.4 z m 34.65,-4.8 -1.45,-1.45 -2.75,2.8 -25.75,-25.8 -9.35,1.1 -2.8,2.75 1.15,1.1 2.5,-2.45 25.75,25.75 9.9,-1.05 z m -9.9,-11.3 14.35,-1.55 2.4,-2.4 -14.35,1.5 z m 0.15,-8.85 0.85,-8.75 -2.2,-2.15 -1.3,1.35 1.9,1.9 -9.1,9.05 4.2,4.2 z m 352.25,-330.8 -14.301,1.55 -2.449,2.45 14.3,-1.55 z m -17.4,-12.5 -9,9.05 4.2,4.25 5.55,-5.65 0.9,-8.8 -2.2,-2.1 -1.351,1.35 z m -9.6,1.4 1.4,-13.15 -2.4,2.45 -1.45,13.15 z m -3.7,41.3 1.55,-13.8 -2.55,2.55 -1.45,13.7 z m -11.15,-26.45 -13.15,1.45 -2.45,2.4 13.05,-1.3 z m -3.451,-10.45 25.75,25.75 9.901,-1 2.8,-2.8 -1.4,-1.4 -2.801,2.8 -25.75,-25.85 -9.399,1.15 -2.7,2.7 1.099,1.15 z m 4.5,30.4 1.451,-1.45 -2.201,-2.2 8.651,-8.65 -4.2,-4.2 -4.85,4.85 -1.05,9.45 z m -70.099,49.1 1.4,-13.15 -2.45,2.45 -1.4,13.15 z m 11.25,-2.55 -2.2,-2.1 -1.35,1.35 1.899,1.9 -9.099,9.05 4.25,4.25 5.599,-5.65 z m 4.7,30.3 -25.75,-25.85 -9.4,1.15 -2.701,2.8 1.101,1.1 2.5,-2.55 25.75,25.75 9.899,-1 2.801,-2.75 -1.4,-1.4 z m -5.7,-12.65 14.3,-1.55 2.45,-2.45 -14.3,1.55 z m -13.95,26.2 1.549,-13.75 -2.549,2.5 -1.451,13.7 z m -10.85,-10.15 8.649,-8.65 -4.199,-4.2 -4.85,4.85 -1.05,9.45 2.2,2.2 1.45,-1.45 z m -15.95,-12.4 13.099,-1.35 2.551,-2.5 -13.25,1.45 z m 86.3,81.5 -2.4,2.4 13.1,-1.35 2.55,-2.5 z m 32.85,-4.45 5.6,-5.65 0.9,-8.7 -2.2,-2.2 -1.351,1.35 1.951,1.9 -9.05,9.1 z m -4.75,-11.9 1.4,-13.15 -2.4,2.45 -1.45,13.15 z m 27,11.1 -14.301,1.6 -2.449,2.45 14.3,-1.6 z m -194.8,-178.9 1.4,-13.15 -2.45,2.45 -1.4,13.15 z m 4.749,11.9 5.601,-5.65 0.85,-8.8 -2.15,-2.2 -1.35,1.4 1.9,1.95 -9.1,9.05 z m 5.451,3.2 14.35,-1.55 2.449,-2.45 -14.399,1.55 z m -29.4,-12.05 -2.7,2.8 1.05,1.05 2.5,-2.55 25.8,25.75 9.9,-1 2.8,-2.75 -1.401,-1.4 -2.799,2.7 -25.8,-25.75 z m -11.3,15.7 13.1,-1.35 2.55,-2.5 -13.25,1.45 z m 16.7,16 1.45,-1.45 -2.2,-2.15 8.65,-8.65 -4.2,-4.2 -4.85,4.85 -1.05,9.45 z m 10.1,6.5 1.5,-13.7 -2.55,2.5 -1.4,13.65 z m -78.8,29.5 -2.45,2.45 -1.4,13.2 2.45,-2.4 z m -0.9,20.8 4.2,4.25 5.65,-5.65 0.85,-8.7 -2.15,-2.2 -1.35,1.3 1.9,1.95 z m 16.85,21.5 2.75,-2.8 -1.45,-1.4 -2.7,2.8 -25.8,-25.75 -9.35,1.05 -2.8,2.8 1.1,1.05 2.55,-2.55 25.8,25.75 z m -7.15,-14 14.35,-1.6 2.45,-2.45 -14.4,1.6 z m -26.2,17.45 2.2,2.15 1.45,-1.45 -2.2,-2.15 8.65,-8.6 -4.2,-4.2 -4.9,4.85 z m -14.5,-13.85 13.1,-1.35 2.5,-2.5 -13.2,1.45 z m 26.8,22.55 1.4,-13.75 -2.45,2.5 -1.4,13.7 z m 72.7,57.5 -13.2,1.45 -2.4,2.4 13.1,-1.35 z m 14.9,-14.8 1.4,-13.25 -2.45,2.45 -1.4,13.2 z m 4.749,11.8 5.601,-5.65 0.899,-8.7 -2.199,-2.15 -1.35,1.3 1.9,1.9 -9.1,9.1 z m 22.25,-0.8 -14.299,1.6 -2.451,2.45 14.301,-1.6 z m -8.349,13.9 -2.7,2.8 -25.75,-25.8 -9.4,1.05 -2.75,2.8 1.1,1.1 2.55,-2.55 25.75,25.75 9.9,-0.95 2.75,-2.75 z m -32.45,9.8 1.45,-1.45 -2.2,-2.2 8.65,-8.6 -4.2,-4.2 -4.85,4.85 -1.05,9.4 z m 7.65,9 2.45,-2.4 1.5,-13.85 -2.5,2.5 z m -80.25,42.6 2.4,-2.4 1.45,-13.2 -2.45,2.45 z m -28,16.25 13.1,-1.35 2.5,-2.5 -13.2,1.45 z m 16.7,16.05 1.45,-1.45 -2.2,-2.15 8.6,-8.65 -4.2,-4.2 -4.9,4.85 -0.95,9.4 z m 40.8,-23.7 -14.4,1.6 -2.4,2.45 14.35,-1.6 z m -22.3,0.8 5.65,-5.65 0.85,-8.7 -2.2,-2.15 -1.3,1.3 1.9,1.9 -9.1,9.1 z m 12.6,17.3 2.8,-2.75 -1.45,-1.45 -2.75,2.8 -25.75,-25.8 -9.35,1.05 -2.8,2.8 1.15,1.1 2.5,-2.5 25.75,25.8 z m -21.05,12.2 1.55,-13.85 -2.5,2.5 -1.5,13.75 z m 89,29.4 -2.45,2.45 -1.4,13.15 2.4,-2.4 z m -31.85,31.9 13.1,-1.4 2.5,-2.5 -13.2,1.45 z m 26.75,22.6 1.55,-13.8 -2.5,2.5 -1.5,13.7 z m -10.8,-10.2 8.6,-8.65 -4.15,-4.2 -4.85,4.9 -1.05,9.35 2.2,2.2 1.45,-1.45 z m 34.65,-4.75 -1.45,-1.45 -2.75,2.8 -25.75,-25.75 -9.35,1 -2.75,2.8 1.1,1.1 2.5,-2.45 25.75,25.75 9.9,-1.05 z m -9.9,-11.25 14.35,-1.65 2.449,-2.45 -14.399,1.7 z m 0.15,-8.95 0.85,-8.65 -2.201,-2.2 -1.299,1.3 1.95,1.9 -9.1,9.1 4.199,4.2 z m 173.399,-146.3 -25.75,-25.75 -9.399,1.05 -2.7,2.8 1.099,1.1 2.5,-2.55 25.75,25.75 9.901,-1 2.8,-2.7 -1.4,-1.45 z m -18.099,-0.15 -2.55,2.5 -1.45,13.65 2.45,-2.45 z m -11.651,7.2 1.451,-1.45 -2.201,-2.2 8.651,-8.65 -4.151,-4.2 -4.849,4.85 -1.1,9.45 z m -100.599,67.85 13.099,-1.35 2.5,-2.5 -13.199,1.45 z m 18.15,14.6 -2.2,-2.15 8.649,-8.65 -4.149,-4.2 -4.851,4.85 -1.099,9.4 2.2,2.2 z m 39.35,-22.25 -14.3,1.7 -2.45,2.4 14.3,-1.65 z m -15.75,-13.5 -2.2,-2.2 -1.35,1.3 1.95,1.9 -9.051,9.1 4.151,4.2 5.599,-5.65 z m -11.25,2.5 1.4,-13.25 -2.45,2.45 -1.4,13.2 z m 15.95,27.7 -25.75,-25.75 -9.4,1 -2.75,2.8 1.1,1.1 2.55,-2.55 25.75,25.75 9.899,-0.95 2.75,-2.75 -1.449,-1.45 z m -19.65,13.6 1.5,-13.8 -2.5,2.5 -1.451,13.7 z m 89,29.35 -2.4,2.45 -1.45,13.2 2.45,-2.4 z m -16.3,28.05 -13.2,1.45 -2.4,2.45 13.1,-1.4 z m 2.55,18.45 -2.201,-2.15 8.651,-8.65 -4.151,-4.15 -4.849,4.9 -1.1,9.3 2.199,2.2 z m 39.35,-22.25 -14.301,1.7 -2.449,2.4 14.3,-1.65 z m -6.9,15.35 -1.401,-1.45 -2.75,2.8 -25.75,-25.75 -9.299,1.05 -2.8,2.8 1.05,1.05 2.549,-2.55 25.75,25.75 9.901,-0.95 z m -9.75,-20.2 0.9,-8.65 -2.2,-2.2 -1.351,1.3 1.951,1.95 -9.05,9.1 4.15,4.15 z m -14.05,35.15 1.5,-13.8 -2.5,2.5 -1.45,13.7 z"
       style="fill:#e6c97d;fill-opacity:1;fill-rule:evenodd;stroke:none"
       transform="matrix(1.3333333,0,0,-1.3333333,822.26693,2087)" />
  </g>
  <g
     id="layer-MC2">
    <path
       id="path3"
       d="m 0,0 -41.95,41.95 m 41.9,83.9 L -42,83.9 M -0.05,-41.95 -42,-83.9 m 0,-167.8 41.95,41.95 m 0,41.9 -41.95,42 M -0.05,-335.65 -42,-293.7 m 42,-83.9 -41.95,-41.95 M 0,-545.4 -42,-587.35 m 41.95,83.9 L -42,-461.5 M -16.125,-655.15 -42,-629.3 m -41.95,0 -25.85,-25.85 m -74.25,0 -25.75,25.75 m -41.95,0.1 -25.875,-25.85 m -74.275,0 -25.75,25.75 m -67.8,-25.75 25.8,25.85 m -100.05,-25.85 -25.8,25.85 m -41.95,-0.1 -25.75,-25.75 m 764.9,0 -25.85,25.85 m -41.951,-0.1 -25.774,-25.75 m -309.875,403.45 -42,41.95 m 125.899,-0.05 -41.949,-41.95 m 125.85,0 -41.95,42 m -461.55,-42 -41.95,41.95 m 209.75,-41.9 -41.95,41.95 m -83.9,-42 41.95,41.95 m 167.8,-167.8 -41.95,-41.95 m 42,-84 -41.95,42.05 m -0.05,-125.85 41.95,41.95 m -41.9,461.45 41.95,41.95 m -0.05,42 -41.95,41.95 m 42,-251.75 -42,-41.95 m 41.95,83.95 -41.95,41.95 m 42,251.75 -41.95,-41.95 m 41.95,-419.55 -41.95,41.95 m 209.799,-42 -41.949,42 m -0.1,-125.9 42.049,41.95 m 0,-167.8 -41.949,-41.95 m 41.949,83.9 -41.949,41.95 m 125.85,-125.85 -41.95,41.95 m 42,83.9 -42,-41.95 m -125.85,-84 -42,41.95 m -0.05,42.05 41.95,41.95 m 0.1,167.8 -42.05,-41.95 m 42.05,-83.9 -42,42 m 167.85,41.9 41.95,41.95 m 0,-125.85 -41.95,41.95 m -377.65,-167.8 -41.95,-42.05 m 41.95,209.85 -41.95,-41.95 m 42,-83.9 -41.95,41.95 m 41.9,125.85 -41.95,41.95 m 125.9,-293.75 -41.95,42.05 m 41.9,83.9 -41.95,-41.95 m -125.85,-83.9 -41.95,41.95 m 41.95,83.9 -41.95,-42.05 m -41.95,-41.95 -4.2,-4.2 m 4.15,46.25 -4.15,4.15 m 46.15,163.65 41.95,41.95 m 0,-125.85 -41.95,41.95 m -46.15,-4.2 4.2,4.2 m 0,41.95 -4.2,4.2 m 255.9,37.75 -41.95,-41.95 m 42,-83.9 -41.95,41.95 m -125.9,293.7 -41.95,41.95 m 209.75,-41.95 -41.95,41.95 m -41.9,0 -42,-41.95 m 41.95,-83.9 -41.95,41.95 M -503.55,0 -545.5,41.95 m 41.95,83.9 -41.95,-41.95 m 83.9,-251.75 42,41.95 m -167.85,0.05 -41.95,-41.95 m -41.95,-41.95 -4.2,-4.2 m 4.2,46.1 -4.2,4.2 m 88.1,205.6 -42,-41.95 m 42,83.9 -41.95,41.95 M -671.35,0 l -4.2,4.2 m 4.15,-46.15 -4.15,-4.15 m 4.2,171.95 -4.2,-4.2 M -419.6,41.95 -461.55,0 m 41.9,83.9 -41.95,41.95 M -167.95,0 -209.9,41.95 m 0.1,41.95 41.949,41.95 m 0,-167.8 -41.949,-41.95 m -42.05,0 -41.95,41.95 m 125.949,-125.85 -41.949,41.95 m 125.85,41.95 -41.95,41.95 m 41.95,-83.9 -41.95,-41.95 m -125.85,41.9 -42,-41.95 m 0,167.85 42,41.95 m -0.1,41.95 -41.95,41.95 M -83.95,41.95 -125.9,0 m 41.95,83.9 -41.95,41.95 m 293.7,-335.6 -41.95,-41.95 m -42,-0.05 -41.951,41.95 M 167.8,-377.55 125.85,-419.5 m 41.9,83.85 -41.95,41.95 m 42,-251.8 -41.95,-41.95 m 41.95,84 -42,41.95 m 93.3,-32.6 -9.35,-9.35 m 9.35,-51.3 -9.35,9.35 m -125.851,-41.95 -42,41.95 m 42,83.9 -41.949,-41.95 m 41.9,83.9 -41.951,41.95 m 42,83.95 -41.949,-41.95 m 177.15,9.35 -9.35,-9.35 m 9.35,-51.4 -9.4,9.4 M 167.8,0 125.85,42 m 41.9,83.85 L 125.8,83.9 m 0,-167.8 41.95,41.95 m 0.05,-125.9 -41.95,41.95 m -41.951,41.95 -41.949,42 m 177.15,-9.35 -9.35,9.35 m 9.35,-177.2 -9.35,9.35 m 9.35,51.35 -9.35,-9.35 m -167.851,0 41.951,41.95 m 0,167.8 L 41.899,0 m 42,83.95 L 41.95,125.9 M 209.7,0 l 9.4,9.4 m 0,107.125 -9.35,9.375 M 0,839.15 -41.95,881.1 M -0.05,797.2 -42,755.25 M -0.05,629.4 -42,587.45 M -0.05,503.5 -42,545.45 m 41.95,-209.8 -41.95,42 m 0,-125.95 41.95,41.95 M 0,461.55 -41.95,419.6 M -0.05,671.3 -42,713.25 M -0.05,167.85 -42,209.8 M -27.8,937.25 -42,923.05 M 167.75,503.5 125.8,545.45 m 42,-251.8 -41.95,-41.95 m 41.9,83.95 -41.95,42 m 0.05,41.95 41.95,41.95 m 0,-293.7 -41.95,41.95 m -83.9,125.8 41.949,41.95 m 135.201,-93.2 -9.35,9.35 m 9.35,-116.55 -9.35,-9.35 m 9.35,177.2 -9.35,-9.35 M 83.85,209.75 41.899,167.8 M 83.85,251.75 41.899,293.7 m 42,251.8 -41.949,-41.95 m 41.9,-83.95 -41.951,41.95 m 167.851,41.95 9.35,9.35 m 0,-60.7 -9.4,9.4 M 167.75,797.2 125.8,755.25 m 42,83.9 -41.95,41.95 M 167.8,629.4 125.85,587.45 m 41.95,83.85 -41.95,41.95 m 14.15,224 -14.2,-14.2 M 219.1,620 l -9.35,9.35 m 9.35,51.35 -9.35,-9.35 M 83.85,587.4 41.899,629.35 M 83.85,713.3 41.899,671.35 m 42,83.85 -41.949,41.95 m 41.9,83.95 -41.951,-41.95 m 42,83.95 -14.149,14.15 m 149.35,-88.7 -9.4,-9.4 m 9.4,-51.3 -9.35,9.35 m -545.5,-503.5 -41.95,-41.95 m 41.95,587.4 -41.95,41.95 m 41.95,-251.75 -41.95,-41.95 m 42,-83.85 -41.95,41.95 m 41.9,-83.95 -41.95,-41.95 m 42,-84 -41.95,41.95 m 0,377.65 41.95,41.95 m -0.05,-125.8 -41.95,41.95 m 41.95,-545.5 -41.95,41.95 m 209.849,293.75 -41.949,41.95 m 41.949,-209.8 -41.949,42 m -42.05,0 -41.95,-42 M -167.851,293.7 -209.8,251.75 m 125.85,125.9 -41.95,-42 m -42.05,125.9 -41.95,-41.95 m 42.049,-251.8 -41.949,41.95 m 125.85,42 -41.95,41.95 m 0,-125.9 41.95,41.95 m -167.8,41.95 -42,41.95 m 42,-83.85 -42,-41.95 m 41.9,377.6 -41.95,-41.95 m 42.05,-83.9 -42,41.95 m 209.8,83.9 -41.95,-41.95 m 41.95,-83.9 -41.95,41.95 m -461.55,-83.9 -41.95,-42 m 209.75,42 -41.95,-42 m -41.95,-41.95 -41.95,-41.95 m 41.95,83.9 -41.95,42 m 41.95,125.85 -41.95,41.95 m 41.95,-83.9 -41.95,-41.95 m 41.95,-251.8 -41.95,41.95 m 125.85,41.95 -41.95,41.95 m 41.95,-83.85 -41.95,-41.95 m -125.85,83.9 -41.95,41.95 m 41.95,-83.95 -41.95,-41.95 m -41.95,0.05 -4.2,4.2 m 4.2,121.6 -4.2,-4.2 m 4.15,46.2 -4.15,4.15 m 46.15,163.7 41.95,41.95 m -0.05,-125.85 -41.95,41.95 m -46.1,-4.2 4.2,4.2 m -0.05,41.95 -4.15,4.15 m 255.9,37.8 -41.95,-41.95 m 42,-83.9 -41.95,41.95 m -42,335.65 -41.95,-41.95 m 41.95,83.9 -41.95,41.95 m 0,-293.7 41.95,41.95 m 0,42 -41.95,41.95 m 125.85,-125.85 -41.95,41.95 m 0,41.9 41.95,41.95 m -167.8,-125.85 -41.95,41.95 m 41.95,83.95 -41.95,-41.95 m -41.95,-41.95 -4.2,-4.2 m 4.2,46.1 -4.2,4.2 m 88.05,205.6 -41.95,-41.95 m 42,-83.9 -41.95,41.95 m -41.95,41.95 -4.2,4.2 m 88.1,79.7 -14.2,14.2 m -69.75,-140.05 -4.15,-4.15 m 144.25,144.2 -14.2,-14.2 m 125.85,-167.8 -41.95,41.95 m 42,83.9 -41.95,-41.95 m 41.9,83.9 -14.2,14.2 m 70.35,0 -14.15,-14.15 m 209.7,-83.95 -41.95,41.95 m 42.049,-83.9 -41.949,-41.95 m 41.949,-125.9 -41.949,-41.95 m 41.949,83.95 -41.949,41.95 m 125.85,-125.9 -41.95,41.95 m 41.95,83.95 -41.95,-41.95 m -125.85,-83.9 -42,41.95 m 42,83.85 -42,-41.95 m 0,167.85 42,41.95 m -0.1,-125.85 -41.95,41.95 m 41.95,125.85 -14.2,14.2 m 56.25,-14.2 14.199,14.2 M -83.95,881.1 -125.9,839.15 m 41.95,-83.9 -41.95,41.95 m 41.95,125.85 -14.2,14.2"
       style="fill:none;stroke:#e6c97d;stroke-width:2;stroke-linecap:butt;stroke-linejoin:miter;stroke-miterlimit:3;stroke-dasharray:none;stroke-opacity:1"
       transform="matrix(1.3333333,0,0,-1.3333333,903.60027,1255.3333)"
       clip-path="url(#clipPath4)" />
  </g>
  <g
     id="layer-MC3">
    <path
       id="path5"
       d="m 0,0 c 0.033,-0.133 0.2,-0.149 0.5,-0.05 3.5,1.1 9.367,6.467 17.6,16.1 7,8.2 12.1,14.917 15.3,20.15 l 1.1,0.6 C 27.7,36.4 20.067,31.684 11.6,22.65 8.233,19.05 5.433,15.45 3.2,11.851 1,8.317 -0.1,5.667 -0.1,3.9 -0.1,1.434 -0.067,0.134 0,0 m -11.6,3.4 c 0.133,6.333 0.967,11.583 2.5,15.75 3.767,10.367 14.55,20.083 32.35,29.15 H 59 c 1.367,-0.533 2.65,-1.483 3.85,-2.85 1.167,-1.333 1.75,-2.433 1.75,-3.3 10.4,-0.567 20.5,0.1 30.3,2 6.9,1.333 14.95,3.617 24.15,6.85 11.833,4.167 19.067,6.617 21.7,7.351 8.067,2.299 15.683,3.449 22.85,3.449 8.267,0 15.2,-0.65 20.8,-1.949 3.433,-0.768 7.483,-2.184 12.15,-4.25 4.767,-2.068 8.7,-3.467 11.8,-4.201 5.3,-1.299 11.85,-1.95 19.65,-1.95 25.433,0 40.517,0.05 45.25,0.151 10.4,0.199 17.55,0.833 21.45,1.899 3.734,1 6.4,2.934 8,5.8 1.767,4.433 3.4,8.384 4.9,11.85 1.367,3.034 4.25,7.183 8.65,12.451 4.3,5.166 8.45,9.533 12.45,13.099 6.533,6.1 11.916,10.467 16.15,13.1 4.834,3.033 9.133,4.45 12.9,4.25 7.467,-0.366 15.4,-8.017 23.8,-22.949 8.733,0.432 14.733,1.816 18,4.149 1.6,1.4 2.85,2.483 3.75,3.25 1.6,1.333 3.45,2.434 5.55,3.3 h 73.7 c 1.834,0.233 4.433,-0.783 7.8,-3.05 2.433,-1.667 4.617,-3.467 6.55,-5.399 31.9,3.432 52.5,-5.734 61.8,-27.5 3.067,-7.134 4.833,-15.584 5.3,-25.351 0.233,-5.133 0.167,-10.767 -0.2,-16.899 0,-6.768 -0.166,-11.618 -0.5,-14.551 -0.333,-3.067 -1.083,-6.1 -2.25,-9.1 -0.133,-0.367 -1.866,-4.333 -5.2,-11.9 -3.067,-7.033 -6.133,-14.683 -9.2,-22.949 -0.534,-1.401 -1.716,-3.318 -3.55,-5.75 -1.1,-1.401 -2.9,-3.701 -5.4,-6.901 -4.766,-6.233 -7.217,-11.483 -7.35,-15.75 -0.034,-1.266 0.05,-3.316 0.25,-6.15 -0.1,-2.567 -1.034,-4.717 -2.8,-6.449 -4.934,-4.834 -17.866,-8.051 -38.8,-9.651 l -72.85,-1.099 c -0.466,-0.201 -2.016,-0.434 -4.65,-0.701 -5.3,-0.567 -13.4,-1.083 -24.3,-1.549 -2.3,-3.167 -6.733,-7.118 -13.3,-11.851 -6.667,-4.8 -12.084,-7.883 -16.25,-9.25 h -40.2 c -1.5,1.101 -3.6,4.184 -6.3,9.25 -3.867,7.3 -6.584,12.167 -8.15,14.601 -8.366,12.966 -18.184,19.449 -29.45,19.449 -5.733,0 -10.7,-0.983 -14.9,-2.949 -1.1,-0.5 -4.6,-2.667 -10.5,-6.5 -4.567,-2.934 -9.283,-5.084 -14.15,-6.451 -6.867,-1.966 -15.433,-2.95 -25.7,-2.95 -29.767,0 -49.9,4.367 -60.4,13.1 -1.6,1.334 -3.183,2.933 -4.75,4.801 -1.6,2 -2.767,3.399 -3.5,4.199 -2.433,2.733 -5.317,4.1 -8.65,4.1 -6.067,0 -11.45,-1.483 -16.15,-4.45 -2.833,-1.766 -7.117,-5.033 -12.85,-9.8 -5.967,-4.333 -12.633,-7.583 -20,-9.75 -10.033,-2.966 -22.583,-4.45 -37.65,-4.45 -24.2,0 -40.683,11.717 -49.45,35.151 -4.167,11.099 -6.25,24.232 -6.25,39.399 -0.233,8.667 -0.317,14.884 -0.25,18.65 m 482.85,462 c 11.333,-9.466 22.55,-17.383 33.65,-23.75 14.534,-8.334 31.916,-15.983 52.15,-22.95 23.5,-8.099 39.233,-25.55 47.2,-52.349 2.833,-9.5 4.7,-20.301 5.6,-32.401 0.433,-6.133 0.65,-14.816 0.65,-26.05 0,-15.233 -3.934,-32.033 -11.8,-50.4 -7.2,-16.866 -16.85,-33.183 -28.95,-48.95 -11.767,-15.3 -23.934,-27.633 -36.5,-37 -13.134,-9.767 -24.6,-14.65 -34.4,-14.65 -11.234,0 -22.05,3.083 -32.45,9.25 -6.1,3.6 -14.766,10.35 -26,20.25 -11.067,9.8 -19.85,16.567 -26.35,20.3 -10.7,6.167 -21.9,9.25 -33.6,9.25 -9.9,0 -17.134,-1.333 -21.7,-4 -1.5,-0.867 -3.283,-2.233 -5.35,-4.099 -2.433,-2.201 -4.3,-3.768 -5.6,-4.701 -5.533,-3.9 -13.567,-6.833 -24.1,-8.799 -14.3,-2.667 -34.667,-4 -61.1,-4 -1.9,0 -7.133,0.649 -15.7,1.949 -11.133,1.7 -19.967,2.917 -26.5,3.65 H 114.95 c -8.167,-2.633 -16.467,-5.133 -24.9,-7.5 -16.7,-4.733 -27.533,-7.099 -32.5,-7.099 -14.167,0 -33.1,8.299 -56.8,24.899 -9.533,6.667 -18.6,13.867 -27.2,21.601 -8.133,7.333 -14.35,13.766 -18.65,19.299 v 92 l -0.55,1.1 c -0.633,-2.267 -1.033,-5.2 -1.2,-8.8 -0.133,-2.233 -0.2,-5.95 -0.2,-11.15 -0.4,0 -1.133,-0.333 -2.2,-1 -1.367,-0.866 -2.517,-1.483 -3.45,-1.85 -2.767,1.6 -4.5,3.95 -5.2,7.05 -0.267,1.101 -0.4,3.351 -0.4,6.75 0,6.533 0.617,15.417 1.85,26.65 1.967,17.4 4.933,33.267 8.9,47.6 12.2,43.867 31.683,65.8 58.45,65.8 2.333,0 3.933,-0.183 4.8,-0.55 0.4,-0.2 0.583,-0.383 0.55,-0.55 0,-0.233 0.183,-0.45 0.55,-0.65 0.367,-0.199 0.55,-1.4 0.55,-3.6 0,-0.134 -2.217,-1.384 -6.65,-3.75 -5.533,-3.134 -10.533,-6.45 -15,-9.95 -14.833,-11.533 -23.183,-24.116 -25.05,-37.75 h 20 c 2.767,0.9 4.733,1.9 5.9,3 1.2,1.134 2.183,1.833 2.95,2.101 3.467,1.232 16.917,2.432 40.35,3.599 5.333,7.734 11.083,18.2 17.25,31.401 7.633,16.299 12.817,26.866 15.55,31.699 6.633,11.7 14.233,21.683 22.8,29.95 10.467,10.167 23.433,18.9 38.9,26.2 h 15.75 c 1.967,-0.766 7.95,-3.433 17.95,-8 9.567,-4.2 15.483,-6.3 17.75,-6.3 1.4,0 8.317,4.817 20.75,14.451 13.933,10.799 21.833,16.75 23.7,17.849 H 257 c 2.467,-1.967 5.017,-4.95 7.65,-8.95 1,-1.5 3.317,-5.366 6.95,-11.6 6.133,-10.466 11.85,-17.383 17.15,-20.75 L 402.1,518 c 13.933,-8.066 27.167,-17.2 39.7,-27.399 7.134,-5.801 16.95,-14.201 29.45,-25.201 m 63.7,856 c 0,-1.5 -0.033,-4.083 -0.1,-7.75 0,-5.466 -1.117,-14.417 -3.35,-26.85 -2.267,-12.4 -3.4,-21.533 -3.4,-27.4 0,-12.167 1.266,-23.983 3.8,-35.45 1.8,-8.1 4.617,-17.3 8.45,-27.6 5,-13.6 7.8,-21.35 8.4,-23.25 2.533,-8.2 3.8,-15.633 3.8,-22.3 0,-7.5 -0.283,-13.467 -0.85,-17.9 -1.134,-8.633 -3.433,-16.267 -6.9,-22.9 -9.934,-19 -29.184,-29.95 -57.75,-32.85 h -142.9 c -2.133,1.767 -4.117,4.034 -5.95,6.8 -1.467,2.167 -2.2,3.45 -2.2,3.85 l -93.1,-0.55 c -4.467,-5.066 -7.817,-10.833 -10.05,-17.3 -1.633,-4.833 -2.867,-10.95 -3.7,-18.35 -0.467,-4.166 -1.15,-10.483 -2.05,-18.95 -1.067,-7.333 -2.733,-13.7 -5,-19.1 -6.5,-15.533 -22.217,-29.9 -47.15,-43.1 -7.467,-3.967 -15.017,-7.416 -22.65,-10.35 9.9,-0.3 16.667,-1.617 20.3,-3.95 1.233,-0.8 2.467,-2.183 3.7,-4.15 0.867,-1.333 2.067,-2 3.6,-2 2.033,0 3.967,0.284 5.8,0.85 4.733,1.434 13.767,3.4 27.1,5.9 14.933,2.8 24.05,4.6 27.35,5.4 0.967,0.134 5.917,0.583 14.85,1.35 h 38 c 0.6,-0.466 2.95,-2.316 7.05,-5.55 4.9,-3.5 10.233,-6.65 16,-9.45 17.8,-8.566 37.867,-12.85 60.2,-12.85 15.667,0 27.3,0.4 34.9,1.2 5.034,0.5 9.216,1.367 12.55,2.6 3.7,1.367 6.866,2.234 9.5,2.6 5.3,0.8 13.866,1.2 25.7,1.2 37,0 64.8,-14.066 83.4,-42.2 6.266,-9.5 11.2,-20.233 14.8,-32.2 2.233,-7.5 3.716,-14.566 4.45,-21.2 2.634,-20.233 5.933,-35.6 9.9,-46.1 2.5,-6.666 5.883,-12.4 10.15,-17.2 4.167,-4.666 6.834,-8.65 8,-11.95 2.133,-6.133 3.2,-16.216 3.2,-30.25 0,-15.366 -6.25,-34.033 -18.75,-56 -5.033,-8.8 -10.25,-16.6 -15.65,-23.4 -5.266,-6.6 -9.55,-10.783 -12.85,-12.55 -6.1,-3.333 -15.65,-8.667 -28.65,-16 -12.1,-6.733 -22.867,-12.45 -32.3,-17.15 -27.067,-13.466 -54.567,-24.35 -82.5,-32.65 h -44.45 c -15.534,7.701 -26.45,19.217 -32.75,34.55 -4.567,11.2 -6.683,24.616 -6.35,40.25 H 294.1 c -1.567,-0.833 -2.567,-1.883 -3,-3.15 -0.466,-1.266 -1.017,-2.1 -1.65,-2.5 -2.6,-1.5 -12.95,-2.25 -31.05,-2.25 -13.033,0 -22.167,0.534 -27.4,1.6 -2.467,0.5 -5.267,1.65 -8.4,3.45 -2.767,1.633 -6.867,2.8 -12.3,3.5 -8.1,1.067 -21.133,1.6 -39.1,1.6 -10.667,0 -19,-0.65 -25,-1.95 -3.8,-0.8 -7.65,-2.216 -11.55,-4.25 -4.1,-2.133 -7.6,-3.55 -10.5,-4.25 -5.233,-1.3 -12.517,-1.95 -21.85,-1.95 -12.467,0 -28.817,6.183 -49.05,18.55 -5.8,3.534 -13.167,8.383 -22.1,14.55 -8.267,5.7 -13.517,9.2 -15.75,10.5 -12.7,7.234 -20.117,11.767 -22.25,13.6 -1.8,1.567 -3.017,3.167 -3.65,4.8 -0.567,1.467 -0.85,3.5 -0.85,6.1 V 744.7 C -7.683,798.134 1,845.717 14.7,887.45 c 11.933,36.3 26.383,61.317 43.35,75.05 17.167,13.867 36.517,15.8 58.05,5.8 -0.1,0.7 -0.183,1.433 -0.25,2.2 -0.233,3.367 0.067,7.05 0.9,11.05 l 1.3,5 c 0.133,11.167 0.2,19.55 0.2,25.15 0.033,9.867 -0.3,18.217 -1,25.05 -1.833,18.733 -7,34.067 -15.5,46 -22.867,-8.267 -39.65,-1.966 -50.35,18.9 -6.7,13.1 -10.55,30.517 -11.55,52.25 -0.133,4.733 -4.083,10.967 -11.85,18.7 -0.233,0.233 -3.417,3.25 -9.55,9.05 -3.567,3.433 -6.083,6.1 -7.55,8 -4.067,5.167 -6.683,11.034 -7.85,17.6 -0.6,3.333 -0.9,8.983 -0.9,16.95 0,8.9 1.467,21.8 4.4,38.7 2.9,16.867 4.35,30.884 4.35,42.05 1.6,9.533 2.95,15.867 4.05,19 2.533,7.1 6.717,12.933 12.55,17.5 15.2,11.834 45.283,17.75 90.25,17.75 4.633,0 7.267,0.234 7.9,0.7 0.367,0.3 0.383,0.867 0.05,1.7 0.6,1.867 10.7,3.233 30.3,4.1 19.033,4.533 34.467,2.7 46.3,-5.5 3.433,-2.367 7.317,-5.916 11.65,-10.65 4.133,-4.533 7.033,-7.317 8.7,-8.35 0.133,0.834 0.133,2.133 0,3.9 -0.133,1.733 -0.117,3.017 0.05,3.85 0.533,2.967 3.15,5.267 7.85,6.9 h 100.4 c 1.7,-0.933 3.967,-2.233 6.8,-3.9 2.434,-1.166 4.85,-1.75 7.25,-1.75 1.033,0 14.366,2.767 40,8.3 27.967,5.534 48.2,8.3 60.7,8.3 8.934,0 20.717,-1.516 35.35,-4.55 20.8,-4.333 34.617,-10.216 41.45,-17.65 6.4,-6.933 10.25,-12.517 11.55,-16.75 0.533,-1.8 0.834,-3.95 0.9,-6.45"
       style="fill:#553e62;fill-opacity:1;fill-rule:evenodd;stroke:none"
       transform="matrix(1.3333333,0,0,-1.3333333,224.33333,1938.2669)"
       clip-path="url(#clipPath6)" />
  </g>
  <g
     id="layer-MC4">
    <path
       id="path7"
       d="M 0,0 V -173.1 H 14.45 L -16.1,-198 H -32.95 V -24.4 H -47.6 L -16.1,0 Z m -255.55,10 -5.85,-5.1 v -176.3 l 15.9,-13.65 h 10.45 l 33.45,26.6 V -24.4 h -16.8 l 32.95,25.85 h 14.4 V -169.9 l 18.55,-15.15 h 10 l 19.05,15.15 v 156.95 l 41,32.95 H -66.1 V 11.45 H -82.45 L -94.9,1.45 V -161.6 l -45.15,-36.4 h -16.35 l -37.1,29.55 -37.6,-29.55 h -17.85 l -46.15,36.4 v 148.65 l 39.55,31 h 16.6 V 10 Z m 222.651,408.95 31,-24.4 V 257.6 L -49.55,219.5 H -78.1 l -31.5,24.9 v 135 L -60,418.95 Z M -51.95,410.9 -78.1,389.4 v -155 l 8.05,-6.35 h 12.45 l 26.65,21 V 402.6 L -41,410.9 Z m -102.6,6.6 V 128.9 l -34.9,-28.3 h -19.05 v 6.85 h 14.4 l 9,6.6 v 116.9 l -14.85,-11.45 h -32.5 l -31.5,24.9 v 148.7 h -18.55 l 31,24.4 h 19.05 V 234.4 l 10,-8.3 H -210 l 24.9,20 v 147 h -20.95 l 31,24.4 z M 170.9,-20 v -153.1 h 18.55 L 158.95,-198 H 138.4 V -6.6 H 123.55 L 92.5,-31.5 v -212.4 l -41,-33.2 H 37.101 v 6.6 H 51.5 l 10,8.05 V -24.4 H 43.45 L 73.95,0 h 17.1 V -18.05 L 115,1.45 h 29.05 z m -22.85,239.5 h -10 l -10.5,8.55 v 9.5 L 105.101,219.5 H 74.55 l -31.5,24.9 V 393.1 H 26.95 L 59.9,418.95 H 74.55 V 234.4 l 8.051,-6.35 H 95.05 l 26.85,21 V 393.1 h -16.799 l 32.949,25.85 h 14.4 V 239.5 h 20.5 z"
       style="fill:#e6c97d;fill-opacity:1;fill-rule:evenodd;stroke:none"
       transform="matrix(1.3333333,0,0,-1.3333333,672.0664,738.4668)" />
  </g>
  <g
     id="layer-MC5">
    <path
       id="path8"
       d="m 662.45,111.75 h -9.3 v 11.4 h 9.3 z m 27.5,266.65 -12.35,-9.9 h -4.85 v 1.9 h 4.85 l 3.3,2.45 v 16.3 l 11.65,9.45 h 4.35 v -2.3 h -4.35 l -2.6,-2.15 z M 689.4,509.5 V 407.05 l -11.1,-8.85 h -5.55 v 1.95 h 4.85 l 2.6,2 V 502.2 Z M 584.6,160.4 v -49.55 h 4.35 v -2.55 h -4.35 l -6.75,5.4 -6.95,-5.4 h -9.75 l -9.45,7.45 v 40.5 l 14.9,11.9 h 8.1 z m -16.05,5.3 -7.4,-6 v -47.5 l 1.7,-1.35 h 4.5 l 7.35,5.85 v 46.55 l -3,2.45 z m 71.05,35.2 14.9,11.75 h 17.7 l 14.2,-11.35 v -48.05 l -21.45,-17.2 h -4.3 v 1.9 l 16.05,13 v 53.35 l -7.5,6.05 h -12.9 l -6.95,-5.6 V 189.9 H 639.6 Z M 464,168.15 V 116.7 l 5.55,-4.5 h 3 l 5.7,4.5 v 47.1 l 12.3,9.9 h 4.95 v -2.55 h -4.95 l -3.7,-3 V 119.2 L 473.3,108.3 h -4.9 l -11.15,8.85 -11.3,-8.85 h -5.35 l -13.85,10.9 v 44.6 l 11.9,9.3 h 4.95 v -2.4 h -4.95 l -1.75,-1.55 V 116.3 l 4.75,-4.1 h 3.15 l 10.05,7.95 v 40.25 h -5.1 l 9.9,7.75 z m 154.45,49.5 v -2.4 h -3.55 l -2.6,-1.9 V 169.7 h 3.8 l 2.35,1.9 v 5.55 h 3.15 v -6 l -4.15,-3.9 h -5.15 v -54.5 l 3.25,-2.45 h 2.35 l 5.7,4.45 v 3 h 3 v -4.05 l -6.75,-5.4 H 609.4 l -6.85,5.4 v 48.6 h -4.45 l -2.4,-1.9 v -5 h -2.6 v 5.4 l 4.4,3.45 h 5.05 v 44.1 l 11.6,9.3 z m -96.4,0 v -2.4 h -4.2 l -2.55,-1.9 V 165.7 l 7.5,5.9 h 6.7 l 8.75,-6.9 v -48.95 h 5.55 l -9.3,-7.45 h -5 v 61.4 h -4.15 l -10.05,-8 V 82.1 l -11.7,-9.45 h -4.35 V 75.1 H 503 l 3,2.45 V 208.8 l 11.3,8.85 z m -293.7,-51.95 -9.3,-7.45 v -63.7 l -12.3,-10 h -4.3 v 2 h 4.3 l 3,2.4 v 71.45 h -5.4 l 9.15,7.3 h 5.1 v -5.4 l 7.2,5.85 h 8.7 l 8.05,-6.45 v -45.95 h 5.6 L 239,108.3 h -6.15 v 57.4 z m 44.4,0 -7.85,-6.4 v -46.55 l 2.45,-1.9 h 3.75 l 7.95,6.3 v 46.1 l -3,2.45 z m 5.7,2.45 9.3,-7.35 V 119.75 L 273.5,108.3 h -8.6 l -9.45,7.45 v 40.5 l 14.9,11.9 z m 35.25,4.95 v -2.4 h -4.95 L 307,169.15 V 116.3 l 4.75,-4.1 h 3.15 l 10.05,7.95 v 40.25 h -5.1 l 9.9,7.75 h 4.35 V 116.7 l 5.55,-4.5 h 3 l 5.7,4.5 v 47.1 l 12.3,9.9 h 4.95 v -2.55 h -4.95 l -3.7,-3 V 119.2 L 343.4,108.3 h -4.9 l -11.15,8.85 -11.3,-8.85 h -5.35 l -13.85,10.9 v 44.6 l 11.9,9.3 z m -65.8,281.5 v -46.55 l 2.45,-1.9 h 3.75 l 7.95,6.3 v 46.1 l -3,2.45 h -3.3 z m 13.55,8.85 9.3,-7.35 V 415.05 L 256.5,403.6 h -8.6 l -9.45,7.45 v 40.5 l 14.9,11.9 z m -34.7,49.5 v -2.4 h -3.55 l -2.6,-1.9 V 465 h 3.8 l 2.35,1.9 v 5.55 h 3.15 v -6 l -4.15,-3.9 h -5.15 v -54.5 l 3.25,-2.45 h 2.35 l 5.7,4.45 v 3 h 3 V 409 l -6.75,-5.4 H 217.7 l -6.85,5.4 v 48.6 h -4.45 l -2.4,-1.9 v -5 h -2.6 v 5.4 l 4.4,3.45 h 5.05 v 44.1 l 11.6,9.3 z M 638.8,478.3 v -73.25 l 3.05,-2.5 h 6.7 l 3.8,3.05 v 74.7 l -3,2.45 h -5.1 z m 4.85,6.9 h 6.75 l 11.85,-9.3 v -65.4 l -12.9,-10.35 H 640.5 L 629.35,409 v 65 z m -35.7,-2.45 h -5.1 l -5.45,-4.45 v -73.25 l 3.05,-2.5 h 6.7 l 3.8,3.05 v 74.7 z m 12.9,-6.85 v -65.4 l -12.9,-10.35 H 599.1 L 587.95,409 v 65 l 14.3,11.2 H 609 Z M 512,470.45 h -3 l 19.15,15.35 V 400.15 H 519 v 75.75 z m 44,7.85 v -73.25 l 3.05,-2.5 h 6.7 l 3.8,3.05 v 74.7 l -3,2.45 h -5.1 z m 4.85,6.9 h 6.75 l 11.85,-9.3 v -65.4 l -12.9,-10.35 H 557.7 L 546.55,409 v 65 z m 30.95,118.15 v -24.8 l 12.85,10.35 v 17.3 l -3,2.45 H 598.5 Z M 414.75,461 h -3.15 l -7.4,-6 v -47.5 l 1.7,-1.35 h 4.5 l 7.35,5.85 v 46.55 z m 3,2.45 9.9,-7.75 V 406.15 H 432 v -2.55 h -4.35 l -6.75,5.4 -6.95,-5.4 h -9.75 l -9.45,7.45 v 40.5 l 14.9,11.9 z M 450,463 V 451.55 L 464.25,463 h 6.15 l 3.55,-3 v -4.3 h 5 l -8.55,-7.15 h -3.15 l -2.6,2.15 v 5 H 461.5 L 450,446.25 v -35.2 h 5.35 l -9.05,-7.45 h -5.75 v 52.5 h -3.7 l 8.75,6.9 z m -86.5,-32.1 12.85,10.35 v 17.3 l -3,2.45 h -3.15 l -6.7,-5.3 z M 339.9,463 v -86.55 l -10.5,-8.5 h -5.7 V 370 h 4.3 l 2.75,1.95 v 35.1 l -4.5,-3.45 h -9.75 l -9.45,7.45 v 44.65 h -5.55 l 9.3,7.3 h 5.7 v -54.95 l 3,-2.45 h 3.75 l 7.5,6 v 44.1 h -6.3 l 9.3,7.3 z m 36.45,0.45 9.9,-7.75 v -11 L 362.8,425.95 v -17.9 l 3.05,-2.45 H 369 l 7.35,6 v 12.2 l 9.3,7.55 V 414.5 L 372,403.6 h -9.2 l -9.45,7.45 v 40.5 l 14.9,11.9 z m -5.8,139.9 v -24.8 l 12.85,10.35 v 17.3 l -3,2.45 h -3.15 z M 466,558.7 v 40.5 l 14.9,11.9 h 8.1 l 9.3,-7.35 V 562.7 l -14.25,-11.45 h -8.6 z m 9.45,43.55 V 555.7 l 2.45,-1.9 h 3.75 l 7.95,6.3 v 46.1 l -3,2.45 h -3.3 z m -27.85,8.4 9.3,-7.3 v -9.45 l -8.7,-7 v 19.85 l -2.55,1.9 h -4.2 l -6.7,-5.3 V 554.7 l 1.75,-1.45 h 4.4 l 7.3,6 v 12.2 l 9.3,7.55 v -16.3 l -14.25,-11.45 h -9.2 l -9.45,7.45 v 40.5 l 14.3,11.45 z m -28.95,49.95 v -2.4 h -4.95 l -1.75,-1.5 v -97.45 h 5.5 l -9.9,-8 H 401.8 V 651.3 l 11.9,9.3 z m -35.25,-49.5 9.9,-7.75 v -11 L 369.85,573.6 v -17.9 l 3.05,-2.45 h 3.15 l 7.35,6 v 12.2 l 9.3,7.55 v -16.85 l -13.65,-10.9 h -9.2 l -9.45,7.45 v 40.5 l 14.9,11.9 z m -37.15,0 v -48.95 l -13.55,-10.9 h -4.9 l -11.15,8.85 -11.3,-8.85 H 300 l -13.85,10.9 v 44.6 l 11.9,9.3 H 303 v -2.4 h -4.95 l -1.75,-1.55 v -52.85 l 4.75,-4.1 h 3.15 l 10.05,7.95 v 40.25 h -5.1 l 9.9,7.75 h 4.35 v -51.45 l 5.55,-4.5 h 3 l 5.7,4.5 v 47.1 l 12.3,9.9 h 4.95 v -2.55 h -4.95 z m 258.4,0 9.9,-7.75 v -11 L 591.1,573.6 v -17.9 l 3.05,-2.45 h 3.15 l 7.35,6 v 12.2 l 9.3,7.55 v -16.85 l -13.65,-10.9 h -9.2 l -9.45,7.45 v 40.5 l 14.9,11.9 z m -83.4,0 v -5.85 l 6.75,5.4 h 7.9 l 8.15,-6.45 8.15,6.45 h 7.3 l 8.55,-6.9 v -44.5 h 5.05 l -9.85,-8 h -4.35 v 57.4 h -3.7 l -10.55,-8.35 v -41.6 h 4.4 l -9.35,-7.45 h -3.8 v 57.4 H 531 l -9.75,-7.9 v -64.8 l -11.25,-9 h -4.35 v 2.55 h 3.15 l 3.6,3 v 70.85 H 507 l 9.85,7.75 z"
       style="fill:#e6c97d;fill-opacity:1;fill-rule:evenodd;stroke:none"
       transform="matrix(1.3333333,0,0,-1.3333333,0,2133.3333)" />
    <path
       id="path9"
       d="m 294.15,407.05 h -9.9 v 11.4 h 9.9 z m 202.5,0 h -9.9 v 11.4 h 9.9 z"
       style="fill:#553e62;fill-opacity:1;fill-rule:evenodd;stroke:none"
       transform="matrix(1.3333333,0,0,-1.3333333,0,2133.3333)" />
  </g>
</svg>
